<svg xmlns="http://www.w3.org/2000/svg" viewBox="0 0 107.82 29.14"><defs><style>.cls-2{fill:#ffffff;}</style></defs><g id="Layer_2" data-name="Layer 2"><g id="Layer_1-2" data-name="Layer 1"><g class="cls-1"><rect class="cls-2" y="19.69" width="51.98" height="7.54"/><rect class="cls-2" x="14.17" y="9.84" width="37.81" height="7.54"/><rect class="cls-2" x="28.34" width="23.64" height="7.54"/><polygon class="cls-2" points="63.87 0.01 62.74 5.19 61.3 0.01 59.59 0.01 58.19 5.19 57.05 0.01 55.12 0.01 57.07 7.54 59.06 7.54 60.46 2.71 61.85 7.54 63.84 7.54 65.79 0.01 63.87 0.01"/><path class="cls-2" d="M69.57,7.54V4.62c0-.42,0-1-.39-1.27a.85.85,0,0,0-.47-.13,1,1,0,0,0-.5.15c-.36.24-.41.62-.41,1.39V7.54H66.12V0H67.8V2.55a3.06,3.06,0,0,1,.33-.29,2.12,2.12,0,0,1,1.29-.44,1.85,1.85,0,0,1,1.39.55,1.23,1.23,0,0,1,.27.45,2.63,2.63,0,0,1,.16,1.06V7.54Z"/><path class="cls-2" d="M72.3,7.54H74V2H72.3Zm0-6.27H74V0H72.3Z"/><path class="cls-2" d="M76.91,3.11v2.5a1,1,0,0,0,0,.44.47.47,0,0,0,.4.18h.59V7.49a5.39,5.39,0,0,1-.89.09H76.7a1.62,1.62,0,0,1-1-.34,1.74,1.74,0,0,1-.41-1.45V3.1h-.83v-1h.83V.36h1.66V2.11H78v1Z"/><path class="cls-2" d="M81.87,3a1.21,1.21,0,0,0-.51-.1,1.17,1.17,0,0,0-1.07.67,2.58,2.58,0,0,0-.13.43h2.33a1.11,1.11,0,0,0-.62-1M80.15,5a1.13,1.13,0,0,0,0,.33,1.24,1.24,0,0,0,1.27,1.06,1.55,1.55,0,0,0,.55-.1,1.74,1.74,0,0,0,.9-.89l1.26.64a6.82,6.82,0,0,1-.48.63,3.22,3.22,0,0,1-2.36,1,3.53,3.53,0,0,1-1-.15A2.65,2.65,0,0,1,78.44,4.8a3.29,3.29,0,0,1,.73-2.18,2.73,2.73,0,0,1,2.2-.88,2.7,2.7,0,0,1,2.23,1A4,4,0,0,1,84.23,5Z"/><polygon class="cls-2" points="63.84 27.21 61.85 27.21 60.46 22.39 59.06 27.21 57.07 27.21 55.12 19.68 57.05 19.68 58.19 24.86 59.59 19.68 61.3 19.68 62.74 24.86 63.87 19.68 65.79 19.68 63.84 27.21"/><path class="cls-2" d="M69.55,23a1.31,1.31,0,0,0-.83-.22,1.6,1.6,0,0,0-.63.16,1.65,1.65,0,0,0-.67,1.48,2.16,2.16,0,0,0,.3,1.12,1.28,1.28,0,0,0,1.09.54c.93,0,1.34-.76,1.34-1.59a1.64,1.64,0,0,0-.6-1.49m1.3,3.74a3.16,3.16,0,0,1-2.06.65,3.4,3.4,0,0,1-2.24-.8,2.88,2.88,0,0,1-.82-2.16,3.22,3.22,0,0,1,5.08-2.34,3,3,0,0,1,1,2.35,2.85,2.85,0,0,1-1,2.3"/><path class="cls-2" d="M75.22,23.12a3.48,3.48,0,0,0-.52.11c-.45.15-.52.43-.52.85v3.13H72.5V21.64h1.63v.58a2.09,2.09,0,0,1,.67-.42,3.19,3.19,0,0,1,1-.22V23Z"/><polygon class="cls-2" points="79.99 27.21 78.53 24.81 77.8 25.48 77.8 27.21 76.17 27.21 76.17 19.68 77.81 19.68 77.81 23.55 79.66 21.64 81.68 21.64 79.72 23.63 81.94 27.21 79.99 27.21"/><path class="cls-2" d="M85.64,23a1,1,0,0,0-.5-.32.88.88,0,0,0-.24,0c-.63,0-1.2.55-1.2,1.76A2.26,2.26,0,0,0,84,25.69a1.36,1.36,0,0,0,.33.3,1,1,0,0,0,.53.15,1,1,0,0,0,.91-.58A2.25,2.25,0,0,0,86,24.4,2.1,2.1,0,0,0,85.64,23m1.49,3.29a2.37,2.37,0,0,1-.9.8,2.59,2.59,0,0,1-1.06.2,2.34,2.34,0,0,1-1.4-.47v2.29h-1.7v-7.5h1.49v.55a1.18,1.18,0,0,1,.25-.25,2.1,2.1,0,0,1,1.35-.42,2.35,2.35,0,0,1,1.72.7,3.13,3.13,0,0,1,.76,2.2,3.61,3.61,0,0,1-.52,1.9"/><rect class="cls-2" x="88.29" y="19.68" width="1.67" height="7.53"/><path class="cls-2" d="M93.14,24.9l-.2.07c-.41.17-.52.41-.52.62a.73.73,0,0,0,.06.26.67.67,0,0,0,.58.31,1.16,1.16,0,0,0,.65-.23,1.48,1.48,0,0,0,.51-1.38Zm1.24,2.31v-.5L94,27a2.45,2.45,0,0,1-1.4.41A1.74,1.74,0,0,1,91,26.44a1.71,1.71,0,0,1-.18-.77,1.8,1.8,0,0,1,1.17-1.59,12.54,12.54,0,0,1,2.28-.53v-.31a.59.59,0,0,0-.65-.67.8.8,0,0,0-.8.41.66.66,0,0,0-.08.24H91a1.6,1.6,0,0,1,.46-1.12,2.31,2.31,0,0,1,1.29-.56,4.65,4.65,0,0,1,.73-.05c.8,0,1.88.19,2.26,1a1.25,1.25,0,0,1,.12.61v3.26c0,.48,0,.66.16.86Z"/><path class="cls-2" d="M101.55,26.43a2.8,2.8,0,0,1-2.14,1,3,3,0,0,1-1.33-.31,2.69,2.69,0,0,1-1.5-2.61,3.42,3.42,0,0,1,.28-1.41,2.71,2.71,0,0,1,2.58-1.58,2.79,2.79,0,0,1,2.22,1,2.69,2.69,0,0,1,.22.32l-1.25.69a1.66,1.66,0,0,0-.18-.32,1.24,1.24,0,0,0-.93-.46,1,1,0,0,0-.61.19,2,2,0,0,0-.6,1.49,1.91,1.91,0,0,0,.54,1.41,1.17,1.17,0,0,0,.72.26,1.14,1.14,0,0,0,.94-.5,1.21,1.21,0,0,0,.17-.33l1.27.64a5.25,5.25,0,0,1-.4.53"/><path class="cls-2" d="M105.45,22.75a1.17,1.17,0,0,0-.51-.1,1.15,1.15,0,0,0-1.06.67,1.75,1.75,0,0,0-.13.42h2.33a1.11,1.11,0,0,0-.63-1m-1.71,2a1.45,1.45,0,0,0,0,.33A1.24,1.24,0,0,0,105,26.16a1.55,1.55,0,0,0,.55-.1,1.68,1.68,0,0,0,.89-.9l1.27.64a5.64,5.64,0,0,1-.48.63,3.21,3.21,0,0,1-2.36,1,3.87,3.87,0,0,1-1-.15A2.66,2.66,0,0,1,102,24.54a3.28,3.28,0,0,1,.73-2.18,3,3,0,0,1,4.43.13,4,4,0,0,1,.64,2.28Z"/><path class="cls-2" d="M59.17,11.26H57.53v2.05h1.6a1.46,1.46,0,0,0,.51-.08.94.94,0,0,0,.65-1c0-1-.78-1-1.12-1m1.12,6.13-1.54-2.68h-1.2v2.68H55.6V9.86h4.13a2.58,2.58,0,0,1,2.18,1.18,2.77,2.77,0,0,1,.3,1.26,2,2,0,0,1-.6,1.53,2.33,2.33,0,0,1-.36.28,6.66,6.66,0,0,1-.62.27l1.78,3Z"/><path class="cls-2" d="M62.92,11.83h1.67v5.56H62.92Zm0-2h1.67v1.27H62.92Z"/><path class="cls-2" d="M69.63,13.79a1,1,0,0,0-1.12-.92c-.66,0-1.24.45-1.24,1.7a2.81,2.81,0,0,0,.25,1.2.92.92,0,0,0,.33.35,1.2,1.2,0,0,0,.68.21,1,1,0,0,0,.89-.47,2.7,2.7,0,0,0,.31-1.31,3,3,0,0,0-.1-.76M71,16.23a2.34,2.34,0,0,1-2.13,1.31,2.19,2.19,0,0,1-1.33-.41,2,2,0,0,1-.33-.32v.58H65.68V9.86h1.64v2.48a1.72,1.72,0,0,1,.3-.28,2.14,2.14,0,0,1,1.32-.39,2.27,2.27,0,0,1,1.52.55,2.7,2.7,0,0,1,.91,2.28A4,4,0,0,1,71,16.23"/><path class="cls-2" d="M76,13.79a1.06,1.06,0,0,0-1.13-.92c-.66,0-1.23.45-1.23,1.7a2.81,2.81,0,0,0,.25,1.2.87.87,0,0,0,.32.35,1.22,1.22,0,0,0,.68.21,1.06,1.06,0,0,0,.9-.47,2.77,2.77,0,0,0,.3-1.31,3.36,3.36,0,0,0-.09-.76m1.38,2.44a2.33,2.33,0,0,1-2.13,1.31A2.19,2.19,0,0,1,74,17.13a2,2,0,0,1-.33-.32v.58H72.07V9.86h1.64v2.48a1.42,1.42,0,0,1,.31-.28,2.09,2.09,0,0,1,1.32-.39,2.28,2.28,0,0,1,1.52.55,2.73,2.73,0,0,1,.9,2.28,3.85,3.85,0,0,1-.35,1.73"/><path class="cls-2" d="M81.88,13.17a1.32,1.32,0,0,0-.83-.21,1.44,1.44,0,0,0-.63.16,1.62,1.62,0,0,0-.67,1.47,2.16,2.16,0,0,0,.3,1.12,1.28,1.28,0,0,0,1.09.54c.93,0,1.35-.75,1.35-1.59a1.64,1.64,0,0,0-.61-1.49m1.3,3.74a3.16,3.16,0,0,1-2.06.65,3.42,3.42,0,0,1-2.24-.8,2.88,2.88,0,0,1-.82-2.16,3,3,0,0,1,.67-2,3.59,3.59,0,0,1,4.41-.35,3,3,0,0,1,1,2.35,2.85,2.85,0,0,1-1,2.3"/><path class="cls-2" d="M88.27,17.39V14.25a2.59,2.59,0,0,0-.07-.8.73.73,0,0,0-.76-.45.92.92,0,0,0-.57.17c-.29.21-.32.55-.32,1.22v3H84.87V11.84h1.7v.48a1.77,1.77,0,0,1,.27-.25,2.29,2.29,0,0,1,1.34-.38,2.38,2.38,0,0,1,1,.22c.7.36.75,1,.75,1.68v3.8Z"/></g></g></g></svg>