<svg width="13" height="13" viewBox="0 0 13 13" fill="none" xmlns="http://www.w3.org/2000/svg">
    <path d="M13 6.5C13 10.0899 10.0899 13 6.5 13C2.91015 13 0 10.0899 0 6.5C0 2.91015 2.91015 0 6.5 0C10.0899 0 13 2.91015 13 6.5Z" fill="#FF3104"/>
    <path d="M7.17744 3.0365L7.01856 7.70281L5.84677 7.70281L5.67795 3.0365L7.17744 3.0365ZM6.46246 9.96351C6.21089 9.96351 6.00235 9.88944 5.83684 9.7413C5.67795 9.58672 5.59851 9.39672 5.59851 9.1713C5.59851 8.94587 5.67795 8.75909 5.83684 8.61095C6.00235 8.45638 6.21089 8.37909 6.46246 8.37909C6.70741 8.37909 6.90932 8.45638 7.06821 8.61095C7.2271 8.75909 7.30654 8.94587 7.30654 9.1713C7.30654 9.39672 7.2271 9.58672 7.06821 9.7413C6.90932 9.88944 6.70741 9.96351 6.46246 9.96351Z" fill="white"/>
</svg>
