
    <svg
        width="45"
        height="29"
        viewBox="0 0 45 29"
        fill="none"
        xmlns="http://www.w3.org/2000/svg"
    >
        <path
            d="M40.4509 14.2017C41.0065 15.241 41.5631 16.2558 42.0967 17.2829C43.2089 19.4192 42.002 22.1284 39.6577 22.6091C38.078 22.9334 36.473 23.1688 34.8679 23.3098C32.4488 23.5218 30.0209 23.6684 27.5941 23.745C25.2806 23.8172 22.9616 23.7972 20.647 23.7561C18.6096 23.7195 16.5711 23.6295 14.537 23.5063C11.5107 23.3231 8.49421 23.0355 5.51735 22.4226C3.90351 22.0906 2.80341 21.1857 2.39528 19.538C2.16646 18.6142 2.26986 17.7159 2.7407 16.8765C3.30175 15.875 3.865 14.8757 4.42605 13.8764C1.10926 12.4185 -0.214153 9.25961 0.0278683 6.56928C0.308393 3.44924 2.43708 1.06758 5.18952 0.262589C7.86165 -0.517975 11.6449 0.371399 13.4908 3.88005C14.2103 3.3804 14.9177 2.85522 15.6569 2.38221C17.1839 1.40401 18.8142 0.66786 20.6041 0.321436C22.7845 -0.0993801 24.8669 0.247044 26.8845 1.11643C28.4808 1.80373 29.9142 2.75862 31.2673 3.84563C31.3663 3.92446 31.4664 4.00219 31.5676 4.08213C33.3168 0.917684 36.7194 -0.26815 39.7293 0.526848C42.6412 1.29742 44.7589 3.86784 44.9822 7.02673C45.1879 9.93803 43.6049 12.8904 40.4509 14.2006V14.2017ZM4.56687 11.1516C6.71756 11.155 8.49861 9.37509 8.50301 7.21771C8.50741 5.00926 6.73846 3.20941 4.56907 3.21274C2.44368 3.21718 0.653826 5.00815 0.649426 7.13555C0.645025 9.35732 2.39198 11.1472 4.56687 11.1505V11.1516ZM40.43 11.4792C42.5807 11.4792 44.3497 9.70708 44.3618 7.53971C44.3739 5.36901 42.5917 3.55695 40.4399 3.55139C38.2793 3.54473 36.5038 5.33126 36.5005 7.51417C36.4983 9.70153 38.2595 11.4792 40.43 11.4792Z"
            fill="#0079C0"
        />
        <path
            d="M10.3447 24.3101C18.2732 24.9912 26.1973 25.0658 34.1378 24.5252C31.205 26.7362 27.8947 28.0358 24.2223 28.3634C19.0621 28.824 14.4472 27.3936 10.3458 24.3101H10.3447Z"
            fill="#0079C0"
        />
        <path
            d="M4.12808 10.8606C1.83509 10.8572 -0.00462823 8.99134 8.74629e-06 6.67526C0.00464573 4.45756 1.89074 2.58942 4.1304 2.58595C6.41643 2.58132 8.28049 4.45872 8.27585 6.76091C8.27122 9.00986 6.39556 10.8653 4.12808 10.8618V10.8606Z"
            fill="#FEFEFE"
        />
        <path
            d="M40.3438 10.8621C38.0588 10.8621 36.2047 9.12134 36.207 6.98175C36.2093 4.8465 38.0797 3.0981 40.3542 3.10353C42.6206 3.11005 44.4956 4.88345 44.4828 7.00674C44.4701 9.12786 42.6079 10.8621 40.3438 10.8621Z"
            fill="#FEFEFE"
        />
    </svg>