<svg
        class="like"
        width="36"
        height="36"
        viewBox="0 0 36 36"
        fill="none"
        xmlns="http://www.w3.org/2000/svg"
>
    <rect
            width="36"
            height="36"
            fill="transparent"
    />
    <path
            fill="#397A80"
            d="M30.6151 14.5095C30.0876 13.8791 29.4357 13.3736 28.7036 13.0272C27.9714 12.6808 27.176 12.5017 26.3712 12.5019H21.8844L22.2623 10.121C22.396 9.28251 22.2347 8.42216 21.8077 7.6968C21.3808 6.97145 20.7166 6.42944 19.9364 6.16963C19.1562 5.90982 18.312 5.94951 17.5577 6.28148C16.8034 6.61345 16.1892 7.21557 15.8273 7.97801L13.6745 12.5019H10.624C9.13297 12.5037 7.70352 13.1188 6.6492 14.2123C5.59489 15.3057 5.00179 16.7882 5 18.3346L5 24.1673C5.00179 25.7136 5.59489 27.1961 6.6492 28.2896C7.70352 29.383 9.13297 29.9981 10.624 30H25.5838C26.9375 29.9943 28.2442 29.4847 29.2662 28.5642C30.2882 27.6436 30.9576 26.3731 31.1527 24.9839L31.9457 19.1512C32.0574 18.3238 31.9964 17.4811 31.7668 16.6803C31.5372 15.8795 31.1444 15.1392 30.6151 14.5095ZM7.2496 24.1673V18.3346C7.2496 17.4064 7.60511 16.5163 8.23794 15.86C8.87076 15.2037 9.72905 14.8349 10.624 14.8349H12.8736V27.6669H10.624C9.72905 27.6669 8.87076 27.2982 8.23794 26.6419C7.60511 25.9856 7.2496 25.0954 7.2496 24.1673ZM29.713 18.8234L28.9189 24.6561C28.8028 25.489 28.4023 26.251 27.7902 26.8035C27.1782 27.3561 26.3953 27.6624 25.5838 27.6669H15.1232V14.5246C15.2292 14.4289 15.3169 14.3133 15.3819 14.184L17.8441 9.0104C17.9364 8.83767 18.067 8.69013 18.225 8.5799C18.383 8.46968 18.564 8.39991 18.753 8.37634C18.9421 8.35277 19.1339 8.37606 19.3126 8.44431C19.4913 8.51256 19.6518 8.62381 19.781 8.76893C19.8915 8.9022 19.9723 9.05913 20.0176 9.22851C20.0629 9.39789 20.0716 9.57555 20.0431 9.74882L19.4492 13.4818C19.4231 13.6486 19.4323 13.8192 19.4761 13.982C19.5199 14.1447 19.5972 14.2957 19.7028 14.4244C19.8084 14.553 19.9397 14.6564 20.0876 14.7273C20.2355 14.7982 20.3964 14.8349 20.5594 14.8349H26.3712C26.8542 14.8349 27.3316 14.9423 27.7711 15.1501C28.2106 15.3578 28.6019 15.661 28.9187 16.0391C29.2355 16.4172 29.4704 16.8614 29.6074 17.3418C29.7444 17.8221 29.7804 18.3274 29.713 18.8234Z"
    />
</svg>