<svg xmlns="http://www.w3.org/2000/svg" xmlns:xlink="http://www.w3.org/1999/xlink" version="1.1" width="36" height="36" viewBox="0 0 1000 1000" xml:space="preserve">
<rect x="0" y="0" width="100%" height="100%" fill="#ffffff"/>
<g transform="matrix(31.239 0 0 31.239 499.824 499.824)" id="608001">
<g style="" vector-effect="non-scaling-stroke">
		<g transform="matrix(1 0 0 1 4.0005 0)" id="XMLID_254_">
<path style="stroke: none; stroke-width: 1; stroke-dasharray: none; stroke-linecap: butt; stroke-dashoffset: 0; stroke-linejoin: miter; stroke-miterlimit: 4; is-custom-font: none; font-file-url: none; fill: rgb(57,122,128); fill-rule: nonzero; opacity: 1;" transform=" translate(-20.0005, -16)" d="M 29.845 17.099 l -2.489 8.725 C 26.989 27.105 25.804 28 24.473 28 H 11 c -0.553 0 -1 -0.448 -1 -1 V 13 c 0 -0.215 0.069 -0.425 0.198 -0.597 l 5.392 -7.24 C 16.188 4.414 17.05 4 17.974 4 C 19.643 4 21 5.357 21 7.026 V 12 h 5.002 c 1.265 0 2.427 0.579 3.188 1.589 C 29.954 14.601 30.192 15.88 29.845 17.099 z" stroke-linecap="round"/>
</g>
		<g transform="matrix(1 0 0 1 -11 4)" id="XMLID_256_">
<path style="stroke: none; stroke-width: 1; stroke-dasharray: none; stroke-linecap: butt; stroke-dashoffset: 0; stroke-linejoin: miter; stroke-miterlimit: 4; is-custom-font: none; font-file-url: none; fill: rgb(57,122,128); fill-rule: nonzero; opacity: 1;" transform=" translate(-5, -20)" d="M 7 12 H 3 c -0.553 0 -1 0.448 -1 1 v 14 c 0 0.552 0.447 1 1 1 h 4 c 0.553 0 1 -0.448 1 -1 V 13 C 8 12.448 7.553 12 7 12 z M 5 25.5 c -0.828 0 -1.5 -0.672 -1.5 -1.5 c 0 -0.828 0.672 -1.5 1.5 -1.5 c 0.828 0 1.5 0.672 1.5 1.5 C 6.5 24.828 5.828 25.5 5 25.5 z" stroke-linecap="round"/>
</g>
</g>
</g>
</svg>