
    <svg  viewBox="0 0 1440 240" fill="none" xmlns="http://www.w3.org/2000/svg">
        <path d="M0 226.96C0 226.96 602.539 231.28 889.5 189.341C1278 132.561 1440 17 1440 17V115C1440 115 1298.91 195.876 841 226.96C554 239.841 0 239.841 0 239.841V226.96Z" fill="white"/>
        <path d="M0 209.96C0 209.96 602.539 214.28 889.5 172.341C1278 115.561 1440 0 1440 0V98C1440 98 1298.91 178.876 841 209.96C554 222.841 0 222.841 0 222.841V209.96Z" fill="white"/>
        <path d="M0 218.46C0 218.46 602.539 222.78 889.5 180.841C1278 124.061 1440 8.5 1440 8.5V106.5C1440 106.5 1298.91 187.376 841 218.46C554 231.341 0 231.341 0 231.341V218.46Z" fill="url(#paint0_linear_1060_23126)"/>
        <defs>
            <linearGradient id="paint0_linear_1060_23126" x1="1399.5" y1="14.5724" x2="-33.423" y2="27.4356" gradientUnits="userSpaceOnUse">
                <stop stop-color="#002856"/>
                <stop offset="0.5" stop-color="#309A9A"/>
                <stop offset="1" stop-color="#B8E2DC"/>
            </linearGradient>
        </defs>
    </svg>


