<svg id="Layer_1" enable-background="new 0 0 512 512" height="512" viewBox="0 0 512 512" width="512" xmlns="http://www.w3.org/2000/svg"><g><path clip-rule="evenodd" d="m256 512c141 0 256-115 256-256s-115-256-256-256-256 115-256 256 115 256 256 256z" fill="#ef5350" fill-rule="evenodd"/></g><path d="m232.8 212.9v35.1h59.4c4.4 0 8 3.6 8 8s-3.6 8-8 8h-59.4v35.1h59.4c4.4 0 8 3.6 8 8s-3.6 8-8 8h-67.4c-4.4 0-8-3.6-8-8v-102.2c0-4.4 3.6-8 8-8h67.4c4.4 0 8 3.6 8 8s-3.6 8-8 8zm162.7 57.9c-4.4-.1-8.1 3.4-8.1 7.8-.2 11.3-9.5 20.4-20.8 20.4h-9.8c-11.5 0-20.8-9.3-20.8-20.8v-44.6c0-11.5 9.3-20.8 20.8-20.8h9.8c11.3 0 20.6 9.1 20.8 20.4.1 4.4 3.8 7.9 8.1 7.8 4.4-.1 7.9-3.7 7.8-8.1-.4-19.9-16.9-36.1-36.8-36.1h-9.8c-20.3 0-36.8 16.5-36.8 36.8v44.6c0 20.3 16.5 36.8 36.8 36.8h9.8c19.9 0 36.4-16.2 36.8-36.1.1-4.3-3.4-8-7.8-8.1zm-200.2-36.5c0 20.4-16.5 37.1-36.9 37.3l22.7 28.9c2.7 3.5 2.1 8.5-1.3 11.2-1.5 1.2-3.2 1.7-4.9 1.7-2.4 0-4.7-1-6.3-3.1l-30.6-38.7h-13.4v35.5c0 4.4-3.6 8-8 8s-8-3.6-8-8v-43.5-58.7c0-.8.1-1.6.4-2.4 1-3.3 4-5.6 7.6-5.6h41.3c20.6.1 37.4 16.8 37.4 37.4zm-16 0c0-11.8-9.6-21.3-21.3-21.3h-33.3v42.7h33.3c11.7-.1 21.3-9.6 21.3-21.4z" fill="#fff"/></svg>