<?xml version="1.0" encoding="UTF-8"?>
<svg width="60" height="60" fill="none" version="1.1" viewBox="0 0 60 60" xmlns="http://www.w3.org/2000/svg">
 <g clip-path="url(#clip0_531_8603)">
  <path d="m24.843 41.032 0.1568 1.0661c0.0043 0.0669 0.0049 0.1071 0.0088 0.1574 0.0983 1.2625 0.5555 2.5034 1.2979 3.5232 1.157 1.5892 2.9822 2.6143 4.9582 2.7849 0.0822 0.0071 0.295 0.012 0.5498 0.0127 0.3822 0.0011 0.4329-6e-4 0.6314-0.0208 0.4393-0.0448 0.4843-0.0532 3.3015-0.6186 3.4708-0.6966 4.5868-0.9216 4.8224-0.9723 1.1482-0.247 2.1719-0.7545 3.0614-1.5177 1.3297-1.1408 2.1741-2.7758 2.3417-4.5338 0.0251-0.2628 0.027-0.3092 0.027-0.6572 0-0.3633-0.0024-0.4157-0.0803-1.7516-0.0441-0.7574-0.0906-1.4817-0.1032-1.6096-0.058-0.5867-0.0842-0.7564-0.1746-1.1295-0.4475-1.8455-1.6771-3.4578-3.338-4.3768-0.5863-0.3244-1.297-0.5815-2.0157-0.7293-0.1628-0.0335-0.2935-0.0535-0.5095-0.0778-0.2602-0.0292-0.3258-0.0333-0.6301-0.0394-0.1868-0.0037-0.4101-0.0035-0.4961 4e-4 -0.1511 0.0069-0.2305 0.015-0.6436 0.0662-0.1433 0.0177-0.99691 0.12145-3.3188 0.6188-2.4224 0.54923-3.1302 0.5914-3.1302 0.5914s-0.09012-2.4363-0.6344-10.778c-0.13239-3.6726-0.212-3.6079-0.2149-3.635-0.0902-0.8332-0.0913-0.8394-0.2101-1.2972-0.3549-1.3665-1.1287-2.6107-2.1765-3.4994-0.9376-0.7952-2.0354-1.3129-3.285-1.5491-0.3574-0.0863-0.7281-0.0532-1.093-0.0546-0.9325-0.0034-0.8057-0.0112-1.3605 0.082-0.3365 0.0565-2.9982 0.6063-3.3207 0.6858-0.3376 0.0833-0.5715 0.1542-0.8439 0.2556-1.1063 0.4118-2.0959 1.1155-2.8692 2.0403-0.7455 0.8914-1.2737 2.0378-1.4754 3.2025-0.07 0.4037-0.0762 0.5039-0.0762 1.2354l-1e-4 0.6317 0.4513 7.7023c0.5146 8.782 0.4618 7.8999 0.4964 8.2924 0.0468 0.5296 0.0871 0.7785 0.1928 1.1921 0.3408 1.3325 1.0979 2.5679 2.1197 3.4589 0.8946 0.7801 2.0038 1.3261 3.1878 1.5691 0.2004 0.0411 0.3141 0.059 0.5095 0.0801 0.3705 0.04 0.4476 0.0439 0.8548 0.0443 0.3998 3e-4 2.4969-0.38668 3.0159-0.45108m7.8531-1.4776c1.7354-0.3311 5.4424-1.0528 5.4424-1.0528l0.0603 1.0118s-1.4791 0.2991-3.2841 0.6618c-1.2163 0.2444-1.6446 0.3325-2.2115 0.4481l-0.0485-1.0718m-9.632-20.607 0.8406 14.353-1.2139 0.2284s-0.189-3.228-0.4199-7.1671-0.4178-7.1638-0.4178-7.1638z" fill="none" stroke="#000" stroke-linecap="round" stroke-linejoin="round" style="paint-order:markers stroke fill"/>
 </g>
</svg>
