<?xml version="1.0" encoding="UTF-8"?>
<svg id="Layer_2" data-name="Layer 2" xmlns="http://www.w3.org/2000/svg" viewBox="0 0 146.02 151.48">
  <defs>
    <style>
      .cls-1 {
        fill: #ed5f32;
      }

      .cls-2 {
        fill: #e85f4c;
      }

      .cls-3 {
        fill: #f6fbfa;
      }

      .cls-4 {
        fill: #e0998d;
      }

      .cls-5 {
        fill: #b7cfe1;
      }

      .cls-6 {
        fill: #de3971;
      }

      .cls-7 {
        fill: #e77199;
      }

      .cls-8 {
        fill: #096d40;
      }

      .cls-9 {
        fill: #50bab2;
      }

      .cls-10 {
        fill: #e4634f;
      }

      .cls-11 {
        fill: #d62361;
      }

      .cls-12 {
        fill: #65308e;
      }

      .cls-13 {
        fill: #ad85b5;
      }

      .cls-14 {
        fill: #fefefa;
      }

      .cls-15 {
        fill: #645d6e;
      }

      .cls-16 {
        fill: #fabfb7;
      }

      .cls-17 {
        fill: #eff1ee;
      }

      .cls-18 {
        fill: #e43433;
      }

      .cls-19 {
        fill: #e2e2e3;
      }

      .cls-20 {
        fill: #f7eff7;
      }

      .cls-21 {
        fill: #8d9256;
      }

      .cls-22 {
        fill: #0f6f43;
      }

      .cls-23 {
        fill: #8dabc2;
      }

      .cls-24 {
        fill: #912e91;
      }

      .cls-25 {
        fill: #4ec0b4;
      }

      .cls-26 {
        fill: #efea36;
      }

      .cls-27 {
        fill: #292625;
      }

      .cls-28 {
        fill: #076b3d;
      }

      .cls-29 {
        fill: #eeec3b;
      }

      .cls-30 {
        fill: #bbcc41;
      }

      .cls-31 {
        fill: #ed8a34;
      }

      .cls-32 {
        fill: #f47852;
      }

      .cls-33 {
        fill: #08648b;
      }

      .cls-34 {
        fill: #ed5e4b;
      }
    </style>
  </defs>
  <g id="Layer_1-2" data-name="Layer 1">
    <g>
      <path class="cls-33" d="M97.5,86.85c-1.17-1.42-2.08-3.24-3.56-4.18-5.51-3.52-8.1-9.15-6.44-14.85,1.56-5.37,6.82-9.45,12.18-9.44,5.89,0,11.16,4.23,12.69,10.17,1.44,5.6-1.46,11.21-7.22,14.44-1.3,.73-2.25,2.09-3.74,3.59-1.56,.38-2.73,.33-3.91,.28m6.91-9.75c1.36-2.5,.24-4.05-2.21-3.93-2.6,.13-6.21-1.63-7.34,2.58-.14,.51,.99,1.93,1.61,1.98,2.43,.2,4.9,.01,7.94-.63Z"/>
      <path class="cls-29" d="M45.59,67.97c-4.56-.29-6.41-2.97-6.41-7.27,0-3.87,0-7.75,0-11.62-.59-.12-1.18-.23-1.77-.35-.51,.97-1.11,1.91-1.51,2.93-2.43,6.18-7.59,9.68-13.43,9.03-6.14-.68-10.94-5.42-11.5-11.34-.56-6.04,2.71-11.32,8.29-13.37,5.92-2.18,11.64-.06,15.54,5.66,.7,1.03,1.61,2.45,2.62,2.65,5.19,1.02,5.76,4.56,5.85,8.96,.07,3.49,.94,6.96,1.94,10.88,.46,1.57,.42,2.71,.39,3.85m-22.39-25.95c-3,.15-6.01,.3-9.17,.46,.44,4.67-.41,9.61,6.73,8.97,1.89-.17,4.54,.72,5.78,2.08,2.9,3.19,4.38,.67,5.84-1.06,1.17-1.39,1.73-3.3,2.1-4.04-3.91-2.39-7.18-4.39-11.28-6.42Z"/>
      <path class="cls-33" d="M15.93,103.04c1.41-.33,2.81-.66,4.98-1.01,1.85-.06,2.93-.09,4.02-.12,9.25,3.46,12.94,10.37,9.48,17.95-2.29,5.03-6.42,7.63-11.84,7.57-5.21-.05-9.23-2.64-11.41-7.46-2.16-4.78-1.61-9.38,1.84-13.46,.85-1.01,1.84-1.9,2.88-3.15,.11-.3,.05-.32,.05-.32m9.12,9.73c1.44-1.09,2.88-2.17,4.81-3.63-1.78-1.22-3.41-2.32-5.94-4.04,0,3.07,0,5.25-.8,7.5-1.5,1.16-3,2.32-4.49,3.48,.55,.56,1.1,1.12,1.65,1.68,1.42-1.54,2.85-3.09,4.77-5Z"/>
      <path class="cls-24" d="M100.79,19.96c-.85-1.36-1.78-3.92-2.53-3.87-2.51,.17-5.97,.5-7.24,2.17-3.03,3.96-6.17,6.9-11.37,6.99-6.55,.11-11.7-4-12.78-10.28-1.09-6.33,2.29-12.13,8.29-14.24,5.91-2.07,12.72,.31,15.22,6.11,1.55,3.6,3.29,5.19,7.29,4.96,5.04-.29,7.16,2.75,6.6,7.99-1.42,.32-2.44,.25-3.47,.17m-21.75-.92c2.31-1.82,4.91-3.39,6.79-5.58,.87-1.02,1.02-3.63,.32-4.84-2.03-3.53-5.65-3.15-8.87-2.14-3.67,1.15-5.86,3.81-5.34,7.92,.46,3.63,2.77,5.03,7.1,4.63Z"/>
      <path class="cls-28" d="M47.02,114.08c-3.65-3.59-7.63-6.96-8.06-13.34,.02-1.83,.07-2.94,.11-4.05,1.7-2.49,3.4-4.99,5.52-7.81,.73-.64,1.05-.95,1.62-1.47,.78-.6,1.3-.98,1.8-1.36-.02,0-.03,.04-.03,.04,4.62,.69,9.25,1.37,14.33,2.45,.79,.53,1.13,.67,1.46,.81-.07-.57-.14-1.15-.22-1.72l2.22-7.42c2.24,2.18,5.27,3.99,6.49,6.63,1.33,2.88,1.04,6.59-4.67,5.71-.65,.12-.75,.43-.86,.74,.34,1,.68,1.99,1.12,3.65,.2,1.66,.3,2.66,.4,3.66-1.34,3.17-2.69,6.33-4.38,9.93-.61,.65-.88,.87-1.15,1.1-4.59,3.34-9.62,3.77-15.35,2.34-.4,.09-.37,.11-.37,.11m4.82-5.05c1.4,0,2.79,.02,4.36,.74,.64,.08,1.37,.4,1.91,.2,4.39-1.6,7.01-6.73,6.1-11.78-.91-5.05-5.36-8.83-10.47-8.89-5.12-.06-9.81,3.67-10.78,8.56-.98,4.97,1.58,10.49,5.77,12.04,.58,.21,1.51-.52,3.11-.86Z"/>
      <path class="cls-11" d="M120.48,87.09c3.38-10.35,13.17-14.14,20.79-8.04,4.15,3.32,5.78,8.88,4.09,13.89-1.78,5.26-6.6,8.81-12.02,8.84-5.89,.04-10.21-3.45-12.65-10.88-.14-1.76-.17-2.79-.21-3.81m10.23,3.71c-.16,2.9-2.38,6.97,2.28,7.73,3.39,.55,3.06-3.06,3.74-5.86,3.55-2.86,3.91-6.77,2.38-10.47-.59-1.44-3.45-1.93-6.13-3.29,.7,4.45,6.39,5.93,3.43,9.61-3.15-1.17-6.05-2.24-8.96-3.31-.25,.24-.5,.49-.76,.73,1.32,1.36,2.64,2.73,4.01,4.87Z"/>
      <path class="cls-34" d="M100.44,20.05c1.37-.01,2.39,.06,3.8,.13,8.79,4.02,11.96,9.63,9.81,16.69-1.36,4.49-4.5,7.19-9.47,8.93-1.72,.26-2.76,.33-3.79,.41-3.37-2.02-6.74-4.04-10.45-6.1-.35-.04-.31-.06-.31-.06-.17-3.72-1.09-7.6-.33-11.12,1.11-5.15,5.4-7.65,10.75-8.87m.21,6.47c-1.78-.71-4.19-3.11-4.51,1.08-.32,4.22-.07,8.48-.07,13.31,1.96-.26,3.34-.44,5.47-.32h7.78c-3.04-4.89-5.68-9.15-8.67-14.07Z"/>
      <path class="cls-3" d="M72.96,65.2c.58-.89,1.63-1.77,1.65-2.67,.15-6.29,.31-12.6-.11-18.87-.08-1.25-2.6-3.24-4.1-3.33-5.94-.39-11.92-.26-17.88-.14-4.08,.09-6.71-1.42-7.08-6.13,1.38-.57,2.47-.66,3.56-.74,1.41,.97,2.79,2.69,4.25,2.77,5.79,.31,11.62,.05,17.43,.11,6.11,.06,7.9,1.92,8.01,8.15,.06,3.49,.06,6.97,.13,11.13,0,.89-.02,1.12-.26,1.72-.34,12.97-.36,25.57-.64,38.17-.04,1.93-1.24,3.84-2.13,5.64-.66-.45-1.09-.77-1.52-1.14,0-.05-.02-.22-.02-.22-.08-10.73-.16-21.47-.74-32.68-.51-.91-.53-1.34-.54-1.77Z"/>
      <path class="cls-1" d="M111.04,102.57c5.16,3.3,7.24,8.45,5.67,14.04-1.51,5.38-6.58,9.28-12.21,9.42-5.42,.13-10.53-3.35-12.4-8.44-1.98-5.38-.68-12.21,4.4-14.52,5.57-2.53,5.97-6.24,5.87-11.57,1.45-.47,2.51-.43,3.56-.38,0,1.14,.17,2.31-.02,3.41-.66,3.96,.76,6.5,4.67,8.01-2.01,.9-4.02,1.01-5.86,1.64-2.33,.8-5.44,1.46-6.49,3.21-.95,1.6,.24,4.61,.82,6.92,.34,1.38,1.33,2.59,2.12,4.17,.29,1.49,.48,2.68,.72,4.23h5.05c-.39-2.04-.74-3.83-.77-5.73,1.46-.55,2.61-1,4.1-1.59,.15-2.21-.03-4.28,.11-6.43,.43-2.2,.55-4.3,.66-6.4Z"/>
      <path class="cls-11" d="M49.33,33.19c-1.42,.22-2.51,.3-3.91,.49-8.85-2.34-13.19-7.71-12.13-14.56,.93-6.08,5.77-10.63,11.75-11.05,5.91-.41,11.18,3.11,13.05,8.72,1.93,5.8-.32,11.76-5.71,15.03-.84,.51-1.81,.83-3.05,1.37m3.03-9.11c.17-2.76,1.3-7.43,.33-7.92-3.09-1.55-7.14-2.52-10.49-1.91-5.57,1.02-6.29,3.88-4.22,11.03,2.17-1.9,4.38-3.83,7.43-6.5v8.93c2.53-1.18,4.52-2.12,6.95-3.63Z"/>
      <path class="cls-12" d="M25.39,78.46c.09,10.82-8.94,15.77-16.95,13.06-4.93-1.66-7.92-5.41-8.37-10.72-.45-5.27,1.7-9.46,6.28-12.07,4.55-2.6,9.27-2.48,13.57,.64,1.69,1.23,2.91,3.12,4.62,5.3,.47,1.66,.67,2.72,.86,3.78m-16.46-2.71c-.32-.35-.63-.7-.95-1.05-.9,2.09-3.09,4.82-2.44,6.12,1.25,2.47,3.83,4.81,6.41,5.91,2.3,.98,5-.22,5.2-4.36,.24-1.45,.47-2.89,.65-5.02-1.59-2.72-3.64-4.1-7.34-2.16-.46,.37-.92,.73-1.54,.55Z"/>
      <path class="cls-2" d="M72.65,65c.32,.63,.34,1.06,.42,1.8-.57,1.26-1.43,2.12-1.83,3.15-2.31,5.92-6.65,9-12.93,8.99-5.95,0-10.05-3.55-12.59-10.61-.09-1.5-.06-2.64-.05-4.11,1.75-3.36,3.53-6.39,5.31-9.79,0-.37,.04-.33,.04-.33,2.4-.5,4.77-1.29,7.19-1.44,6.77-.42,11.08,3.4,14.43,12.34m-6.6,4.02s0-.04,.09-.95c-.02-2,.08-4-.09-5.99-.1-1.25-.58-3.55-.89-3.55-4.41,0-8.83,.32-13.16,1.42,.02,2.3,.03,4.59-.51,7.26,.16,1.56,.33,3.12,1.41,4.8,4.41-.19,8.82-.39,13.71-.96-.2-.67-.39-1.34-.57-2.04Z"/>
      <path class="cls-24" d="M78.79,56.83c0-.23,.03-.46,.11-.85,2.91-1.08,5.73-2.47,8.67-2.8,4.07-.46,8.22-.11,12.95-.11,.1-2.21,.19-4.11,.27-6.43,1.03-.51,2.06-.58,3.48-.65,.39,2.1,.39,4.2,.39,7.09,3.65,0,6.83,0,10.53,.31,.6,.7,.69,1.09,.72,1.83-.09,.84-.11,1.32-.14,1.8-9.63,0-19.26,.1-28.89-.06-3.48-.06-4.74,1.3-4.7,4.67,.11,9.3,.06,18.59,.02,28.8-.14,7.91-.22,14.91-.71,21.84-1.12-1.88-2.41-3.67-2.44-5.48-.21-16.65-.21-33.31-.26-49.97Z"/>
      <path class="cls-28" d="M127.45,36.85c-3.29-.06-6.23-.28-9.16-.5,.34-3.16-.08-6.67,1.19-9.39,2.34-5.02,7.04-7.21,12.58-7.49,2.94-.15,4.11,1.04,4.05,4.08-.13,6.13-3.13,10.28-8.65,13.3Z"/>
      <path class="cls-10" d="M25.81,78.47c-.62-1.07-.82-2.14-1.07-3.52,13.34-.68,13.42-.59,13.45,12.96,0,2.64,.17,5.27,.57,8.34,.27,1.54,.22,2.65,.12,4.09-4.51,.52-8.97,.7-13.69,1.22-1.35,.37-2.44,.4-3.93,.37,1.1-7.85,7.85-3.96,12.84-5.98,0-4.71,.51-9.82-.15-14.78-.64-4.83-5.07-1.85-8.14-2.7Z"/>
      <path class="cls-27" d="M115.97,54.86c-.09-.39-.18-.78-.35-1.46,2.63-7.86,6.98-11.08,13.79-10.53,5.99,.49,9.79,4.29,10.83,11.66-2.7,.38-4.93,.39-7.26,.05-1.79-1.75-3.6-4.38-5.14-4.23-1.66,.17-3.05,2.93-5.02,4.56-2.59-.02-4.73-.04-6.86-.06Z"/>
      <path class="cls-18" d="M115.91,55.22c2.19-.34,4.33-.32,7.12-.02,4.1,5.35,6.53,5.21,10.05-.26,2.22,0,4.45-.01,7.08-.04-.61,6.59-4.29,10.58-10.09,11.36-6.39,.86-10.7-1.76-14.18-8.9-.1-.82-.08-1.3,0-2.14Z"/>
      <path class="cls-26" d="M106.4,91.07c-1.52,.01-2.57-.03-4.02,0-4.22,.01-8.05,.13-11.87-.13-3.65-.25-4.66,1.43-4.47,4.75,.18,3.15,.02,6.32-.45,9.9-1.2-.98-2.47-2.34-2.58-3.78-.28-3.87-.05-7.78-.02-11.67,2.7-1.03,5.35-2.27,8.13-3.01,1.68-.45,3.57-.11,5.87-.2,1.68-.02,2.86,.03,4.39,.02,6.31,0,12.27,.06,18.67,.13,.47,1.04,.5,2.07,.49,3.48-4.59,.41-9.13,.44-14.15,.52Z"/>
      <path class="cls-28" d="M112.24,19.69c-3.65-4.41-4.19-8.83-1.65-13.63,1.28-2.41,2.7-3,5.07-1.24,3.96,2.93,5.78,8.84,3.8,13.35-1.54,3.5-3.83,4.4-7.23,1.52Z"/>
      <path class="cls-8" d="M20.01,28.08c-.56-2.98-1.48-5.96-1.58-8.96-.1-3.31,1.96-5.38,5.02-3.17,2.76,1.99,5.21,4.82,6.8,7.82,.8,1.5-.02,4.74-1.28,6.12-.77,.85-3.8-.22-5.76-.66-.91-.21-1.7-.97-2.88-1.32-.34,.16-.32,.17-.32,.17Z"/>
      <path class="cls-30" d="M82.82,90.21c.15,3.81-.08,7.72,.2,11.59,.1,1.44,1.38,2.8,2.52,4.25,.46,7,.73,13.97,.48,20.91-.12,3.2-1.26,6.37-2.07,10.22-2.14,3.75-2.96,1.03-3.89-.41,.73-1.09,1.27-1.92,1.84-3.19,.02-2.5,0-4.55,.02-6.92,.02-.71-.02-1.12-.02-1.83,.01-.51,0-.71,.02-1.2,.02-.68-.02-1.07-.03-1.92,.01-2.95,0-5.44,.05-8.16,.08-.57,.05-.89-.05-1.2,.08-7,.16-14,.34-21.42,.1-.42,.41-.65,.58-.73Z"/>
      <path class="cls-31" d="M79.86,137.04c1.13,1.18,1.94,3.89,4.08,.58-.11,1.92,.13,4.28-.68,6.19-1.15,2.73-3.08,5.13-4.67,7.67-1.72-2.61-3.65-5.12-5.1-7.87-.97-1.85-1.27-4.05-1.43-6.19,1.29,.56,2.14,1.22,3.31,1.82,1.39-.69,2.47-1.32,3.78-2.03,.23-.07,.71-.17,.71-.17Z"/>
      <path class="cls-28" d="M128.78,106.2c.99,.93,2.11,1.56,2.27,2.39,.56,2.74,.79,5.55,1.14,8.33-2.74-.63-5.92-.6-8.1-2.06-2.98-2-4.75-5.7-2.58-9.05,.66-1.02,4.54,.06,7.26,.4Z"/>
      <path class="cls-28" d="M46.98,114.04c.67,3.09,1.69,6.17,1.89,9.3,.09,1.48-1.04,3.66-2.29,4.39-.85,.5-3.16-.63-4.26-1.65-1.38-1.28-2.88-3.11-3.07-4.84-.27-2.42,.22-5.18,1.28-7.34,.3-.61,3.75,.32,6.12,.35,.36-.19,.34-.21,.33-.22Z"/>
      <path class="cls-4" d="M75.06,139.3c-.85-.66-1.7-1.32-2.78-2.13-.3-1.88-.37-3.62-.44-6.09,4.08-6.29,.39-12.24,.83-17.99,.02-.3-1.04-.67-1.59-1.01-.03-.18-.06-.37,.3-.97,4.81-3.18,1.51-7.73,2.89-11.2,.43,.32,.85,.64,1.7,1.35,.68,.6,1.14,.81,1.15,1.02,.09,6.46,.17,12.93,.14,19.39,0,.5-.78,.99-1.4,1.86-.4,5.5-.6,10.63-.8,15.76Z"/>
      <path class="cls-28" d="M123.01,71.17c1.01,4.39-.31,7.65-3.91,9.56-1.04,.55-2.84-.35-4.29-.59,.5-2.6,.4-5.57,1.69-7.7,1.14-1.89,3.47-4.42,6.51-1.27Z"/>
      <path class="cls-28" d="M67,30.66c-1.92,2.21-4.14,5.77-7.08,2.66-2.59-2.73-.79-6.39,1.88-8.78,1.24-1.11,3.12-1.52,5.97-2.82-.17,3.46-.29,5.79-.59,8.52-.19,.41-.17,.42-.17,.42Z"/>
      <path class="cls-8" d="M15.97,103.03c-3.21,.56-6.41,1.16-9.86,1.8-.73-4.84,1.12-7.4,4.45-8.72,1.51-.6,3.44-.14,5.18-.16-.07,2.12-.13,4.25,0,6.73,.19,.36,.25,.38,.24,.35Z"/>
      <path class="cls-8" d="M45.95,87.62c-.31,.31-.62,.62-1.03,1.04-2.69-.68-5.24-1.59-4.8-5.06,.48-3.77,2.35-6.37,7.36-7.24,0,3.25,0,6.17,.26,9.4,.26,.32,.26,.28-.1,.17-.8,.49-1.24,1.08-1.68,1.68Z"/>
      <path class="cls-28" d="M90,40.05c.35,1.99,.88,4,.93,6.03,.03,1.19-.4,3.13-1.15,3.43-1.11,.45-2.74-.1-4.05-.53-.69-.23-1.54-1.04-1.68-1.72-.47-2.33-.66-4.71-.95-7.07,2.08,.12,4.17,.25,6.58,.11,.33-.26,.29-.23,.31-.25Z"/>
      <path class="cls-8" d="M51.01,54.09c-4.61-1.65-6-4.24-3.68-7.77,.91-1.39,2.99-2.02,4.54-2.99,.48,1.78,1.47,3.62,1.28,5.34-.18,1.65-1.56,3.17-2.27,5.09,.15,.35,.11,.3,.13,.33Z"/>
      <path class="cls-8" d="M19.98,28.05c.06,2.29,1.33,5.61-2.56,5.48-2.32-.08-4.64-1.81-6.81-3.06-.42-.25-.26-2.51-.14-2.53,2.16-.37,4.35-.65,6.53-.71,.74-.02,1.5,.63,2.63,.91,.37-.06,.35-.08,.34-.09Z"/>
      <path class="cls-8" d="M36.8,66.11c.41,2.19,.57,4.12,.73,6.04-1.8-.53-4.19-.54-5.23-1.74-1.17-1.35-1.13-3.76-1.62-5.71,1.95,.38,3.91,.76,6.11,1.41Z"/>
      <path class="cls-8" d="M6.86,64.91c-1.84-.53-3.3-1.09-5.01-1.73,1.34-3.96,3.86-5.34,7.25-4.75,1.16,.2,2.1,1.65,3.13,2.53-1.67,1.31-3.33,2.62-5.37,3.94Z"/>
      <path class="cls-8" d="M62.76,112.1c.25-.7,.51-.92,.84-1.23,1.57,.79,4.42,1.8,4.35,2.51-.25,2.42-1.53,4.74-2.41,7.1-.92-.16-1.83-.32-2.75-.48,0-2.48,0-4.96-.02-7.91Z"/>
      <path class="cls-22" d="M67.35,30.91c-.35-.25-.36-.26-.38-.25,2.99-.86,6.01-1.74,9.02-2.61,.41,.76,.82,1.52,1.23,2.28-1.83,1.42-3.5,3.34-5.57,4.01-.88,.29-2.61-2.04-4.3-3.43Z"/>
      <path class="cls-34" d="M74.26,99.86c-1.37,3.51,1.92,8.06-2.84,10.97-1.02-3.25-1.69-6.65-2.76-10.14-.5-1.09-.6-2.09-.66-3.47,1.85,.29,3.65,.95,5.85,2.02,.39,.4,.41,.57,.41,.62Z"/>
      <path class="cls-28" d="M134.27,67.17c1.59,.39,2.82,.85,4.04,1.31-1.35,1.69-2.48,3.66-4.15,4.92-.72,.54-2.55-.38-3.88-.64,.5-1.43,.86-2.94,1.56-4.26,.33-.61,1.34-.85,2.42-1.34Z"/>
      <path class="cls-22" d="M60.34,10.29c-3.41-3.63-1.89-6.2,1.22-8.58,3.66,3.69,3.37,5.97-1.22,8.58Z"/>
      <path class="cls-34" d="M71.03,112.54c.6-.13,1.66,.25,1.64,.55-.44,5.75,3.26,11.7-.91,17.56-.32-5.68-.54-11.66-.73-18.11Z"/>
      <path class="cls-8" d="M71.53,49.5c.47,1.77,.67,3.26,.87,4.75-.9,.05-2.26,.5-2.61,.08-1.3-1.54-2.26-3.36-3.35-5.08,.37-.42,.75-.83,1.12-1.25,1.24,.41,2.47,.81,3.98,1.5Z"/>
      <path class="cls-3" d="M104.12,77.4c-2.75,.35-5.21,.53-7.65,.33-.62-.05-1.74-1.47-1.61-1.98,1.14-4.2,4.74-2.45,7.34-2.58,2.45-.12,3.57,1.43,1.91,4.23Z"/>
      <path class="cls-14" d="M23.61,42.04c3.69,2.01,6.96,4.02,10.87,6.4-.37,.74-.93,2.65-2.1,4.04-1.46,1.73-2.94,4.25-5.84,1.06-1.24-1.36-3.89-2.25-5.78-2.08-7.14,.64-6.29-4.3-6.73-8.97,3.16-.16,6.17-.31,9.58-.45Z"/>
      <path class="cls-9" d="M23.92,112.52v-7.42c2.53,1.72,4.15,2.83,5.94,4.04-1.93,1.45-3.37,2.54-5.22,3.67-.42,.04-.71-.29-.71-.29Z"/>
      <path class="cls-23" d="M24.38,112.99c-1.26,1.69-2.68,3.23-4.1,4.78-.55-.56-1.1-1.12-1.65-1.68,1.5-1.16,3-2.32,4.89-3.53,.4-.04,.69,.29,.86,.43Z"/>
      <path class="cls-20" d="M78.64,19.05c-3.93,.39-6.24-1.01-6.7-4.64-.52-4.11,1.68-6.77,5.34-7.92,3.22-1.01,6.84-1.39,8.87,2.14,.7,1.21,.55,3.82-.32,4.84-1.88,2.19-4.48,3.76-7.19,5.58Z"/>
      <path class="cls-17" d="M51.01,109.08c-.77,.29-1.7,1.03-2.28,.81-4.19-1.55-6.75-7.07-5.77-12.04,.97-4.89,5.66-8.63,10.78-8.56,5.11,.06,9.56,3.84,10.47,8.89,.91,5.05-1.71,10.19-6.1,11.78-.54,.2-1.27-.12-1.81-.61,.35-.55,.47-.76,.54-1.5-.19-1.6-.3-2.81-.77-3.86-.54-1.23-1.7-2.23-2.03-3.48-.58-2.22,.57-5.42-3.17-5.61-1.01-.05-2.09,1.14-3.14,1.76,1.34,1.78,2.68,3.55,4.35,5.77-.31,.63-1.1,2.24-1.92,4.16,.26,1.04,.56,1.76,.85,2.49Z"/>
      <path class="cls-30" d="M56.77,108.31c0,.28-.12,.49-.55,.68-1.58,.05-2.98,.04-4.79,.06-.71-.7-1.01-1.42-.97-2.67,3.39-2.3,5.12-.83,6.31,1.93Z"/>
      <path class="cls-25" d="M63.3,87.83c.33,.37,.41,.95,.48,1.52-.33-.14-.67-.28-1.12-.65,.04-.38,.21-.52,.64-.86Z"/>
      <path class="cls-25" d="M46.22,87.41c.18-.38,.62-.98,1.44-1.46-.14,.49-.66,.87-1.44,1.46Z"/>
      <path class="cls-25" d="M66.92,93.12c-.07-.14,.03-.45,.32-.64,.18,.11-.15,.47-.32,.64Z"/>
      <path class="cls-6" d="M130.67,90.03c-1.32-1.36-2.64-2.73-3.97-4.09,.25-.24,.5-.49,.76-.73,2.9,1.07,5.81,2.15,8.96,3.31,2.96-3.69-2.73-5.16-3.43-9.61,2.68,1.36,5.54,1.86,6.13,3.29,1.53,3.71,1.17,7.61-3.04,10.64-2.24-.83-3.83-1.82-5.41-2.81Z"/>
      <path class="cls-7" d="M130.69,90.42c1.56,.61,3.15,1.6,5.12,2.61,.25,2.45,.57,6.06-2.82,5.5-4.67-.76-2.44-4.83-2.31-8.12Z"/>
      <path class="cls-16" d="M100.8,40.29c-1.38,.18-2.76,.37-4.72,.63,0-4.84-.25-9.1,.07-13.31,.31-4.19,2.73-1.79,4.71-.3,.12,4.85,.03,8.92-.06,12.99Z"/>
      <path class="cls-20" d="M101.17,40.44c-.29-4.22-.2-8.29-.14-12.82,2.61,3.81,5.26,8.08,8.3,12.97-3.25,0-5.52,0-8.15-.15Z"/>
      <path class="cls-13" d="M76.06,123.17c.42-.5,1.2-.99,1.2-1.49,.03-6.46-.05-12.93-.14-19.39,0-.22-.47-.42-.91-.89,.47-2.18,1.66-4.09,1.7-6.02,.27-12.6,.29-25.21,.64-38.17,.3,16.3,.29,32.95,.5,49.61,.02,1.81,1.32,3.61,2.44,5.48,.51,.39,.54,.7,.12,1.31-3.33,2.73-2.97,7.23,.27,8.59,.03,.39,.06,.78-.23,1.45-.75,.45-1.18,.61-1.6,.77,.61,.25,1.22,.5,1.83,.75,.03,.41,.07,.81-.22,1.51-1.13,2.72-3.42,5.26,.21,7.37-.53,.83-1.07,1.66-1.8,2.75-.2,.27-.68,.37-1.22,.13-.65-2.71-.54-5.21-.92-7.64-.33-2.08-1.22-4.07-1.86-6.1Z"/>
      <path class="cls-32" d="M111.01,102.6c-.09,2.08-.2,4.18-.88,6.22-.96-.88-1.35-1.7-2.22-3.53-.43,3.5-.62,5.09-1.04,6.92-.43,1.06-.63,1.89-.88,2.77-.04,.06-.18,.12-.43,.08-1.1-.52-1.95-.99-2.79-1.46-.24,1.2-.49,2.41-.81,3.84-.28,.51-.55,.69-.88,.76-.69-1.29-1.68-2.5-2.02-3.88-.58-2.31-1.77-5.32-.82-6.92,1.04-1.75,4.16-2.42,6.49-3.21,1.84-.63,3.85-.74,6.05-1.36,.26-.28,.21-.21,.24-.23Z"/>
      <path class="cls-17" d="M101.18,118.5c.23-.37,.5-.55,1.17-1.12,1.52-.28,2.56-.26,3.6-.28-.01-.04-.08,0-.08,0,.34,1.79,.69,3.58,1.08,5.62h-5.05c-.24-1.54-.43-2.74-.72-4.23Z"/>
      <path class="cls-16" d="M107.09,111.97c.19-1.59,.39-3.19,.82-6.69,.87,1.84,1.27,2.65,1.9,3.63,.43,2.22,.61,4.28,.38,6.21-.64-.66-.87-1.19-1.23-2.03-.71-.58-1.29-.85-1.87-1.13Z"/>
      <path class="cls-4" d="M109.09,113.41c.23,.53,.45,1.06,.76,1.86-1.07,.72-2.22,1.17-3.68,1.72-.31,.11-.24,.07-.16-.23-.01-.75-.11-1.21-.2-1.66,0,0,.14-.06,.47-.18,1.16-.59,1.98-1.05,2.81-1.51Z"/>
      <path class="cls-7" d="M52.14,24.37c-2.21,1.22-4.2,2.15-6.73,3.34v-8.93c-3.06,2.67-5.27,4.6-7.43,6.5-2.07-7.15-1.34-10.01,4.22-11.03,3.35-.61,7.4,.36,10.49,1.91,.97,.49-.16,5.16-.54,8.21Z"/>
      <path class="cls-19" d="M17.86,78.04c-.24,1.45-.47,2.89-1.17,4.72-2.34,1.59-4.08,3.23-6.4,.96-2.3-2.25-3.19-4.56-1.2-7.42,.46-.37,.92-.73,1.89-1.03,.77,.35,1.02,.63,1.22,1.27,1.15,3.7,2.52,3.05,4.17,.65,.63,.39,1.06,.62,1.5,.86Z"/>
      <path class="cls-15" d="M9,76.02c-1.91,3.14-1.02,5.45,1.28,7.69,2.32,2.27,4.06,.63,6.29-.65,.37,3.44-2.33,4.65-4.63,3.67-2.58-1.1-5.16-3.44-6.41-5.91-.66-1.3,1.53-4.03,2.44-6.12,.32,.35,.63,.7,1.03,1.32Z"/>
      <path class="cls-13" d="M12.26,76.18c-.26-.28-.51-.57-1-1.02,2.9-1.9,4.96-.52,6.57,2.54-.4,.1-.83-.13-1.76-.69-1.6-.49-2.71-.66-3.81-.83Z"/>
      <path class="cls-14" d="M52.05,66.85c-.02-2.3-.03-4.59,.38-7.38,4.33-.49,8.24-.49,12.24-.49v7.87h-12.61Z"/>
      <path class="cls-23" d="M51.77,67.03c4.38-.19,8.49-.19,12.89-.19v-7.87c-4,0-7.9,0-12.28,.06,3.95-.18,8.36-.5,12.78-.5,.31,0,.79,2.3,.89,3.55,.16,1.98,.07,3.99-.43,6.49-3.65,.5-6.83,.23-9.92,.63-1.34,.17-2.49,1.75-3.73,2.7-.16-1.56-.33-3.12-.21-4.87Z"/>
      <path class="cls-5" d="M52.44,71.96c.78-1,1.93-2.58,3.27-2.75,3.09-.4,6.26-.12,9.87-.17,.47-.05,.47-.01,.41,.4,0,.94,.08,1.47,.14,2-4.41,.19-8.82,.39-13.69,.52Z"/>
      <path class="cls-23" d="M66.38,71.25c-.31-.34-.38-.87-.39-1.8,.24,.27,.44,.94,.39,1.8Z"/>
      <path class="cls-26" d="M132.99,54.59c-3.42,5.82-5.85,5.96-9.49,.61,1.3-1.91,2.7-4.68,4.35-4.84,1.53-.15,3.34,2.48,5.14,4.23Z"/>
      <path class="cls-24" d="M81.9,121.72c-3.26-.9-3.62-5.4-.34-7.89,.35,2.45,.35,4.94,.34,7.89Z"/>
      <path class="cls-24" d="M81.91,133.59c-3.67-1.66-1.38-4.21-.3-6.63,.29,2.07,.31,4.13,.3,6.63Z"/>
      <path class="cls-24" d="M81.9,124.85c-.64,.06-1.25-.19-1.86-.44,.42-.16,.85-.32,1.55-.48,.3,.21,.31,.41,.3,.92Z"/>
      <path class="cls-14" d="M75.86,123.53c.84,1.66,1.73,3.65,2.06,5.73,.38,2.43,.28,4.93,.69,7.71-.77,.94-1.85,1.58-3.24,2.27-.11-5.08,.09-10.21,.49-15.71Z"/>
      <path class="cls-21" d="M56.84,107.85c-1.27-2.3-3-3.77-6.35-1.78,.49-1.4,1.28-3.01,1.59-3.64-1.67-2.22-3.01-4-4.35-5.77,1.05-.62,2.13-1.82,3.14-1.76,3.74,.2,2.59,3.39,3.17,5.61,.33,1.25,1.49,2.26,2.03,3.48,.46,1.05,.57,2.26,.77,3.86m-4.08-8.25l-.21-.1s.05,.22,.21,.1Z"/>
      <path class="cls-1" d="M105.56,115.06c.35,.49,.44,.94,.47,1.73-1.12,.32-2.16,.3-3.6,.35-.14-1.14,.1-2.34,.34-3.55,.85,.47,1.69,.95,2.79,1.46Z"/>
      <path class="cls-1" d="M108.96,113.1c-.7,.77-1.52,1.23-2.64,1.76-.08-.76,.12-1.58,.55-2.64,.8,.04,1.38,.31,2.09,.89Z"/>
      <path class="cls-27" d="M12.19,76.53c1.17-.18,2.27-.01,3.67,.33-1.15,2.71-2.52,3.37-3.67-.33Z"/>
      <path class="cls-17" d="M52.67,99.66c-.08,.06-.13-.16-.13-.16,0,0,.21,.1,.13,.16Z"/>
    </g>
  </g>
</svg>