<?xml version="1.0" encoding="UTF-8" standalone="no"?>
<svg
   width="300"
   height="300"
   viewBox="0 0 204 204"
   fill="none"
   version="1.1"
   id="svg6"
   xmlns="http://www.w3.org/2000/svg"
   xmlns:svg="http://www.w3.org/2000/svg">
  <defs
     id="defs6" />
  <g
     id="g38"
     transform="translate(223.19789,27.630608)">
    <circle
       cx="-121.19789"
       cy="74.369392"
       fill="#fcfcfd"
       id="ellipse1"
       r="101.865" />
    <path
       id="path27"
       style="fill:#339999;fill-opacity:1;stroke-width:0.725728;stroke-linecap:round;stroke-linejoin:round;paint-order:markers stroke fill"
       d="m -121.22302,-16.865487 a 91.234825,91.234825 0 0 0 -12.98375,0.929688 91.234825,91.234825 0 0 0 -12.72078,2.766484 91.234825,91.234825 0 0 0 -12.19617,4.5488292 91.234825,91.234825 0 0 0 -11.42453,6.238203 91.234825,91.234825 0 0 0 -10.42047,7.801406 91.234825,91.234825 0 0 0 -9.20524,9.2039058 91.234825,91.234825 0 0 0 -7.80141,10.421797 91.234825,91.234825 0 0 0 -6.2382,11.424531 91.234825,91.234825 0 0 0 -4.54883,12.196172 91.234825,91.234825 0 0 0 -2.76648,12.720783 91.234825,91.234825 0 0 0 -0.86195,12.042101 c -5.2e-4,0.50433 -0.022,1.00844 -0.0146,1.51274 0.002,0.12537 0.0123,0.25049 0.0146,0.37586 a 91.234825,91.234825 0 0 0 0.70523,9.84937 c 0.14788,1.2063 0.3,2.41261 0.49406,3.6125 0.0482,0.29831 0.11497,0.59337 0.16602,0.89117 a 91.234825,91.234825 0 0 0 1.19664,5.49844 91.234825,91.234825 0 0 0 1.06648,4.904767 91.234825,91.234825 0 0 0 4.54883,12.1975 91.234825,91.234825 0 0 0 6.2382,11.42453 91.234825,91.234825 0 0 0 7.80141,10.42047 91.234825,91.234825 0 0 0 9.20524,9.20523 91.234825,91.234825 0 0 0 10.42047,7.80008 91.234825,91.234825 0 0 0 11.42453,6.2382 91.234825,91.234825 0 0 0 12.19617,4.55016 91.234825,91.234825 0 0 0 12.72078,2.76648 91.234825,91.234825 0 0 0 12.98375,0.92836 91.234825,91.234825 0 0 0 12.98375,-0.92836 91.234825,91.234825 0 0 0 12.719451,-2.76648 91.234825,91.234825 0 0 0 12.1975,-4.55016 91.234825,91.234825 0 0 0 11.42453,-6.2382 91.234825,91.234825 0 0 0 10.42047,-7.80008 91.234825,91.234825 0 0 0 9.20523,-9.20523 91.234825,91.234825 0 0 0 7.80008,-10.42047 91.234825,91.234825 0 0 0 6.2382,-11.42453 91.234825,91.234825 0 0 0 4.55016,-12.1975 91.234825,91.234825 0 0 0 1.06649,-4.904767 91.234825,91.234825 0 0 0 1.22718,-5.63922 c 0.14946,-0.83873 0.32281,-1.67268 0.45024,-2.51547 0.0454,-0.30013 0.069,-0.60382 0.11156,-0.90445 a 91.234825,91.234825 0 0 0 0.83937,-11.7393 91.234825,91.234825 0 0 0 -0.1089,-4.477101 91.234825,91.234825 0 0 0 -0.3307,-4.46516 91.234825,91.234825 0 0 0 -0.54719,-4.44523 91.234825,91.234825 0 0 0 -0.76633,-4.41203 91.234825,91.234825 0 0 0 -0.98016,-4.369534 91.234825,91.234825 0 0 0 -1.19531,-4.315078 91.234825,91.234825 0 0 0 -1.40383,-4.252656 91.234825,91.234825 0 0 0 -1.61234,-4.176954 91.234825,91.234825 0 0 0 -1.81422,-4.094609 91.234825,91.234825 0 0 0 -2.01344,-4.000312 91.234825,91.234825 0 0 0 -2.20734,-3.895391 91.234825,91.234825 0 0 0 -2.39594,-3.783828 91.234825,91.234825 0 0 0 -2.57789,-3.660313 91.234825,91.234825 0 0 0 -2.75586,-3.530156 91.234825,91.234825 0 0 0 -2.92453,-3.392031 91.234825,91.234825 0 0 0 -3.08789,-3.2432808 91.234825,91.234825 0 0 0 -3.24328,-3.086563 91.234825,91.234825 0 0 0 -3.3907,-2.925859 91.234825,91.234825 0 0 0 -3.53016,-2.754532 91.234825,91.234825 0 0 0 -3.66164,-2.579218 91.234825,91.234825 0 0 0 -3.7825,-2.39461 91.234825,91.234825 0 0 0 -3.89672,-2.207343 91.234825,91.234825 0 0 0 -4.00031,-2.013438 91.234825,91.234825 0 0 0 -4.09328,-1.815547 91.234825,91.234825 0 0 0 -4.17829,-1.6110152 91.234825,91.234825 0 0 0 -4.25132,-1.405157 91.234825,91.234825 0 0 0 -4.31641,-1.193984 91.234825,91.234825 0 0 0 -4.369531,-0.981484 91.234825,91.234825 0 0 0 -4.41203,-0.765 91.234825,91.234825 0 0 0 -4.44391,-0.548516 91.234825,91.234825 0 0 0 -4.46648,-0.329375 91.234825,91.234825 0 0 0 -4.47578,-0.110235 z m -20.48102,72.382813 c 0.7835,0 1.52083,0.04635 2.21133,0.139453 0.6905,0.093 1.32697,0.219016 1.91117,0.378516 0.5843,0.1596 1.12228,0.338793 1.61368,0.537887 0.4913,0.1991 0.92974,0.39939 1.31484,0.59899 0.4581,0.24585 0.88159,0.50654 1.26969,0.78226 0.38809,0.27573 0.74114,0.56561 1.05984,0.87125 l -3.00687,5.8411 c -0.5842,-0.4784 -1.22068,-0.90423 -1.91118,-1.27633 -0.5975,-0.319 -1.28837,-0.61229 -2.07187,-0.87789 -0.38505,-0.1395 -0.78366,-0.24386 -1.19531,-0.31344 -0.41165,-0.0696 -0.83675,-0.10359 -1.275,-0.10359 -0.3584,0 -0.72381,0.0465 -1.09571,0.13945 -0.3718,0.0797 -0.70266,0.21081 -0.99476,0.39711 -0.2921,0.1861 -0.53129,0.42632 -0.71719,0.71851 -0.0931,0.1395 -0.16314,0.2958 -0.20984,0.46883 -0.0467,0.17304 -0.0704,0.36239 -0.0704,0.56844 0,0.2325 0.0464,0.44965 0.13945,0.65211 0.0931,0.20246 0.23246,0.39038 0.41836,0.56312 0.3851,0.3323 0.88334,0.65076 1.49414,0.95625 0.6108,0.2923 1.3083,0.58417 2.0918,0.87657 0.7967,0.2923 1.59932,0.62532 2.40922,0.99742 0.82329,0.3587 1.62715,0.77129 2.41054,1.23648 0.39835,0.2325 0.77324,0.4873 1.12492,0.76633 0.35169,0.27904 0.68007,0.58156 0.98547,0.90711 0.3054,0.3189 0.58168,0.66709 0.82743,1.042581 0.24574,0.37548 0.46089,0.77816 0.64679,1.20992 0.1925,0.432 0.3379,0.9004 0.4343,1.40515 0.0964,0.50475 0.14344,1.0463 0.14344,1.6243 0,0.611 -0.0557,1.20761 -0.16868,1.78898 -0.11293,0.58138 -0.28292,1.1472 -0.50867,1.69867 -0.2257,0.5445 -0.50356,1.05669 -0.83539,1.53532 -0.33182,0.47862 -0.71727,0.92409 -1.15547,1.33609 -0.4382,0.412 -0.92573,0.78156 -1.46359,1.11031 -0.53786,0.32875 -1.1264,0.61731 -1.76375,0.86328 -0.63735,0.2455 -1.32039,0.42965 -2.05063,0.5525 -0.73023,0.12288 -1.50756,0.18329 -2.33085,0.18329 -0.8631,0 -1.67225,-0.058 -2.42915,-0.17797 -0.75689,-0.119 -1.46906,-0.27353 -2.13296,-0.45953 -0.664,-0.199 -1.27379,-0.4171 -1.83149,-0.6561 -0.5577,-0.253 -1.06266,-0.51228 -1.51406,-0.77828 -0.53115,-0.3055 -1.02552,-0.63236 -1.48352,-0.98148 -0.458,-0.34913 -0.87932,-0.71964 -1.26437,-1.11164 l 3.76258,-5.44266 c 0.65069,0.572 1.35625,1.07739 2.11304,1.51539 0.3188,0.186 0.66291,0.37314 1.03461,0.55914 0.3718,0.186 0.76369,0.35072 1.17539,0.49672 0.4249,0.133 0.85673,0.247 1.29493,0.34 0.43819,0.08 0.88989,0.11953 1.35468,0.11953 0.3717,0 0.73711,-0.0395 1.09571,-0.11953 0.3718,-0.08 0.70256,-0.20652 0.99476,-0.37852 0.2921,-0.187 0.52457,-0.42651 0.69727,-0.71851 0.0931,-0.153 0.16314,-0.3228 0.20984,-0.50867 0.0467,-0.18588 0.0704,-0.38746 0.0704,-0.60696 0,-0.219 -0.0484,-0.42507 -0.14477,-0.61757 -0.0964,-0.1925 -0.24046,-0.3719 -0.43296,-0.5379 -0.3718,-0.33297 -0.87015,-0.65257 -1.49414,-0.95757 -0.6109,-0.319 -1.30698,-0.63266 -2.09047,-0.93766 -0.7834,-0.319 -1.58735,-0.66403 -2.41055,-1.03593 -0.8233,-0.385401 -1.62705,-0.817851 -2.41055,-1.296251 -0.39169,-0.24585 -0.76353,-0.5112 -1.11562,-0.79688 -0.35209,-0.28567 -0.68405,-0.59218 -0.9961,-0.91773 -0.3054,-0.32555 -0.58274,-0.67544 -0.8314,-1.05055 -0.24866,-0.37511 -0.46886,-0.77543 -0.66141,-1.20062 -0.1859,-0.4319 -0.32528,-0.89539 -0.41836,-1.39055 -0.0931,-0.49516 -0.13945,-1.02109 -0.13945,-1.57914 0,-0.6777 0.0664,-1.32265 0.19922,-1.93375 0.1328,-0.6111 0.33205,-1.1884 0.59765,-1.7332 0.26555,-0.55145 0.5807,-1.06336 0.94563,-1.53532 0.36492,-0.47196 0.7797,-0.90425 1.24445,-1.29625 0.4648,-0.392 0.96829,-0.73902 1.51274,-1.04125 0.54445,-0.30222 1.12902,-0.559036 1.75312,-0.771636 0.6307,-0.2126 1.28569,-0.3721 1.96297,-0.478125 0.67729,-0.106025 1.37744,-0.159375 2.10109,-0.159375 z m -21.91406,0.498047 h 7.07094 v 29.18023 h -6.61274 v -1.39586 -0.43961 c 0,-0.146 0.008,-0.27152 0.0212,-0.37852 0,-0.13197 0.008,-0.25259 0.0213,-0.35859 h -0.0797 c -0.1859,0.292 -0.39676,0.56624 -0.63218,0.82211 -0.23543,0.25588 -0.49544,0.4937 -0.78094,0.7132 -0.24565,0.1925 -0.52637,0.3765 -0.84203,0.5525 -0.31566,0.176 -0.66545,0.34386 -1.05055,0.50336 -0.38505,0.1595 -0.80837,0.27872 -1.26969,0.3586 -0.46131,0.0799 -0.96165,0.12086 -1.49945,0.12086 -0.71705,0 -1.40116,-0.0675 -2.05195,-0.20055 -0.6508,-0.133 -1.26849,-0.33166 -1.85274,-0.59766 -0.57764,-0.272 -1.11464,-0.59742 -1.61234,-0.97617 -0.4977,-0.37875 -0.95503,-0.81125 -1.37328,-1.29625 -0.4117,-0.485 -0.77805,-1.01575 -1.09703,-1.59375 -0.31899,-0.578 -0.59105,-1.20298 -0.8168,-1.87398 -0.22575,-0.678 -0.39481,-1.39106 -0.50734,-2.13828 -0.11254,-0.74725 -0.16868,-1.52847 -0.16868,-2.34547 0,-0.8307 0.0601,-1.62335 0.1793,-2.377341 0.11918,-0.754 0.29756,-1.46988 0.53656,-2.14758 0.239,-0.67765 0.52443,-1.30531 0.85664,-1.88328 0.33221,-0.57798 0.7106,-1.10611 1.13555,-1.58445 0.42495,-0.47835 0.8902,-0.90213 1.39453,-1.27102 0.50434,-0.36889 1.04797,-0.68254 1.63227,-0.94164 0.5909,-0.2591 1.20857,-0.45345 1.85273,-0.58305 0.64416,-0.12959 1.31496,-0.19523 2.01211,-0.19523 0.5311,0 1.01816,0.023 1.45961,0.0664 0.44145,0.0434 0.8381,0.10751 1.19,0.19391 0.7038,0.17279 1.26713,0.36523 1.69203,0.57773 0.24565,0.1196 0.46595,0.24829 0.65875,0.38781 0.1928,0.13953 0.3586,0.28951 0.49805,0.44891 h 0.0797 c -0.0149,-0.0797 -0.0226,-0.17251 -0.0226,-0.27891 -0.0149,-0.0797 -0.0213,-0.17373 -0.0213,-0.28023 v -0.37719 z m 102.342651,0 h 7.05102 v 15.087499 h 2.01211 l 4.16234,-6.93547 h 7.6686 l -6.17446,9.566481 v 0.081 l 7.0311,11.3807 h -8.04711 l -4.44125,-8.17195 h -2.21133 v 8.17195 h -7.05102 z m -129.586481,7.672579 h 0.001 c 0.77628,8e-5 1.50727,0.0657 2.19407,0.19523 0.68721,0.1296 1.32956,0.32395 1.92711,0.58305 0.60419,0.25245 1.16009,0.5548 1.66812,0.90711 0.50804,0.35231 0.96827,0.75414 1.37992,1.20594 0.4183,0.4518 0.78443,0.94662 1.09969,1.48484 0.31526,0.53822 0.57911,1.12066 0.79156,1.74516 0.21915,0.6179 0.38445,1.26241 0.49406,1.9364 0.10962,0.674001 0.16469,1.377041 0.16469,2.107731 0,0.173 -0.0132,0.38583 -0.0398,0.63883 -0.0149,0.252 -0.0347,0.49219 -0.0598,0.71719 -0.0258,0.266 -0.0527,0.54472 -0.0797,0.83672 h -13.24536 c 0.0663,0.319 0.15336,0.61868 0.26297,0.89781 0.10961,0.27912 0.24165,0.53745 0.39445,0.77695 0.1594,0.239 0.33287,0.45636 0.52196,0.65211 0.18909,0.19575 0.39321,0.37028 0.61226,0.52328 0.2191,0.153 0.44956,0.28856 0.69196,0.40508 0.2424,0.11653 0.49674,0.21402 0.76234,0.29352 0.5445,0.146 1.09572,0.21781 1.65352,0.21781 0.3784,0 0.7483,-0.0266 1.11031,-0.0797 0.36201,-0.0531 0.71592,-0.13256 1.06117,-0.23906 0.6905,-0.225 1.30834,-0.47111 1.85273,-0.73711 0.6374,-0.319 1.2207,-0.67678 1.7518,-1.07578 l 2.60977,4.94328 c -0.3452,0.2925 -0.71721,0.56623 -1.11563,0.82211 -0.39842,0.25587 -0.8235,0.4942 -1.275,0.7132 -0.3917,0.193 -0.8237,0.37666 -1.29492,0.5525 -0.47122,0.17584 -0.98166,0.34386 -1.53266,0.50336 -0.54445,0.1595 -1.12882,0.27874 -1.75312,0.35859 -0.6243,0.0799 -1.28844,0.11954 -1.99219,0.11954 -0.93615,0 -1.81967,-0.0774 -2.64961,-0.23375 -0.41497,-0.0782 -0.8162,-0.17629 -1.20461,-0.29352 -0.38841,-0.11723 -0.7644,-0.25414 -1.12625,-0.41039 -0.71704,-0.312 -1.3775,-0.67441 -1.98156,-1.08641 -0.60406,-0.412 -1.15159,-0.87323 -1.64289,-1.38523 -0.48465,-0.518 -0.91036,-1.07095 -1.27899,-1.65883 -0.36862,-0.58787 -0.68009,-1.21117 -0.93234,-1.86867 -0.2457,-0.6645 -0.42867,-1.33642 -0.55117,-2.01742 -0.1225,-0.681 -0.18461,-1.37039 -0.18461,-2.06789 0,-0.7709 0.0637,-1.51503 0.18992,-2.23258 0.1262,-0.717551 0.31481,-1.408801 0.56711,-2.073201 0.2523,-0.67105 0.55972,-1.2967 0.92172,-1.87797 0.362,-0.58127 0.77969,-1.11804 1.25109,-1.60969 0.47135,-0.49829 0.99226,-0.942 1.56321,-1.33078 0.57094,-0.38877 1.19148,-0.7224 1.86203,-1.0014 0.6772,-0.2857 1.39752,-0.49997 2.16086,-0.64282 0.76292,-0.14277 1.56918,-0.21507 2.41851,-0.21515 z m 75.92625,0 h 0.001 c 0.71649,9e-5 1.39835,0.0684 2.04531,0.20453 0.64737,0.13622 1.26063,0.34119 1.83813,0.61359 0.5845,0.26575 1.12496,0.58605 1.62296,0.96157 0.498,0.37551 0.95249,0.80594 1.36399,1.29093 0.412,0.47835 0.77841,1.0065 1.09703,1.58446 0.31862,0.57796 0.58997,1.20558 0.81547,1.88328 0.226,0.6777 0.39567,1.38968 0.50867,2.13695 0.113,0.747271 0.17,1.529791 0.17,2.346791 0,0.8305 -0.0637,1.62297 -0.18992,2.37735 -0.12625,0.75437 -0.31511,1.4709 -0.56711,2.1489 -0.246,0.671 -0.54108,1.29405 -0.8832,1.86867 -0.34213,0.57463 -0.73158,1.10067 -1.17008,1.57914 -0.4315,0.4785 -0.90419,0.90421 -1.41844,1.27633 -0.51425,0.37213 -1.07062,0.69025 -1.66812,0.95625 -0.5975,0.259 -1.21985,0.4538 -1.86735,0.58305 -0.6475,0.12925 -1.31992,0.19391 -2.01742,0.19391 -0.4315,0 -0.83867,-0.0266 -1.22055,-0.0797 -0.38187,-0.0531 -0.73847,-0.13256 -1.07047,-0.23906 -0.64997,-0.199 -1.20843,-0.42568 -1.67343,-0.67868 -0.531,-0.292 -0.99521,-0.63001 -1.39321,-1.01601 h -0.0784 c 0.014,0.146 0.0265,0.31337 0.0385,0.49937 0.015,0.16 0.0226,0.35307 0.0226,0.57907 0.014,0.212 0.0212,0.44986 0.0212,0.71586 v 7.89437 h -7.05192 V 64.167402 h 6.37367 v 1.07578 c 0,0.1727 -0.008,0.33978 -0.0212,0.49938 -0.015,0.1596 -0.0289,0.29773 -0.0399,0.41703 -0.015,0.146 -0.0278,0.28679 -0.0398,0.41969 h 0.10094 c 0.199,-0.26575 0.42364,-0.51775 0.67601,-0.75703 0.25238,-0.23929 0.53122,-0.46608 0.83672,-0.67868 0.259,-0.17935 0.55306,-0.35199 0.88188,-0.51797 0.32881,-0.16597 0.69239,-0.32527 1.09039,-0.47812 0.3985,-0.15285 0.83564,-0.2674 1.31351,-0.34398 0.47747,-0.0765 0.99512,-0.11549 1.55258,-0.11555 z m 21.750701,0 h 0.001 c 0.737,0 1.43649,0.0503 2.09711,0.15008 0.66062,0.0998 1.28284,0.24961 1.86734,0.4489 0.5905,0.1927 1.1344,0.42952 1.63227,0.71188 0.49787,0.28236 0.94969,0.61076 1.35469,0.98281 0.405,0.3654 0.76159,0.77215 1.07047,1.22055 0.30887,0.44839 0.56976,0.93741 0.78226,1.4689 0.219,0.5249 0.38349,1.08716 0.49274,1.68539 0.10925,0.59824 0.16336,1.23349 0.16336,1.90453 v 12.934611 h -6.43211 v -1.25508 -0.49937 c 0.015,-0.159 0.0265,-0.29936 0.0385,-0.41836 0.015,-0.146 0.0279,-0.27844 0.0399,-0.39844 h -0.0797 c -0.1725,0.2925 -0.37117,0.56623 -0.59367,0.82211 -0.2225,0.25587 -0.46993,0.4942 -0.74243,0.7132 -0.232,0.193 -0.50079,0.37663 -0.80617,0.5525 -0.30537,0.17588 -0.64681,0.34386 -1.02531,0.50336 -0.3785,0.1595 -0.79975,0.27899 -1.26438,0.35859 -0.4646,0.0796 -0.97235,0.11954 -1.52335,0.11954 -0.4915,0 -0.9695,-0.0399 -1.43438,-0.11954 -0.46487,-0.0796 -0.91669,-0.19909 -1.35469,-0.35859 -0.432,-0.1525 -0.83711,-0.34037 -1.215231,-0.56312 -0.37813,-0.22275 -0.72903,-0.48047 -1.05453,-0.77297 -0.3185,-0.299 -0.60621,-0.6283 -0.86196,-0.9868 -0.25575,-0.3585 -0.47953,-0.74577 -0.67203,-1.16477 -0.186,-0.41847 -0.32536,-0.86348 -0.41836,-1.3321 -0.0928,-0.46779 -0.13928,-0.95989 -0.13945,-1.47688 v -10e-4 -0.001 c 2.1e-4,-0.51092 0.056,-0.98568 0.16867,-1.42375 0.11288,-0.43887 0.28185,-0.84176 0.50735,-1.20726 0.226,-0.372 0.48482,-0.71452 0.77695,-1.02664 0.29212,-0.31213 0.61767,-0.59352 0.97617,-0.84602 0.365,-0.2525 0.75241,-0.47818 1.160781,-0.67734 0.40838,-0.19916 0.83811,-0.37182 1.28961,-0.51797 0.903,-0.3056 1.80605,-0.53919 2.70805,-0.69859 0.903,-0.172701 1.75992,-0.284241 2.56992,-0.337341 0.823,-0.0529 1.50563,-0.0797 2.05063,-0.0797 h 0.28023 v -0.37984 c 0,-0.21925 -0.0199,-0.42037 -0.0598,-0.60297 -0.0399,-0.1826 -0.0998,-0.34659 -0.17929,-0.49274 -0.08,-0.1528 -0.1746,-0.2894 -0.28422,-0.40906 -0.10963,-0.11966 -0.2337,-0.2231 -0.3732,-0.30945 -0.278,-0.1861 -0.6111,-0.31864 -0.9961,-0.39844 -0.372,-0.0797 -0.77723,-0.11953 -1.21523,-0.11953 -0.3385,0 -0.67558,0.0267 -1.01071,0.0797 -0.33512,0.053 -0.66807,0.13143 -1.00007,0.23773 -0.664,0.2127 -1.26789,0.4461 -1.81289,0.6986 -0.637,0.2923 -1.25015,0.62409 -1.83415,0.99609 l -2.449061,-4.9818 c 0.3585,-0.25244 0.74178,-0.49113 1.15016,-0.71718 0.40837,-0.22605 0.840931,-0.43948 1.298901,-0.63883 0.783,-0.3453 1.71407,-0.65703 2.78907,-0.93633 0.538,-0.14615 1.10454,-0.25611 1.69867,-0.32937 0.59412,-0.0733 1.21684,-0.11024 1.86734,-0.11024 z m 27.82024,0.12086 h 0.003 c 0.106,0 0.20683,0.008 0.29883,0.0226 0.093,0 0.17866,0.007 0.25766,0.0212 0.093,0.0146 0.18131,0.0283 0.26031,0.0398 v 6.93547 c -0.119,-0.0146 -0.25377,-0.0345 -0.39977,-0.0598 -0.13197,-0.0145 -0.28387,-0.0271 -0.45687,-0.0385 -0.173,-0.0147 -0.36573,-0.0226 -0.57773,-0.0226 -0.425,0 -0.89646,0.0478 -1.41446,0.14078 -0.259,0.0399 -0.51698,0.10259 -0.77562,0.18859 -0.25865,0.086 -0.51796,0.19525 -0.77696,0.32805 -0.2525,0.1328 -0.49592,0.29221 -0.73179,0.47813 -0.23588,0.18591 -0.46366,0.39825 -0.68266,0.637501 -0.219,0.23919 -0.41453,0.5169 -0.58703,0.83273 -0.1725,0.31582 -0.32291,0.67052 -0.44891,1.06249 -0.12,0.386 -0.2119,0.81693 -0.2789,1.29493 -0.067,0.465 -0.0996,0.99015 -0.0996,1.57515 v 7.95282 h -7.05102 V 64.167302 h 6.77211 v 3.54742 c 0,0.1864 -0.008,0.3599 -0.0213,0.5193 0,0.146 -0.009,0.27761 -0.0226,0.39711 -0.015,0.146 -0.0265,0.27987 -0.0385,0.39977 h 0.0797 c 0.113,-0.35875 0.25042,-0.70588 0.41304,-1.04125 0.16263,-0.33538 0.35063,-0.65862 0.56313,-0.97086 0.219,-0.3189 0.45612,-0.61677 0.71187,-0.8925 0.25575,-0.27574 0.53011,-0.5298 0.82211,-0.76235 0.292,-0.2392 0.59839,-0.45322 0.92039,-0.64281 0.322,-0.18959 0.65871,-0.35451 1.01071,-0.49406 0.3585,-0.13945 0.72576,-0.24385 1.10101,-0.31344 0.37525,-0.0696 0.75866,-0.10492 1.15016,-0.10492 z" />
    <path
       d="m -91.325458,76.512983 c -0.558,0 -1.12236,0.0465 -1.69336,0.13946 -0.571,0.08 -1.0889,0.21968 -1.5539,0.41968 -0.226,0.093 -0.43183,0.20119 -0.61758,0.32407 -0.18575,0.12287 -0.35205,0.26054 -0.49805,0.41304 -0.146,0.153 -0.25479,0.32268 -0.32804,0.50868 -0.0733,0.186 -0.11024,0.38795 -0.11024,0.60695 0,0.246 0.0377,0.47366 0.11422,0.68265 0.0765,0.209 0.19099,0.39943 0.34398,0.57243 0.1595,0.166 0.36727,0.29128 0.6229,0.37453 0.25562,0.0833 0.55909,0.12484 0.91109,0.12484 0.2255,0 0.44578,-0.0274 0.66141,-0.0837 0.21562,-0.0562 0.42751,-0.14067 0.63351,-0.25367 0.425,-0.226 0.79663,-0.51889 1.11563,-0.87789 0.319,-0.359 0.57103,-0.75764 0.75703,-1.19664 0.0995,-0.2195 0.1735,-0.43769 0.22312,-0.65344 0.0496,-0.21575 0.0744,-0.42899 0.0744,-0.64149 v -0.45953 z"
       style="fill:#339999"
       id="path21" />
    <path
       d="m -167.49343,70.037049 c -0.27885,0 -0.55118,0.02735 -0.81679,0.08367 -0.26561,0.05633 -0.52466,0.140772 -0.77696,0.253672 -0.2457,0.1063 -0.478,0.239038 -0.69726,0.398437 -0.21926,0.1594 -0.42503,0.346541 -0.61758,0.559141 -0.1859,0.2126 -0.35268,0.449388 -0.50203,0.711875 -0.14935,0.262487 -0.28155,0.549704 -0.39445,0.861953 -0.1061,0.3121 -0.18476,0.647694 -0.23774,1.006714 -0.053,0.35903 -0.0796,0.74251 -0.0797,1.1475 1e-4,0.392 0.0247,0.76557 0.0744,1.12094 0.0497,0.35538 0.12373,0.69221 0.22313,1.01071 0.0995,0.319 0.21918,0.61468 0.35859,0.88718 0.13941,0.2725 0.29873,0.52174 0.47813,0.74774 0.1859,0.2255 0.389,0.42564 0.60828,0.60164 0.21927,0.176 0.45559,0.32772 0.70789,0.45422 0.25225,0.1195 0.51668,0.20973 0.79554,0.26961 0.27887,0.0599 0.57117,0.089 0.87657,0.089 0.2656,0 0.52659,-0.0247 0.78226,-0.0744 0.25568,-0.0496 0.50612,-0.12363 0.75172,-0.22313 0.24565,-0.0995 0.47637,-0.22659 0.69195,-0.37984 0.21559,-0.15325 0.41707,-0.33272 0.60297,-0.53922 0.19255,-0.2125 0.36398,-0.4535 0.51664,-0.7225 0.15267,-0.269 0.28554,-0.56567 0.39844,-0.89117 0.1195,-0.3325 0.20964,-0.69479 0.26961,-1.08641 0.06,-0.39162 0.0903,-0.81238 0.0903,-1.26438 0,-0.63799 -0.0877,-1.25769 -0.26031,-1.855386 -0.0797,-0.298999 -0.18231,-0.580603 -0.30813,-0.846015 -0.12581,-0.265412 -0.27508,-0.515185 -0.44757,-0.747735 -0.1661,-0.239149 -0.35579,-0.453212 -0.56844,-0.642812 -0.21265,-0.1896 -0.44777,-0.354513 -0.70656,-0.494063 -0.25895,-0.146149 -0.54001,-0.255159 -0.84204,-0.328047 -0.30202,-0.07289 -0.62561,-0.108906 -0.97086,-0.108906 z"
       style="fill:#339999"
       id="path20" />
    <path
       d="m -116.6621,70.035721 c -0.2655,0 -0.52737,0.02464 -0.78625,0.07438 -0.25887,0.04974 -0.51433,0.123575 -0.76633,0.223125 -0.24599,0.0995 -0.47839,0.227741 -0.69726,0.383828 -0.21888,0.156088 -0.42508,0.33975 -0.61758,0.5525 -0.186,0.206 -0.35472,0.444104 -0.50734,0.713203 -0.15263,0.2691 -0.28824,0.569598 -0.40774,0.901797 -0.113,0.32555 -0.19825,0.683035 -0.255,1.071794 -0.0567,0.38877 -0.085,0.80839 -0.085,1.26039 v 10e-4 c 0,0.638 0.086,1.25606 0.25899,1.85406 0.086,0.299 0.19117,0.58366 0.31742,0.85266 0.12625,0.269 0.27361,0.52202 0.43961,0.76102 0.1725,0.2325 0.36584,0.44414 0.58172,0.63351 0.21587,0.18938 0.4542,0.35736 0.7132,0.50336 0.259,0.1395 0.5387,0.24381 0.8407,0.31344 0.302,0.0696 0.62586,0.10492 0.97086,0.10492 0.279,0 0.55044,-0.0266 0.81282,-0.0797 0.26237,-0.0531 0.51551,-0.13389 0.76101,-0.24039 0.2525,-0.113 0.48769,-0.25042 0.70656,-0.41304 0.21888,-0.16263 0.42229,-0.35063 0.60828,-0.56313 0.1925,-0.2125 0.36329,-0.44937 0.51266,-0.71187 0.14938,-0.2625 0.2765,-0.54946 0.3825,-0.86196 0.113,-0.312 0.19825,-0.64772 0.255,-1.00672 0.0568,-0.359 0.085,-0.7425 0.085,-1.1475 0,-0.392 -0.0245,-0.76431 -0.0744,-1.11961 -0.0499,-0.3553 -0.12496,-0.693127 -0.22446,-1.012027 -0.0995,-0.3189 -0.21995,-0.614763 -0.36258,-0.887187 -0.14262,-0.272425 -0.30673,-0.521835 -0.49273,-0.747735 -0.1795,-0.2259 -0.3778,-0.425006 -0.59367,-0.597656 -0.21588,-0.17265 -0.45058,-0.318681 -0.70258,-0.438281 -0.2525,-0.1263 -0.51787,-0.220919 -0.79687,-0.284219 -0.279,-0.0633 -0.57107,-0.0943 -0.87657,-0.0943 z"
       style="fill:#339999"
       id="path19" />
    <path
       d="m -190.99593,69.378299 c -0.2523,0 -0.49061,0.02203 -0.7132,0.06508 -0.22259,0.04305 -0.42901,0.107507 -0.62156,0.193907 -0.385,0.172799 -0.7172,0.398344 -0.99609,0.677343 -0.2653,0.2789 -0.48463,0.598679 -0.65743,0.957578 -0.1726,0.3587 -0.30533,0.730226 -0.39843,1.115625 h 6.15453 c 0,-0.398599 -0.0662,-0.776747 -0.19922,-1.135546 -0.1326,-0.3587 -0.31871,-0.678479 -0.55781,-0.957579 -0.2392,-0.278899 -0.53137,-0.497822 -0.87657,-0.657421 -0.17255,-0.0864 -0.35277,-0.150857 -0.54187,-0.193907 -0.1891,-0.04305 -0.3865,-0.06508 -0.59235,-0.06508 z"
       style="fill:#339999"
       id="path18" />
    <path
       opacity="0.6"
       d="m -142.60545,57.781693 c -3.3282,0.1102 -7.0867,2.4466 -7.4962,6.0787 -0.4308,2.4973 0.9268,5.036 3.0967,6.2723 2.9082,1.983 6.698,2.4782 9.2724,4.9667 1.6336,2.07 0.2681,5.51 -2.3172,5.963 -2.9234,0.828 -5.9898,-0.343 -8.4142,-1.967 -0.5785,0.835 -1.1569,1.67 -1.7355,2.505 3.6893,2.721 8.9687,3.577 13.1371,1.477 3.2522,-1.719 4.6734,-6.416 2.4387,-9.4647 -1.8824,-2.5427 -5.128,-3.328 -7.8906,-4.5239 -1.761,-0.7844 -4.0594,-1.8456 -4.1497,-4.0705 -0.1764,-2.0872 1.5213,-3.9479 3.5528,-4.2176 2.4693,-0.5174 4.9841,0.3639 7.117,1.57 0.4559,-0.8856 0.9117,-1.7712 1.3677,-2.6568 -2.3291,-1.557 -5.2154,-2.0942 -7.979,-1.9322 z"
       fill="#339999"
       id="path2" />
    <path
       opacity="0.6"
       d="m -115.55505,65.938493 c -1.957,0.1292 -3.774,1.2514 -4.844,2.8838 -0.805,-0.1769 -2.049,0.2357 -2.5086,-0.5756 -0.1122,-0.5701 0.2436,-1.5343 -0.2045,-1.851 -0.8953,0 -1.7906,0 -2.6859,0 0,8.5057 0,17.0117 0,25.5177 1.1244,0 2.2488,0 3.373,0 -0.022,-3.235 0.114,-6.481 -0.238,-9.704 1.098,0.152 2.401,-0.254 3.2,0.716 3.594,2.913 9.619,0.984 11.233,-3.254 1.561,-3.575 1.249,-8.0697 -1.104,-11.2286 -1.501,-1.7951 -3.9,-2.7415 -6.221,-2.5043 z m -1.029,2.2599 c 3.249,-0.0651 5.757,3.0495 5.853,6.143 0.386,3.118 -1.235,6.775 -4.494,7.572 -2.967,0.83 -6.324,-1.16 -7.004,-4.176 -1.0269,-3.192 -0.15,-7.3806 3.045,-8.9841 0.811,-0.3755 1.706,-0.5706 2.6,-0.5547 z"
       fill="#339999"
       id="path3" />
    <path
       opacity="0.6"
       d="m -94.028048,65.944193 c -1.927,0.1421 -3.811,0.7081 -5.534,1.5756 0.472,0.5291 0.526,2.2638 1.466,1.4433 2.512,-1.1452 5.869,-1.6885 8.111,0.3049 1.225,1.259 1.137,3.1616 1.068,4.7904 -1.218,0.591 -2.672,0.082 -3.927,0.356 -2.741,0.252 -5.822,0.654 -7.824002,2.738 -1.805,2.455 -0.05,6.292 2.865002,6.863 2.308,0.665 5.214,-0.084 6.355,-2.346 -1.907,1.364 -5.143,1.148 -6.2,-1.179 -0.956,-1.99 0.317,-4.485 2.376,-5.118 1.846,-0.764 3.894,-0.713 5.841,-0.699 0.972,0.343 0.566,1.653 0.599,2.441 -0.116,1.563 -0.897,3.132 -2.047,4.115 0.792,-0.173 1.685,-0.061 2.437,0.05 0.803,0.616 -0.04,1.8 0.246,2.481 0.853,-0.006 1.722,-0.07 2.557,0.039 0.296,-1.002 -0.006,-2.158 0.098,-3.219 -0.056,-3.295 0.19,-6.618 -0.201,-9.8937 -0.572,-2.5296 -2.803,-4.2801 -5.309,-4.5811 -0.982,-0.1759 -1.982,-0.1981 -2.977,-0.158 z"
       fill="#339999"
       id="path4" />
    <path
       opacity="0.6"
       d="m -66.627048,66.541493 c -1.845,0.573 -3.026,2.2523 -4.065,3.7647 -0.055,1.1694 -1.336,0.5958 -2.133,0.7284 -1.234,0.3511 -0.955,-0.6144 -0.873,-1.5001 0.009,-0.944 -0.128,-1.8806 -0.152,-2.8234 -1.038,0 -2.075,0 -3.112,0 0,5.782 0,11.5643 0,17.3463 1.127,0 2.254,0 3.382,0 0.133,-3.355 -0.447,-6.845 0.637,-10.0898 1.022,-2.6041 3.806,-4.4728 6.58,-4.3411 0.01,-1.0495 -0.044,-2.105 0.028,-3.157 -0.097,0.0219 -0.195,0.0504 -0.292,0.072 z"
       fill="#339999"
       id="path5" />
    <path
       opacity="0.6"
       d="m -59.409048,83.426393 c 1.124,0 2.248,0 3.373,0 0,-2.724 0,-5.447 0,-8.171 1.713,0 3.427,0 5.14,0 1.479,2.725 2.964,5.447 4.445,8.171 1.218,0 2.436,0 3.655,0 -1.843,-3.033 -3.79,-6.035 -5.569,-9.088 -0.198,-1.649 1.307,-2.7661 1.966,-4.1263 0.89,-1.3772 1.779,-2.7544 2.669,-4.1316 -1.083,0 -2.167,0 -3.25,0 -1.389,2.3113 -2.774,4.6252 -4.166,6.9349 -1.63,0 -3.26,0 -4.89,0 0,-5.0297 0,-10.0594 0,-15.0891 -1.125,0 -2.249,0 -3.373,0 0,8.5001 0,17.0001 0,25.5001 z"
       fill="#339999"
       id="path6" />
  </g>
</svg>
