<?xml version="1.0" encoding="UTF-8" standalone="no"?>
<!DOCTYPE svg PUBLIC "-//W3C//DTD SVG 1.1//EN"
 "http://www.w3.org/Graphics/SVG/1.1/DTD/svg11.dtd">
<!-- Generated by graphviz version 2.40.1 (20161225.0304)
 -->
<!-- Title: advice_types Pages: 1 -->
<svg width="748pt" height="862pt"
 viewBox="0.00 0.00 747.50 862.00" xmlns="http://www.w3.org/2000/svg" xmlns:xlink="http://www.w3.org/1999/xlink">
<g id="graph0" class="graph" transform="scale(1 1) rotate(0) translate(4 858)">
<title>advice_types</title>
<polygon fill="#ffffff" stroke="transparent" points="-4,4 -4,-858 743.5,-858 743.5,4 -4,4"/>
<!-- advice_types -->
<g id="node1" class="node">
<title>advice_types</title>
<polygon fill="#efefef" stroke="transparent" points="254.5,-195.5 254.5,-230.5 500.5,-230.5 500.5,-195.5 254.5,-195.5"/>
<polygon fill="none" stroke="#000000" points="254.5,-195.5 254.5,-230.5 500.5,-230.5 500.5,-195.5 254.5,-195.5"/>
<text text-anchor="start" x="261.1992" y="-208.3" font-family="Arial Bold" font-size="18.00" fill="#000000">advice_types</text>
<text text-anchor="start" x="366.2328" y="-208.3" font-family="Arial" font-size="14.00" fill="#000000">    </text>
<text text-anchor="start" x="400.4376" y="-208.3" font-family="Arial" font-size="14.00" fill="#666666">[BASE TABLE]</text>
<polygon fill="none" stroke="#000000" points="254.5,-165.5 254.5,-195.5 500.5,-195.5 500.5,-165.5 254.5,-165.5"/>
<text text-anchor="start" x="261.5" y="-176.9" font-family="Arial" font-size="14.00" fill="#000000">id </text>
<text text-anchor="start" x="276.2798" y="-176.9" font-family="Arial" font-size="14.00" fill="#666666">[bigint(20) unsigned]</text>
<polygon fill="none" stroke="#000000" points="254.5,-135.5 254.5,-165.5 500.5,-165.5 500.5,-135.5 254.5,-135.5"/>
<text text-anchor="start" x="261.5" y="-146.9" font-family="Arial" font-size="14.00" fill="#000000">advice_type_name </text>
<text text-anchor="start" x="382.8744" y="-146.9" font-family="Arial" font-size="14.00" fill="#666666">[varchar(255)]</text>
<polygon fill="none" stroke="#000000" points="254.5,-105.5 254.5,-135.5 500.5,-135.5 500.5,-105.5 254.5,-105.5"/>
<text text-anchor="start" x="261.5" y="-116.9" font-family="Arial" font-size="14.00" fill="#000000">advice_type_value </text>
<text text-anchor="start" x="381.3204" y="-116.9" font-family="Arial" font-size="14.00" fill="#666666">[text]</text>
<polygon fill="none" stroke="#000000" points="254.5,-75.5 254.5,-105.5 500.5,-105.5 500.5,-75.5 254.5,-75.5"/>
<text text-anchor="start" x="261.5" y="-86.9" font-family="Arial" font-size="14.00" fill="#000000">created_at </text>
<text text-anchor="start" x="331.528" y="-86.9" font-family="Arial" font-size="14.00" fill="#666666">[timestamp]</text>
<polygon fill="none" stroke="#000000" points="254.5,-45.5 254.5,-75.5 500.5,-75.5 500.5,-45.5 254.5,-45.5"/>
<text text-anchor="start" x="261.5" y="-56.9" font-family="Arial" font-size="14.00" fill="#000000">updated_at </text>
<text text-anchor="start" x="335.4326" y="-56.9" font-family="Arial" font-size="14.00" fill="#666666">[timestamp]</text>
<polygon fill="none" stroke="#000000" stroke-width="3" points="253,-44.5 253,-232.5 502,-232.5 502,-44.5 253,-44.5"/>
</g>
<!-- advice_advicetype -->
<g id="node2" class="node">
<title>advice_advicetype</title>
<polygon fill="#efefef" stroke="transparent" points="43.5,-625.5 43.5,-660.5 332.5,-660.5 332.5,-625.5 43.5,-625.5"/>
<polygon fill="none" stroke="#000000" points="43.5,-625.5 43.5,-660.5 332.5,-660.5 332.5,-625.5 43.5,-625.5"/>
<text text-anchor="start" x="50.1928" y="-638.3" font-family="Arial Bold" font-size="18.00" fill="#000000">advice_advicetype</text>
<text text-anchor="start" x="198.2392" y="-638.3" font-family="Arial" font-size="14.00" fill="#000000">    </text>
<text text-anchor="start" x="232.444" y="-638.3" font-family="Arial" font-size="14.00" fill="#666666">[BASE TABLE]</text>
<polygon fill="none" stroke="#000000" points="43.5,-595.5 43.5,-625.5 332.5,-625.5 332.5,-595.5 43.5,-595.5"/>
<text text-anchor="start" x="50.5" y="-606.9" font-family="Arial" font-size="14.00" fill="#000000">advice_id    </text>
<text text-anchor="start" x="143.831" y="-606.9" font-family="Arial" font-size="14.00" fill="#666666">[bigint(20) unsigned]</text>
<polygon fill="none" stroke="#000000" points="43.5,-565.5 43.5,-595.5 332.5,-595.5 332.5,-565.5 43.5,-565.5"/>
<text text-anchor="start" x="50.5" y="-576.9" font-family="Arial" font-size="14.00" fill="#000000">advicetype_id    </text>
<text text-anchor="start" x="170.2868" y="-576.9" font-family="Arial" font-size="14.00" fill="#666666">[bigint(20) unsigned]</text>
<polygon fill="none" stroke="#000000" points="43.5,-535.5 43.5,-565.5 332.5,-565.5 332.5,-535.5 43.5,-535.5"/>
<text text-anchor="start" x="50.5" y="-546.9" font-family="Arial" font-size="14.00" fill="#000000">created_at    </text>
<text text-anchor="start" x="150.8422" y="-546.9" font-family="Arial" font-size="14.00" fill="#666666">[timestamp]</text>
<polygon fill="none" stroke="#000000" points="43.5,-505.5 43.5,-535.5 332.5,-535.5 332.5,-505.5 43.5,-505.5"/>
<text text-anchor="start" x="50.5" y="-516.9" font-family="Arial" font-size="14.00" fill="#000000">updated_at    </text>
<text text-anchor="start" x="154.7468" y="-516.9" font-family="Arial" font-size="14.00" fill="#666666">[timestamp]</text>
</g>
<!-- advice_advicetype&#45;&gt;advice_types -->
<g id="edge1" class="edge">
<title>advice_advicetype:advicetype_id&#45;&gt;advice_types:id</title>
<path fill="none" stroke="#000000" d="M342.8702,-580.0022C495.8303,-564.262 77.0883,-180.5 254.5,-180.5"/>
<polygon fill="#000000" stroke="#000000" points="342.4885,-580.0204 332.2842,-576.0052 337.4942,-580.2602 332.5,-580.5 332.5,-580.5 332.5,-580.5 337.4942,-580.2602 332.7158,-584.9948 342.4885,-580.0204 342.4885,-580.0204"/>
<text text-anchor="start" x="339.3195" y="-590.5" font-family="Arial" font-size="10.00" fill="#000000">FOREIGN KEY (advicetype_id) REFERENCES advice_types (id)</text>
</g>
<!-- advices -->
<g id="node3" class="node">
<title>advices</title>
<polygon fill="#efefef" stroke="transparent" points="436.5,-775.5 436.5,-810.5 696.5,-810.5 696.5,-775.5 436.5,-775.5"/>
<polygon fill="none" stroke="#000000" points="436.5,-775.5 436.5,-810.5 696.5,-810.5 696.5,-775.5 436.5,-775.5"/>
<text text-anchor="start" x="472.2096" y="-788.3" font-family="Arial Bold" font-size="18.00" fill="#000000">advices</text>
<text text-anchor="start" x="533.2224" y="-788.3" font-family="Arial" font-size="14.00" fill="#000000">    </text>
<text text-anchor="start" x="567.4272" y="-788.3" font-family="Arial" font-size="14.00" fill="#666666">[BASE TABLE]</text>
<polygon fill="none" stroke="#000000" points="436.5,-745.5 436.5,-775.5 696.5,-775.5 696.5,-745.5 436.5,-745.5"/>
<text text-anchor="start" x="443.5" y="-756.9" font-family="Arial" font-size="14.00" fill="#000000">id    </text>
<text text-anchor="start" x="488.594" y="-756.9" font-family="Arial" font-size="14.00" fill="#666666">[bigint(20) unsigned]</text>
<polygon fill="none" stroke="#000000" points="436.5,-715.5 436.5,-745.5 696.5,-745.5 696.5,-715.5 436.5,-715.5"/>
<text text-anchor="start" x="443.5" y="-726.9" font-family="Arial" font-size="14.00" fill="#000000">author_id    </text>
<text text-anchor="start" x="536.0582" y="-726.9" font-family="Arial" font-size="14.00" fill="#666666">[bigint(20) unsigned]</text>
<polygon fill="none" stroke="#000000" points="436.5,-685.5 436.5,-715.5 696.5,-715.5 696.5,-685.5 436.5,-685.5"/>
<text text-anchor="start" x="443.5" y="-696.9" font-family="Arial" font-size="14.00" fill="#000000">post_title    </text>
<text text-anchor="start" x="533.7202" y="-696.9" font-family="Arial" font-size="14.00" fill="#666666">[varchar(255)]</text>
<polygon fill="none" stroke="#000000" points="436.5,-655.5 436.5,-685.5 696.5,-685.5 696.5,-655.5 436.5,-655.5"/>
<text text-anchor="start" x="443.5" y="-666.9" font-family="Arial" font-size="14.00" fill="#000000">post_content    </text>
<text text-anchor="start" x="557.8548" y="-666.9" font-family="Arial" font-size="14.00" fill="#666666">[longtext]</text>
<polygon fill="none" stroke="#000000" points="436.5,-625.5 436.5,-655.5 696.5,-655.5 696.5,-625.5 436.5,-625.5"/>
<text text-anchor="start" x="443.5" y="-636.9" font-family="Arial" font-size="14.00" fill="#000000">post_excerpt    </text>
<text text-anchor="start" x="557.8422" y="-636.9" font-family="Arial" font-size="14.00" fill="#666666">[text]</text>
<polygon fill="none" stroke="#000000" points="436.5,-595.5 436.5,-625.5 696.5,-625.5 696.5,-595.5 436.5,-595.5"/>
<text text-anchor="start" x="443.5" y="-606.9" font-family="Arial" font-size="14.00" fill="#000000">cover_image    </text>
<text text-anchor="start" x="557.8282" y="-606.9" font-family="Arial" font-size="14.00" fill="#666666">[varchar(255)]</text>
<polygon fill="none" stroke="#000000" points="436.5,-565.5 436.5,-595.5 696.5,-595.5 696.5,-565.5 436.5,-565.5"/>
<text text-anchor="start" x="443.5" y="-576.9" font-family="Arial" font-size="14.00" fill="#000000">post_date    </text>
<text text-anchor="start" x="539.1816" y="-576.9" font-family="Arial" font-size="14.00" fill="#666666">[datetime]</text>
<polygon fill="none" stroke="#000000" points="436.5,-535.5 436.5,-565.5 696.5,-565.5 696.5,-535.5 436.5,-535.5"/>
<text text-anchor="start" x="443.5" y="-546.9" font-family="Arial" font-size="14.00" fill="#000000">post_modified    </text>
<text text-anchor="start" x="564.838" y="-546.9" font-family="Arial" font-size="14.00" fill="#666666">[datetime]</text>
<polygon fill="none" stroke="#000000" points="436.5,-505.5 436.5,-535.5 696.5,-535.5 696.5,-505.5 436.5,-505.5"/>
<text text-anchor="start" x="443.5" y="-516.9" font-family="Arial" font-size="14.00" fill="#000000">post_status    </text>
<text text-anchor="start" x="549.2896" y="-516.9" font-family="Arial" font-size="14.00" fill="#666666">[varchar(255)]</text>
<polygon fill="none" stroke="#000000" points="436.5,-475.5 436.5,-505.5 696.5,-505.5 696.5,-475.5 436.5,-475.5"/>
<text text-anchor="start" x="443.2006" y="-486.9" font-family="Arial" font-size="14.00" fill="#000000">advicetype_id    </text>
<text text-anchor="start" x="562.9874" y="-486.9" font-family="Arial" font-size="14.00" fill="#666666">[bigint(20) unsigned]</text>
<polygon fill="none" stroke="#000000" points="436.5,-445.5 436.5,-475.5 696.5,-475.5 696.5,-445.5 436.5,-445.5"/>
<text text-anchor="start" x="443.5" y="-456.9" font-family="Arial" font-size="14.00" fill="#000000">template    </text>
<text text-anchor="start" x="531.3836" y="-456.9" font-family="Arial" font-size="14.00" fill="#666666">[varchar(255)]</text>
<polygon fill="none" stroke="#000000" points="436.5,-415.5 436.5,-445.5 696.5,-445.5 696.5,-415.5 436.5,-415.5"/>
<text text-anchor="start" x="443.5" y="-426.9" font-family="Arial" font-size="14.00" fill="#000000">extra_content    </text>
<text text-anchor="start" x="562.5154" y="-426.9" font-family="Arial" font-size="14.00" fill="#666666">[json]</text>
<polygon fill="none" stroke="#000000" points="436.5,-385.5 436.5,-415.5 696.5,-415.5 696.5,-385.5 436.5,-385.5"/>
<text text-anchor="start" x="443.5" y="-396.9" font-family="Arial" font-size="14.00" fill="#000000">created_at    </text>
<text text-anchor="start" x="543.8422" y="-396.9" font-family="Arial" font-size="14.00" fill="#666666">[timestamp]</text>
<polygon fill="none" stroke="#000000" points="436.5,-355.5 436.5,-385.5 696.5,-385.5 696.5,-355.5 436.5,-355.5"/>
<text text-anchor="start" x="443.5" y="-366.9" font-family="Arial" font-size="14.00" fill="#000000">updated_at    </text>
<text text-anchor="start" x="547.7468" y="-366.9" font-family="Arial" font-size="14.00" fill="#666666">[timestamp]</text>
</g>
<!-- advices&#45;&gt;advice_types -->
<g id="edge2" class="edge">
<title>advices:advicetype_id&#45;&gt;advice_types:id</title>
<path fill="none" stroke="#000000" d="M426.1717,-489.7944C361.2749,-480.3343 398.5401,-377.9056 436.5,-313 452.976,-284.8286 484.024,-305.1714 500.5,-277 522.1523,-239.9779 543.3889,-180.5 500.5,-180.5"/>
<polygon fill="#000000" stroke="#000000" points="426.5233,-489.8183 436.1932,-494.9895 431.5116,-490.1591 436.5,-490.5 436.5,-490.5 436.5,-490.5 431.5116,-490.1591 436.8068,-486.0105 426.5233,-489.8183 426.5233,-489.8183"/>
<text text-anchor="start" x="443.3195" y="-500.5" font-family="Arial" font-size="10.00" fill="#000000">FOREIGN KEY (advicetype_id) REFERENCES advice_types (id)</text>
</g>
</g>
</svg>
