<?xml version="1.0" encoding="UTF-8" standalone="no"?>
<!DOCTYPE svg PUBLIC "-//W3C//DTD SVG 1.1//EN"
 "http://www.w3.org/Graphics/SVG/1.1/DTD/svg11.dtd">
<!-- Generated by graphviz version 2.40.1 (20161225.0304)
 -->
<!-- Title: advice_advicetype Pages: 1 -->
<svg width="858pt" height="832pt"
 viewBox="0.00 0.00 858.00 832.00" xmlns="http://www.w3.org/2000/svg" xmlns:xlink="http://www.w3.org/1999/xlink">
<g id="graph0" class="graph" transform="scale(1 1) rotate(0) translate(4 828)">
<title>advice_advicetype</title>
<polygon fill="#ffffff" stroke="transparent" points="-4,4 -4,-828 854,-828 854,4 -4,4"/>
<!-- advice_advicetype -->
<g id="node1" class="node">
<title>advice_advicetype</title>
<polygon fill="#efefef" stroke="transparent" points="259,-742.5 259,-777.5 548,-777.5 548,-742.5 259,-742.5"/>
<polygon fill="none" stroke="#000000" points="259,-742.5 259,-777.5 548,-777.5 548,-742.5 259,-742.5"/>
<text text-anchor="start" x="265.6928" y="-755.3" font-family="Arial Bold" font-size="18.00" fill="#000000">advice_advicetype</text>
<text text-anchor="start" x="413.7392" y="-755.3" font-family="Arial" font-size="14.00" fill="#000000">    </text>
<text text-anchor="start" x="447.944" y="-755.3" font-family="Arial" font-size="14.00" fill="#666666">[BASE TABLE]</text>
<polygon fill="none" stroke="#000000" points="259,-712.5 259,-742.5 548,-742.5 548,-712.5 259,-712.5"/>
<text text-anchor="start" x="266" y="-723.9" font-family="Arial" font-size="14.00" fill="#000000">advice_id </text>
<text text-anchor="start" x="329.0168" y="-723.9" font-family="Arial" font-size="14.00" fill="#666666">[bigint(20) unsigned]</text>
<polygon fill="none" stroke="#000000" points="259,-682.5 259,-712.5 548,-712.5 548,-682.5 259,-682.5"/>
<text text-anchor="start" x="266" y="-693.9" font-family="Arial" font-size="14.00" fill="#000000">advicetype_id </text>
<text text-anchor="start" x="355.4726" y="-693.9" font-family="Arial" font-size="14.00" fill="#666666">[bigint(20) unsigned]</text>
<polygon fill="none" stroke="#000000" points="259,-652.5 259,-682.5 548,-682.5 548,-652.5 259,-652.5"/>
<text text-anchor="start" x="266" y="-663.9" font-family="Arial" font-size="14.00" fill="#000000">created_at </text>
<text text-anchor="start" x="336.028" y="-663.9" font-family="Arial" font-size="14.00" fill="#666666">[timestamp]</text>
<polygon fill="none" stroke="#000000" points="259,-622.5 259,-652.5 548,-652.5 548,-622.5 259,-622.5"/>
<text text-anchor="start" x="266" y="-633.9" font-family="Arial" font-size="14.00" fill="#000000">updated_at </text>
<text text-anchor="start" x="339.9326" y="-633.9" font-family="Arial" font-size="14.00" fill="#666666">[timestamp]</text>
<polygon fill="none" stroke="#000000" stroke-width="3" points="257,-621.5 257,-779.5 549,-779.5 549,-621.5 257,-621.5"/>
</g>
<!-- advices -->
<g id="node2" class="node">
<title>advices</title>
<polygon fill="#efefef" stroke="transparent" points="94,-462.5 94,-497.5 354,-497.5 354,-462.5 94,-462.5"/>
<polygon fill="none" stroke="#000000" points="94,-462.5 94,-497.5 354,-497.5 354,-462.5 94,-462.5"/>
<text text-anchor="start" x="129.7096" y="-475.3" font-family="Arial Bold" font-size="18.00" fill="#000000">advices</text>
<text text-anchor="start" x="190.7224" y="-475.3" font-family="Arial" font-size="14.00" fill="#000000">    </text>
<text text-anchor="start" x="224.9272" y="-475.3" font-family="Arial" font-size="14.00" fill="#666666">[BASE TABLE]</text>
<polygon fill="none" stroke="#000000" points="94,-432.5 94,-462.5 354,-462.5 354,-432.5 94,-432.5"/>
<text text-anchor="start" x="101" y="-443.9" font-family="Arial" font-size="14.00" fill="#000000">id    </text>
<text text-anchor="start" x="146.094" y="-443.9" font-family="Arial" font-size="14.00" fill="#666666">[bigint(20) unsigned]</text>
<polygon fill="none" stroke="#000000" points="94,-402.5 94,-432.5 354,-432.5 354,-402.5 94,-402.5"/>
<text text-anchor="start" x="101" y="-413.9" font-family="Arial" font-size="14.00" fill="#000000">author_id    </text>
<text text-anchor="start" x="193.5582" y="-413.9" font-family="Arial" font-size="14.00" fill="#666666">[bigint(20) unsigned]</text>
<polygon fill="none" stroke="#000000" points="94,-372.5 94,-402.5 354,-402.5 354,-372.5 94,-372.5"/>
<text text-anchor="start" x="101" y="-383.9" font-family="Arial" font-size="14.00" fill="#000000">post_title    </text>
<text text-anchor="start" x="191.2202" y="-383.9" font-family="Arial" font-size="14.00" fill="#666666">[varchar(255)]</text>
<polygon fill="none" stroke="#000000" points="94,-342.5 94,-372.5 354,-372.5 354,-342.5 94,-342.5"/>
<text text-anchor="start" x="101" y="-353.9" font-family="Arial" font-size="14.00" fill="#000000">post_content    </text>
<text text-anchor="start" x="215.3548" y="-353.9" font-family="Arial" font-size="14.00" fill="#666666">[longtext]</text>
<polygon fill="none" stroke="#000000" points="94,-312.5 94,-342.5 354,-342.5 354,-312.5 94,-312.5"/>
<text text-anchor="start" x="101" y="-323.9" font-family="Arial" font-size="14.00" fill="#000000">post_excerpt    </text>
<text text-anchor="start" x="215.3422" y="-323.9" font-family="Arial" font-size="14.00" fill="#666666">[text]</text>
<polygon fill="none" stroke="#000000" points="94,-282.5 94,-312.5 354,-312.5 354,-282.5 94,-282.5"/>
<text text-anchor="start" x="101" y="-293.9" font-family="Arial" font-size="14.00" fill="#000000">cover_image    </text>
<text text-anchor="start" x="215.3282" y="-293.9" font-family="Arial" font-size="14.00" fill="#666666">[varchar(255)]</text>
<polygon fill="none" stroke="#000000" points="94,-252.5 94,-282.5 354,-282.5 354,-252.5 94,-252.5"/>
<text text-anchor="start" x="101" y="-263.9" font-family="Arial" font-size="14.00" fill="#000000">post_date    </text>
<text text-anchor="start" x="196.6816" y="-263.9" font-family="Arial" font-size="14.00" fill="#666666">[datetime]</text>
<polygon fill="none" stroke="#000000" points="94,-222.5 94,-252.5 354,-252.5 354,-222.5 94,-222.5"/>
<text text-anchor="start" x="101" y="-233.9" font-family="Arial" font-size="14.00" fill="#000000">post_modified    </text>
<text text-anchor="start" x="222.338" y="-233.9" font-family="Arial" font-size="14.00" fill="#666666">[datetime]</text>
<polygon fill="none" stroke="#000000" points="94,-192.5 94,-222.5 354,-222.5 354,-192.5 94,-192.5"/>
<text text-anchor="start" x="101" y="-203.9" font-family="Arial" font-size="14.00" fill="#000000">post_status    </text>
<text text-anchor="start" x="206.7896" y="-203.9" font-family="Arial" font-size="14.00" fill="#666666">[varchar(255)]</text>
<polygon fill="none" stroke="#000000" points="94,-162.5 94,-192.5 354,-192.5 354,-162.5 94,-162.5"/>
<text text-anchor="start" x="100.7006" y="-173.9" font-family="Arial" font-size="14.00" fill="#000000">advicetype_id    </text>
<text text-anchor="start" x="220.4874" y="-173.9" font-family="Arial" font-size="14.00" fill="#666666">[bigint(20) unsigned]</text>
<polygon fill="none" stroke="#000000" points="94,-132.5 94,-162.5 354,-162.5 354,-132.5 94,-132.5"/>
<text text-anchor="start" x="101" y="-143.9" font-family="Arial" font-size="14.00" fill="#000000">template    </text>
<text text-anchor="start" x="188.8836" y="-143.9" font-family="Arial" font-size="14.00" fill="#666666">[varchar(255)]</text>
<polygon fill="none" stroke="#000000" points="94,-102.5 94,-132.5 354,-132.5 354,-102.5 94,-102.5"/>
<text text-anchor="start" x="101" y="-113.9" font-family="Arial" font-size="14.00" fill="#000000">extra_content    </text>
<text text-anchor="start" x="220.0154" y="-113.9" font-family="Arial" font-size="14.00" fill="#666666">[json]</text>
<polygon fill="none" stroke="#000000" points="94,-72.5 94,-102.5 354,-102.5 354,-72.5 94,-72.5"/>
<text text-anchor="start" x="101" y="-83.9" font-family="Arial" font-size="14.00" fill="#000000">created_at    </text>
<text text-anchor="start" x="201.3422" y="-83.9" font-family="Arial" font-size="14.00" fill="#666666">[timestamp]</text>
<polygon fill="none" stroke="#000000" points="94,-42.5 94,-72.5 354,-72.5 354,-42.5 94,-42.5"/>
<text text-anchor="start" x="101" y="-53.9" font-family="Arial" font-size="14.00" fill="#000000">updated_at    </text>
<text text-anchor="start" x="205.2468" y="-53.9" font-family="Arial" font-size="14.00" fill="#666666">[timestamp]</text>
</g>
<!-- advice_advicetype&#45;&gt;advices -->
<g id="edge1" class="edge">
<title>advice_advicetype:advice_id&#45;&gt;advices:id</title>
<path fill="none" stroke="#000000" d="M248.8712,-726.6658C195.2976,-717.1803 223.0739,-629.0333 259,-577 284.6543,-539.8439 328.3457,-578.1561 354,-541 377.6108,-506.8036 395.5556,-447.5 354,-447.5"/>
<polygon fill="#000000" stroke="#000000" points="249.0337,-726.6791 258.6306,-731.9848 254.0169,-727.0895 259,-727.5 259,-727.5 259,-727.5 254.0169,-727.0895 259.3694,-723.0152 249.0337,-726.6791 249.0337,-726.6791"/>
<text text-anchor="start" x="7.496" y="-737.5" font-family="Arial" font-size="10.00" fill="#000000">FOREIGN KEY (advice_id) REFERENCES advices (id)</text>
</g>
<!-- advice_types -->
<g id="node3" class="node">
<title>advice_types</title>
<polygon fill="#efefef" stroke="transparent" points="458,-327.5 458,-362.5 710,-362.5 710,-327.5 458,-327.5"/>
<polygon fill="none" stroke="#000000" points="458,-327.5 458,-362.5 710,-362.5 710,-327.5 458,-327.5"/>
<text text-anchor="start" x="467.6992" y="-340.3" font-family="Arial Bold" font-size="18.00" fill="#000000">advice_types</text>
<text text-anchor="start" x="572.7328" y="-340.3" font-family="Arial" font-size="14.00" fill="#000000">    </text>
<text text-anchor="start" x="606.9376" y="-340.3" font-family="Arial" font-size="14.00" fill="#666666">[BASE TABLE]</text>
<polygon fill="none" stroke="#000000" points="458,-297.5 458,-327.5 710,-327.5 710,-297.5 458,-297.5"/>
<text text-anchor="start" x="465" y="-308.9" font-family="Arial" font-size="14.00" fill="#000000">id    </text>
<text text-anchor="start" x="510.094" y="-308.9" font-family="Arial" font-size="14.00" fill="#666666">[bigint(20) unsigned]</text>
<polygon fill="none" stroke="#000000" points="458,-267.5 458,-297.5 710,-297.5 710,-267.5 458,-267.5"/>
<text text-anchor="start" x="464.5961" y="-278.9" font-family="Arial" font-size="14.00" fill="#000000">advice_type_name    </text>
<text text-anchor="start" x="616.2847" y="-278.9" font-family="Arial" font-size="14.00" fill="#666666">[varchar(255)]</text>
<polygon fill="none" stroke="#000000" points="458,-237.5 458,-267.5 710,-267.5 710,-237.5 458,-237.5"/>
<text text-anchor="start" x="465" y="-248.9" font-family="Arial" font-size="14.00" fill="#000000">advice_type_value    </text>
<text text-anchor="start" x="615.1346" y="-248.9" font-family="Arial" font-size="14.00" fill="#666666">[text]</text>
<polygon fill="none" stroke="#000000" points="458,-207.5 458,-237.5 710,-237.5 710,-207.5 458,-207.5"/>
<text text-anchor="start" x="465" y="-218.9" font-family="Arial" font-size="14.00" fill="#000000">created_at    </text>
<text text-anchor="start" x="565.3422" y="-218.9" font-family="Arial" font-size="14.00" fill="#666666">[timestamp]</text>
<polygon fill="none" stroke="#000000" points="458,-177.5 458,-207.5 710,-207.5 710,-177.5 458,-177.5"/>
<text text-anchor="start" x="465" y="-188.9" font-family="Arial" font-size="14.00" fill="#000000">updated_at    </text>
<text text-anchor="start" x="569.2468" y="-188.9" font-family="Arial" font-size="14.00" fill="#666666">[timestamp]</text>
</g>
<!-- advice_advicetype&#45;&gt;advice_types -->
<g id="edge2" class="edge">
<title>advice_advicetype:advicetype_id&#45;&gt;advice_types:id</title>
<path fill="none" stroke="#000000" d="M558.0431,-697.0209C705.8775,-681.8709 285.8795,-312.5 458,-312.5"/>
<polygon fill="#000000" stroke="#000000" points="557.9886,-697.0234 547.7855,-693.0051 552.9943,-697.2617 548,-697.5 548,-697.5 548,-697.5 552.9943,-697.2617 548.2145,-701.9949 557.9886,-697.0234 557.9886,-697.0234"/>
<text text-anchor="start" x="554.8195" y="-707.5" font-family="Arial" font-size="10.00" fill="#000000">FOREIGN KEY (advicetype_id) REFERENCES advice_types (id)</text>
</g>
</g>
</svg>
