<?xml version="1.0" encoding="UTF-8" standalone="no"?>
<!DOCTYPE svg PUBLIC "-//W3C//DTD SVG 1.1//EN"
 "http://www.w3.org/Graphics/SVG/1.1/DTD/svg11.dtd">
<!-- Generated by graphviz version 2.40.1 (20161225.0304)
 -->
<!-- Title: advices Pages: 1 -->
<svg width="801pt" height="1469pt"
 viewBox="0.00 0.00 800.50 1469.00" xmlns="http://www.w3.org/2000/svg" xmlns:xlink="http://www.w3.org/1999/xlink">
<g id="graph0" class="graph" transform="scale(1 1) rotate(0) translate(4 1465)">
<title>advices</title>
<polygon fill="#ffffff" stroke="transparent" points="-4,4 -4,-1465 796.5,-1465 796.5,4 -4,4"/>
<!-- advices -->
<g id="node1" class="node">
<title>advices</title>
<polygon fill="#efefef" stroke="transparent" points="260.5,-1042.5 260.5,-1077.5 490.5,-1077.5 490.5,-1042.5 260.5,-1042.5"/>
<polygon fill="none" stroke="#000000" points="260.5,-1042.5 260.5,-1077.5 490.5,-1077.5 490.5,-1042.5 260.5,-1042.5"/>
<text text-anchor="start" x="281.2096" y="-1055.3" font-family="Arial Bold" font-size="18.00" fill="#000000">advices</text>
<text text-anchor="start" x="342.2224" y="-1055.3" font-family="Arial" font-size="14.00" fill="#000000">    </text>
<text text-anchor="start" x="376.4272" y="-1055.3" font-family="Arial" font-size="14.00" fill="#666666">[BASE TABLE]</text>
<polygon fill="none" stroke="#000000" points="260.5,-1012.5 260.5,-1042.5 490.5,-1042.5 490.5,-1012.5 260.5,-1012.5"/>
<text text-anchor="start" x="267.5" y="-1023.9" font-family="Arial" font-size="14.00" fill="#000000">id </text>
<text text-anchor="start" x="282.2798" y="-1023.9" font-family="Arial" font-size="14.00" fill="#666666">[bigint(20) unsigned]</text>
<polygon fill="none" stroke="#000000" points="260.5,-982.5 260.5,-1012.5 490.5,-1012.5 490.5,-982.5 260.5,-982.5"/>
<text text-anchor="start" x="267.5" y="-993.9" font-family="Arial" font-size="14.00" fill="#000000">author_id </text>
<text text-anchor="start" x="329.744" y="-993.9" font-family="Arial" font-size="14.00" fill="#666666">[bigint(20) unsigned]</text>
<polygon fill="none" stroke="#000000" points="260.5,-952.5 260.5,-982.5 490.5,-982.5 490.5,-952.5 260.5,-952.5"/>
<text text-anchor="start" x="267.5" y="-963.9" font-family="Arial" font-size="14.00" fill="#000000">post_title </text>
<text text-anchor="start" x="327.406" y="-963.9" font-family="Arial" font-size="14.00" fill="#666666">[varchar(255)]</text>
<polygon fill="none" stroke="#000000" points="260.5,-922.5 260.5,-952.5 490.5,-952.5 490.5,-922.5 260.5,-922.5"/>
<text text-anchor="start" x="267.5" y="-933.9" font-family="Arial" font-size="14.00" fill="#000000">post_content </text>
<text text-anchor="start" x="351.5406" y="-933.9" font-family="Arial" font-size="14.00" fill="#666666">[longtext]</text>
<polygon fill="none" stroke="#000000" points="260.5,-892.5 260.5,-922.5 490.5,-922.5 490.5,-892.5 260.5,-892.5"/>
<text text-anchor="start" x="267.5" y="-903.9" font-family="Arial" font-size="14.00" fill="#000000">post_excerpt </text>
<text text-anchor="start" x="351.528" y="-903.9" font-family="Arial" font-size="14.00" fill="#666666">[text]</text>
<polygon fill="none" stroke="#000000" points="260.5,-862.5 260.5,-892.5 490.5,-892.5 490.5,-862.5 260.5,-862.5"/>
<text text-anchor="start" x="267.5" y="-873.9" font-family="Arial" font-size="14.00" fill="#000000">cover_image </text>
<text text-anchor="start" x="351.514" y="-873.9" font-family="Arial" font-size="14.00" fill="#666666">[varchar(255)]</text>
<polygon fill="none" stroke="#000000" points="260.5,-832.5 260.5,-862.5 490.5,-862.5 490.5,-832.5 260.5,-832.5"/>
<text text-anchor="start" x="267.5" y="-843.9" font-family="Arial" font-size="14.00" fill="#000000">post_date </text>
<text text-anchor="start" x="332.8674" y="-843.9" font-family="Arial" font-size="14.00" fill="#666666">[datetime]</text>
<polygon fill="none" stroke="#000000" points="260.5,-802.5 260.5,-832.5 490.5,-832.5 490.5,-802.5 260.5,-802.5"/>
<text text-anchor="start" x="267.5" y="-813.9" font-family="Arial" font-size="14.00" fill="#000000">post_modified </text>
<text text-anchor="start" x="358.5238" y="-813.9" font-family="Arial" font-size="14.00" fill="#666666">[datetime]</text>
<polygon fill="none" stroke="#000000" points="260.5,-772.5 260.5,-802.5 490.5,-802.5 490.5,-772.5 260.5,-772.5"/>
<text text-anchor="start" x="267.5" y="-783.9" font-family="Arial" font-size="14.00" fill="#000000">post_status </text>
<text text-anchor="start" x="342.9754" y="-783.9" font-family="Arial" font-size="14.00" fill="#666666">[varchar(255)]</text>
<polygon fill="none" stroke="#000000" points="260.5,-742.5 260.5,-772.5 490.5,-772.5 490.5,-742.5 260.5,-742.5"/>
<text text-anchor="start" x="267.3577" y="-753.9" font-family="Arial" font-size="14.00" fill="#000000">advicetype_id </text>
<text text-anchor="start" x="356.8303" y="-753.9" font-family="Arial" font-size="14.00" fill="#666666">[bigint(20) unsigned]</text>
<polygon fill="none" stroke="#000000" points="260.5,-712.5 260.5,-742.5 490.5,-742.5 490.5,-712.5 260.5,-712.5"/>
<text text-anchor="start" x="267.5" y="-723.9" font-family="Arial" font-size="14.00" fill="#000000">template </text>
<text text-anchor="start" x="325.0694" y="-723.9" font-family="Arial" font-size="14.00" fill="#666666">[varchar(255)]</text>
<polygon fill="none" stroke="#000000" points="260.5,-682.5 260.5,-712.5 490.5,-712.5 490.5,-682.5 260.5,-682.5"/>
<text text-anchor="start" x="267.5" y="-693.9" font-family="Arial" font-size="14.00" fill="#000000">extra_content </text>
<text text-anchor="start" x="356.2012" y="-693.9" font-family="Arial" font-size="14.00" fill="#666666">[json]</text>
<polygon fill="none" stroke="#000000" points="260.5,-652.5 260.5,-682.5 490.5,-682.5 490.5,-652.5 260.5,-652.5"/>
<text text-anchor="start" x="267.5" y="-663.9" font-family="Arial" font-size="14.00" fill="#000000">created_at </text>
<text text-anchor="start" x="337.528" y="-663.9" font-family="Arial" font-size="14.00" fill="#666666">[timestamp]</text>
<polygon fill="none" stroke="#000000" points="260.5,-622.5 260.5,-652.5 490.5,-652.5 490.5,-622.5 260.5,-622.5"/>
<text text-anchor="start" x="267.5" y="-633.9" font-family="Arial" font-size="14.00" fill="#000000">updated_at </text>
<text text-anchor="start" x="341.4326" y="-633.9" font-family="Arial" font-size="14.00" fill="#666666">[timestamp]</text>
<polygon fill="none" stroke="#000000" stroke-width="3" points="259,-621.5 259,-1079.5 492,-1079.5 492,-621.5 259,-621.5"/>
</g>
<!-- users -->
<g id="node4" class="node">
<title>users</title>
<polygon fill="#efefef" stroke="transparent" points="75.5,-462.5 75.5,-497.5 322.5,-497.5 322.5,-462.5 75.5,-462.5"/>
<polygon fill="none" stroke="#000000" points="75.5,-462.5 75.5,-497.5 322.5,-497.5 322.5,-462.5 75.5,-462.5"/>
<text text-anchor="start" x="113.2137" y="-475.3" font-family="Arial Bold" font-size="18.00" fill="#000000">users</text>
<text text-anchor="start" x="157.2183" y="-475.3" font-family="Arial" font-size="14.00" fill="#000000">    </text>
<text text-anchor="start" x="191.4231" y="-475.3" font-family="Arial" font-size="14.00" fill="#666666">[BASE TABLE]</text>
<polygon fill="none" stroke="#000000" points="75.5,-432.5 75.5,-462.5 322.5,-462.5 322.5,-432.5 75.5,-432.5"/>
<text text-anchor="start" x="82.5" y="-443.9" font-family="Arial" font-size="14.00" fill="#000000">id    </text>
<text text-anchor="start" x="127.594" y="-443.9" font-family="Arial" font-size="14.00" fill="#666666">[bigint(20) unsigned]</text>
<polygon fill="none" stroke="#000000" points="75.5,-402.5 75.5,-432.5 322.5,-432.5 322.5,-402.5 75.5,-402.5"/>
<text text-anchor="start" x="82.5" y="-413.9" font-family="Arial" font-size="14.00" fill="#000000">full_name    </text>
<text text-anchor="start" x="177.3822" y="-413.9" font-family="Arial" font-size="14.00" fill="#666666">[varchar(255)]</text>
<polygon fill="none" stroke="#000000" points="75.5,-372.5 75.5,-402.5 322.5,-402.5 322.5,-372.5 75.5,-372.5"/>
<text text-anchor="start" x="82.5" y="-383.9" font-family="Arial" font-size="14.00" fill="#000000">display_name    </text>
<text text-anchor="start" x="203.0568" y="-383.9" font-family="Arial" font-size="14.00" fill="#666666">[varchar(255)]</text>
<polygon fill="none" stroke="#000000" points="75.5,-342.5 75.5,-372.5 322.5,-372.5 322.5,-342.5 75.5,-342.5"/>
<text text-anchor="start" x="82.5" y="-353.9" font-family="Arial" font-size="14.00" fill="#000000">email    </text>
<text text-anchor="start" x="150.1438" y="-353.9" font-family="Arial" font-size="14.00" fill="#666666">[varchar(255)]</text>
<polygon fill="none" stroke="#000000" points="75.5,-312.5 75.5,-342.5 322.5,-342.5 322.5,-312.5 75.5,-312.5"/>
<text text-anchor="start" x="82.5" y="-323.9" font-family="Arial" font-size="14.00" fill="#000000">password    </text>
<text text-anchor="start" x="176.6024" y="-323.9" font-family="Arial" font-size="14.00" fill="#666666">[varchar(255)]</text>
<polygon fill="none" stroke="#000000" points="75.5,-282.5 75.5,-312.5 322.5,-312.5 322.5,-282.5 75.5,-282.5"/>
<text text-anchor="start" x="82.5" y="-293.9" font-family="Arial" font-size="14.00" fill="#000000">status    </text>
<text text-anchor="start" x="154.0512" y="-293.9" font-family="Arial" font-size="14.00" fill="#666666">[varchar(255)]</text>
<polygon fill="none" stroke="#000000" points="75.5,-252.5 75.5,-282.5 322.5,-282.5 322.5,-252.5 75.5,-252.5"/>
<text text-anchor="start" x="82.5" y="-263.9" font-family="Arial" font-size="14.00" fill="#000000">role_id    </text>
<text text-anchor="start" x="158.709" y="-263.9" font-family="Arial" font-size="14.00" fill="#666666">[bigint(20) unsigned]</text>
<polygon fill="none" stroke="#000000" points="75.5,-222.5 75.5,-252.5 322.5,-252.5 322.5,-222.5 75.5,-222.5"/>
<text text-anchor="start" x="82.5" y="-233.9" font-family="Arial" font-size="14.00" fill="#000000">site_id    </text>
<text text-anchor="start" x="157.1564" y="-233.9" font-family="Arial" font-size="14.00" fill="#666666">[bigint(20) unsigned]</text>
<polygon fill="none" stroke="#000000" points="75.5,-192.5 75.5,-222.5 322.5,-222.5 322.5,-192.5 75.5,-192.5"/>
<text text-anchor="start" x="82.3149" y="-203.9" font-family="Arial" font-size="14.00" fill="#000000">usertype_id    </text>
<text text-anchor="start" x="188.8731" y="-203.9" font-family="Arial" font-size="14.00" fill="#666666">[bigint(20) unsigned]</text>
<polygon fill="none" stroke="#000000" points="75.5,-162.5 75.5,-192.5 322.5,-192.5 322.5,-162.5 75.5,-162.5"/>
<text text-anchor="start" x="82.5" y="-173.9" font-family="Arial" font-size="14.00" fill="#000000">remember_token    </text>
<text text-anchor="start" x="222.4986" y="-173.9" font-family="Arial" font-size="14.00" fill="#666666">[varchar(100)]</text>
<polygon fill="none" stroke="#000000" points="75.5,-132.5 75.5,-162.5 322.5,-162.5 322.5,-132.5 75.5,-132.5"/>
<text text-anchor="start" x="82.5" y="-143.9" font-family="Arial" font-size="14.00" fill="#000000">token    </text>
<text text-anchor="start" x="150.9432" y="-143.9" font-family="Arial" font-size="14.00" fill="#666666">[longtext]</text>
<polygon fill="none" stroke="#000000" points="75.5,-102.5 75.5,-132.5 322.5,-132.5 322.5,-102.5 75.5,-102.5"/>
<text text-anchor="start" x="82.5" y="-113.9" font-family="Arial" font-size="14.00" fill="#000000">isFirstTimeVisit    </text>
<text text-anchor="start" x="211.5646" y="-113.9" font-family="Arial" font-size="14.00" fill="#666666">[tinyint(1)]</text>
<polygon fill="none" stroke="#000000" points="75.5,-72.5 75.5,-102.5 322.5,-102.5 322.5,-72.5 75.5,-72.5"/>
<text text-anchor="start" x="82.5" y="-83.9" font-family="Arial" font-size="14.00" fill="#000000">created_at    </text>
<text text-anchor="start" x="182.8422" y="-83.9" font-family="Arial" font-size="14.00" fill="#666666">[timestamp]</text>
<polygon fill="none" stroke="#000000" points="75.5,-42.5 75.5,-72.5 322.5,-72.5 322.5,-42.5 75.5,-42.5"/>
<text text-anchor="start" x="82.5" y="-53.9" font-family="Arial" font-size="14.00" fill="#000000">updated_at    </text>
<text text-anchor="start" x="186.7468" y="-53.9" font-family="Arial" font-size="14.00" fill="#666666">[timestamp]</text>
</g>
<!-- advices&#45;&gt;users -->
<g id="edge3" class="edge">
<title>advices:author_id&#45;&gt;users:id</title>
<path fill="none" stroke="#000000" d="M250.385,-997.2352C77.0861,-987.9392 168.9854,-735.9605 260.5,-577 276.3979,-549.3854 306.6021,-568.6146 322.5,-541 343.2334,-504.9862 364.0556,-447.5 322.5,-447.5"/>
<polygon fill="#000000" stroke="#000000" points="250.5034,-997.2383 260.3822,-1001.9985 255.5017,-997.3691 260.5,-997.5 260.5,-997.5 260.5,-997.5 255.5017,-997.3691 260.6178,-993.0015 250.5034,-997.2383 250.5034,-997.2383"/>
<text text-anchor="start" x="18.9965" y="-1007.5" font-family="Arial" font-size="10.00" fill="#000000">FOREIGN KEY (author_id) REFERENCES users (id)</text>
</g>
<!-- advice_types -->
<g id="node5" class="node">
<title>advice_types</title>
<polygon fill="#efefef" stroke="transparent" points="426.5,-327.5 426.5,-362.5 678.5,-362.5 678.5,-327.5 426.5,-327.5"/>
<polygon fill="none" stroke="#000000" points="426.5,-327.5 426.5,-362.5 678.5,-362.5 678.5,-327.5 426.5,-327.5"/>
<text text-anchor="start" x="436.1992" y="-340.3" font-family="Arial Bold" font-size="18.00" fill="#000000">advice_types</text>
<text text-anchor="start" x="541.2328" y="-340.3" font-family="Arial" font-size="14.00" fill="#000000">    </text>
<text text-anchor="start" x="575.4376" y="-340.3" font-family="Arial" font-size="14.00" fill="#666666">[BASE TABLE]</text>
<polygon fill="none" stroke="#000000" points="426.5,-297.5 426.5,-327.5 678.5,-327.5 678.5,-297.5 426.5,-297.5"/>
<text text-anchor="start" x="433.5" y="-308.9" font-family="Arial" font-size="14.00" fill="#000000">id    </text>
<text text-anchor="start" x="478.594" y="-308.9" font-family="Arial" font-size="14.00" fill="#666666">[bigint(20) unsigned]</text>
<polygon fill="none" stroke="#000000" points="426.5,-267.5 426.5,-297.5 678.5,-297.5 678.5,-267.5 426.5,-267.5"/>
<text text-anchor="start" x="433.0961" y="-278.9" font-family="Arial" font-size="14.00" fill="#000000">advice_type_name    </text>
<text text-anchor="start" x="584.7847" y="-278.9" font-family="Arial" font-size="14.00" fill="#666666">[varchar(255)]</text>
<polygon fill="none" stroke="#000000" points="426.5,-237.5 426.5,-267.5 678.5,-267.5 678.5,-237.5 426.5,-237.5"/>
<text text-anchor="start" x="433.5" y="-248.9" font-family="Arial" font-size="14.00" fill="#000000">advice_type_value    </text>
<text text-anchor="start" x="583.6346" y="-248.9" font-family="Arial" font-size="14.00" fill="#666666">[text]</text>
<polygon fill="none" stroke="#000000" points="426.5,-207.5 426.5,-237.5 678.5,-237.5 678.5,-207.5 426.5,-207.5"/>
<text text-anchor="start" x="433.5" y="-218.9" font-family="Arial" font-size="14.00" fill="#000000">created_at    </text>
<text text-anchor="start" x="533.8422" y="-218.9" font-family="Arial" font-size="14.00" fill="#666666">[timestamp]</text>
<polygon fill="none" stroke="#000000" points="426.5,-177.5 426.5,-207.5 678.5,-207.5 678.5,-177.5 426.5,-177.5"/>
<text text-anchor="start" x="433.5" y="-188.9" font-family="Arial" font-size="14.00" fill="#000000">updated_at    </text>
<text text-anchor="start" x="537.7468" y="-188.9" font-family="Arial" font-size="14.00" fill="#666666">[timestamp]</text>
</g>
<!-- advices&#45;&gt;advice_types -->
<g id="edge4" class="edge">
<title>advices:advicetype_id&#45;&gt;advice_types:id</title>
<path fill="none" stroke="#000000" d="M500.5484,-756.5552C595.827,-737.2307 430.4276,-427.6988 426.5,-406 419.0986,-365.1089 384.9444,-312.5 426.5,-312.5"/>
<polygon fill="#000000" stroke="#000000" points="500.4561,-756.5638 490.0787,-753.0198 495.478,-757.0319 490.5,-757.5 490.5,-757.5 490.5,-757.5 495.478,-757.0319 490.9213,-761.9802 500.4561,-756.5638 500.4561,-756.5638"/>
<text text-anchor="start" x="497.3195" y="-767.5" font-family="Arial" font-size="10.00" fill="#000000">FOREIGN KEY (advicetype_id) REFERENCES advice_types (id)</text>
</g>
<!-- advice_advicetype -->
<g id="node2" class="node">
<title>advice_advicetype</title>
<polygon fill="#efefef" stroke="transparent" points="43.5,-1352.5 43.5,-1387.5 332.5,-1387.5 332.5,-1352.5 43.5,-1352.5"/>
<polygon fill="none" stroke="#000000" points="43.5,-1352.5 43.5,-1387.5 332.5,-1387.5 332.5,-1352.5 43.5,-1352.5"/>
<text text-anchor="start" x="50.1928" y="-1365.3" font-family="Arial Bold" font-size="18.00" fill="#000000">advice_advicetype</text>
<text text-anchor="start" x="198.2392" y="-1365.3" font-family="Arial" font-size="14.00" fill="#000000">    </text>
<text text-anchor="start" x="232.444" y="-1365.3" font-family="Arial" font-size="14.00" fill="#666666">[BASE TABLE]</text>
<polygon fill="none" stroke="#000000" points="43.5,-1322.5 43.5,-1352.5 332.5,-1352.5 332.5,-1322.5 43.5,-1322.5"/>
<text text-anchor="start" x="50.5" y="-1333.9" font-family="Arial" font-size="14.00" fill="#000000">advice_id    </text>
<text text-anchor="start" x="143.831" y="-1333.9" font-family="Arial" font-size="14.00" fill="#666666">[bigint(20) unsigned]</text>
<polygon fill="none" stroke="#000000" points="43.5,-1292.5 43.5,-1322.5 332.5,-1322.5 332.5,-1292.5 43.5,-1292.5"/>
<text text-anchor="start" x="50.5" y="-1303.9" font-family="Arial" font-size="14.00" fill="#000000">advicetype_id    </text>
<text text-anchor="start" x="170.2868" y="-1303.9" font-family="Arial" font-size="14.00" fill="#666666">[bigint(20) unsigned]</text>
<polygon fill="none" stroke="#000000" points="43.5,-1262.5 43.5,-1292.5 332.5,-1292.5 332.5,-1262.5 43.5,-1262.5"/>
<text text-anchor="start" x="50.5" y="-1273.9" font-family="Arial" font-size="14.00" fill="#000000">created_at    </text>
<text text-anchor="start" x="150.8422" y="-1273.9" font-family="Arial" font-size="14.00" fill="#666666">[timestamp]</text>
<polygon fill="none" stroke="#000000" points="43.5,-1232.5 43.5,-1262.5 332.5,-1262.5 332.5,-1232.5 43.5,-1232.5"/>
<text text-anchor="start" x="50.5" y="-1243.9" font-family="Arial" font-size="14.00" fill="#000000">updated_at    </text>
<text text-anchor="start" x="154.7468" y="-1243.9" font-family="Arial" font-size="14.00" fill="#666666">[timestamp]</text>
</g>
<!-- advice_advicetype&#45;&gt;advices -->
<g id="edge1" class="edge">
<title>advice_advicetype:advice_id&#45;&gt;advices:id</title>
<path fill="none" stroke="#000000" d="M342.6528,-1336.6788C393.6605,-1327.6768 357.4017,-1246.6074 332.5,-1190 315.0203,-1150.2646 277.9797,-1163.7354 260.5,-1124 243.2302,-1084.7417 217.6111,-1027.5 260.5,-1027.5"/>
<polygon fill="#000000" stroke="#000000" points="342.4674,-1336.6937 332.1372,-1333.0146 337.4837,-1337.0969 332.5,-1337.5 332.5,-1337.5 332.5,-1337.5 337.4837,-1337.0969 332.8628,-1341.9854 342.4674,-1336.6937 342.4674,-1336.6937"/>
<text text-anchor="start" x="339.996" y="-1347.5" font-family="Arial" font-size="10.00" fill="#000000">FOREIGN KEY (advice_id) REFERENCES advices (id)</text>
</g>
<!-- advice_metas -->
<g id="node3" class="node">
<title>advice_metas</title>
<polygon fill="#efefef" stroke="transparent" points="436.5,-1382.5 436.5,-1417.5 688.5,-1417.5 688.5,-1382.5 436.5,-1382.5"/>
<polygon fill="none" stroke="#000000" points="436.5,-1382.5 436.5,-1417.5 688.5,-1417.5 688.5,-1382.5 436.5,-1382.5"/>
<text text-anchor="start" x="443.2031" y="-1395.3" font-family="Arial Bold" font-size="18.00" fill="#000000">advice_metas</text>
<text text-anchor="start" x="554.2289" y="-1395.3" font-family="Arial" font-size="14.00" fill="#000000">    </text>
<text text-anchor="start" x="588.4337" y="-1395.3" font-family="Arial" font-size="14.00" fill="#666666">[BASE TABLE]</text>
<polygon fill="none" stroke="#000000" points="436.5,-1352.5 436.5,-1382.5 688.5,-1382.5 688.5,-1352.5 436.5,-1352.5"/>
<text text-anchor="start" x="443.5" y="-1363.9" font-family="Arial" font-size="14.00" fill="#000000">id    </text>
<text text-anchor="start" x="488.594" y="-1363.9" font-family="Arial" font-size="14.00" fill="#666666">[bigint(20) unsigned]</text>
<polygon fill="none" stroke="#000000" points="436.5,-1322.5 436.5,-1352.5 688.5,-1352.5 688.5,-1322.5 436.5,-1322.5"/>
<text text-anchor="start" x="443.5" y="-1333.9" font-family="Arial" font-size="14.00" fill="#000000">advice_id    </text>
<text text-anchor="start" x="536.831" y="-1333.9" font-family="Arial" font-size="14.00" fill="#666666">[bigint(20) unsigned]</text>
<polygon fill="none" stroke="#000000" points="436.5,-1292.5 436.5,-1322.5 688.5,-1322.5 688.5,-1292.5 436.5,-1292.5"/>
<text text-anchor="start" x="443.5" y="-1303.9" font-family="Arial" font-size="14.00" fill="#000000">advice_meta_key    </text>
<text text-anchor="start" x="586.6234" y="-1303.9" font-family="Arial" font-size="14.00" fill="#666666">[varchar(255)]</text>
<polygon fill="none" stroke="#000000" points="436.5,-1262.5 436.5,-1292.5 688.5,-1292.5 688.5,-1262.5 436.5,-1262.5"/>
<text text-anchor="start" x="443.5" y="-1273.9" font-family="Arial" font-size="14.00" fill="#000000">advice_meta_value    </text>
<text text-anchor="start" x="598.2952" y="-1273.9" font-family="Arial" font-size="14.00" fill="#666666">[text]</text>
<polygon fill="none" stroke="#000000" points="436.5,-1232.5 436.5,-1262.5 688.5,-1262.5 688.5,-1232.5 436.5,-1232.5"/>
<text text-anchor="start" x="443.5" y="-1243.9" font-family="Arial" font-size="14.00" fill="#000000">created_at    </text>
<text text-anchor="start" x="543.8422" y="-1243.9" font-family="Arial" font-size="14.00" fill="#666666">[timestamp]</text>
<polygon fill="none" stroke="#000000" points="436.5,-1202.5 436.5,-1232.5 688.5,-1232.5 688.5,-1202.5 436.5,-1202.5"/>
<text text-anchor="start" x="443.5" y="-1213.9" font-family="Arial" font-size="14.00" fill="#000000">updated_at    </text>
<text text-anchor="start" x="547.7468" y="-1213.9" font-family="Arial" font-size="14.00" fill="#666666">[timestamp]</text>
</g>
<!-- advice_metas&#45;&gt;advices -->
<g id="edge2" class="edge">
<title>advice_metas:advice_id&#45;&gt;advices:id</title>
<path fill="none" stroke="#000000" d="M426.188,-1336.8035C361.5074,-1327.4644 401.0205,-1226.294 436.5,-1160 450.1105,-1134.5686 476.8895,-1149.4314 490.5,-1124 510.7375,-1086.186 533.3889,-1027.5 490.5,-1027.5"/>
<polygon fill="#000000" stroke="#000000" points="426.5227,-1336.826 436.1967,-1341.9898 431.5114,-1337.163 436.5,-1337.5 436.5,-1337.5 436.5,-1337.5 431.5114,-1337.163 436.8033,-1333.0102 426.5227,-1336.826 426.5227,-1336.826"/>
<text text-anchor="start" x="443.996" y="-1321.5" font-family="Arial" font-size="10.00" fill="#000000">FOREIGN KEY (advice_id) REFERENCES advices (id)</text>
</g>
</g>
</svg>
