<?xml version="1.0" encoding="UTF-8" standalone="no"?>
<!DOCTYPE svg PUBLIC "-//W3C//DTD SVG 1.1//EN"
 "http://www.w3.org/Graphics/SVG/1.1/DTD/svg11.dtd">
<!-- Generated by graphviz version 2.40.1 (20161225.0304)
 -->
<!-- Title: advice_metas Pages: 1 -->
<svg width="566pt" height="892pt"
 viewBox="0.00 0.00 566.00 892.00" xmlns="http://www.w3.org/2000/svg" xmlns:xlink="http://www.w3.org/1999/xlink">
<g id="graph0" class="graph" transform="scale(1 1) rotate(0) translate(4 888)">
<title>advice_metas</title>
<polygon fill="#ffffff" stroke="transparent" points="-4,4 -4,-888 562,-888 562,4 -4,4"/>
<!-- advice_metas -->
<g id="node1" class="node">
<title>advice_metas</title>
<polygon fill="#efefef" stroke="transparent" points="47,-802.5 47,-837.5 299,-837.5 299,-802.5 47,-802.5"/>
<polygon fill="none" stroke="#000000" points="47,-802.5 47,-837.5 299,-837.5 299,-802.5 47,-802.5"/>
<text text-anchor="start" x="53.7031" y="-815.3" font-family="Arial Bold" font-size="18.00" fill="#000000">advice_metas</text>
<text text-anchor="start" x="164.7289" y="-815.3" font-family="Arial" font-size="14.00" fill="#000000">    </text>
<text text-anchor="start" x="198.9337" y="-815.3" font-family="Arial" font-size="14.00" fill="#666666">[BASE TABLE]</text>
<polygon fill="none" stroke="#000000" points="47,-772.5 47,-802.5 299,-802.5 299,-772.5 47,-772.5"/>
<text text-anchor="start" x="54" y="-783.9" font-family="Arial" font-size="14.00" fill="#000000">id </text>
<text text-anchor="start" x="68.7798" y="-783.9" font-family="Arial" font-size="14.00" fill="#666666">[bigint(20) unsigned]</text>
<polygon fill="none" stroke="#000000" points="47,-742.5 47,-772.5 299,-772.5 299,-742.5 47,-742.5"/>
<text text-anchor="start" x="54" y="-753.9" font-family="Arial" font-size="14.00" fill="#000000">advice_id </text>
<text text-anchor="start" x="117.0168" y="-753.9" font-family="Arial" font-size="14.00" fill="#666666">[bigint(20) unsigned]</text>
<polygon fill="none" stroke="#000000" points="47,-712.5 47,-742.5 299,-742.5 299,-712.5 47,-712.5"/>
<text text-anchor="start" x="54" y="-723.9" font-family="Arial" font-size="14.00" fill="#000000">advice_meta_key </text>
<text text-anchor="start" x="166.8092" y="-723.9" font-family="Arial" font-size="14.00" fill="#666666">[varchar(255)]</text>
<polygon fill="none" stroke="#000000" points="47,-682.5 47,-712.5 299,-712.5 299,-682.5 47,-682.5"/>
<text text-anchor="start" x="54" y="-693.9" font-family="Arial" font-size="14.00" fill="#000000">advice_meta_value </text>
<text text-anchor="start" x="178.481" y="-693.9" font-family="Arial" font-size="14.00" fill="#666666">[text]</text>
<polygon fill="none" stroke="#000000" points="47,-652.5 47,-682.5 299,-682.5 299,-652.5 47,-652.5"/>
<text text-anchor="start" x="54" y="-663.9" font-family="Arial" font-size="14.00" fill="#000000">created_at </text>
<text text-anchor="start" x="124.028" y="-663.9" font-family="Arial" font-size="14.00" fill="#666666">[timestamp]</text>
<polygon fill="none" stroke="#000000" points="47,-622.5 47,-652.5 299,-652.5 299,-622.5 47,-622.5"/>
<text text-anchor="start" x="54" y="-633.9" font-family="Arial" font-size="14.00" fill="#000000">updated_at </text>
<text text-anchor="start" x="127.9326" y="-633.9" font-family="Arial" font-size="14.00" fill="#666666">[timestamp]</text>
<polygon fill="none" stroke="#000000" stroke-width="3" points="45.5,-621.5 45.5,-839.5 300.5,-839.5 300.5,-621.5 45.5,-621.5"/>
</g>
<!-- advices -->
<g id="node2" class="node">
<title>advices</title>
<polygon fill="#efefef" stroke="transparent" points="43,-462.5 43,-497.5 303,-497.5 303,-462.5 43,-462.5"/>
<polygon fill="none" stroke="#000000" points="43,-462.5 43,-497.5 303,-497.5 303,-462.5 43,-462.5"/>
<text text-anchor="start" x="78.7096" y="-475.3" font-family="Arial Bold" font-size="18.00" fill="#000000">advices</text>
<text text-anchor="start" x="139.7224" y="-475.3" font-family="Arial" font-size="14.00" fill="#000000">    </text>
<text text-anchor="start" x="173.9272" y="-475.3" font-family="Arial" font-size="14.00" fill="#666666">[BASE TABLE]</text>
<polygon fill="none" stroke="#000000" points="43,-432.5 43,-462.5 303,-462.5 303,-432.5 43,-432.5"/>
<text text-anchor="start" x="50" y="-443.9" font-family="Arial" font-size="14.00" fill="#000000">id    </text>
<text text-anchor="start" x="95.094" y="-443.9" font-family="Arial" font-size="14.00" fill="#666666">[bigint(20) unsigned]</text>
<polygon fill="none" stroke="#000000" points="43,-402.5 43,-432.5 303,-432.5 303,-402.5 43,-402.5"/>
<text text-anchor="start" x="50" y="-413.9" font-family="Arial" font-size="14.00" fill="#000000">author_id    </text>
<text text-anchor="start" x="142.5582" y="-413.9" font-family="Arial" font-size="14.00" fill="#666666">[bigint(20) unsigned]</text>
<polygon fill="none" stroke="#000000" points="43,-372.5 43,-402.5 303,-402.5 303,-372.5 43,-372.5"/>
<text text-anchor="start" x="50" y="-383.9" font-family="Arial" font-size="14.00" fill="#000000">post_title    </text>
<text text-anchor="start" x="140.2202" y="-383.9" font-family="Arial" font-size="14.00" fill="#666666">[varchar(255)]</text>
<polygon fill="none" stroke="#000000" points="43,-342.5 43,-372.5 303,-372.5 303,-342.5 43,-342.5"/>
<text text-anchor="start" x="50" y="-353.9" font-family="Arial" font-size="14.00" fill="#000000">post_content    </text>
<text text-anchor="start" x="164.3548" y="-353.9" font-family="Arial" font-size="14.00" fill="#666666">[longtext]</text>
<polygon fill="none" stroke="#000000" points="43,-312.5 43,-342.5 303,-342.5 303,-312.5 43,-312.5"/>
<text text-anchor="start" x="50" y="-323.9" font-family="Arial" font-size="14.00" fill="#000000">post_excerpt    </text>
<text text-anchor="start" x="164.3422" y="-323.9" font-family="Arial" font-size="14.00" fill="#666666">[text]</text>
<polygon fill="none" stroke="#000000" points="43,-282.5 43,-312.5 303,-312.5 303,-282.5 43,-282.5"/>
<text text-anchor="start" x="50" y="-293.9" font-family="Arial" font-size="14.00" fill="#000000">cover_image    </text>
<text text-anchor="start" x="164.3282" y="-293.9" font-family="Arial" font-size="14.00" fill="#666666">[varchar(255)]</text>
<polygon fill="none" stroke="#000000" points="43,-252.5 43,-282.5 303,-282.5 303,-252.5 43,-252.5"/>
<text text-anchor="start" x="50" y="-263.9" font-family="Arial" font-size="14.00" fill="#000000">post_date    </text>
<text text-anchor="start" x="145.6816" y="-263.9" font-family="Arial" font-size="14.00" fill="#666666">[datetime]</text>
<polygon fill="none" stroke="#000000" points="43,-222.5 43,-252.5 303,-252.5 303,-222.5 43,-222.5"/>
<text text-anchor="start" x="50" y="-233.9" font-family="Arial" font-size="14.00" fill="#000000">post_modified    </text>
<text text-anchor="start" x="171.338" y="-233.9" font-family="Arial" font-size="14.00" fill="#666666">[datetime]</text>
<polygon fill="none" stroke="#000000" points="43,-192.5 43,-222.5 303,-222.5 303,-192.5 43,-192.5"/>
<text text-anchor="start" x="50" y="-203.9" font-family="Arial" font-size="14.00" fill="#000000">post_status    </text>
<text text-anchor="start" x="155.7896" y="-203.9" font-family="Arial" font-size="14.00" fill="#666666">[varchar(255)]</text>
<polygon fill="none" stroke="#000000" points="43,-162.5 43,-192.5 303,-192.5 303,-162.5 43,-162.5"/>
<text text-anchor="start" x="49.7006" y="-173.9" font-family="Arial" font-size="14.00" fill="#000000">advicetype_id    </text>
<text text-anchor="start" x="169.4874" y="-173.9" font-family="Arial" font-size="14.00" fill="#666666">[bigint(20) unsigned]</text>
<polygon fill="none" stroke="#000000" points="43,-132.5 43,-162.5 303,-162.5 303,-132.5 43,-132.5"/>
<text text-anchor="start" x="50" y="-143.9" font-family="Arial" font-size="14.00" fill="#000000">template    </text>
<text text-anchor="start" x="137.8836" y="-143.9" font-family="Arial" font-size="14.00" fill="#666666">[varchar(255)]</text>
<polygon fill="none" stroke="#000000" points="43,-102.5 43,-132.5 303,-132.5 303,-102.5 43,-102.5"/>
<text text-anchor="start" x="50" y="-113.9" font-family="Arial" font-size="14.00" fill="#000000">extra_content    </text>
<text text-anchor="start" x="169.0154" y="-113.9" font-family="Arial" font-size="14.00" fill="#666666">[json]</text>
<polygon fill="none" stroke="#000000" points="43,-72.5 43,-102.5 303,-102.5 303,-72.5 43,-72.5"/>
<text text-anchor="start" x="50" y="-83.9" font-family="Arial" font-size="14.00" fill="#000000">created_at    </text>
<text text-anchor="start" x="150.3422" y="-83.9" font-family="Arial" font-size="14.00" fill="#666666">[timestamp]</text>
<polygon fill="none" stroke="#000000" points="43,-42.5 43,-72.5 303,-72.5 303,-42.5 43,-42.5"/>
<text text-anchor="start" x="50" y="-53.9" font-family="Arial" font-size="14.00" fill="#000000">updated_at    </text>
<text text-anchor="start" x="154.2468" y="-53.9" font-family="Arial" font-size="14.00" fill="#666666">[timestamp]</text>
</g>
<!-- advice_metas&#45;&gt;advices -->
<g id="edge1" class="edge">
<title>advice_metas:advice_id&#45;&gt;advices:id</title>
<path fill="none" stroke="#000000" d="M308.9926,-755.183C368.1129,-726.815 368.3961,-447.5 303,-447.5"/>
<polygon fill="#000000" stroke="#000000" points="308.7415,-755.2411 297.9835,-753.1163 303.8708,-756.3705 299,-757.5 299,-757.5 299,-757.5 303.8708,-756.3705 300.0165,-761.8837 308.7415,-755.2411 308.7415,-755.2411"/>
<text text-anchor="start" x="306.496" y="-767.5" font-family="Arial" font-size="10.00" fill="#000000">FOREIGN KEY (advice_id) REFERENCES advices (id)</text>
</g>
</g>
</svg>
