<?xml version="1.0" encoding="UTF-8" standalone="no"?>
<!DOCTYPE svg PUBLIC "-//W3C//DTD SVG 1.1//EN"
 "http://www.w3.org/Graphics/SVG/1.1/DTD/svg11.dtd">
<!-- Generated by graphviz version 2.40.1 (20161225.0304)
 -->
<!-- Title: attendees Pages: 1 -->
<svg width="789pt" height="1012pt"
 viewBox="0.00 0.00 789.00 1012.00" xmlns="http://www.w3.org/2000/svg" xmlns:xlink="http://www.w3.org/1999/xlink">
<g id="graph0" class="graph" transform="scale(1 1) rotate(0) translate(4 1008)">
<title>attendees</title>
<polygon fill="#ffffff" stroke="transparent" points="-4,4 -4,-1008 785,-1008 785,4 -4,4"/>
<!-- attendees -->
<g id="node1" class="node">
<title>attendees</title>
<polygon fill="#efefef" stroke="transparent" points="250,-922.5 250,-957.5 470,-957.5 470,-922.5 250,-922.5"/>
<polygon fill="none" stroke="#000000" points="250,-922.5 250,-957.5 470,-957.5 470,-922.5 250,-922.5"/>
<text text-anchor="start" x="256.6952" y="-935.3" font-family="Arial Bold" font-size="18.00" fill="#000000">attendees</text>
<text text-anchor="start" x="335.7368" y="-935.3" font-family="Arial" font-size="14.00" fill="#000000">    </text>
<text text-anchor="start" x="369.9416" y="-935.3" font-family="Arial" font-size="14.00" fill="#666666">[BASE TABLE]</text>
<polygon fill="none" stroke="#000000" points="250,-892.5 250,-922.5 470,-922.5 470,-892.5 250,-892.5"/>
<text text-anchor="start" x="257" y="-903.9" font-family="Arial" font-size="14.00" fill="#000000">id </text>
<text text-anchor="start" x="271.7798" y="-903.9" font-family="Arial" font-size="14.00" fill="#666666">[bigint(20) unsigned]</text>
<polygon fill="none" stroke="#000000" points="250,-862.5 250,-892.5 470,-892.5 470,-862.5 250,-862.5"/>
<text text-anchor="start" x="257" y="-873.9" font-family="Arial" font-size="14.00" fill="#000000">event_id </text>
<text text-anchor="start" x="313.8008" y="-873.9" font-family="Arial" font-size="14.00" fill="#666666">[bigint(20) unsigned]</text>
<polygon fill="none" stroke="#000000" points="250,-832.5 250,-862.5 470,-862.5 470,-832.5 250,-832.5"/>
<text text-anchor="start" x="257" y="-843.9" font-family="Arial" font-size="14.00" fill="#000000">attendees_list </text>
<text text-anchor="start" x="347.2538" y="-843.9" font-family="Arial" font-size="14.00" fill="#666666">[longtext]</text>
<polygon fill="none" stroke="#000000" points="250,-802.5 250,-832.5 470,-832.5 470,-802.5 250,-802.5"/>
<text text-anchor="start" x="257" y="-813.9" font-family="Arial" font-size="14.00" fill="#000000">attendees_type </text>
<text text-anchor="start" x="356.6058" y="-813.9" font-family="Arial" font-size="14.00" fill="#666666">[text]</text>
<polygon fill="none" stroke="#000000" points="250,-772.5 250,-802.5 470,-802.5 470,-772.5 250,-772.5"/>
<text text-anchor="start" x="257" y="-783.9" font-family="Arial" font-size="14.00" fill="#000000">created_at </text>
<text text-anchor="start" x="327.028" y="-783.9" font-family="Arial" font-size="14.00" fill="#666666">[timestamp]</text>
<polygon fill="none" stroke="#000000" points="250,-742.5 250,-772.5 470,-772.5 470,-742.5 250,-742.5"/>
<text text-anchor="start" x="257" y="-753.9" font-family="Arial" font-size="14.00" fill="#000000">updated_at </text>
<text text-anchor="start" x="330.9326" y="-753.9" font-family="Arial" font-size="14.00" fill="#666666">[timestamp]</text>
<polygon fill="none" stroke="#000000" stroke-width="3" points="248.5,-741.5 248.5,-959.5 471.5,-959.5 471.5,-741.5 248.5,-741.5"/>
</g>
<!-- events -->
<g id="node2" class="node">
<title>events</title>
<polygon fill="#efefef" stroke="transparent" points="222,-582.5 222,-617.5 497,-617.5 497,-582.5 222,-582.5"/>
<polygon fill="none" stroke="#000000" points="222,-582.5 222,-617.5 497,-617.5 497,-582.5 222,-582.5"/>
<text text-anchor="start" x="269.2056" y="-595.3" font-family="Arial Bold" font-size="18.00" fill="#000000">events</text>
<text text-anchor="start" x="322.2264" y="-595.3" font-family="Arial" font-size="14.00" fill="#000000">    </text>
<text text-anchor="start" x="356.4312" y="-595.3" font-family="Arial" font-size="14.00" fill="#666666">[BASE TABLE]</text>
<polygon fill="none" stroke="#000000" points="222,-552.5 222,-582.5 497,-582.5 497,-552.5 222,-552.5"/>
<text text-anchor="start" x="229" y="-563.9" font-family="Arial" font-size="14.00" fill="#000000">id    </text>
<text text-anchor="start" x="274.094" y="-563.9" font-family="Arial" font-size="14.00" fill="#666666">[bigint(20) unsigned]</text>
<polygon fill="none" stroke="#000000" points="222,-522.5 222,-552.5 497,-552.5 497,-522.5 222,-522.5"/>
<text text-anchor="start" x="229" y="-533.9" font-family="Arial" font-size="14.00" fill="#000000">author_id    </text>
<text text-anchor="start" x="321.5582" y="-533.9" font-family="Arial" font-size="14.00" fill="#666666">[bigint(20) unsigned]</text>
<polygon fill="none" stroke="#000000" points="222,-492.5 222,-522.5 497,-522.5 497,-492.5 222,-492.5"/>
<text text-anchor="start" x="229" y="-503.9" font-family="Arial" font-size="14.00" fill="#000000">event_title    </text>
<text text-anchor="start" x="327.0028" y="-503.9" font-family="Arial" font-size="14.00" fill="#666666">[varchar(255)]</text>
<polygon fill="none" stroke="#000000" points="222,-462.5 222,-492.5 497,-492.5 497,-462.5 222,-462.5"/>
<text text-anchor="start" x="229" y="-473.9" font-family="Arial" font-size="14.00" fill="#000000">event_content    </text>
<text text-anchor="start" x="351.1374" y="-473.9" font-family="Arial" font-size="14.00" fill="#666666">[longtext]</text>
<polygon fill="none" stroke="#000000" points="222,-432.5 222,-462.5 497,-462.5 497,-432.5 222,-432.5"/>
<text text-anchor="start" x="229" y="-443.9" font-family="Arial" font-size="14.00" fill="#000000">event_excerpt    </text>
<text text-anchor="start" x="351.1248" y="-443.9" font-family="Arial" font-size="14.00" fill="#666666">[text]</text>
<polygon fill="none" stroke="#000000" points="222,-402.5 222,-432.5 497,-432.5 497,-402.5 222,-402.5"/>
<text text-anchor="start" x="229" y="-413.9" font-family="Arial" font-size="14.00" fill="#000000">event_location    </text>
<text text-anchor="start" x="353.46" y="-413.9" font-family="Arial" font-size="14.00" fill="#666666">[longtext]</text>
<polygon fill="none" stroke="#000000" points="222,-372.5 222,-402.5 497,-402.5 497,-372.5 222,-372.5"/>
<text text-anchor="start" x="229" y="-383.9" font-family="Arial" font-size="14.00" fill="#000000">cover_image    </text>
<text text-anchor="start" x="343.3282" y="-383.9" font-family="Arial" font-size="14.00" fill="#666666">[varchar(255)]</text>
<polygon fill="none" stroke="#000000" points="222,-342.5 222,-372.5 497,-372.5 497,-342.5 222,-342.5"/>
<text text-anchor="start" x="229" y="-353.9" font-family="Arial" font-size="14.00" fill="#000000">start_date    </text>
<text text-anchor="start" x="325.4502" y="-353.9" font-family="Arial" font-size="14.00" fill="#666666">[datetime]</text>
<polygon fill="none" stroke="#000000" points="222,-312.5 222,-342.5 497,-342.5 497,-312.5 222,-312.5"/>
<text text-anchor="start" x="229" y="-323.9" font-family="Arial" font-size="14.00" fill="#000000">end_date    </text>
<text text-anchor="start" x="321.5736" y="-323.9" font-family="Arial" font-size="14.00" fill="#666666">[datetime]</text>
<polygon fill="none" stroke="#000000" points="222,-282.5 222,-312.5 497,-312.5 497,-282.5 222,-282.5"/>
<text text-anchor="start" x="229" y="-293.9" font-family="Arial" font-size="14.00" fill="#000000">event_status    </text>
<text text-anchor="start" x="342.5722" y="-293.9" font-family="Arial" font-size="14.00" fill="#666666">[varchar(255)]</text>
<polygon fill="none" stroke="#000000" points="222,-252.5 222,-282.5 497,-282.5 497,-252.5 222,-252.5"/>
<text text-anchor="start" x="229" y="-263.9" font-family="Arial" font-size="14.00" fill="#000000">eventtype_id    </text>
<text text-anchor="start" x="342.5708" y="-263.9" font-family="Arial" font-size="14.00" fill="#666666">[bigint(20) unsigned]</text>
<polygon fill="none" stroke="#000000" points="222,-222.5 222,-252.5 497,-252.5 497,-222.5 222,-222.5"/>
<text text-anchor="start" x="228.8114" y="-233.9" font-family="Arial" font-size="14.00" fill="#000000">event_format_id    </text>
<text text-anchor="start" x="363.3766" y="-233.9" font-family="Arial" font-size="14.00" fill="#666666">[bigint(20) unsigned]</text>
<polygon fill="none" stroke="#000000" points="222,-192.5 222,-222.5 497,-222.5 497,-192.5 222,-192.5"/>
<text text-anchor="start" x="229" y="-203.9" font-family="Arial" font-size="14.00" fill="#000000">attendees_id    </text>
<text text-anchor="start" x="343.3534" y="-203.9" font-family="Arial" font-size="14.00" fill="#666666">[bigint(20) unsigned]</text>
<polygon fill="none" stroke="#000000" points="222,-162.5 222,-192.5 497,-192.5 497,-162.5 222,-162.5"/>
<text text-anchor="start" x="229" y="-173.9" font-family="Arial" font-size="14.00" fill="#000000">location_id    </text>
<text text-anchor="start" x="330.1108" y="-173.9" font-family="Arial" font-size="14.00" fill="#666666">[bigint(20) unsigned]</text>
<polygon fill="none" stroke="#000000" points="222,-132.5 222,-162.5 497,-162.5 497,-132.5 222,-132.5"/>
<text text-anchor="start" x="229" y="-143.9" font-family="Arial" font-size="14.00" fill="#000000">capacity_id    </text>
<text text-anchor="start" x="333.2216" y="-143.9" font-family="Arial" font-size="14.00" fill="#666666">[bigint(20) unsigned]</text>
<polygon fill="none" stroke="#000000" points="222,-102.5 222,-132.5 497,-132.5 497,-102.5 222,-102.5"/>
<text text-anchor="start" x="229" y="-113.9" font-family="Arial" font-size="14.00" fill="#000000">extra_content    </text>
<text text-anchor="start" x="348.0154" y="-113.9" font-family="Arial" font-size="14.00" fill="#666666">[json]</text>
<polygon fill="none" stroke="#000000" points="222,-72.5 222,-102.5 497,-102.5 497,-72.5 222,-72.5"/>
<text text-anchor="start" x="229" y="-83.9" font-family="Arial" font-size="14.00" fill="#000000">created_at    </text>
<text text-anchor="start" x="329.3422" y="-83.9" font-family="Arial" font-size="14.00" fill="#666666">[timestamp]</text>
<polygon fill="none" stroke="#000000" points="222,-42.5 222,-72.5 497,-72.5 497,-42.5 222,-42.5"/>
<text text-anchor="start" x="229" y="-53.9" font-family="Arial" font-size="14.00" fill="#000000">updated_at    </text>
<text text-anchor="start" x="333.2468" y="-53.9" font-family="Arial" font-size="14.00" fill="#666666">[timestamp]</text>
</g>
<!-- attendees&#45;&gt;events -->
<g id="edge2" class="edge">
<title>attendees:event_id&#45;&gt;events:id</title>
<path fill="none" stroke="#000000" d="M239.8349,-876.7908C172.3205,-866.8541 199.8815,-754.9528 250,-697 322.5678,-613.0888 424.4322,-744.9112 497,-661 524.1828,-629.5682 538.5556,-567.5 497,-567.5"/>
<polygon fill="#000000" stroke="#000000" points="240.0242,-876.804 249.6868,-881.9891 245.0121,-877.152 250,-877.5 250,-877.5 250,-877.5 245.0121,-877.152 250.3132,-873.0109 240.0242,-876.804 240.0242,-876.804"/>
<text text-anchor="start" x="6.936" y="-887.5" font-family="Arial" font-size="10.00" fill="#000000">FOREIGN KEY (event_id) REFERENCES events (id)</text>
</g>
<!-- events&#45;&gt;attendees -->
<g id="edge1" class="edge">
<title>events:attendees_id&#45;&gt;attendees:id</title>
<path fill="none" stroke="#000000" d="M505.912,-212.4646C545.0778,-259.4787 527.8365,-625.3433 497,-661 424.4322,-744.9112 322.5678,-613.0888 250,-697 188.8024,-767.7637 156.4444,-907.5 250,-907.5"/>
<polygon fill="#000000" stroke="#000000" points="505.736,-212.3666 499.19,-203.5688 501.368,-209.9333 497,-207.5 497,-207.5 497,-207.5 501.368,-209.9333 494.81,-211.4312 505.736,-212.3666 505.736,-212.3666"/>
<text text-anchor="start" x="503.98" y="-217.5" font-family="Arial" font-size="10.00" fill="#000000">FOREIGN KEY (attendees_id) REFERENCES attendees (id)</text>
</g>
</g>
</svg>
