<?xml version="1.0" encoding="UTF-8" standalone="no"?>
<!DOCTYPE svg PUBLIC "-//W3C//DTD SVG 1.1//EN"
 "http://www.w3.org/Graphics/SVG/1.1/DTD/svg11.dtd">
<!-- Generated by graphviz version 2.40.1 (20161225.0304)
 -->
<!-- Title: auto_saves Pages: 1 -->
<svg width="531pt" height="1012pt"
 viewBox="0.00 0.00 530.50 1012.00" xmlns="http://www.w3.org/2000/svg" xmlns:xlink="http://www.w3.org/1999/xlink">
<g id="graph0" class="graph" transform="scale(1 1) rotate(0) translate(4 1008)">
<title>auto_saves</title>
<polygon fill="#ffffff" stroke="transparent" points="-4,4 -4,-1008 526.5,-1008 526.5,4 -4,4"/>
<!-- auto_saves -->
<g id="node1" class="node">
<title>auto_saves</title>
<polygon fill="#efefef" stroke="transparent" points="240,-922.5 240,-957.5 473,-957.5 473,-922.5 240,-922.5"/>
<polygon fill="none" stroke="#000000" points="240,-922.5 240,-957.5 473,-957.5 473,-922.5 240,-922.5"/>
<text text-anchor="start" x="246.6963" y="-935.3" font-family="Arial Bold" font-size="18.00" fill="#000000">auto_saves</text>
<text text-anchor="start" x="338.7357" y="-935.3" font-family="Arial" font-size="14.00" fill="#000000">    </text>
<text text-anchor="start" x="372.9405" y="-935.3" font-family="Arial" font-size="14.00" fill="#666666">[BASE TABLE]</text>
<polygon fill="none" stroke="#000000" points="240,-892.5 240,-922.5 473,-922.5 473,-892.5 240,-892.5"/>
<text text-anchor="start" x="247" y="-903.9" font-family="Arial" font-size="14.00" fill="#000000">id </text>
<text text-anchor="start" x="261.7798" y="-903.9" font-family="Arial" font-size="14.00" fill="#666666">[bigint(20) unsigned]</text>
<polygon fill="none" stroke="#000000" points="240,-862.5 240,-892.5 473,-892.5 473,-862.5 240,-862.5"/>
<text text-anchor="start" x="247" y="-873.9" font-family="Arial" font-size="14.00" fill="#000000">post_id </text>
<text text-anchor="start" x="296.0182" y="-873.9" font-family="Arial" font-size="14.00" fill="#666666">[bigint(20) unsigned]</text>
<polygon fill="none" stroke="#000000" points="240,-832.5 240,-862.5 473,-862.5 473,-832.5 240,-832.5"/>
<text text-anchor="start" x="247" y="-843.9" font-family="Arial" font-size="14.00" fill="#000000">user_id </text>
<text text-anchor="start" x="296.7882" y="-843.9" font-family="Arial" font-size="14.00" fill="#666666">[bigint(20) unsigned]</text>
<polygon fill="none" stroke="#000000" points="240,-802.5 240,-832.5 473,-832.5 473,-802.5 240,-802.5"/>
<text text-anchor="start" x="247" y="-813.9" font-family="Arial" font-size="14.00" fill="#000000">post_type </text>
<text text-anchor="start" x="311.5848" y="-813.9" font-family="Arial" font-size="14.00" fill="#666666">[varchar(255)]</text>
<polygon fill="none" stroke="#000000" points="240,-772.5 240,-802.5 473,-802.5 473,-772.5 240,-772.5"/>
<text text-anchor="start" x="247" y="-783.9" font-family="Arial" font-size="14.00" fill="#000000">status </text>
<text text-anchor="start" x="288.237" y="-783.9" font-family="Arial" font-size="14.00" fill="#666666">[varchar(255)]</text>
<polygon fill="none" stroke="#000000" points="240,-742.5 240,-772.5 473,-772.5 473,-742.5 240,-742.5"/>
<text text-anchor="start" x="247" y="-753.9" font-family="Arial" font-size="14.00" fill="#000000">content </text>
<text text-anchor="start" x="296.8022" y="-753.9" font-family="Arial" font-size="14.00" fill="#666666">[longtext]</text>
<polygon fill="none" stroke="#000000" points="240,-712.5 240,-742.5 473,-742.5 473,-712.5 240,-712.5"/>
<text text-anchor="start" x="247" y="-723.9" font-family="Arial" font-size="14.00" fill="#000000">exp_date </text>
<text text-anchor="start" x="308.4768" y="-723.9" font-family="Arial" font-size="14.00" fill="#666666">[timestamp]</text>
<polygon fill="none" stroke="#000000" points="240,-682.5 240,-712.5 473,-712.5 473,-682.5 240,-682.5"/>
<text text-anchor="start" x="247" y="-693.9" font-family="Arial" font-size="14.00" fill="#000000">is_active </text>
<text text-anchor="start" x="305.3422" y="-693.9" font-family="Arial" font-size="14.00" fill="#666666">[tinyint(1)]</text>
<polygon fill="none" stroke="#000000" points="240,-652.5 240,-682.5 473,-682.5 473,-652.5 240,-652.5"/>
<text text-anchor="start" x="247" y="-663.9" font-family="Arial" font-size="14.00" fill="#000000">created_at </text>
<text text-anchor="start" x="317.028" y="-663.9" font-family="Arial" font-size="14.00" fill="#666666">[timestamp]</text>
<polygon fill="none" stroke="#000000" points="240,-622.5 240,-652.5 473,-652.5 473,-622.5 240,-622.5"/>
<text text-anchor="start" x="247" y="-633.9" font-family="Arial" font-size="14.00" fill="#000000">updated_at </text>
<text text-anchor="start" x="320.9326" y="-633.9" font-family="Arial" font-size="14.00" fill="#666666">[timestamp]</text>
<polygon fill="none" stroke="#000000" stroke-width="3" points="238,-621.5 238,-959.5 474,-959.5 474,-621.5 238,-621.5"/>
</g>
<!-- users -->
<g id="node2" class="node">
<title>users</title>
<polygon fill="#efefef" stroke="transparent" points="233,-462.5 233,-497.5 480,-497.5 480,-462.5 233,-462.5"/>
<polygon fill="none" stroke="#000000" points="233,-462.5 233,-497.5 480,-497.5 480,-462.5 233,-462.5"/>
<text text-anchor="start" x="270.7137" y="-475.3" font-family="Arial Bold" font-size="18.00" fill="#000000">users</text>
<text text-anchor="start" x="314.7183" y="-475.3" font-family="Arial" font-size="14.00" fill="#000000">    </text>
<text text-anchor="start" x="348.9231" y="-475.3" font-family="Arial" font-size="14.00" fill="#666666">[BASE TABLE]</text>
<polygon fill="none" stroke="#000000" points="233,-432.5 233,-462.5 480,-462.5 480,-432.5 233,-432.5"/>
<text text-anchor="start" x="240" y="-443.9" font-family="Arial" font-size="14.00" fill="#000000">id    </text>
<text text-anchor="start" x="285.094" y="-443.9" font-family="Arial" font-size="14.00" fill="#666666">[bigint(20) unsigned]</text>
<polygon fill="none" stroke="#000000" points="233,-402.5 233,-432.5 480,-432.5 480,-402.5 233,-402.5"/>
<text text-anchor="start" x="240" y="-413.9" font-family="Arial" font-size="14.00" fill="#000000">full_name    </text>
<text text-anchor="start" x="334.8822" y="-413.9" font-family="Arial" font-size="14.00" fill="#666666">[varchar(255)]</text>
<polygon fill="none" stroke="#000000" points="233,-372.5 233,-402.5 480,-402.5 480,-372.5 233,-372.5"/>
<text text-anchor="start" x="240" y="-383.9" font-family="Arial" font-size="14.00" fill="#000000">display_name    </text>
<text text-anchor="start" x="360.5568" y="-383.9" font-family="Arial" font-size="14.00" fill="#666666">[varchar(255)]</text>
<polygon fill="none" stroke="#000000" points="233,-342.5 233,-372.5 480,-372.5 480,-342.5 233,-342.5"/>
<text text-anchor="start" x="240" y="-353.9" font-family="Arial" font-size="14.00" fill="#000000">email    </text>
<text text-anchor="start" x="307.6438" y="-353.9" font-family="Arial" font-size="14.00" fill="#666666">[varchar(255)]</text>
<polygon fill="none" stroke="#000000" points="233,-312.5 233,-342.5 480,-342.5 480,-312.5 233,-312.5"/>
<text text-anchor="start" x="240" y="-323.9" font-family="Arial" font-size="14.00" fill="#000000">password    </text>
<text text-anchor="start" x="334.1024" y="-323.9" font-family="Arial" font-size="14.00" fill="#666666">[varchar(255)]</text>
<polygon fill="none" stroke="#000000" points="233,-282.5 233,-312.5 480,-312.5 480,-282.5 233,-282.5"/>
<text text-anchor="start" x="240" y="-293.9" font-family="Arial" font-size="14.00" fill="#000000">status    </text>
<text text-anchor="start" x="311.5512" y="-293.9" font-family="Arial" font-size="14.00" fill="#666666">[varchar(255)]</text>
<polygon fill="none" stroke="#000000" points="233,-252.5 233,-282.5 480,-282.5 480,-252.5 233,-252.5"/>
<text text-anchor="start" x="240" y="-263.9" font-family="Arial" font-size="14.00" fill="#000000">role_id    </text>
<text text-anchor="start" x="316.209" y="-263.9" font-family="Arial" font-size="14.00" fill="#666666">[bigint(20) unsigned]</text>
<polygon fill="none" stroke="#000000" points="233,-222.5 233,-252.5 480,-252.5 480,-222.5 233,-222.5"/>
<text text-anchor="start" x="240" y="-233.9" font-family="Arial" font-size="14.00" fill="#000000">site_id    </text>
<text text-anchor="start" x="314.6564" y="-233.9" font-family="Arial" font-size="14.00" fill="#666666">[bigint(20) unsigned]</text>
<polygon fill="none" stroke="#000000" points="233,-192.5 233,-222.5 480,-222.5 480,-192.5 233,-192.5"/>
<text text-anchor="start" x="239.8149" y="-203.9" font-family="Arial" font-size="14.00" fill="#000000">usertype_id    </text>
<text text-anchor="start" x="346.3731" y="-203.9" font-family="Arial" font-size="14.00" fill="#666666">[bigint(20) unsigned]</text>
<polygon fill="none" stroke="#000000" points="233,-162.5 233,-192.5 480,-192.5 480,-162.5 233,-162.5"/>
<text text-anchor="start" x="240" y="-173.9" font-family="Arial" font-size="14.00" fill="#000000">remember_token    </text>
<text text-anchor="start" x="379.9986" y="-173.9" font-family="Arial" font-size="14.00" fill="#666666">[varchar(100)]</text>
<polygon fill="none" stroke="#000000" points="233,-132.5 233,-162.5 480,-162.5 480,-132.5 233,-132.5"/>
<text text-anchor="start" x="240" y="-143.9" font-family="Arial" font-size="14.00" fill="#000000">token    </text>
<text text-anchor="start" x="308.4432" y="-143.9" font-family="Arial" font-size="14.00" fill="#666666">[longtext]</text>
<polygon fill="none" stroke="#000000" points="233,-102.5 233,-132.5 480,-132.5 480,-102.5 233,-102.5"/>
<text text-anchor="start" x="240" y="-113.9" font-family="Arial" font-size="14.00" fill="#000000">isFirstTimeVisit    </text>
<text text-anchor="start" x="369.0646" y="-113.9" font-family="Arial" font-size="14.00" fill="#666666">[tinyint(1)]</text>
<polygon fill="none" stroke="#000000" points="233,-72.5 233,-102.5 480,-102.5 480,-72.5 233,-72.5"/>
<text text-anchor="start" x="240" y="-83.9" font-family="Arial" font-size="14.00" fill="#000000">created_at    </text>
<text text-anchor="start" x="340.3422" y="-83.9" font-family="Arial" font-size="14.00" fill="#666666">[timestamp]</text>
<polygon fill="none" stroke="#000000" points="233,-42.5 233,-72.5 480,-72.5 480,-42.5 233,-42.5"/>
<text text-anchor="start" x="240" y="-53.9" font-family="Arial" font-size="14.00" fill="#000000">updated_at    </text>
<text text-anchor="start" x="344.2468" y="-53.9" font-family="Arial" font-size="14.00" fill="#666666">[timestamp]</text>
</g>
<!-- auto_saves&#45;&gt;users -->
<g id="edge1" class="edge">
<title>auto_saves:user_id&#45;&gt;users:id</title>
<path fill="none" stroke="#000000" d="M229.9575,-845.7166C150.697,-816.8604 147.5703,-447.5 233,-447.5"/>
<polygon fill="#000000" stroke="#000000" points="230.154,-845.7515 239.2132,-851.9307 235.077,-846.6257 240,-847.5 240,-847.5 240,-847.5 235.077,-846.6257 240.7868,-843.0693 230.154,-845.7515 230.154,-845.7515"/>
<text text-anchor="start" x="6.945" y="-857.5" font-family="Arial" font-size="10.00" fill="#000000">FOREIGN KEY (user_id) REFERENCES users (id)</text>
</g>
</g>
</svg>
