<?xml version="1.0" encoding="UTF-8" standalone="no"?>
<!DOCTYPE svg PUBLIC "-//W3C//DTD SVG 1.1//EN"
 "http://www.w3.org/Graphics/SVG/1.1/DTD/svg11.dtd">
<!-- Generated by graphviz version 2.40.1 (20161225.0304)
 -->
<!-- Title: bookmarks Pages: 1 -->
<svg width="529pt" height="892pt"
 viewBox="0.00 0.00 528.50 892.00" xmlns="http://www.w3.org/2000/svg" xmlns:xlink="http://www.w3.org/1999/xlink">
<g id="graph0" class="graph" transform="scale(1 1) rotate(0) translate(4 888)">
<title>bookmarks</title>
<polygon fill="#ffffff" stroke="transparent" points="-4,4 -4,-888 524.5,-888 524.5,4 -4,4"/>
<!-- bookmarks -->
<g id="node1" class="node">
<title>bookmarks</title>
<polygon fill="#efefef" stroke="transparent" points="240,-802.5 240,-837.5 469,-837.5 469,-802.5 240,-802.5"/>
<polygon fill="none" stroke="#000000" points="240,-802.5 240,-837.5 469,-837.5 469,-802.5 240,-802.5"/>
<text text-anchor="start" x="246.7114" y="-815.3" font-family="Arial Bold" font-size="18.00" fill="#000000">bookmarks</text>
<text text-anchor="start" x="334.7206" y="-815.3" font-family="Arial" font-size="14.00" fill="#000000">    </text>
<text text-anchor="start" x="368.9254" y="-815.3" font-family="Arial" font-size="14.00" fill="#666666">[BASE TABLE]</text>
<polygon fill="none" stroke="#000000" points="240,-772.5 240,-802.5 469,-802.5 469,-772.5 240,-772.5"/>
<text text-anchor="start" x="247" y="-783.9" font-family="Arial" font-size="14.00" fill="#000000">id </text>
<text text-anchor="start" x="261.7798" y="-783.9" font-family="Arial" font-size="14.00" fill="#666666">[bigint(20) unsigned]</text>
<polygon fill="none" stroke="#000000" points="240,-742.5 240,-772.5 469,-772.5 469,-742.5 240,-742.5"/>
<text text-anchor="start" x="247" y="-753.9" font-family="Arial" font-size="14.00" fill="#000000">post_id </text>
<text text-anchor="start" x="296.0182" y="-753.9" font-family="Arial" font-size="14.00" fill="#666666">[int(11)]</text>
<polygon fill="none" stroke="#000000" points="240,-712.5 240,-742.5 469,-742.5 469,-712.5 240,-712.5"/>
<text text-anchor="start" x="247" y="-723.9" font-family="Arial" font-size="14.00" fill="#000000">post_type </text>
<text text-anchor="start" x="311.5848" y="-723.9" font-family="Arial" font-size="14.00" fill="#666666">[varchar(255)]</text>
<polygon fill="none" stroke="#000000" points="240,-682.5 240,-712.5 469,-712.5 469,-682.5 240,-682.5"/>
<text text-anchor="start" x="247" y="-693.9" font-family="Arial" font-size="14.00" fill="#000000">user_id </text>
<text text-anchor="start" x="296.7882" y="-693.9" font-family="Arial" font-size="14.00" fill="#666666">[bigint(20) unsigned]</text>
<polygon fill="none" stroke="#000000" points="240,-652.5 240,-682.5 469,-682.5 469,-652.5 240,-652.5"/>
<text text-anchor="start" x="247" y="-663.9" font-family="Arial" font-size="14.00" fill="#000000">created_at </text>
<text text-anchor="start" x="317.028" y="-663.9" font-family="Arial" font-size="14.00" fill="#666666">[timestamp]</text>
<polygon fill="none" stroke="#000000" points="240,-622.5 240,-652.5 469,-652.5 469,-622.5 240,-622.5"/>
<text text-anchor="start" x="247" y="-633.9" font-family="Arial" font-size="14.00" fill="#000000">updated_at </text>
<text text-anchor="start" x="320.9326" y="-633.9" font-family="Arial" font-size="14.00" fill="#666666">[timestamp]</text>
<polygon fill="none" stroke="#000000" stroke-width="3" points="238,-621.5 238,-839.5 470,-839.5 470,-621.5 238,-621.5"/>
</g>
<!-- users -->
<g id="node2" class="node">
<title>users</title>
<polygon fill="#efefef" stroke="transparent" points="231,-462.5 231,-497.5 478,-497.5 478,-462.5 231,-462.5"/>
<polygon fill="none" stroke="#000000" points="231,-462.5 231,-497.5 478,-497.5 478,-462.5 231,-462.5"/>
<text text-anchor="start" x="268.7137" y="-475.3" font-family="Arial Bold" font-size="18.00" fill="#000000">users</text>
<text text-anchor="start" x="312.7183" y="-475.3" font-family="Arial" font-size="14.00" fill="#000000">    </text>
<text text-anchor="start" x="346.9231" y="-475.3" font-family="Arial" font-size="14.00" fill="#666666">[BASE TABLE]</text>
<polygon fill="none" stroke="#000000" points="231,-432.5 231,-462.5 478,-462.5 478,-432.5 231,-432.5"/>
<text text-anchor="start" x="238" y="-443.9" font-family="Arial" font-size="14.00" fill="#000000">id    </text>
<text text-anchor="start" x="283.094" y="-443.9" font-family="Arial" font-size="14.00" fill="#666666">[bigint(20) unsigned]</text>
<polygon fill="none" stroke="#000000" points="231,-402.5 231,-432.5 478,-432.5 478,-402.5 231,-402.5"/>
<text text-anchor="start" x="238" y="-413.9" font-family="Arial" font-size="14.00" fill="#000000">full_name    </text>
<text text-anchor="start" x="332.8822" y="-413.9" font-family="Arial" font-size="14.00" fill="#666666">[varchar(255)]</text>
<polygon fill="none" stroke="#000000" points="231,-372.5 231,-402.5 478,-402.5 478,-372.5 231,-372.5"/>
<text text-anchor="start" x="238" y="-383.9" font-family="Arial" font-size="14.00" fill="#000000">display_name    </text>
<text text-anchor="start" x="358.5568" y="-383.9" font-family="Arial" font-size="14.00" fill="#666666">[varchar(255)]</text>
<polygon fill="none" stroke="#000000" points="231,-342.5 231,-372.5 478,-372.5 478,-342.5 231,-342.5"/>
<text text-anchor="start" x="238" y="-353.9" font-family="Arial" font-size="14.00" fill="#000000">email    </text>
<text text-anchor="start" x="305.6438" y="-353.9" font-family="Arial" font-size="14.00" fill="#666666">[varchar(255)]</text>
<polygon fill="none" stroke="#000000" points="231,-312.5 231,-342.5 478,-342.5 478,-312.5 231,-312.5"/>
<text text-anchor="start" x="238" y="-323.9" font-family="Arial" font-size="14.00" fill="#000000">password    </text>
<text text-anchor="start" x="332.1024" y="-323.9" font-family="Arial" font-size="14.00" fill="#666666">[varchar(255)]</text>
<polygon fill="none" stroke="#000000" points="231,-282.5 231,-312.5 478,-312.5 478,-282.5 231,-282.5"/>
<text text-anchor="start" x="238" y="-293.9" font-family="Arial" font-size="14.00" fill="#000000">status    </text>
<text text-anchor="start" x="309.5512" y="-293.9" font-family="Arial" font-size="14.00" fill="#666666">[varchar(255)]</text>
<polygon fill="none" stroke="#000000" points="231,-252.5 231,-282.5 478,-282.5 478,-252.5 231,-252.5"/>
<text text-anchor="start" x="238" y="-263.9" font-family="Arial" font-size="14.00" fill="#000000">role_id    </text>
<text text-anchor="start" x="314.209" y="-263.9" font-family="Arial" font-size="14.00" fill="#666666">[bigint(20) unsigned]</text>
<polygon fill="none" stroke="#000000" points="231,-222.5 231,-252.5 478,-252.5 478,-222.5 231,-222.5"/>
<text text-anchor="start" x="238" y="-233.9" font-family="Arial" font-size="14.00" fill="#000000">site_id    </text>
<text text-anchor="start" x="312.6564" y="-233.9" font-family="Arial" font-size="14.00" fill="#666666">[bigint(20) unsigned]</text>
<polygon fill="none" stroke="#000000" points="231,-192.5 231,-222.5 478,-222.5 478,-192.5 231,-192.5"/>
<text text-anchor="start" x="237.8149" y="-203.9" font-family="Arial" font-size="14.00" fill="#000000">usertype_id    </text>
<text text-anchor="start" x="344.3731" y="-203.9" font-family="Arial" font-size="14.00" fill="#666666">[bigint(20) unsigned]</text>
<polygon fill="none" stroke="#000000" points="231,-162.5 231,-192.5 478,-192.5 478,-162.5 231,-162.5"/>
<text text-anchor="start" x="238" y="-173.9" font-family="Arial" font-size="14.00" fill="#000000">remember_token    </text>
<text text-anchor="start" x="377.9986" y="-173.9" font-family="Arial" font-size="14.00" fill="#666666">[varchar(100)]</text>
<polygon fill="none" stroke="#000000" points="231,-132.5 231,-162.5 478,-162.5 478,-132.5 231,-132.5"/>
<text text-anchor="start" x="238" y="-143.9" font-family="Arial" font-size="14.00" fill="#000000">token    </text>
<text text-anchor="start" x="306.4432" y="-143.9" font-family="Arial" font-size="14.00" fill="#666666">[longtext]</text>
<polygon fill="none" stroke="#000000" points="231,-102.5 231,-132.5 478,-132.5 478,-102.5 231,-102.5"/>
<text text-anchor="start" x="238" y="-113.9" font-family="Arial" font-size="14.00" fill="#000000">isFirstTimeVisit    </text>
<text text-anchor="start" x="367.0646" y="-113.9" font-family="Arial" font-size="14.00" fill="#666666">[tinyint(1)]</text>
<polygon fill="none" stroke="#000000" points="231,-72.5 231,-102.5 478,-102.5 478,-72.5 231,-72.5"/>
<text text-anchor="start" x="238" y="-83.9" font-family="Arial" font-size="14.00" fill="#000000">created_at    </text>
<text text-anchor="start" x="338.3422" y="-83.9" font-family="Arial" font-size="14.00" fill="#666666">[timestamp]</text>
<polygon fill="none" stroke="#000000" points="231,-42.5 231,-72.5 478,-72.5 478,-42.5 231,-42.5"/>
<text text-anchor="start" x="238" y="-53.9" font-family="Arial" font-size="14.00" fill="#000000">updated_at    </text>
<text text-anchor="start" x="342.2468" y="-53.9" font-family="Arial" font-size="14.00" fill="#666666">[timestamp]</text>
</g>
<!-- bookmarks&#45;&gt;users -->
<g id="edge1" class="edge">
<title>bookmarks:user_id&#45;&gt;users:id</title>
<path fill="none" stroke="#000000" d="M230.127,-694.6924C183.5358,-667.2266 178.8829,-447.5 231,-447.5"/>
<polygon fill="#000000" stroke="#000000" points="230.3814,-694.7647 238.7691,-701.8284 235.1907,-696.1323 240,-697.5 240,-697.5 240,-697.5 235.1907,-696.1323 241.2309,-693.1716 230.3814,-694.7647 230.3814,-694.7647"/>
<text text-anchor="start" x="6.945" y="-707.5" font-family="Arial" font-size="10.00" fill="#000000">FOREIGN KEY (user_id) REFERENCES users (id)</text>
</g>
</g>
</svg>
