<?xml version="1.0" encoding="UTF-8" standalone="no"?>
<!DOCTYPE svg PUBLIC "-//W3C//DTD SVG 1.1//EN"
 "http://www.w3.org/Graphics/SVG/1.1/DTD/svg11.dtd">
<!-- Generated by graphviz version 2.40.1 (20161225.0304)
 -->
<!-- Title: capacities Pages: 1 -->
<svg width="603pt" height="1012pt"
 viewBox="0.00 0.00 602.50 1012.00" xmlns="http://www.w3.org/2000/svg" xmlns:xlink="http://www.w3.org/1999/xlink">
<g id="graph0" class="graph" transform="scale(1 1) rotate(0) translate(4 1008)">
<title>capacities</title>
<polygon fill="#ffffff" stroke="transparent" points="-4,4 -4,-1008 598.5,-1008 598.5,4 -4,4"/>
<!-- capacities -->
<g id="node1" class="node">
<title>capacities</title>
<polygon fill="#efefef" stroke="transparent" points="304,-922.5 304,-957.5 525,-957.5 525,-922.5 304,-922.5"/>
<polygon fill="none" stroke="#000000" points="304,-922.5 304,-957.5 525,-957.5 525,-922.5 304,-922.5"/>
<text text-anchor="start" x="310.7083" y="-935.3" font-family="Arial Bold" font-size="18.00" fill="#000000">capacities</text>
<text text-anchor="start" x="390.7237" y="-935.3" font-family="Arial" font-size="14.00" fill="#000000">    </text>
<text text-anchor="start" x="424.9285" y="-935.3" font-family="Arial" font-size="14.00" fill="#666666">[BASE TABLE]</text>
<polygon fill="none" stroke="#000000" points="304,-892.5 304,-922.5 525,-922.5 525,-892.5 304,-892.5"/>
<text text-anchor="start" x="311" y="-903.9" font-family="Arial" font-size="14.00" fill="#000000">id </text>
<text text-anchor="start" x="325.7798" y="-903.9" font-family="Arial" font-size="14.00" fill="#666666">[bigint(20) unsigned]</text>
<polygon fill="none" stroke="#000000" points="304,-862.5 304,-892.5 525,-892.5 525,-862.5 304,-862.5"/>
<text text-anchor="start" x="311" y="-873.9" font-family="Arial" font-size="14.00" fill="#000000">event_id </text>
<text text-anchor="start" x="367.8008" y="-873.9" font-family="Arial" font-size="14.00" fill="#666666">[bigint(20) unsigned]</text>
<polygon fill="none" stroke="#000000" points="304,-832.5 304,-862.5 525,-862.5 525,-832.5 304,-832.5"/>
<text text-anchor="start" x="311" y="-843.9" font-family="Arial" font-size="14.00" fill="#000000">capacity_name </text>
<text text-anchor="start" x="409.0266" y="-843.9" font-family="Arial" font-size="14.00" fill="#666666">[varchar(255)]</text>
<polygon fill="none" stroke="#000000" points="304,-802.5 304,-832.5 525,-832.5 525,-802.5 304,-802.5"/>
<text text-anchor="start" x="311" y="-813.9" font-family="Arial" font-size="14.00" fill="#000000">capacity_value </text>
<text text-anchor="start" x="407.4726" y="-813.9" font-family="Arial" font-size="14.00" fill="#666666">[text]</text>
<polygon fill="none" stroke="#000000" points="304,-772.5 304,-802.5 525,-802.5 525,-772.5 304,-772.5"/>
<text text-anchor="start" x="311" y="-783.9" font-family="Arial" font-size="14.00" fill="#000000">created_at </text>
<text text-anchor="start" x="381.028" y="-783.9" font-family="Arial" font-size="14.00" fill="#666666">[timestamp]</text>
<polygon fill="none" stroke="#000000" points="304,-742.5 304,-772.5 525,-772.5 525,-742.5 304,-742.5"/>
<text text-anchor="start" x="311" y="-753.9" font-family="Arial" font-size="14.00" fill="#000000">updated_at </text>
<text text-anchor="start" x="384.9326" y="-753.9" font-family="Arial" font-size="14.00" fill="#666666">[timestamp]</text>
<polygon fill="none" stroke="#000000" stroke-width="3" points="302,-741.5 302,-959.5 526,-959.5 526,-741.5 302,-741.5"/>
</g>
<!-- events -->
<g id="node2" class="node">
<title>events</title>
<polygon fill="#efefef" stroke="transparent" points="277,-582.5 277,-617.5 552,-617.5 552,-582.5 277,-582.5"/>
<polygon fill="none" stroke="#000000" points="277,-582.5 277,-617.5 552,-617.5 552,-582.5 277,-582.5"/>
<text text-anchor="start" x="324.2056" y="-595.3" font-family="Arial Bold" font-size="18.00" fill="#000000">events</text>
<text text-anchor="start" x="377.2264" y="-595.3" font-family="Arial" font-size="14.00" fill="#000000">    </text>
<text text-anchor="start" x="411.4312" y="-595.3" font-family="Arial" font-size="14.00" fill="#666666">[BASE TABLE]</text>
<polygon fill="none" stroke="#000000" points="277,-552.5 277,-582.5 552,-582.5 552,-552.5 277,-552.5"/>
<text text-anchor="start" x="284" y="-563.9" font-family="Arial" font-size="14.00" fill="#000000">id    </text>
<text text-anchor="start" x="329.094" y="-563.9" font-family="Arial" font-size="14.00" fill="#666666">[bigint(20) unsigned]</text>
<polygon fill="none" stroke="#000000" points="277,-522.5 277,-552.5 552,-552.5 552,-522.5 277,-522.5"/>
<text text-anchor="start" x="284" y="-533.9" font-family="Arial" font-size="14.00" fill="#000000">author_id    </text>
<text text-anchor="start" x="376.5582" y="-533.9" font-family="Arial" font-size="14.00" fill="#666666">[bigint(20) unsigned]</text>
<polygon fill="none" stroke="#000000" points="277,-492.5 277,-522.5 552,-522.5 552,-492.5 277,-492.5"/>
<text text-anchor="start" x="284" y="-503.9" font-family="Arial" font-size="14.00" fill="#000000">event_title    </text>
<text text-anchor="start" x="382.0028" y="-503.9" font-family="Arial" font-size="14.00" fill="#666666">[varchar(255)]</text>
<polygon fill="none" stroke="#000000" points="277,-462.5 277,-492.5 552,-492.5 552,-462.5 277,-462.5"/>
<text text-anchor="start" x="284" y="-473.9" font-family="Arial" font-size="14.00" fill="#000000">event_content    </text>
<text text-anchor="start" x="406.1374" y="-473.9" font-family="Arial" font-size="14.00" fill="#666666">[longtext]</text>
<polygon fill="none" stroke="#000000" points="277,-432.5 277,-462.5 552,-462.5 552,-432.5 277,-432.5"/>
<text text-anchor="start" x="284" y="-443.9" font-family="Arial" font-size="14.00" fill="#000000">event_excerpt    </text>
<text text-anchor="start" x="406.1248" y="-443.9" font-family="Arial" font-size="14.00" fill="#666666">[text]</text>
<polygon fill="none" stroke="#000000" points="277,-402.5 277,-432.5 552,-432.5 552,-402.5 277,-402.5"/>
<text text-anchor="start" x="284" y="-413.9" font-family="Arial" font-size="14.00" fill="#000000">event_location    </text>
<text text-anchor="start" x="408.46" y="-413.9" font-family="Arial" font-size="14.00" fill="#666666">[longtext]</text>
<polygon fill="none" stroke="#000000" points="277,-372.5 277,-402.5 552,-402.5 552,-372.5 277,-372.5"/>
<text text-anchor="start" x="284" y="-383.9" font-family="Arial" font-size="14.00" fill="#000000">cover_image    </text>
<text text-anchor="start" x="398.3282" y="-383.9" font-family="Arial" font-size="14.00" fill="#666666">[varchar(255)]</text>
<polygon fill="none" stroke="#000000" points="277,-342.5 277,-372.5 552,-372.5 552,-342.5 277,-342.5"/>
<text text-anchor="start" x="284" y="-353.9" font-family="Arial" font-size="14.00" fill="#000000">start_date    </text>
<text text-anchor="start" x="380.4502" y="-353.9" font-family="Arial" font-size="14.00" fill="#666666">[datetime]</text>
<polygon fill="none" stroke="#000000" points="277,-312.5 277,-342.5 552,-342.5 552,-312.5 277,-312.5"/>
<text text-anchor="start" x="284" y="-323.9" font-family="Arial" font-size="14.00" fill="#000000">end_date    </text>
<text text-anchor="start" x="376.5736" y="-323.9" font-family="Arial" font-size="14.00" fill="#666666">[datetime]</text>
<polygon fill="none" stroke="#000000" points="277,-282.5 277,-312.5 552,-312.5 552,-282.5 277,-282.5"/>
<text text-anchor="start" x="284" y="-293.9" font-family="Arial" font-size="14.00" fill="#000000">event_status    </text>
<text text-anchor="start" x="397.5722" y="-293.9" font-family="Arial" font-size="14.00" fill="#666666">[varchar(255)]</text>
<polygon fill="none" stroke="#000000" points="277,-252.5 277,-282.5 552,-282.5 552,-252.5 277,-252.5"/>
<text text-anchor="start" x="284" y="-263.9" font-family="Arial" font-size="14.00" fill="#000000">eventtype_id    </text>
<text text-anchor="start" x="397.5708" y="-263.9" font-family="Arial" font-size="14.00" fill="#666666">[bigint(20) unsigned]</text>
<polygon fill="none" stroke="#000000" points="277,-222.5 277,-252.5 552,-252.5 552,-222.5 277,-222.5"/>
<text text-anchor="start" x="283.8114" y="-233.9" font-family="Arial" font-size="14.00" fill="#000000">event_format_id    </text>
<text text-anchor="start" x="418.3766" y="-233.9" font-family="Arial" font-size="14.00" fill="#666666">[bigint(20) unsigned]</text>
<polygon fill="none" stroke="#000000" points="277,-192.5 277,-222.5 552,-222.5 552,-192.5 277,-192.5"/>
<text text-anchor="start" x="284" y="-203.9" font-family="Arial" font-size="14.00" fill="#000000">attendees_id    </text>
<text text-anchor="start" x="398.3534" y="-203.9" font-family="Arial" font-size="14.00" fill="#666666">[bigint(20) unsigned]</text>
<polygon fill="none" stroke="#000000" points="277,-162.5 277,-192.5 552,-192.5 552,-162.5 277,-162.5"/>
<text text-anchor="start" x="284" y="-173.9" font-family="Arial" font-size="14.00" fill="#000000">location_id    </text>
<text text-anchor="start" x="385.1108" y="-173.9" font-family="Arial" font-size="14.00" fill="#666666">[bigint(20) unsigned]</text>
<polygon fill="none" stroke="#000000" points="277,-132.5 277,-162.5 552,-162.5 552,-132.5 277,-132.5"/>
<text text-anchor="start" x="284" y="-143.9" font-family="Arial" font-size="14.00" fill="#000000">capacity_id    </text>
<text text-anchor="start" x="388.2216" y="-143.9" font-family="Arial" font-size="14.00" fill="#666666">[bigint(20) unsigned]</text>
<polygon fill="none" stroke="#000000" points="277,-102.5 277,-132.5 552,-132.5 552,-102.5 277,-102.5"/>
<text text-anchor="start" x="284" y="-113.9" font-family="Arial" font-size="14.00" fill="#000000">extra_content    </text>
<text text-anchor="start" x="403.0154" y="-113.9" font-family="Arial" font-size="14.00" fill="#666666">[json]</text>
<polygon fill="none" stroke="#000000" points="277,-72.5 277,-102.5 552,-102.5 552,-72.5 277,-72.5"/>
<text text-anchor="start" x="284" y="-83.9" font-family="Arial" font-size="14.00" fill="#000000">created_at    </text>
<text text-anchor="start" x="384.3422" y="-83.9" font-family="Arial" font-size="14.00" fill="#666666">[timestamp]</text>
<polygon fill="none" stroke="#000000" points="277,-42.5 277,-72.5 552,-72.5 552,-42.5 277,-42.5"/>
<text text-anchor="start" x="284" y="-53.9" font-family="Arial" font-size="14.00" fill="#000000">updated_at    </text>
<text text-anchor="start" x="388.2468" y="-53.9" font-family="Arial" font-size="14.00" fill="#666666">[timestamp]</text>
</g>
<!-- capacities&#45;&gt;events -->
<g id="edge2" class="edge">
<title>capacities:event_id&#45;&gt;events:id</title>
<path fill="none" stroke="#000000" d="M294.1784,-875.3549C232.4428,-847.9657 211.2268,-567.5 277,-567.5"/>
<polygon fill="#000000" stroke="#000000" points="294.2303,-875.3661 303.0398,-881.8964 299.1152,-876.4331 304,-877.5 304,-877.5 304,-877.5 299.1152,-876.4331 304.9602,-873.1036 294.2303,-875.3661 294.2303,-875.3661"/>
<text text-anchor="start" x="60.936" y="-887.5" font-family="Arial" font-size="10.00" fill="#000000">FOREIGN KEY (event_id) REFERENCES events (id)</text>
</g>
<!-- events&#45;&gt;capacities -->
<g id="edge1" class="edge">
<title>events:capacity_id&#45;&gt;capacities:id</title>
<path fill="none" stroke="#000000" d="M267.1618,-151.2307C194.8139,-208.5652 222.968,-907.5 304,-907.5"/>
<polygon fill="#000000" stroke="#000000" points="267.6497,-151.0458 278.5956,-151.7076 272.3249,-149.2729 277,-147.5 277,-147.5 277,-147.5 272.3249,-149.2729 275.4044,-143.2924 267.6497,-151.0458 267.6497,-151.0458"/>
<text text-anchor="start" x="7.328" y="-157.5" font-family="Arial" font-size="10.00" fill="#000000">FOREIGN KEY (capacity_id) REFERENCES capacities (id)</text>
</g>
</g>
</svg>
