<?xml version="1.0" encoding="UTF-8" standalone="no"?>
<!DOCTYPE svg PUBLIC "-//W3C//DTD SVG 1.1//EN"
 "http://www.w3.org/Graphics/SVG/1.1/DTD/svg11.dtd">
<!-- Generated by graphviz version 2.40.1 (20161225.0304)
 -->
<!-- Title: communities Pages: 1 -->
<svg width="921pt" height="1409pt"
 viewBox="0.00 0.00 921.00 1409.00" xmlns="http://www.w3.org/2000/svg" xmlns:xlink="http://www.w3.org/1999/xlink">
<g id="graph0" class="graph" transform="scale(1 1) rotate(0) translate(4 1405)">
<title>communities</title>
<polygon fill="#ffffff" stroke="transparent" points="-4,4 -4,-1405 917,-1405 917,4 -4,4"/>
<!-- communities -->
<g id="node1" class="node">
<title>communities</title>
<polygon fill="#efefef" stroke="transparent" points="315,-982.5 315,-1017.5 572,-1017.5 572,-982.5 315,-982.5"/>
<polygon fill="none" stroke="#000000" points="315,-982.5 315,-1017.5 572,-1017.5 572,-982.5 315,-982.5"/>
<text text-anchor="start" x="329.2161" y="-995.3" font-family="Arial Bold" font-size="18.00" fill="#000000">communities</text>
<text text-anchor="start" x="430.2159" y="-995.3" font-family="Arial" font-size="14.00" fill="#000000">    </text>
<text text-anchor="start" x="464.4207" y="-995.3" font-family="Arial" font-size="14.00" fill="#666666">[BASE TABLE]</text>
<polygon fill="none" stroke="#000000" points="315,-952.5 315,-982.5 572,-982.5 572,-952.5 315,-952.5"/>
<text text-anchor="start" x="322" y="-963.9" font-family="Arial" font-size="14.00" fill="#000000">id </text>
<text text-anchor="start" x="336.7798" y="-963.9" font-family="Arial" font-size="14.00" fill="#666666">[bigint(20) unsigned]</text>
<polygon fill="none" stroke="#000000" points="315,-922.5 315,-952.5 572,-952.5 572,-922.5 315,-922.5"/>
<text text-anchor="start" x="322" y="-933.9" font-family="Arial" font-size="14.00" fill="#000000">author_id </text>
<text text-anchor="start" x="384.244" y="-933.9" font-family="Arial" font-size="14.00" fill="#666666">[bigint(20) unsigned]</text>
<polygon fill="none" stroke="#000000" points="315,-892.5 315,-922.5 572,-922.5 572,-892.5 315,-892.5"/>
<text text-anchor="start" x="322" y="-903.9" font-family="Arial" font-size="14.00" fill="#000000">post_title </text>
<text text-anchor="start" x="381.906" y="-903.9" font-family="Arial" font-size="14.00" fill="#666666">[varchar(255)]</text>
<polygon fill="none" stroke="#000000" points="315,-862.5 315,-892.5 572,-892.5 572,-862.5 315,-862.5"/>
<text text-anchor="start" x="322" y="-873.9" font-family="Arial" font-size="14.00" fill="#000000">post_content </text>
<text text-anchor="start" x="406.0406" y="-873.9" font-family="Arial" font-size="14.00" fill="#666666">[longtext]</text>
<polygon fill="none" stroke="#000000" points="315,-832.5 315,-862.5 572,-862.5 572,-832.5 315,-832.5"/>
<text text-anchor="start" x="322" y="-843.9" font-family="Arial" font-size="14.00" fill="#000000">post_excerpt </text>
<text text-anchor="start" x="406.028" y="-843.9" font-family="Arial" font-size="14.00" fill="#666666">[text]</text>
<polygon fill="none" stroke="#000000" points="315,-802.5 315,-832.5 572,-832.5 572,-802.5 315,-802.5"/>
<text text-anchor="start" x="322" y="-813.9" font-family="Arial" font-size="14.00" fill="#000000">cover_image </text>
<text text-anchor="start" x="406.014" y="-813.9" font-family="Arial" font-size="14.00" fill="#666666">[varchar(255)]</text>
<polygon fill="none" stroke="#000000" points="315,-772.5 315,-802.5 572,-802.5 572,-772.5 315,-772.5"/>
<text text-anchor="start" x="322" y="-783.9" font-family="Arial" font-size="14.00" fill="#000000">post_date </text>
<text text-anchor="start" x="387.3674" y="-783.9" font-family="Arial" font-size="14.00" fill="#666666">[datetime]</text>
<polygon fill="none" stroke="#000000" points="315,-742.5 315,-772.5 572,-772.5 572,-742.5 315,-742.5"/>
<text text-anchor="start" x="322" y="-753.9" font-family="Arial" font-size="14.00" fill="#000000">post_modified </text>
<text text-anchor="start" x="413.0238" y="-753.9" font-family="Arial" font-size="14.00" fill="#666666">[datetime]</text>
<polygon fill="none" stroke="#000000" points="315,-712.5 315,-742.5 572,-742.5 572,-712.5 315,-712.5"/>
<text text-anchor="start" x="322" y="-723.9" font-family="Arial" font-size="14.00" fill="#000000">post_status </text>
<text text-anchor="start" x="397.4754" y="-723.9" font-family="Arial" font-size="14.00" fill="#666666">[varchar(255)]</text>
<polygon fill="none" stroke="#000000" points="315,-682.5 315,-712.5 572,-712.5 572,-682.5 315,-682.5"/>
<text text-anchor="start" x="321.7518" y="-693.9" font-family="Arial" font-size="14.00" fill="#000000">communitytype_id </text>
<text text-anchor="start" x="438.4362" y="-693.9" font-family="Arial" font-size="14.00" fill="#666666">[bigint(20) unsigned]</text>
<polygon fill="none" stroke="#000000" points="315,-652.5 315,-682.5 572,-682.5 572,-652.5 315,-652.5"/>
<text text-anchor="start" x="322" y="-663.9" font-family="Arial" font-size="14.00" fill="#000000">created_at </text>
<text text-anchor="start" x="392.028" y="-663.9" font-family="Arial" font-size="14.00" fill="#666666">[timestamp]</text>
<polygon fill="none" stroke="#000000" points="315,-622.5 315,-652.5 572,-652.5 572,-622.5 315,-622.5"/>
<text text-anchor="start" x="322" y="-633.9" font-family="Arial" font-size="14.00" fill="#000000">updated_at </text>
<text text-anchor="start" x="395.9326" y="-633.9" font-family="Arial" font-size="14.00" fill="#666666">[timestamp]</text>
<polygon fill="none" stroke="#000000" stroke-width="3" points="313,-621.5 313,-1019.5 573,-1019.5 573,-621.5 313,-621.5"/>
</g>
<!-- users -->
<g id="node3" class="node">
<title>users</title>
<polygon fill="#efefef" stroke="transparent" points="136,-462.5 136,-497.5 383,-497.5 383,-462.5 136,-462.5"/>
<polygon fill="none" stroke="#000000" points="136,-462.5 136,-497.5 383,-497.5 383,-462.5 136,-462.5"/>
<text text-anchor="start" x="173.7137" y="-475.3" font-family="Arial Bold" font-size="18.00" fill="#000000">users</text>
<text text-anchor="start" x="217.7183" y="-475.3" font-family="Arial" font-size="14.00" fill="#000000">    </text>
<text text-anchor="start" x="251.9231" y="-475.3" font-family="Arial" font-size="14.00" fill="#666666">[BASE TABLE]</text>
<polygon fill="none" stroke="#000000" points="136,-432.5 136,-462.5 383,-462.5 383,-432.5 136,-432.5"/>
<text text-anchor="start" x="143" y="-443.9" font-family="Arial" font-size="14.00" fill="#000000">id    </text>
<text text-anchor="start" x="188.094" y="-443.9" font-family="Arial" font-size="14.00" fill="#666666">[bigint(20) unsigned]</text>
<polygon fill="none" stroke="#000000" points="136,-402.5 136,-432.5 383,-432.5 383,-402.5 136,-402.5"/>
<text text-anchor="start" x="143" y="-413.9" font-family="Arial" font-size="14.00" fill="#000000">full_name    </text>
<text text-anchor="start" x="237.8822" y="-413.9" font-family="Arial" font-size="14.00" fill="#666666">[varchar(255)]</text>
<polygon fill="none" stroke="#000000" points="136,-372.5 136,-402.5 383,-402.5 383,-372.5 136,-372.5"/>
<text text-anchor="start" x="143" y="-383.9" font-family="Arial" font-size="14.00" fill="#000000">display_name    </text>
<text text-anchor="start" x="263.5568" y="-383.9" font-family="Arial" font-size="14.00" fill="#666666">[varchar(255)]</text>
<polygon fill="none" stroke="#000000" points="136,-342.5 136,-372.5 383,-372.5 383,-342.5 136,-342.5"/>
<text text-anchor="start" x="143" y="-353.9" font-family="Arial" font-size="14.00" fill="#000000">email    </text>
<text text-anchor="start" x="210.6438" y="-353.9" font-family="Arial" font-size="14.00" fill="#666666">[varchar(255)]</text>
<polygon fill="none" stroke="#000000" points="136,-312.5 136,-342.5 383,-342.5 383,-312.5 136,-312.5"/>
<text text-anchor="start" x="143" y="-323.9" font-family="Arial" font-size="14.00" fill="#000000">password    </text>
<text text-anchor="start" x="237.1024" y="-323.9" font-family="Arial" font-size="14.00" fill="#666666">[varchar(255)]</text>
<polygon fill="none" stroke="#000000" points="136,-282.5 136,-312.5 383,-312.5 383,-282.5 136,-282.5"/>
<text text-anchor="start" x="143" y="-293.9" font-family="Arial" font-size="14.00" fill="#000000">status    </text>
<text text-anchor="start" x="214.5512" y="-293.9" font-family="Arial" font-size="14.00" fill="#666666">[varchar(255)]</text>
<polygon fill="none" stroke="#000000" points="136,-252.5 136,-282.5 383,-282.5 383,-252.5 136,-252.5"/>
<text text-anchor="start" x="143" y="-263.9" font-family="Arial" font-size="14.00" fill="#000000">role_id    </text>
<text text-anchor="start" x="219.209" y="-263.9" font-family="Arial" font-size="14.00" fill="#666666">[bigint(20) unsigned]</text>
<polygon fill="none" stroke="#000000" points="136,-222.5 136,-252.5 383,-252.5 383,-222.5 136,-222.5"/>
<text text-anchor="start" x="143" y="-233.9" font-family="Arial" font-size="14.00" fill="#000000">site_id    </text>
<text text-anchor="start" x="217.6564" y="-233.9" font-family="Arial" font-size="14.00" fill="#666666">[bigint(20) unsigned]</text>
<polygon fill="none" stroke="#000000" points="136,-192.5 136,-222.5 383,-222.5 383,-192.5 136,-192.5"/>
<text text-anchor="start" x="142.8149" y="-203.9" font-family="Arial" font-size="14.00" fill="#000000">usertype_id    </text>
<text text-anchor="start" x="249.3731" y="-203.9" font-family="Arial" font-size="14.00" fill="#666666">[bigint(20) unsigned]</text>
<polygon fill="none" stroke="#000000" points="136,-162.5 136,-192.5 383,-192.5 383,-162.5 136,-162.5"/>
<text text-anchor="start" x="143" y="-173.9" font-family="Arial" font-size="14.00" fill="#000000">remember_token    </text>
<text text-anchor="start" x="282.9986" y="-173.9" font-family="Arial" font-size="14.00" fill="#666666">[varchar(100)]</text>
<polygon fill="none" stroke="#000000" points="136,-132.5 136,-162.5 383,-162.5 383,-132.5 136,-132.5"/>
<text text-anchor="start" x="143" y="-143.9" font-family="Arial" font-size="14.00" fill="#000000">token    </text>
<text text-anchor="start" x="211.4432" y="-143.9" font-family="Arial" font-size="14.00" fill="#666666">[longtext]</text>
<polygon fill="none" stroke="#000000" points="136,-102.5 136,-132.5 383,-132.5 383,-102.5 136,-102.5"/>
<text text-anchor="start" x="143" y="-113.9" font-family="Arial" font-size="14.00" fill="#000000">isFirstTimeVisit    </text>
<text text-anchor="start" x="272.0646" y="-113.9" font-family="Arial" font-size="14.00" fill="#666666">[tinyint(1)]</text>
<polygon fill="none" stroke="#000000" points="136,-72.5 136,-102.5 383,-102.5 383,-72.5 136,-72.5"/>
<text text-anchor="start" x="143" y="-83.9" font-family="Arial" font-size="14.00" fill="#000000">created_at    </text>
<text text-anchor="start" x="243.3422" y="-83.9" font-family="Arial" font-size="14.00" fill="#666666">[timestamp]</text>
<polygon fill="none" stroke="#000000" points="136,-42.5 136,-72.5 383,-72.5 383,-42.5 136,-42.5"/>
<text text-anchor="start" x="143" y="-53.9" font-family="Arial" font-size="14.00" fill="#000000">updated_at    </text>
<text text-anchor="start" x="247.2468" y="-53.9" font-family="Arial" font-size="14.00" fill="#666666">[timestamp]</text>
</g>
<!-- communities&#45;&gt;users -->
<g id="edge2" class="edge">
<title>communities:author_id&#45;&gt;users:id</title>
<path fill="none" stroke="#000000" d="M305.0002,-937.1939C158.1136,-927.9475 234.1319,-711.3142 315,-577 332.6386,-547.7039 365.3614,-570.2961 383,-541 404.4346,-505.3991 424.5556,-447.5 383,-447.5"/>
<polygon fill="#000000" stroke="#000000" points="305.0047,-937.194 314.8623,-941.9979 310.0023,-937.347 315,-937.5 315,-937.5 315,-937.5 310.0023,-937.347 315.1377,-933.0021 305.0047,-937.194 305.0047,-937.194"/>
<text text-anchor="start" x="73.4965" y="-947.5" font-family="Arial" font-size="10.00" fill="#000000">FOREIGN KEY (author_id) REFERENCES users (id)</text>
</g>
<!-- community_types -->
<g id="node4" class="node">
<title>community_types</title>
<polygon fill="#efefef" stroke="transparent" points="487,-327.5 487,-362.5 768,-362.5 768,-327.5 487,-327.5"/>
<polygon fill="none" stroke="#000000" points="487,-327.5 487,-362.5 768,-362.5 768,-327.5 487,-327.5"/>
<text text-anchor="start" x="493.7059" y="-340.3" font-family="Arial Bold" font-size="18.00" fill="#000000">community_types</text>
<text text-anchor="start" x="633.7261" y="-340.3" font-family="Arial" font-size="14.00" fill="#000000">    </text>
<text text-anchor="start" x="667.9309" y="-340.3" font-family="Arial" font-size="14.00" fill="#666666">[BASE TABLE]</text>
<polygon fill="none" stroke="#000000" points="487,-297.5 487,-327.5 768,-327.5 768,-297.5 487,-297.5"/>
<text text-anchor="start" x="494" y="-308.9" font-family="Arial" font-size="14.00" fill="#000000">id    </text>
<text text-anchor="start" x="539.094" y="-308.9" font-family="Arial" font-size="14.00" fill="#666666">[bigint(20) unsigned]</text>
<polygon fill="none" stroke="#000000" points="487,-267.5 487,-297.5 768,-297.5 768,-267.5 487,-267.5"/>
<text text-anchor="start" x="494" y="-278.9" font-family="Arial" font-size="14.00" fill="#000000">community_type_name    </text>
<text text-anchor="start" x="672.9004" y="-278.9" font-family="Arial" font-size="14.00" fill="#666666">[varchar(255)]</text>
<polygon fill="none" stroke="#000000" points="487,-237.5 487,-267.5 768,-267.5 768,-237.5 487,-237.5"/>
<text text-anchor="start" x="494" y="-248.9" font-family="Arial" font-size="14.00" fill="#000000">community_type_value    </text>
<text text-anchor="start" x="671.3464" y="-248.9" font-family="Arial" font-size="14.00" fill="#666666">[text]</text>
<polygon fill="none" stroke="#000000" points="487,-207.5 487,-237.5 768,-237.5 768,-207.5 487,-207.5"/>
<text text-anchor="start" x="494" y="-218.9" font-family="Arial" font-size="14.00" fill="#000000">created_at    </text>
<text text-anchor="start" x="594.3422" y="-218.9" font-family="Arial" font-size="14.00" fill="#666666">[timestamp]</text>
<polygon fill="none" stroke="#000000" points="487,-177.5 487,-207.5 768,-207.5 768,-177.5 487,-177.5"/>
<text text-anchor="start" x="494" y="-188.9" font-family="Arial" font-size="14.00" fill="#000000">updated_at    </text>
<text text-anchor="start" x="598.2468" y="-188.9" font-family="Arial" font-size="14.00" fill="#666666">[timestamp]</text>
</g>
<!-- communities&#45;&gt;community_types -->
<g id="edge3" class="edge">
<title>communities:communitytype_id&#45;&gt;community_types:id</title>
<path fill="none" stroke="#000000" d="M582.0209,-697.0209C729.6278,-681.8709 315.3619,-312.5 487,-312.5"/>
<polygon fill="#000000" stroke="#000000" points="581.9886,-697.0223 571.785,-693.0051 576.9943,-697.2612 572,-697.5 572,-697.5 572,-697.5 576.9943,-697.2612 572.215,-701.9949 581.9886,-697.0223 581.9886,-697.0223"/>
<text text-anchor="start" x="579.3825" y="-707.5" font-family="Arial" font-size="10.00" fill="#000000">FOREIGN KEY (communitytype_id) REFERENCES community_types (id)</text>
</g>
<!-- community_metas -->
<g id="node2" class="node">
<title>community_metas</title>
<polygon fill="#efefef" stroke="transparent" points="300,-1322.5 300,-1357.5 587,-1357.5 587,-1322.5 300,-1322.5"/>
<polygon fill="none" stroke="#000000" points="300,-1322.5 300,-1357.5 587,-1357.5 587,-1322.5 300,-1322.5"/>
<text text-anchor="start" x="306.7098" y="-1335.3" font-family="Arial Bold" font-size="18.00" fill="#000000">community_metas</text>
<text text-anchor="start" x="452.7222" y="-1335.3" font-family="Arial" font-size="14.00" fill="#000000">    </text>
<text text-anchor="start" x="486.927" y="-1335.3" font-family="Arial" font-size="14.00" fill="#666666">[BASE TABLE]</text>
<polygon fill="none" stroke="#000000" points="300,-1292.5 300,-1322.5 587,-1322.5 587,-1292.5 300,-1292.5"/>
<text text-anchor="start" x="307" y="-1303.9" font-family="Arial" font-size="14.00" fill="#000000">id    </text>
<text text-anchor="start" x="352.094" y="-1303.9" font-family="Arial" font-size="14.00" fill="#666666">[bigint(20) unsigned]</text>
<polygon fill="none" stroke="#000000" points="300,-1262.5 300,-1292.5 587,-1292.5 587,-1262.5 300,-1262.5"/>
<text text-anchor="start" x="307" y="-1273.9" font-family="Arial" font-size="14.00" fill="#000000">community_id    </text>
<text text-anchor="start" x="427.5428" y="-1273.9" font-family="Arial" font-size="14.00" fill="#666666">[bigint(20) unsigned]</text>
<polygon fill="none" stroke="#000000" points="300,-1232.5 300,-1262.5 587,-1262.5 587,-1232.5 300,-1232.5"/>
<text text-anchor="start" x="307" y="-1243.9" font-family="Arial" font-size="14.00" fill="#000000">community_meta_key    </text>
<text text-anchor="start" x="477.3352" y="-1243.9" font-family="Arial" font-size="14.00" fill="#666666">[varchar(255)]</text>
<polygon fill="none" stroke="#000000" points="300,-1202.5 300,-1232.5 587,-1232.5 587,-1202.5 300,-1202.5"/>
<text text-anchor="start" x="307" y="-1213.9" font-family="Arial" font-size="14.00" fill="#000000">community_meta_value    </text>
<text text-anchor="start" x="489.007" y="-1213.9" font-family="Arial" font-size="14.00" fill="#666666">[text]</text>
<polygon fill="none" stroke="#000000" points="300,-1172.5 300,-1202.5 587,-1202.5 587,-1172.5 300,-1172.5"/>
<text text-anchor="start" x="307" y="-1183.9" font-family="Arial" font-size="14.00" fill="#000000">created_at    </text>
<text text-anchor="start" x="407.3422" y="-1183.9" font-family="Arial" font-size="14.00" fill="#666666">[timestamp]</text>
<polygon fill="none" stroke="#000000" points="300,-1142.5 300,-1172.5 587,-1172.5 587,-1142.5 300,-1142.5"/>
<text text-anchor="start" x="307" y="-1153.9" font-family="Arial" font-size="14.00" fill="#000000">updated_at    </text>
<text text-anchor="start" x="411.2468" y="-1153.9" font-family="Arial" font-size="14.00" fill="#666666">[timestamp]</text>
</g>
<!-- community_metas&#45;&gt;communities -->
<g id="edge1" class="edge">
<title>community_metas:community_id&#45;&gt;communities:id</title>
<path fill="none" stroke="#000000" d="M289.7882,-1276.9106C162.902,-1261.9577 180.5634,-967.5 315,-967.5"/>
<polygon fill="#000000" stroke="#000000" points="290.0166,-1276.9237 299.7407,-1281.9925 295.0083,-1277.2118 300,-1277.5 300,-1277.5 300,-1277.5 295.0083,-1277.2118 300.2593,-1273.0075 290.0166,-1276.9237 290.0166,-1276.9237"/>
<text text-anchor="start" x="6.67" y="-1287.5" font-family="Arial" font-size="10.00" fill="#000000">FOREIGN KEY (community_id) REFERENCES communities (id)</text>
</g>
</g>
</svg>
