<?xml version="1.0" encoding="UTF-8" standalone="no"?>
<!DOCTYPE svg PUBLIC "-//W3C//DTD SVG 1.1//EN"
 "http://www.w3.org/Graphics/SVG/1.1/DTD/svg11.dtd">
<!-- Generated by graphviz version 2.40.1 (20161225.0304)
 -->
<!-- Title: community_types Pages: 1 -->
<svg width="679pt" height="802pt"
 viewBox="0.00 0.00 678.50 802.00" xmlns="http://www.w3.org/2000/svg" xmlns:xlink="http://www.w3.org/1999/xlink">
<g id="graph0" class="graph" transform="scale(1 1) rotate(0) translate(4 798)">
<title>community_types</title>
<polygon fill="#ffffff" stroke="transparent" points="-4,4 -4,-798 674.5,-798 674.5,4 -4,4"/>
<!-- community_types -->
<g id="node1" class="node">
<title>community_types</title>
<polygon fill="#efefef" stroke="transparent" points="344,-195.5 344,-230.5 625,-230.5 625,-195.5 344,-195.5"/>
<polygon fill="none" stroke="#000000" points="344,-195.5 344,-230.5 625,-230.5 625,-195.5 344,-195.5"/>
<text text-anchor="start" x="350.7059" y="-208.3" font-family="Arial Bold" font-size="18.00" fill="#000000">community_types</text>
<text text-anchor="start" x="490.7261" y="-208.3" font-family="Arial" font-size="14.00" fill="#000000">    </text>
<text text-anchor="start" x="524.9309" y="-208.3" font-family="Arial" font-size="14.00" fill="#666666">[BASE TABLE]</text>
<polygon fill="none" stroke="#000000" points="344,-165.5 344,-195.5 625,-195.5 625,-165.5 344,-165.5"/>
<text text-anchor="start" x="351" y="-176.9" font-family="Arial" font-size="14.00" fill="#000000">id </text>
<text text-anchor="start" x="365.7798" y="-176.9" font-family="Arial" font-size="14.00" fill="#666666">[bigint(20) unsigned]</text>
<polygon fill="none" stroke="#000000" points="344,-135.5 344,-165.5 625,-165.5 625,-135.5 344,-135.5"/>
<text text-anchor="start" x="351" y="-146.9" font-family="Arial" font-size="14.00" fill="#000000">community_type_name </text>
<text text-anchor="start" x="499.5862" y="-146.9" font-family="Arial" font-size="14.00" fill="#666666">[varchar(255)]</text>
<polygon fill="none" stroke="#000000" points="344,-105.5 344,-135.5 625,-135.5 625,-105.5 344,-105.5"/>
<text text-anchor="start" x="351" y="-116.9" font-family="Arial" font-size="14.00" fill="#000000">community_type_value </text>
<text text-anchor="start" x="498.0322" y="-116.9" font-family="Arial" font-size="14.00" fill="#666666">[text]</text>
<polygon fill="none" stroke="#000000" points="344,-75.5 344,-105.5 625,-105.5 625,-75.5 344,-75.5"/>
<text text-anchor="start" x="351" y="-86.9" font-family="Arial" font-size="14.00" fill="#000000">created_at </text>
<text text-anchor="start" x="421.028" y="-86.9" font-family="Arial" font-size="14.00" fill="#666666">[timestamp]</text>
<polygon fill="none" stroke="#000000" points="344,-45.5 344,-75.5 625,-75.5 625,-45.5 344,-45.5"/>
<text text-anchor="start" x="351" y="-56.9" font-family="Arial" font-size="14.00" fill="#000000">updated_at </text>
<text text-anchor="start" x="424.9326" y="-56.9" font-family="Arial" font-size="14.00" fill="#666666">[timestamp]</text>
<polygon fill="none" stroke="#000000" stroke-width="3" points="342,-44.5 342,-232.5 626,-232.5 626,-44.5 342,-44.5"/>
</g>
<!-- communities -->
<g id="node2" class="node">
<title>communities</title>
<polygon fill="#efefef" stroke="transparent" points="341,-715.5 341,-750.5 628,-750.5 628,-715.5 341,-715.5"/>
<polygon fill="none" stroke="#000000" points="341,-715.5 341,-750.5 628,-750.5 628,-715.5 341,-715.5"/>
<text text-anchor="start" x="370.2161" y="-728.3" font-family="Arial Bold" font-size="18.00" fill="#000000">communities</text>
<text text-anchor="start" x="471.2159" y="-728.3" font-family="Arial" font-size="14.00" fill="#000000">    </text>
<text text-anchor="start" x="505.4207" y="-728.3" font-family="Arial" font-size="14.00" fill="#666666">[BASE TABLE]</text>
<polygon fill="none" stroke="#000000" points="341,-685.5 341,-715.5 628,-715.5 628,-685.5 341,-685.5"/>
<text text-anchor="start" x="348" y="-696.9" font-family="Arial" font-size="14.00" fill="#000000">id    </text>
<text text-anchor="start" x="393.094" y="-696.9" font-family="Arial" font-size="14.00" fill="#666666">[bigint(20) unsigned]</text>
<polygon fill="none" stroke="#000000" points="341,-655.5 341,-685.5 628,-685.5 628,-655.5 341,-655.5"/>
<text text-anchor="start" x="348" y="-666.9" font-family="Arial" font-size="14.00" fill="#000000">author_id    </text>
<text text-anchor="start" x="440.5582" y="-666.9" font-family="Arial" font-size="14.00" fill="#666666">[bigint(20) unsigned]</text>
<polygon fill="none" stroke="#000000" points="341,-625.5 341,-655.5 628,-655.5 628,-625.5 341,-625.5"/>
<text text-anchor="start" x="348" y="-636.9" font-family="Arial" font-size="14.00" fill="#000000">post_title    </text>
<text text-anchor="start" x="438.2202" y="-636.9" font-family="Arial" font-size="14.00" fill="#666666">[varchar(255)]</text>
<polygon fill="none" stroke="#000000" points="341,-595.5 341,-625.5 628,-625.5 628,-595.5 341,-595.5"/>
<text text-anchor="start" x="348" y="-606.9" font-family="Arial" font-size="14.00" fill="#000000">post_content    </text>
<text text-anchor="start" x="462.3548" y="-606.9" font-family="Arial" font-size="14.00" fill="#666666">[longtext]</text>
<polygon fill="none" stroke="#000000" points="341,-565.5 341,-595.5 628,-595.5 628,-565.5 341,-565.5"/>
<text text-anchor="start" x="348" y="-576.9" font-family="Arial" font-size="14.00" fill="#000000">post_excerpt    </text>
<text text-anchor="start" x="462.3422" y="-576.9" font-family="Arial" font-size="14.00" fill="#666666">[text]</text>
<polygon fill="none" stroke="#000000" points="341,-535.5 341,-565.5 628,-565.5 628,-535.5 341,-535.5"/>
<text text-anchor="start" x="348" y="-546.9" font-family="Arial" font-size="14.00" fill="#000000">cover_image    </text>
<text text-anchor="start" x="462.3282" y="-546.9" font-family="Arial" font-size="14.00" fill="#666666">[varchar(255)]</text>
<polygon fill="none" stroke="#000000" points="341,-505.5 341,-535.5 628,-535.5 628,-505.5 341,-505.5"/>
<text text-anchor="start" x="348" y="-516.9" font-family="Arial" font-size="14.00" fill="#000000">post_date    </text>
<text text-anchor="start" x="443.6816" y="-516.9" font-family="Arial" font-size="14.00" fill="#666666">[datetime]</text>
<polygon fill="none" stroke="#000000" points="341,-475.5 341,-505.5 628,-505.5 628,-475.5 341,-475.5"/>
<text text-anchor="start" x="348" y="-486.9" font-family="Arial" font-size="14.00" fill="#000000">post_modified    </text>
<text text-anchor="start" x="469.338" y="-486.9" font-family="Arial" font-size="14.00" fill="#666666">[datetime]</text>
<polygon fill="none" stroke="#000000" points="341,-445.5 341,-475.5 628,-475.5 628,-445.5 341,-445.5"/>
<text text-anchor="start" x="348" y="-456.9" font-family="Arial" font-size="14.00" fill="#000000">post_status    </text>
<text text-anchor="start" x="453.7896" y="-456.9" font-family="Arial" font-size="14.00" fill="#666666">[varchar(255)]</text>
<polygon fill="none" stroke="#000000" points="341,-415.5 341,-445.5 628,-445.5 628,-415.5 341,-415.5"/>
<text text-anchor="start" x="347.5947" y="-426.9" font-family="Arial" font-size="14.00" fill="#000000">communitytype_id    </text>
<text text-anchor="start" x="494.5933" y="-426.9" font-family="Arial" font-size="14.00" fill="#666666">[bigint(20) unsigned]</text>
<polygon fill="none" stroke="#000000" points="341,-385.5 341,-415.5 628,-415.5 628,-385.5 341,-385.5"/>
<text text-anchor="start" x="348" y="-396.9" font-family="Arial" font-size="14.00" fill="#000000">created_at    </text>
<text text-anchor="start" x="448.3422" y="-396.9" font-family="Arial" font-size="14.00" fill="#666666">[timestamp]</text>
<polygon fill="none" stroke="#000000" points="341,-355.5 341,-385.5 628,-385.5 628,-355.5 341,-355.5"/>
<text text-anchor="start" x="348" y="-366.9" font-family="Arial" font-size="14.00" fill="#000000">updated_at    </text>
<text text-anchor="start" x="452.2468" y="-366.9" font-family="Arial" font-size="14.00" fill="#666666">[timestamp]</text>
</g>
<!-- communities&#45;&gt;community_types -->
<g id="edge1" class="edge">
<title>communities:communitytype_id&#45;&gt;community_types:id</title>
<path fill="none" stroke="#000000" d="M331.2674,-427.6924C286.0208,-400.2266 291.9129,-180.5 344,-180.5"/>
<polygon fill="#000000" stroke="#000000" points="331.3918,-427.7282 339.7527,-434.8237 336.1959,-429.1141 341,-430.5 341,-430.5 341,-430.5 336.1959,-429.1141 342.2473,-426.1763 331.3918,-427.7282 331.3918,-427.7282"/>
<text text-anchor="start" x="7.3825" y="-440.5" font-family="Arial" font-size="10.00" fill="#000000">FOREIGN KEY (communitytype_id) REFERENCES community_types (id)</text>
</g>
</g>
</svg>
