<?xml version="1.0" encoding="UTF-8" standalone="no"?>
<!DOCTYPE svg PUBLIC "-//W3C//DTD SVG 1.1//EN"
 "http://www.w3.org/Graphics/SVG/1.1/DTD/svg11.dtd">
<!-- Generated by graphviz version 2.40.1 (20161225.0304)
 -->
<!-- Title: community_metas Pages: 1 -->
<svg width="641pt" height="832pt"
 viewBox="0.00 0.00 640.50 832.00" xmlns="http://www.w3.org/2000/svg" xmlns:xlink="http://www.w3.org/1999/xlink">
<g id="graph0" class="graph" transform="scale(1 1) rotate(0) translate(4 828)">
<title>community_metas</title>
<polygon fill="#ffffff" stroke="transparent" points="-4,4 -4,-828 636.5,-828 636.5,4 -4,4"/>
<!-- community_metas -->
<g id="node1" class="node">
<title>community_metas</title>
<polygon fill="#efefef" stroke="transparent" points="300,-742.5 300,-777.5 587,-777.5 587,-742.5 300,-742.5"/>
<polygon fill="none" stroke="#000000" points="300,-742.5 300,-777.5 587,-777.5 587,-742.5 300,-742.5"/>
<text text-anchor="start" x="306.7098" y="-755.3" font-family="Arial Bold" font-size="18.00" fill="#000000">community_metas</text>
<text text-anchor="start" x="452.7222" y="-755.3" font-family="Arial" font-size="14.00" fill="#000000">    </text>
<text text-anchor="start" x="486.927" y="-755.3" font-family="Arial" font-size="14.00" fill="#666666">[BASE TABLE]</text>
<polygon fill="none" stroke="#000000" points="300,-712.5 300,-742.5 587,-742.5 587,-712.5 300,-712.5"/>
<text text-anchor="start" x="307" y="-723.9" font-family="Arial" font-size="14.00" fill="#000000">id </text>
<text text-anchor="start" x="321.7798" y="-723.9" font-family="Arial" font-size="14.00" fill="#666666">[bigint(20) unsigned]</text>
<polygon fill="none" stroke="#000000" points="300,-682.5 300,-712.5 587,-712.5 587,-682.5 300,-682.5"/>
<text text-anchor="start" x="307" y="-693.9" font-family="Arial" font-size="14.00" fill="#000000">community_id </text>
<text text-anchor="start" x="397.2286" y="-693.9" font-family="Arial" font-size="14.00" fill="#666666">[bigint(20) unsigned]</text>
<polygon fill="none" stroke="#000000" points="300,-652.5 300,-682.5 587,-682.5 587,-652.5 300,-652.5"/>
<text text-anchor="start" x="307" y="-663.9" font-family="Arial" font-size="14.00" fill="#000000">community_meta_key </text>
<text text-anchor="start" x="447.021" y="-663.9" font-family="Arial" font-size="14.00" fill="#666666">[varchar(255)]</text>
<polygon fill="none" stroke="#000000" points="300,-622.5 300,-652.5 587,-652.5 587,-622.5 300,-622.5"/>
<text text-anchor="start" x="307" y="-633.9" font-family="Arial" font-size="14.00" fill="#000000">community_meta_value </text>
<text text-anchor="start" x="458.6928" y="-633.9" font-family="Arial" font-size="14.00" fill="#666666">[text]</text>
<polygon fill="none" stroke="#000000" points="300,-592.5 300,-622.5 587,-622.5 587,-592.5 300,-592.5"/>
<text text-anchor="start" x="307" y="-603.9" font-family="Arial" font-size="14.00" fill="#000000">created_at </text>
<text text-anchor="start" x="377.028" y="-603.9" font-family="Arial" font-size="14.00" fill="#666666">[timestamp]</text>
<polygon fill="none" stroke="#000000" points="300,-562.5 300,-592.5 587,-592.5 587,-562.5 300,-562.5"/>
<text text-anchor="start" x="307" y="-573.9" font-family="Arial" font-size="14.00" fill="#000000">updated_at </text>
<text text-anchor="start" x="380.9326" y="-573.9" font-family="Arial" font-size="14.00" fill="#666666">[timestamp]</text>
<polygon fill="none" stroke="#000000" stroke-width="3" points="298,-561.5 298,-779.5 588,-779.5 588,-561.5 298,-561.5"/>
</g>
<!-- communities -->
<g id="node2" class="node">
<title>communities</title>
<polygon fill="#efefef" stroke="transparent" points="300,-402.5 300,-437.5 587,-437.5 587,-402.5 300,-402.5"/>
<polygon fill="none" stroke="#000000" points="300,-402.5 300,-437.5 587,-437.5 587,-402.5 300,-402.5"/>
<text text-anchor="start" x="329.2161" y="-415.3" font-family="Arial Bold" font-size="18.00" fill="#000000">communities</text>
<text text-anchor="start" x="430.2159" y="-415.3" font-family="Arial" font-size="14.00" fill="#000000">    </text>
<text text-anchor="start" x="464.4207" y="-415.3" font-family="Arial" font-size="14.00" fill="#666666">[BASE TABLE]</text>
<polygon fill="none" stroke="#000000" points="300,-372.5 300,-402.5 587,-402.5 587,-372.5 300,-372.5"/>
<text text-anchor="start" x="307" y="-383.9" font-family="Arial" font-size="14.00" fill="#000000">id    </text>
<text text-anchor="start" x="352.094" y="-383.9" font-family="Arial" font-size="14.00" fill="#666666">[bigint(20) unsigned]</text>
<polygon fill="none" stroke="#000000" points="300,-342.5 300,-372.5 587,-372.5 587,-342.5 300,-342.5"/>
<text text-anchor="start" x="307" y="-353.9" font-family="Arial" font-size="14.00" fill="#000000">author_id    </text>
<text text-anchor="start" x="399.5582" y="-353.9" font-family="Arial" font-size="14.00" fill="#666666">[bigint(20) unsigned]</text>
<polygon fill="none" stroke="#000000" points="300,-312.5 300,-342.5 587,-342.5 587,-312.5 300,-312.5"/>
<text text-anchor="start" x="307" y="-323.9" font-family="Arial" font-size="14.00" fill="#000000">post_title    </text>
<text text-anchor="start" x="397.2202" y="-323.9" font-family="Arial" font-size="14.00" fill="#666666">[varchar(255)]</text>
<polygon fill="none" stroke="#000000" points="300,-282.5 300,-312.5 587,-312.5 587,-282.5 300,-282.5"/>
<text text-anchor="start" x="307" y="-293.9" font-family="Arial" font-size="14.00" fill="#000000">post_content    </text>
<text text-anchor="start" x="421.3548" y="-293.9" font-family="Arial" font-size="14.00" fill="#666666">[longtext]</text>
<polygon fill="none" stroke="#000000" points="300,-252.5 300,-282.5 587,-282.5 587,-252.5 300,-252.5"/>
<text text-anchor="start" x="307" y="-263.9" font-family="Arial" font-size="14.00" fill="#000000">post_excerpt    </text>
<text text-anchor="start" x="421.3422" y="-263.9" font-family="Arial" font-size="14.00" fill="#666666">[text]</text>
<polygon fill="none" stroke="#000000" points="300,-222.5 300,-252.5 587,-252.5 587,-222.5 300,-222.5"/>
<text text-anchor="start" x="307" y="-233.9" font-family="Arial" font-size="14.00" fill="#000000">cover_image    </text>
<text text-anchor="start" x="421.3282" y="-233.9" font-family="Arial" font-size="14.00" fill="#666666">[varchar(255)]</text>
<polygon fill="none" stroke="#000000" points="300,-192.5 300,-222.5 587,-222.5 587,-192.5 300,-192.5"/>
<text text-anchor="start" x="307" y="-203.9" font-family="Arial" font-size="14.00" fill="#000000">post_date    </text>
<text text-anchor="start" x="402.6816" y="-203.9" font-family="Arial" font-size="14.00" fill="#666666">[datetime]</text>
<polygon fill="none" stroke="#000000" points="300,-162.5 300,-192.5 587,-192.5 587,-162.5 300,-162.5"/>
<text text-anchor="start" x="307" y="-173.9" font-family="Arial" font-size="14.00" fill="#000000">post_modified    </text>
<text text-anchor="start" x="428.338" y="-173.9" font-family="Arial" font-size="14.00" fill="#666666">[datetime]</text>
<polygon fill="none" stroke="#000000" points="300,-132.5 300,-162.5 587,-162.5 587,-132.5 300,-132.5"/>
<text text-anchor="start" x="307" y="-143.9" font-family="Arial" font-size="14.00" fill="#000000">post_status    </text>
<text text-anchor="start" x="412.7896" y="-143.9" font-family="Arial" font-size="14.00" fill="#666666">[varchar(255)]</text>
<polygon fill="none" stroke="#000000" points="300,-102.5 300,-132.5 587,-132.5 587,-102.5 300,-102.5"/>
<text text-anchor="start" x="306.5947" y="-113.9" font-family="Arial" font-size="14.00" fill="#000000">communitytype_id    </text>
<text text-anchor="start" x="453.5933" y="-113.9" font-family="Arial" font-size="14.00" fill="#666666">[bigint(20) unsigned]</text>
<polygon fill="none" stroke="#000000" points="300,-72.5 300,-102.5 587,-102.5 587,-72.5 300,-72.5"/>
<text text-anchor="start" x="307" y="-83.9" font-family="Arial" font-size="14.00" fill="#000000">created_at    </text>
<text text-anchor="start" x="407.3422" y="-83.9" font-family="Arial" font-size="14.00" fill="#666666">[timestamp]</text>
<polygon fill="none" stroke="#000000" points="300,-42.5 300,-72.5 587,-72.5 587,-42.5 300,-42.5"/>
<text text-anchor="start" x="307" y="-53.9" font-family="Arial" font-size="14.00" fill="#000000">updated_at    </text>
<text text-anchor="start" x="411.2468" y="-53.9" font-family="Arial" font-size="14.00" fill="#666666">[timestamp]</text>
</g>
<!-- community_metas&#45;&gt;communities -->
<g id="edge1" class="edge">
<title>community_metas:community_id&#45;&gt;communities:id</title>
<path fill="none" stroke="#000000" d="M290.0381,-695.183C231.2888,-666.815 234.6094,-387.5 300,-387.5"/>
<polygon fill="#000000" stroke="#000000" points="290.26,-695.2345 298.9805,-701.883 295.13,-696.3672 300,-697.5 300,-697.5 300,-697.5 295.13,-696.3672 301.0195,-693.117 290.26,-695.2345 290.26,-695.2345"/>
<text text-anchor="start" x="6.67" y="-707.5" font-family="Arial" font-size="10.00" fill="#000000">FOREIGN KEY (community_id) REFERENCES communities (id)</text>
</g>
</g>
</svg>
