<?xml version="1.0" encoding="UTF-8" standalone="no"?>
<!DOCTYPE svg PUBLIC "-//W3C//DTD SVG 1.1//EN"
 "http://www.w3.org/Graphics/SVG/1.1/DTD/svg11.dtd">
<!-- Generated by graphviz version 2.40.1 (20161225.0304)
 -->
<!-- Title: event_formats Pages: 1 -->
<svg width="643pt" height="982pt"
 viewBox="0.00 0.00 642.50 982.00" xmlns="http://www.w3.org/2000/svg" xmlns:xlink="http://www.w3.org/1999/xlink">
<g id="graph0" class="graph" transform="scale(1 1) rotate(0) translate(4 978)">
<title>event_formats</title>
<polygon fill="#ffffff" stroke="transparent" points="-4,4 -4,-978 638.5,-978 638.5,4 -4,4"/>
<!-- event_formats -->
<g id="node1" class="node">
<title>event_formats</title>
<polygon fill="#efefef" stroke="transparent" points="327,-195.5 327,-230.5 582,-230.5 582,-195.5 327,-195.5"/>
<polygon fill="none" stroke="#000000" points="327,-195.5 327,-230.5 582,-230.5 582,-195.5 327,-195.5"/>
<text text-anchor="start" x="333.7019" y="-208.3" font-family="Arial Bold" font-size="18.00" fill="#000000">event_formats</text>
<text text-anchor="start" x="447.7301" y="-208.3" font-family="Arial" font-size="14.00" fill="#000000">    </text>
<text text-anchor="start" x="481.9349" y="-208.3" font-family="Arial" font-size="14.00" fill="#666666">[BASE TABLE]</text>
<polygon fill="none" stroke="#000000" points="327,-165.5 327,-195.5 582,-195.5 582,-165.5 327,-165.5"/>
<text text-anchor="start" x="334" y="-176.9" font-family="Arial" font-size="14.00" fill="#000000">id </text>
<text text-anchor="start" x="348.7798" y="-176.9" font-family="Arial" font-size="14.00" fill="#666666">[bigint(20) unsigned]</text>
<polygon fill="none" stroke="#000000" points="327,-135.5 327,-165.5 582,-165.5 582,-135.5 327,-135.5"/>
<text text-anchor="start" x="334" y="-146.9" font-family="Arial" font-size="14.00" fill="#000000">event_format_name </text>
<text text-anchor="start" x="462.3702" y="-146.9" font-family="Arial" font-size="14.00" fill="#666666">[varchar(255)]</text>
<polygon fill="none" stroke="#000000" points="327,-105.5 327,-135.5 582,-135.5 582,-105.5 327,-105.5"/>
<text text-anchor="start" x="334" y="-116.9" font-family="Arial" font-size="14.00" fill="#000000">event_format_value </text>
<text text-anchor="start" x="460.8162" y="-116.9" font-family="Arial" font-size="14.00" fill="#666666">[varchar(255)]</text>
<polygon fill="none" stroke="#000000" points="327,-75.5 327,-105.5 582,-105.5 582,-75.5 327,-75.5"/>
<text text-anchor="start" x="334" y="-86.9" font-family="Arial" font-size="14.00" fill="#000000">created_at </text>
<text text-anchor="start" x="404.028" y="-86.9" font-family="Arial" font-size="14.00" fill="#666666">[timestamp]</text>
<polygon fill="none" stroke="#000000" points="327,-45.5 327,-75.5 582,-75.5 582,-45.5 327,-45.5"/>
<text text-anchor="start" x="334" y="-56.9" font-family="Arial" font-size="14.00" fill="#000000">updated_at </text>
<text text-anchor="start" x="407.9326" y="-56.9" font-family="Arial" font-size="14.00" fill="#666666">[timestamp]</text>
<polygon fill="none" stroke="#000000" stroke-width="3" points="325,-44.5 325,-232.5 583,-232.5 583,-44.5 325,-44.5"/>
</g>
<!-- events -->
<g id="node2" class="node">
<title>events</title>
<polygon fill="#efefef" stroke="transparent" points="317,-895.5 317,-930.5 592,-930.5 592,-895.5 317,-895.5"/>
<polygon fill="none" stroke="#000000" points="317,-895.5 317,-930.5 592,-930.5 592,-895.5 317,-895.5"/>
<text text-anchor="start" x="364.2056" y="-908.3" font-family="Arial Bold" font-size="18.00" fill="#000000">events</text>
<text text-anchor="start" x="417.2264" y="-908.3" font-family="Arial" font-size="14.00" fill="#000000">    </text>
<text text-anchor="start" x="451.4312" y="-908.3" font-family="Arial" font-size="14.00" fill="#666666">[BASE TABLE]</text>
<polygon fill="none" stroke="#000000" points="317,-865.5 317,-895.5 592,-895.5 592,-865.5 317,-865.5"/>
<text text-anchor="start" x="324" y="-876.9" font-family="Arial" font-size="14.00" fill="#000000">id    </text>
<text text-anchor="start" x="369.094" y="-876.9" font-family="Arial" font-size="14.00" fill="#666666">[bigint(20) unsigned]</text>
<polygon fill="none" stroke="#000000" points="317,-835.5 317,-865.5 592,-865.5 592,-835.5 317,-835.5"/>
<text text-anchor="start" x="324" y="-846.9" font-family="Arial" font-size="14.00" fill="#000000">author_id    </text>
<text text-anchor="start" x="416.5582" y="-846.9" font-family="Arial" font-size="14.00" fill="#666666">[bigint(20) unsigned]</text>
<polygon fill="none" stroke="#000000" points="317,-805.5 317,-835.5 592,-835.5 592,-805.5 317,-805.5"/>
<text text-anchor="start" x="324" y="-816.9" font-family="Arial" font-size="14.00" fill="#000000">event_title    </text>
<text text-anchor="start" x="422.0028" y="-816.9" font-family="Arial" font-size="14.00" fill="#666666">[varchar(255)]</text>
<polygon fill="none" stroke="#000000" points="317,-775.5 317,-805.5 592,-805.5 592,-775.5 317,-775.5"/>
<text text-anchor="start" x="324" y="-786.9" font-family="Arial" font-size="14.00" fill="#000000">event_content    </text>
<text text-anchor="start" x="446.1374" y="-786.9" font-family="Arial" font-size="14.00" fill="#666666">[longtext]</text>
<polygon fill="none" stroke="#000000" points="317,-745.5 317,-775.5 592,-775.5 592,-745.5 317,-745.5"/>
<text text-anchor="start" x="324" y="-756.9" font-family="Arial" font-size="14.00" fill="#000000">event_excerpt    </text>
<text text-anchor="start" x="446.1248" y="-756.9" font-family="Arial" font-size="14.00" fill="#666666">[text]</text>
<polygon fill="none" stroke="#000000" points="317,-715.5 317,-745.5 592,-745.5 592,-715.5 317,-715.5"/>
<text text-anchor="start" x="324" y="-726.9" font-family="Arial" font-size="14.00" fill="#000000">event_location    </text>
<text text-anchor="start" x="448.46" y="-726.9" font-family="Arial" font-size="14.00" fill="#666666">[longtext]</text>
<polygon fill="none" stroke="#000000" points="317,-685.5 317,-715.5 592,-715.5 592,-685.5 317,-685.5"/>
<text text-anchor="start" x="324" y="-696.9" font-family="Arial" font-size="14.00" fill="#000000">cover_image    </text>
<text text-anchor="start" x="438.3282" y="-696.9" font-family="Arial" font-size="14.00" fill="#666666">[varchar(255)]</text>
<polygon fill="none" stroke="#000000" points="317,-655.5 317,-685.5 592,-685.5 592,-655.5 317,-655.5"/>
<text text-anchor="start" x="324" y="-666.9" font-family="Arial" font-size="14.00" fill="#000000">start_date    </text>
<text text-anchor="start" x="420.4502" y="-666.9" font-family="Arial" font-size="14.00" fill="#666666">[datetime]</text>
<polygon fill="none" stroke="#000000" points="317,-625.5 317,-655.5 592,-655.5 592,-625.5 317,-625.5"/>
<text text-anchor="start" x="324" y="-636.9" font-family="Arial" font-size="14.00" fill="#000000">end_date    </text>
<text text-anchor="start" x="416.5736" y="-636.9" font-family="Arial" font-size="14.00" fill="#666666">[datetime]</text>
<polygon fill="none" stroke="#000000" points="317,-595.5 317,-625.5 592,-625.5 592,-595.5 317,-595.5"/>
<text text-anchor="start" x="324" y="-606.9" font-family="Arial" font-size="14.00" fill="#000000">event_status    </text>
<text text-anchor="start" x="437.5722" y="-606.9" font-family="Arial" font-size="14.00" fill="#666666">[varchar(255)]</text>
<polygon fill="none" stroke="#000000" points="317,-565.5 317,-595.5 592,-595.5 592,-565.5 317,-565.5"/>
<text text-anchor="start" x="324" y="-576.9" font-family="Arial" font-size="14.00" fill="#000000">eventtype_id    </text>
<text text-anchor="start" x="437.5708" y="-576.9" font-family="Arial" font-size="14.00" fill="#666666">[bigint(20) unsigned]</text>
<polygon fill="none" stroke="#000000" points="317,-535.5 317,-565.5 592,-565.5 592,-535.5 317,-535.5"/>
<text text-anchor="start" x="323.8114" y="-546.9" font-family="Arial" font-size="14.00" fill="#000000">event_format_id    </text>
<text text-anchor="start" x="458.3766" y="-546.9" font-family="Arial" font-size="14.00" fill="#666666">[bigint(20) unsigned]</text>
<polygon fill="none" stroke="#000000" points="317,-505.5 317,-535.5 592,-535.5 592,-505.5 317,-505.5"/>
<text text-anchor="start" x="324" y="-516.9" font-family="Arial" font-size="14.00" fill="#000000">attendees_id    </text>
<text text-anchor="start" x="438.3534" y="-516.9" font-family="Arial" font-size="14.00" fill="#666666">[bigint(20) unsigned]</text>
<polygon fill="none" stroke="#000000" points="317,-475.5 317,-505.5 592,-505.5 592,-475.5 317,-475.5"/>
<text text-anchor="start" x="324" y="-486.9" font-family="Arial" font-size="14.00" fill="#000000">location_id    </text>
<text text-anchor="start" x="425.1108" y="-486.9" font-family="Arial" font-size="14.00" fill="#666666">[bigint(20) unsigned]</text>
<polygon fill="none" stroke="#000000" points="317,-445.5 317,-475.5 592,-475.5 592,-445.5 317,-445.5"/>
<text text-anchor="start" x="324" y="-456.9" font-family="Arial" font-size="14.00" fill="#000000">capacity_id    </text>
<text text-anchor="start" x="428.2216" y="-456.9" font-family="Arial" font-size="14.00" fill="#666666">[bigint(20) unsigned]</text>
<polygon fill="none" stroke="#000000" points="317,-415.5 317,-445.5 592,-445.5 592,-415.5 317,-415.5"/>
<text text-anchor="start" x="324" y="-426.9" font-family="Arial" font-size="14.00" fill="#000000">extra_content    </text>
<text text-anchor="start" x="443.0154" y="-426.9" font-family="Arial" font-size="14.00" fill="#666666">[json]</text>
<polygon fill="none" stroke="#000000" points="317,-385.5 317,-415.5 592,-415.5 592,-385.5 317,-385.5"/>
<text text-anchor="start" x="324" y="-396.9" font-family="Arial" font-size="14.00" fill="#000000">created_at    </text>
<text text-anchor="start" x="424.3422" y="-396.9" font-family="Arial" font-size="14.00" fill="#666666">[timestamp]</text>
<polygon fill="none" stroke="#000000" points="317,-355.5 317,-385.5 592,-385.5 592,-355.5 317,-355.5"/>
<text text-anchor="start" x="324" y="-366.9" font-family="Arial" font-size="14.00" fill="#000000">updated_at    </text>
<text text-anchor="start" x="428.2468" y="-366.9" font-family="Arial" font-size="14.00" fill="#666666">[timestamp]</text>
</g>
<!-- events&#45;&gt;event_formats -->
<g id="edge1" class="edge">
<title>events:event_format_id&#45;&gt;event_formats:id</title>
<path fill="none" stroke="#000000" d="M306.9066,-548.5093C235.7405,-519.3863 248.282,-180.5 327,-180.5"/>
<polygon fill="#000000" stroke="#000000" points="307.189,-548.5649 316.1292,-554.915 312.0945,-549.5325 317,-550.5 317,-550.5 317,-550.5 312.0945,-549.5325 317.8708,-546.085 307.189,-548.5649 307.189,-548.5649"/>
<text text-anchor="start" x="7.043" y="-560.5" font-family="Arial" font-size="10.00" fill="#000000">FOREIGN KEY (event_format_id) REFERENCES event_formats (id)</text>
</g>
</g>
</svg>
