<?xml version="1.0" encoding="UTF-8" standalone="no"?>
<!DOCTYPE svg PUBLIC "-//W3C//DTD SVG 1.1//EN"
 "http://www.w3.org/Graphics/SVG/1.1/DTD/svg11.dtd">
<!-- Generated by graphviz version 2.40.1 (20161225.0304)
 -->
<!-- Title: event_types Pages: 1 -->
<svg width="620pt" height="982pt"
 viewBox="0.00 0.00 619.50 982.00" xmlns="http://www.w3.org/2000/svg" xmlns:xlink="http://www.w3.org/1999/xlink">
<g id="graph0" class="graph" transform="scale(1 1) rotate(0) translate(4 978)">
<title>event_types</title>
<polygon fill="#ffffff" stroke="transparent" points="-4,4 -4,-978 615.5,-978 615.5,4 -4,4"/>
<!-- event_types -->
<g id="node1" class="node">
<title>event_types</title>
<polygon fill="#efefef" stroke="transparent" points="62.5,-195.5 62.5,-230.5 300.5,-230.5 300.5,-195.5 62.5,-195.5"/>
<polygon fill="none" stroke="#000000" points="62.5,-195.5 62.5,-230.5 300.5,-230.5 300.5,-195.5 62.5,-195.5"/>
<text text-anchor="start" x="69.1952" y="-208.3" font-family="Arial Bold" font-size="18.00" fill="#000000">event_types</text>
<text text-anchor="start" x="166.2368" y="-208.3" font-family="Arial" font-size="14.00" fill="#000000">    </text>
<text text-anchor="start" x="200.4416" y="-208.3" font-family="Arial" font-size="14.00" fill="#666666">[BASE TABLE]</text>
<polygon fill="none" stroke="#000000" points="62.5,-165.5 62.5,-195.5 300.5,-195.5 300.5,-165.5 62.5,-165.5"/>
<text text-anchor="start" x="69.5" y="-176.9" font-family="Arial" font-size="14.00" fill="#000000">id </text>
<text text-anchor="start" x="84.2798" y="-176.9" font-family="Arial" font-size="14.00" fill="#666666">[bigint(20) unsigned]</text>
<polygon fill="none" stroke="#000000" points="62.5,-135.5 62.5,-165.5 300.5,-165.5 300.5,-135.5 62.5,-135.5"/>
<text text-anchor="start" x="69.5" y="-146.9" font-family="Arial" font-size="14.00" fill="#000000">event_type_name </text>
<text text-anchor="start" x="184.6584" y="-146.9" font-family="Arial" font-size="14.00" fill="#666666">[varchar(255)]</text>
<polygon fill="none" stroke="#000000" points="62.5,-105.5 62.5,-135.5 300.5,-135.5 300.5,-105.5 62.5,-105.5"/>
<text text-anchor="start" x="69.5" y="-116.9" font-family="Arial" font-size="14.00" fill="#000000">event_type_value </text>
<text text-anchor="start" x="183.1044" y="-116.9" font-family="Arial" font-size="14.00" fill="#666666">[text]</text>
<polygon fill="none" stroke="#000000" points="62.5,-75.5 62.5,-105.5 300.5,-105.5 300.5,-75.5 62.5,-75.5"/>
<text text-anchor="start" x="69.5" y="-86.9" font-family="Arial" font-size="14.00" fill="#000000">created_at </text>
<text text-anchor="start" x="139.528" y="-86.9" font-family="Arial" font-size="14.00" fill="#666666">[timestamp]</text>
<polygon fill="none" stroke="#000000" points="62.5,-45.5 62.5,-75.5 300.5,-75.5 300.5,-45.5 62.5,-45.5"/>
<text text-anchor="start" x="69.5" y="-56.9" font-family="Arial" font-size="14.00" fill="#000000">updated_at </text>
<text text-anchor="start" x="143.4326" y="-56.9" font-family="Arial" font-size="14.00" fill="#666666">[timestamp]</text>
<polygon fill="none" stroke="#000000" stroke-width="3" points="61,-44.5 61,-232.5 302,-232.5 302,-44.5 61,-44.5"/>
</g>
<!-- events -->
<g id="node2" class="node">
<title>events</title>
<polygon fill="#efefef" stroke="transparent" points="43.5,-895.5 43.5,-930.5 318.5,-930.5 318.5,-895.5 43.5,-895.5"/>
<polygon fill="none" stroke="#000000" points="43.5,-895.5 43.5,-930.5 318.5,-930.5 318.5,-895.5 43.5,-895.5"/>
<text text-anchor="start" x="90.7056" y="-908.3" font-family="Arial Bold" font-size="18.00" fill="#000000">events</text>
<text text-anchor="start" x="143.7264" y="-908.3" font-family="Arial" font-size="14.00" fill="#000000">    </text>
<text text-anchor="start" x="177.9312" y="-908.3" font-family="Arial" font-size="14.00" fill="#666666">[BASE TABLE]</text>
<polygon fill="none" stroke="#000000" points="43.5,-865.5 43.5,-895.5 318.5,-895.5 318.5,-865.5 43.5,-865.5"/>
<text text-anchor="start" x="50.5" y="-876.9" font-family="Arial" font-size="14.00" fill="#000000">id    </text>
<text text-anchor="start" x="95.594" y="-876.9" font-family="Arial" font-size="14.00" fill="#666666">[bigint(20) unsigned]</text>
<polygon fill="none" stroke="#000000" points="43.5,-835.5 43.5,-865.5 318.5,-865.5 318.5,-835.5 43.5,-835.5"/>
<text text-anchor="start" x="50.5" y="-846.9" font-family="Arial" font-size="14.00" fill="#000000">author_id    </text>
<text text-anchor="start" x="143.0582" y="-846.9" font-family="Arial" font-size="14.00" fill="#666666">[bigint(20) unsigned]</text>
<polygon fill="none" stroke="#000000" points="43.5,-805.5 43.5,-835.5 318.5,-835.5 318.5,-805.5 43.5,-805.5"/>
<text text-anchor="start" x="50.5" y="-816.9" font-family="Arial" font-size="14.00" fill="#000000">event_title    </text>
<text text-anchor="start" x="148.5028" y="-816.9" font-family="Arial" font-size="14.00" fill="#666666">[varchar(255)]</text>
<polygon fill="none" stroke="#000000" points="43.5,-775.5 43.5,-805.5 318.5,-805.5 318.5,-775.5 43.5,-775.5"/>
<text text-anchor="start" x="50.5" y="-786.9" font-family="Arial" font-size="14.00" fill="#000000">event_content    </text>
<text text-anchor="start" x="172.6374" y="-786.9" font-family="Arial" font-size="14.00" fill="#666666">[longtext]</text>
<polygon fill="none" stroke="#000000" points="43.5,-745.5 43.5,-775.5 318.5,-775.5 318.5,-745.5 43.5,-745.5"/>
<text text-anchor="start" x="50.5" y="-756.9" font-family="Arial" font-size="14.00" fill="#000000">event_excerpt    </text>
<text text-anchor="start" x="172.6248" y="-756.9" font-family="Arial" font-size="14.00" fill="#666666">[text]</text>
<polygon fill="none" stroke="#000000" points="43.5,-715.5 43.5,-745.5 318.5,-745.5 318.5,-715.5 43.5,-715.5"/>
<text text-anchor="start" x="50.5" y="-726.9" font-family="Arial" font-size="14.00" fill="#000000">event_location    </text>
<text text-anchor="start" x="174.96" y="-726.9" font-family="Arial" font-size="14.00" fill="#666666">[longtext]</text>
<polygon fill="none" stroke="#000000" points="43.5,-685.5 43.5,-715.5 318.5,-715.5 318.5,-685.5 43.5,-685.5"/>
<text text-anchor="start" x="50.5" y="-696.9" font-family="Arial" font-size="14.00" fill="#000000">cover_image    </text>
<text text-anchor="start" x="164.8282" y="-696.9" font-family="Arial" font-size="14.00" fill="#666666">[varchar(255)]</text>
<polygon fill="none" stroke="#000000" points="43.5,-655.5 43.5,-685.5 318.5,-685.5 318.5,-655.5 43.5,-655.5"/>
<text text-anchor="start" x="50.5" y="-666.9" font-family="Arial" font-size="14.00" fill="#000000">start_date    </text>
<text text-anchor="start" x="146.9502" y="-666.9" font-family="Arial" font-size="14.00" fill="#666666">[datetime]</text>
<polygon fill="none" stroke="#000000" points="43.5,-625.5 43.5,-655.5 318.5,-655.5 318.5,-625.5 43.5,-625.5"/>
<text text-anchor="start" x="50.5" y="-636.9" font-family="Arial" font-size="14.00" fill="#000000">end_date    </text>
<text text-anchor="start" x="143.0736" y="-636.9" font-family="Arial" font-size="14.00" fill="#666666">[datetime]</text>
<polygon fill="none" stroke="#000000" points="43.5,-595.5 43.5,-625.5 318.5,-625.5 318.5,-595.5 43.5,-595.5"/>
<text text-anchor="start" x="50.5" y="-606.9" font-family="Arial" font-size="14.00" fill="#000000">event_status    </text>
<text text-anchor="start" x="164.0722" y="-606.9" font-family="Arial" font-size="14.00" fill="#666666">[varchar(255)]</text>
<polygon fill="none" stroke="#000000" points="43.5,-565.5 43.5,-595.5 318.5,-595.5 318.5,-565.5 43.5,-565.5"/>
<text text-anchor="start" x="50.5" y="-576.9" font-family="Arial" font-size="14.00" fill="#000000">eventtype_id    </text>
<text text-anchor="start" x="164.0708" y="-576.9" font-family="Arial" font-size="14.00" fill="#666666">[bigint(20) unsigned]</text>
<polygon fill="none" stroke="#000000" points="43.5,-535.5 43.5,-565.5 318.5,-565.5 318.5,-535.5 43.5,-535.5"/>
<text text-anchor="start" x="50.3114" y="-546.9" font-family="Arial" font-size="14.00" fill="#000000">event_format_id    </text>
<text text-anchor="start" x="184.8766" y="-546.9" font-family="Arial" font-size="14.00" fill="#666666">[bigint(20) unsigned]</text>
<polygon fill="none" stroke="#000000" points="43.5,-505.5 43.5,-535.5 318.5,-535.5 318.5,-505.5 43.5,-505.5"/>
<text text-anchor="start" x="50.5" y="-516.9" font-family="Arial" font-size="14.00" fill="#000000">attendees_id    </text>
<text text-anchor="start" x="164.8534" y="-516.9" font-family="Arial" font-size="14.00" fill="#666666">[bigint(20) unsigned]</text>
<polygon fill="none" stroke="#000000" points="43.5,-475.5 43.5,-505.5 318.5,-505.5 318.5,-475.5 43.5,-475.5"/>
<text text-anchor="start" x="50.5" y="-486.9" font-family="Arial" font-size="14.00" fill="#000000">location_id    </text>
<text text-anchor="start" x="151.6108" y="-486.9" font-family="Arial" font-size="14.00" fill="#666666">[bigint(20) unsigned]</text>
<polygon fill="none" stroke="#000000" points="43.5,-445.5 43.5,-475.5 318.5,-475.5 318.5,-445.5 43.5,-445.5"/>
<text text-anchor="start" x="50.5" y="-456.9" font-family="Arial" font-size="14.00" fill="#000000">capacity_id    </text>
<text text-anchor="start" x="154.7216" y="-456.9" font-family="Arial" font-size="14.00" fill="#666666">[bigint(20) unsigned]</text>
<polygon fill="none" stroke="#000000" points="43.5,-415.5 43.5,-445.5 318.5,-445.5 318.5,-415.5 43.5,-415.5"/>
<text text-anchor="start" x="50.5" y="-426.9" font-family="Arial" font-size="14.00" fill="#000000">extra_content    </text>
<text text-anchor="start" x="169.5154" y="-426.9" font-family="Arial" font-size="14.00" fill="#666666">[json]</text>
<polygon fill="none" stroke="#000000" points="43.5,-385.5 43.5,-415.5 318.5,-415.5 318.5,-385.5 43.5,-385.5"/>
<text text-anchor="start" x="50.5" y="-396.9" font-family="Arial" font-size="14.00" fill="#000000">created_at    </text>
<text text-anchor="start" x="150.8422" y="-396.9" font-family="Arial" font-size="14.00" fill="#666666">[timestamp]</text>
<polygon fill="none" stroke="#000000" points="43.5,-355.5 43.5,-385.5 318.5,-385.5 318.5,-355.5 43.5,-355.5"/>
<text text-anchor="start" x="50.5" y="-366.9" font-family="Arial" font-size="14.00" fill="#000000">updated_at    </text>
<text text-anchor="start" x="154.7468" y="-366.9" font-family="Arial" font-size="14.00" fill="#666666">[timestamp]</text>
</g>
<!-- events&#45;&gt;event_types -->
<g id="edge1" class="edge">
<title>events:eventtype_id&#45;&gt;event_types:id</title>
<path fill="none" stroke="#000000" d="M328.4325,-578.1404C375.4004,-554.192 355.1361,-355.1485 318.5,-313 243.1242,-226.2828 137.8758,-363.7172 62.5,-277 34.3637,-244.6302 19.6111,-180.5 62.5,-180.5"/>
<polygon fill="#000000" stroke="#000000" points="328.2292,-578.1886 317.4599,-576.1218 323.3646,-579.3443 318.5,-580.5 318.5,-580.5 318.5,-580.5 323.3646,-579.3443 319.5401,-584.8782 328.2292,-578.1886 328.2292,-578.1886"/>
<text text-anchor="start" x="325.7595" y="-590.5" font-family="Arial" font-size="10.00" fill="#000000">FOREIGN KEY (eventtype_id) REFERENCES event_types (id)</text>
</g>
</g>
</svg>
