<?xml version="1.0" encoding="UTF-8" standalone="no"?>
<!DOCTYPE svg PUBLIC "-//W3C//DTD SVG 1.1//EN"
 "http://www.w3.org/Graphics/SVG/1.1/DTD/svg11.dtd">
<!-- Generated by graphviz version 2.40.1 (20161225.0304)
 -->
<!-- Title: events Pages: 1 -->
<svg width="2050pt" height="1589pt"
 viewBox="0.00 0.00 2050.00 1589.00" xmlns="http://www.w3.org/2000/svg" xmlns:xlink="http://www.w3.org/1999/xlink">
<g id="graph0" class="graph" transform="scale(1 1) rotate(0) translate(4 1585)">
<title>events</title>
<polygon fill="#ffffff" stroke="transparent" points="-4,4 -4,-1585 2046,-1585 2046,4 -4,4"/>
<!-- events -->
<g id="node1" class="node">
<title>events</title>
<polygon fill="#efefef" stroke="transparent" points="698.5,-1162.5 698.5,-1197.5 943.5,-1197.5 943.5,-1162.5 698.5,-1162.5"/>
<polygon fill="none" stroke="#000000" points="698.5,-1162.5 698.5,-1197.5 943.5,-1197.5 943.5,-1162.5 698.5,-1162.5"/>
<text text-anchor="start" x="730.7056" y="-1175.3" font-family="Arial Bold" font-size="18.00" fill="#000000">events</text>
<text text-anchor="start" x="783.7264" y="-1175.3" font-family="Arial" font-size="14.00" fill="#000000">    </text>
<text text-anchor="start" x="817.9312" y="-1175.3" font-family="Arial" font-size="14.00" fill="#666666">[BASE TABLE]</text>
<polygon fill="none" stroke="#000000" points="698.5,-1132.5 698.5,-1162.5 943.5,-1162.5 943.5,-1132.5 698.5,-1132.5"/>
<text text-anchor="start" x="705.5" y="-1143.9" font-family="Arial" font-size="14.00" fill="#000000">id </text>
<text text-anchor="start" x="720.2798" y="-1143.9" font-family="Arial" font-size="14.00" fill="#666666">[bigint(20) unsigned]</text>
<polygon fill="none" stroke="#000000" points="698.5,-1102.5 698.5,-1132.5 943.5,-1132.5 943.5,-1102.5 698.5,-1102.5"/>
<text text-anchor="start" x="705.5" y="-1113.9" font-family="Arial" font-size="14.00" fill="#000000">author_id </text>
<text text-anchor="start" x="767.744" y="-1113.9" font-family="Arial" font-size="14.00" fill="#666666">[bigint(20) unsigned]</text>
<polygon fill="none" stroke="#000000" points="698.5,-1072.5 698.5,-1102.5 943.5,-1102.5 943.5,-1072.5 698.5,-1072.5"/>
<text text-anchor="start" x="705.5" y="-1083.9" font-family="Arial" font-size="14.00" fill="#000000">event_title </text>
<text text-anchor="start" x="773.1886" y="-1083.9" font-family="Arial" font-size="14.00" fill="#666666">[varchar(255)]</text>
<polygon fill="none" stroke="#000000" points="698.5,-1042.5 698.5,-1072.5 943.5,-1072.5 943.5,-1042.5 698.5,-1042.5"/>
<text text-anchor="start" x="705.5" y="-1053.9" font-family="Arial" font-size="14.00" fill="#000000">event_content </text>
<text text-anchor="start" x="797.3232" y="-1053.9" font-family="Arial" font-size="14.00" fill="#666666">[longtext]</text>
<polygon fill="none" stroke="#000000" points="698.5,-1012.5 698.5,-1042.5 943.5,-1042.5 943.5,-1012.5 698.5,-1012.5"/>
<text text-anchor="start" x="705.5" y="-1023.9" font-family="Arial" font-size="14.00" fill="#000000">event_excerpt </text>
<text text-anchor="start" x="797.3106" y="-1023.9" font-family="Arial" font-size="14.00" fill="#666666">[text]</text>
<polygon fill="none" stroke="#000000" points="698.5,-982.5 698.5,-1012.5 943.5,-1012.5 943.5,-982.5 698.5,-982.5"/>
<text text-anchor="start" x="705.5" y="-993.9" font-family="Arial" font-size="14.00" fill="#000000">event_location </text>
<text text-anchor="start" x="799.6458" y="-993.9" font-family="Arial" font-size="14.00" fill="#666666">[longtext]</text>
<polygon fill="none" stroke="#000000" points="698.5,-952.5 698.5,-982.5 943.5,-982.5 943.5,-952.5 698.5,-952.5"/>
<text text-anchor="start" x="705.5" y="-963.9" font-family="Arial" font-size="14.00" fill="#000000">cover_image </text>
<text text-anchor="start" x="789.514" y="-963.9" font-family="Arial" font-size="14.00" fill="#666666">[varchar(255)]</text>
<polygon fill="none" stroke="#000000" points="698.5,-922.5 698.5,-952.5 943.5,-952.5 943.5,-922.5 698.5,-922.5"/>
<text text-anchor="start" x="705.5" y="-933.9" font-family="Arial" font-size="14.00" fill="#000000">start_date </text>
<text text-anchor="start" x="771.636" y="-933.9" font-family="Arial" font-size="14.00" fill="#666666">[datetime]</text>
<polygon fill="none" stroke="#000000" points="698.5,-892.5 698.5,-922.5 943.5,-922.5 943.5,-892.5 698.5,-892.5"/>
<text text-anchor="start" x="705.5" y="-903.9" font-family="Arial" font-size="14.00" fill="#000000">end_date </text>
<text text-anchor="start" x="767.7594" y="-903.9" font-family="Arial" font-size="14.00" fill="#666666">[datetime]</text>
<polygon fill="none" stroke="#000000" points="698.5,-862.5 698.5,-892.5 943.5,-892.5 943.5,-862.5 698.5,-862.5"/>
<text text-anchor="start" x="705.5" y="-873.9" font-family="Arial" font-size="14.00" fill="#000000">event_status </text>
<text text-anchor="start" x="788.758" y="-873.9" font-family="Arial" font-size="14.00" fill="#666666">[varchar(255)]</text>
<polygon fill="none" stroke="#000000" points="698.5,-832.5 698.5,-862.5 943.5,-862.5 943.5,-832.5 698.5,-832.5"/>
<text text-anchor="start" x="705.5" y="-843.9" font-family="Arial" font-size="14.00" fill="#000000">eventtype_id </text>
<text text-anchor="start" x="788.7566" y="-843.9" font-family="Arial" font-size="14.00" fill="#666666">[bigint(20) unsigned]</text>
<polygon fill="none" stroke="#000000" points="698.5,-802.5 698.5,-832.5 943.5,-832.5 943.5,-802.5 698.5,-802.5"/>
<text text-anchor="start" x="705.4685" y="-813.9" font-family="Arial" font-size="14.00" fill="#000000">event_format_id </text>
<text text-anchor="start" x="809.7195" y="-813.9" font-family="Arial" font-size="14.00" fill="#666666">[bigint(20) unsigned]</text>
<polygon fill="none" stroke="#000000" points="698.5,-772.5 698.5,-802.5 943.5,-802.5 943.5,-772.5 698.5,-772.5"/>
<text text-anchor="start" x="705.5" y="-783.9" font-family="Arial" font-size="14.00" fill="#000000">attendees_id </text>
<text text-anchor="start" x="789.5392" y="-783.9" font-family="Arial" font-size="14.00" fill="#666666">[bigint(20) unsigned]</text>
<polygon fill="none" stroke="#000000" points="698.5,-742.5 698.5,-772.5 943.5,-772.5 943.5,-742.5 698.5,-742.5"/>
<text text-anchor="start" x="705.5" y="-753.9" font-family="Arial" font-size="14.00" fill="#000000">location_id </text>
<text text-anchor="start" x="776.2966" y="-753.9" font-family="Arial" font-size="14.00" fill="#666666">[bigint(20) unsigned]</text>
<polygon fill="none" stroke="#000000" points="698.5,-712.5 698.5,-742.5 943.5,-742.5 943.5,-712.5 698.5,-712.5"/>
<text text-anchor="start" x="705.5" y="-723.9" font-family="Arial" font-size="14.00" fill="#000000">capacity_id </text>
<text text-anchor="start" x="779.4074" y="-723.9" font-family="Arial" font-size="14.00" fill="#666666">[bigint(20) unsigned]</text>
<polygon fill="none" stroke="#000000" points="698.5,-682.5 698.5,-712.5 943.5,-712.5 943.5,-682.5 698.5,-682.5"/>
<text text-anchor="start" x="705.5" y="-693.9" font-family="Arial" font-size="14.00" fill="#000000">extra_content </text>
<text text-anchor="start" x="794.2012" y="-693.9" font-family="Arial" font-size="14.00" fill="#666666">[json]</text>
<polygon fill="none" stroke="#000000" points="698.5,-652.5 698.5,-682.5 943.5,-682.5 943.5,-652.5 698.5,-652.5"/>
<text text-anchor="start" x="705.5" y="-663.9" font-family="Arial" font-size="14.00" fill="#000000">created_at </text>
<text text-anchor="start" x="775.528" y="-663.9" font-family="Arial" font-size="14.00" fill="#666666">[timestamp]</text>
<polygon fill="none" stroke="#000000" points="698.5,-622.5 698.5,-652.5 943.5,-652.5 943.5,-622.5 698.5,-622.5"/>
<text text-anchor="start" x="705.5" y="-633.9" font-family="Arial" font-size="14.00" fill="#000000">updated_at </text>
<text text-anchor="start" x="779.4326" y="-633.9" font-family="Arial" font-size="14.00" fill="#666666">[timestamp]</text>
<polygon fill="none" stroke="#000000" stroke-width="3" points="696.5,-621.5 696.5,-1199.5 944.5,-1199.5 944.5,-621.5 696.5,-621.5"/>
</g>
<!-- attendees -->
<g id="node2" class="node">
<title>attendees</title>
<polygon fill="#efefef" stroke="transparent" points="43.5,-342.5 43.5,-377.5 270.5,-377.5 270.5,-342.5 43.5,-342.5"/>
<polygon fill="none" stroke="#000000" points="43.5,-342.5 43.5,-377.5 270.5,-377.5 270.5,-342.5 43.5,-342.5"/>
<text text-anchor="start" x="53.6952" y="-355.3" font-family="Arial Bold" font-size="18.00" fill="#000000">attendees</text>
<text text-anchor="start" x="132.7368" y="-355.3" font-family="Arial" font-size="14.00" fill="#000000">    </text>
<text text-anchor="start" x="166.9416" y="-355.3" font-family="Arial" font-size="14.00" fill="#666666">[BASE TABLE]</text>
<polygon fill="none" stroke="#000000" points="43.5,-312.5 43.5,-342.5 270.5,-342.5 270.5,-312.5 43.5,-312.5"/>
<text text-anchor="start" x="50.5" y="-323.9" font-family="Arial" font-size="14.00" fill="#000000">id    </text>
<text text-anchor="start" x="95.594" y="-323.9" font-family="Arial" font-size="14.00" fill="#666666">[bigint(20) unsigned]</text>
<polygon fill="none" stroke="#000000" points="43.5,-282.5 43.5,-312.5 270.5,-312.5 270.5,-282.5 43.5,-282.5"/>
<text text-anchor="start" x="50.0365" y="-293.9" font-family="Arial" font-size="14.00" fill="#000000">event_id    </text>
<text text-anchor="start" x="137.1515" y="-293.9" font-family="Arial" font-size="14.00" fill="#666666">[bigint(20) unsigned]</text>
<polygon fill="none" stroke="#000000" points="43.5,-252.5 43.5,-282.5 270.5,-282.5 270.5,-252.5 43.5,-252.5"/>
<text text-anchor="start" x="50.5" y="-263.9" font-family="Arial" font-size="14.00" fill="#000000">attendees_list    </text>
<text text-anchor="start" x="171.068" y="-263.9" font-family="Arial" font-size="14.00" fill="#666666">[longtext]</text>
<polygon fill="none" stroke="#000000" points="43.5,-222.5 43.5,-252.5 270.5,-252.5 270.5,-222.5 43.5,-222.5"/>
<text text-anchor="start" x="50.5" y="-233.9" font-family="Arial" font-size="14.00" fill="#000000">attendees_type    </text>
<text text-anchor="start" x="180.42" y="-233.9" font-family="Arial" font-size="14.00" fill="#666666">[text]</text>
<polygon fill="none" stroke="#000000" points="43.5,-192.5 43.5,-222.5 270.5,-222.5 270.5,-192.5 43.5,-192.5"/>
<text text-anchor="start" x="50.5" y="-203.9" font-family="Arial" font-size="14.00" fill="#000000">created_at    </text>
<text text-anchor="start" x="150.8422" y="-203.9" font-family="Arial" font-size="14.00" fill="#666666">[timestamp]</text>
<polygon fill="none" stroke="#000000" points="43.5,-162.5 43.5,-192.5 270.5,-192.5 270.5,-162.5 43.5,-162.5"/>
<text text-anchor="start" x="50.5" y="-173.9" font-family="Arial" font-size="14.00" fill="#000000">updated_at    </text>
<text text-anchor="start" x="154.7468" y="-173.9" font-family="Arial" font-size="14.00" fill="#666666">[timestamp]</text>
</g>
<!-- events&#45;&gt;attendees -->
<g id="edge8" class="edge">
<title>events:attendees_id&#45;&gt;attendees:id</title>
<path fill="none" stroke="#000000" d="M688.3567,-787.4275C496.1853,-784.6473 434.7239,-701.9332 321.5,-541 265.3641,-461.21 368.0586,-327.5 270.5,-327.5"/>
<polygon fill="#000000" stroke="#000000" points="688.5003,-787.4284 698.4678,-791.9999 693.5001,-787.4642 698.5,-787.5 698.5,-787.5 698.5,-787.5 693.5001,-787.4642 698.5322,-783.0001 688.5003,-787.4284 688.5003,-787.4284"/>
<text text-anchor="start" x="421.48" y="-797.5" font-family="Arial" font-size="10.00" fill="#000000">FOREIGN KEY (attendees_id) REFERENCES attendees (id)</text>
</g>
<!-- capacities -->
<g id="node3" class="node">
<title>capacities</title>
<polygon fill="#efefef" stroke="transparent" points="374.5,-342.5 374.5,-377.5 603.5,-377.5 603.5,-342.5 374.5,-342.5"/>
<polygon fill="none" stroke="#000000" points="374.5,-342.5 374.5,-377.5 603.5,-377.5 603.5,-342.5 374.5,-342.5"/>
<text text-anchor="start" x="385.2083" y="-355.3" font-family="Arial Bold" font-size="18.00" fill="#000000">capacities</text>
<text text-anchor="start" x="465.2237" y="-355.3" font-family="Arial" font-size="14.00" fill="#000000">    </text>
<text text-anchor="start" x="499.4285" y="-355.3" font-family="Arial" font-size="14.00" fill="#666666">[BASE TABLE]</text>
<polygon fill="none" stroke="#000000" points="374.5,-312.5 374.5,-342.5 603.5,-342.5 603.5,-312.5 374.5,-312.5"/>
<text text-anchor="start" x="381.5" y="-323.9" font-family="Arial" font-size="14.00" fill="#000000">id    </text>
<text text-anchor="start" x="426.594" y="-323.9" font-family="Arial" font-size="14.00" fill="#666666">[bigint(20) unsigned]</text>
<polygon fill="none" stroke="#000000" points="374.5,-282.5 374.5,-312.5 603.5,-312.5 603.5,-282.5 374.5,-282.5"/>
<text text-anchor="start" x="381.5" y="-293.9" font-family="Arial" font-size="14.00" fill="#000000">event_id    </text>
<text text-anchor="start" x="468.615" y="-293.9" font-family="Arial" font-size="14.00" fill="#666666">[bigint(20) unsigned]</text>
<polygon fill="none" stroke="#000000" points="374.5,-252.5 374.5,-282.5 603.5,-282.5 603.5,-252.5 374.5,-252.5"/>
<text text-anchor="start" x="381.27" y="-263.9" font-family="Arial" font-size="14.00" fill="#000000">capacity_name    </text>
<text text-anchor="start" x="509.6108" y="-263.9" font-family="Arial" font-size="14.00" fill="#666666">[varchar(255)]</text>
<polygon fill="none" stroke="#000000" points="374.5,-222.5 374.5,-252.5 603.5,-252.5 603.5,-222.5 374.5,-222.5"/>
<text text-anchor="start" x="381.5" y="-233.9" font-family="Arial" font-size="14.00" fill="#000000">capacity_value    </text>
<text text-anchor="start" x="508.2868" y="-233.9" font-family="Arial" font-size="14.00" fill="#666666">[text]</text>
<polygon fill="none" stroke="#000000" points="374.5,-192.5 374.5,-222.5 603.5,-222.5 603.5,-192.5 374.5,-192.5"/>
<text text-anchor="start" x="381.5" y="-203.9" font-family="Arial" font-size="14.00" fill="#000000">created_at    </text>
<text text-anchor="start" x="481.8422" y="-203.9" font-family="Arial" font-size="14.00" fill="#666666">[timestamp]</text>
<polygon fill="none" stroke="#000000" points="374.5,-162.5 374.5,-192.5 603.5,-192.5 603.5,-162.5 374.5,-162.5"/>
<text text-anchor="start" x="381.5" y="-173.9" font-family="Arial" font-size="14.00" fill="#000000">updated_at    </text>
<text text-anchor="start" x="485.7468" y="-173.9" font-family="Arial" font-size="14.00" fill="#666666">[timestamp]</text>
</g>
<!-- events&#45;&gt;capacities -->
<g id="edge10" class="edge">
<title>events:capacity_id&#45;&gt;capacities:id</title>
<path fill="none" stroke="#000000" d="M688.592,-725.7166C613.7186,-696.8604 691.2926,-327.5 603.5,-327.5"/>
<polygon fill="#000000" stroke="#000000" points="688.6582,-725.7285 697.7028,-731.9288 693.5791,-726.6142 698.5,-727.5 698.5,-727.5 698.5,-727.5 693.5791,-726.6142 699.2972,-723.0712 688.6582,-725.7285 688.6582,-725.7285"/>
<text text-anchor="start" x="428.828" y="-737.5" font-family="Arial" font-size="10.00" fill="#000000">FOREIGN KEY (capacity_id) REFERENCES capacities (id)</text>
</g>
<!-- locations -->
<g id="node5" class="node">
<title>locations</title>
<polygon fill="#efefef" stroke="transparent" points="707.5,-342.5 707.5,-377.5 934.5,-377.5 934.5,-342.5 707.5,-342.5"/>
<polygon fill="none" stroke="#000000" points="707.5,-342.5 707.5,-377.5 934.5,-377.5 934.5,-342.5 707.5,-342.5"/>
<text text-anchor="start" x="721.7083" y="-355.3" font-family="Arial Bold" font-size="18.00" fill="#000000">locations</text>
<text text-anchor="start" x="792.7237" y="-355.3" font-family="Arial" font-size="14.00" fill="#000000">    </text>
<text text-anchor="start" x="826.9285" y="-355.3" font-family="Arial" font-size="14.00" fill="#666666">[BASE TABLE]</text>
<polygon fill="none" stroke="#000000" points="707.5,-312.5 707.5,-342.5 934.5,-342.5 934.5,-312.5 707.5,-312.5"/>
<text text-anchor="start" x="714.5" y="-323.9" font-family="Arial" font-size="14.00" fill="#000000">id    </text>
<text text-anchor="start" x="759.594" y="-323.9" font-family="Arial" font-size="14.00" fill="#666666">[bigint(20) unsigned]</text>
<polygon fill="none" stroke="#000000" points="707.5,-282.5 707.5,-312.5 934.5,-312.5 934.5,-282.5 707.5,-282.5"/>
<text text-anchor="start" x="714.0365" y="-293.9" font-family="Arial" font-size="14.00" fill="#000000">event_id    </text>
<text text-anchor="start" x="801.1515" y="-293.9" font-family="Arial" font-size="14.00" fill="#666666">[bigint(20) unsigned]</text>
<polygon fill="none" stroke="#000000" points="707.5,-252.5 707.5,-282.5 934.5,-282.5 934.5,-252.5 707.5,-252.5"/>
<text text-anchor="start" x="714.5" y="-263.9" font-family="Arial" font-size="14.00" fill="#000000">location_name    </text>
<text text-anchor="start" x="839.73" y="-263.9" font-family="Arial" font-size="14.00" fill="#666666">[varchar(255)]</text>
<polygon fill="none" stroke="#000000" points="707.5,-222.5 707.5,-252.5 934.5,-252.5 934.5,-222.5 707.5,-222.5"/>
<text text-anchor="start" x="714.5" y="-233.9" font-family="Arial" font-size="14.00" fill="#000000">location_value    </text>
<text text-anchor="start" x="838.176" y="-233.9" font-family="Arial" font-size="14.00" fill="#666666">[text]</text>
<polygon fill="none" stroke="#000000" points="707.5,-192.5 707.5,-222.5 934.5,-222.5 934.5,-192.5 707.5,-192.5"/>
<text text-anchor="start" x="714.5" y="-203.9" font-family="Arial" font-size="14.00" fill="#000000">created_at    </text>
<text text-anchor="start" x="814.8422" y="-203.9" font-family="Arial" font-size="14.00" fill="#666666">[timestamp]</text>
<polygon fill="none" stroke="#000000" points="707.5,-162.5 707.5,-192.5 934.5,-192.5 934.5,-162.5 707.5,-162.5"/>
<text text-anchor="start" x="714.5" y="-173.9" font-family="Arial" font-size="14.00" fill="#000000">updated_at    </text>
<text text-anchor="start" x="818.7468" y="-173.9" font-family="Arial" font-size="14.00" fill="#666666">[timestamp]</text>
</g>
<!-- events&#45;&gt;locations -->
<g id="edge9" class="edge">
<title>events:location_id&#45;&gt;locations:id</title>
<path fill="none" stroke="#000000" d="M689.7257,-752.0632C652.0781,-702.2868 662.8852,-327.5 707.5,-327.5"/>
<polygon fill="#000000" stroke="#000000" points="689.9995,-752.2329 696.1298,-761.3252 694.2498,-754.8664 698.5,-757.5 698.5,-757.5 698.5,-757.5 694.2498,-754.8664 700.8702,-753.6748 689.9995,-752.2329 689.9995,-752.2329"/>
<text text-anchor="start" x="435.439" y="-767.5" font-family="Arial" font-size="10.00" fill="#000000">FOREIGN KEY (location_id) REFERENCES locations (id)</text>
</g>
<!-- users -->
<g id="node6" class="node">
<title>users</title>
<polygon fill="#efefef" stroke="transparent" points="1038.5,-462.5 1038.5,-497.5 1285.5,-497.5 1285.5,-462.5 1038.5,-462.5"/>
<polygon fill="none" stroke="#000000" points="1038.5,-462.5 1038.5,-497.5 1285.5,-497.5 1285.5,-462.5 1038.5,-462.5"/>
<text text-anchor="start" x="1076.2137" y="-475.3" font-family="Arial Bold" font-size="18.00" fill="#000000">users</text>
<text text-anchor="start" x="1120.2183" y="-475.3" font-family="Arial" font-size="14.00" fill="#000000">    </text>
<text text-anchor="start" x="1154.4231" y="-475.3" font-family="Arial" font-size="14.00" fill="#666666">[BASE TABLE]</text>
<polygon fill="none" stroke="#000000" points="1038.5,-432.5 1038.5,-462.5 1285.5,-462.5 1285.5,-432.5 1038.5,-432.5"/>
<text text-anchor="start" x="1045.5" y="-443.9" font-family="Arial" font-size="14.00" fill="#000000">id    </text>
<text text-anchor="start" x="1090.594" y="-443.9" font-family="Arial" font-size="14.00" fill="#666666">[bigint(20) unsigned]</text>
<polygon fill="none" stroke="#000000" points="1038.5,-402.5 1038.5,-432.5 1285.5,-432.5 1285.5,-402.5 1038.5,-402.5"/>
<text text-anchor="start" x="1045.5" y="-413.9" font-family="Arial" font-size="14.00" fill="#000000">full_name    </text>
<text text-anchor="start" x="1140.3822" y="-413.9" font-family="Arial" font-size="14.00" fill="#666666">[varchar(255)]</text>
<polygon fill="none" stroke="#000000" points="1038.5,-372.5 1038.5,-402.5 1285.5,-402.5 1285.5,-372.5 1038.5,-372.5"/>
<text text-anchor="start" x="1045.5" y="-383.9" font-family="Arial" font-size="14.00" fill="#000000">display_name    </text>
<text text-anchor="start" x="1166.0568" y="-383.9" font-family="Arial" font-size="14.00" fill="#666666">[varchar(255)]</text>
<polygon fill="none" stroke="#000000" points="1038.5,-342.5 1038.5,-372.5 1285.5,-372.5 1285.5,-342.5 1038.5,-342.5"/>
<text text-anchor="start" x="1045.5" y="-353.9" font-family="Arial" font-size="14.00" fill="#000000">email    </text>
<text text-anchor="start" x="1113.1438" y="-353.9" font-family="Arial" font-size="14.00" fill="#666666">[varchar(255)]</text>
<polygon fill="none" stroke="#000000" points="1038.5,-312.5 1038.5,-342.5 1285.5,-342.5 1285.5,-312.5 1038.5,-312.5"/>
<text text-anchor="start" x="1045.5" y="-323.9" font-family="Arial" font-size="14.00" fill="#000000">password    </text>
<text text-anchor="start" x="1139.6024" y="-323.9" font-family="Arial" font-size="14.00" fill="#666666">[varchar(255)]</text>
<polygon fill="none" stroke="#000000" points="1038.5,-282.5 1038.5,-312.5 1285.5,-312.5 1285.5,-282.5 1038.5,-282.5"/>
<text text-anchor="start" x="1045.5" y="-293.9" font-family="Arial" font-size="14.00" fill="#000000">status    </text>
<text text-anchor="start" x="1117.0512" y="-293.9" font-family="Arial" font-size="14.00" fill="#666666">[varchar(255)]</text>
<polygon fill="none" stroke="#000000" points="1038.5,-252.5 1038.5,-282.5 1285.5,-282.5 1285.5,-252.5 1038.5,-252.5"/>
<text text-anchor="start" x="1045.5" y="-263.9" font-family="Arial" font-size="14.00" fill="#000000">role_id    </text>
<text text-anchor="start" x="1121.709" y="-263.9" font-family="Arial" font-size="14.00" fill="#666666">[bigint(20) unsigned]</text>
<polygon fill="none" stroke="#000000" points="1038.5,-222.5 1038.5,-252.5 1285.5,-252.5 1285.5,-222.5 1038.5,-222.5"/>
<text text-anchor="start" x="1045.5" y="-233.9" font-family="Arial" font-size="14.00" fill="#000000">site_id    </text>
<text text-anchor="start" x="1120.1564" y="-233.9" font-family="Arial" font-size="14.00" fill="#666666">[bigint(20) unsigned]</text>
<polygon fill="none" stroke="#000000" points="1038.5,-192.5 1038.5,-222.5 1285.5,-222.5 1285.5,-192.5 1038.5,-192.5"/>
<text text-anchor="start" x="1045.3149" y="-203.9" font-family="Arial" font-size="14.00" fill="#000000">usertype_id    </text>
<text text-anchor="start" x="1151.8731" y="-203.9" font-family="Arial" font-size="14.00" fill="#666666">[bigint(20) unsigned]</text>
<polygon fill="none" stroke="#000000" points="1038.5,-162.5 1038.5,-192.5 1285.5,-192.5 1285.5,-162.5 1038.5,-162.5"/>
<text text-anchor="start" x="1045.5" y="-173.9" font-family="Arial" font-size="14.00" fill="#000000">remember_token    </text>
<text text-anchor="start" x="1185.4986" y="-173.9" font-family="Arial" font-size="14.00" fill="#666666">[varchar(100)]</text>
<polygon fill="none" stroke="#000000" points="1038.5,-132.5 1038.5,-162.5 1285.5,-162.5 1285.5,-132.5 1038.5,-132.5"/>
<text text-anchor="start" x="1045.5" y="-143.9" font-family="Arial" font-size="14.00" fill="#000000">token    </text>
<text text-anchor="start" x="1113.9432" y="-143.9" font-family="Arial" font-size="14.00" fill="#666666">[longtext]</text>
<polygon fill="none" stroke="#000000" points="1038.5,-102.5 1038.5,-132.5 1285.5,-132.5 1285.5,-102.5 1038.5,-102.5"/>
<text text-anchor="start" x="1045.5" y="-113.9" font-family="Arial" font-size="14.00" fill="#000000">isFirstTimeVisit    </text>
<text text-anchor="start" x="1174.5646" y="-113.9" font-family="Arial" font-size="14.00" fill="#666666">[tinyint(1)]</text>
<polygon fill="none" stroke="#000000" points="1038.5,-72.5 1038.5,-102.5 1285.5,-102.5 1285.5,-72.5 1038.5,-72.5"/>
<text text-anchor="start" x="1045.5" y="-83.9" font-family="Arial" font-size="14.00" fill="#000000">created_at    </text>
<text text-anchor="start" x="1145.8422" y="-83.9" font-family="Arial" font-size="14.00" fill="#666666">[timestamp]</text>
<polygon fill="none" stroke="#000000" points="1038.5,-42.5 1038.5,-72.5 1285.5,-72.5 1285.5,-42.5 1038.5,-42.5"/>
<text text-anchor="start" x="1045.5" y="-53.9" font-family="Arial" font-size="14.00" fill="#000000">updated_at    </text>
<text text-anchor="start" x="1149.7468" y="-53.9" font-family="Arial" font-size="14.00" fill="#666666">[timestamp]</text>
</g>
<!-- events&#45;&gt;users -->
<g id="edge5" class="edge">
<title>events:author_id&#45;&gt;users:id</title>
<path fill="none" stroke="#000000" d="M952.8661,-1113.5653C1013.9772,-1058.6567 966.6886,-447.5 1038.5,-447.5"/>
<polygon fill="#000000" stroke="#000000" points="952.7195,-1113.6269 941.7571,-1113.3512 948.1098,-1115.5634 943.5,-1117.5 943.5,-1117.5 943.5,-1117.5 948.1098,-1115.5634 945.2429,-1121.6488 952.7195,-1113.6269 952.7195,-1113.6269"/>
<text text-anchor="start" x="950.9965" y="-1127.5" font-family="Arial" font-size="10.00" fill="#000000">FOREIGN KEY (author_id) REFERENCES users (id)</text>
</g>
<!-- event_types -->
<g id="node7" class="node">
<title>event_types</title>
<polygon fill="#efefef" stroke="transparent" points="1389.5,-327.5 1389.5,-362.5 1635.5,-362.5 1635.5,-327.5 1389.5,-327.5"/>
<polygon fill="none" stroke="#000000" points="1389.5,-327.5 1389.5,-362.5 1635.5,-362.5 1635.5,-327.5 1389.5,-327.5"/>
<text text-anchor="start" x="1400.1952" y="-340.3" font-family="Arial Bold" font-size="18.00" fill="#000000">event_types</text>
<text text-anchor="start" x="1497.2368" y="-340.3" font-family="Arial" font-size="14.00" fill="#000000">    </text>
<text text-anchor="start" x="1531.4416" y="-340.3" font-family="Arial" font-size="14.00" fill="#666666">[BASE TABLE]</text>
<polygon fill="none" stroke="#000000" points="1389.5,-297.5 1389.5,-327.5 1635.5,-327.5 1635.5,-297.5 1389.5,-297.5"/>
<text text-anchor="start" x="1396.5" y="-308.9" font-family="Arial" font-size="14.00" fill="#000000">id    </text>
<text text-anchor="start" x="1441.594" y="-308.9" font-family="Arial" font-size="14.00" fill="#666666">[bigint(20) unsigned]</text>
<polygon fill="none" stroke="#000000" points="1389.5,-267.5 1389.5,-297.5 1635.5,-297.5 1635.5,-267.5 1389.5,-267.5"/>
<text text-anchor="start" x="1396.2041" y="-278.9" font-family="Arial" font-size="14.00" fill="#000000">event_type_name    </text>
<text text-anchor="start" x="1541.6767" y="-278.9" font-family="Arial" font-size="14.00" fill="#666666">[varchar(255)]</text>
<polygon fill="none" stroke="#000000" points="1389.5,-237.5 1389.5,-267.5 1635.5,-267.5 1635.5,-237.5 1389.5,-237.5"/>
<text text-anchor="start" x="1396.5" y="-248.9" font-family="Arial" font-size="14.00" fill="#000000">event_type_value    </text>
<text text-anchor="start" x="1540.4186" y="-248.9" font-family="Arial" font-size="14.00" fill="#666666">[text]</text>
<polygon fill="none" stroke="#000000" points="1389.5,-207.5 1389.5,-237.5 1635.5,-237.5 1635.5,-207.5 1389.5,-207.5"/>
<text text-anchor="start" x="1396.5" y="-218.9" font-family="Arial" font-size="14.00" fill="#000000">created_at    </text>
<text text-anchor="start" x="1496.8422" y="-218.9" font-family="Arial" font-size="14.00" fill="#666666">[timestamp]</text>
<polygon fill="none" stroke="#000000" points="1389.5,-177.5 1389.5,-207.5 1635.5,-207.5 1635.5,-177.5 1389.5,-177.5"/>
<text text-anchor="start" x="1396.5" y="-188.9" font-family="Arial" font-size="14.00" fill="#000000">updated_at    </text>
<text text-anchor="start" x="1500.7468" y="-188.9" font-family="Arial" font-size="14.00" fill="#666666">[timestamp]</text>
</g>
<!-- events&#45;&gt;event_types -->
<g id="edge6" class="edge">
<title>events:eventtype_id&#45;&gt;event_types:id</title>
<path fill="none" stroke="#000000" d="M953.7768,-847.4128C1167.0302,-843.7545 1220.2547,-725.2493 1337.5,-541 1393.4153,-453.13 1285.3479,-312.5 1389.5,-312.5"/>
<polygon fill="#000000" stroke="#000000" points="953.4996,-847.4151 943.4618,-843.0002 948.4998,-847.4575 943.5,-847.5 943.5,-847.5 943.5,-847.5 948.4998,-847.4575 943.5382,-851.9998 953.4996,-847.4151 953.4996,-847.4151"/>
<text text-anchor="start" x="950.7595" y="-857.5" font-family="Arial" font-size="10.00" fill="#000000">FOREIGN KEY (eventtype_id) REFERENCES event_types (id)</text>
</g>
<!-- event_formats -->
<g id="node8" class="node">
<title>event_formats</title>
<polygon fill="#efefef" stroke="transparent" points="1740.5,-327.5 1740.5,-362.5 1999.5,-362.5 1999.5,-327.5 1740.5,-327.5"/>
<polygon fill="none" stroke="#000000" points="1740.5,-327.5 1740.5,-362.5 1999.5,-362.5 1999.5,-327.5 1740.5,-327.5"/>
<text text-anchor="start" x="1749.2019" y="-340.3" font-family="Arial Bold" font-size="18.00" fill="#000000">event_formats</text>
<text text-anchor="start" x="1863.2301" y="-340.3" font-family="Arial" font-size="14.00" fill="#000000">    </text>
<text text-anchor="start" x="1897.4349" y="-340.3" font-family="Arial" font-size="14.00" fill="#666666">[BASE TABLE]</text>
<polygon fill="none" stroke="#000000" points="1740.5,-297.5 1740.5,-327.5 1999.5,-327.5 1999.5,-297.5 1740.5,-297.5"/>
<text text-anchor="start" x="1747.5" y="-308.9" font-family="Arial" font-size="14.00" fill="#000000">id    </text>
<text text-anchor="start" x="1792.594" y="-308.9" font-family="Arial" font-size="14.00" fill="#666666">[bigint(20) unsigned]</text>
<polygon fill="none" stroke="#000000" points="1740.5,-267.5 1740.5,-297.5 1999.5,-297.5 1999.5,-267.5 1740.5,-267.5"/>
<text text-anchor="start" x="1747.0982" y="-278.9" font-family="Arial" font-size="14.00" fill="#000000">event_format_name    </text>
<text text-anchor="start" x="1905.7826" y="-278.9" font-family="Arial" font-size="14.00" fill="#666666">[varchar(255)]</text>
<polygon fill="none" stroke="#000000" points="1740.5,-237.5 1740.5,-267.5 1999.5,-267.5 1999.5,-237.5 1740.5,-237.5"/>
<text text-anchor="start" x="1747.5" y="-248.9" font-family="Arial" font-size="14.00" fill="#000000">event_format_value    </text>
<text text-anchor="start" x="1904.6304" y="-248.9" font-family="Arial" font-size="14.00" fill="#666666">[varchar(255)]</text>
<polygon fill="none" stroke="#000000" points="1740.5,-207.5 1740.5,-237.5 1999.5,-237.5 1999.5,-207.5 1740.5,-207.5"/>
<text text-anchor="start" x="1747.5" y="-218.9" font-family="Arial" font-size="14.00" fill="#000000">created_at    </text>
<text text-anchor="start" x="1847.8422" y="-218.9" font-family="Arial" font-size="14.00" fill="#666666">[timestamp]</text>
<polygon fill="none" stroke="#000000" points="1740.5,-177.5 1740.5,-207.5 1999.5,-207.5 1999.5,-177.5 1740.5,-177.5"/>
<text text-anchor="start" x="1747.5" y="-188.9" font-family="Arial" font-size="14.00" fill="#000000">updated_at    </text>
<text text-anchor="start" x="1851.7468" y="-188.9" font-family="Arial" font-size="14.00" fill="#666666">[timestamp]</text>
</g>
<!-- events&#45;&gt;event_formats -->
<g id="edge7" class="edge">
<title>events:event_format_id&#45;&gt;event_formats:id</title>
<path fill="none" stroke="#000000" d="M953.5238,-817.4966C1299.2838,-817.2556 1456.7283,-803.351 1687.5,-541 1756.3552,-462.7225 1636.2484,-312.5 1740.5,-312.5"/>
<polygon fill="#000000" stroke="#000000" points="953.5,-817.4965 943.4984,-813 948.5,-817.4983 943.5,-817.5 943.5,-817.5 943.5,-817.5 948.5,-817.4983 943.5016,-822 953.5,-817.4965 953.5,-817.4965"/>
<text text-anchor="start" x="950.543" y="-827.5" font-family="Arial" font-size="10.00" fill="#000000">FOREIGN KEY (event_format_id) REFERENCES event_formats (id)</text>
</g>
<!-- attendees&#45;&gt;events -->
<g id="edge1" class="edge">
<title>attendees:event_id&#45;&gt;events:id</title>
<path fill="none" stroke="#000000" d="M280.4904,-299.945C322.684,-322.4034 302.2928,-493.093 321.5,-541 439.6104,-835.5929 381.1121,-1147.5 698.5,-1147.5"/>
<polygon fill="#000000" stroke="#000000" points="280.2133,-299.8772 271.5698,-293.129 275.3567,-298.6886 270.5,-297.5 270.5,-297.5 270.5,-297.5 275.3567,-298.6886 269.4302,-301.871 280.2133,-299.8772 280.2133,-299.8772"/>
<text text-anchor="start" x="152.436" y="-281.5" font-family="Arial" font-size="10.00" fill="#000000">FOREIGN KEY (event_id) REFERENCES events (id)</text>
</g>
<!-- capacities&#45;&gt;events -->
<g id="edge2" class="edge">
<title>capacities:event_id&#45;&gt;events:id</title>
<path fill="none" stroke="#000000" d="M613.3139,-300.9247C691.7387,-359.4154 606.9941,-1147.5 698.5,-1147.5"/>
<polygon fill="#000000" stroke="#000000" points="612.9416,-300.7949 604.9827,-293.2513 608.2208,-299.1475 603.5,-297.5 603.5,-297.5 603.5,-297.5 608.2208,-299.1475 602.0173,-301.7487 612.9416,-300.7949 612.9416,-300.7949"/>
<text text-anchor="start" x="610.436" y="-307.5" font-family="Arial" font-size="10.00" fill="#000000">FOREIGN KEY (event_id) REFERENCES events (id)</text>
</g>
<!-- event_metas -->
<g id="node4" class="node">
<title>event_metas</title>
<polygon fill="#efefef" stroke="transparent" points="699.5,-1502.5 699.5,-1537.5 943.5,-1537.5 943.5,-1502.5 699.5,-1502.5"/>
<polygon fill="none" stroke="#000000" points="699.5,-1502.5 699.5,-1537.5 943.5,-1537.5 943.5,-1502.5 699.5,-1502.5"/>
<text text-anchor="start" x="706.1991" y="-1515.3" font-family="Arial Bold" font-size="18.00" fill="#000000">event_metas</text>
<text text-anchor="start" x="809.2329" y="-1515.3" font-family="Arial" font-size="14.00" fill="#000000">    </text>
<text text-anchor="start" x="843.4377" y="-1515.3" font-family="Arial" font-size="14.00" fill="#666666">[BASE TABLE]</text>
<polygon fill="none" stroke="#000000" points="699.5,-1472.5 699.5,-1502.5 943.5,-1502.5 943.5,-1472.5 699.5,-1472.5"/>
<text text-anchor="start" x="706.5" y="-1483.9" font-family="Arial" font-size="14.00" fill="#000000">id    </text>
<text text-anchor="start" x="751.594" y="-1483.9" font-family="Arial" font-size="14.00" fill="#666666">[bigint(20) unsigned]</text>
<polygon fill="none" stroke="#000000" points="699.5,-1442.5 699.5,-1472.5 943.5,-1472.5 943.5,-1442.5 699.5,-1442.5"/>
<text text-anchor="start" x="706.5" y="-1453.9" font-family="Arial" font-size="14.00" fill="#000000">event_id    </text>
<text text-anchor="start" x="793.615" y="-1453.9" font-family="Arial" font-size="14.00" fill="#666666">[bigint(20) unsigned]</text>
<polygon fill="none" stroke="#000000" points="699.5,-1412.5 699.5,-1442.5 943.5,-1442.5 943.5,-1412.5 699.5,-1412.5"/>
<text text-anchor="start" x="706.5" y="-1423.9" font-family="Arial" font-size="14.00" fill="#000000">event_meta_key    </text>
<text text-anchor="start" x="843.4074" y="-1423.9" font-family="Arial" font-size="14.00" fill="#666666">[varchar(255)]</text>
<polygon fill="none" stroke="#000000" points="699.5,-1382.5 699.5,-1412.5 943.5,-1412.5 943.5,-1382.5 699.5,-1382.5"/>
<text text-anchor="start" x="706.5" y="-1393.9" font-family="Arial" font-size="14.00" fill="#000000">event_meta_value    </text>
<text text-anchor="start" x="855.0792" y="-1393.9" font-family="Arial" font-size="14.00" fill="#666666">[text]</text>
<polygon fill="none" stroke="#000000" points="699.5,-1352.5 699.5,-1382.5 943.5,-1382.5 943.5,-1352.5 699.5,-1352.5"/>
<text text-anchor="start" x="706.5" y="-1363.9" font-family="Arial" font-size="14.00" fill="#000000">created_at    </text>
<text text-anchor="start" x="806.8422" y="-1363.9" font-family="Arial" font-size="14.00" fill="#666666">[timestamp]</text>
<polygon fill="none" stroke="#000000" points="699.5,-1322.5 699.5,-1352.5 943.5,-1352.5 943.5,-1322.5 699.5,-1322.5"/>
<text text-anchor="start" x="706.5" y="-1333.9" font-family="Arial" font-size="14.00" fill="#000000">updated_at    </text>
<text text-anchor="start" x="810.7468" y="-1333.9" font-family="Arial" font-size="14.00" fill="#666666">[timestamp]</text>
</g>
<!-- event_metas&#45;&gt;events -->
<g id="edge3" class="edge">
<title>event_metas:event_id&#45;&gt;events:id</title>
<path fill="none" stroke="#000000" d="M689.5041,-1456.8029C623.1161,-1447.035 650.2645,-1337.0328 699.5,-1280 771.1321,-1197.0238 871.8679,-1326.9762 943.5,-1244 971.5265,-1211.5351 986.3889,-1147.5 943.5,-1147.5"/>
<polygon fill="#000000" stroke="#000000" points="689.5242,-1456.8042 699.1869,-1461.9891 694.5121,-1457.1521 699.5,-1457.5 699.5,-1457.5 699.5,-1457.5 694.5121,-1457.1521 699.8131,-1453.0109 689.5242,-1456.8042 689.5242,-1456.8042"/>
<text text-anchor="start" x="456.436" y="-1467.5" font-family="Arial" font-size="10.00" fill="#000000">FOREIGN KEY (event_id) REFERENCES events (id)</text>
</g>
<!-- locations&#45;&gt;events -->
<g id="edge4" class="edge">
<title>locations:event_id&#45;&gt;events:id</title>
<path fill="none" stroke="#000000" d="M700.0981,-304.8483C659.4589,-387.9266 653.8577,-1147.5 698.5,-1147.5"/>
<polygon fill="#000000" stroke="#000000" points="700.4032,-304.5453 710.6704,-300.6935 703.9516,-301.0227 707.5,-297.5 707.5,-297.5 707.5,-297.5 703.9516,-301.0227 704.3296,-294.3065 700.4032,-304.5453 700.4032,-304.5453"/>
<text text-anchor="start" x="714.436" y="-281.5" font-family="Arial" font-size="10.00" fill="#000000">FOREIGN KEY (event_id) REFERENCES events (id)</text>
</g>
</g>
</svg>
