<?xml version="1.0" encoding="UTF-8" standalone="no"?>
<!DOCTYPE svg PUBLIC "-//W3C//DTD SVG 1.1//EN"
 "http://www.w3.org/Graphics/SVG/1.1/DTD/svg11.dtd">
<!-- Generated by graphviz version 2.40.1 (20161225.0304)
 -->
<!-- Title: event_metas Pages: 1 -->
<svg width="560pt" height="1012pt"
 viewBox="0.00 0.00 559.50 1012.00" xmlns="http://www.w3.org/2000/svg" xmlns:xlink="http://www.w3.org/1999/xlink">
<g id="graph0" class="graph" transform="scale(1 1) rotate(0) translate(4 1008)">
<title>event_metas</title>
<polygon fill="#ffffff" stroke="transparent" points="-4,4 -4,-1008 555.5,-1008 555.5,4 -4,4"/>
<!-- event_metas -->
<g id="node1" class="node">
<title>event_metas</title>
<polygon fill="#efefef" stroke="transparent" points="250,-922.5 250,-957.5 494,-957.5 494,-922.5 250,-922.5"/>
<polygon fill="none" stroke="#000000" points="250,-922.5 250,-957.5 494,-957.5 494,-922.5 250,-922.5"/>
<text text-anchor="start" x="256.6991" y="-935.3" font-family="Arial Bold" font-size="18.00" fill="#000000">event_metas</text>
<text text-anchor="start" x="359.7329" y="-935.3" font-family="Arial" font-size="14.00" fill="#000000">    </text>
<text text-anchor="start" x="393.9377" y="-935.3" font-family="Arial" font-size="14.00" fill="#666666">[BASE TABLE]</text>
<polygon fill="none" stroke="#000000" points="250,-892.5 250,-922.5 494,-922.5 494,-892.5 250,-892.5"/>
<text text-anchor="start" x="257" y="-903.9" font-family="Arial" font-size="14.00" fill="#000000">id </text>
<text text-anchor="start" x="271.7798" y="-903.9" font-family="Arial" font-size="14.00" fill="#666666">[bigint(20) unsigned]</text>
<polygon fill="none" stroke="#000000" points="250,-862.5 250,-892.5 494,-892.5 494,-862.5 250,-862.5"/>
<text text-anchor="start" x="257" y="-873.9" font-family="Arial" font-size="14.00" fill="#000000">event_id </text>
<text text-anchor="start" x="313.8008" y="-873.9" font-family="Arial" font-size="14.00" fill="#666666">[bigint(20) unsigned]</text>
<polygon fill="none" stroke="#000000" points="250,-832.5 250,-862.5 494,-862.5 494,-832.5 250,-832.5"/>
<text text-anchor="start" x="257" y="-843.9" font-family="Arial" font-size="14.00" fill="#000000">event_meta_key </text>
<text text-anchor="start" x="363.5932" y="-843.9" font-family="Arial" font-size="14.00" fill="#666666">[varchar(255)]</text>
<polygon fill="none" stroke="#000000" points="250,-802.5 250,-832.5 494,-832.5 494,-802.5 250,-802.5"/>
<text text-anchor="start" x="257" y="-813.9" font-family="Arial" font-size="14.00" fill="#000000">event_meta_value </text>
<text text-anchor="start" x="375.265" y="-813.9" font-family="Arial" font-size="14.00" fill="#666666">[text]</text>
<polygon fill="none" stroke="#000000" points="250,-772.5 250,-802.5 494,-802.5 494,-772.5 250,-772.5"/>
<text text-anchor="start" x="257" y="-783.9" font-family="Arial" font-size="14.00" fill="#000000">created_at </text>
<text text-anchor="start" x="327.028" y="-783.9" font-family="Arial" font-size="14.00" fill="#666666">[timestamp]</text>
<polygon fill="none" stroke="#000000" points="250,-742.5 250,-772.5 494,-772.5 494,-742.5 250,-742.5"/>
<text text-anchor="start" x="257" y="-753.9" font-family="Arial" font-size="14.00" fill="#000000">updated_at </text>
<text text-anchor="start" x="330.9326" y="-753.9" font-family="Arial" font-size="14.00" fill="#666666">[timestamp]</text>
<polygon fill="none" stroke="#000000" stroke-width="3" points="248.5,-741.5 248.5,-959.5 495.5,-959.5 495.5,-741.5 248.5,-741.5"/>
</g>
<!-- events -->
<g id="node2" class="node">
<title>events</title>
<polygon fill="#efefef" stroke="transparent" points="234,-582.5 234,-617.5 509,-617.5 509,-582.5 234,-582.5"/>
<polygon fill="none" stroke="#000000" points="234,-582.5 234,-617.5 509,-617.5 509,-582.5 234,-582.5"/>
<text text-anchor="start" x="281.2056" y="-595.3" font-family="Arial Bold" font-size="18.00" fill="#000000">events</text>
<text text-anchor="start" x="334.2264" y="-595.3" font-family="Arial" font-size="14.00" fill="#000000">    </text>
<text text-anchor="start" x="368.4312" y="-595.3" font-family="Arial" font-size="14.00" fill="#666666">[BASE TABLE]</text>
<polygon fill="none" stroke="#000000" points="234,-552.5 234,-582.5 509,-582.5 509,-552.5 234,-552.5"/>
<text text-anchor="start" x="241" y="-563.9" font-family="Arial" font-size="14.00" fill="#000000">id    </text>
<text text-anchor="start" x="286.094" y="-563.9" font-family="Arial" font-size="14.00" fill="#666666">[bigint(20) unsigned]</text>
<polygon fill="none" stroke="#000000" points="234,-522.5 234,-552.5 509,-552.5 509,-522.5 234,-522.5"/>
<text text-anchor="start" x="241" y="-533.9" font-family="Arial" font-size="14.00" fill="#000000">author_id    </text>
<text text-anchor="start" x="333.5582" y="-533.9" font-family="Arial" font-size="14.00" fill="#666666">[bigint(20) unsigned]</text>
<polygon fill="none" stroke="#000000" points="234,-492.5 234,-522.5 509,-522.5 509,-492.5 234,-492.5"/>
<text text-anchor="start" x="241" y="-503.9" font-family="Arial" font-size="14.00" fill="#000000">event_title    </text>
<text text-anchor="start" x="339.0028" y="-503.9" font-family="Arial" font-size="14.00" fill="#666666">[varchar(255)]</text>
<polygon fill="none" stroke="#000000" points="234,-462.5 234,-492.5 509,-492.5 509,-462.5 234,-462.5"/>
<text text-anchor="start" x="241" y="-473.9" font-family="Arial" font-size="14.00" fill="#000000">event_content    </text>
<text text-anchor="start" x="363.1374" y="-473.9" font-family="Arial" font-size="14.00" fill="#666666">[longtext]</text>
<polygon fill="none" stroke="#000000" points="234,-432.5 234,-462.5 509,-462.5 509,-432.5 234,-432.5"/>
<text text-anchor="start" x="241" y="-443.9" font-family="Arial" font-size="14.00" fill="#000000">event_excerpt    </text>
<text text-anchor="start" x="363.1248" y="-443.9" font-family="Arial" font-size="14.00" fill="#666666">[text]</text>
<polygon fill="none" stroke="#000000" points="234,-402.5 234,-432.5 509,-432.5 509,-402.5 234,-402.5"/>
<text text-anchor="start" x="241" y="-413.9" font-family="Arial" font-size="14.00" fill="#000000">event_location    </text>
<text text-anchor="start" x="365.46" y="-413.9" font-family="Arial" font-size="14.00" fill="#666666">[longtext]</text>
<polygon fill="none" stroke="#000000" points="234,-372.5 234,-402.5 509,-402.5 509,-372.5 234,-372.5"/>
<text text-anchor="start" x="241" y="-383.9" font-family="Arial" font-size="14.00" fill="#000000">cover_image    </text>
<text text-anchor="start" x="355.3282" y="-383.9" font-family="Arial" font-size="14.00" fill="#666666">[varchar(255)]</text>
<polygon fill="none" stroke="#000000" points="234,-342.5 234,-372.5 509,-372.5 509,-342.5 234,-342.5"/>
<text text-anchor="start" x="241" y="-353.9" font-family="Arial" font-size="14.00" fill="#000000">start_date    </text>
<text text-anchor="start" x="337.4502" y="-353.9" font-family="Arial" font-size="14.00" fill="#666666">[datetime]</text>
<polygon fill="none" stroke="#000000" points="234,-312.5 234,-342.5 509,-342.5 509,-312.5 234,-312.5"/>
<text text-anchor="start" x="241" y="-323.9" font-family="Arial" font-size="14.00" fill="#000000">end_date    </text>
<text text-anchor="start" x="333.5736" y="-323.9" font-family="Arial" font-size="14.00" fill="#666666">[datetime]</text>
<polygon fill="none" stroke="#000000" points="234,-282.5 234,-312.5 509,-312.5 509,-282.5 234,-282.5"/>
<text text-anchor="start" x="241" y="-293.9" font-family="Arial" font-size="14.00" fill="#000000">event_status    </text>
<text text-anchor="start" x="354.5722" y="-293.9" font-family="Arial" font-size="14.00" fill="#666666">[varchar(255)]</text>
<polygon fill="none" stroke="#000000" points="234,-252.5 234,-282.5 509,-282.5 509,-252.5 234,-252.5"/>
<text text-anchor="start" x="241" y="-263.9" font-family="Arial" font-size="14.00" fill="#000000">eventtype_id    </text>
<text text-anchor="start" x="354.5708" y="-263.9" font-family="Arial" font-size="14.00" fill="#666666">[bigint(20) unsigned]</text>
<polygon fill="none" stroke="#000000" points="234,-222.5 234,-252.5 509,-252.5 509,-222.5 234,-222.5"/>
<text text-anchor="start" x="240.8114" y="-233.9" font-family="Arial" font-size="14.00" fill="#000000">event_format_id    </text>
<text text-anchor="start" x="375.3766" y="-233.9" font-family="Arial" font-size="14.00" fill="#666666">[bigint(20) unsigned]</text>
<polygon fill="none" stroke="#000000" points="234,-192.5 234,-222.5 509,-222.5 509,-192.5 234,-192.5"/>
<text text-anchor="start" x="241" y="-203.9" font-family="Arial" font-size="14.00" fill="#000000">attendees_id    </text>
<text text-anchor="start" x="355.3534" y="-203.9" font-family="Arial" font-size="14.00" fill="#666666">[bigint(20) unsigned]</text>
<polygon fill="none" stroke="#000000" points="234,-162.5 234,-192.5 509,-192.5 509,-162.5 234,-162.5"/>
<text text-anchor="start" x="241" y="-173.9" font-family="Arial" font-size="14.00" fill="#000000">location_id    </text>
<text text-anchor="start" x="342.1108" y="-173.9" font-family="Arial" font-size="14.00" fill="#666666">[bigint(20) unsigned]</text>
<polygon fill="none" stroke="#000000" points="234,-132.5 234,-162.5 509,-162.5 509,-132.5 234,-132.5"/>
<text text-anchor="start" x="241" y="-143.9" font-family="Arial" font-size="14.00" fill="#000000">capacity_id    </text>
<text text-anchor="start" x="345.2216" y="-143.9" font-family="Arial" font-size="14.00" fill="#666666">[bigint(20) unsigned]</text>
<polygon fill="none" stroke="#000000" points="234,-102.5 234,-132.5 509,-132.5 509,-102.5 234,-102.5"/>
<text text-anchor="start" x="241" y="-113.9" font-family="Arial" font-size="14.00" fill="#000000">extra_content    </text>
<text text-anchor="start" x="360.0154" y="-113.9" font-family="Arial" font-size="14.00" fill="#666666">[json]</text>
<polygon fill="none" stroke="#000000" points="234,-72.5 234,-102.5 509,-102.5 509,-72.5 234,-72.5"/>
<text text-anchor="start" x="241" y="-83.9" font-family="Arial" font-size="14.00" fill="#000000">created_at    </text>
<text text-anchor="start" x="341.3422" y="-83.9" font-family="Arial" font-size="14.00" fill="#666666">[timestamp]</text>
<polygon fill="none" stroke="#000000" points="234,-42.5 234,-72.5 509,-72.5 509,-42.5 234,-42.5"/>
<text text-anchor="start" x="241" y="-53.9" font-family="Arial" font-size="14.00" fill="#000000">updated_at    </text>
<text text-anchor="start" x="345.2468" y="-53.9" font-family="Arial" font-size="14.00" fill="#666666">[timestamp]</text>
</g>
<!-- event_metas&#45;&gt;events -->
<g id="edge1" class="edge">
<title>event_metas:event_id&#45;&gt;events:id</title>
<path fill="none" stroke="#000000" d="M239.8337,-876.7898C172.3033,-866.8392 199.69,-754.7866 250,-697 326.3121,-609.3471 432.6879,-748.6529 509,-661 536.2866,-629.6583 550.5556,-567.5 509,-567.5"/>
<polygon fill="#000000" stroke="#000000" points="240.0243,-876.803 249.6864,-881.9891 245.0122,-877.1515 250,-877.5 250,-877.5 250,-877.5 245.0122,-877.1515 250.3136,-873.0109 240.0243,-876.803 240.0243,-876.803"/>
<text text-anchor="start" x="6.936" y="-887.5" font-family="Arial" font-size="10.00" fill="#000000">FOREIGN KEY (event_id) REFERENCES events (id)</text>
</g>
</g>
</svg>
