<?xml version="1.0" encoding="UTF-8" standalone="no"?>
<!DOCTYPE svg PUBLIC "-//W3C//DTD SVG 1.1//EN"
 "http://www.w3.org/Graphics/SVG/1.1/DTD/svg11.dtd">
<!-- Generated by graphviz version 2.40.1 (20161225.0304)
 -->
<!-- Title: failed_import_rows Pages: 1 -->
<svg width="602pt" height="802pt"
 viewBox="0.00 0.00 602.00 802.00" xmlns="http://www.w3.org/2000/svg" xmlns:xlink="http://www.w3.org/1999/xlink">
<g id="graph0" class="graph" transform="scale(1 1) rotate(0) translate(4 798)">
<title>failed_import_rows</title>
<polygon fill="#ffffff" stroke="transparent" points="-4,4 -4,-798 598,-798 598,4 -4,4"/>
<!-- failed_import_rows -->
<g id="node1" class="node">
<title>failed_import_rows</title>
<polygon fill="#efefef" stroke="transparent" points="256,-712.5 256,-747.5 548,-747.5 548,-712.5 256,-712.5"/>
<polygon fill="none" stroke="#000000" points="256,-712.5 256,-747.5 548,-747.5 548,-712.5 256,-712.5"/>
<text text-anchor="start" x="262.7123" y="-725.3" font-family="Arial Bold" font-size="18.00" fill="#000000">failed_import_rows</text>
<text text-anchor="start" x="413.7197" y="-725.3" font-family="Arial" font-size="14.00" fill="#000000">    </text>
<text text-anchor="start" x="447.9245" y="-725.3" font-family="Arial" font-size="14.00" fill="#666666">[BASE TABLE]</text>
<polygon fill="none" stroke="#000000" points="256,-682.5 256,-712.5 548,-712.5 548,-682.5 256,-682.5"/>
<text text-anchor="start" x="263" y="-693.9" font-family="Arial" font-size="14.00" fill="#000000">id </text>
<text text-anchor="start" x="277.7798" y="-693.9" font-family="Arial" font-size="14.00" fill="#666666">[bigint(20) unsigned]</text>
<polygon fill="none" stroke="#000000" points="256,-652.5 256,-682.5 548,-682.5 548,-652.5 256,-652.5"/>
<text text-anchor="start" x="263" y="-663.9" font-family="Arial" font-size="14.00" fill="#000000">data </text>
<text text-anchor="start" x="294.129" y="-663.9" font-family="Arial" font-size="14.00" fill="#666666">[json]</text>
<polygon fill="none" stroke="#000000" points="256,-622.5 256,-652.5 548,-652.5 548,-622.5 256,-622.5"/>
<text text-anchor="start" x="263" y="-633.9" font-family="Arial" font-size="14.00" fill="#000000">import_id </text>
<text text-anchor="start" x="324.446" y="-633.9" font-family="Arial" font-size="14.00" fill="#666666">[bigint(20) unsigned]</text>
<polygon fill="none" stroke="#000000" points="256,-592.5 256,-622.5 548,-622.5 548,-592.5 256,-592.5"/>
<text text-anchor="start" x="263" y="-603.9" font-family="Arial" font-size="14.00" fill="#000000">validation_error </text>
<text text-anchor="start" x="363.3436" y="-603.9" font-family="Arial" font-size="14.00" fill="#666666">[text]</text>
<polygon fill="none" stroke="#000000" points="256,-562.5 256,-592.5 548,-592.5 548,-562.5 256,-562.5"/>
<text text-anchor="start" x="263" y="-573.9" font-family="Arial" font-size="14.00" fill="#000000">created_at </text>
<text text-anchor="start" x="333.028" y="-573.9" font-family="Arial" font-size="14.00" fill="#666666">[timestamp]</text>
<polygon fill="none" stroke="#000000" points="256,-532.5 256,-562.5 548,-562.5 548,-532.5 256,-532.5"/>
<text text-anchor="start" x="263" y="-543.9" font-family="Arial" font-size="14.00" fill="#000000">updated_at </text>
<text text-anchor="start" x="336.9326" y="-543.9" font-family="Arial" font-size="14.00" fill="#666666">[timestamp]</text>
<polygon fill="none" stroke="#000000" stroke-width="3" points="254.5,-531.5 254.5,-749.5 549.5,-749.5 549.5,-531.5 254.5,-531.5"/>
</g>
<!-- imports -->
<g id="node2" class="node">
<title>imports</title>
<polygon fill="#efefef" stroke="transparent" points="272,-372.5 272,-407.5 531,-407.5 531,-372.5 272,-372.5"/>
<polygon fill="none" stroke="#000000" points="272,-372.5 272,-407.5 531,-407.5 531,-372.5 272,-372.5"/>
<text text-anchor="start" x="308.2194" y="-385.3" font-family="Arial Bold" font-size="18.00" fill="#000000">imports</text>
<text text-anchor="start" x="367.2126" y="-385.3" font-family="Arial" font-size="14.00" fill="#000000">    </text>
<text text-anchor="start" x="401.4174" y="-385.3" font-family="Arial" font-size="14.00" fill="#666666">[BASE TABLE]</text>
<polygon fill="none" stroke="#000000" points="272,-342.5 272,-372.5 531,-372.5 531,-342.5 272,-342.5"/>
<text text-anchor="start" x="279" y="-353.9" font-family="Arial" font-size="14.00" fill="#000000">id    </text>
<text text-anchor="start" x="324.094" y="-353.9" font-family="Arial" font-size="14.00" fill="#666666">[bigint(20) unsigned]</text>
<polygon fill="none" stroke="#000000" points="272,-312.5 272,-342.5 531,-342.5 531,-312.5 272,-312.5"/>
<text text-anchor="start" x="279" y="-323.9" font-family="Arial" font-size="14.00" fill="#000000">completed_at    </text>
<text text-anchor="start" x="397.2314" y="-323.9" font-family="Arial" font-size="14.00" fill="#666666">[timestamp]</text>
<polygon fill="none" stroke="#000000" points="272,-282.5 272,-312.5 531,-312.5 531,-282.5 272,-282.5"/>
<text text-anchor="start" x="279" y="-293.9" font-family="Arial" font-size="14.00" fill="#000000">file_name    </text>
<text text-anchor="start" x="373.8822" y="-293.9" font-family="Arial" font-size="14.00" fill="#666666">[varchar(255)]</text>
<polygon fill="none" stroke="#000000" points="272,-252.5 272,-282.5 531,-282.5 531,-252.5 272,-252.5"/>
<text text-anchor="start" x="279" y="-263.9" font-family="Arial" font-size="14.00" fill="#000000">file_path    </text>
<text text-anchor="start" x="366.1122" y="-263.9" font-family="Arial" font-size="14.00" fill="#666666">[varchar(255)]</text>
<polygon fill="none" stroke="#000000" points="272,-222.5 272,-252.5 531,-252.5 531,-222.5 272,-222.5"/>
<text text-anchor="start" x="279" y="-233.9" font-family="Arial" font-size="14.00" fill="#000000">importer    </text>
<text text-anchor="start" x="364.5316" y="-233.9" font-family="Arial" font-size="14.00" fill="#666666">[varchar(255)]</text>
<polygon fill="none" stroke="#000000" points="272,-192.5 272,-222.5 531,-222.5 531,-192.5 272,-192.5"/>
<text text-anchor="start" x="279" y="-203.9" font-family="Arial" font-size="14.00" fill="#000000">processed_rows    </text>
<text text-anchor="start" x="415.1108" y="-203.9" font-family="Arial" font-size="14.00" fill="#666666">[int(10) unsigned]</text>
<polygon fill="none" stroke="#000000" points="272,-162.5 272,-192.5 531,-192.5 531,-162.5 272,-162.5"/>
<text text-anchor="start" x="279" y="-173.9" font-family="Arial" font-size="14.00" fill="#000000">total_rows    </text>
<text text-anchor="start" x="376.9902" y="-173.9" font-family="Arial" font-size="14.00" fill="#666666">[int(10) unsigned]</text>
<polygon fill="none" stroke="#000000" points="272,-132.5 272,-162.5 531,-162.5 531,-132.5 272,-132.5"/>
<text text-anchor="start" x="278.9888" y="-143.9" font-family="Arial" font-size="14.00" fill="#000000">successful_rows    </text>
<text text-anchor="start" x="415.871" y="-143.9" font-family="Arial" font-size="14.00" fill="#666666">[int(10) unsigned]</text>
<polygon fill="none" stroke="#000000" points="272,-102.5 272,-132.5 531,-132.5 531,-102.5 272,-102.5"/>
<text text-anchor="start" x="279" y="-113.9" font-family="Arial" font-size="14.00" fill="#000000">user_id    </text>
<text text-anchor="start" x="359.1024" y="-113.9" font-family="Arial" font-size="14.00" fill="#666666">[bigint(20) unsigned]</text>
<polygon fill="none" stroke="#000000" points="272,-72.5 272,-102.5 531,-102.5 531,-72.5 272,-72.5"/>
<text text-anchor="start" x="279" y="-83.9" font-family="Arial" font-size="14.00" fill="#000000">created_at    </text>
<text text-anchor="start" x="379.3422" y="-83.9" font-family="Arial" font-size="14.00" fill="#666666">[timestamp]</text>
<polygon fill="none" stroke="#000000" points="272,-42.5 272,-72.5 531,-72.5 531,-42.5 272,-42.5"/>
<text text-anchor="start" x="279" y="-53.9" font-family="Arial" font-size="14.00" fill="#000000">updated_at    </text>
<text text-anchor="start" x="383.2468" y="-53.9" font-family="Arial" font-size="14.00" fill="#666666">[timestamp]</text>
</g>
<!-- failed_import_rows&#45;&gt;imports -->
<g id="edge1" class="edge">
<title>failed_import_rows:import_id&#45;&gt;imports:id</title>
<path fill="none" stroke="#000000" d="M245.8193,-636.6253C191.6652,-626.6871 214.2916,-534.5243 256,-487 337.3082,-394.3541 449.6918,-543.6459 531,-451 558.4109,-419.7669 572.5556,-357.5 531,-357.5"/>
<polygon fill="#000000" stroke="#000000" points="246.0367,-636.6439 255.6148,-641.9835 251.0184,-637.072 256,-637.5 256,-637.5 256,-637.5 251.0184,-637.072 256.3852,-633.0165 246.0367,-636.6439 246.0367,-636.6439"/>
<text text-anchor="start" x="6.618" y="-647.5" font-family="Arial" font-size="10.00" fill="#000000">FOREIGN KEY (import_id) REFERENCES imports (id)</text>
</g>
</g>
</svg>
