<?xml version="1.0" encoding="UTF-8" standalone="no"?>
<!DOCTYPE svg PUBLIC "-//W3C//DTD SVG 1.1//EN"
 "http://www.w3.org/Graphics/SVG/1.1/DTD/svg11.dtd">
<!-- Generated by graphviz version 2.40.1 (20161225.0304)
 -->
<!-- Title: hardwares Pages: 1 -->
<svg width="1514pt" height="1799pt"
 viewBox="0.00 0.00 1513.50 1799.00" xmlns="http://www.w3.org/2000/svg" xmlns:xlink="http://www.w3.org/1999/xlink">
<g id="graph0" class="graph" transform="scale(1 1) rotate(0) translate(4 1795)">
<title>hardwares</title>
<polygon fill="#ffffff" stroke="transparent" points="-4,4 -4,-1795 1509.5,-1795 1509.5,4 -4,4"/>
<!-- hardwares -->
<g id="node1" class="node">
<title>hardwares</title>
<polygon fill="#efefef" stroke="transparent" points="628.5,-1192.5 628.5,-1227.5 853.5,-1227.5 853.5,-1192.5 628.5,-1192.5"/>
<polygon fill="none" stroke="#000000" points="628.5,-1192.5 628.5,-1227.5 853.5,-1227.5 853.5,-1192.5 628.5,-1192.5"/>
<text text-anchor="start" x="635.2112" y="-1205.3" font-family="Arial Bold" font-size="18.00" fill="#000000">hardwares</text>
<text text-anchor="start" x="719.2208" y="-1205.3" font-family="Arial" font-size="14.00" fill="#000000">    </text>
<text text-anchor="start" x="753.4256" y="-1205.3" font-family="Arial" font-size="14.00" fill="#666666">[BASE TABLE]</text>
<polygon fill="none" stroke="#000000" points="628.5,-1162.5 628.5,-1192.5 853.5,-1192.5 853.5,-1162.5 628.5,-1162.5"/>
<text text-anchor="start" x="635.5" y="-1173.9" font-family="Arial" font-size="14.00" fill="#000000">id </text>
<text text-anchor="start" x="650.2798" y="-1173.9" font-family="Arial" font-size="14.00" fill="#666666">[bigint(20) unsigned]</text>
<polygon fill="none" stroke="#000000" points="628.5,-1132.5 628.5,-1162.5 853.5,-1162.5 853.5,-1132.5 628.5,-1132.5"/>
<text text-anchor="start" x="635.5" y="-1143.9" font-family="Arial" font-size="14.00" fill="#000000">owner_id </text>
<text text-anchor="start" x="696.1774" y="-1143.9" font-family="Arial" font-size="14.00" fill="#666666">[bigint(20) unsigned]</text>
<polygon fill="none" stroke="#000000" points="628.5,-1102.5 628.5,-1132.5 853.5,-1132.5 853.5,-1102.5 628.5,-1102.5"/>
<text text-anchor="start" x="635.5" y="-1113.9" font-family="Arial" font-size="14.00" fill="#000000">product_name </text>
<text text-anchor="start" x="728.8632" y="-1113.9" font-family="Arial" font-size="14.00" fill="#666666">[varchar(255)]</text>
<polygon fill="none" stroke="#000000" points="628.5,-1072.5 628.5,-1102.5 853.5,-1102.5 853.5,-1072.5 628.5,-1072.5"/>
<text text-anchor="start" x="635.5" y="-1083.9" font-family="Arial" font-size="14.00" fill="#000000">product_content </text>
<text text-anchor="start" x="739.7664" y="-1083.9" font-family="Arial" font-size="14.00" fill="#666666">[longtext]</text>
<polygon fill="none" stroke="#000000" points="628.5,-1042.5 628.5,-1072.5 853.5,-1072.5 853.5,-1042.5 628.5,-1042.5"/>
<text text-anchor="start" x="635.5" y="-1053.9" font-family="Arial" font-size="14.00" fill="#000000">product_excerpt </text>
<text text-anchor="start" x="739.7538" y="-1053.9" font-family="Arial" font-size="14.00" fill="#666666">[text]</text>
<polygon fill="none" stroke="#000000" points="628.5,-1012.5 628.5,-1042.5 853.5,-1042.5 853.5,-1012.5 628.5,-1012.5"/>
<text text-anchor="start" x="635.5" y="-1023.9" font-family="Arial" font-size="14.00" fill="#000000">price </text>
<text text-anchor="start" x="669.723" y="-1023.9" font-family="Arial" font-size="14.00" fill="#666666">[double(8,2)]</text>
<polygon fill="none" stroke="#000000" points="628.5,-982.5 628.5,-1012.5 853.5,-1012.5 853.5,-982.5 628.5,-982.5"/>
<text text-anchor="start" x="635.5" y="-993.9" font-family="Arial" font-size="14.00" fill="#000000">cover_image </text>
<text text-anchor="start" x="719.514" y="-993.9" font-family="Arial" font-size="14.00" fill="#666666">[varchar(255)]</text>
<polygon fill="none" stroke="#000000" points="628.5,-952.5 628.5,-982.5 853.5,-982.5 853.5,-952.5 628.5,-952.5"/>
<text text-anchor="start" x="635.5" y="-963.9" font-family="Arial" font-size="14.00" fill="#000000">gallery </text>
<text text-anchor="start" x="680.6122" y="-963.9" font-family="Arial" font-size="14.00" fill="#666666">[longtext]</text>
<polygon fill="none" stroke="#000000" points="628.5,-922.5 628.5,-952.5 853.5,-952.5 853.5,-922.5 628.5,-922.5"/>
<text text-anchor="start" x="635.5" y="-933.9" font-family="Arial" font-size="14.00" fill="#000000">created </text>
<text text-anchor="start" x="686.0722" y="-933.9" font-family="Arial" font-size="14.00" fill="#666666">[datetime]</text>
<polygon fill="none" stroke="#000000" points="628.5,-892.5 628.5,-922.5 853.5,-922.5 853.5,-892.5 628.5,-892.5"/>
<text text-anchor="start" x="635.5" y="-903.9" font-family="Arial" font-size="14.00" fill="#000000">modified </text>
<text text-anchor="start" x="692.2854" y="-903.9" font-family="Arial" font-size="14.00" fill="#666666">[datetime]</text>
<polygon fill="none" stroke="#000000" points="628.5,-862.5 628.5,-892.5 853.5,-892.5 853.5,-862.5 628.5,-862.5"/>
<text text-anchor="start" x="635.5" y="-873.9" font-family="Arial" font-size="14.00" fill="#000000">product_SKU </text>
<text text-anchor="start" x="722.6346" y="-873.9" font-family="Arial" font-size="14.00" fill="#666666">[varchar(255)]</text>
<polygon fill="none" stroke="#000000" points="628.5,-832.5 628.5,-862.5 853.5,-862.5 853.5,-832.5 628.5,-832.5"/>
<text text-anchor="start" x="635.5" y="-843.9" font-family="Arial" font-size="14.00" fill="#000000">category_id </text>
<text text-anchor="start" x="711.744" y="-843.9" font-family="Arial" font-size="14.00" fill="#666666">[bigint(20) unsigned]</text>
<polygon fill="none" stroke="#000000" points="628.5,-802.5 628.5,-832.5 853.5,-832.5 853.5,-802.5 628.5,-802.5"/>
<text text-anchor="start" x="635.5" y="-813.9" font-family="Arial" font-size="14.00" fill="#000000">inventory_id </text>
<text text-anchor="start" x="714.8506" y="-813.9" font-family="Arial" font-size="14.00" fill="#666666">[bigint(20) unsigned]</text>
<polygon fill="none" stroke="#000000" points="628.5,-772.5 628.5,-802.5 853.5,-802.5 853.5,-772.5 628.5,-772.5"/>
<text text-anchor="start" x="635.5" y="-783.9" font-family="Arial" font-size="14.00" fill="#000000">brand_id </text>
<text text-anchor="start" x="693.8534" y="-783.9" font-family="Arial" font-size="14.00" fill="#666666">[bigint(20) unsigned]</text>
<polygon fill="none" stroke="#000000" points="628.5,-742.5 628.5,-772.5 853.5,-772.5 853.5,-742.5 628.5,-742.5"/>
<text text-anchor="start" x="635.5" y="-753.9" font-family="Arial" font-size="14.00" fill="#000000">product_isLoan </text>
<text text-anchor="start" x="735.0918" y="-753.9" font-family="Arial" font-size="14.00" fill="#666666">[tinyint(1)]</text>
<polygon fill="none" stroke="#000000" points="628.5,-712.5 628.5,-742.5 853.5,-742.5 853.5,-712.5 628.5,-712.5"/>
<text text-anchor="start" x="635.5" y="-723.9" font-family="Arial" font-size="14.00" fill="#000000">template </text>
<text text-anchor="start" x="693.0694" y="-723.9" font-family="Arial" font-size="14.00" fill="#666666">[varchar(255)]</text>
<polygon fill="none" stroke="#000000" points="628.5,-682.5 628.5,-712.5 853.5,-712.5 853.5,-682.5 628.5,-682.5"/>
<text text-anchor="start" x="635.5" y="-693.9" font-family="Arial" font-size="14.00" fill="#000000">extra_content </text>
<text text-anchor="start" x="724.2012" y="-693.9" font-family="Arial" font-size="14.00" fill="#666666">[json]</text>
<polygon fill="none" stroke="#000000" points="628.5,-652.5 628.5,-682.5 853.5,-682.5 853.5,-652.5 628.5,-652.5"/>
<text text-anchor="start" x="635.5" y="-663.9" font-family="Arial" font-size="14.00" fill="#000000">created_at </text>
<text text-anchor="start" x="705.528" y="-663.9" font-family="Arial" font-size="14.00" fill="#666666">[timestamp]</text>
<polygon fill="none" stroke="#000000" points="628.5,-622.5 628.5,-652.5 853.5,-652.5 853.5,-622.5 628.5,-622.5"/>
<text text-anchor="start" x="635.5" y="-633.9" font-family="Arial" font-size="14.00" fill="#000000">updated_at </text>
<text text-anchor="start" x="709.4326" y="-633.9" font-family="Arial" font-size="14.00" fill="#666666">[timestamp]</text>
<polygon fill="none" stroke="#000000" stroke-width="3" points="626.5,-621.5 626.5,-1229.5 854.5,-1229.5 854.5,-621.5 626.5,-621.5"/>
</g>
<!-- users -->
<g id="node5" class="node">
<title>users</title>
<polygon fill="#efefef" stroke="transparent" points="43.5,-462.5 43.5,-497.5 290.5,-497.5 290.5,-462.5 43.5,-462.5"/>
<polygon fill="none" stroke="#000000" points="43.5,-462.5 43.5,-497.5 290.5,-497.5 290.5,-462.5 43.5,-462.5"/>
<text text-anchor="start" x="81.2137" y="-475.3" font-family="Arial Bold" font-size="18.00" fill="#000000">users</text>
<text text-anchor="start" x="125.2183" y="-475.3" font-family="Arial" font-size="14.00" fill="#000000">    </text>
<text text-anchor="start" x="159.4231" y="-475.3" font-family="Arial" font-size="14.00" fill="#666666">[BASE TABLE]</text>
<polygon fill="none" stroke="#000000" points="43.5,-432.5 43.5,-462.5 290.5,-462.5 290.5,-432.5 43.5,-432.5"/>
<text text-anchor="start" x="50.5" y="-443.9" font-family="Arial" font-size="14.00" fill="#000000">id    </text>
<text text-anchor="start" x="95.594" y="-443.9" font-family="Arial" font-size="14.00" fill="#666666">[bigint(20) unsigned]</text>
<polygon fill="none" stroke="#000000" points="43.5,-402.5 43.5,-432.5 290.5,-432.5 290.5,-402.5 43.5,-402.5"/>
<text text-anchor="start" x="50.5" y="-413.9" font-family="Arial" font-size="14.00" fill="#000000">full_name    </text>
<text text-anchor="start" x="145.3822" y="-413.9" font-family="Arial" font-size="14.00" fill="#666666">[varchar(255)]</text>
<polygon fill="none" stroke="#000000" points="43.5,-372.5 43.5,-402.5 290.5,-402.5 290.5,-372.5 43.5,-372.5"/>
<text text-anchor="start" x="50.5" y="-383.9" font-family="Arial" font-size="14.00" fill="#000000">display_name    </text>
<text text-anchor="start" x="171.0568" y="-383.9" font-family="Arial" font-size="14.00" fill="#666666">[varchar(255)]</text>
<polygon fill="none" stroke="#000000" points="43.5,-342.5 43.5,-372.5 290.5,-372.5 290.5,-342.5 43.5,-342.5"/>
<text text-anchor="start" x="50.5" y="-353.9" font-family="Arial" font-size="14.00" fill="#000000">email    </text>
<text text-anchor="start" x="118.1438" y="-353.9" font-family="Arial" font-size="14.00" fill="#666666">[varchar(255)]</text>
<polygon fill="none" stroke="#000000" points="43.5,-312.5 43.5,-342.5 290.5,-342.5 290.5,-312.5 43.5,-312.5"/>
<text text-anchor="start" x="50.5" y="-323.9" font-family="Arial" font-size="14.00" fill="#000000">password    </text>
<text text-anchor="start" x="144.6024" y="-323.9" font-family="Arial" font-size="14.00" fill="#666666">[varchar(255)]</text>
<polygon fill="none" stroke="#000000" points="43.5,-282.5 43.5,-312.5 290.5,-312.5 290.5,-282.5 43.5,-282.5"/>
<text text-anchor="start" x="50.5" y="-293.9" font-family="Arial" font-size="14.00" fill="#000000">status    </text>
<text text-anchor="start" x="122.0512" y="-293.9" font-family="Arial" font-size="14.00" fill="#666666">[varchar(255)]</text>
<polygon fill="none" stroke="#000000" points="43.5,-252.5 43.5,-282.5 290.5,-282.5 290.5,-252.5 43.5,-252.5"/>
<text text-anchor="start" x="50.5" y="-263.9" font-family="Arial" font-size="14.00" fill="#000000">role_id    </text>
<text text-anchor="start" x="126.709" y="-263.9" font-family="Arial" font-size="14.00" fill="#666666">[bigint(20) unsigned]</text>
<polygon fill="none" stroke="#000000" points="43.5,-222.5 43.5,-252.5 290.5,-252.5 290.5,-222.5 43.5,-222.5"/>
<text text-anchor="start" x="50.5" y="-233.9" font-family="Arial" font-size="14.00" fill="#000000">site_id    </text>
<text text-anchor="start" x="125.1564" y="-233.9" font-family="Arial" font-size="14.00" fill="#666666">[bigint(20) unsigned]</text>
<polygon fill="none" stroke="#000000" points="43.5,-192.5 43.5,-222.5 290.5,-222.5 290.5,-192.5 43.5,-192.5"/>
<text text-anchor="start" x="50.3149" y="-203.9" font-family="Arial" font-size="14.00" fill="#000000">usertype_id    </text>
<text text-anchor="start" x="156.8731" y="-203.9" font-family="Arial" font-size="14.00" fill="#666666">[bigint(20) unsigned]</text>
<polygon fill="none" stroke="#000000" points="43.5,-162.5 43.5,-192.5 290.5,-192.5 290.5,-162.5 43.5,-162.5"/>
<text text-anchor="start" x="50.5" y="-173.9" font-family="Arial" font-size="14.00" fill="#000000">remember_token    </text>
<text text-anchor="start" x="190.4986" y="-173.9" font-family="Arial" font-size="14.00" fill="#666666">[varchar(100)]</text>
<polygon fill="none" stroke="#000000" points="43.5,-132.5 43.5,-162.5 290.5,-162.5 290.5,-132.5 43.5,-132.5"/>
<text text-anchor="start" x="50.5" y="-143.9" font-family="Arial" font-size="14.00" fill="#000000">token    </text>
<text text-anchor="start" x="118.9432" y="-143.9" font-family="Arial" font-size="14.00" fill="#666666">[longtext]</text>
<polygon fill="none" stroke="#000000" points="43.5,-102.5 43.5,-132.5 290.5,-132.5 290.5,-102.5 43.5,-102.5"/>
<text text-anchor="start" x="50.5" y="-113.9" font-family="Arial" font-size="14.00" fill="#000000">isFirstTimeVisit    </text>
<text text-anchor="start" x="179.5646" y="-113.9" font-family="Arial" font-size="14.00" fill="#666666">[tinyint(1)]</text>
<polygon fill="none" stroke="#000000" points="43.5,-72.5 43.5,-102.5 290.5,-102.5 290.5,-72.5 43.5,-72.5"/>
<text text-anchor="start" x="50.5" y="-83.9" font-family="Arial" font-size="14.00" fill="#000000">created_at    </text>
<text text-anchor="start" x="150.8422" y="-83.9" font-family="Arial" font-size="14.00" fill="#666666">[timestamp]</text>
<polygon fill="none" stroke="#000000" points="43.5,-42.5 43.5,-72.5 290.5,-72.5 290.5,-42.5 43.5,-42.5"/>
<text text-anchor="start" x="50.5" y="-53.9" font-family="Arial" font-size="14.00" fill="#000000">updated_at    </text>
<text text-anchor="start" x="154.7468" y="-53.9" font-family="Arial" font-size="14.00" fill="#666666">[timestamp]</text>
</g>
<!-- hardwares&#45;&gt;users -->
<g id="edge4" class="edge">
<title>hardwares:owner_id&#45;&gt;users:id</title>
<path fill="none" stroke="#000000" d="M621.6944,-1140.1123C572.2088,-1065.3005 310.7852,-447.5 290.5,-447.5"/>
<polygon fill="#000000" stroke="#000000" points="621.7246,-1140.1451 625.1903,-1150.5489 625.1123,-1143.8226 628.5,-1147.5 628.5,-1147.5 628.5,-1147.5 625.1123,-1143.8226 631.8097,-1144.4511 621.7246,-1140.1451 621.7246,-1140.1451"/>
<text text-anchor="start" x="388.556" y="-1157.5" font-family="Arial" font-size="10.00" fill="#000000">FOREIGN KEY (owner_id) REFERENCES users (id)</text>
</g>
<!-- product_categories -->
<g id="node6" class="node">
<title>product_categories</title>
<polygon fill="#efefef" stroke="transparent" points="394.5,-387.5 394.5,-422.5 688.5,-422.5 688.5,-387.5 394.5,-387.5"/>
<polygon fill="none" stroke="#000000" points="394.5,-387.5 394.5,-422.5 688.5,-422.5 688.5,-387.5 394.5,-387.5"/>
<text text-anchor="start" x="401.1935" y="-400.3" font-family="Arial Bold" font-size="18.00" fill="#000000">product_categories</text>
<text text-anchor="start" x="554.2385" y="-400.3" font-family="Arial" font-size="14.00" fill="#000000">    </text>
<text text-anchor="start" x="588.4433" y="-400.3" font-family="Arial" font-size="14.00" fill="#666666">[BASE TABLE]</text>
<polygon fill="none" stroke="#000000" points="394.5,-357.5 394.5,-387.5 688.5,-387.5 688.5,-357.5 394.5,-357.5"/>
<text text-anchor="start" x="401.5" y="-368.9" font-family="Arial" font-size="14.00" fill="#000000">id    </text>
<text text-anchor="start" x="446.594" y="-368.9" font-family="Arial" font-size="14.00" fill="#666666">[bigint(20) unsigned]</text>
<polygon fill="none" stroke="#000000" points="394.5,-327.5 394.5,-357.5 688.5,-357.5 688.5,-327.5 394.5,-327.5"/>
<text text-anchor="start" x="401.5" y="-338.9" font-family="Arial" font-size="14.00" fill="#000000">product_category_name    </text>
<text text-anchor="start" x="586.6416" y="-338.9" font-family="Arial" font-size="14.00" fill="#666666">[varchar(255)]</text>
<polygon fill="none" stroke="#000000" points="394.5,-297.5 394.5,-327.5 688.5,-327.5 688.5,-297.5 394.5,-297.5"/>
<text text-anchor="start" x="401.5" y="-308.9" font-family="Arial" font-size="14.00" fill="#000000">product_category_description    </text>
<text text-anchor="start" x="619.3106" y="-308.9" font-family="Arial" font-size="14.00" fill="#666666">[text]</text>
<polygon fill="none" stroke="#000000" points="394.5,-267.5 394.5,-297.5 688.5,-297.5 688.5,-267.5 394.5,-267.5"/>
<text text-anchor="start" x="401.5" y="-278.9" font-family="Arial" font-size="14.00" fill="#000000">brand_id    </text>
<text text-anchor="start" x="490.1676" y="-278.9" font-family="Arial" font-size="14.00" fill="#666666">[bigint(20) unsigned]</text>
<polygon fill="none" stroke="#000000" points="394.5,-237.5 394.5,-267.5 688.5,-267.5 688.5,-237.5 394.5,-237.5"/>
<text text-anchor="start" x="401.5" y="-248.9" font-family="Arial" font-size="14.00" fill="#000000">inventory_id    </text>
<text text-anchor="start" x="511.1648" y="-248.9" font-family="Arial" font-size="14.00" fill="#666666">[bigint(20) unsigned]</text>
<polygon fill="none" stroke="#000000" points="394.5,-207.5 394.5,-237.5 688.5,-237.5 688.5,-207.5 394.5,-207.5"/>
<text text-anchor="start" x="401.5" y="-218.9" font-family="Arial" font-size="14.00" fill="#000000">product_created_at    </text>
<text text-anchor="start" x="556.3064" y="-218.9" font-family="Arial" font-size="14.00" fill="#666666">[datetime]</text>
<polygon fill="none" stroke="#000000" points="394.5,-177.5 394.5,-207.5 688.5,-207.5 688.5,-177.5 394.5,-177.5"/>
<text text-anchor="start" x="401.5" y="-188.9" font-family="Arial" font-size="14.00" fill="#000000">product_modified_at    </text>
<text text-anchor="start" x="562.5196" y="-188.9" font-family="Arial" font-size="14.00" fill="#666666">[datetime]</text>
<polygon fill="none" stroke="#000000" points="394.5,-147.5 394.5,-177.5 688.5,-177.5 688.5,-147.5 394.5,-147.5"/>
<text text-anchor="start" x="401.5" y="-158.9" font-family="Arial" font-size="14.00" fill="#000000">created_at    </text>
<text text-anchor="start" x="501.8422" y="-158.9" font-family="Arial" font-size="14.00" fill="#666666">[timestamp]</text>
<polygon fill="none" stroke="#000000" points="394.5,-117.5 394.5,-147.5 688.5,-147.5 688.5,-117.5 394.5,-117.5"/>
<text text-anchor="start" x="401.5" y="-128.9" font-family="Arial" font-size="14.00" fill="#000000">updated_at    </text>
<text text-anchor="start" x="505.7468" y="-128.9" font-family="Arial" font-size="14.00" fill="#666666">[timestamp]</text>
</g>
<!-- hardwares&#45;&gt;product_categories -->
<g id="edge5" class="edge">
<title>hardwares:category_id&#45;&gt;product_categories:id</title>
<path fill="none" stroke="#000000" d="M618.47,-847.1084C513.5419,-838.5116 599.8795,-690.1361 628.5,-577 642.2534,-522.6333 674.7466,-520.3667 688.5,-466 698.6914,-425.7135 730.0556,-372.5 688.5,-372.5"/>
<polygon fill="#000000" stroke="#000000" points="618.5076,-847.1098 628.3244,-851.9966 623.5038,-847.3049 628.5,-847.5 628.5,-847.5 628.5,-847.5 623.5038,-847.3049 628.6756,-843.0034 618.5076,-847.1098 618.5076,-847.1098"/>
<text text-anchor="start" x="316.7075" y="-857.5" font-family="Arial" font-size="10.00" fill="#000000">FOREIGN KEY (category_id) REFERENCES product_categories (id)</text>
</g>
<!-- product_inventories -->
<g id="node7" class="node">
<title>product_inventories</title>
<polygon fill="#efefef" stroke="transparent" points="792.5,-387.5 792.5,-422.5 1090.5,-422.5 1090.5,-387.5 792.5,-387.5"/>
<polygon fill="none" stroke="#000000" points="792.5,-387.5 792.5,-422.5 1090.5,-422.5 1090.5,-387.5 792.5,-387.5"/>
<text text-anchor="start" x="799.1964" y="-400.3" font-family="Arial Bold" font-size="18.00" fill="#000000">product_inventories</text>
<text text-anchor="start" x="956.2356" y="-400.3" font-family="Arial" font-size="14.00" fill="#000000">    </text>
<text text-anchor="start" x="990.4404" y="-400.3" font-family="Arial" font-size="14.00" fill="#666666">[BASE TABLE]</text>
<polygon fill="none" stroke="#000000" points="792.5,-357.5 792.5,-387.5 1090.5,-387.5 1090.5,-357.5 792.5,-357.5"/>
<text text-anchor="start" x="799.5" y="-368.9" font-family="Arial" font-size="14.00" fill="#000000">id    </text>
<text text-anchor="start" x="844.594" y="-368.9" font-family="Arial" font-size="14.00" fill="#666666">[bigint(20) unsigned]</text>
<polygon fill="none" stroke="#000000" points="792.5,-327.5 792.5,-357.5 1090.5,-357.5 1090.5,-327.5 792.5,-327.5"/>
<text text-anchor="start" x="799.5" y="-338.9" font-family="Arial" font-size="14.00" fill="#000000">product_inventory_name    </text>
<text text-anchor="start" x="987.7482" y="-338.9" font-family="Arial" font-size="14.00" fill="#666666">[varchar(255)]</text>
<polygon fill="none" stroke="#000000" points="792.5,-297.5 792.5,-327.5 1090.5,-327.5 1090.5,-297.5 792.5,-297.5"/>
<text text-anchor="start" x="799.5" y="-308.9" font-family="Arial" font-size="14.00" fill="#000000">product_inventory_description    </text>
<text text-anchor="start" x="1020.4172" y="-308.9" font-family="Arial" font-size="14.00" fill="#666666">[text]</text>
<polygon fill="none" stroke="#000000" points="792.5,-267.5 792.5,-297.5 1090.5,-297.5 1090.5,-267.5 792.5,-267.5"/>
<text text-anchor="start" x="799.5" y="-278.9" font-family="Arial" font-size="14.00" fill="#000000">product_inventory_quantity    </text>
<text text-anchor="start" x="1001.758" y="-278.9" font-family="Arial" font-size="14.00" fill="#666666">[int(11)]</text>
<polygon fill="none" stroke="#000000" points="792.5,-237.5 792.5,-267.5 1090.5,-267.5 1090.5,-237.5 792.5,-237.5"/>
<text text-anchor="start" x="799.5" y="-248.9" font-family="Arial" font-size="14.00" fill="#000000">brand_id    </text>
<text text-anchor="start" x="888.1676" y="-248.9" font-family="Arial" font-size="14.00" fill="#666666">[bigint(20) unsigned]</text>
<polygon fill="none" stroke="#000000" points="792.5,-207.5 792.5,-237.5 1090.5,-237.5 1090.5,-207.5 792.5,-207.5"/>
<text text-anchor="start" x="799.5" y="-218.9" font-family="Arial" font-size="14.00" fill="#000000">category_id    </text>
<text text-anchor="start" x="906.0582" y="-218.9" font-family="Arial" font-size="14.00" fill="#666666">[bigint(20) unsigned]</text>
<polygon fill="none" stroke="#000000" points="792.5,-177.5 792.5,-207.5 1090.5,-207.5 1090.5,-177.5 792.5,-177.5"/>
<text text-anchor="start" x="799.5" y="-188.9" font-family="Arial" font-size="14.00" fill="#000000">qty_on_loan    </text>
<text text-anchor="start" x="909.9628" y="-188.9" font-family="Arial" font-size="14.00" fill="#666666">[int(11)]</text>
<polygon fill="none" stroke="#000000" points="792.5,-147.5 792.5,-177.5 1090.5,-177.5 1090.5,-147.5 792.5,-147.5"/>
<text text-anchor="start" x="799.5" y="-158.9" font-family="Arial" font-size="14.00" fill="#000000">created_at    </text>
<text text-anchor="start" x="899.8422" y="-158.9" font-family="Arial" font-size="14.00" fill="#666666">[timestamp]</text>
<polygon fill="none" stroke="#000000" points="792.5,-117.5 792.5,-147.5 1090.5,-147.5 1090.5,-117.5 792.5,-117.5"/>
<text text-anchor="start" x="799.5" y="-128.9" font-family="Arial" font-size="14.00" fill="#000000">updated_at    </text>
<text text-anchor="start" x="903.7468" y="-128.9" font-family="Arial" font-size="14.00" fill="#666666">[timestamp]</text>
</g>
<!-- hardwares&#45;&gt;product_inventories -->
<g id="edge6" class="edge">
<title>hardwares:inventory_id&#45;&gt;product_inventories:id</title>
<path fill="none" stroke="#000000" d="M863.5368,-817.0532C955.1147,-808.4414 879.1917,-677.0953 853.5,-577 839.505,-522.4754 806.495,-520.5246 792.5,-466 782.1687,-425.7492 750.9444,-372.5 792.5,-372.5"/>
<polygon fill="#000000" stroke="#000000" points="863.4901,-817.0552 853.2999,-813.0045 858.4951,-817.2776 853.5,-817.5 853.5,-817.5 853.5,-817.5 858.4951,-817.2776 853.7001,-821.9955 863.4901,-817.0552 863.4901,-817.0552"/>
<text text-anchor="start" x="860.4885" y="-827.5" font-family="Arial" font-size="10.00" fill="#000000">FOREIGN KEY (inventory_id) REFERENCES product_inventories (id)</text>
</g>
<!-- product_brands -->
<g id="node8" class="node">
<title>product_brands</title>
<polygon fill="#efefef" stroke="transparent" points="1194.5,-327.5 1194.5,-362.5 1462.5,-362.5 1462.5,-327.5 1194.5,-327.5"/>
<polygon fill="none" stroke="#000000" points="1194.5,-327.5 1194.5,-362.5 1462.5,-362.5 1462.5,-327.5 1194.5,-327.5"/>
<text text-anchor="start" x="1202.1948" y="-340.3" font-family="Arial Bold" font-size="18.00" fill="#000000">product_brands</text>
<text text-anchor="start" x="1327.2372" y="-340.3" font-family="Arial" font-size="14.00" fill="#000000">    </text>
<text text-anchor="start" x="1361.442" y="-340.3" font-family="Arial" font-size="14.00" fill="#666666">[BASE TABLE]</text>
<polygon fill="none" stroke="#000000" points="1194.5,-297.5 1194.5,-327.5 1462.5,-327.5 1462.5,-297.5 1194.5,-297.5"/>
<text text-anchor="start" x="1201.5" y="-308.9" font-family="Arial" font-size="14.00" fill="#000000">id    </text>
<text text-anchor="start" x="1246.594" y="-308.9" font-family="Arial" font-size="14.00" fill="#666666">[bigint(20) unsigned]</text>
<polygon fill="none" stroke="#000000" points="1194.5,-267.5 1194.5,-297.5 1462.5,-297.5 1462.5,-267.5 1194.5,-267.5"/>
<text text-anchor="start" x="1201.3149" y="-278.9" font-family="Arial" font-size="14.00" fill="#000000">product_brand_name    </text>
<text text-anchor="start" x="1368.5659" y="-278.9" font-family="Arial" font-size="14.00" fill="#666666">[varchar(255)]</text>
<polygon fill="none" stroke="#000000" points="1194.5,-237.5 1194.5,-267.5 1462.5,-267.5 1462.5,-237.5 1194.5,-237.5"/>
<text text-anchor="start" x="1201.5" y="-248.9" font-family="Arial" font-size="14.00" fill="#000000">product_brand_description    </text>
<text text-anchor="start" x="1401.42" y="-248.9" font-family="Arial" font-size="14.00" fill="#666666">[text]</text>
<polygon fill="none" stroke="#000000" points="1194.5,-207.5 1194.5,-237.5 1462.5,-237.5 1462.5,-207.5 1194.5,-207.5"/>
<text text-anchor="start" x="1201.5" y="-218.9" font-family="Arial" font-size="14.00" fill="#000000">created_at    </text>
<text text-anchor="start" x="1301.8422" y="-218.9" font-family="Arial" font-size="14.00" fill="#666666">[timestamp]</text>
<polygon fill="none" stroke="#000000" points="1194.5,-177.5 1194.5,-207.5 1462.5,-207.5 1462.5,-177.5 1194.5,-177.5"/>
<text text-anchor="start" x="1201.5" y="-188.9" font-family="Arial" font-size="14.00" fill="#000000">updated_at    </text>
<text text-anchor="start" x="1305.7468" y="-188.9" font-family="Arial" font-size="14.00" fill="#666666">[timestamp]</text>
</g>
<!-- hardwares&#45;&gt;product_brands -->
<g id="edge7" class="edge">
<title>hardwares:brand_id&#45;&gt;product_brands:id</title>
<path fill="none" stroke="#000000" d="M863.7164,-787.3717C1023.688,-783.2959 1056.8913,-682.4729 1142.5,-541 1196.4212,-451.8924 1090.3479,-312.5 1194.5,-312.5"/>
<polygon fill="#000000" stroke="#000000" points="863.4992,-787.3744 853.4435,-783.0004 858.4996,-787.4372 853.5,-787.5 853.5,-787.5 853.5,-787.5 858.4996,-787.4372 853.5565,-791.9996 863.4992,-787.3744 863.4992,-787.3744"/>
<text text-anchor="start" x="860.8755" y="-797.5" font-family="Arial" font-size="10.00" fill="#000000">FOREIGN KEY (brand_id) REFERENCES product_brands (id)</text>
</g>
<!-- hardware_metas -->
<g id="node2" class="node">
<title>hardware_metas</title>
<polygon fill="#efefef" stroke="transparent" points="236.5,-1622.5 236.5,-1657.5 511.5,-1657.5 511.5,-1622.5 236.5,-1622.5"/>
<polygon fill="none" stroke="#000000" points="236.5,-1622.5 236.5,-1657.5 511.5,-1657.5 511.5,-1622.5 236.5,-1622.5"/>
<text text-anchor="start" x="243.2047" y="-1635.3" font-family="Arial Bold" font-size="18.00" fill="#000000">hardware_metas</text>
<text text-anchor="start" x="377.2273" y="-1635.3" font-family="Arial" font-size="14.00" fill="#000000">    </text>
<text text-anchor="start" x="411.4321" y="-1635.3" font-family="Arial" font-size="14.00" fill="#666666">[BASE TABLE]</text>
<polygon fill="none" stroke="#000000" points="236.5,-1592.5 236.5,-1622.5 511.5,-1622.5 511.5,-1592.5 236.5,-1592.5"/>
<text text-anchor="start" x="243.5" y="-1603.9" font-family="Arial" font-size="14.00" fill="#000000">id    </text>
<text text-anchor="start" x="288.594" y="-1603.9" font-family="Arial" font-size="14.00" fill="#666666">[bigint(20) unsigned]</text>
<polygon fill="none" stroke="#000000" points="236.5,-1562.5 236.5,-1592.5 511.5,-1592.5 511.5,-1562.5 236.5,-1562.5"/>
<text text-anchor="start" x="243.5" y="-1573.9" font-family="Arial" font-size="14.00" fill="#000000">product_id    </text>
<text text-anchor="start" x="343.0582" y="-1573.9" font-family="Arial" font-size="14.00" fill="#666666">[bigint(20) unsigned]</text>
<polygon fill="none" stroke="#000000" points="236.5,-1532.5 236.5,-1562.5 511.5,-1562.5 511.5,-1532.5 236.5,-1532.5"/>
<text text-anchor="start" x="243.5" y="-1543.9" font-family="Arial" font-size="14.00" fill="#000000">product_meta_key    </text>
<text text-anchor="start" x="392.8506" y="-1543.9" font-family="Arial" font-size="14.00" fill="#666666">[varchar(255)]</text>
<polygon fill="none" stroke="#000000" points="236.5,-1502.5 236.5,-1532.5 511.5,-1532.5 511.5,-1502.5 236.5,-1502.5"/>
<text text-anchor="start" x="243.5" y="-1513.9" font-family="Arial" font-size="14.00" fill="#000000">product_meta_value    </text>
<text text-anchor="start" x="404.5224" y="-1513.9" font-family="Arial" font-size="14.00" fill="#666666">[text]</text>
<polygon fill="none" stroke="#000000" points="236.5,-1472.5 236.5,-1502.5 511.5,-1502.5 511.5,-1472.5 236.5,-1472.5"/>
<text text-anchor="start" x="243.5" y="-1483.9" font-family="Arial" font-size="14.00" fill="#000000">created_at    </text>
<text text-anchor="start" x="343.8422" y="-1483.9" font-family="Arial" font-size="14.00" fill="#666666">[timestamp]</text>
<polygon fill="none" stroke="#000000" points="236.5,-1442.5 236.5,-1472.5 511.5,-1472.5 511.5,-1442.5 236.5,-1442.5"/>
<text text-anchor="start" x="243.5" y="-1453.9" font-family="Arial" font-size="14.00" fill="#000000">updated_at    </text>
<text text-anchor="start" x="347.7468" y="-1453.9" font-family="Arial" font-size="14.00" fill="#666666">[timestamp]</text>
</g>
<!-- hardware_metas&#45;&gt;hardwares -->
<g id="edge1" class="edge">
<title>hardware_metas:product_id&#45;&gt;hardwares:id</title>
<path fill="none" stroke="#000000" d="M521.5576,-1575.27C568.8589,-1552.6186 545.3864,-1363.93 563.5,-1310 584.3845,-1247.8204 562.9068,-1177.5 628.5,-1177.5"/>
<polygon fill="#000000" stroke="#000000" points="521.2629,-1575.3352 510.5258,-1573.1067 516.3814,-1576.4176 511.5,-1577.5 511.5,-1577.5 511.5,-1577.5 516.3814,-1576.4176 512.4742,-1581.8933 521.2629,-1575.3352 521.2629,-1575.3352"/>
<text text-anchor="start" x="518.384" y="-1587.5" font-family="Arial" font-size="10.00" fill="#000000">FOREIGN KEY (product_id) REFERENCES hardwares (id)</text>
</g>
<!-- loan_histories -->
<g id="node3" class="node">
<title>loan_histories</title>
<polygon fill="#efefef" stroke="transparent" points="615.5,-1637.5 615.5,-1672.5 867.5,-1672.5 867.5,-1637.5 615.5,-1637.5"/>
<polygon fill="none" stroke="#000000" points="615.5,-1637.5 615.5,-1672.5 867.5,-1672.5 867.5,-1637.5 615.5,-1637.5"/>
<text text-anchor="start" x="622.2058" y="-1650.3" font-family="Arial Bold" font-size="18.00" fill="#000000">loan_histories</text>
<text text-anchor="start" x="733.2262" y="-1650.3" font-family="Arial" font-size="14.00" fill="#000000">    </text>
<text text-anchor="start" x="767.431" y="-1650.3" font-family="Arial" font-size="14.00" fill="#666666">[BASE TABLE]</text>
<polygon fill="none" stroke="#000000" points="615.5,-1607.5 615.5,-1637.5 867.5,-1637.5 867.5,-1607.5 615.5,-1607.5"/>
<text text-anchor="start" x="622.5" y="-1618.9" font-family="Arial" font-size="14.00" fill="#000000">id    </text>
<text text-anchor="start" x="667.594" y="-1618.9" font-family="Arial" font-size="14.00" fill="#666666">[bigint(20) unsigned]</text>
<polygon fill="none" stroke="#000000" points="615.5,-1577.5 615.5,-1607.5 867.5,-1607.5 867.5,-1577.5 615.5,-1577.5"/>
<text text-anchor="start" x="622.5" y="-1588.9" font-family="Arial" font-size="14.00" fill="#000000">product_id    </text>
<text text-anchor="start" x="722.0582" y="-1588.9" font-family="Arial" font-size="14.00" fill="#666666">[bigint(20) unsigned]</text>
<polygon fill="none" stroke="#000000" points="615.5,-1547.5 615.5,-1577.5 867.5,-1577.5 867.5,-1547.5 615.5,-1547.5"/>
<text text-anchor="start" x="622.5" y="-1558.9" font-family="Arial" font-size="14.00" fill="#000000">user_id    </text>
<text text-anchor="start" x="702.6024" y="-1558.9" font-family="Arial" font-size="14.00" fill="#666666">[bigint(20) unsigned]</text>
<polygon fill="none" stroke="#000000" points="615.5,-1517.5 615.5,-1547.5 867.5,-1547.5 867.5,-1517.5 615.5,-1517.5"/>
<text text-anchor="start" x="622.5" y="-1528.9" font-family="Arial" font-size="14.00" fill="#000000">loan_start    </text>
<text text-anchor="start" x="718.1662" y="-1528.9" font-family="Arial" font-size="14.00" fill="#666666">[datetime]</text>
<polygon fill="none" stroke="#000000" points="615.5,-1487.5 615.5,-1517.5 867.5,-1517.5 867.5,-1487.5 615.5,-1487.5"/>
<text text-anchor="start" x="622.5" y="-1498.9" font-family="Arial" font-size="14.00" fill="#000000">loan_end    </text>
<text text-anchor="start" x="714.2896" y="-1498.9" font-family="Arial" font-size="14.00" fill="#666666">[datetime]</text>
<polygon fill="none" stroke="#000000" points="615.5,-1457.5 615.5,-1487.5 867.5,-1487.5 867.5,-1457.5 615.5,-1457.5"/>
<text text-anchor="start" x="622.5" y="-1468.9" font-family="Arial" font-size="14.00" fill="#000000">created_at    </text>
<text text-anchor="start" x="722.8422" y="-1468.9" font-family="Arial" font-size="14.00" fill="#666666">[timestamp]</text>
<polygon fill="none" stroke="#000000" points="615.5,-1427.5 615.5,-1457.5 867.5,-1457.5 867.5,-1427.5 615.5,-1427.5"/>
<text text-anchor="start" x="622.5" y="-1438.9" font-family="Arial" font-size="14.00" fill="#000000">updated_at    </text>
<text text-anchor="start" x="726.7468" y="-1438.9" font-family="Arial" font-size="14.00" fill="#666666">[timestamp]</text>
</g>
<!-- loan_histories&#45;&gt;hardwares -->
<g id="edge2" class="edge">
<title>loan_histories:product_id&#45;&gt;hardwares:id</title>
<path fill="none" stroke="#000000" d="M605.8972,-1589.5549C572.7438,-1566.9465 592.6613,-1420.8522 615.5,-1385 678.2085,-1286.5604 790.7915,-1372.4396 853.5,-1274 876.543,-1237.8271 896.3889,-1177.5 853.5,-1177.5"/>
<polygon fill="#000000" stroke="#000000" points="605.9395,-1589.5678 614.1805,-1596.8022 610.7198,-1591.0339 615.5,-1592.5 615.5,-1592.5 615.5,-1592.5 610.7198,-1591.0339 616.8195,-1588.1978 605.9395,-1589.5678 605.9395,-1589.5678"/>
<text text-anchor="start" x="622.384" y="-1602.5" font-family="Arial" font-size="10.00" fill="#000000">FOREIGN KEY (product_id) REFERENCES hardwares (id)</text>
</g>
<!-- loans -->
<g id="node4" class="node">
<title>loans</title>
<polygon fill="#efefef" stroke="transparent" points="971.5,-1712.5 971.5,-1747.5 1221.5,-1747.5 1221.5,-1712.5 971.5,-1712.5"/>
<polygon fill="none" stroke="#000000" points="971.5,-1712.5 971.5,-1747.5 1221.5,-1747.5 1221.5,-1712.5 971.5,-1712.5"/>
<text text-anchor="start" x="1011.2096" y="-1725.3" font-family="Arial Bold" font-size="18.00" fill="#000000">loans</text>
<text text-anchor="start" x="1054.2224" y="-1725.3" font-family="Arial" font-size="14.00" fill="#000000">    </text>
<text text-anchor="start" x="1088.4272" y="-1725.3" font-family="Arial" font-size="14.00" fill="#666666">[BASE TABLE]</text>
<polygon fill="none" stroke="#000000" points="971.5,-1682.5 971.5,-1712.5 1221.5,-1712.5 1221.5,-1682.5 971.5,-1682.5"/>
<text text-anchor="start" x="978.5" y="-1693.9" font-family="Arial" font-size="14.00" fill="#000000">id    </text>
<text text-anchor="start" x="1023.594" y="-1693.9" font-family="Arial" font-size="14.00" fill="#666666">[bigint(20) unsigned]</text>
<polygon fill="none" stroke="#000000" points="971.5,-1652.5 971.5,-1682.5 1221.5,-1682.5 1221.5,-1652.5 971.5,-1652.5"/>
<text text-anchor="start" x="978.5" y="-1663.9" font-family="Arial" font-size="14.00" fill="#000000">product_id    </text>
<text text-anchor="start" x="1078.0582" y="-1663.9" font-family="Arial" font-size="14.00" fill="#666666">[bigint(20) unsigned]</text>
<polygon fill="none" stroke="#000000" points="971.5,-1622.5 971.5,-1652.5 1221.5,-1652.5 1221.5,-1622.5 971.5,-1622.5"/>
<text text-anchor="start" x="978.5" y="-1633.9" font-family="Arial" font-size="14.00" fill="#000000">user_id    </text>
<text text-anchor="start" x="1058.6024" y="-1633.9" font-family="Arial" font-size="14.00" fill="#666666">[bigint(20) unsigned]</text>
<polygon fill="none" stroke="#000000" points="971.5,-1592.5 971.5,-1622.5 1221.5,-1622.5 1221.5,-1592.5 971.5,-1592.5"/>
<text text-anchor="start" x="978.5" y="-1603.9" font-family="Arial" font-size="14.00" fill="#000000">loan_start    </text>
<text text-anchor="start" x="1074.1662" y="-1603.9" font-family="Arial" font-size="14.00" fill="#666666">[datetime]</text>
<polygon fill="none" stroke="#000000" points="971.5,-1562.5 971.5,-1592.5 1221.5,-1592.5 1221.5,-1562.5 971.5,-1562.5"/>
<text text-anchor="start" x="978.5" y="-1573.9" font-family="Arial" font-size="14.00" fill="#000000">loan_end    </text>
<text text-anchor="start" x="1070.2896" y="-1573.9" font-family="Arial" font-size="14.00" fill="#666666">[datetime]</text>
<polygon fill="none" stroke="#000000" points="971.5,-1532.5 971.5,-1562.5 1221.5,-1562.5 1221.5,-1532.5 971.5,-1532.5"/>
<text text-anchor="start" x="978.5" y="-1543.9" font-family="Arial" font-size="14.00" fill="#000000">is_available    </text>
<text text-anchor="start" x="1085.8268" y="-1543.9" font-family="Arial" font-size="14.00" fill="#666666">[tinyint(1)]</text>
<polygon fill="none" stroke="#000000" points="971.5,-1502.5 971.5,-1532.5 1221.5,-1532.5 1221.5,-1502.5 971.5,-1502.5"/>
<text text-anchor="start" x="978.5" y="-1513.9" font-family="Arial" font-size="14.00" fill="#000000">status    </text>
<text text-anchor="start" x="1050.0512" y="-1513.9" font-family="Arial" font-size="14.00" fill="#666666">[varchar(255)]</text>
<polygon fill="none" stroke="#000000" points="971.5,-1472.5 971.5,-1502.5 1221.5,-1502.5 1221.5,-1472.5 971.5,-1472.5"/>
<text text-anchor="start" x="978.5" y="-1483.9" font-family="Arial" font-size="14.00" fill="#000000">quantity    </text>
<text text-anchor="start" x="1061.723" y="-1483.9" font-family="Arial" font-size="14.00" fill="#666666">[int(11)]</text>
<polygon fill="none" stroke="#000000" points="971.5,-1442.5 971.5,-1472.5 1221.5,-1472.5 1221.5,-1442.5 971.5,-1442.5"/>
<text text-anchor="start" x="978.2616" y="-1453.9" font-family="Arial" font-size="14.00" fill="#000000">inventory_id    </text>
<text text-anchor="start" x="1087.9264" y="-1453.9" font-family="Arial" font-size="14.00" fill="#666666">[bigint(20) unsigned]</text>
<polygon fill="none" stroke="#000000" points="971.5,-1412.5 971.5,-1442.5 1221.5,-1442.5 1221.5,-1412.5 971.5,-1412.5"/>
<text text-anchor="start" x="978.5" y="-1423.9" font-family="Arial" font-size="14.00" fill="#000000">is_returned    </text>
<text text-anchor="start" x="1082.7188" y="-1423.9" font-family="Arial" font-size="14.00" fill="#666666">[tinyint(1)]</text>
<polygon fill="none" stroke="#000000" points="971.5,-1382.5 971.5,-1412.5 1221.5,-1412.5 1221.5,-1382.5 971.5,-1382.5"/>
<text text-anchor="start" x="978.5" y="-1393.9" font-family="Arial" font-size="14.00" fill="#000000">created_at    </text>
<text text-anchor="start" x="1078.8422" y="-1393.9" font-family="Arial" font-size="14.00" fill="#666666">[timestamp]</text>
<polygon fill="none" stroke="#000000" points="971.5,-1352.5 971.5,-1382.5 1221.5,-1382.5 1221.5,-1352.5 971.5,-1352.5"/>
<text text-anchor="start" x="978.5" y="-1363.9" font-family="Arial" font-size="14.00" fill="#000000">updated_at    </text>
<text text-anchor="start" x="1082.7468" y="-1363.9" font-family="Arial" font-size="14.00" fill="#666666">[timestamp]</text>
</g>
<!-- loans&#45;&gt;hardwares -->
<g id="edge3" class="edge">
<title>loans:product_id&#45;&gt;hardwares:id</title>
<path fill="none" stroke="#000000" d="M961.4644,-1665.8435C895.7607,-1642.6766 942.3996,-1383.1746 919.5,-1310 899.851,-1247.2125 919.2902,-1177.5 853.5,-1177.5"/>
<polygon fill="#000000" stroke="#000000" points="961.6335,-1665.8714 970.7671,-1671.9399 966.5667,-1666.6857 971.5,-1667.5 971.5,-1667.5 971.5,-1667.5 966.5667,-1666.6857 972.2329,-1663.0601 961.6335,-1665.8714 961.6335,-1665.8714"/>
<text text-anchor="start" x="702.384" y="-1677.5" font-family="Arial" font-size="10.00" fill="#000000">FOREIGN KEY (product_id) REFERENCES hardwares (id)</text>
</g>
</g>
</svg>
