<?xml version="1.0" encoding="UTF-8" standalone="no"?>
<!DOCTYPE svg PUBLIC "-//W3C//DTD SVG 1.1//EN"
 "http://www.w3.org/Graphics/SVG/1.1/DTD/svg11.dtd">
<!-- Generated by graphviz version 2.40.1 (20161225.0304)
 -->
<!-- Title: hardware_metas Pages: 1 -->
<svg width="606pt" height="1042pt"
 viewBox="0.00 0.00 605.50 1042.00" xmlns="http://www.w3.org/2000/svg" xmlns:xlink="http://www.w3.org/1999/xlink">
<g id="graph0" class="graph" transform="scale(1 1) rotate(0) translate(4 1038)">
<title>hardware_metas</title>
<polygon fill="#ffffff" stroke="transparent" points="-4,4 -4,-1038 601.5,-1038 601.5,4 -4,4"/>
<!-- hardware_metas -->
<g id="node1" class="node">
<title>hardware_metas</title>
<polygon fill="#efefef" stroke="transparent" points="46.5,-952.5 46.5,-987.5 321.5,-987.5 321.5,-952.5 46.5,-952.5"/>
<polygon fill="none" stroke="#000000" points="46.5,-952.5 46.5,-987.5 321.5,-987.5 321.5,-952.5 46.5,-952.5"/>
<text text-anchor="start" x="53.2047" y="-965.3" font-family="Arial Bold" font-size="18.00" fill="#000000">hardware_metas</text>
<text text-anchor="start" x="187.2273" y="-965.3" font-family="Arial" font-size="14.00" fill="#000000">    </text>
<text text-anchor="start" x="221.4321" y="-965.3" font-family="Arial" font-size="14.00" fill="#666666">[BASE TABLE]</text>
<polygon fill="none" stroke="#000000" points="46.5,-922.5 46.5,-952.5 321.5,-952.5 321.5,-922.5 46.5,-922.5"/>
<text text-anchor="start" x="53.5" y="-933.9" font-family="Arial" font-size="14.00" fill="#000000">id </text>
<text text-anchor="start" x="68.2798" y="-933.9" font-family="Arial" font-size="14.00" fill="#666666">[bigint(20) unsigned]</text>
<polygon fill="none" stroke="#000000" points="46.5,-892.5 46.5,-922.5 321.5,-922.5 321.5,-892.5 46.5,-892.5"/>
<text text-anchor="start" x="53.5" y="-903.9" font-family="Arial" font-size="14.00" fill="#000000">product_id </text>
<text text-anchor="start" x="122.744" y="-903.9" font-family="Arial" font-size="14.00" fill="#666666">[bigint(20) unsigned]</text>
<polygon fill="none" stroke="#000000" points="46.5,-862.5 46.5,-892.5 321.5,-892.5 321.5,-862.5 46.5,-862.5"/>
<text text-anchor="start" x="53.5" y="-873.9" font-family="Arial" font-size="14.00" fill="#000000">product_meta_key </text>
<text text-anchor="start" x="172.5364" y="-873.9" font-family="Arial" font-size="14.00" fill="#666666">[varchar(255)]</text>
<polygon fill="none" stroke="#000000" points="46.5,-832.5 46.5,-862.5 321.5,-862.5 321.5,-832.5 46.5,-832.5"/>
<text text-anchor="start" x="53.5" y="-843.9" font-family="Arial" font-size="14.00" fill="#000000">product_meta_value </text>
<text text-anchor="start" x="184.2082" y="-843.9" font-family="Arial" font-size="14.00" fill="#666666">[text]</text>
<polygon fill="none" stroke="#000000" points="46.5,-802.5 46.5,-832.5 321.5,-832.5 321.5,-802.5 46.5,-802.5"/>
<text text-anchor="start" x="53.5" y="-813.9" font-family="Arial" font-size="14.00" fill="#000000">created_at </text>
<text text-anchor="start" x="123.528" y="-813.9" font-family="Arial" font-size="14.00" fill="#666666">[timestamp]</text>
<polygon fill="none" stroke="#000000" points="46.5,-772.5 46.5,-802.5 321.5,-802.5 321.5,-772.5 46.5,-772.5"/>
<text text-anchor="start" x="53.5" y="-783.9" font-family="Arial" font-size="14.00" fill="#000000">updated_at </text>
<text text-anchor="start" x="127.4326" y="-783.9" font-family="Arial" font-size="14.00" fill="#666666">[timestamp]</text>
<polygon fill="none" stroke="#000000" stroke-width="3" points="44.5,-771.5 44.5,-989.5 322.5,-989.5 322.5,-771.5 44.5,-771.5"/>
</g>
<!-- hardwares -->
<g id="node2" class="node">
<title>hardwares</title>
<polygon fill="#efefef" stroke="transparent" points="59.5,-612.5 59.5,-647.5 309.5,-647.5 309.5,-612.5 59.5,-612.5"/>
<polygon fill="none" stroke="#000000" points="59.5,-612.5 59.5,-647.5 309.5,-647.5 309.5,-612.5 59.5,-612.5"/>
<text text-anchor="start" x="78.7112" y="-625.3" font-family="Arial Bold" font-size="18.00" fill="#000000">hardwares</text>
<text text-anchor="start" x="162.7208" y="-625.3" font-family="Arial" font-size="14.00" fill="#000000">    </text>
<text text-anchor="start" x="196.9256" y="-625.3" font-family="Arial" font-size="14.00" fill="#666666">[BASE TABLE]</text>
<polygon fill="none" stroke="#000000" points="59.5,-582.5 59.5,-612.5 309.5,-612.5 309.5,-582.5 59.5,-582.5"/>
<text text-anchor="start" x="66.5" y="-593.9" font-family="Arial" font-size="14.00" fill="#000000">id    </text>
<text text-anchor="start" x="111.594" y="-593.9" font-family="Arial" font-size="14.00" fill="#666666">[bigint(20) unsigned]</text>
<polygon fill="none" stroke="#000000" points="59.5,-552.5 59.5,-582.5 309.5,-582.5 309.5,-552.5 59.5,-552.5"/>
<text text-anchor="start" x="66.5" y="-563.9" font-family="Arial" font-size="14.00" fill="#000000">owner_id    </text>
<text text-anchor="start" x="157.4916" y="-563.9" font-family="Arial" font-size="14.00" fill="#666666">[bigint(20) unsigned]</text>
<polygon fill="none" stroke="#000000" points="59.5,-522.5 59.5,-552.5 309.5,-552.5 309.5,-522.5 59.5,-522.5"/>
<text text-anchor="start" x="66.5" y="-533.9" font-family="Arial" font-size="14.00" fill="#000000">product_name    </text>
<text text-anchor="start" x="190.1774" y="-533.9" font-family="Arial" font-size="14.00" fill="#666666">[varchar(255)]</text>
<polygon fill="none" stroke="#000000" points="59.5,-492.5 59.5,-522.5 309.5,-522.5 309.5,-492.5 59.5,-492.5"/>
<text text-anchor="start" x="66.5" y="-503.9" font-family="Arial" font-size="14.00" fill="#000000">product_content    </text>
<text text-anchor="start" x="201.0806" y="-503.9" font-family="Arial" font-size="14.00" fill="#666666">[longtext]</text>
<polygon fill="none" stroke="#000000" points="59.5,-462.5 59.5,-492.5 309.5,-492.5 309.5,-462.5 59.5,-462.5"/>
<text text-anchor="start" x="66.5" y="-473.9" font-family="Arial" font-size="14.00" fill="#000000">product_excerpt    </text>
<text text-anchor="start" x="201.068" y="-473.9" font-family="Arial" font-size="14.00" fill="#666666">[text]</text>
<polygon fill="none" stroke="#000000" points="59.5,-432.5 59.5,-462.5 309.5,-462.5 309.5,-432.5 59.5,-432.5"/>
<text text-anchor="start" x="66.5" y="-443.9" font-family="Arial" font-size="14.00" fill="#000000">price    </text>
<text text-anchor="start" x="131.0372" y="-443.9" font-family="Arial" font-size="14.00" fill="#666666">[double(8,2)]</text>
<polygon fill="none" stroke="#000000" points="59.5,-402.5 59.5,-432.5 309.5,-432.5 309.5,-402.5 59.5,-402.5"/>
<text text-anchor="start" x="66.5" y="-413.9" font-family="Arial" font-size="14.00" fill="#000000">cover_image    </text>
<text text-anchor="start" x="180.8282" y="-413.9" font-family="Arial" font-size="14.00" fill="#666666">[varchar(255)]</text>
<polygon fill="none" stroke="#000000" points="59.5,-372.5 59.5,-402.5 309.5,-402.5 309.5,-372.5 59.5,-372.5"/>
<text text-anchor="start" x="66.5" y="-383.9" font-family="Arial" font-size="14.00" fill="#000000">gallery    </text>
<text text-anchor="start" x="141.9264" y="-383.9" font-family="Arial" font-size="14.00" fill="#666666">[longtext]</text>
<polygon fill="none" stroke="#000000" points="59.5,-342.5 59.5,-372.5 309.5,-372.5 309.5,-342.5 59.5,-342.5"/>
<text text-anchor="start" x="66.5" y="-353.9" font-family="Arial" font-size="14.00" fill="#000000">created    </text>
<text text-anchor="start" x="147.3864" y="-353.9" font-family="Arial" font-size="14.00" fill="#666666">[datetime]</text>
<polygon fill="none" stroke="#000000" points="59.5,-312.5 59.5,-342.5 309.5,-342.5 309.5,-312.5 59.5,-312.5"/>
<text text-anchor="start" x="66.5" y="-323.9" font-family="Arial" font-size="14.00" fill="#000000">modified    </text>
<text text-anchor="start" x="153.5996" y="-323.9" font-family="Arial" font-size="14.00" fill="#666666">[datetime]</text>
<polygon fill="none" stroke="#000000" points="59.5,-282.5 59.5,-312.5 309.5,-312.5 309.5,-282.5 59.5,-282.5"/>
<text text-anchor="start" x="66.5" y="-293.9" font-family="Arial" font-size="14.00" fill="#000000">product_SKU    </text>
<text text-anchor="start" x="183.9488" y="-293.9" font-family="Arial" font-size="14.00" fill="#666666">[varchar(255)]</text>
<polygon fill="none" stroke="#000000" points="59.5,-252.5 59.5,-282.5 309.5,-282.5 309.5,-252.5 59.5,-252.5"/>
<text text-anchor="start" x="66.5" y="-263.9" font-family="Arial" font-size="14.00" fill="#000000">category_id    </text>
<text text-anchor="start" x="173.0582" y="-263.9" font-family="Arial" font-size="14.00" fill="#666666">[bigint(20) unsigned]</text>
<polygon fill="none" stroke="#000000" points="59.5,-222.5 59.5,-252.5 309.5,-252.5 309.5,-222.5 59.5,-222.5"/>
<text text-anchor="start" x="66.2616" y="-233.9" font-family="Arial" font-size="14.00" fill="#000000">inventory_id    </text>
<text text-anchor="start" x="175.9264" y="-233.9" font-family="Arial" font-size="14.00" fill="#666666">[bigint(20) unsigned]</text>
<polygon fill="none" stroke="#000000" points="59.5,-192.5 59.5,-222.5 309.5,-222.5 309.5,-192.5 59.5,-192.5"/>
<text text-anchor="start" x="66.5" y="-203.9" font-family="Arial" font-size="14.00" fill="#000000">brand_id    </text>
<text text-anchor="start" x="155.1676" y="-203.9" font-family="Arial" font-size="14.00" fill="#666666">[bigint(20) unsigned]</text>
<polygon fill="none" stroke="#000000" points="59.5,-162.5 59.5,-192.5 309.5,-192.5 309.5,-162.5 59.5,-162.5"/>
<text text-anchor="start" x="66.5" y="-173.9" font-family="Arial" font-size="14.00" fill="#000000">product_isLoan    </text>
<text text-anchor="start" x="196.406" y="-173.9" font-family="Arial" font-size="14.00" fill="#666666">[tinyint(1)]</text>
<polygon fill="none" stroke="#000000" points="59.5,-132.5 59.5,-162.5 309.5,-162.5 309.5,-132.5 59.5,-132.5"/>
<text text-anchor="start" x="66.5" y="-143.9" font-family="Arial" font-size="14.00" fill="#000000">template    </text>
<text text-anchor="start" x="154.3836" y="-143.9" font-family="Arial" font-size="14.00" fill="#666666">[varchar(255)]</text>
<polygon fill="none" stroke="#000000" points="59.5,-102.5 59.5,-132.5 309.5,-132.5 309.5,-102.5 59.5,-102.5"/>
<text text-anchor="start" x="66.5" y="-113.9" font-family="Arial" font-size="14.00" fill="#000000">extra_content    </text>
<text text-anchor="start" x="185.5154" y="-113.9" font-family="Arial" font-size="14.00" fill="#666666">[json]</text>
<polygon fill="none" stroke="#000000" points="59.5,-72.5 59.5,-102.5 309.5,-102.5 309.5,-72.5 59.5,-72.5"/>
<text text-anchor="start" x="66.5" y="-83.9" font-family="Arial" font-size="14.00" fill="#000000">created_at    </text>
<text text-anchor="start" x="166.8422" y="-83.9" font-family="Arial" font-size="14.00" fill="#666666">[timestamp]</text>
<polygon fill="none" stroke="#000000" points="59.5,-42.5 59.5,-72.5 309.5,-72.5 309.5,-42.5 59.5,-42.5"/>
<text text-anchor="start" x="66.5" y="-53.9" font-family="Arial" font-size="14.00" fill="#000000">updated_at    </text>
<text text-anchor="start" x="170.7468" y="-53.9" font-family="Arial" font-size="14.00" fill="#666666">[timestamp]</text>
</g>
<!-- hardware_metas&#45;&gt;hardwares -->
<g id="edge1" class="edge">
<title>hardware_metas:product_id&#45;&gt;hardwares:id</title>
<path fill="none" stroke="#000000" d="M331.6665,-906.7896C399.2007,-896.8357 371.8552,-784.7473 321.5,-727 244.2514,-638.4113 136.7486,-779.5887 59.5,-691 32.1889,-659.6796 17.9444,-597.5 59.5,-597.5"/>
<polygon fill="#000000" stroke="#000000" points="331.4757,-906.8028 321.1863,-903.0109 326.4878,-907.1514 321.5,-907.5 321.5,-907.5 321.5,-907.5 326.4878,-907.1514 321.8137,-911.9891 331.4757,-906.8028 331.4757,-906.8028"/>
<text text-anchor="start" x="328.384" y="-917.5" font-family="Arial" font-size="10.00" fill="#000000">FOREIGN KEY (product_id) REFERENCES hardwares (id)</text>
</g>
</g>
</svg>
