<?xml version="1.0" encoding="UTF-8" standalone="no"?>
<!DOCTYPE svg PUBLIC "-//W3C//DTD SVG 1.1//EN"
 "http://www.w3.org/Graphics/SVG/1.1/DTD/svg11.dtd">
<!-- Generated by graphviz version 2.40.1 (20161225.0304)
 -->
<!-- Title: imports Pages: 1 -->
<svg width="764pt" height="1379pt"
 viewBox="0.00 0.00 764.00 1379.00" xmlns="http://www.w3.org/2000/svg" xmlns:xlink="http://www.w3.org/1999/xlink">
<g id="graph0" class="graph" transform="scale(1 1) rotate(0) translate(4 1375)">
<title>imports</title>
<polygon fill="#ffffff" stroke="transparent" points="-4,4 -4,-1375 760,-1375 760,4 -4,4"/>
<!-- imports -->
<g id="node1" class="node">
<title>imports</title>
<polygon fill="#efefef" stroke="transparent" points="240,-952.5 240,-987.5 468,-987.5 468,-952.5 240,-952.5"/>
<polygon fill="none" stroke="#000000" points="240,-952.5 240,-987.5 468,-987.5 468,-952.5 240,-952.5"/>
<text text-anchor="start" x="260.7194" y="-965.3" font-family="Arial Bold" font-size="18.00" fill="#000000">imports</text>
<text text-anchor="start" x="319.7126" y="-965.3" font-family="Arial" font-size="14.00" fill="#000000">    </text>
<text text-anchor="start" x="353.9174" y="-965.3" font-family="Arial" font-size="14.00" fill="#666666">[BASE TABLE]</text>
<polygon fill="none" stroke="#000000" points="240,-922.5 240,-952.5 468,-952.5 468,-922.5 240,-922.5"/>
<text text-anchor="start" x="247" y="-933.9" font-family="Arial" font-size="14.00" fill="#000000">id </text>
<text text-anchor="start" x="261.7798" y="-933.9" font-family="Arial" font-size="14.00" fill="#666666">[bigint(20) unsigned]</text>
<polygon fill="none" stroke="#000000" points="240,-892.5 240,-922.5 468,-922.5 468,-892.5 240,-892.5"/>
<text text-anchor="start" x="247" y="-903.9" font-family="Arial" font-size="14.00" fill="#000000">completed_at </text>
<text text-anchor="start" x="334.9172" y="-903.9" font-family="Arial" font-size="14.00" fill="#666666">[timestamp]</text>
<polygon fill="none" stroke="#000000" points="240,-862.5 240,-892.5 468,-892.5 468,-862.5 240,-862.5"/>
<text text-anchor="start" x="247" y="-873.9" font-family="Arial" font-size="14.00" fill="#000000">file_name </text>
<text text-anchor="start" x="311.568" y="-873.9" font-family="Arial" font-size="14.00" fill="#666666">[varchar(255)]</text>
<polygon fill="none" stroke="#000000" points="240,-832.5 240,-862.5 468,-862.5 468,-832.5 240,-832.5"/>
<text text-anchor="start" x="247" y="-843.9" font-family="Arial" font-size="14.00" fill="#000000">file_path </text>
<text text-anchor="start" x="303.798" y="-843.9" font-family="Arial" font-size="14.00" fill="#666666">[varchar(255)]</text>
<polygon fill="none" stroke="#000000" points="240,-802.5 240,-832.5 468,-832.5 468,-802.5 240,-802.5"/>
<text text-anchor="start" x="247" y="-813.9" font-family="Arial" font-size="14.00" fill="#000000">importer </text>
<text text-anchor="start" x="302.2174" y="-813.9" font-family="Arial" font-size="14.00" fill="#666666">[varchar(255)]</text>
<polygon fill="none" stroke="#000000" points="240,-772.5 240,-802.5 468,-802.5 468,-772.5 240,-772.5"/>
<text text-anchor="start" x="247" y="-783.9" font-family="Arial" font-size="14.00" fill="#000000">processed_rows </text>
<text text-anchor="start" x="352.7966" y="-783.9" font-family="Arial" font-size="14.00" fill="#666666">[int(10) unsigned]</text>
<polygon fill="none" stroke="#000000" points="240,-742.5 240,-772.5 468,-772.5 468,-742.5 240,-742.5"/>
<text text-anchor="start" x="247" y="-753.9" font-family="Arial" font-size="14.00" fill="#000000">total_rows </text>
<text text-anchor="start" x="314.676" y="-753.9" font-family="Arial" font-size="14.00" fill="#666666">[int(10) unsigned]</text>
<polygon fill="none" stroke="#000000" points="240,-712.5 240,-742.5 468,-742.5 468,-712.5 240,-712.5"/>
<text text-anchor="start" x="246.6459" y="-723.9" font-family="Arial" font-size="14.00" fill="#000000">successful_rows </text>
<text text-anchor="start" x="353.2139" y="-723.9" font-family="Arial" font-size="14.00" fill="#666666">[int(10) unsigned]</text>
<polygon fill="none" stroke="#000000" points="240,-682.5 240,-712.5 468,-712.5 468,-682.5 240,-682.5"/>
<text text-anchor="start" x="247" y="-693.9" font-family="Arial" font-size="14.00" fill="#000000">user_id </text>
<text text-anchor="start" x="296.7882" y="-693.9" font-family="Arial" font-size="14.00" fill="#666666">[bigint(20) unsigned]</text>
<polygon fill="none" stroke="#000000" points="240,-652.5 240,-682.5 468,-682.5 468,-652.5 240,-652.5"/>
<text text-anchor="start" x="247" y="-663.9" font-family="Arial" font-size="14.00" fill="#000000">created_at </text>
<text text-anchor="start" x="317.028" y="-663.9" font-family="Arial" font-size="14.00" fill="#666666">[timestamp]</text>
<polygon fill="none" stroke="#000000" points="240,-622.5 240,-652.5 468,-652.5 468,-622.5 240,-622.5"/>
<text text-anchor="start" x="247" y="-633.9" font-family="Arial" font-size="14.00" fill="#000000">updated_at </text>
<text text-anchor="start" x="320.9326" y="-633.9" font-family="Arial" font-size="14.00" fill="#666666">[timestamp]</text>
<polygon fill="none" stroke="#000000" stroke-width="3" points="238.5,-621.5 238.5,-989.5 469.5,-989.5 469.5,-621.5 238.5,-621.5"/>
</g>
<!-- users -->
<g id="node3" class="node">
<title>users</title>
<polygon fill="#efefef" stroke="transparent" points="230,-462.5 230,-497.5 477,-497.5 477,-462.5 230,-462.5"/>
<polygon fill="none" stroke="#000000" points="230,-462.5 230,-497.5 477,-497.5 477,-462.5 230,-462.5"/>
<text text-anchor="start" x="267.7137" y="-475.3" font-family="Arial Bold" font-size="18.00" fill="#000000">users</text>
<text text-anchor="start" x="311.7183" y="-475.3" font-family="Arial" font-size="14.00" fill="#000000">    </text>
<text text-anchor="start" x="345.9231" y="-475.3" font-family="Arial" font-size="14.00" fill="#666666">[BASE TABLE]</text>
<polygon fill="none" stroke="#000000" points="230,-432.5 230,-462.5 477,-462.5 477,-432.5 230,-432.5"/>
<text text-anchor="start" x="237" y="-443.9" font-family="Arial" font-size="14.00" fill="#000000">id    </text>
<text text-anchor="start" x="282.094" y="-443.9" font-family="Arial" font-size="14.00" fill="#666666">[bigint(20) unsigned]</text>
<polygon fill="none" stroke="#000000" points="230,-402.5 230,-432.5 477,-432.5 477,-402.5 230,-402.5"/>
<text text-anchor="start" x="237" y="-413.9" font-family="Arial" font-size="14.00" fill="#000000">full_name    </text>
<text text-anchor="start" x="331.8822" y="-413.9" font-family="Arial" font-size="14.00" fill="#666666">[varchar(255)]</text>
<polygon fill="none" stroke="#000000" points="230,-372.5 230,-402.5 477,-402.5 477,-372.5 230,-372.5"/>
<text text-anchor="start" x="237" y="-383.9" font-family="Arial" font-size="14.00" fill="#000000">display_name    </text>
<text text-anchor="start" x="357.5568" y="-383.9" font-family="Arial" font-size="14.00" fill="#666666">[varchar(255)]</text>
<polygon fill="none" stroke="#000000" points="230,-342.5 230,-372.5 477,-372.5 477,-342.5 230,-342.5"/>
<text text-anchor="start" x="237" y="-353.9" font-family="Arial" font-size="14.00" fill="#000000">email    </text>
<text text-anchor="start" x="304.6438" y="-353.9" font-family="Arial" font-size="14.00" fill="#666666">[varchar(255)]</text>
<polygon fill="none" stroke="#000000" points="230,-312.5 230,-342.5 477,-342.5 477,-312.5 230,-312.5"/>
<text text-anchor="start" x="237" y="-323.9" font-family="Arial" font-size="14.00" fill="#000000">password    </text>
<text text-anchor="start" x="331.1024" y="-323.9" font-family="Arial" font-size="14.00" fill="#666666">[varchar(255)]</text>
<polygon fill="none" stroke="#000000" points="230,-282.5 230,-312.5 477,-312.5 477,-282.5 230,-282.5"/>
<text text-anchor="start" x="237" y="-293.9" font-family="Arial" font-size="14.00" fill="#000000">status    </text>
<text text-anchor="start" x="308.5512" y="-293.9" font-family="Arial" font-size="14.00" fill="#666666">[varchar(255)]</text>
<polygon fill="none" stroke="#000000" points="230,-252.5 230,-282.5 477,-282.5 477,-252.5 230,-252.5"/>
<text text-anchor="start" x="237" y="-263.9" font-family="Arial" font-size="14.00" fill="#000000">role_id    </text>
<text text-anchor="start" x="313.209" y="-263.9" font-family="Arial" font-size="14.00" fill="#666666">[bigint(20) unsigned]</text>
<polygon fill="none" stroke="#000000" points="230,-222.5 230,-252.5 477,-252.5 477,-222.5 230,-222.5"/>
<text text-anchor="start" x="237" y="-233.9" font-family="Arial" font-size="14.00" fill="#000000">site_id    </text>
<text text-anchor="start" x="311.6564" y="-233.9" font-family="Arial" font-size="14.00" fill="#666666">[bigint(20) unsigned]</text>
<polygon fill="none" stroke="#000000" points="230,-192.5 230,-222.5 477,-222.5 477,-192.5 230,-192.5"/>
<text text-anchor="start" x="236.8149" y="-203.9" font-family="Arial" font-size="14.00" fill="#000000">usertype_id    </text>
<text text-anchor="start" x="343.3731" y="-203.9" font-family="Arial" font-size="14.00" fill="#666666">[bigint(20) unsigned]</text>
<polygon fill="none" stroke="#000000" points="230,-162.5 230,-192.5 477,-192.5 477,-162.5 230,-162.5"/>
<text text-anchor="start" x="237" y="-173.9" font-family="Arial" font-size="14.00" fill="#000000">remember_token    </text>
<text text-anchor="start" x="376.9986" y="-173.9" font-family="Arial" font-size="14.00" fill="#666666">[varchar(100)]</text>
<polygon fill="none" stroke="#000000" points="230,-132.5 230,-162.5 477,-162.5 477,-132.5 230,-132.5"/>
<text text-anchor="start" x="237" y="-143.9" font-family="Arial" font-size="14.00" fill="#000000">token    </text>
<text text-anchor="start" x="305.4432" y="-143.9" font-family="Arial" font-size="14.00" fill="#666666">[longtext]</text>
<polygon fill="none" stroke="#000000" points="230,-102.5 230,-132.5 477,-132.5 477,-102.5 230,-102.5"/>
<text text-anchor="start" x="237" y="-113.9" font-family="Arial" font-size="14.00" fill="#000000">isFirstTimeVisit    </text>
<text text-anchor="start" x="366.0646" y="-113.9" font-family="Arial" font-size="14.00" fill="#666666">[tinyint(1)]</text>
<polygon fill="none" stroke="#000000" points="230,-72.5 230,-102.5 477,-102.5 477,-72.5 230,-72.5"/>
<text text-anchor="start" x="237" y="-83.9" font-family="Arial" font-size="14.00" fill="#000000">created_at    </text>
<text text-anchor="start" x="337.3422" y="-83.9" font-family="Arial" font-size="14.00" fill="#666666">[timestamp]</text>
<polygon fill="none" stroke="#000000" points="230,-42.5 230,-72.5 477,-72.5 477,-42.5 230,-42.5"/>
<text text-anchor="start" x="237" y="-53.9" font-family="Arial" font-size="14.00" fill="#000000">updated_at    </text>
<text text-anchor="start" x="341.2468" y="-53.9" font-family="Arial" font-size="14.00" fill="#666666">[timestamp]</text>
</g>
<!-- imports&#45;&gt;users -->
<g id="edge2" class="edge">
<title>imports:user_id&#45;&gt;users:id</title>
<path fill="none" stroke="#000000" d="M230.0112,-696.4181C189.0696,-686.7616 207.4761,-614.8373 240,-577 309.4494,-496.2047 407.5506,-621.7953 477,-541 504.0881,-509.4865 518.5556,-447.5 477,-447.5"/>
<polygon fill="#000000" stroke="#000000" points="230.0581,-696.4231 239.5154,-701.9738 235.0291,-696.9616 240,-697.5 240,-697.5 240,-697.5 235.0291,-696.9616 240.4846,-693.0262 230.0581,-696.4231 230.0581,-696.4231"/>
<text text-anchor="start" x="6.945" y="-707.5" font-family="Arial" font-size="10.00" fill="#000000">FOREIGN KEY (user_id) REFERENCES users (id)</text>
</g>
<!-- failed_import_rows -->
<g id="node2" class="node">
<title>failed_import_rows</title>
<polygon fill="#efefef" stroke="transparent" points="208,-1292.5 208,-1327.5 500,-1327.5 500,-1292.5 208,-1292.5"/>
<polygon fill="none" stroke="#000000" points="208,-1292.5 208,-1327.5 500,-1327.5 500,-1292.5 208,-1292.5"/>
<text text-anchor="start" x="214.7123" y="-1305.3" font-family="Arial Bold" font-size="18.00" fill="#000000">failed_import_rows</text>
<text text-anchor="start" x="365.7197" y="-1305.3" font-family="Arial" font-size="14.00" fill="#000000">    </text>
<text text-anchor="start" x="399.9245" y="-1305.3" font-family="Arial" font-size="14.00" fill="#666666">[BASE TABLE]</text>
<polygon fill="none" stroke="#000000" points="208,-1262.5 208,-1292.5 500,-1292.5 500,-1262.5 208,-1262.5"/>
<text text-anchor="start" x="215" y="-1273.9" font-family="Arial" font-size="14.00" fill="#000000">id    </text>
<text text-anchor="start" x="260.094" y="-1273.9" font-family="Arial" font-size="14.00" fill="#666666">[bigint(20) unsigned]</text>
<polygon fill="none" stroke="#000000" points="208,-1232.5 208,-1262.5 500,-1262.5 500,-1232.5 208,-1232.5"/>
<text text-anchor="start" x="215" y="-1243.9" font-family="Arial" font-size="14.00" fill="#000000">data    </text>
<text text-anchor="start" x="276.4432" y="-1243.9" font-family="Arial" font-size="14.00" fill="#666666">[json]</text>
<polygon fill="none" stroke="#000000" points="208,-1202.5 208,-1232.5 500,-1232.5 500,-1202.5 208,-1202.5"/>
<text text-anchor="start" x="215" y="-1213.9" font-family="Arial" font-size="14.00" fill="#000000">import_id    </text>
<text text-anchor="start" x="306.7602" y="-1213.9" font-family="Arial" font-size="14.00" fill="#666666">[bigint(20) unsigned]</text>
<polygon fill="none" stroke="#000000" points="208,-1172.5 208,-1202.5 500,-1202.5 500,-1172.5 208,-1172.5"/>
<text text-anchor="start" x="215" y="-1183.9" font-family="Arial" font-size="14.00" fill="#000000">validation_error    </text>
<text text-anchor="start" x="345.6578" y="-1183.9" font-family="Arial" font-size="14.00" fill="#666666">[text]</text>
<polygon fill="none" stroke="#000000" points="208,-1142.5 208,-1172.5 500,-1172.5 500,-1142.5 208,-1142.5"/>
<text text-anchor="start" x="215" y="-1153.9" font-family="Arial" font-size="14.00" fill="#000000">created_at    </text>
<text text-anchor="start" x="315.3422" y="-1153.9" font-family="Arial" font-size="14.00" fill="#666666">[timestamp]</text>
<polygon fill="none" stroke="#000000" points="208,-1112.5 208,-1142.5 500,-1142.5 500,-1112.5 208,-1112.5"/>
<text text-anchor="start" x="215" y="-1123.9" font-family="Arial" font-size="14.00" fill="#000000">updated_at    </text>
<text text-anchor="start" x="319.2468" y="-1123.9" font-family="Arial" font-size="14.00" fill="#666666">[timestamp]</text>
</g>
<!-- failed_import_rows&#45;&gt;imports -->
<g id="edge1" class="edge">
<title>failed_import_rows:import_id&#45;&gt;imports:id</title>
<path fill="none" stroke="#000000" d="M510.2648,-1216.839C623.3672,-1201.8652 589.7073,-937.5 468,-937.5"/>
<polygon fill="#000000" stroke="#000000" points="509.9793,-1216.8573 499.7108,-1213.0093 504.9897,-1217.1786 500,-1217.5 500,-1217.5 500,-1217.5 504.9897,-1217.1786 500.2892,-1221.9907 509.9793,-1216.8573 509.9793,-1216.8573"/>
<text text-anchor="start" x="506.618" y="-1227.5" font-family="Arial" font-size="10.00" fill="#000000">FOREIGN KEY (import_id) REFERENCES imports (id)</text>
</g>
</g>
</svg>
