<?xml version="1.0" encoding="UTF-8" standalone="no"?>
<!DOCTYPE svg PUBLIC "-//W3C//DTD SVG 1.1//EN"
 "http://www.w3.org/Graphics/SVG/1.1/DTD/svg11.dtd">
<!-- Generated by graphviz version 2.40.1 (20161225.0304)
 -->
<!-- Title: job_batches Pages: 1 -->
<svg width="338pt" height="435pt"
 viewBox="0.00 0.00 338.00 435.00" xmlns="http://www.w3.org/2000/svg" xmlns:xlink="http://www.w3.org/1999/xlink">
<g id="graph0" class="graph" transform="scale(1 1) rotate(0) translate(4 431)">
<title>job_batches</title>
<polygon fill="#ffffff" stroke="transparent" points="-4,4 -4,-431 334,-431 334,4 -4,4"/>
<!-- job_batches -->
<g id="node1" class="node">
<title>job_batches</title>
<polygon fill="#efefef" stroke="transparent" points="46,-345.5 46,-380.5 284,-380.5 284,-345.5 46,-345.5"/>
<polygon fill="none" stroke="#000000" points="46,-345.5 46,-380.5 284,-380.5 284,-345.5 46,-345.5"/>
<text text-anchor="start" x="52.6961" y="-358.3" font-family="Arial Bold" font-size="18.00" fill="#000000">job_batches</text>
<text text-anchor="start" x="149.7359" y="-358.3" font-family="Arial" font-size="14.00" fill="#000000">    </text>
<text text-anchor="start" x="183.9407" y="-358.3" font-family="Arial" font-size="14.00" fill="#666666">[BASE TABLE]</text>
<polygon fill="none" stroke="#000000" points="46,-315.5 46,-345.5 284,-345.5 284,-315.5 46,-315.5"/>
<text text-anchor="start" x="53" y="-326.9" font-family="Arial" font-size="14.00" fill="#000000">id </text>
<text text-anchor="start" x="67.7798" y="-326.9" font-family="Arial" font-size="14.00" fill="#666666">[varchar(255)]</text>
<polygon fill="none" stroke="#000000" points="46,-285.5 46,-315.5 284,-315.5 284,-285.5 46,-285.5"/>
<text text-anchor="start" x="53" y="-296.9" font-family="Arial" font-size="14.00" fill="#000000">name </text>
<text text-anchor="start" x="91.899" y="-296.9" font-family="Arial" font-size="14.00" fill="#666666">[varchar(255)]</text>
<polygon fill="none" stroke="#000000" points="46,-255.5 46,-285.5 284,-285.5 284,-255.5 46,-255.5"/>
<text text-anchor="start" x="53" y="-266.9" font-family="Arial" font-size="14.00" fill="#000000">total_jobs </text>
<text text-anchor="start" x="116.798" y="-266.9" font-family="Arial" font-size="14.00" fill="#666666">[int(11)]</text>
<polygon fill="none" stroke="#000000" points="46,-225.5 46,-255.5 284,-255.5 284,-225.5 46,-225.5"/>
<text text-anchor="start" x="53" y="-236.9" font-family="Arial" font-size="14.00" fill="#000000">pending_jobs </text>
<text text-anchor="start" x="140.1472" y="-236.9" font-family="Arial" font-size="14.00" fill="#666666">[int(11)]</text>
<polygon fill="none" stroke="#000000" points="46,-195.5 46,-225.5 284,-225.5 284,-195.5 46,-195.5"/>
<text text-anchor="start" x="53" y="-206.9" font-family="Arial" font-size="14.00" fill="#000000">failed_jobs </text>
<text text-anchor="start" x="123.7966" y="-206.9" font-family="Arial" font-size="14.00" fill="#666666">[int(11)]</text>
<polygon fill="none" stroke="#000000" points="46,-165.5 46,-195.5 284,-195.5 284,-165.5 46,-165.5"/>
<text text-anchor="start" x="53" y="-176.9" font-family="Arial" font-size="14.00" fill="#000000">failed_job_ids </text>
<text text-anchor="start" x="142.4684" y="-176.9" font-family="Arial" font-size="14.00" fill="#666666">[longtext]</text>
<polygon fill="none" stroke="#000000" points="46,-135.5 46,-165.5 284,-165.5 284,-135.5 46,-135.5"/>
<text text-anchor="start" x="53" y="-146.9" font-family="Arial" font-size="14.00" fill="#000000">options </text>
<text text-anchor="start" x="102.0182" y="-146.9" font-family="Arial" font-size="14.00" fill="#666666">[mediumtext]</text>
<polygon fill="none" stroke="#000000" points="46,-105.5 46,-135.5 284,-135.5 284,-105.5 46,-105.5"/>
<text text-anchor="start" x="53" y="-116.9" font-family="Arial" font-size="14.00" fill="#000000">cancelled_at </text>
<text text-anchor="start" x="135.4726" y="-116.9" font-family="Arial" font-size="14.00" fill="#666666">[int(11)]</text>
<polygon fill="none" stroke="#000000" points="46,-75.5 46,-105.5 284,-105.5 284,-75.5 46,-75.5"/>
<text text-anchor="start" x="53" y="-86.9" font-family="Arial" font-size="14.00" fill="#000000">created_at </text>
<text text-anchor="start" x="123.028" y="-86.9" font-family="Arial" font-size="14.00" fill="#666666">[int(11)]</text>
<polygon fill="none" stroke="#000000" points="46,-45.5 46,-75.5 284,-75.5 284,-45.5 46,-45.5"/>
<text text-anchor="start" x="53" y="-56.9" font-family="Arial" font-size="14.00" fill="#000000">finished_at </text>
<text text-anchor="start" x="124.5806" y="-56.9" font-family="Arial" font-size="14.00" fill="#666666">[int(11)]</text>
<polygon fill="none" stroke="#000000" stroke-width="3" points="44.5,-44.5 44.5,-382.5 285.5,-382.5 285.5,-44.5 44.5,-44.5"/>
</g>
</g>
</svg>
