<?xml version="1.0" encoding="UTF-8" standalone="no"?>
<!DOCTYPE svg PUBLIC "-//W3C//DTD SVG 1.1//EN"
 "http://www.w3.org/Graphics/SVG/1.1/DTD/svg11.dtd">
<!-- Generated by graphviz version 2.40.1 (20161225.0304)
 -->
<!-- Title: labellables Pages: 1 -->
<svg width="523pt" height="652pt"
 viewBox="0.00 0.00 523.00 652.00" xmlns="http://www.w3.org/2000/svg" xmlns:xlink="http://www.w3.org/1999/xlink">
<g id="graph0" class="graph" transform="scale(1 1) rotate(0) translate(4 648)">
<title>labellables</title>
<polygon fill="#ffffff" stroke="transparent" points="-4,4 -4,-648 519,-648 519,4 -4,4"/>
<!-- labellables -->
<g id="node1" class="node">
<title>labellables</title>
<polygon fill="#efefef" stroke="transparent" points="243,-562.5 243,-597.5 469,-597.5 469,-562.5 243,-562.5"/>
<polygon fill="none" stroke="#000000" points="243,-562.5 243,-597.5 469,-597.5 469,-562.5 243,-562.5"/>
<text text-anchor="start" x="249.709" y="-575.3" font-family="Arial Bold" font-size="18.00" fill="#000000">labellables</text>
<text text-anchor="start" x="334.723" y="-575.3" font-family="Arial" font-size="14.00" fill="#000000">    </text>
<text text-anchor="start" x="368.9278" y="-575.3" font-family="Arial" font-size="14.00" fill="#666666">[BASE TABLE]</text>
<polygon fill="none" stroke="#000000" points="243,-532.5 243,-562.5 469,-562.5 469,-532.5 243,-532.5"/>
<text text-anchor="start" x="250" y="-543.9" font-family="Arial" font-size="14.00" fill="#000000">id </text>
<text text-anchor="start" x="264.7798" y="-543.9" font-family="Arial" font-size="14.00" fill="#666666">[bigint(20) unsigned]</text>
<polygon fill="none" stroke="#000000" points="243,-502.5 243,-532.5 469,-532.5 469,-502.5 243,-502.5"/>
<text text-anchor="start" x="250" y="-513.9" font-family="Arial" font-size="14.00" fill="#000000">label_id </text>
<text text-anchor="start" x="302.1234" y="-513.9" font-family="Arial" font-size="14.00" fill="#666666">[bigint(20) unsigned]</text>
<polygon fill="none" stroke="#000000" points="243,-472.5 243,-502.5 469,-502.5 469,-472.5 243,-472.5"/>
<text text-anchor="start" x="250" y="-483.9" font-family="Arial" font-size="14.00" fill="#000000">labellable_type </text>
<text text-anchor="start" x="347.251" y="-483.9" font-family="Arial" font-size="14.00" fill="#666666">[varchar(255)]</text>
<polygon fill="none" stroke="#000000" points="243,-442.5 243,-472.5 469,-472.5 469,-442.5 243,-442.5"/>
<text text-anchor="start" x="250" y="-453.9" font-family="Arial" font-size="14.00" fill="#000000">labellable_id </text>
<text text-anchor="start" x="331.6844" y="-453.9" font-family="Arial" font-size="14.00" fill="#666666">[bigint(20) unsigned]</text>
<polygon fill="none" stroke="#000000" points="243,-412.5 243,-442.5 469,-442.5 469,-412.5 243,-412.5"/>
<text text-anchor="start" x="250" y="-423.9" font-family="Arial" font-size="14.00" fill="#000000">created_at </text>
<text text-anchor="start" x="320.028" y="-423.9" font-family="Arial" font-size="14.00" fill="#666666">[timestamp]</text>
<polygon fill="none" stroke="#000000" points="243,-382.5 243,-412.5 469,-412.5 469,-382.5 243,-382.5"/>
<text text-anchor="start" x="250" y="-393.9" font-family="Arial" font-size="14.00" fill="#000000">updated_at </text>
<text text-anchor="start" x="323.9326" y="-393.9" font-family="Arial" font-size="14.00" fill="#666666">[timestamp]</text>
<polygon fill="none" stroke="#000000" stroke-width="3" points="241.5,-381.5 241.5,-599.5 470.5,-599.5 470.5,-381.5 241.5,-381.5"/>
</g>
<!-- labels -->
<g id="node2" class="node">
<title>labels</title>
<polygon fill="#efefef" stroke="transparent" points="254,-222.5 254,-257.5 457,-257.5 457,-222.5 254,-222.5"/>
<polygon fill="none" stroke="#000000" points="254,-222.5 254,-257.5 457,-257.5 457,-222.5 254,-222.5"/>
<text text-anchor="start" x="268.2125" y="-235.3" font-family="Arial Bold" font-size="18.00" fill="#000000">labels</text>
<text text-anchor="start" x="315.2195" y="-235.3" font-family="Arial" font-size="14.00" fill="#000000">    </text>
<text text-anchor="start" x="349.4243" y="-235.3" font-family="Arial" font-size="14.00" fill="#666666">[BASE TABLE]</text>
<polygon fill="none" stroke="#000000" points="254,-192.5 254,-222.5 457,-222.5 457,-192.5 254,-192.5"/>
<text text-anchor="start" x="261" y="-203.9" font-family="Arial" font-size="14.00" fill="#000000">id    </text>
<text text-anchor="start" x="306.094" y="-203.9" font-family="Arial" font-size="14.00" fill="#666666">[bigint(20) unsigned]</text>
<polygon fill="none" stroke="#000000" points="254,-162.5 254,-192.5 457,-192.5 457,-162.5 254,-162.5"/>
<text text-anchor="start" x="261" y="-173.9" font-family="Arial" font-size="14.00" fill="#000000">value    </text>
<text text-anchor="start" x="328.6592" y="-173.9" font-family="Arial" font-size="14.00" fill="#666666">[varchar(255)]</text>
<polygon fill="none" stroke="#000000" points="254,-132.5 254,-162.5 457,-162.5 457,-132.5 254,-132.5"/>
<text text-anchor="start" x="260.9993" y="-143.9" font-family="Arial" font-size="14.00" fill="#000000">description    </text>
<text text-anchor="start" x="362.8815" y="-143.9" font-family="Arial" font-size="14.00" fill="#666666">[varchar(255)]</text>
<polygon fill="none" stroke="#000000" points="254,-102.5 254,-132.5 457,-132.5 457,-102.5 254,-102.5"/>
<text text-anchor="start" x="261" y="-113.9" font-family="Arial" font-size="14.00" fill="#000000">type    </text>
<text text-anchor="start" x="321.6606" y="-113.9" font-family="Arial" font-size="14.00" fill="#666666">[varchar(255)]</text>
<polygon fill="none" stroke="#000000" points="254,-72.5 254,-102.5 457,-102.5 457,-72.5 254,-72.5"/>
<text text-anchor="start" x="261" y="-83.9" font-family="Arial" font-size="14.00" fill="#000000">created_at    </text>
<text text-anchor="start" x="361.3422" y="-83.9" font-family="Arial" font-size="14.00" fill="#666666">[timestamp]</text>
<polygon fill="none" stroke="#000000" points="254,-42.5 254,-72.5 457,-72.5 457,-42.5 254,-42.5"/>
<text text-anchor="start" x="261" y="-53.9" font-family="Arial" font-size="14.00" fill="#000000">updated_at    </text>
<text text-anchor="start" x="365.2468" y="-53.9" font-family="Arial" font-size="14.00" fill="#666666">[timestamp]</text>
</g>
<!-- labellables&#45;&gt;labels -->
<g id="edge1" class="edge">
<title>labellables:label_id&#45;&gt;labels:id</title>
<path fill="none" stroke="#000000" d="M232.8388,-516.7941C165.3779,-506.9032 193.52,-395.4989 243,-337 305.2855,-263.3614 394.7145,-374.6386 457,-301 483.8364,-269.2719 498.5556,-207.5 457,-207.5"/>
<polygon fill="#000000" stroke="#000000" points="233.024,-516.8069 242.6881,-521.9892 238.012,-517.1535 243,-517.5 243,-517.5 243,-517.5 238.012,-517.1535 243.3119,-513.0108 233.024,-516.8069 233.024,-516.8069"/>
<text text-anchor="start" x="7.277" y="-527.5" font-family="Arial" font-size="10.00" fill="#000000">FOREIGN KEY (label_id) REFERENCES labels (id)</text>
</g>
</g>
</svg>
