<?xml version="1.0" encoding="UTF-8" standalone="no"?>
<!DOCTYPE svg PUBLIC "-//W3C//DTD SVG 1.1//EN"
 "http://www.w3.org/Graphics/SVG/1.1/DTD/svg11.dtd">
<!-- Generated by graphviz version 2.40.1 (20161225.0304)
 -->
<!-- Title: labels Pages: 1 -->
<svg width="546pt" height="652pt"
 viewBox="0.00 0.00 546.00 652.00" xmlns="http://www.w3.org/2000/svg" xmlns:xlink="http://www.w3.org/1999/xlink">
<g id="graph0" class="graph" transform="scale(1 1) rotate(0) translate(4 648)">
<title>labels</title>
<polygon fill="#ffffff" stroke="transparent" points="-4,4 -4,-648 542,-648 542,4 -4,4"/>
<!-- labels -->
<g id="node1" class="node">
<title>labels</title>
<polygon fill="#efefef" stroke="transparent" points="75,-225.5 75,-260.5 263,-260.5 263,-225.5 75,-225.5"/>
<polygon fill="none" stroke="#000000" points="75,-225.5 75,-260.5 263,-260.5 263,-225.5 75,-225.5"/>
<text text-anchor="start" x="81.7125" y="-238.3" font-family="Arial Bold" font-size="18.00" fill="#000000">labels</text>
<text text-anchor="start" x="128.7195" y="-238.3" font-family="Arial" font-size="14.00" fill="#000000">    </text>
<text text-anchor="start" x="162.9243" y="-238.3" font-family="Arial" font-size="14.00" fill="#666666">[BASE TABLE]</text>
<polygon fill="none" stroke="#000000" points="75,-195.5 75,-225.5 263,-225.5 263,-195.5 75,-195.5"/>
<text text-anchor="start" x="82" y="-206.9" font-family="Arial" font-size="14.00" fill="#000000">id </text>
<text text-anchor="start" x="96.7798" y="-206.9" font-family="Arial" font-size="14.00" fill="#666666">[bigint(20) unsigned]</text>
<polygon fill="none" stroke="#000000" points="75,-165.5 75,-195.5 263,-195.5 263,-165.5 75,-165.5"/>
<text text-anchor="start" x="82" y="-176.9" font-family="Arial" font-size="14.00" fill="#000000">value </text>
<text text-anchor="start" x="119.345" y="-176.9" font-family="Arial" font-size="14.00" fill="#666666">[varchar(255)]</text>
<polygon fill="none" stroke="#000000" points="75,-135.5 75,-165.5 263,-165.5 263,-135.5 75,-135.5"/>
<text text-anchor="start" x="82" y="-146.9" font-family="Arial" font-size="14.00" fill="#000000">description </text>
<text text-anchor="start" x="153.568" y="-146.9" font-family="Arial" font-size="14.00" fill="#666666">[varchar(255)]</text>
<polygon fill="none" stroke="#000000" points="75,-105.5 75,-135.5 263,-135.5 263,-105.5 75,-105.5"/>
<text text-anchor="start" x="82" y="-116.9" font-family="Arial" font-size="14.00" fill="#000000">type </text>
<text text-anchor="start" x="112.3464" y="-116.9" font-family="Arial" font-size="14.00" fill="#666666">[varchar(255)]</text>
<polygon fill="none" stroke="#000000" points="75,-75.5 75,-105.5 263,-105.5 263,-75.5 75,-75.5"/>
<text text-anchor="start" x="82" y="-86.9" font-family="Arial" font-size="14.00" fill="#000000">created_at </text>
<text text-anchor="start" x="152.028" y="-86.9" font-family="Arial" font-size="14.00" fill="#666666">[timestamp]</text>
<polygon fill="none" stroke="#000000" points="75,-45.5 75,-75.5 263,-75.5 263,-45.5 75,-45.5"/>
<text text-anchor="start" x="82" y="-56.9" font-family="Arial" font-size="14.00" fill="#000000">updated_at </text>
<text text-anchor="start" x="155.9326" y="-56.9" font-family="Arial" font-size="14.00" fill="#666666">[timestamp]</text>
<polygon fill="none" stroke="#000000" stroke-width="3" points="73.5,-44.5 73.5,-262.5 264.5,-262.5 264.5,-44.5 73.5,-44.5"/>
</g>
<!-- labellables -->
<g id="node2" class="node">
<title>labellables</title>
<polygon fill="#efefef" stroke="transparent" points="43,-565.5 43,-600.5 295,-600.5 295,-565.5 43,-565.5"/>
<polygon fill="none" stroke="#000000" points="43,-565.5 43,-600.5 295,-600.5 295,-565.5 43,-565.5"/>
<text text-anchor="start" x="62.709" y="-578.3" font-family="Arial Bold" font-size="18.00" fill="#000000">labellables</text>
<text text-anchor="start" x="147.723" y="-578.3" font-family="Arial" font-size="14.00" fill="#000000">    </text>
<text text-anchor="start" x="181.9278" y="-578.3" font-family="Arial" font-size="14.00" fill="#666666">[BASE TABLE]</text>
<polygon fill="none" stroke="#000000" points="43,-535.5 43,-565.5 295,-565.5 295,-535.5 43,-535.5"/>
<text text-anchor="start" x="50" y="-546.9" font-family="Arial" font-size="14.00" fill="#000000">id    </text>
<text text-anchor="start" x="95.094" y="-546.9" font-family="Arial" font-size="14.00" fill="#666666">[bigint(20) unsigned]</text>
<polygon fill="none" stroke="#000000" points="43,-505.5 43,-535.5 295,-535.5 295,-505.5 43,-505.5"/>
<text text-anchor="start" x="50" y="-516.9" font-family="Arial" font-size="14.00" fill="#000000">label_id    </text>
<text text-anchor="start" x="132.4376" y="-516.9" font-family="Arial" font-size="14.00" fill="#666666">[bigint(20) unsigned]</text>
<polygon fill="none" stroke="#000000" points="43,-475.5 43,-505.5 295,-505.5 295,-475.5 43,-475.5"/>
<text text-anchor="start" x="50" y="-486.9" font-family="Arial" font-size="14.00" fill="#000000">labellable_type    </text>
<text text-anchor="start" x="177.5652" y="-486.9" font-family="Arial" font-size="14.00" fill="#666666">[varchar(255)]</text>
<polygon fill="none" stroke="#000000" points="43,-445.5 43,-475.5 295,-475.5 295,-445.5 43,-445.5"/>
<text text-anchor="start" x="49.5947" y="-456.9" font-family="Arial" font-size="14.00" fill="#000000">labellable_id    </text>
<text text-anchor="start" x="161.5933" y="-456.9" font-family="Arial" font-size="14.00" fill="#666666">[bigint(20) unsigned]</text>
<polygon fill="none" stroke="#000000" points="43,-415.5 43,-445.5 295,-445.5 295,-415.5 43,-415.5"/>
<text text-anchor="start" x="50" y="-426.9" font-family="Arial" font-size="14.00" fill="#000000">created_at    </text>
<text text-anchor="start" x="150.3422" y="-426.9" font-family="Arial" font-size="14.00" fill="#666666">[timestamp]</text>
<polygon fill="none" stroke="#000000" points="43,-385.5 43,-415.5 295,-415.5 295,-385.5 43,-385.5"/>
<text text-anchor="start" x="50" y="-396.9" font-family="Arial" font-size="14.00" fill="#000000">updated_at    </text>
<text text-anchor="start" x="154.2468" y="-396.9" font-family="Arial" font-size="14.00" fill="#666666">[timestamp]</text>
</g>
<!-- labellables&#45;&gt;labels -->
<g id="edge1" class="edge">
<title>labellables:label_id&#45;&gt;labels:id</title>
<path fill="none" stroke="#000000" d="M304.7756,-518.183C360.9089,-489.815 328.7381,-210.5 263,-210.5"/>
<polygon fill="#000000" stroke="#000000" points="304.7304,-518.1936 293.9621,-516.1213 299.8652,-519.3468 295,-520.5 295,-520.5 295,-520.5 299.8652,-519.3468 296.0379,-524.8787 304.7304,-518.1936 304.7304,-518.1936"/>
<text text-anchor="start" x="302.277" y="-530.5" font-family="Arial" font-size="10.00" fill="#000000">FOREIGN KEY (label_id) REFERENCES labels (id)</text>
</g>
</g>
</svg>
