<?xml version="1.0" encoding="UTF-8" standalone="no"?>
<!DOCTYPE svg PUBLIC "-//W3C//DTD SVG 1.1//EN"
 "http://www.w3.org/Graphics/SVG/1.1/DTD/svg11.dtd">
<!-- Generated by graphviz version 2.40.1 (20161225.0304)
 -->
<!-- Title: likes Pages: 1 -->
<svg width="509pt" height="892pt"
 viewBox="0.00 0.00 508.50 892.00" xmlns="http://www.w3.org/2000/svg" xmlns:xlink="http://www.w3.org/1999/xlink">
<g id="graph0" class="graph" transform="scale(1 1) rotate(0) translate(4 888)">
<title>likes</title>
<polygon fill="#ffffff" stroke="transparent" points="-4,4 -4,-888 504.5,-888 504.5,4 -4,4"/>
<!-- likes -->
<g id="node1" class="node">
<title>likes</title>
<polygon fill="#efefef" stroke="transparent" points="240,-802.5 240,-837.5 430,-837.5 430,-802.5 240,-802.5"/>
<polygon fill="none" stroke="#000000" points="240,-802.5 240,-837.5 430,-837.5 430,-802.5 240,-802.5"/>
<text text-anchor="start" x="253.2187" y="-815.3" font-family="Arial Bold" font-size="18.00" fill="#000000">likes</text>
<text text-anchor="start" x="289.2133" y="-815.3" font-family="Arial" font-size="14.00" fill="#000000">    </text>
<text text-anchor="start" x="323.4181" y="-815.3" font-family="Arial" font-size="14.00" fill="#666666">[BASE TABLE]</text>
<polygon fill="none" stroke="#000000" points="240,-772.5 240,-802.5 430,-802.5 430,-772.5 240,-772.5"/>
<text text-anchor="start" x="247" y="-783.9" font-family="Arial" font-size="14.00" fill="#000000">id </text>
<text text-anchor="start" x="261.7798" y="-783.9" font-family="Arial" font-size="14.00" fill="#666666">[bigint(20) unsigned]</text>
<polygon fill="none" stroke="#000000" points="240,-742.5 240,-772.5 430,-772.5 430,-742.5 240,-742.5"/>
<text text-anchor="start" x="247" y="-753.9" font-family="Arial" font-size="14.00" fill="#000000">post_id </text>
<text text-anchor="start" x="296.0182" y="-753.9" font-family="Arial" font-size="14.00" fill="#666666">[int(11)]</text>
<polygon fill="none" stroke="#000000" points="240,-712.5 240,-742.5 430,-742.5 430,-712.5 240,-712.5"/>
<text text-anchor="start" x="247" y="-723.9" font-family="Arial" font-size="14.00" fill="#000000">post_type </text>
<text text-anchor="start" x="311.5848" y="-723.9" font-family="Arial" font-size="14.00" fill="#666666">[varchar(255)]</text>
<polygon fill="none" stroke="#000000" points="240,-682.5 240,-712.5 430,-712.5 430,-682.5 240,-682.5"/>
<text text-anchor="start" x="246.6999" y="-693.9" font-family="Arial" font-size="14.00" fill="#000000">user_id </text>
<text text-anchor="start" x="296.4881" y="-693.9" font-family="Arial" font-size="14.00" fill="#666666">[bigint(20) unsigned]</text>
<polygon fill="none" stroke="#000000" points="240,-652.5 240,-682.5 430,-682.5 430,-652.5 240,-652.5"/>
<text text-anchor="start" x="247" y="-663.9" font-family="Arial" font-size="14.00" fill="#000000">created_at </text>
<text text-anchor="start" x="317.028" y="-663.9" font-family="Arial" font-size="14.00" fill="#666666">[timestamp]</text>
<polygon fill="none" stroke="#000000" points="240,-622.5 240,-652.5 430,-652.5 430,-622.5 240,-622.5"/>
<text text-anchor="start" x="247" y="-633.9" font-family="Arial" font-size="14.00" fill="#000000">updated_at </text>
<text text-anchor="start" x="320.9326" y="-633.9" font-family="Arial" font-size="14.00" fill="#666666">[timestamp]</text>
<polygon fill="none" stroke="#000000" stroke-width="3" points="238.5,-621.5 238.5,-839.5 431.5,-839.5 431.5,-621.5 238.5,-621.5"/>
</g>
<!-- users -->
<g id="node2" class="node">
<title>users</title>
<polygon fill="#efefef" stroke="transparent" points="211,-462.5 211,-497.5 458,-497.5 458,-462.5 211,-462.5"/>
<polygon fill="none" stroke="#000000" points="211,-462.5 211,-497.5 458,-497.5 458,-462.5 211,-462.5"/>
<text text-anchor="start" x="248.7137" y="-475.3" font-family="Arial Bold" font-size="18.00" fill="#000000">users</text>
<text text-anchor="start" x="292.7183" y="-475.3" font-family="Arial" font-size="14.00" fill="#000000">    </text>
<text text-anchor="start" x="326.9231" y="-475.3" font-family="Arial" font-size="14.00" fill="#666666">[BASE TABLE]</text>
<polygon fill="none" stroke="#000000" points="211,-432.5 211,-462.5 458,-462.5 458,-432.5 211,-432.5"/>
<text text-anchor="start" x="218" y="-443.9" font-family="Arial" font-size="14.00" fill="#000000">id    </text>
<text text-anchor="start" x="263.094" y="-443.9" font-family="Arial" font-size="14.00" fill="#666666">[bigint(20) unsigned]</text>
<polygon fill="none" stroke="#000000" points="211,-402.5 211,-432.5 458,-432.5 458,-402.5 211,-402.5"/>
<text text-anchor="start" x="218" y="-413.9" font-family="Arial" font-size="14.00" fill="#000000">full_name    </text>
<text text-anchor="start" x="312.8822" y="-413.9" font-family="Arial" font-size="14.00" fill="#666666">[varchar(255)]</text>
<polygon fill="none" stroke="#000000" points="211,-372.5 211,-402.5 458,-402.5 458,-372.5 211,-372.5"/>
<text text-anchor="start" x="218" y="-383.9" font-family="Arial" font-size="14.00" fill="#000000">display_name    </text>
<text text-anchor="start" x="338.5568" y="-383.9" font-family="Arial" font-size="14.00" fill="#666666">[varchar(255)]</text>
<polygon fill="none" stroke="#000000" points="211,-342.5 211,-372.5 458,-372.5 458,-342.5 211,-342.5"/>
<text text-anchor="start" x="218" y="-353.9" font-family="Arial" font-size="14.00" fill="#000000">email    </text>
<text text-anchor="start" x="285.6438" y="-353.9" font-family="Arial" font-size="14.00" fill="#666666">[varchar(255)]</text>
<polygon fill="none" stroke="#000000" points="211,-312.5 211,-342.5 458,-342.5 458,-312.5 211,-312.5"/>
<text text-anchor="start" x="218" y="-323.9" font-family="Arial" font-size="14.00" fill="#000000">password    </text>
<text text-anchor="start" x="312.1024" y="-323.9" font-family="Arial" font-size="14.00" fill="#666666">[varchar(255)]</text>
<polygon fill="none" stroke="#000000" points="211,-282.5 211,-312.5 458,-312.5 458,-282.5 211,-282.5"/>
<text text-anchor="start" x="218" y="-293.9" font-family="Arial" font-size="14.00" fill="#000000">status    </text>
<text text-anchor="start" x="289.5512" y="-293.9" font-family="Arial" font-size="14.00" fill="#666666">[varchar(255)]</text>
<polygon fill="none" stroke="#000000" points="211,-252.5 211,-282.5 458,-282.5 458,-252.5 211,-252.5"/>
<text text-anchor="start" x="218" y="-263.9" font-family="Arial" font-size="14.00" fill="#000000">role_id    </text>
<text text-anchor="start" x="294.209" y="-263.9" font-family="Arial" font-size="14.00" fill="#666666">[bigint(20) unsigned]</text>
<polygon fill="none" stroke="#000000" points="211,-222.5 211,-252.5 458,-252.5 458,-222.5 211,-222.5"/>
<text text-anchor="start" x="218" y="-233.9" font-family="Arial" font-size="14.00" fill="#000000">site_id    </text>
<text text-anchor="start" x="292.6564" y="-233.9" font-family="Arial" font-size="14.00" fill="#666666">[bigint(20) unsigned]</text>
<polygon fill="none" stroke="#000000" points="211,-192.5 211,-222.5 458,-222.5 458,-192.5 211,-192.5"/>
<text text-anchor="start" x="217.8149" y="-203.9" font-family="Arial" font-size="14.00" fill="#000000">usertype_id    </text>
<text text-anchor="start" x="324.3731" y="-203.9" font-family="Arial" font-size="14.00" fill="#666666">[bigint(20) unsigned]</text>
<polygon fill="none" stroke="#000000" points="211,-162.5 211,-192.5 458,-192.5 458,-162.5 211,-162.5"/>
<text text-anchor="start" x="218" y="-173.9" font-family="Arial" font-size="14.00" fill="#000000">remember_token    </text>
<text text-anchor="start" x="357.9986" y="-173.9" font-family="Arial" font-size="14.00" fill="#666666">[varchar(100)]</text>
<polygon fill="none" stroke="#000000" points="211,-132.5 211,-162.5 458,-162.5 458,-132.5 211,-132.5"/>
<text text-anchor="start" x="218" y="-143.9" font-family="Arial" font-size="14.00" fill="#000000">token    </text>
<text text-anchor="start" x="286.4432" y="-143.9" font-family="Arial" font-size="14.00" fill="#666666">[longtext]</text>
<polygon fill="none" stroke="#000000" points="211,-102.5 211,-132.5 458,-132.5 458,-102.5 211,-102.5"/>
<text text-anchor="start" x="218" y="-113.9" font-family="Arial" font-size="14.00" fill="#000000">isFirstTimeVisit    </text>
<text text-anchor="start" x="347.0646" y="-113.9" font-family="Arial" font-size="14.00" fill="#666666">[tinyint(1)]</text>
<polygon fill="none" stroke="#000000" points="211,-72.5 211,-102.5 458,-102.5 458,-72.5 211,-72.5"/>
<text text-anchor="start" x="218" y="-83.9" font-family="Arial" font-size="14.00" fill="#000000">created_at    </text>
<text text-anchor="start" x="318.3422" y="-83.9" font-family="Arial" font-size="14.00" fill="#666666">[timestamp]</text>
<polygon fill="none" stroke="#000000" points="211,-42.5 211,-72.5 458,-72.5 458,-42.5 211,-42.5"/>
<text text-anchor="start" x="218" y="-53.9" font-family="Arial" font-size="14.00" fill="#000000">updated_at    </text>
<text text-anchor="start" x="322.2468" y="-53.9" font-family="Arial" font-size="14.00" fill="#666666">[timestamp]</text>
</g>
<!-- likes&#45;&gt;users -->
<g id="edge1" class="edge">
<title>likes:user_id&#45;&gt;users:id</title>
<path fill="none" stroke="#000000" d="M230.0147,-696.4211C189.1031,-686.7902 207.7211,-615.0465 240,-577 303.5305,-502.1178 394.4695,-615.8822 458,-541 484.8841,-509.3123 499.5556,-447.5 458,-447.5"/>
<polygon fill="#000000" stroke="#000000" points="230.0579,-696.4256 239.5165,-701.974 235.0289,-696.9628 240,-697.5 240,-697.5 240,-697.5 235.0289,-696.9628 240.4835,-693.026 230.0579,-696.4256 230.0579,-696.4256"/>
<text text-anchor="start" x="6.945" y="-707.5" font-family="Arial" font-size="10.00" fill="#000000">FOREIGN KEY (user_id) REFERENCES users (id)</text>
</g>
</g>
</svg>
