<?xml version="1.0" encoding="UTF-8" standalone="no"?>
<!DOCTYPE svg PUBLIC "-//W3C//DTD SVG 1.1//EN"
 "http://www.w3.org/Graphics/SVG/1.1/DTD/svg11.dtd">
<!-- Generated by graphviz version 2.40.1 (20161225.0304)
 -->
<!-- Title: loan_histories Pages: 1 -->
<svg width="776pt" height="1072pt"
 viewBox="0.00 0.00 776.00 1072.00" xmlns="http://www.w3.org/2000/svg" xmlns:xlink="http://www.w3.org/1999/xlink">
<g id="graph0" class="graph" transform="scale(1 1) rotate(0) translate(4 1068)">
<title>loan_histories</title>
<polygon fill="#ffffff" stroke="transparent" points="-4,4 -4,-1068 772,-1068 772,4 -4,4"/>
<!-- loan_histories -->
<g id="node1" class="node">
<title>loan_histories</title>
<polygon fill="#efefef" stroke="transparent" points="276,-982.5 276,-1017.5 528,-1017.5 528,-982.5 276,-982.5"/>
<polygon fill="none" stroke="#000000" points="276,-982.5 276,-1017.5 528,-1017.5 528,-982.5 276,-982.5"/>
<text text-anchor="start" x="282.7058" y="-995.3" font-family="Arial Bold" font-size="18.00" fill="#000000">loan_histories</text>
<text text-anchor="start" x="393.7262" y="-995.3" font-family="Arial" font-size="14.00" fill="#000000">    </text>
<text text-anchor="start" x="427.931" y="-995.3" font-family="Arial" font-size="14.00" fill="#666666">[BASE TABLE]</text>
<polygon fill="none" stroke="#000000" points="276,-952.5 276,-982.5 528,-982.5 528,-952.5 276,-952.5"/>
<text text-anchor="start" x="283" y="-963.9" font-family="Arial" font-size="14.00" fill="#000000">id </text>
<text text-anchor="start" x="297.7798" y="-963.9" font-family="Arial" font-size="14.00" fill="#666666">[bigint(20) unsigned]</text>
<polygon fill="none" stroke="#000000" points="276,-922.5 276,-952.5 528,-952.5 528,-922.5 276,-922.5"/>
<text text-anchor="start" x="283" y="-933.9" font-family="Arial" font-size="14.00" fill="#000000">product_id </text>
<text text-anchor="start" x="352.244" y="-933.9" font-family="Arial" font-size="14.00" fill="#666666">[bigint(20) unsigned]</text>
<polygon fill="none" stroke="#000000" points="276,-892.5 276,-922.5 528,-922.5 528,-892.5 276,-892.5"/>
<text text-anchor="start" x="283" y="-903.9" font-family="Arial" font-size="14.00" fill="#000000">user_id </text>
<text text-anchor="start" x="332.7882" y="-903.9" font-family="Arial" font-size="14.00" fill="#666666">[bigint(20) unsigned]</text>
<polygon fill="none" stroke="#000000" points="276,-862.5 276,-892.5 528,-892.5 528,-862.5 276,-862.5"/>
<text text-anchor="start" x="283" y="-873.9" font-family="Arial" font-size="14.00" fill="#000000">loan_start </text>
<text text-anchor="start" x="348.352" y="-873.9" font-family="Arial" font-size="14.00" fill="#666666">[datetime]</text>
<polygon fill="none" stroke="#000000" points="276,-832.5 276,-862.5 528,-862.5 528,-832.5 276,-832.5"/>
<text text-anchor="start" x="283" y="-843.9" font-family="Arial" font-size="14.00" fill="#000000">loan_end </text>
<text text-anchor="start" x="344.4754" y="-843.9" font-family="Arial" font-size="14.00" fill="#666666">[datetime]</text>
<polygon fill="none" stroke="#000000" points="276,-802.5 276,-832.5 528,-832.5 528,-802.5 276,-802.5"/>
<text text-anchor="start" x="283" y="-813.9" font-family="Arial" font-size="14.00" fill="#000000">created_at </text>
<text text-anchor="start" x="353.028" y="-813.9" font-family="Arial" font-size="14.00" fill="#666666">[timestamp]</text>
<polygon fill="none" stroke="#000000" points="276,-772.5 276,-802.5 528,-802.5 528,-772.5 276,-772.5"/>
<text text-anchor="start" x="283" y="-783.9" font-family="Arial" font-size="14.00" fill="#000000">updated_at </text>
<text text-anchor="start" x="356.9326" y="-783.9" font-family="Arial" font-size="14.00" fill="#666666">[timestamp]</text>
<polygon fill="none" stroke="#000000" stroke-width="3" points="274.5,-771.5 274.5,-1019.5 529.5,-1019.5 529.5,-771.5 274.5,-771.5"/>
</g>
<!-- hardwares -->
<g id="node2" class="node">
<title>hardwares</title>
<polygon fill="#efefef" stroke="transparent" points="100,-612.5 100,-647.5 350,-647.5 350,-612.5 100,-612.5"/>
<polygon fill="none" stroke="#000000" points="100,-612.5 100,-647.5 350,-647.5 350,-612.5 100,-612.5"/>
<text text-anchor="start" x="119.2112" y="-625.3" font-family="Arial Bold" font-size="18.00" fill="#000000">hardwares</text>
<text text-anchor="start" x="203.2208" y="-625.3" font-family="Arial" font-size="14.00" fill="#000000">    </text>
<text text-anchor="start" x="237.4256" y="-625.3" font-family="Arial" font-size="14.00" fill="#666666">[BASE TABLE]</text>
<polygon fill="none" stroke="#000000" points="100,-582.5 100,-612.5 350,-612.5 350,-582.5 100,-582.5"/>
<text text-anchor="start" x="107" y="-593.9" font-family="Arial" font-size="14.00" fill="#000000">id    </text>
<text text-anchor="start" x="152.094" y="-593.9" font-family="Arial" font-size="14.00" fill="#666666">[bigint(20) unsigned]</text>
<polygon fill="none" stroke="#000000" points="100,-552.5 100,-582.5 350,-582.5 350,-552.5 100,-552.5"/>
<text text-anchor="start" x="107" y="-563.9" font-family="Arial" font-size="14.00" fill="#000000">owner_id    </text>
<text text-anchor="start" x="197.9916" y="-563.9" font-family="Arial" font-size="14.00" fill="#666666">[bigint(20) unsigned]</text>
<polygon fill="none" stroke="#000000" points="100,-522.5 100,-552.5 350,-552.5 350,-522.5 100,-522.5"/>
<text text-anchor="start" x="107" y="-533.9" font-family="Arial" font-size="14.00" fill="#000000">product_name    </text>
<text text-anchor="start" x="230.6774" y="-533.9" font-family="Arial" font-size="14.00" fill="#666666">[varchar(255)]</text>
<polygon fill="none" stroke="#000000" points="100,-492.5 100,-522.5 350,-522.5 350,-492.5 100,-492.5"/>
<text text-anchor="start" x="107" y="-503.9" font-family="Arial" font-size="14.00" fill="#000000">product_content    </text>
<text text-anchor="start" x="241.5806" y="-503.9" font-family="Arial" font-size="14.00" fill="#666666">[longtext]</text>
<polygon fill="none" stroke="#000000" points="100,-462.5 100,-492.5 350,-492.5 350,-462.5 100,-462.5"/>
<text text-anchor="start" x="107" y="-473.9" font-family="Arial" font-size="14.00" fill="#000000">product_excerpt    </text>
<text text-anchor="start" x="241.568" y="-473.9" font-family="Arial" font-size="14.00" fill="#666666">[text]</text>
<polygon fill="none" stroke="#000000" points="100,-432.5 100,-462.5 350,-462.5 350,-432.5 100,-432.5"/>
<text text-anchor="start" x="107" y="-443.9" font-family="Arial" font-size="14.00" fill="#000000">price    </text>
<text text-anchor="start" x="171.5372" y="-443.9" font-family="Arial" font-size="14.00" fill="#666666">[double(8,2)]</text>
<polygon fill="none" stroke="#000000" points="100,-402.5 100,-432.5 350,-432.5 350,-402.5 100,-402.5"/>
<text text-anchor="start" x="107" y="-413.9" font-family="Arial" font-size="14.00" fill="#000000">cover_image    </text>
<text text-anchor="start" x="221.3282" y="-413.9" font-family="Arial" font-size="14.00" fill="#666666">[varchar(255)]</text>
<polygon fill="none" stroke="#000000" points="100,-372.5 100,-402.5 350,-402.5 350,-372.5 100,-372.5"/>
<text text-anchor="start" x="107" y="-383.9" font-family="Arial" font-size="14.00" fill="#000000">gallery    </text>
<text text-anchor="start" x="182.4264" y="-383.9" font-family="Arial" font-size="14.00" fill="#666666">[longtext]</text>
<polygon fill="none" stroke="#000000" points="100,-342.5 100,-372.5 350,-372.5 350,-342.5 100,-342.5"/>
<text text-anchor="start" x="107" y="-353.9" font-family="Arial" font-size="14.00" fill="#000000">created    </text>
<text text-anchor="start" x="187.8864" y="-353.9" font-family="Arial" font-size="14.00" fill="#666666">[datetime]</text>
<polygon fill="none" stroke="#000000" points="100,-312.5 100,-342.5 350,-342.5 350,-312.5 100,-312.5"/>
<text text-anchor="start" x="107" y="-323.9" font-family="Arial" font-size="14.00" fill="#000000">modified    </text>
<text text-anchor="start" x="194.0996" y="-323.9" font-family="Arial" font-size="14.00" fill="#666666">[datetime]</text>
<polygon fill="none" stroke="#000000" points="100,-282.5 100,-312.5 350,-312.5 350,-282.5 100,-282.5"/>
<text text-anchor="start" x="107" y="-293.9" font-family="Arial" font-size="14.00" fill="#000000">product_SKU    </text>
<text text-anchor="start" x="224.4488" y="-293.9" font-family="Arial" font-size="14.00" fill="#666666">[varchar(255)]</text>
<polygon fill="none" stroke="#000000" points="100,-252.5 100,-282.5 350,-282.5 350,-252.5 100,-252.5"/>
<text text-anchor="start" x="107" y="-263.9" font-family="Arial" font-size="14.00" fill="#000000">category_id    </text>
<text text-anchor="start" x="213.5582" y="-263.9" font-family="Arial" font-size="14.00" fill="#666666">[bigint(20) unsigned]</text>
<polygon fill="none" stroke="#000000" points="100,-222.5 100,-252.5 350,-252.5 350,-222.5 100,-222.5"/>
<text text-anchor="start" x="106.7616" y="-233.9" font-family="Arial" font-size="14.00" fill="#000000">inventory_id    </text>
<text text-anchor="start" x="216.4264" y="-233.9" font-family="Arial" font-size="14.00" fill="#666666">[bigint(20) unsigned]</text>
<polygon fill="none" stroke="#000000" points="100,-192.5 100,-222.5 350,-222.5 350,-192.5 100,-192.5"/>
<text text-anchor="start" x="107" y="-203.9" font-family="Arial" font-size="14.00" fill="#000000">brand_id    </text>
<text text-anchor="start" x="195.6676" y="-203.9" font-family="Arial" font-size="14.00" fill="#666666">[bigint(20) unsigned]</text>
<polygon fill="none" stroke="#000000" points="100,-162.5 100,-192.5 350,-192.5 350,-162.5 100,-162.5"/>
<text text-anchor="start" x="107" y="-173.9" font-family="Arial" font-size="14.00" fill="#000000">product_isLoan    </text>
<text text-anchor="start" x="236.906" y="-173.9" font-family="Arial" font-size="14.00" fill="#666666">[tinyint(1)]</text>
<polygon fill="none" stroke="#000000" points="100,-132.5 100,-162.5 350,-162.5 350,-132.5 100,-132.5"/>
<text text-anchor="start" x="107" y="-143.9" font-family="Arial" font-size="14.00" fill="#000000">template    </text>
<text text-anchor="start" x="194.8836" y="-143.9" font-family="Arial" font-size="14.00" fill="#666666">[varchar(255)]</text>
<polygon fill="none" stroke="#000000" points="100,-102.5 100,-132.5 350,-132.5 350,-102.5 100,-102.5"/>
<text text-anchor="start" x="107" y="-113.9" font-family="Arial" font-size="14.00" fill="#000000">extra_content    </text>
<text text-anchor="start" x="226.0154" y="-113.9" font-family="Arial" font-size="14.00" fill="#666666">[json]</text>
<polygon fill="none" stroke="#000000" points="100,-72.5 100,-102.5 350,-102.5 350,-72.5 100,-72.5"/>
<text text-anchor="start" x="107" y="-83.9" font-family="Arial" font-size="14.00" fill="#000000">created_at    </text>
<text text-anchor="start" x="207.3422" y="-83.9" font-family="Arial" font-size="14.00" fill="#666666">[timestamp]</text>
<polygon fill="none" stroke="#000000" points="100,-42.5 100,-72.5 350,-72.5 350,-42.5 100,-42.5"/>
<text text-anchor="start" x="107" y="-53.9" font-family="Arial" font-size="14.00" fill="#000000">updated_at    </text>
<text text-anchor="start" x="211.2468" y="-53.9" font-family="Arial" font-size="14.00" fill="#666666">[timestamp]</text>
</g>
<!-- loan_histories&#45;&gt;hardwares -->
<g id="edge1" class="edge">
<title>loan_histories:product_id&#45;&gt;hardwares:id</title>
<path fill="none" stroke="#000000" d="M265.658,-936.9104C185.8858,-927.3303 228.3213,-803.2164 276,-727 295.397,-695.993 330.603,-722.007 350,-691 372.0388,-655.77 391.5556,-597.5 350,-597.5"/>
<polygon fill="#000000" stroke="#000000" points="266.0162,-936.9307 275.7438,-941.9927 271.0081,-937.2154 276,-937.5 276,-937.5 276,-937.5 271.0081,-937.2154 276.2562,-933.0073 266.0162,-936.9307 266.0162,-936.9307"/>
<text text-anchor="start" x="6.884" y="-947.5" font-family="Arial" font-size="10.00" fill="#000000">FOREIGN KEY (product_id) REFERENCES hardwares (id)</text>
</g>
<!-- users -->
<g id="node3" class="node">
<title>users</title>
<polygon fill="#efefef" stroke="transparent" points="455,-537.5 455,-572.5 702,-572.5 702,-537.5 455,-537.5"/>
<polygon fill="none" stroke="#000000" points="455,-537.5 455,-572.5 702,-572.5 702,-537.5 455,-537.5"/>
<text text-anchor="start" x="492.7137" y="-550.3" font-family="Arial Bold" font-size="18.00" fill="#000000">users</text>
<text text-anchor="start" x="536.7183" y="-550.3" font-family="Arial" font-size="14.00" fill="#000000">    </text>
<text text-anchor="start" x="570.9231" y="-550.3" font-family="Arial" font-size="14.00" fill="#666666">[BASE TABLE]</text>
<polygon fill="none" stroke="#000000" points="455,-507.5 455,-537.5 702,-537.5 702,-507.5 455,-507.5"/>
<text text-anchor="start" x="462" y="-518.9" font-family="Arial" font-size="14.00" fill="#000000">id    </text>
<text text-anchor="start" x="507.094" y="-518.9" font-family="Arial" font-size="14.00" fill="#666666">[bigint(20) unsigned]</text>
<polygon fill="none" stroke="#000000" points="455,-477.5 455,-507.5 702,-507.5 702,-477.5 455,-477.5"/>
<text text-anchor="start" x="462" y="-488.9" font-family="Arial" font-size="14.00" fill="#000000">full_name    </text>
<text text-anchor="start" x="556.8822" y="-488.9" font-family="Arial" font-size="14.00" fill="#666666">[varchar(255)]</text>
<polygon fill="none" stroke="#000000" points="455,-447.5 455,-477.5 702,-477.5 702,-447.5 455,-447.5"/>
<text text-anchor="start" x="462" y="-458.9" font-family="Arial" font-size="14.00" fill="#000000">display_name    </text>
<text text-anchor="start" x="582.5568" y="-458.9" font-family="Arial" font-size="14.00" fill="#666666">[varchar(255)]</text>
<polygon fill="none" stroke="#000000" points="455,-417.5 455,-447.5 702,-447.5 702,-417.5 455,-417.5"/>
<text text-anchor="start" x="462" y="-428.9" font-family="Arial" font-size="14.00" fill="#000000">email    </text>
<text text-anchor="start" x="529.6438" y="-428.9" font-family="Arial" font-size="14.00" fill="#666666">[varchar(255)]</text>
<polygon fill="none" stroke="#000000" points="455,-387.5 455,-417.5 702,-417.5 702,-387.5 455,-387.5"/>
<text text-anchor="start" x="462" y="-398.9" font-family="Arial" font-size="14.00" fill="#000000">password    </text>
<text text-anchor="start" x="556.1024" y="-398.9" font-family="Arial" font-size="14.00" fill="#666666">[varchar(255)]</text>
<polygon fill="none" stroke="#000000" points="455,-357.5 455,-387.5 702,-387.5 702,-357.5 455,-357.5"/>
<text text-anchor="start" x="462" y="-368.9" font-family="Arial" font-size="14.00" fill="#000000">status    </text>
<text text-anchor="start" x="533.5512" y="-368.9" font-family="Arial" font-size="14.00" fill="#666666">[varchar(255)]</text>
<polygon fill="none" stroke="#000000" points="455,-327.5 455,-357.5 702,-357.5 702,-327.5 455,-327.5"/>
<text text-anchor="start" x="462" y="-338.9" font-family="Arial" font-size="14.00" fill="#000000">role_id    </text>
<text text-anchor="start" x="538.209" y="-338.9" font-family="Arial" font-size="14.00" fill="#666666">[bigint(20) unsigned]</text>
<polygon fill="none" stroke="#000000" points="455,-297.5 455,-327.5 702,-327.5 702,-297.5 455,-297.5"/>
<text text-anchor="start" x="462" y="-308.9" font-family="Arial" font-size="14.00" fill="#000000">site_id    </text>
<text text-anchor="start" x="536.6564" y="-308.9" font-family="Arial" font-size="14.00" fill="#666666">[bigint(20) unsigned]</text>
<polygon fill="none" stroke="#000000" points="455,-267.5 455,-297.5 702,-297.5 702,-267.5 455,-267.5"/>
<text text-anchor="start" x="461.8149" y="-278.9" font-family="Arial" font-size="14.00" fill="#000000">usertype_id    </text>
<text text-anchor="start" x="568.3731" y="-278.9" font-family="Arial" font-size="14.00" fill="#666666">[bigint(20) unsigned]</text>
<polygon fill="none" stroke="#000000" points="455,-237.5 455,-267.5 702,-267.5 702,-237.5 455,-237.5"/>
<text text-anchor="start" x="462" y="-248.9" font-family="Arial" font-size="14.00" fill="#000000">remember_token    </text>
<text text-anchor="start" x="601.9986" y="-248.9" font-family="Arial" font-size="14.00" fill="#666666">[varchar(100)]</text>
<polygon fill="none" stroke="#000000" points="455,-207.5 455,-237.5 702,-237.5 702,-207.5 455,-207.5"/>
<text text-anchor="start" x="462" y="-218.9" font-family="Arial" font-size="14.00" fill="#000000">token    </text>
<text text-anchor="start" x="530.4432" y="-218.9" font-family="Arial" font-size="14.00" fill="#666666">[longtext]</text>
<polygon fill="none" stroke="#000000" points="455,-177.5 455,-207.5 702,-207.5 702,-177.5 455,-177.5"/>
<text text-anchor="start" x="462" y="-188.9" font-family="Arial" font-size="14.00" fill="#000000">isFirstTimeVisit    </text>
<text text-anchor="start" x="591.0646" y="-188.9" font-family="Arial" font-size="14.00" fill="#666666">[tinyint(1)]</text>
<polygon fill="none" stroke="#000000" points="455,-147.5 455,-177.5 702,-177.5 702,-147.5 455,-147.5"/>
<text text-anchor="start" x="462" y="-158.9" font-family="Arial" font-size="14.00" fill="#000000">created_at    </text>
<text text-anchor="start" x="562.3422" y="-158.9" font-family="Arial" font-size="14.00" fill="#666666">[timestamp]</text>
<polygon fill="none" stroke="#000000" points="455,-117.5 455,-147.5 702,-147.5 702,-117.5 455,-117.5"/>
<text text-anchor="start" x="462" y="-128.9" font-family="Arial" font-size="14.00" fill="#000000">updated_at    </text>
<text text-anchor="start" x="566.2468" y="-128.9" font-family="Arial" font-size="14.00" fill="#666666">[timestamp]</text>
</g>
<!-- loan_histories&#45;&gt;users -->
<g id="edge2" class="edge">
<title>loan_histories:user_id&#45;&gt;users:id</title>
<path fill="none" stroke="#000000" d="M538.0899,-907.2234C712.881,-897.2601 456.6376,-621.4703 455,-616 443.0825,-576.19 413.4444,-522.5 455,-522.5"/>
<polygon fill="#000000" stroke="#000000" points="537.9962,-907.2258 527.8766,-903.0017 532.9981,-907.3629 528,-907.5 528,-907.5 528,-907.5 532.9981,-907.3629 528.1234,-911.9983 537.9962,-907.2258 537.9962,-907.2258"/>
<text text-anchor="start" x="534.945" y="-917.5" font-family="Arial" font-size="10.00" fill="#000000">FOREIGN KEY (user_id) REFERENCES users (id)</text>
</g>
</g>
</svg>
