<?xml version="1.0" encoding="UTF-8" standalone="no"?>
<!DOCTYPE svg PUBLIC "-//W3C//DTD SVG 1.1//EN"
 "http://www.w3.org/Graphics/SVG/1.1/DTD/svg11.dtd">
<!-- Generated by graphviz version 2.40.1 (20161225.0304)
 -->
<!-- Title: loan_metas Pages: 1 -->
<svg width="532pt" height="832pt"
 viewBox="0.00 0.00 532.00 832.00" xmlns="http://www.w3.org/2000/svg" xmlns:xlink="http://www.w3.org/1999/xlink">
<g id="graph0" class="graph" transform="scale(1 1) rotate(0) translate(4 828)">
<title>loan_metas</title>
<polygon fill="#ffffff" stroke="transparent" points="-4,4 -4,-828 528,-828 528,4 -4,4"/>
<!-- loan_metas -->
<g id="node1" class="node">
<title>loan_metas</title>
<polygon fill="#efefef" stroke="transparent" points="51,-742.5 51,-777.5 285,-777.5 285,-742.5 51,-742.5"/>
<polygon fill="none" stroke="#000000" points="51,-742.5 51,-777.5 285,-777.5 285,-742.5 51,-742.5"/>
<text text-anchor="start" x="57.7031" y="-755.3" font-family="Arial Bold" font-size="18.00" fill="#000000">loan_metas</text>
<text text-anchor="start" x="150.7289" y="-755.3" font-family="Arial" font-size="14.00" fill="#000000">    </text>
<text text-anchor="start" x="184.9337" y="-755.3" font-family="Arial" font-size="14.00" fill="#666666">[BASE TABLE]</text>
<polygon fill="none" stroke="#000000" points="51,-712.5 51,-742.5 285,-742.5 285,-712.5 51,-712.5"/>
<text text-anchor="start" x="58" y="-723.9" font-family="Arial" font-size="14.00" fill="#000000">id </text>
<text text-anchor="start" x="72.7798" y="-723.9" font-family="Arial" font-size="14.00" fill="#666666">[bigint(20) unsigned]</text>
<polygon fill="none" stroke="#000000" points="51,-682.5 51,-712.5 285,-712.5 285,-682.5 51,-682.5"/>
<text text-anchor="start" x="58" y="-693.9" font-family="Arial" font-size="14.00" fill="#000000">loan_id </text>
<text text-anchor="start" x="107.0168" y="-693.9" font-family="Arial" font-size="14.00" fill="#666666">[bigint(20) unsigned]</text>
<polygon fill="none" stroke="#000000" points="51,-652.5 51,-682.5 285,-682.5 285,-652.5 51,-652.5"/>
<text text-anchor="start" x="58" y="-663.9" font-family="Arial" font-size="14.00" fill="#000000">loan_meta_key </text>
<text text-anchor="start" x="156.8092" y="-663.9" font-family="Arial" font-size="14.00" fill="#666666">[varchar(255)]</text>
<polygon fill="none" stroke="#000000" points="51,-622.5 51,-652.5 285,-652.5 285,-622.5 51,-622.5"/>
<text text-anchor="start" x="58" y="-633.9" font-family="Arial" font-size="14.00" fill="#000000">loan_meta_value </text>
<text text-anchor="start" x="168.481" y="-633.9" font-family="Arial" font-size="14.00" fill="#666666">[text]</text>
<polygon fill="none" stroke="#000000" points="51,-592.5 51,-622.5 285,-622.5 285,-592.5 51,-592.5"/>
<text text-anchor="start" x="58" y="-603.9" font-family="Arial" font-size="14.00" fill="#000000">created_at </text>
<text text-anchor="start" x="128.028" y="-603.9" font-family="Arial" font-size="14.00" fill="#666666">[timestamp]</text>
<polygon fill="none" stroke="#000000" points="51,-562.5 51,-592.5 285,-592.5 285,-562.5 51,-562.5"/>
<text text-anchor="start" x="58" y="-573.9" font-family="Arial" font-size="14.00" fill="#000000">updated_at </text>
<text text-anchor="start" x="131.9326" y="-573.9" font-family="Arial" font-size="14.00" fill="#666666">[timestamp]</text>
<polygon fill="none" stroke="#000000" stroke-width="3" points="49.5,-561.5 49.5,-779.5 286.5,-779.5 286.5,-561.5 49.5,-561.5"/>
</g>
<!-- loans -->
<g id="node2" class="node">
<title>loans</title>
<polygon fill="#efefef" stroke="transparent" points="43,-402.5 43,-437.5 293,-437.5 293,-402.5 43,-402.5"/>
<polygon fill="none" stroke="#000000" points="43,-402.5 43,-437.5 293,-437.5 293,-402.5 43,-402.5"/>
<text text-anchor="start" x="82.7096" y="-415.3" font-family="Arial Bold" font-size="18.00" fill="#000000">loans</text>
<text text-anchor="start" x="125.7224" y="-415.3" font-family="Arial" font-size="14.00" fill="#000000">    </text>
<text text-anchor="start" x="159.9272" y="-415.3" font-family="Arial" font-size="14.00" fill="#666666">[BASE TABLE]</text>
<polygon fill="none" stroke="#000000" points="43,-372.5 43,-402.5 293,-402.5 293,-372.5 43,-372.5"/>
<text text-anchor="start" x="50" y="-383.9" font-family="Arial" font-size="14.00" fill="#000000">id    </text>
<text text-anchor="start" x="95.094" y="-383.9" font-family="Arial" font-size="14.00" fill="#666666">[bigint(20) unsigned]</text>
<polygon fill="none" stroke="#000000" points="43,-342.5 43,-372.5 293,-372.5 293,-342.5 43,-342.5"/>
<text text-anchor="start" x="50" y="-353.9" font-family="Arial" font-size="14.00" fill="#000000">product_id    </text>
<text text-anchor="start" x="149.5582" y="-353.9" font-family="Arial" font-size="14.00" fill="#666666">[bigint(20) unsigned]</text>
<polygon fill="none" stroke="#000000" points="43,-312.5 43,-342.5 293,-342.5 293,-312.5 43,-312.5"/>
<text text-anchor="start" x="50" y="-323.9" font-family="Arial" font-size="14.00" fill="#000000">user_id    </text>
<text text-anchor="start" x="130.1024" y="-323.9" font-family="Arial" font-size="14.00" fill="#666666">[bigint(20) unsigned]</text>
<polygon fill="none" stroke="#000000" points="43,-282.5 43,-312.5 293,-312.5 293,-282.5 43,-282.5"/>
<text text-anchor="start" x="50" y="-293.9" font-family="Arial" font-size="14.00" fill="#000000">loan_start    </text>
<text text-anchor="start" x="145.6662" y="-293.9" font-family="Arial" font-size="14.00" fill="#666666">[datetime]</text>
<polygon fill="none" stroke="#000000" points="43,-252.5 43,-282.5 293,-282.5 293,-252.5 43,-252.5"/>
<text text-anchor="start" x="50" y="-263.9" font-family="Arial" font-size="14.00" fill="#000000">loan_end    </text>
<text text-anchor="start" x="141.7896" y="-263.9" font-family="Arial" font-size="14.00" fill="#666666">[datetime]</text>
<polygon fill="none" stroke="#000000" points="43,-222.5 43,-252.5 293,-252.5 293,-222.5 43,-222.5"/>
<text text-anchor="start" x="50" y="-233.9" font-family="Arial" font-size="14.00" fill="#000000">is_available    </text>
<text text-anchor="start" x="157.3268" y="-233.9" font-family="Arial" font-size="14.00" fill="#666666">[tinyint(1)]</text>
<polygon fill="none" stroke="#000000" points="43,-192.5 43,-222.5 293,-222.5 293,-192.5 43,-192.5"/>
<text text-anchor="start" x="50" y="-203.9" font-family="Arial" font-size="14.00" fill="#000000">status    </text>
<text text-anchor="start" x="121.5512" y="-203.9" font-family="Arial" font-size="14.00" fill="#666666">[varchar(255)]</text>
<polygon fill="none" stroke="#000000" points="43,-162.5 43,-192.5 293,-192.5 293,-162.5 43,-162.5"/>
<text text-anchor="start" x="50" y="-173.9" font-family="Arial" font-size="14.00" fill="#000000">quantity    </text>
<text text-anchor="start" x="133.223" y="-173.9" font-family="Arial" font-size="14.00" fill="#666666">[int(11)]</text>
<polygon fill="none" stroke="#000000" points="43,-132.5 43,-162.5 293,-162.5 293,-132.5 43,-132.5"/>
<text text-anchor="start" x="49.7616" y="-143.9" font-family="Arial" font-size="14.00" fill="#000000">inventory_id    </text>
<text text-anchor="start" x="159.4264" y="-143.9" font-family="Arial" font-size="14.00" fill="#666666">[bigint(20) unsigned]</text>
<polygon fill="none" stroke="#000000" points="43,-102.5 43,-132.5 293,-132.5 293,-102.5 43,-102.5"/>
<text text-anchor="start" x="50" y="-113.9" font-family="Arial" font-size="14.00" fill="#000000">is_returned    </text>
<text text-anchor="start" x="154.2188" y="-113.9" font-family="Arial" font-size="14.00" fill="#666666">[tinyint(1)]</text>
<polygon fill="none" stroke="#000000" points="43,-72.5 43,-102.5 293,-102.5 293,-72.5 43,-72.5"/>
<text text-anchor="start" x="50" y="-83.9" font-family="Arial" font-size="14.00" fill="#000000">created_at    </text>
<text text-anchor="start" x="150.3422" y="-83.9" font-family="Arial" font-size="14.00" fill="#666666">[timestamp]</text>
<polygon fill="none" stroke="#000000" points="43,-42.5 43,-72.5 293,-72.5 293,-42.5 43,-42.5"/>
<text text-anchor="start" x="50" y="-53.9" font-family="Arial" font-size="14.00" fill="#000000">updated_at    </text>
<text text-anchor="start" x="154.2468" y="-53.9" font-family="Arial" font-size="14.00" fill="#666666">[timestamp]</text>
</g>
<!-- loan_metas&#45;&gt;loans -->
<g id="edge1" class="edge">
<title>loan_metas:loan_id&#45;&gt;loans:id</title>
<path fill="none" stroke="#000000" d="M295.025,-695.183C354.526,-666.815 358.4124,-387.5 293,-387.5"/>
<polygon fill="#000000" stroke="#000000" points="294.7432,-695.248 283.9866,-693.1156 289.8716,-696.374 285,-697.5 285,-697.5 285,-697.5 289.8716,-696.374 286.0134,-701.8844 294.7432,-695.248 294.7432,-695.248"/>
<text text-anchor="start" x="292.496" y="-707.5" font-family="Arial" font-size="10.00" fill="#000000">FOREIGN KEY (loan_id) REFERENCES loans (id)</text>
</g>
</g>
</svg>
