<?xml version="1.0" encoding="UTF-8" standalone="no"?>
<!DOCTYPE svg PUBLIC "-//W3C//DTD SVG 1.1//EN"
 "http://www.w3.org/Graphics/SVG/1.1/DTD/svg11.dtd">
<!-- Generated by graphviz version 2.40.1 (20161225.0304)
 -->
<!-- Title: loans Pages: 1 -->
<svg width="1098pt" height="1619pt"
 viewBox="0.00 0.00 1098.00 1619.00" xmlns="http://www.w3.org/2000/svg" xmlns:xlink="http://www.w3.org/1999/xlink">
<g id="graph0" class="graph" transform="scale(1 1) rotate(0) translate(4 1615)">
<title>loans</title>
<polygon fill="#ffffff" stroke="transparent" points="-4,4 -4,-1615 1094,-1615 1094,4 -4,4"/>
<!-- loans -->
<g id="node1" class="node">
<title>loans</title>
<polygon fill="#efefef" stroke="transparent" points="412,-1132.5 412,-1167.5 632,-1167.5 632,-1132.5 412,-1132.5"/>
<polygon fill="none" stroke="#000000" points="412,-1132.5 412,-1167.5 632,-1167.5 632,-1132.5 412,-1132.5"/>
<text text-anchor="start" x="436.7096" y="-1145.3" font-family="Arial Bold" font-size="18.00" fill="#000000">loans</text>
<text text-anchor="start" x="479.7224" y="-1145.3" font-family="Arial" font-size="14.00" fill="#000000">    </text>
<text text-anchor="start" x="513.9272" y="-1145.3" font-family="Arial" font-size="14.00" fill="#666666">[BASE TABLE]</text>
<polygon fill="none" stroke="#000000" points="412,-1102.5 412,-1132.5 632,-1132.5 632,-1102.5 412,-1102.5"/>
<text text-anchor="start" x="419" y="-1113.9" font-family="Arial" font-size="14.00" fill="#000000">id </text>
<text text-anchor="start" x="433.7798" y="-1113.9" font-family="Arial" font-size="14.00" fill="#666666">[bigint(20) unsigned]</text>
<polygon fill="none" stroke="#000000" points="412,-1072.5 412,-1102.5 632,-1102.5 632,-1072.5 412,-1072.5"/>
<text text-anchor="start" x="419" y="-1083.9" font-family="Arial" font-size="14.00" fill="#000000">product_id </text>
<text text-anchor="start" x="488.244" y="-1083.9" font-family="Arial" font-size="14.00" fill="#666666">[bigint(20) unsigned]</text>
<polygon fill="none" stroke="#000000" points="412,-1042.5 412,-1072.5 632,-1072.5 632,-1042.5 412,-1042.5"/>
<text text-anchor="start" x="419" y="-1053.9" font-family="Arial" font-size="14.00" fill="#000000">user_id </text>
<text text-anchor="start" x="468.7882" y="-1053.9" font-family="Arial" font-size="14.00" fill="#666666">[bigint(20) unsigned]</text>
<polygon fill="none" stroke="#000000" points="412,-1012.5 412,-1042.5 632,-1042.5 632,-1012.5 412,-1012.5"/>
<text text-anchor="start" x="419" y="-1023.9" font-family="Arial" font-size="14.00" fill="#000000">loan_start </text>
<text text-anchor="start" x="484.352" y="-1023.9" font-family="Arial" font-size="14.00" fill="#666666">[datetime]</text>
<polygon fill="none" stroke="#000000" points="412,-982.5 412,-1012.5 632,-1012.5 632,-982.5 412,-982.5"/>
<text text-anchor="start" x="419" y="-993.9" font-family="Arial" font-size="14.00" fill="#000000">loan_end </text>
<text text-anchor="start" x="480.4754" y="-993.9" font-family="Arial" font-size="14.00" fill="#666666">[datetime]</text>
<polygon fill="none" stroke="#000000" points="412,-952.5 412,-982.5 632,-982.5 632,-952.5 412,-952.5"/>
<text text-anchor="start" x="419" y="-963.9" font-family="Arial" font-size="14.00" fill="#000000">is_available </text>
<text text-anchor="start" x="496.0126" y="-963.9" font-family="Arial" font-size="14.00" fill="#666666">[tinyint(1)]</text>
<polygon fill="none" stroke="#000000" points="412,-922.5 412,-952.5 632,-952.5 632,-922.5 412,-922.5"/>
<text text-anchor="start" x="419" y="-933.9" font-family="Arial" font-size="14.00" fill="#000000">status </text>
<text text-anchor="start" x="460.237" y="-933.9" font-family="Arial" font-size="14.00" fill="#666666">[varchar(255)]</text>
<polygon fill="none" stroke="#000000" points="412,-892.5 412,-922.5 632,-922.5 632,-892.5 412,-892.5"/>
<text text-anchor="start" x="419" y="-903.9" font-family="Arial" font-size="14.00" fill="#000000">quantity </text>
<text text-anchor="start" x="471.9088" y="-903.9" font-family="Arial" font-size="14.00" fill="#666666">[int(11)]</text>
<polygon fill="none" stroke="#000000" points="412,-862.5 412,-892.5 632,-892.5 632,-862.5 412,-862.5"/>
<text text-anchor="start" x="418.9187" y="-873.9" font-family="Arial" font-size="14.00" fill="#000000">inventory_id </text>
<text text-anchor="start" x="498.2693" y="-873.9" font-family="Arial" font-size="14.00" fill="#666666">[bigint(20) unsigned]</text>
<polygon fill="none" stroke="#000000" points="412,-832.5 412,-862.5 632,-862.5 632,-832.5 412,-832.5"/>
<text text-anchor="start" x="419" y="-843.9" font-family="Arial" font-size="14.00" fill="#000000">is_returned </text>
<text text-anchor="start" x="492.9046" y="-843.9" font-family="Arial" font-size="14.00" fill="#666666">[tinyint(1)]</text>
<polygon fill="none" stroke="#000000" points="412,-802.5 412,-832.5 632,-832.5 632,-802.5 412,-802.5"/>
<text text-anchor="start" x="419" y="-813.9" font-family="Arial" font-size="14.00" fill="#000000">created_at </text>
<text text-anchor="start" x="489.028" y="-813.9" font-family="Arial" font-size="14.00" fill="#666666">[timestamp]</text>
<polygon fill="none" stroke="#000000" points="412,-772.5 412,-802.5 632,-802.5 632,-772.5 412,-772.5"/>
<text text-anchor="start" x="419" y="-783.9" font-family="Arial" font-size="14.00" fill="#000000">updated_at </text>
<text text-anchor="start" x="492.9326" y="-783.9" font-family="Arial" font-size="14.00" fill="#666666">[timestamp]</text>
<polygon fill="none" stroke="#000000" stroke-width="3" points="410.5,-771.5 410.5,-1169.5 633.5,-1169.5 633.5,-771.5 410.5,-771.5"/>
</g>
<!-- hardwares -->
<g id="node4" class="node">
<title>hardwares</title>
<polygon fill="#efefef" stroke="transparent" points="43,-612.5 43,-647.5 293,-647.5 293,-612.5 43,-612.5"/>
<polygon fill="none" stroke="#000000" points="43,-612.5 43,-647.5 293,-647.5 293,-612.5 43,-612.5"/>
<text text-anchor="start" x="62.2112" y="-625.3" font-family="Arial Bold" font-size="18.00" fill="#000000">hardwares</text>
<text text-anchor="start" x="146.2208" y="-625.3" font-family="Arial" font-size="14.00" fill="#000000">    </text>
<text text-anchor="start" x="180.4256" y="-625.3" font-family="Arial" font-size="14.00" fill="#666666">[BASE TABLE]</text>
<polygon fill="none" stroke="#000000" points="43,-582.5 43,-612.5 293,-612.5 293,-582.5 43,-582.5"/>
<text text-anchor="start" x="50" y="-593.9" font-family="Arial" font-size="14.00" fill="#000000">id    </text>
<text text-anchor="start" x="95.094" y="-593.9" font-family="Arial" font-size="14.00" fill="#666666">[bigint(20) unsigned]</text>
<polygon fill="none" stroke="#000000" points="43,-552.5 43,-582.5 293,-582.5 293,-552.5 43,-552.5"/>
<text text-anchor="start" x="50" y="-563.9" font-family="Arial" font-size="14.00" fill="#000000">owner_id    </text>
<text text-anchor="start" x="140.9916" y="-563.9" font-family="Arial" font-size="14.00" fill="#666666">[bigint(20) unsigned]</text>
<polygon fill="none" stroke="#000000" points="43,-522.5 43,-552.5 293,-552.5 293,-522.5 43,-522.5"/>
<text text-anchor="start" x="50" y="-533.9" font-family="Arial" font-size="14.00" fill="#000000">product_name    </text>
<text text-anchor="start" x="173.6774" y="-533.9" font-family="Arial" font-size="14.00" fill="#666666">[varchar(255)]</text>
<polygon fill="none" stroke="#000000" points="43,-492.5 43,-522.5 293,-522.5 293,-492.5 43,-492.5"/>
<text text-anchor="start" x="50" y="-503.9" font-family="Arial" font-size="14.00" fill="#000000">product_content    </text>
<text text-anchor="start" x="184.5806" y="-503.9" font-family="Arial" font-size="14.00" fill="#666666">[longtext]</text>
<polygon fill="none" stroke="#000000" points="43,-462.5 43,-492.5 293,-492.5 293,-462.5 43,-462.5"/>
<text text-anchor="start" x="50" y="-473.9" font-family="Arial" font-size="14.00" fill="#000000">product_excerpt    </text>
<text text-anchor="start" x="184.568" y="-473.9" font-family="Arial" font-size="14.00" fill="#666666">[text]</text>
<polygon fill="none" stroke="#000000" points="43,-432.5 43,-462.5 293,-462.5 293,-432.5 43,-432.5"/>
<text text-anchor="start" x="50" y="-443.9" font-family="Arial" font-size="14.00" fill="#000000">price    </text>
<text text-anchor="start" x="114.5372" y="-443.9" font-family="Arial" font-size="14.00" fill="#666666">[double(8,2)]</text>
<polygon fill="none" stroke="#000000" points="43,-402.5 43,-432.5 293,-432.5 293,-402.5 43,-402.5"/>
<text text-anchor="start" x="50" y="-413.9" font-family="Arial" font-size="14.00" fill="#000000">cover_image    </text>
<text text-anchor="start" x="164.3282" y="-413.9" font-family="Arial" font-size="14.00" fill="#666666">[varchar(255)]</text>
<polygon fill="none" stroke="#000000" points="43,-372.5 43,-402.5 293,-402.5 293,-372.5 43,-372.5"/>
<text text-anchor="start" x="50" y="-383.9" font-family="Arial" font-size="14.00" fill="#000000">gallery    </text>
<text text-anchor="start" x="125.4264" y="-383.9" font-family="Arial" font-size="14.00" fill="#666666">[longtext]</text>
<polygon fill="none" stroke="#000000" points="43,-342.5 43,-372.5 293,-372.5 293,-342.5 43,-342.5"/>
<text text-anchor="start" x="50" y="-353.9" font-family="Arial" font-size="14.00" fill="#000000">created    </text>
<text text-anchor="start" x="130.8864" y="-353.9" font-family="Arial" font-size="14.00" fill="#666666">[datetime]</text>
<polygon fill="none" stroke="#000000" points="43,-312.5 43,-342.5 293,-342.5 293,-312.5 43,-312.5"/>
<text text-anchor="start" x="50" y="-323.9" font-family="Arial" font-size="14.00" fill="#000000">modified    </text>
<text text-anchor="start" x="137.0996" y="-323.9" font-family="Arial" font-size="14.00" fill="#666666">[datetime]</text>
<polygon fill="none" stroke="#000000" points="43,-282.5 43,-312.5 293,-312.5 293,-282.5 43,-282.5"/>
<text text-anchor="start" x="50" y="-293.9" font-family="Arial" font-size="14.00" fill="#000000">product_SKU    </text>
<text text-anchor="start" x="167.4488" y="-293.9" font-family="Arial" font-size="14.00" fill="#666666">[varchar(255)]</text>
<polygon fill="none" stroke="#000000" points="43,-252.5 43,-282.5 293,-282.5 293,-252.5 43,-252.5"/>
<text text-anchor="start" x="50" y="-263.9" font-family="Arial" font-size="14.00" fill="#000000">category_id    </text>
<text text-anchor="start" x="156.5582" y="-263.9" font-family="Arial" font-size="14.00" fill="#666666">[bigint(20) unsigned]</text>
<polygon fill="none" stroke="#000000" points="43,-222.5 43,-252.5 293,-252.5 293,-222.5 43,-222.5"/>
<text text-anchor="start" x="49.7616" y="-233.9" font-family="Arial" font-size="14.00" fill="#000000">inventory_id    </text>
<text text-anchor="start" x="159.4264" y="-233.9" font-family="Arial" font-size="14.00" fill="#666666">[bigint(20) unsigned]</text>
<polygon fill="none" stroke="#000000" points="43,-192.5 43,-222.5 293,-222.5 293,-192.5 43,-192.5"/>
<text text-anchor="start" x="50" y="-203.9" font-family="Arial" font-size="14.00" fill="#000000">brand_id    </text>
<text text-anchor="start" x="138.6676" y="-203.9" font-family="Arial" font-size="14.00" fill="#666666">[bigint(20) unsigned]</text>
<polygon fill="none" stroke="#000000" points="43,-162.5 43,-192.5 293,-192.5 293,-162.5 43,-162.5"/>
<text text-anchor="start" x="50" y="-173.9" font-family="Arial" font-size="14.00" fill="#000000">product_isLoan    </text>
<text text-anchor="start" x="179.906" y="-173.9" font-family="Arial" font-size="14.00" fill="#666666">[tinyint(1)]</text>
<polygon fill="none" stroke="#000000" points="43,-132.5 43,-162.5 293,-162.5 293,-132.5 43,-132.5"/>
<text text-anchor="start" x="50" y="-143.9" font-family="Arial" font-size="14.00" fill="#000000">template    </text>
<text text-anchor="start" x="137.8836" y="-143.9" font-family="Arial" font-size="14.00" fill="#666666">[varchar(255)]</text>
<polygon fill="none" stroke="#000000" points="43,-102.5 43,-132.5 293,-132.5 293,-102.5 43,-102.5"/>
<text text-anchor="start" x="50" y="-113.9" font-family="Arial" font-size="14.00" fill="#000000">extra_content    </text>
<text text-anchor="start" x="169.0154" y="-113.9" font-family="Arial" font-size="14.00" fill="#666666">[json]</text>
<polygon fill="none" stroke="#000000" points="43,-72.5 43,-102.5 293,-102.5 293,-72.5 43,-72.5"/>
<text text-anchor="start" x="50" y="-83.9" font-family="Arial" font-size="14.00" fill="#000000">created_at    </text>
<text text-anchor="start" x="150.3422" y="-83.9" font-family="Arial" font-size="14.00" fill="#666666">[timestamp]</text>
<polygon fill="none" stroke="#000000" points="43,-42.5 43,-72.5 293,-72.5 293,-42.5 43,-42.5"/>
<text text-anchor="start" x="50" y="-53.9" font-family="Arial" font-size="14.00" fill="#000000">updated_at    </text>
<text text-anchor="start" x="154.2468" y="-53.9" font-family="Arial" font-size="14.00" fill="#666666">[timestamp]</text>
</g>
<!-- loans&#45;&gt;hardwares -->
<g id="edge3" class="edge">
<title>loans:product_id&#45;&gt;hardwares:id</title>
<path fill="none" stroke="#000000" d="M402.9343,-1082.9621C355.0287,-1033.5642 345.8536,-597.5 293,-597.5"/>
<polygon fill="#000000" stroke="#000000" points="403.0577,-1083.0238 409.9857,-1091.524 407.5289,-1085.2619 412,-1087.5 412,-1087.5 412,-1087.5 407.5289,-1085.2619 414.0143,-1083.476 403.0577,-1083.0238 403.0577,-1083.0238"/>
<text text-anchor="start" x="142.884" y="-1097.5" font-family="Arial" font-size="10.00" fill="#000000">FOREIGN KEY (product_id) REFERENCES hardwares (id)</text>
</g>
<!-- users -->
<g id="node5" class="node">
<title>users</title>
<polygon fill="#efefef" stroke="transparent" points="398,-537.5 398,-572.5 645,-572.5 645,-537.5 398,-537.5"/>
<polygon fill="none" stroke="#000000" points="398,-537.5 398,-572.5 645,-572.5 645,-537.5 398,-537.5"/>
<text text-anchor="start" x="435.7137" y="-550.3" font-family="Arial Bold" font-size="18.00" fill="#000000">users</text>
<text text-anchor="start" x="479.7183" y="-550.3" font-family="Arial" font-size="14.00" fill="#000000">    </text>
<text text-anchor="start" x="513.9231" y="-550.3" font-family="Arial" font-size="14.00" fill="#666666">[BASE TABLE]</text>
<polygon fill="none" stroke="#000000" points="398,-507.5 398,-537.5 645,-537.5 645,-507.5 398,-507.5"/>
<text text-anchor="start" x="405" y="-518.9" font-family="Arial" font-size="14.00" fill="#000000">id    </text>
<text text-anchor="start" x="450.094" y="-518.9" font-family="Arial" font-size="14.00" fill="#666666">[bigint(20) unsigned]</text>
<polygon fill="none" stroke="#000000" points="398,-477.5 398,-507.5 645,-507.5 645,-477.5 398,-477.5"/>
<text text-anchor="start" x="405" y="-488.9" font-family="Arial" font-size="14.00" fill="#000000">full_name    </text>
<text text-anchor="start" x="499.8822" y="-488.9" font-family="Arial" font-size="14.00" fill="#666666">[varchar(255)]</text>
<polygon fill="none" stroke="#000000" points="398,-447.5 398,-477.5 645,-477.5 645,-447.5 398,-447.5"/>
<text text-anchor="start" x="405" y="-458.9" font-family="Arial" font-size="14.00" fill="#000000">display_name    </text>
<text text-anchor="start" x="525.5568" y="-458.9" font-family="Arial" font-size="14.00" fill="#666666">[varchar(255)]</text>
<polygon fill="none" stroke="#000000" points="398,-417.5 398,-447.5 645,-447.5 645,-417.5 398,-417.5"/>
<text text-anchor="start" x="405" y="-428.9" font-family="Arial" font-size="14.00" fill="#000000">email    </text>
<text text-anchor="start" x="472.6438" y="-428.9" font-family="Arial" font-size="14.00" fill="#666666">[varchar(255)]</text>
<polygon fill="none" stroke="#000000" points="398,-387.5 398,-417.5 645,-417.5 645,-387.5 398,-387.5"/>
<text text-anchor="start" x="405" y="-398.9" font-family="Arial" font-size="14.00" fill="#000000">password    </text>
<text text-anchor="start" x="499.1024" y="-398.9" font-family="Arial" font-size="14.00" fill="#666666">[varchar(255)]</text>
<polygon fill="none" stroke="#000000" points="398,-357.5 398,-387.5 645,-387.5 645,-357.5 398,-357.5"/>
<text text-anchor="start" x="405" y="-368.9" font-family="Arial" font-size="14.00" fill="#000000">status    </text>
<text text-anchor="start" x="476.5512" y="-368.9" font-family="Arial" font-size="14.00" fill="#666666">[varchar(255)]</text>
<polygon fill="none" stroke="#000000" points="398,-327.5 398,-357.5 645,-357.5 645,-327.5 398,-327.5"/>
<text text-anchor="start" x="405" y="-338.9" font-family="Arial" font-size="14.00" fill="#000000">role_id    </text>
<text text-anchor="start" x="481.209" y="-338.9" font-family="Arial" font-size="14.00" fill="#666666">[bigint(20) unsigned]</text>
<polygon fill="none" stroke="#000000" points="398,-297.5 398,-327.5 645,-327.5 645,-297.5 398,-297.5"/>
<text text-anchor="start" x="405" y="-308.9" font-family="Arial" font-size="14.00" fill="#000000">site_id    </text>
<text text-anchor="start" x="479.6564" y="-308.9" font-family="Arial" font-size="14.00" fill="#666666">[bigint(20) unsigned]</text>
<polygon fill="none" stroke="#000000" points="398,-267.5 398,-297.5 645,-297.5 645,-267.5 398,-267.5"/>
<text text-anchor="start" x="404.8149" y="-278.9" font-family="Arial" font-size="14.00" fill="#000000">usertype_id    </text>
<text text-anchor="start" x="511.3731" y="-278.9" font-family="Arial" font-size="14.00" fill="#666666">[bigint(20) unsigned]</text>
<polygon fill="none" stroke="#000000" points="398,-237.5 398,-267.5 645,-267.5 645,-237.5 398,-237.5"/>
<text text-anchor="start" x="405" y="-248.9" font-family="Arial" font-size="14.00" fill="#000000">remember_token    </text>
<text text-anchor="start" x="544.9986" y="-248.9" font-family="Arial" font-size="14.00" fill="#666666">[varchar(100)]</text>
<polygon fill="none" stroke="#000000" points="398,-207.5 398,-237.5 645,-237.5 645,-207.5 398,-207.5"/>
<text text-anchor="start" x="405" y="-218.9" font-family="Arial" font-size="14.00" fill="#000000">token    </text>
<text text-anchor="start" x="473.4432" y="-218.9" font-family="Arial" font-size="14.00" fill="#666666">[longtext]</text>
<polygon fill="none" stroke="#000000" points="398,-177.5 398,-207.5 645,-207.5 645,-177.5 398,-177.5"/>
<text text-anchor="start" x="405" y="-188.9" font-family="Arial" font-size="14.00" fill="#000000">isFirstTimeVisit    </text>
<text text-anchor="start" x="534.0646" y="-188.9" font-family="Arial" font-size="14.00" fill="#666666">[tinyint(1)]</text>
<polygon fill="none" stroke="#000000" points="398,-147.5 398,-177.5 645,-177.5 645,-147.5 398,-147.5"/>
<text text-anchor="start" x="405" y="-158.9" font-family="Arial" font-size="14.00" fill="#000000">created_at    </text>
<text text-anchor="start" x="505.3422" y="-158.9" font-family="Arial" font-size="14.00" fill="#666666">[timestamp]</text>
<polygon fill="none" stroke="#000000" points="398,-117.5 398,-147.5 645,-147.5 645,-117.5 398,-117.5"/>
<text text-anchor="start" x="405" y="-128.9" font-family="Arial" font-size="14.00" fill="#000000">updated_at    </text>
<text text-anchor="start" x="509.2468" y="-128.9" font-family="Arial" font-size="14.00" fill="#666666">[timestamp]</text>
</g>
<!-- loans&#45;&gt;users -->
<g id="edge4" class="edge">
<title>loans:user_id&#45;&gt;users:id</title>
<path fill="none" stroke="#000000" d="M401.6237,-1057.1353C268.4607,-1047.4761 335.5029,-848.177 412,-727 473.2319,-630.0042 583.7681,-712.9958 645,-616 667.183,-580.8606 686.5556,-522.5 645,-522.5"/>
<polygon fill="#000000" stroke="#000000" points="402.0062,-1057.1487 411.8419,-1061.9972 407.0031,-1057.3243 412,-1057.5 412,-1057.5 412,-1057.5 407.0031,-1057.3243 412.1581,-1053.0028 402.0062,-1057.1487 402.0062,-1057.1487"/>
<text text-anchor="start" x="178.945" y="-1067.5" font-family="Arial" font-size="10.00" fill="#000000">FOREIGN KEY (user_id) REFERENCES users (id)</text>
</g>
<!-- product_inventories -->
<g id="node6" class="node">
<title>product_inventories</title>
<polygon fill="#efefef" stroke="transparent" points="749,-462.5 749,-497.5 1047,-497.5 1047,-462.5 749,-462.5"/>
<polygon fill="none" stroke="#000000" points="749,-462.5 749,-497.5 1047,-497.5 1047,-462.5 749,-462.5"/>
<text text-anchor="start" x="755.6964" y="-475.3" font-family="Arial Bold" font-size="18.00" fill="#000000">product_inventories</text>
<text text-anchor="start" x="912.7356" y="-475.3" font-family="Arial" font-size="14.00" fill="#000000">    </text>
<text text-anchor="start" x="946.9404" y="-475.3" font-family="Arial" font-size="14.00" fill="#666666">[BASE TABLE]</text>
<polygon fill="none" stroke="#000000" points="749,-432.5 749,-462.5 1047,-462.5 1047,-432.5 749,-432.5"/>
<text text-anchor="start" x="756" y="-443.9" font-family="Arial" font-size="14.00" fill="#000000">id    </text>
<text text-anchor="start" x="801.094" y="-443.9" font-family="Arial" font-size="14.00" fill="#666666">[bigint(20) unsigned]</text>
<polygon fill="none" stroke="#000000" points="749,-402.5 749,-432.5 1047,-432.5 1047,-402.5 749,-402.5"/>
<text text-anchor="start" x="756" y="-413.9" font-family="Arial" font-size="14.00" fill="#000000">product_inventory_name    </text>
<text text-anchor="start" x="944.2482" y="-413.9" font-family="Arial" font-size="14.00" fill="#666666">[varchar(255)]</text>
<polygon fill="none" stroke="#000000" points="749,-372.5 749,-402.5 1047,-402.5 1047,-372.5 749,-372.5"/>
<text text-anchor="start" x="756" y="-383.9" font-family="Arial" font-size="14.00" fill="#000000">product_inventory_description    </text>
<text text-anchor="start" x="976.9172" y="-383.9" font-family="Arial" font-size="14.00" fill="#666666">[text]</text>
<polygon fill="none" stroke="#000000" points="749,-342.5 749,-372.5 1047,-372.5 1047,-342.5 749,-342.5"/>
<text text-anchor="start" x="756" y="-353.9" font-family="Arial" font-size="14.00" fill="#000000">product_inventory_quantity    </text>
<text text-anchor="start" x="958.258" y="-353.9" font-family="Arial" font-size="14.00" fill="#666666">[int(11)]</text>
<polygon fill="none" stroke="#000000" points="749,-312.5 749,-342.5 1047,-342.5 1047,-312.5 749,-312.5"/>
<text text-anchor="start" x="756" y="-323.9" font-family="Arial" font-size="14.00" fill="#000000">brand_id    </text>
<text text-anchor="start" x="844.6676" y="-323.9" font-family="Arial" font-size="14.00" fill="#666666">[bigint(20) unsigned]</text>
<polygon fill="none" stroke="#000000" points="749,-282.5 749,-312.5 1047,-312.5 1047,-282.5 749,-282.5"/>
<text text-anchor="start" x="756" y="-293.9" font-family="Arial" font-size="14.00" fill="#000000">category_id    </text>
<text text-anchor="start" x="862.5582" y="-293.9" font-family="Arial" font-size="14.00" fill="#666666">[bigint(20) unsigned]</text>
<polygon fill="none" stroke="#000000" points="749,-252.5 749,-282.5 1047,-282.5 1047,-252.5 749,-252.5"/>
<text text-anchor="start" x="756" y="-263.9" font-family="Arial" font-size="14.00" fill="#000000">qty_on_loan    </text>
<text text-anchor="start" x="866.4628" y="-263.9" font-family="Arial" font-size="14.00" fill="#666666">[int(11)]</text>
<polygon fill="none" stroke="#000000" points="749,-222.5 749,-252.5 1047,-252.5 1047,-222.5 749,-222.5"/>
<text text-anchor="start" x="756" y="-233.9" font-family="Arial" font-size="14.00" fill="#000000">created_at    </text>
<text text-anchor="start" x="856.3422" y="-233.9" font-family="Arial" font-size="14.00" fill="#666666">[timestamp]</text>
<polygon fill="none" stroke="#000000" points="749,-192.5 749,-222.5 1047,-222.5 1047,-192.5 749,-192.5"/>
<text text-anchor="start" x="756" y="-203.9" font-family="Arial" font-size="14.00" fill="#000000">updated_at    </text>
<text text-anchor="start" x="860.2468" y="-203.9" font-family="Arial" font-size="14.00" fill="#666666">[timestamp]</text>
</g>
<!-- loans&#45;&gt;product_inventories -->
<g id="edge5" class="edge">
<title>loans:inventory_id&#45;&gt;product_inventories:id</title>
<path fill="none" stroke="#000000" d="M642.1377,-876.9936C716.0877,-869.1647 674.3137,-772.064 697,-691 711.9119,-637.7161 693.6688,-447.5 749,-447.5"/>
<polygon fill="#000000" stroke="#000000" points="641.9875,-877.001 631.7755,-873.0056 636.9938,-877.2505 632,-877.5 632,-877.5 632,-877.5 636.9938,-877.2505 632.2245,-881.9944 641.9875,-877.001 641.9875,-877.001"/>
<text text-anchor="start" x="638.9885" y="-887.5" font-family="Arial" font-size="10.00" fill="#000000">FOREIGN KEY (inventory_id) REFERENCES product_inventories (id)</text>
</g>
<!-- loan_metas -->
<g id="node2" class="node">
<title>loan_metas</title>
<polygon fill="#efefef" stroke="transparent" points="229,-1502.5 229,-1537.5 463,-1537.5 463,-1502.5 229,-1502.5"/>
<polygon fill="none" stroke="#000000" points="229,-1502.5 229,-1537.5 463,-1537.5 463,-1502.5 229,-1502.5"/>
<text text-anchor="start" x="235.7031" y="-1515.3" font-family="Arial Bold" font-size="18.00" fill="#000000">loan_metas</text>
<text text-anchor="start" x="328.7289" y="-1515.3" font-family="Arial" font-size="14.00" fill="#000000">    </text>
<text text-anchor="start" x="362.9337" y="-1515.3" font-family="Arial" font-size="14.00" fill="#666666">[BASE TABLE]</text>
<polygon fill="none" stroke="#000000" points="229,-1472.5 229,-1502.5 463,-1502.5 463,-1472.5 229,-1472.5"/>
<text text-anchor="start" x="236" y="-1483.9" font-family="Arial" font-size="14.00" fill="#000000">id    </text>
<text text-anchor="start" x="281.094" y="-1483.9" font-family="Arial" font-size="14.00" fill="#666666">[bigint(20) unsigned]</text>
<polygon fill="none" stroke="#000000" points="229,-1442.5 229,-1472.5 463,-1472.5 463,-1442.5 229,-1442.5"/>
<text text-anchor="start" x="236" y="-1453.9" font-family="Arial" font-size="14.00" fill="#000000">loan_id    </text>
<text text-anchor="start" x="315.331" y="-1453.9" font-family="Arial" font-size="14.00" fill="#666666">[bigint(20) unsigned]</text>
<polygon fill="none" stroke="#000000" points="229,-1412.5 229,-1442.5 463,-1442.5 463,-1412.5 229,-1412.5"/>
<text text-anchor="start" x="236" y="-1423.9" font-family="Arial" font-size="14.00" fill="#000000">loan_meta_key    </text>
<text text-anchor="start" x="365.1234" y="-1423.9" font-family="Arial" font-size="14.00" fill="#666666">[varchar(255)]</text>
<polygon fill="none" stroke="#000000" points="229,-1382.5 229,-1412.5 463,-1412.5 463,-1382.5 229,-1382.5"/>
<text text-anchor="start" x="236" y="-1393.9" font-family="Arial" font-size="14.00" fill="#000000">loan_meta_value    </text>
<text text-anchor="start" x="376.7952" y="-1393.9" font-family="Arial" font-size="14.00" fill="#666666">[text]</text>
<polygon fill="none" stroke="#000000" points="229,-1352.5 229,-1382.5 463,-1382.5 463,-1352.5 229,-1352.5"/>
<text text-anchor="start" x="236" y="-1363.9" font-family="Arial" font-size="14.00" fill="#000000">created_at    </text>
<text text-anchor="start" x="336.3422" y="-1363.9" font-family="Arial" font-size="14.00" fill="#666666">[timestamp]</text>
<polygon fill="none" stroke="#000000" points="229,-1322.5 229,-1352.5 463,-1352.5 463,-1322.5 229,-1322.5"/>
<text text-anchor="start" x="236" y="-1333.9" font-family="Arial" font-size="14.00" fill="#000000">updated_at    </text>
<text text-anchor="start" x="340.2468" y="-1333.9" font-family="Arial" font-size="14.00" fill="#666666">[timestamp]</text>
</g>
<!-- loan_metas&#45;&gt;loans -->
<g id="edge1" class="edge">
<title>loan_metas:loan_id&#45;&gt;loans:id</title>
<path fill="none" stroke="#000000" d="M473.2382,-1456.8356C536.9436,-1447.9206 487.29,-1351.1595 463,-1280 451.0246,-1244.9171 423.9754,-1249.0829 412,-1214 398.145,-1173.4106 369.1111,-1117.5 412,-1117.5"/>
<polygon fill="#000000" stroke="#000000" points="472.979,-1456.8523 462.7085,-1453.0094 467.9895,-1457.1762 463,-1457.5 463,-1457.5 463,-1457.5 467.9895,-1457.1762 463.2915,-1461.9906 472.979,-1456.8523 472.979,-1456.8523"/>
<text text-anchor="start" x="470.496" y="-1467.5" font-family="Arial" font-size="10.00" fill="#000000">FOREIGN KEY (loan_id) REFERENCES loans (id)</text>
</g>
<!-- waitlists -->
<g id="node3" class="node">
<title>waitlists</title>
<polygon fill="#efefef" stroke="transparent" points="568,-1532.5 568,-1567.5 827,-1567.5 827,-1532.5 568,-1532.5"/>
<polygon fill="none" stroke="#000000" points="568,-1532.5 568,-1567.5 827,-1567.5 827,-1532.5 568,-1532.5"/>
<text text-anchor="start" x="602.2223" y="-1545.3" font-family="Arial Bold" font-size="18.00" fill="#000000">waitlists</text>
<text text-anchor="start" x="665.2097" y="-1545.3" font-family="Arial" font-size="14.00" fill="#000000">    </text>
<text text-anchor="start" x="699.4145" y="-1545.3" font-family="Arial" font-size="14.00" fill="#666666">[BASE TABLE]</text>
<polygon fill="none" stroke="#000000" points="568,-1502.5 568,-1532.5 827,-1532.5 827,-1502.5 568,-1502.5"/>
<text text-anchor="start" x="575" y="-1513.9" font-family="Arial" font-size="14.00" fill="#000000">id    </text>
<text text-anchor="start" x="620.094" y="-1513.9" font-family="Arial" font-size="14.00" fill="#666666">[bigint(20) unsigned]</text>
<polygon fill="none" stroke="#000000" points="568,-1472.5 568,-1502.5 827,-1502.5 827,-1472.5 568,-1472.5"/>
<text text-anchor="start" x="575" y="-1483.9" font-family="Arial" font-size="14.00" fill="#000000">loan_id    </text>
<text text-anchor="start" x="654.331" y="-1483.9" font-family="Arial" font-size="14.00" fill="#666666">[bigint(20) unsigned]</text>
<polygon fill="none" stroke="#000000" points="568,-1442.5 568,-1472.5 827,-1472.5 827,-1442.5 568,-1442.5"/>
<text text-anchor="start" x="575" y="-1453.9" font-family="Arial" font-size="14.00" fill="#000000">user_id    </text>
<text text-anchor="start" x="655.1024" y="-1453.9" font-family="Arial" font-size="14.00" fill="#666666">[bigint(20) unsigned]</text>
<polygon fill="none" stroke="#000000" points="568,-1412.5 568,-1442.5 827,-1442.5 827,-1412.5 568,-1412.5"/>
<text text-anchor="start" x="574.9846" y="-1423.9" font-family="Arial" font-size="14.00" fill="#000000">current_loan_length    </text>
<text text-anchor="start" x="732.8962" y="-1423.9" font-family="Arial" font-size="14.00" fill="#666666">[varchar(255)]</text>
<polygon fill="none" stroke="#000000" points="568,-1382.5 568,-1412.5 827,-1412.5 827,-1382.5 568,-1382.5"/>
<text text-anchor="start" x="575" y="-1393.9" font-family="Arial" font-size="14.00" fill="#000000">date_requested    </text>
<text text-anchor="start" x="706.4726" y="-1393.9" font-family="Arial" font-size="14.00" fill="#666666">[datetime]</text>
<polygon fill="none" stroke="#000000" points="568,-1352.5 568,-1382.5 827,-1382.5 827,-1352.5 568,-1352.5"/>
<text text-anchor="start" x="575" y="-1363.9" font-family="Arial" font-size="14.00" fill="#000000">time_requested    </text>
<text text-anchor="start" x="705.6746" y="-1363.9" font-family="Arial" font-size="14.00" fill="#666666">[datetime]</text>
<polygon fill="none" stroke="#000000" points="568,-1322.5 568,-1352.5 827,-1352.5 827,-1322.5 568,-1322.5"/>
<text text-anchor="start" x="575" y="-1333.9" font-family="Arial" font-size="14.00" fill="#000000">created_at    </text>
<text text-anchor="start" x="675.3422" y="-1333.9" font-family="Arial" font-size="14.00" fill="#666666">[timestamp]</text>
<polygon fill="none" stroke="#000000" points="568,-1292.5 568,-1322.5 827,-1322.5 827,-1292.5 568,-1292.5"/>
<text text-anchor="start" x="575" y="-1303.9" font-family="Arial" font-size="14.00" fill="#000000">updated_at    </text>
<text text-anchor="start" x="679.2468" y="-1303.9" font-family="Arial" font-size="14.00" fill="#666666">[timestamp]</text>
</g>
<!-- waitlists&#45;&gt;loans -->
<g id="edge2" class="edge">
<title>waitlists:loan_id&#45;&gt;loans:id</title>
<path fill="none" stroke="#000000" d="M558.0103,-1484.7708C518.8997,-1461.2319 543.2288,-1292.355 568,-1250 584.476,-1221.8286 615.524,-1242.1714 632,-1214 653.6523,-1176.9779 674.8889,-1117.5 632,-1117.5"/>
<polygon fill="#000000" stroke="#000000" points="558.3535,-1484.8645 566.814,-1491.8409 563.1768,-1486.1823 568,-1487.5 568,-1487.5 568,-1487.5 563.1768,-1486.1823 569.186,-1483.1591 558.3535,-1484.8645 558.3535,-1484.8645"/>
<text text-anchor="start" x="575.496" y="-1497.5" font-family="Arial" font-size="10.00" fill="#000000">FOREIGN KEY (loan_id) REFERENCES loans (id)</text>
</g>
</g>
</svg>
