<?xml version="1.0" encoding="UTF-8" standalone="no"?>
<!DOCTYPE svg PUBLIC "-//W3C//DTD SVG 1.1//EN"
 "http://www.w3.org/Graphics/SVG/1.1/DTD/svg11.dtd">
<!-- Generated by graphviz version 2.40.1 (20161225.0304)
 -->
<!-- Title: locations Pages: 1 -->
<svg width="771pt" height="1012pt"
 viewBox="0.00 0.00 771.00 1012.00" xmlns="http://www.w3.org/2000/svg" xmlns:xlink="http://www.w3.org/1999/xlink">
<g id="graph0" class="graph" transform="scale(1 1) rotate(0) translate(4 1008)">
<title>locations</title>
<polygon fill="#ffffff" stroke="transparent" points="-4,4 -4,-1008 767,-1008 767,4 -4,4"/>
<!-- locations -->
<g id="node1" class="node">
<title>locations</title>
<polygon fill="#efefef" stroke="transparent" points="250,-922.5 250,-957.5 462,-957.5 462,-922.5 250,-922.5"/>
<polygon fill="none" stroke="#000000" points="250,-922.5 250,-957.5 462,-957.5 462,-922.5 250,-922.5"/>
<text text-anchor="start" x="256.7083" y="-935.3" font-family="Arial Bold" font-size="18.00" fill="#000000">locations</text>
<text text-anchor="start" x="327.7237" y="-935.3" font-family="Arial" font-size="14.00" fill="#000000">    </text>
<text text-anchor="start" x="361.9285" y="-935.3" font-family="Arial" font-size="14.00" fill="#666666">[BASE TABLE]</text>
<polygon fill="none" stroke="#000000" points="250,-892.5 250,-922.5 462,-922.5 462,-892.5 250,-892.5"/>
<text text-anchor="start" x="257" y="-903.9" font-family="Arial" font-size="14.00" fill="#000000">id </text>
<text text-anchor="start" x="271.7798" y="-903.9" font-family="Arial" font-size="14.00" fill="#666666">[bigint(20) unsigned]</text>
<polygon fill="none" stroke="#000000" points="250,-862.5 250,-892.5 462,-892.5 462,-862.5 250,-862.5"/>
<text text-anchor="start" x="257" y="-873.9" font-family="Arial" font-size="14.00" fill="#000000">event_id </text>
<text text-anchor="start" x="313.8008" y="-873.9" font-family="Arial" font-size="14.00" fill="#666666">[bigint(20) unsigned]</text>
<polygon fill="none" stroke="#000000" points="250,-832.5 250,-862.5 462,-862.5 462,-832.5 250,-832.5"/>
<text text-anchor="start" x="257" y="-843.9" font-family="Arial" font-size="14.00" fill="#000000">location_name </text>
<text text-anchor="start" x="351.9158" y="-843.9" font-family="Arial" font-size="14.00" fill="#666666">[varchar(255)]</text>
<polygon fill="none" stroke="#000000" points="250,-802.5 250,-832.5 462,-832.5 462,-802.5 250,-802.5"/>
<text text-anchor="start" x="257" y="-813.9" font-family="Arial" font-size="14.00" fill="#000000">location_value </text>
<text text-anchor="start" x="350.3618" y="-813.9" font-family="Arial" font-size="14.00" fill="#666666">[text]</text>
<polygon fill="none" stroke="#000000" points="250,-772.5 250,-802.5 462,-802.5 462,-772.5 250,-772.5"/>
<text text-anchor="start" x="257" y="-783.9" font-family="Arial" font-size="14.00" fill="#000000">created_at </text>
<text text-anchor="start" x="327.028" y="-783.9" font-family="Arial" font-size="14.00" fill="#666666">[timestamp]</text>
<polygon fill="none" stroke="#000000" points="250,-742.5 250,-772.5 462,-772.5 462,-742.5 250,-742.5"/>
<text text-anchor="start" x="257" y="-753.9" font-family="Arial" font-size="14.00" fill="#000000">updated_at </text>
<text text-anchor="start" x="330.9326" y="-753.9" font-family="Arial" font-size="14.00" fill="#666666">[timestamp]</text>
<polygon fill="none" stroke="#000000" stroke-width="3" points="248.5,-741.5 248.5,-959.5 463.5,-959.5 463.5,-741.5 248.5,-741.5"/>
</g>
<!-- events -->
<g id="node2" class="node">
<title>events</title>
<polygon fill="#efefef" stroke="transparent" points="218,-582.5 218,-617.5 493,-617.5 493,-582.5 218,-582.5"/>
<polygon fill="none" stroke="#000000" points="218,-582.5 218,-617.5 493,-617.5 493,-582.5 218,-582.5"/>
<text text-anchor="start" x="265.2056" y="-595.3" font-family="Arial Bold" font-size="18.00" fill="#000000">events</text>
<text text-anchor="start" x="318.2264" y="-595.3" font-family="Arial" font-size="14.00" fill="#000000">    </text>
<text text-anchor="start" x="352.4312" y="-595.3" font-family="Arial" font-size="14.00" fill="#666666">[BASE TABLE]</text>
<polygon fill="none" stroke="#000000" points="218,-552.5 218,-582.5 493,-582.5 493,-552.5 218,-552.5"/>
<text text-anchor="start" x="225" y="-563.9" font-family="Arial" font-size="14.00" fill="#000000">id    </text>
<text text-anchor="start" x="270.094" y="-563.9" font-family="Arial" font-size="14.00" fill="#666666">[bigint(20) unsigned]</text>
<polygon fill="none" stroke="#000000" points="218,-522.5 218,-552.5 493,-552.5 493,-522.5 218,-522.5"/>
<text text-anchor="start" x="225" y="-533.9" font-family="Arial" font-size="14.00" fill="#000000">author_id    </text>
<text text-anchor="start" x="317.5582" y="-533.9" font-family="Arial" font-size="14.00" fill="#666666">[bigint(20) unsigned]</text>
<polygon fill="none" stroke="#000000" points="218,-492.5 218,-522.5 493,-522.5 493,-492.5 218,-492.5"/>
<text text-anchor="start" x="225" y="-503.9" font-family="Arial" font-size="14.00" fill="#000000">event_title    </text>
<text text-anchor="start" x="323.0028" y="-503.9" font-family="Arial" font-size="14.00" fill="#666666">[varchar(255)]</text>
<polygon fill="none" stroke="#000000" points="218,-462.5 218,-492.5 493,-492.5 493,-462.5 218,-462.5"/>
<text text-anchor="start" x="225" y="-473.9" font-family="Arial" font-size="14.00" fill="#000000">event_content    </text>
<text text-anchor="start" x="347.1374" y="-473.9" font-family="Arial" font-size="14.00" fill="#666666">[longtext]</text>
<polygon fill="none" stroke="#000000" points="218,-432.5 218,-462.5 493,-462.5 493,-432.5 218,-432.5"/>
<text text-anchor="start" x="225" y="-443.9" font-family="Arial" font-size="14.00" fill="#000000">event_excerpt    </text>
<text text-anchor="start" x="347.1248" y="-443.9" font-family="Arial" font-size="14.00" fill="#666666">[text]</text>
<polygon fill="none" stroke="#000000" points="218,-402.5 218,-432.5 493,-432.5 493,-402.5 218,-402.5"/>
<text text-anchor="start" x="225" y="-413.9" font-family="Arial" font-size="14.00" fill="#000000">event_location    </text>
<text text-anchor="start" x="349.46" y="-413.9" font-family="Arial" font-size="14.00" fill="#666666">[longtext]</text>
<polygon fill="none" stroke="#000000" points="218,-372.5 218,-402.5 493,-402.5 493,-372.5 218,-372.5"/>
<text text-anchor="start" x="225" y="-383.9" font-family="Arial" font-size="14.00" fill="#000000">cover_image    </text>
<text text-anchor="start" x="339.3282" y="-383.9" font-family="Arial" font-size="14.00" fill="#666666">[varchar(255)]</text>
<polygon fill="none" stroke="#000000" points="218,-342.5 218,-372.5 493,-372.5 493,-342.5 218,-342.5"/>
<text text-anchor="start" x="225" y="-353.9" font-family="Arial" font-size="14.00" fill="#000000">start_date    </text>
<text text-anchor="start" x="321.4502" y="-353.9" font-family="Arial" font-size="14.00" fill="#666666">[datetime]</text>
<polygon fill="none" stroke="#000000" points="218,-312.5 218,-342.5 493,-342.5 493,-312.5 218,-312.5"/>
<text text-anchor="start" x="225" y="-323.9" font-family="Arial" font-size="14.00" fill="#000000">end_date    </text>
<text text-anchor="start" x="317.5736" y="-323.9" font-family="Arial" font-size="14.00" fill="#666666">[datetime]</text>
<polygon fill="none" stroke="#000000" points="218,-282.5 218,-312.5 493,-312.5 493,-282.5 218,-282.5"/>
<text text-anchor="start" x="225" y="-293.9" font-family="Arial" font-size="14.00" fill="#000000">event_status    </text>
<text text-anchor="start" x="338.5722" y="-293.9" font-family="Arial" font-size="14.00" fill="#666666">[varchar(255)]</text>
<polygon fill="none" stroke="#000000" points="218,-252.5 218,-282.5 493,-282.5 493,-252.5 218,-252.5"/>
<text text-anchor="start" x="225" y="-263.9" font-family="Arial" font-size="14.00" fill="#000000">eventtype_id    </text>
<text text-anchor="start" x="338.5708" y="-263.9" font-family="Arial" font-size="14.00" fill="#666666">[bigint(20) unsigned]</text>
<polygon fill="none" stroke="#000000" points="218,-222.5 218,-252.5 493,-252.5 493,-222.5 218,-222.5"/>
<text text-anchor="start" x="224.8114" y="-233.9" font-family="Arial" font-size="14.00" fill="#000000">event_format_id    </text>
<text text-anchor="start" x="359.3766" y="-233.9" font-family="Arial" font-size="14.00" fill="#666666">[bigint(20) unsigned]</text>
<polygon fill="none" stroke="#000000" points="218,-192.5 218,-222.5 493,-222.5 493,-192.5 218,-192.5"/>
<text text-anchor="start" x="225" y="-203.9" font-family="Arial" font-size="14.00" fill="#000000">attendees_id    </text>
<text text-anchor="start" x="339.3534" y="-203.9" font-family="Arial" font-size="14.00" fill="#666666">[bigint(20) unsigned]</text>
<polygon fill="none" stroke="#000000" points="218,-162.5 218,-192.5 493,-192.5 493,-162.5 218,-162.5"/>
<text text-anchor="start" x="225" y="-173.9" font-family="Arial" font-size="14.00" fill="#000000">location_id    </text>
<text text-anchor="start" x="326.1108" y="-173.9" font-family="Arial" font-size="14.00" fill="#666666">[bigint(20) unsigned]</text>
<polygon fill="none" stroke="#000000" points="218,-132.5 218,-162.5 493,-162.5 493,-132.5 218,-132.5"/>
<text text-anchor="start" x="225" y="-143.9" font-family="Arial" font-size="14.00" fill="#000000">capacity_id    </text>
<text text-anchor="start" x="329.2216" y="-143.9" font-family="Arial" font-size="14.00" fill="#666666">[bigint(20) unsigned]</text>
<polygon fill="none" stroke="#000000" points="218,-102.5 218,-132.5 493,-132.5 493,-102.5 218,-102.5"/>
<text text-anchor="start" x="225" y="-113.9" font-family="Arial" font-size="14.00" fill="#000000">extra_content    </text>
<text text-anchor="start" x="344.0154" y="-113.9" font-family="Arial" font-size="14.00" fill="#666666">[json]</text>
<polygon fill="none" stroke="#000000" points="218,-72.5 218,-102.5 493,-102.5 493,-72.5 218,-72.5"/>
<text text-anchor="start" x="225" y="-83.9" font-family="Arial" font-size="14.00" fill="#000000">created_at    </text>
<text text-anchor="start" x="325.3422" y="-83.9" font-family="Arial" font-size="14.00" fill="#666666">[timestamp]</text>
<polygon fill="none" stroke="#000000" points="218,-42.5 218,-72.5 493,-72.5 493,-42.5 218,-42.5"/>
<text text-anchor="start" x="225" y="-53.9" font-family="Arial" font-size="14.00" fill="#000000">updated_at    </text>
<text text-anchor="start" x="329.2468" y="-53.9" font-family="Arial" font-size="14.00" fill="#666666">[timestamp]</text>
</g>
<!-- locations&#45;&gt;events -->
<g id="edge2" class="edge">
<title>locations:event_id&#45;&gt;events:id</title>
<path fill="none" stroke="#000000" d="M239.8353,-876.7912C172.3266,-866.8594 199.9496,-755.0116 250,-697 321.3202,-614.3354 421.6798,-743.6646 493,-661 520.1459,-629.5363 534.5556,-567.5 493,-567.5"/>
<polygon fill="#000000" stroke="#000000" points="240.0242,-876.8043 249.6869,-881.9891 245.0121,-877.1521 250,-877.5 250,-877.5 250,-877.5 245.0121,-877.1521 250.3131,-873.0109 240.0242,-876.8043 240.0242,-876.8043"/>
<text text-anchor="start" x="6.936" y="-887.5" font-family="Arial" font-size="10.00" fill="#000000">FOREIGN KEY (event_id) REFERENCES events (id)</text>
</g>
<!-- events&#45;&gt;locations -->
<g id="edge1" class="edge">
<title>events:location_id&#45;&gt;locations:id</title>
<path fill="none" stroke="#000000" d="M501.9748,-182.1825C544.4061,-229.649 525.9688,-622.7871 493,-661 421.6798,-743.6646 321.3202,-614.3354 250,-697 188.8855,-767.8355 156.4444,-907.5 250,-907.5"/>
<polygon fill="#000000" stroke="#000000" points="501.8659,-182.1257 495.0816,-173.5104 497.4329,-179.8129 493,-177.5 493,-177.5 493,-177.5 497.4329,-179.8129 490.9184,-181.4896 501.8659,-182.1257 501.8659,-182.1257"/>
<text text-anchor="start" x="499.939" y="-187.5" font-family="Arial" font-size="10.00" fill="#000000">FOREIGN KEY (location_id) REFERENCES locations (id)</text>
</g>
</g>
</svg>
