<?xml version="1.0" encoding="UTF-8" standalone="no"?>
<!DOCTYPE svg PUBLIC "-//W3C//DTD SVG 1.1//EN"
 "http://www.w3.org/Graphics/SVG/1.1/DTD/svg11.dtd">
<!-- Generated by graphviz version 2.40.1 (20161225.0304)
 -->
<!-- Title: partners Pages: 1 -->
<svg width="581pt" height="1529pt"
 viewBox="0.00 0.00 581.00 1529.00" xmlns="http://www.w3.org/2000/svg" xmlns:xlink="http://www.w3.org/1999/xlink">
<g id="graph0" class="graph" transform="scale(1 1) rotate(0) translate(4 1525)">
<title>partners</title>
<polygon fill="#ffffff" stroke="transparent" points="-4,4 -4,-1525 577,-1525 577,4 -4,4"/>
<!-- partners -->
<g id="node1" class="node">
<title>partners</title>
<polygon fill="#efefef" stroke="transparent" points="293,-952.5 293,-987.5 500,-987.5 500,-952.5 293,-952.5"/>
<polygon fill="none" stroke="#000000" points="293,-952.5 293,-987.5 500,-987.5 500,-952.5 293,-952.5"/>
<text text-anchor="start" x="299.7103" y="-965.3" font-family="Arial Bold" font-size="18.00" fill="#000000">partners</text>
<text text-anchor="start" x="365.7217" y="-965.3" font-family="Arial" font-size="14.00" fill="#000000">    </text>
<text text-anchor="start" x="399.9265" y="-965.3" font-family="Arial" font-size="14.00" fill="#666666">[BASE TABLE]</text>
<polygon fill="none" stroke="#000000" points="293,-922.5 293,-952.5 500,-952.5 500,-922.5 293,-922.5"/>
<text text-anchor="start" x="300" y="-933.9" font-family="Arial" font-size="14.00" fill="#000000">id </text>
<text text-anchor="start" x="314.7798" y="-933.9" font-family="Arial" font-size="14.00" fill="#666666">[bigint(20) unsigned]</text>
<polygon fill="none" stroke="#000000" points="293,-892.5 293,-922.5 500,-922.5 500,-892.5 293,-892.5"/>
<text text-anchor="start" x="300" y="-903.9" font-family="Arial" font-size="14.00" fill="#000000">user_id </text>
<text text-anchor="start" x="349.7882" y="-903.9" font-family="Arial" font-size="14.00" fill="#666666">[bigint(20) unsigned]</text>
<polygon fill="none" stroke="#000000" points="293,-862.5 293,-892.5 500,-892.5 500,-862.5 293,-862.5"/>
<text text-anchor="start" x="300" y="-873.9" font-family="Arial" font-size="14.00" fill="#000000">name </text>
<text text-anchor="start" x="338.899" y="-873.9" font-family="Arial" font-size="14.00" fill="#666666">[varchar(255)]</text>
<polygon fill="none" stroke="#000000" points="293,-832.5 293,-862.5 500,-862.5 500,-832.5 293,-832.5"/>
<text text-anchor="start" x="300" y="-843.9" font-family="Arial" font-size="14.00" fill="#000000">email </text>
<text text-anchor="start" x="337.3296" y="-843.9" font-family="Arial" font-size="14.00" fill="#666666">[varchar(255)]</text>
<polygon fill="none" stroke="#000000" points="293,-802.5 293,-832.5 500,-832.5 500,-802.5 293,-802.5"/>
<text text-anchor="start" x="300" y="-813.9" font-family="Arial" font-size="14.00" fill="#000000">content </text>
<text text-anchor="start" x="349.8022" y="-813.9" font-family="Arial" font-size="14.00" fill="#666666">[json]</text>
<polygon fill="none" stroke="#000000" points="293,-772.5 293,-802.5 500,-802.5 500,-772.5 293,-772.5"/>
<text text-anchor="start" x="300" y="-783.9" font-family="Arial" font-size="14.00" fill="#000000">logo </text>
<text text-anchor="start" x="330.345" y="-783.9" font-family="Arial" font-size="14.00" fill="#666666">[varchar(255)]</text>
<polygon fill="none" stroke="#000000" points="293,-742.5 293,-772.5 500,-772.5 500,-742.5 293,-742.5"/>
<text text-anchor="start" x="300" y="-753.9" font-family="Arial" font-size="14.00" fill="#000000">cover_image </text>
<text text-anchor="start" x="384.014" y="-753.9" font-family="Arial" font-size="14.00" fill="#666666">[varchar(255)]</text>
<polygon fill="none" stroke="#000000" points="293,-712.5 293,-742.5 500,-742.5 500,-712.5 293,-712.5"/>
<text text-anchor="start" x="300" y="-723.9" font-family="Arial" font-size="14.00" fill="#000000">motto </text>
<text text-anchor="start" x="338.8976" y="-723.9" font-family="Arial" font-size="14.00" fill="#666666">[longtext]</text>
<polygon fill="none" stroke="#000000" points="293,-682.5 293,-712.5 500,-712.5 500,-682.5 293,-682.5"/>
<text text-anchor="start" x="300" y="-693.9" font-family="Arial" font-size="14.00" fill="#000000">introduction </text>
<text text-anchor="start" x="376.2412" y="-693.9" font-family="Arial" font-size="14.00" fill="#666666">[longtext]</text>
<polygon fill="none" stroke="#000000" points="293,-652.5 293,-682.5 500,-682.5 500,-652.5 293,-652.5"/>
<text text-anchor="start" x="300" y="-663.9" font-family="Arial" font-size="14.00" fill="#000000">created_at </text>
<text text-anchor="start" x="370.028" y="-663.9" font-family="Arial" font-size="14.00" fill="#666666">[timestamp]</text>
<polygon fill="none" stroke="#000000" points="293,-622.5 293,-652.5 500,-652.5 500,-622.5 293,-622.5"/>
<text text-anchor="start" x="300" y="-633.9" font-family="Arial" font-size="14.00" fill="#000000">updated_at </text>
<text text-anchor="start" x="373.9326" y="-633.9" font-family="Arial" font-size="14.00" fill="#666666">[timestamp]</text>
<polygon fill="none" stroke="#000000" stroke-width="3" points="291,-621.5 291,-989.5 501,-989.5 501,-621.5 291,-621.5"/>
</g>
<!-- users -->
<g id="node3" class="node">
<title>users</title>
<polygon fill="#efefef" stroke="transparent" points="273,-462.5 273,-497.5 520,-497.5 520,-462.5 273,-462.5"/>
<polygon fill="none" stroke="#000000" points="273,-462.5 273,-497.5 520,-497.5 520,-462.5 273,-462.5"/>
<text text-anchor="start" x="310.7137" y="-475.3" font-family="Arial Bold" font-size="18.00" fill="#000000">users</text>
<text text-anchor="start" x="354.7183" y="-475.3" font-family="Arial" font-size="14.00" fill="#000000">    </text>
<text text-anchor="start" x="388.9231" y="-475.3" font-family="Arial" font-size="14.00" fill="#666666">[BASE TABLE]</text>
<polygon fill="none" stroke="#000000" points="273,-432.5 273,-462.5 520,-462.5 520,-432.5 273,-432.5"/>
<text text-anchor="start" x="280" y="-443.9" font-family="Arial" font-size="14.00" fill="#000000">id    </text>
<text text-anchor="start" x="325.094" y="-443.9" font-family="Arial" font-size="14.00" fill="#666666">[bigint(20) unsigned]</text>
<polygon fill="none" stroke="#000000" points="273,-402.5 273,-432.5 520,-432.5 520,-402.5 273,-402.5"/>
<text text-anchor="start" x="280" y="-413.9" font-family="Arial" font-size="14.00" fill="#000000">full_name    </text>
<text text-anchor="start" x="374.8822" y="-413.9" font-family="Arial" font-size="14.00" fill="#666666">[varchar(255)]</text>
<polygon fill="none" stroke="#000000" points="273,-372.5 273,-402.5 520,-402.5 520,-372.5 273,-372.5"/>
<text text-anchor="start" x="280" y="-383.9" font-family="Arial" font-size="14.00" fill="#000000">display_name    </text>
<text text-anchor="start" x="400.5568" y="-383.9" font-family="Arial" font-size="14.00" fill="#666666">[varchar(255)]</text>
<polygon fill="none" stroke="#000000" points="273,-342.5 273,-372.5 520,-372.5 520,-342.5 273,-342.5"/>
<text text-anchor="start" x="280" y="-353.9" font-family="Arial" font-size="14.00" fill="#000000">email    </text>
<text text-anchor="start" x="347.6438" y="-353.9" font-family="Arial" font-size="14.00" fill="#666666">[varchar(255)]</text>
<polygon fill="none" stroke="#000000" points="273,-312.5 273,-342.5 520,-342.5 520,-312.5 273,-312.5"/>
<text text-anchor="start" x="280" y="-323.9" font-family="Arial" font-size="14.00" fill="#000000">password    </text>
<text text-anchor="start" x="374.1024" y="-323.9" font-family="Arial" font-size="14.00" fill="#666666">[varchar(255)]</text>
<polygon fill="none" stroke="#000000" points="273,-282.5 273,-312.5 520,-312.5 520,-282.5 273,-282.5"/>
<text text-anchor="start" x="280" y="-293.9" font-family="Arial" font-size="14.00" fill="#000000">status    </text>
<text text-anchor="start" x="351.5512" y="-293.9" font-family="Arial" font-size="14.00" fill="#666666">[varchar(255)]</text>
<polygon fill="none" stroke="#000000" points="273,-252.5 273,-282.5 520,-282.5 520,-252.5 273,-252.5"/>
<text text-anchor="start" x="280" y="-263.9" font-family="Arial" font-size="14.00" fill="#000000">role_id    </text>
<text text-anchor="start" x="356.209" y="-263.9" font-family="Arial" font-size="14.00" fill="#666666">[bigint(20) unsigned]</text>
<polygon fill="none" stroke="#000000" points="273,-222.5 273,-252.5 520,-252.5 520,-222.5 273,-222.5"/>
<text text-anchor="start" x="280" y="-233.9" font-family="Arial" font-size="14.00" fill="#000000">site_id    </text>
<text text-anchor="start" x="354.6564" y="-233.9" font-family="Arial" font-size="14.00" fill="#666666">[bigint(20) unsigned]</text>
<polygon fill="none" stroke="#000000" points="273,-192.5 273,-222.5 520,-222.5 520,-192.5 273,-192.5"/>
<text text-anchor="start" x="279.8149" y="-203.9" font-family="Arial" font-size="14.00" fill="#000000">usertype_id    </text>
<text text-anchor="start" x="386.3731" y="-203.9" font-family="Arial" font-size="14.00" fill="#666666">[bigint(20) unsigned]</text>
<polygon fill="none" stroke="#000000" points="273,-162.5 273,-192.5 520,-192.5 520,-162.5 273,-162.5"/>
<text text-anchor="start" x="280" y="-173.9" font-family="Arial" font-size="14.00" fill="#000000">remember_token    </text>
<text text-anchor="start" x="419.9986" y="-173.9" font-family="Arial" font-size="14.00" fill="#666666">[varchar(100)]</text>
<polygon fill="none" stroke="#000000" points="273,-132.5 273,-162.5 520,-162.5 520,-132.5 273,-132.5"/>
<text text-anchor="start" x="280" y="-143.9" font-family="Arial" font-size="14.00" fill="#000000">token    </text>
<text text-anchor="start" x="348.4432" y="-143.9" font-family="Arial" font-size="14.00" fill="#666666">[longtext]</text>
<polygon fill="none" stroke="#000000" points="273,-102.5 273,-132.5 520,-132.5 520,-102.5 273,-102.5"/>
<text text-anchor="start" x="280" y="-113.9" font-family="Arial" font-size="14.00" fill="#000000">isFirstTimeVisit    </text>
<text text-anchor="start" x="409.0646" y="-113.9" font-family="Arial" font-size="14.00" fill="#666666">[tinyint(1)]</text>
<polygon fill="none" stroke="#000000" points="273,-72.5 273,-102.5 520,-102.5 520,-72.5 273,-72.5"/>
<text text-anchor="start" x="280" y="-83.9" font-family="Arial" font-size="14.00" fill="#000000">created_at    </text>
<text text-anchor="start" x="380.3422" y="-83.9" font-family="Arial" font-size="14.00" fill="#666666">[timestamp]</text>
<polygon fill="none" stroke="#000000" points="273,-42.5 273,-72.5 520,-72.5 520,-42.5 273,-42.5"/>
<text text-anchor="start" x="280" y="-53.9" font-family="Arial" font-size="14.00" fill="#000000">updated_at    </text>
<text text-anchor="start" x="384.2468" y="-53.9" font-family="Arial" font-size="14.00" fill="#666666">[timestamp]</text>
</g>
<!-- partners&#45;&gt;users -->
<g id="edge2" class="edge">
<title>partners:user_id&#45;&gt;users:id</title>
<path fill="none" stroke="#000000" d="M283.0818,-906.0123C189.4879,-877.4603 174.0785,-447.5 273,-447.5"/>
<polygon fill="#000000" stroke="#000000" points="283.1106,-906.0165 292.3324,-911.9502 288.0553,-906.7583 293,-907.5 293,-907.5 293,-907.5 288.0553,-906.7583 293.6676,-903.0498 283.1106,-906.0165 283.1106,-906.0165"/>
<text text-anchor="start" x="59.945" y="-917.5" font-family="Arial" font-size="10.00" fill="#000000">FOREIGN KEY (user_id) REFERENCES users (id)</text>
</g>
<!-- partner_profiles -->
<g id="node2" class="node">
<title>partner_profiles</title>
<polygon fill="#efefef" stroke="transparent" points="264,-1442.5 264,-1477.5 530,-1477.5 530,-1442.5 264,-1442.5"/>
<polygon fill="none" stroke="#000000" points="264,-1442.5 264,-1477.5 530,-1477.5 530,-1442.5 264,-1442.5"/>
<text text-anchor="start" x="270.7065" y="-1455.3" font-family="Arial Bold" font-size="18.00" fill="#000000">partner_profiles</text>
<text text-anchor="start" x="395.7255" y="-1455.3" font-family="Arial" font-size="14.00" fill="#000000">    </text>
<text text-anchor="start" x="429.9303" y="-1455.3" font-family="Arial" font-size="14.00" fill="#666666">[BASE TABLE]</text>
<polygon fill="none" stroke="#000000" points="264,-1412.5 264,-1442.5 530,-1442.5 530,-1412.5 264,-1412.5"/>
<text text-anchor="start" x="271" y="-1423.9" font-family="Arial" font-size="14.00" fill="#000000">id    </text>
<text text-anchor="start" x="316.094" y="-1423.9" font-family="Arial" font-size="14.00" fill="#666666">[bigint(20) unsigned]</text>
<polygon fill="none" stroke="#000000" points="264,-1382.5 264,-1412.5 530,-1412.5 530,-1382.5 264,-1382.5"/>
<text text-anchor="start" x="271" y="-1393.9" font-family="Arial" font-size="14.00" fill="#000000">partner_id    </text>
<text text-anchor="start" x="368.2188" y="-1393.9" font-family="Arial" font-size="14.00" fill="#666666">[bigint(20) unsigned]</text>
<polygon fill="none" stroke="#000000" points="264,-1352.5 264,-1382.5 530,-1382.5 530,-1352.5 264,-1352.5"/>
<text text-anchor="start" x="271" y="-1363.9" font-family="Arial" font-size="14.00" fill="#000000">user_id    </text>
<text text-anchor="start" x="351.1024" y="-1363.9" font-family="Arial" font-size="14.00" fill="#666666">[bigint(20) unsigned]</text>
<polygon fill="none" stroke="#000000" points="264,-1322.5 264,-1352.5 530,-1352.5 530,-1322.5 264,-1322.5"/>
<text text-anchor="start" x="271" y="-1333.9" font-family="Arial" font-size="14.00" fill="#000000">content    </text>
<text text-anchor="start" x="351.1164" y="-1333.9" font-family="Arial" font-size="14.00" fill="#666666">[text]</text>
<polygon fill="none" stroke="#000000" points="264,-1292.5 264,-1322.5 530,-1322.5 530,-1292.5 264,-1292.5"/>
<text text-anchor="start" x="271" y="-1303.9" font-family="Arial" font-size="14.00" fill="#000000">logo    </text>
<text text-anchor="start" x="331.6592" y="-1303.9" font-family="Arial" font-size="14.00" fill="#666666">[varchar(255)]</text>
<polygon fill="none" stroke="#000000" points="264,-1262.5 264,-1292.5 530,-1292.5 530,-1262.5 264,-1262.5"/>
<text text-anchor="start" x="271" y="-1273.9" font-family="Arial" font-size="14.00" fill="#000000">cover_image    </text>
<text text-anchor="start" x="385.3282" y="-1273.9" font-family="Arial" font-size="14.00" fill="#666666">[varchar(255)]</text>
<polygon fill="none" stroke="#000000" points="264,-1232.5 264,-1262.5 530,-1262.5 530,-1232.5 264,-1232.5"/>
<text text-anchor="start" x="271" y="-1243.9" font-family="Arial" font-size="14.00" fill="#000000">status    </text>
<text text-anchor="start" x="342.5512" y="-1243.9" font-family="Arial" font-size="14.00" fill="#666666">[varchar(255)]</text>
<polygon fill="none" stroke="#000000" points="264,-1202.5 264,-1232.5 530,-1232.5 530,-1202.5 264,-1202.5"/>
<text text-anchor="start" x="271" y="-1213.9" font-family="Arial" font-size="14.00" fill="#000000">created_at    </text>
<text text-anchor="start" x="371.3422" y="-1213.9" font-family="Arial" font-size="14.00" fill="#666666">[timestamp]</text>
<polygon fill="none" stroke="#000000" points="264,-1172.5 264,-1202.5 530,-1202.5 530,-1172.5 264,-1172.5"/>
<text text-anchor="start" x="271" y="-1183.9" font-family="Arial" font-size="14.00" fill="#000000">updated_at    </text>
<text text-anchor="start" x="375.2468" y="-1183.9" font-family="Arial" font-size="14.00" fill="#666666">[timestamp]</text>
<polygon fill="none" stroke="#000000" points="264,-1142.5 264,-1172.5 530,-1172.5 530,-1142.5 264,-1142.5"/>
<text text-anchor="start" x="271" y="-1153.9" font-family="Arial" font-size="14.00" fill="#000000">introduction    </text>
<text text-anchor="start" x="377.5554" y="-1153.9" font-family="Arial" font-size="14.00" fill="#666666">[text]</text>
<polygon fill="none" stroke="#000000" points="264,-1112.5 264,-1142.5 530,-1142.5 530,-1112.5 264,-1112.5"/>
<text text-anchor="start" x="271" y="-1123.9" font-family="Arial" font-size="14.00" fill="#000000">motto    </text>
<text text-anchor="start" x="340.2118" y="-1123.9" font-family="Arial" font-size="14.00" fill="#666666">[text]</text>
</g>
<!-- partner_profiles&#45;&gt;partners -->
<g id="edge1" class="edge">
<title>partner_profiles:partner_id&#45;&gt;partners:id</title>
<path fill="none" stroke="#000000" d="M254.0322,-1395.6094C193.7509,-1371.4263 218.8925,-1122.51 264,-1070 333.1377,-989.5161 430.8623,-1114.4839 500,-1034 527.947,-1001.4666 542.8889,-937.5 500,-937.5"/>
<polygon fill="#000000" stroke="#000000" points="254.1752,-1395.6364 263.1614,-1401.9212 259.0876,-1396.5682 264,-1397.5 264,-1397.5 264,-1397.5 259.0876,-1396.5682 264.8386,-1393.0788 254.1752,-1395.6364 254.1752,-1395.6364"/>
<text text-anchor="start" x="6.719" y="-1407.5" font-family="Arial" font-size="10.00" fill="#000000">FOREIGN KEY (partner_id) REFERENCES partners (id)</text>
</g>
</g>
</svg>
