<?xml version="1.0" encoding="UTF-8" standalone="no"?>
<!DOCTYPE svg PUBLIC "-//W3C//DTD SVG 1.1//EN"
 "http://www.w3.org/Graphics/SVG/1.1/DTD/svg11.dtd">
<!-- Generated by graphviz version 2.40.1 (20161225.0304)
 -->
<!-- Title: partner_profiles Pages: 1 -->
<svg width="778pt" height="1042pt"
 viewBox="0.00 0.00 778.00 1042.00" xmlns="http://www.w3.org/2000/svg" xmlns:xlink="http://www.w3.org/1999/xlink">
<g id="graph0" class="graph" transform="scale(1 1) rotate(0) translate(4 1038)">
<title>partner_profiles</title>
<polygon fill="#ffffff" stroke="transparent" points="-4,4 -4,-1038 774,-1038 774,4 -4,4"/>
<!-- partner_profiles -->
<g id="node1" class="node">
<title>partner_profiles</title>
<polygon fill="#efefef" stroke="transparent" points="264,-952.5 264,-987.5 530,-987.5 530,-952.5 264,-952.5"/>
<polygon fill="none" stroke="#000000" points="264,-952.5 264,-987.5 530,-987.5 530,-952.5 264,-952.5"/>
<text text-anchor="start" x="270.7065" y="-965.3" font-family="Arial Bold" font-size="18.00" fill="#000000">partner_profiles</text>
<text text-anchor="start" x="395.7255" y="-965.3" font-family="Arial" font-size="14.00" fill="#000000">    </text>
<text text-anchor="start" x="429.9303" y="-965.3" font-family="Arial" font-size="14.00" fill="#666666">[BASE TABLE]</text>
<polygon fill="none" stroke="#000000" points="264,-922.5 264,-952.5 530,-952.5 530,-922.5 264,-922.5"/>
<text text-anchor="start" x="271" y="-933.9" font-family="Arial" font-size="14.00" fill="#000000">id </text>
<text text-anchor="start" x="285.7798" y="-933.9" font-family="Arial" font-size="14.00" fill="#666666">[bigint(20) unsigned]</text>
<polygon fill="none" stroke="#000000" points="264,-892.5 264,-922.5 530,-922.5 530,-892.5 264,-892.5"/>
<text text-anchor="start" x="271" y="-903.9" font-family="Arial" font-size="14.00" fill="#000000">partner_id </text>
<text text-anchor="start" x="337.9046" y="-903.9" font-family="Arial" font-size="14.00" fill="#666666">[bigint(20) unsigned]</text>
<polygon fill="none" stroke="#000000" points="264,-862.5 264,-892.5 530,-892.5 530,-862.5 264,-862.5"/>
<text text-anchor="start" x="271" y="-873.9" font-family="Arial" font-size="14.00" fill="#000000">user_id </text>
<text text-anchor="start" x="320.7882" y="-873.9" font-family="Arial" font-size="14.00" fill="#666666">[bigint(20) unsigned]</text>
<polygon fill="none" stroke="#000000" points="264,-832.5 264,-862.5 530,-862.5 530,-832.5 264,-832.5"/>
<text text-anchor="start" x="271" y="-843.9" font-family="Arial" font-size="14.00" fill="#000000">content </text>
<text text-anchor="start" x="320.8022" y="-843.9" font-family="Arial" font-size="14.00" fill="#666666">[text]</text>
<polygon fill="none" stroke="#000000" points="264,-802.5 264,-832.5 530,-832.5 530,-802.5 264,-802.5"/>
<text text-anchor="start" x="271" y="-813.9" font-family="Arial" font-size="14.00" fill="#000000">logo </text>
<text text-anchor="start" x="301.345" y="-813.9" font-family="Arial" font-size="14.00" fill="#666666">[varchar(255)]</text>
<polygon fill="none" stroke="#000000" points="264,-772.5 264,-802.5 530,-802.5 530,-772.5 264,-772.5"/>
<text text-anchor="start" x="271" y="-783.9" font-family="Arial" font-size="14.00" fill="#000000">cover_image </text>
<text text-anchor="start" x="355.014" y="-783.9" font-family="Arial" font-size="14.00" fill="#666666">[varchar(255)]</text>
<polygon fill="none" stroke="#000000" points="264,-742.5 264,-772.5 530,-772.5 530,-742.5 264,-742.5"/>
<text text-anchor="start" x="271" y="-753.9" font-family="Arial" font-size="14.00" fill="#000000">status </text>
<text text-anchor="start" x="312.237" y="-753.9" font-family="Arial" font-size="14.00" fill="#666666">[varchar(255)]</text>
<polygon fill="none" stroke="#000000" points="264,-712.5 264,-742.5 530,-742.5 530,-712.5 264,-712.5"/>
<text text-anchor="start" x="271" y="-723.9" font-family="Arial" font-size="14.00" fill="#000000">created_at </text>
<text text-anchor="start" x="341.028" y="-723.9" font-family="Arial" font-size="14.00" fill="#666666">[timestamp]</text>
<polygon fill="none" stroke="#000000" points="264,-682.5 264,-712.5 530,-712.5 530,-682.5 264,-682.5"/>
<text text-anchor="start" x="271" y="-693.9" font-family="Arial" font-size="14.00" fill="#000000">updated_at </text>
<text text-anchor="start" x="344.9326" y="-693.9" font-family="Arial" font-size="14.00" fill="#666666">[timestamp]</text>
<polygon fill="none" stroke="#000000" points="264,-652.5 264,-682.5 530,-682.5 530,-652.5 264,-652.5"/>
<text text-anchor="start" x="271" y="-663.9" font-family="Arial" font-size="14.00" fill="#000000">introduction </text>
<text text-anchor="start" x="347.2412" y="-663.9" font-family="Arial" font-size="14.00" fill="#666666">[text]</text>
<polygon fill="none" stroke="#000000" points="264,-622.5 264,-652.5 530,-652.5 530,-622.5 264,-622.5"/>
<text text-anchor="start" x="271" y="-633.9" font-family="Arial" font-size="14.00" fill="#000000">motto </text>
<text text-anchor="start" x="309.8976" y="-633.9" font-family="Arial" font-size="14.00" fill="#666666">[text]</text>
<polygon fill="none" stroke="#000000" stroke-width="3" points="262.5,-621.5 262.5,-989.5 531.5,-989.5 531.5,-621.5 262.5,-621.5"/>
</g>
<!-- partners -->
<g id="node2" class="node">
<title>partners</title>
<polygon fill="#efefef" stroke="transparent" points="118,-417.5 118,-452.5 338,-452.5 338,-417.5 118,-417.5"/>
<polygon fill="none" stroke="#000000" points="118,-417.5 118,-452.5 338,-452.5 338,-417.5 118,-417.5"/>
<text text-anchor="start" x="131.2103" y="-430.3" font-family="Arial Bold" font-size="18.00" fill="#000000">partners</text>
<text text-anchor="start" x="197.2217" y="-430.3" font-family="Arial" font-size="14.00" fill="#000000">    </text>
<text text-anchor="start" x="231.4265" y="-430.3" font-family="Arial" font-size="14.00" fill="#666666">[BASE TABLE]</text>
<polygon fill="none" stroke="#000000" points="118,-387.5 118,-417.5 338,-417.5 338,-387.5 118,-387.5"/>
<text text-anchor="start" x="125" y="-398.9" font-family="Arial" font-size="14.00" fill="#000000">id    </text>
<text text-anchor="start" x="170.094" y="-398.9" font-family="Arial" font-size="14.00" fill="#666666">[bigint(20) unsigned]</text>
<polygon fill="none" stroke="#000000" points="118,-357.5 118,-387.5 338,-387.5 338,-357.5 118,-357.5"/>
<text text-anchor="start" x="124.5428" y="-368.9" font-family="Arial" font-size="14.00" fill="#000000">user_id    </text>
<text text-anchor="start" x="204.6452" y="-368.9" font-family="Arial" font-size="14.00" fill="#666666">[bigint(20) unsigned]</text>
<polygon fill="none" stroke="#000000" points="118,-327.5 118,-357.5 338,-357.5 338,-327.5 118,-327.5"/>
<text text-anchor="start" x="125" y="-338.9" font-family="Arial" font-size="14.00" fill="#000000">name    </text>
<text text-anchor="start" x="194.2132" y="-338.9" font-family="Arial" font-size="14.00" fill="#666666">[varchar(255)]</text>
<polygon fill="none" stroke="#000000" points="118,-297.5 118,-327.5 338,-327.5 338,-297.5 118,-297.5"/>
<text text-anchor="start" x="125" y="-308.9" font-family="Arial" font-size="14.00" fill="#000000">email    </text>
<text text-anchor="start" x="192.6438" y="-308.9" font-family="Arial" font-size="14.00" fill="#666666">[varchar(255)]</text>
<polygon fill="none" stroke="#000000" points="118,-267.5 118,-297.5 338,-297.5 338,-267.5 118,-267.5"/>
<text text-anchor="start" x="125" y="-278.9" font-family="Arial" font-size="14.00" fill="#000000">content    </text>
<text text-anchor="start" x="205.1164" y="-278.9" font-family="Arial" font-size="14.00" fill="#666666">[json]</text>
<polygon fill="none" stroke="#000000" points="118,-237.5 118,-267.5 338,-267.5 338,-237.5 118,-237.5"/>
<text text-anchor="start" x="125" y="-248.9" font-family="Arial" font-size="14.00" fill="#000000">logo    </text>
<text text-anchor="start" x="185.6592" y="-248.9" font-family="Arial" font-size="14.00" fill="#666666">[varchar(255)]</text>
<polygon fill="none" stroke="#000000" points="118,-207.5 118,-237.5 338,-237.5 338,-207.5 118,-207.5"/>
<text text-anchor="start" x="125" y="-218.9" font-family="Arial" font-size="14.00" fill="#000000">cover_image    </text>
<text text-anchor="start" x="239.3282" y="-218.9" font-family="Arial" font-size="14.00" fill="#666666">[varchar(255)]</text>
<polygon fill="none" stroke="#000000" points="118,-177.5 118,-207.5 338,-207.5 338,-177.5 118,-177.5"/>
<text text-anchor="start" x="125" y="-188.9" font-family="Arial" font-size="14.00" fill="#000000">motto    </text>
<text text-anchor="start" x="194.2118" y="-188.9" font-family="Arial" font-size="14.00" fill="#666666">[longtext]</text>
<polygon fill="none" stroke="#000000" points="118,-147.5 118,-177.5 338,-177.5 338,-147.5 118,-147.5"/>
<text text-anchor="start" x="125" y="-158.9" font-family="Arial" font-size="14.00" fill="#000000">introduction    </text>
<text text-anchor="start" x="231.5554" y="-158.9" font-family="Arial" font-size="14.00" fill="#666666">[longtext]</text>
<polygon fill="none" stroke="#000000" points="118,-117.5 118,-147.5 338,-147.5 338,-117.5 118,-117.5"/>
<text text-anchor="start" x="125" y="-128.9" font-family="Arial" font-size="14.00" fill="#000000">created_at    </text>
<text text-anchor="start" x="225.3422" y="-128.9" font-family="Arial" font-size="14.00" fill="#666666">[timestamp]</text>
<polygon fill="none" stroke="#000000" points="118,-87.5 118,-117.5 338,-117.5 338,-87.5 118,-87.5"/>
<text text-anchor="start" x="125" y="-98.9" font-family="Arial" font-size="14.00" fill="#000000">updated_at    </text>
<text text-anchor="start" x="229.2468" y="-98.9" font-family="Arial" font-size="14.00" fill="#666666">[timestamp]</text>
</g>
<!-- partner_profiles&#45;&gt;partners -->
<g id="edge1" class="edge">
<title>partner_profiles:partner_id&#45;&gt;partners:id</title>
<path fill="none" stroke="#000000" d="M253.6677,-907.1575C121.6647,-898.0826 212.1616,-710.5981 264,-577 281.639,-531.5407 320.361,-541.4593 338,-496 353.0323,-457.2586 379.5556,-402.5 338,-402.5"/>
<polygon fill="#000000" stroke="#000000" points="254.0055,-907.1686 263.8509,-911.9975 259.0027,-907.3343 264,-907.5 264,-907.5 264,-907.5 259.0027,-907.3343 264.1491,-903.0025 254.0055,-907.1686 254.0055,-907.1686"/>
<text text-anchor="start" x="6.719" y="-917.5" font-family="Arial" font-size="10.00" fill="#000000">FOREIGN KEY (partner_id) REFERENCES partners (id)</text>
</g>
<!-- users -->
<g id="node3" class="node">
<title>users</title>
<polygon fill="#efefef" stroke="transparent" points="443,-462.5 443,-497.5 690,-497.5 690,-462.5 443,-462.5"/>
<polygon fill="none" stroke="#000000" points="443,-462.5 443,-497.5 690,-497.5 690,-462.5 443,-462.5"/>
<text text-anchor="start" x="480.7137" y="-475.3" font-family="Arial Bold" font-size="18.00" fill="#000000">users</text>
<text text-anchor="start" x="524.7183" y="-475.3" font-family="Arial" font-size="14.00" fill="#000000">    </text>
<text text-anchor="start" x="558.9231" y="-475.3" font-family="Arial" font-size="14.00" fill="#666666">[BASE TABLE]</text>
<polygon fill="none" stroke="#000000" points="443,-432.5 443,-462.5 690,-462.5 690,-432.5 443,-432.5"/>
<text text-anchor="start" x="450" y="-443.9" font-family="Arial" font-size="14.00" fill="#000000">id    </text>
<text text-anchor="start" x="495.094" y="-443.9" font-family="Arial" font-size="14.00" fill="#666666">[bigint(20) unsigned]</text>
<polygon fill="none" stroke="#000000" points="443,-402.5 443,-432.5 690,-432.5 690,-402.5 443,-402.5"/>
<text text-anchor="start" x="450" y="-413.9" font-family="Arial" font-size="14.00" fill="#000000">full_name    </text>
<text text-anchor="start" x="544.8822" y="-413.9" font-family="Arial" font-size="14.00" fill="#666666">[varchar(255)]</text>
<polygon fill="none" stroke="#000000" points="443,-372.5 443,-402.5 690,-402.5 690,-372.5 443,-372.5"/>
<text text-anchor="start" x="450" y="-383.9" font-family="Arial" font-size="14.00" fill="#000000">display_name    </text>
<text text-anchor="start" x="570.5568" y="-383.9" font-family="Arial" font-size="14.00" fill="#666666">[varchar(255)]</text>
<polygon fill="none" stroke="#000000" points="443,-342.5 443,-372.5 690,-372.5 690,-342.5 443,-342.5"/>
<text text-anchor="start" x="450" y="-353.9" font-family="Arial" font-size="14.00" fill="#000000">email    </text>
<text text-anchor="start" x="517.6438" y="-353.9" font-family="Arial" font-size="14.00" fill="#666666">[varchar(255)]</text>
<polygon fill="none" stroke="#000000" points="443,-312.5 443,-342.5 690,-342.5 690,-312.5 443,-312.5"/>
<text text-anchor="start" x="450" y="-323.9" font-family="Arial" font-size="14.00" fill="#000000">password    </text>
<text text-anchor="start" x="544.1024" y="-323.9" font-family="Arial" font-size="14.00" fill="#666666">[varchar(255)]</text>
<polygon fill="none" stroke="#000000" points="443,-282.5 443,-312.5 690,-312.5 690,-282.5 443,-282.5"/>
<text text-anchor="start" x="450" y="-293.9" font-family="Arial" font-size="14.00" fill="#000000">status    </text>
<text text-anchor="start" x="521.5512" y="-293.9" font-family="Arial" font-size="14.00" fill="#666666">[varchar(255)]</text>
<polygon fill="none" stroke="#000000" points="443,-252.5 443,-282.5 690,-282.5 690,-252.5 443,-252.5"/>
<text text-anchor="start" x="450" y="-263.9" font-family="Arial" font-size="14.00" fill="#000000">role_id    </text>
<text text-anchor="start" x="526.209" y="-263.9" font-family="Arial" font-size="14.00" fill="#666666">[bigint(20) unsigned]</text>
<polygon fill="none" stroke="#000000" points="443,-222.5 443,-252.5 690,-252.5 690,-222.5 443,-222.5"/>
<text text-anchor="start" x="450" y="-233.9" font-family="Arial" font-size="14.00" fill="#000000">site_id    </text>
<text text-anchor="start" x="524.6564" y="-233.9" font-family="Arial" font-size="14.00" fill="#666666">[bigint(20) unsigned]</text>
<polygon fill="none" stroke="#000000" points="443,-192.5 443,-222.5 690,-222.5 690,-192.5 443,-192.5"/>
<text text-anchor="start" x="449.8149" y="-203.9" font-family="Arial" font-size="14.00" fill="#000000">usertype_id    </text>
<text text-anchor="start" x="556.3731" y="-203.9" font-family="Arial" font-size="14.00" fill="#666666">[bigint(20) unsigned]</text>
<polygon fill="none" stroke="#000000" points="443,-162.5 443,-192.5 690,-192.5 690,-162.5 443,-162.5"/>
<text text-anchor="start" x="450" y="-173.9" font-family="Arial" font-size="14.00" fill="#000000">remember_token    </text>
<text text-anchor="start" x="589.9986" y="-173.9" font-family="Arial" font-size="14.00" fill="#666666">[varchar(100)]</text>
<polygon fill="none" stroke="#000000" points="443,-132.5 443,-162.5 690,-162.5 690,-132.5 443,-132.5"/>
<text text-anchor="start" x="450" y="-143.9" font-family="Arial" font-size="14.00" fill="#000000">token    </text>
<text text-anchor="start" x="518.4432" y="-143.9" font-family="Arial" font-size="14.00" fill="#666666">[longtext]</text>
<polygon fill="none" stroke="#000000" points="443,-102.5 443,-132.5 690,-132.5 690,-102.5 443,-102.5"/>
<text text-anchor="start" x="450" y="-113.9" font-family="Arial" font-size="14.00" fill="#000000">isFirstTimeVisit    </text>
<text text-anchor="start" x="579.0646" y="-113.9" font-family="Arial" font-size="14.00" fill="#666666">[tinyint(1)]</text>
<polygon fill="none" stroke="#000000" points="443,-72.5 443,-102.5 690,-102.5 690,-72.5 443,-72.5"/>
<text text-anchor="start" x="450" y="-83.9" font-family="Arial" font-size="14.00" fill="#000000">created_at    </text>
<text text-anchor="start" x="550.3422" y="-83.9" font-family="Arial" font-size="14.00" fill="#666666">[timestamp]</text>
<polygon fill="none" stroke="#000000" points="443,-42.5 443,-72.5 690,-72.5 690,-42.5 443,-42.5"/>
<text text-anchor="start" x="450" y="-53.9" font-family="Arial" font-size="14.00" fill="#000000">updated_at    </text>
<text text-anchor="start" x="554.2468" y="-53.9" font-family="Arial" font-size="14.00" fill="#666666">[timestamp]</text>
</g>
<!-- partner_profiles&#45;&gt;users -->
<g id="edge2" class="edge">
<title>partner_profiles:user_id&#45;&gt;users:id</title>
<path fill="none" stroke="#000000" d="M540.1654,-877.1097C660.4162,-867.5632 602.2625,-685.1064 530,-577 506.7452,-542.2103 466.2548,-575.7897 443,-541 419.9068,-506.452 401.4444,-447.5 443,-447.5"/>
<polygon fill="#000000" stroke="#000000" points="539.9926,-877.1163 529.8273,-873.0033 534.9963,-877.3081 530,-877.5 530,-877.5 530,-877.5 534.9963,-877.3081 530.1727,-881.9967 539.9926,-877.1163 539.9926,-877.1163"/>
<text text-anchor="start" x="536.945" y="-887.5" font-family="Arial" font-size="10.00" fill="#000000">FOREIGN KEY (user_id) REFERENCES users (id)</text>
</g>
</g>
</svg>
