<?xml version="1.0" encoding="UTF-8" standalone="no"?>
<!DOCTYPE svg PUBLIC "-//W3C//DTD SVG 1.1//EN"
 "http://www.w3.org/Graphics/SVG/1.1/DTD/svg11.dtd">
<!-- Generated by graphviz version 2.40.1 (20161225.0304)
 -->
<!-- Title: permission_role Pages: 1 -->
<svg width="807pt" height="592pt"
 viewBox="0.00 0.00 807.00 592.00" xmlns="http://www.w3.org/2000/svg" xmlns:xlink="http://www.w3.org/1999/xlink">
<g id="graph0" class="graph" transform="scale(1 1) rotate(0) translate(4 588)">
<title>permission_role</title>
<polygon fill="#ffffff" stroke="transparent" points="-4,4 -4,-588 803,-588 803,4 -4,4"/>
<!-- permission_role -->
<g id="node1" class="node">
<title>permission_role</title>
<polygon fill="#efefef" stroke="transparent" points="234,-502.5 234,-537.5 502,-537.5 502,-502.5 234,-502.5"/>
<polygon fill="none" stroke="#000000" points="234,-502.5 234,-537.5 502,-537.5 502,-502.5 234,-502.5"/>
<text text-anchor="start" x="240.7147" y="-515.3" font-family="Arial Bold" font-size="18.00" fill="#000000">permission_role</text>
<text text-anchor="start" x="367.7173" y="-515.3" font-family="Arial" font-size="14.00" fill="#000000">    </text>
<text text-anchor="start" x="401.9221" y="-515.3" font-family="Arial" font-size="14.00" fill="#666666">[BASE TABLE]</text>
<polygon fill="none" stroke="#000000" points="234,-472.5 234,-502.5 502,-502.5 502,-472.5 234,-472.5"/>
<text text-anchor="start" x="241" y="-483.9" font-family="Arial" font-size="14.00" fill="#000000">role_id </text>
<text text-anchor="start" x="286.8948" y="-483.9" font-family="Arial" font-size="14.00" fill="#666666">[bigint(20) unsigned]</text>
<polygon fill="none" stroke="#000000" points="234,-442.5 234,-472.5 502,-472.5 502,-442.5 234,-442.5"/>
<text text-anchor="start" x="241" y="-453.9" font-family="Arial" font-size="14.00" fill="#000000">permission_id </text>
<text text-anchor="start" x="331.2272" y="-453.9" font-family="Arial" font-size="14.00" fill="#666666">[bigint(20) unsigned]</text>
<polygon fill="none" stroke="#000000" points="234,-412.5 234,-442.5 502,-442.5 502,-412.5 234,-412.5"/>
<text text-anchor="start" x="241" y="-423.9" font-family="Arial" font-size="14.00" fill="#000000">created_at </text>
<text text-anchor="start" x="311.028" y="-423.9" font-family="Arial" font-size="14.00" fill="#666666">[timestamp]</text>
<polygon fill="none" stroke="#000000" points="234,-382.5 234,-412.5 502,-412.5 502,-382.5 234,-382.5"/>
<text text-anchor="start" x="241" y="-393.9" font-family="Arial" font-size="14.00" fill="#000000">updated_at </text>
<text text-anchor="start" x="314.9326" y="-393.9" font-family="Arial" font-size="14.00" fill="#666666">[timestamp]</text>
<polygon fill="none" stroke="#000000" stroke-width="3" points="232.5,-381.5 232.5,-539.5 503.5,-539.5 503.5,-381.5 232.5,-381.5"/>
</g>
<!-- roles -->
<g id="node2" class="node">
<title>roles</title>
<polygon fill="#efefef" stroke="transparent" points="104,-222.5 104,-257.5 305,-257.5 305,-222.5 104,-222.5"/>
<polygon fill="none" stroke="#000000" points="104,-222.5 104,-257.5 305,-257.5 305,-222.5 104,-222.5"/>
<text text-anchor="start" x="121.2166" y="-235.3" font-family="Arial Bold" font-size="18.00" fill="#000000">roles</text>
<text text-anchor="start" x="160.2154" y="-235.3" font-family="Arial" font-size="14.00" fill="#000000">    </text>
<text text-anchor="start" x="194.4202" y="-235.3" font-family="Arial" font-size="14.00" fill="#666666">[BASE TABLE]</text>
<polygon fill="none" stroke="#000000" points="104,-192.5 104,-222.5 305,-222.5 305,-192.5 104,-192.5"/>
<text text-anchor="start" x="111" y="-203.9" font-family="Arial" font-size="14.00" fill="#000000">id    </text>
<text text-anchor="start" x="156.094" y="-203.9" font-family="Arial" font-size="14.00" fill="#666666">[bigint(20) unsigned]</text>
<polygon fill="none" stroke="#000000" points="104,-162.5 104,-192.5 305,-192.5 305,-162.5 104,-162.5"/>
<text text-anchor="start" x="111" y="-173.9" font-family="Arial" font-size="14.00" fill="#000000">role_uid    </text>
<text text-anchor="start" x="194.9916" y="-173.9" font-family="Arial" font-size="14.00" fill="#666666">[varchar(255)]</text>
<polygon fill="none" stroke="#000000" points="104,-132.5 104,-162.5 305,-162.5 305,-132.5 104,-132.5"/>
<text text-anchor="start" x="110.7763" y="-143.9" font-family="Arial" font-size="14.00" fill="#000000">role_name    </text>
<text text-anchor="start" x="211.1045" y="-143.9" font-family="Arial" font-size="14.00" fill="#666666">[varchar(255)]</text>
<polygon fill="none" stroke="#000000" points="104,-102.5 104,-132.5 305,-132.5 305,-102.5 104,-102.5"/>
<text text-anchor="start" x="111" y="-113.9" font-family="Arial" font-size="14.00" fill="#000000">role_value    </text>
<text text-anchor="start" x="209.7742" y="-113.9" font-family="Arial" font-size="14.00" fill="#666666">[text]</text>
<polygon fill="none" stroke="#000000" points="104,-72.5 104,-102.5 305,-102.5 305,-72.5 104,-72.5"/>
<text text-anchor="start" x="111" y="-83.9" font-family="Arial" font-size="14.00" fill="#000000">created_at    </text>
<text text-anchor="start" x="211.3422" y="-83.9" font-family="Arial" font-size="14.00" fill="#666666">[timestamp]</text>
<polygon fill="none" stroke="#000000" points="104,-42.5 104,-72.5 305,-72.5 305,-42.5 104,-42.5"/>
<text text-anchor="start" x="111" y="-53.9" font-family="Arial" font-size="14.00" fill="#000000">updated_at    </text>
<text text-anchor="start" x="215.2468" y="-53.9" font-family="Arial" font-size="14.00" fill="#666666">[timestamp]</text>
</g>
<!-- permission_role&#45;&gt;roles -->
<g id="edge1" class="edge">
<title>permission_role:role_id&#45;&gt;roles:id</title>
<path fill="none" stroke="#000000" d="M223.8966,-486.6823C170.6077,-477.3824 200.9088,-390.8806 234,-337 252.5158,-306.8517 286.4842,-331.1483 305,-301 326.7477,-265.5895 346.5556,-207.5 305,-207.5"/>
<polygon fill="#000000" stroke="#000000" points="224.0326,-486.6933 233.637,-491.9853 229.0163,-487.0966 234,-487.5 234,-487.5 234,-487.5 229.0163,-487.0966 234.363,-483.0147 224.0326,-486.6933 224.0326,-486.6933"/>
<text text-anchor="start" x="6.726" y="-497.5" font-family="Arial" font-size="10.00" fill="#000000">FOREIGN KEY (role_id) REFERENCES roles (id)</text>
</g>
<!-- permissions -->
<g id="node3" class="node">
<title>permissions</title>
<polygon fill="#efefef" stroke="transparent" points="409,-207.5 409,-242.5 654,-242.5 654,-207.5 409,-207.5"/>
<polygon fill="none" stroke="#000000" points="409,-207.5 409,-242.5 654,-242.5 654,-207.5 409,-207.5"/>
<text text-anchor="start" x="419.7172" y="-220.3" font-family="Arial Bold" font-size="18.00" fill="#000000">permissions</text>
<text text-anchor="start" x="515.7148" y="-220.3" font-family="Arial" font-size="14.00" fill="#000000">    </text>
<text text-anchor="start" x="549.9196" y="-220.3" font-family="Arial" font-size="14.00" fill="#666666">[BASE TABLE]</text>
<polygon fill="none" stroke="#000000" points="409,-177.5 409,-207.5 654,-207.5 654,-177.5 409,-177.5"/>
<text text-anchor="start" x="416" y="-188.9" font-family="Arial" font-size="14.00" fill="#000000">id    </text>
<text text-anchor="start" x="461.094" y="-188.9" font-family="Arial" font-size="14.00" fill="#666666">[bigint(20) unsigned]</text>
<polygon fill="none" stroke="#000000" points="409,-147.5 409,-177.5 654,-177.5 654,-147.5 409,-147.5"/>
<text text-anchor="start" x="415.6101" y="-158.9" font-family="Arial" font-size="14.00" fill="#000000">permission_name    </text>
<text text-anchor="start" x="560.2707" y="-158.9" font-family="Arial" font-size="14.00" fill="#666666">[varchar(255)]</text>
<polygon fill="none" stroke="#000000" points="409,-117.5 409,-147.5 654,-147.5 654,-117.5 409,-117.5"/>
<text text-anchor="start" x="416" y="-128.9" font-family="Arial" font-size="14.00" fill="#000000">permission_value    </text>
<text text-anchor="start" x="559.1066" y="-128.9" font-family="Arial" font-size="14.00" fill="#666666">[text]</text>
<polygon fill="none" stroke="#000000" points="409,-87.5 409,-117.5 654,-117.5 654,-87.5 409,-87.5"/>
<text text-anchor="start" x="416" y="-98.9" font-family="Arial" font-size="14.00" fill="#000000">created_at    </text>
<text text-anchor="start" x="516.3422" y="-98.9" font-family="Arial" font-size="14.00" fill="#666666">[timestamp]</text>
<polygon fill="none" stroke="#000000" points="409,-57.5 409,-87.5 654,-87.5 654,-57.5 409,-57.5"/>
<text text-anchor="start" x="416" y="-68.9" font-family="Arial" font-size="14.00" fill="#000000">updated_at    </text>
<text text-anchor="start" x="520.2468" y="-68.9" font-family="Arial" font-size="14.00" fill="#666666">[timestamp]</text>
</g>
<!-- permission_role&#45;&gt;permissions -->
<g id="edge2" class="edge">
<title>permission_role:permission_id&#45;&gt;permissions:id</title>
<path fill="none" stroke="#000000" d="M512.1403,-456.432C551.8564,-447.1752 527.3676,-379.843 502,-337 477.9822,-296.4368 433.0178,-326.5632 409,-286 387.8277,-250.2425 367.4444,-192.5 409,-192.5"/>
<polygon fill="#000000" stroke="#000000" points="511.945,-456.4525 501.5286,-453.0248 506.9725,-456.9762 502,-457.5 502,-457.5 502,-457.5 506.9725,-456.9762 502.4714,-461.9752 511.945,-456.4525 511.945,-456.4525"/>
<text text-anchor="start" x="509.06" y="-467.5" font-family="Arial" font-size="10.00" fill="#000000">FOREIGN KEY (permission_id) REFERENCES permissions (id)</text>
</g>
</g>
</svg>
