<?xml version="1.0" encoding="UTF-8" standalone="no"?>
<!DOCTYPE svg PUBLIC "-//W3C//DTD SVG 1.1//EN"
 "http://www.w3.org/Graphics/SVG/1.1/DTD/svg11.dtd">
<!-- Generated by graphviz version 2.40.1 (20161225.0304)
 -->
<!-- Title: permissions Pages: 1 -->
<svg width="616pt" height="562pt"
 viewBox="0.00 0.00 616.00 562.00" xmlns="http://www.w3.org/2000/svg" xmlns:xlink="http://www.w3.org/1999/xlink">
<g id="graph0" class="graph" transform="scale(1 1) rotate(0) translate(4 558)">
<title>permissions</title>
<polygon fill="#ffffff" stroke="transparent" points="-4,4 -4,-558 612,-558 612,4 -4,4"/>
<!-- permissions -->
<g id="node1" class="node">
<title>permissions</title>
<polygon fill="#efefef" stroke="transparent" points="312,-195.5 312,-230.5 549,-230.5 549,-195.5 312,-195.5"/>
<polygon fill="none" stroke="#000000" points="312,-195.5 312,-230.5 549,-230.5 549,-195.5 312,-195.5"/>
<text text-anchor="start" x="318.7172" y="-208.3" font-family="Arial Bold" font-size="18.00" fill="#000000">permissions</text>
<text text-anchor="start" x="414.7148" y="-208.3" font-family="Arial" font-size="14.00" fill="#000000">    </text>
<text text-anchor="start" x="448.9196" y="-208.3" font-family="Arial" font-size="14.00" fill="#666666">[BASE TABLE]</text>
<polygon fill="none" stroke="#000000" points="312,-165.5 312,-195.5 549,-195.5 549,-165.5 312,-165.5"/>
<text text-anchor="start" x="319" y="-176.9" font-family="Arial" font-size="14.00" fill="#000000">id </text>
<text text-anchor="start" x="333.7798" y="-176.9" font-family="Arial" font-size="14.00" fill="#666666">[bigint(20) unsigned]</text>
<polygon fill="none" stroke="#000000" points="312,-135.5 312,-165.5 549,-165.5 549,-135.5 312,-135.5"/>
<text text-anchor="start" x="319" y="-146.9" font-family="Arial" font-size="14.00" fill="#000000">permission_name </text>
<text text-anchor="start" x="433.3464" y="-146.9" font-family="Arial" font-size="14.00" fill="#666666">[varchar(255)]</text>
<polygon fill="none" stroke="#000000" points="312,-105.5 312,-135.5 549,-135.5 549,-105.5 312,-105.5"/>
<text text-anchor="start" x="319" y="-116.9" font-family="Arial" font-size="14.00" fill="#000000">permission_value </text>
<text text-anchor="start" x="431.7924" y="-116.9" font-family="Arial" font-size="14.00" fill="#666666">[text]</text>
<polygon fill="none" stroke="#000000" points="312,-75.5 312,-105.5 549,-105.5 549,-75.5 312,-75.5"/>
<text text-anchor="start" x="319" y="-86.9" font-family="Arial" font-size="14.00" fill="#000000">created_at </text>
<text text-anchor="start" x="389.028" y="-86.9" font-family="Arial" font-size="14.00" fill="#666666">[timestamp]</text>
<polygon fill="none" stroke="#000000" points="312,-45.5 312,-75.5 549,-75.5 549,-45.5 312,-45.5"/>
<text text-anchor="start" x="319" y="-56.9" font-family="Arial" font-size="14.00" fill="#000000">updated_at </text>
<text text-anchor="start" x="392.9326" y="-56.9" font-family="Arial" font-size="14.00" fill="#666666">[timestamp]</text>
<polygon fill="none" stroke="#000000" stroke-width="3" points="310,-44.5 310,-232.5 550,-232.5 550,-44.5 310,-44.5"/>
</g>
<!-- permission_role -->
<g id="node2" class="node">
<title>permission_role</title>
<polygon fill="#efefef" stroke="transparent" points="297,-475.5 297,-510.5 565,-510.5 565,-475.5 297,-475.5"/>
<polygon fill="none" stroke="#000000" points="297,-475.5 297,-510.5 565,-510.5 565,-475.5 297,-475.5"/>
<text text-anchor="start" x="303.7147" y="-488.3" font-family="Arial Bold" font-size="18.00" fill="#000000">permission_role</text>
<text text-anchor="start" x="430.7173" y="-488.3" font-family="Arial" font-size="14.00" fill="#000000">    </text>
<text text-anchor="start" x="464.9221" y="-488.3" font-family="Arial" font-size="14.00" fill="#666666">[BASE TABLE]</text>
<polygon fill="none" stroke="#000000" points="297,-445.5 297,-475.5 565,-475.5 565,-445.5 297,-445.5"/>
<text text-anchor="start" x="304" y="-456.9" font-family="Arial" font-size="14.00" fill="#000000">role_id    </text>
<text text-anchor="start" x="380.209" y="-456.9" font-family="Arial" font-size="14.00" fill="#666666">[bigint(20) unsigned]</text>
<polygon fill="none" stroke="#000000" points="297,-415.5 297,-445.5 565,-445.5 565,-415.5 297,-415.5"/>
<text text-anchor="start" x="304" y="-426.9" font-family="Arial" font-size="14.00" fill="#000000">permission_id    </text>
<text text-anchor="start" x="424.5414" y="-426.9" font-family="Arial" font-size="14.00" fill="#666666">[bigint(20) unsigned]</text>
<polygon fill="none" stroke="#000000" points="297,-385.5 297,-415.5 565,-415.5 565,-385.5 297,-385.5"/>
<text text-anchor="start" x="304" y="-396.9" font-family="Arial" font-size="14.00" fill="#000000">created_at    </text>
<text text-anchor="start" x="404.3422" y="-396.9" font-family="Arial" font-size="14.00" fill="#666666">[timestamp]</text>
<polygon fill="none" stroke="#000000" points="297,-355.5 297,-385.5 565,-385.5 565,-355.5 297,-355.5"/>
<text text-anchor="start" x="304" y="-366.9" font-family="Arial" font-size="14.00" fill="#000000">updated_at    </text>
<text text-anchor="start" x="408.2468" y="-366.9" font-family="Arial" font-size="14.00" fill="#666666">[timestamp]</text>
</g>
<!-- permission_role&#45;&gt;permissions -->
<g id="edge1" class="edge">
<title>permission_role:permission_id&#45;&gt;permissions:id</title>
<path fill="none" stroke="#000000" d="M287.0072,-429.383C247.39,-419.7152 265.1897,-349.6776 297,-313 371.1276,-227.5301 474.8724,-362.4699 549,-277 577.1009,-244.5994 591.8889,-180.5 549,-180.5"/>
<polygon fill="#000000" stroke="#000000" points="287.0619,-429.389 296.5,-434.9721 292.0309,-429.9445 297,-430.5 297,-430.5 297,-430.5 292.0309,-429.9445 297.5,-426.0279 287.0619,-429.389 287.0619,-429.389"/>
<text text-anchor="start" x="7.06" y="-440.5" font-family="Arial" font-size="10.00" fill="#000000">FOREIGN KEY (permission_id) REFERENCES permissions (id)</text>
</g>
</g>
</svg>
