<?xml version="1.0" encoding="UTF-8" standalone="no"?>
<!DOCTYPE svg PUBLIC "-//W3C//DTD SVG 1.1//EN"
 "http://www.w3.org/Graphics/SVG/1.1/DTD/svg11.dtd">
<!-- Generated by graphviz version 2.40.1 (20161225.0304)
 -->
<!-- Title: product_categories Pages: 1 -->
<svg width="917pt" height="1559pt"
 viewBox="0.00 0.00 917.00 1559.00" xmlns="http://www.w3.org/2000/svg" xmlns:xlink="http://www.w3.org/1999/xlink">
<g id="graph0" class="graph" transform="scale(1 1) rotate(0) translate(4 1555)">
<title>product_categories</title>
<polygon fill="#ffffff" stroke="transparent" points="-4,4 -4,-1555 913,-1555 913,4 -4,4"/>
<!-- product_categories -->
<g id="node1" class="node">
<title>product_categories</title>
<polygon fill="#efefef" stroke="transparent" points="291,-742.5 291,-777.5 585,-777.5 585,-742.5 291,-742.5"/>
<polygon fill="none" stroke="#000000" points="291,-742.5 291,-777.5 585,-777.5 585,-742.5 291,-742.5"/>
<text text-anchor="start" x="297.6935" y="-755.3" font-family="Arial Bold" font-size="18.00" fill="#000000">product_categories</text>
<text text-anchor="start" x="450.7385" y="-755.3" font-family="Arial" font-size="14.00" fill="#000000">    </text>
<text text-anchor="start" x="484.9433" y="-755.3" font-family="Arial" font-size="14.00" fill="#666666">[BASE TABLE]</text>
<polygon fill="none" stroke="#000000" points="291,-712.5 291,-742.5 585,-742.5 585,-712.5 291,-712.5"/>
<text text-anchor="start" x="298" y="-723.9" font-family="Arial" font-size="14.00" fill="#000000">id </text>
<text text-anchor="start" x="312.7798" y="-723.9" font-family="Arial" font-size="14.00" fill="#666666">[bigint(20) unsigned]</text>
<polygon fill="none" stroke="#000000" points="291,-682.5 291,-712.5 585,-712.5 585,-682.5 291,-682.5"/>
<text text-anchor="start" x="298" y="-693.9" font-family="Arial" font-size="14.00" fill="#000000">product_category_name </text>
<text text-anchor="start" x="452.8274" y="-693.9" font-family="Arial" font-size="14.00" fill="#666666">[varchar(255)]</text>
<polygon fill="none" stroke="#000000" points="291,-652.5 291,-682.5 585,-682.5 585,-652.5 291,-652.5"/>
<text text-anchor="start" x="298" y="-663.9" font-family="Arial" font-size="14.00" fill="#000000">product_category_description </text>
<text text-anchor="start" x="485.4964" y="-663.9" font-family="Arial" font-size="14.00" fill="#666666">[text]</text>
<polygon fill="none" stroke="#000000" points="291,-622.5 291,-652.5 585,-652.5 585,-622.5 291,-622.5"/>
<text text-anchor="start" x="298" y="-633.9" font-family="Arial" font-size="14.00" fill="#000000">brand_id </text>
<text text-anchor="start" x="356.3534" y="-633.9" font-family="Arial" font-size="14.00" fill="#666666">[bigint(20) unsigned]</text>
<polygon fill="none" stroke="#000000" points="291,-592.5 291,-622.5 585,-622.5 585,-592.5 291,-592.5"/>
<text text-anchor="start" x="298" y="-603.9" font-family="Arial" font-size="14.00" fill="#000000">inventory_id </text>
<text text-anchor="start" x="377.3506" y="-603.9" font-family="Arial" font-size="14.00" fill="#666666">[bigint(20) unsigned]</text>
<polygon fill="none" stroke="#000000" points="291,-562.5 291,-592.5 585,-592.5 585,-562.5 291,-562.5"/>
<text text-anchor="start" x="298" y="-573.9" font-family="Arial" font-size="14.00" fill="#000000">product_created_at </text>
<text text-anchor="start" x="422.4922" y="-573.9" font-family="Arial" font-size="14.00" fill="#666666">[datetime]</text>
<polygon fill="none" stroke="#000000" points="291,-532.5 291,-562.5 585,-562.5 585,-532.5 291,-532.5"/>
<text text-anchor="start" x="298" y="-543.9" font-family="Arial" font-size="14.00" fill="#000000">product_modified_at </text>
<text text-anchor="start" x="428.7054" y="-543.9" font-family="Arial" font-size="14.00" fill="#666666">[datetime]</text>
<polygon fill="none" stroke="#000000" points="291,-502.5 291,-532.5 585,-532.5 585,-502.5 291,-502.5"/>
<text text-anchor="start" x="298" y="-513.9" font-family="Arial" font-size="14.00" fill="#000000">created_at </text>
<text text-anchor="start" x="368.028" y="-513.9" font-family="Arial" font-size="14.00" fill="#666666">[timestamp]</text>
<polygon fill="none" stroke="#000000" points="291,-472.5 291,-502.5 585,-502.5 585,-472.5 291,-472.5"/>
<text text-anchor="start" x="298" y="-483.9" font-family="Arial" font-size="14.00" fill="#000000">updated_at </text>
<text text-anchor="start" x="371.9326" y="-483.9" font-family="Arial" font-size="14.00" fill="#666666">[timestamp]</text>
<polygon fill="none" stroke="#000000" stroke-width="3" points="289.5,-471.5 289.5,-779.5 586.5,-779.5 586.5,-471.5 289.5,-471.5"/>
</g>
<!-- product_brands -->
<g id="node3" class="node">
<title>product_brands</title>
<polygon fill="#efefef" stroke="transparent" points="111,-252.5 111,-287.5 379,-287.5 379,-252.5 111,-252.5"/>
<polygon fill="none" stroke="#000000" points="111,-252.5 111,-287.5 379,-287.5 379,-252.5 111,-252.5"/>
<text text-anchor="start" x="118.6948" y="-265.3" font-family="Arial Bold" font-size="18.00" fill="#000000">product_brands</text>
<text text-anchor="start" x="243.7372" y="-265.3" font-family="Arial" font-size="14.00" fill="#000000">    </text>
<text text-anchor="start" x="277.942" y="-265.3" font-family="Arial" font-size="14.00" fill="#666666">[BASE TABLE]</text>
<polygon fill="none" stroke="#000000" points="111,-222.5 111,-252.5 379,-252.5 379,-222.5 111,-222.5"/>
<text text-anchor="start" x="118" y="-233.9" font-family="Arial" font-size="14.00" fill="#000000">id    </text>
<text text-anchor="start" x="163.094" y="-233.9" font-family="Arial" font-size="14.00" fill="#666666">[bigint(20) unsigned]</text>
<polygon fill="none" stroke="#000000" points="111,-192.5 111,-222.5 379,-222.5 379,-192.5 111,-192.5"/>
<text text-anchor="start" x="117.8149" y="-203.9" font-family="Arial" font-size="14.00" fill="#000000">product_brand_name    </text>
<text text-anchor="start" x="285.0659" y="-203.9" font-family="Arial" font-size="14.00" fill="#666666">[varchar(255)]</text>
<polygon fill="none" stroke="#000000" points="111,-162.5 111,-192.5 379,-192.5 379,-162.5 111,-162.5"/>
<text text-anchor="start" x="118" y="-173.9" font-family="Arial" font-size="14.00" fill="#000000">product_brand_description    </text>
<text text-anchor="start" x="317.92" y="-173.9" font-family="Arial" font-size="14.00" fill="#666666">[text]</text>
<polygon fill="none" stroke="#000000" points="111,-132.5 111,-162.5 379,-162.5 379,-132.5 111,-132.5"/>
<text text-anchor="start" x="118" y="-143.9" font-family="Arial" font-size="14.00" fill="#000000">created_at    </text>
<text text-anchor="start" x="218.3422" y="-143.9" font-family="Arial" font-size="14.00" fill="#666666">[timestamp]</text>
<polygon fill="none" stroke="#000000" points="111,-102.5 111,-132.5 379,-132.5 379,-102.5 111,-102.5"/>
<text text-anchor="start" x="118" y="-113.9" font-family="Arial" font-size="14.00" fill="#000000">updated_at    </text>
<text text-anchor="start" x="222.2468" y="-113.9" font-family="Arial" font-size="14.00" fill="#666666">[timestamp]</text>
</g>
<!-- product_categories&#45;&gt;product_brands -->
<g id="edge2" class="edge">
<title>product_categories:brand_id&#45;&gt;product_brands:id</title>
<path fill="none" stroke="#000000" d="M280.7436,-637.3798C.2346,-630.6477 374.2005,-343.3385 379,-331 394.0648,-292.2713 420.5556,-237.5 379,-237.5"/>
<polygon fill="#000000" stroke="#000000" points="281.0007,-637.3827 290.9472,-641.9997 286.0003,-637.4414 291,-637.5 291,-637.5 291,-637.5 286.0003,-637.4414 291.0528,-633.0003 281.0007,-637.3827 281.0007,-637.3827"/>
<text text-anchor="start" x="7.3755" y="-647.5" font-family="Arial" font-size="10.00" fill="#000000">FOREIGN KEY (brand_id) REFERENCES product_brands (id)</text>
</g>
<!-- product_inventories -->
<g id="node4" class="node">
<title>product_inventories</title>
<polygon fill="#efefef" stroke="transparent" points="483,-312.5 483,-347.5 781,-347.5 781,-312.5 483,-312.5"/>
<polygon fill="none" stroke="#000000" points="483,-312.5 483,-347.5 781,-347.5 781,-312.5 483,-312.5"/>
<text text-anchor="start" x="489.6964" y="-325.3" font-family="Arial Bold" font-size="18.00" fill="#000000">product_inventories</text>
<text text-anchor="start" x="646.7356" y="-325.3" font-family="Arial" font-size="14.00" fill="#000000">    </text>
<text text-anchor="start" x="680.9404" y="-325.3" font-family="Arial" font-size="14.00" fill="#666666">[BASE TABLE]</text>
<polygon fill="none" stroke="#000000" points="483,-282.5 483,-312.5 781,-312.5 781,-282.5 483,-282.5"/>
<text text-anchor="start" x="490" y="-293.9" font-family="Arial" font-size="14.00" fill="#000000">id    </text>
<text text-anchor="start" x="535.094" y="-293.9" font-family="Arial" font-size="14.00" fill="#666666">[bigint(20) unsigned]</text>
<polygon fill="none" stroke="#000000" points="483,-252.5 483,-282.5 781,-282.5 781,-252.5 483,-252.5"/>
<text text-anchor="start" x="490" y="-263.9" font-family="Arial" font-size="14.00" fill="#000000">product_inventory_name    </text>
<text text-anchor="start" x="678.2482" y="-263.9" font-family="Arial" font-size="14.00" fill="#666666">[varchar(255)]</text>
<polygon fill="none" stroke="#000000" points="483,-222.5 483,-252.5 781,-252.5 781,-222.5 483,-222.5"/>
<text text-anchor="start" x="490" y="-233.9" font-family="Arial" font-size="14.00" fill="#000000">product_inventory_description    </text>
<text text-anchor="start" x="710.9172" y="-233.9" font-family="Arial" font-size="14.00" fill="#666666">[text]</text>
<polygon fill="none" stroke="#000000" points="483,-192.5 483,-222.5 781,-222.5 781,-192.5 483,-192.5"/>
<text text-anchor="start" x="490" y="-203.9" font-family="Arial" font-size="14.00" fill="#000000">product_inventory_quantity    </text>
<text text-anchor="start" x="692.258" y="-203.9" font-family="Arial" font-size="14.00" fill="#666666">[int(11)]</text>
<polygon fill="none" stroke="#000000" points="483,-162.5 483,-192.5 781,-192.5 781,-162.5 483,-162.5"/>
<text text-anchor="start" x="490" y="-173.9" font-family="Arial" font-size="14.00" fill="#000000">brand_id    </text>
<text text-anchor="start" x="578.6676" y="-173.9" font-family="Arial" font-size="14.00" fill="#666666">[bigint(20) unsigned]</text>
<polygon fill="none" stroke="#000000" points="483,-132.5 483,-162.5 781,-162.5 781,-132.5 483,-132.5"/>
<text text-anchor="start" x="490" y="-143.9" font-family="Arial" font-size="14.00" fill="#000000">category_id    </text>
<text text-anchor="start" x="596.5582" y="-143.9" font-family="Arial" font-size="14.00" fill="#666666">[bigint(20) unsigned]</text>
<polygon fill="none" stroke="#000000" points="483,-102.5 483,-132.5 781,-132.5 781,-102.5 483,-102.5"/>
<text text-anchor="start" x="490" y="-113.9" font-family="Arial" font-size="14.00" fill="#000000">qty_on_loan    </text>
<text text-anchor="start" x="600.4628" y="-113.9" font-family="Arial" font-size="14.00" fill="#666666">[int(11)]</text>
<polygon fill="none" stroke="#000000" points="483,-72.5 483,-102.5 781,-102.5 781,-72.5 483,-72.5"/>
<text text-anchor="start" x="490" y="-83.9" font-family="Arial" font-size="14.00" fill="#000000">created_at    </text>
<text text-anchor="start" x="590.3422" y="-83.9" font-family="Arial" font-size="14.00" fill="#666666">[timestamp]</text>
<polygon fill="none" stroke="#000000" points="483,-42.5 483,-72.5 781,-72.5 781,-42.5 483,-42.5"/>
<text text-anchor="start" x="490" y="-53.9" font-family="Arial" font-size="14.00" fill="#000000">updated_at    </text>
<text text-anchor="start" x="594.2468" y="-53.9" font-family="Arial" font-size="14.00" fill="#666666">[timestamp]</text>
</g>
<!-- product_categories&#45;&gt;product_inventories -->
<g id="edge3" class="edge">
<title>product_categories:inventory_id&#45;&gt;product_inventories:id</title>
<path fill="none" stroke="#000000" d="M595.1296,-606.8186C662.1525,-597.2669 629.2527,-489.5467 585,-427 557.2338,-387.7553 510.7662,-430.2447 483,-391 458.9987,-357.0766 441.4444,-297.5 483,-297.5"/>
<polygon fill="#000000" stroke="#000000" points="594.9775,-606.8288 584.698,-603.0101 589.9887,-607.1644 585,-607.5 585,-607.5 585,-607.5 589.9887,-607.1644 585.302,-611.9899 594.9775,-606.8288 594.9775,-606.8288"/>
<text text-anchor="start" x="591.9885" y="-617.5" font-family="Arial" font-size="10.00" fill="#000000">FOREIGN KEY (inventory_id) REFERENCES product_inventories (id)</text>
</g>
<!-- hardwares -->
<g id="node2" class="node">
<title>hardwares</title>
<polygon fill="#efefef" stroke="transparent" points="313,-1472.5 313,-1507.5 563,-1507.5 563,-1472.5 313,-1472.5"/>
<polygon fill="none" stroke="#000000" points="313,-1472.5 313,-1507.5 563,-1507.5 563,-1472.5 313,-1472.5"/>
<text text-anchor="start" x="332.2112" y="-1485.3" font-family="Arial Bold" font-size="18.00" fill="#000000">hardwares</text>
<text text-anchor="start" x="416.2208" y="-1485.3" font-family="Arial" font-size="14.00" fill="#000000">    </text>
<text text-anchor="start" x="450.4256" y="-1485.3" font-family="Arial" font-size="14.00" fill="#666666">[BASE TABLE]</text>
<polygon fill="none" stroke="#000000" points="313,-1442.5 313,-1472.5 563,-1472.5 563,-1442.5 313,-1442.5"/>
<text text-anchor="start" x="320" y="-1453.9" font-family="Arial" font-size="14.00" fill="#000000">id    </text>
<text text-anchor="start" x="365.094" y="-1453.9" font-family="Arial" font-size="14.00" fill="#666666">[bigint(20) unsigned]</text>
<polygon fill="none" stroke="#000000" points="313,-1412.5 313,-1442.5 563,-1442.5 563,-1412.5 313,-1412.5"/>
<text text-anchor="start" x="320" y="-1423.9" font-family="Arial" font-size="14.00" fill="#000000">owner_id    </text>
<text text-anchor="start" x="410.9916" y="-1423.9" font-family="Arial" font-size="14.00" fill="#666666">[bigint(20) unsigned]</text>
<polygon fill="none" stroke="#000000" points="313,-1382.5 313,-1412.5 563,-1412.5 563,-1382.5 313,-1382.5"/>
<text text-anchor="start" x="320" y="-1393.9" font-family="Arial" font-size="14.00" fill="#000000">product_name    </text>
<text text-anchor="start" x="443.6774" y="-1393.9" font-family="Arial" font-size="14.00" fill="#666666">[varchar(255)]</text>
<polygon fill="none" stroke="#000000" points="313,-1352.5 313,-1382.5 563,-1382.5 563,-1352.5 313,-1352.5"/>
<text text-anchor="start" x="320" y="-1363.9" font-family="Arial" font-size="14.00" fill="#000000">product_content    </text>
<text text-anchor="start" x="454.5806" y="-1363.9" font-family="Arial" font-size="14.00" fill="#666666">[longtext]</text>
<polygon fill="none" stroke="#000000" points="313,-1322.5 313,-1352.5 563,-1352.5 563,-1322.5 313,-1322.5"/>
<text text-anchor="start" x="320" y="-1333.9" font-family="Arial" font-size="14.00" fill="#000000">product_excerpt    </text>
<text text-anchor="start" x="454.568" y="-1333.9" font-family="Arial" font-size="14.00" fill="#666666">[text]</text>
<polygon fill="none" stroke="#000000" points="313,-1292.5 313,-1322.5 563,-1322.5 563,-1292.5 313,-1292.5"/>
<text text-anchor="start" x="320" y="-1303.9" font-family="Arial" font-size="14.00" fill="#000000">price    </text>
<text text-anchor="start" x="384.5372" y="-1303.9" font-family="Arial" font-size="14.00" fill="#666666">[double(8,2)]</text>
<polygon fill="none" stroke="#000000" points="313,-1262.5 313,-1292.5 563,-1292.5 563,-1262.5 313,-1262.5"/>
<text text-anchor="start" x="320" y="-1273.9" font-family="Arial" font-size="14.00" fill="#000000">cover_image    </text>
<text text-anchor="start" x="434.3282" y="-1273.9" font-family="Arial" font-size="14.00" fill="#666666">[varchar(255)]</text>
<polygon fill="none" stroke="#000000" points="313,-1232.5 313,-1262.5 563,-1262.5 563,-1232.5 313,-1232.5"/>
<text text-anchor="start" x="320" y="-1243.9" font-family="Arial" font-size="14.00" fill="#000000">gallery    </text>
<text text-anchor="start" x="395.4264" y="-1243.9" font-family="Arial" font-size="14.00" fill="#666666">[longtext]</text>
<polygon fill="none" stroke="#000000" points="313,-1202.5 313,-1232.5 563,-1232.5 563,-1202.5 313,-1202.5"/>
<text text-anchor="start" x="320" y="-1213.9" font-family="Arial" font-size="14.00" fill="#000000">created    </text>
<text text-anchor="start" x="400.8864" y="-1213.9" font-family="Arial" font-size="14.00" fill="#666666">[datetime]</text>
<polygon fill="none" stroke="#000000" points="313,-1172.5 313,-1202.5 563,-1202.5 563,-1172.5 313,-1172.5"/>
<text text-anchor="start" x="320" y="-1183.9" font-family="Arial" font-size="14.00" fill="#000000">modified    </text>
<text text-anchor="start" x="407.0996" y="-1183.9" font-family="Arial" font-size="14.00" fill="#666666">[datetime]</text>
<polygon fill="none" stroke="#000000" points="313,-1142.5 313,-1172.5 563,-1172.5 563,-1142.5 313,-1142.5"/>
<text text-anchor="start" x="320" y="-1153.9" font-family="Arial" font-size="14.00" fill="#000000">product_SKU    </text>
<text text-anchor="start" x="437.4488" y="-1153.9" font-family="Arial" font-size="14.00" fill="#666666">[varchar(255)]</text>
<polygon fill="none" stroke="#000000" points="313,-1112.5 313,-1142.5 563,-1142.5 563,-1112.5 313,-1112.5"/>
<text text-anchor="start" x="320" y="-1123.9" font-family="Arial" font-size="14.00" fill="#000000">category_id    </text>
<text text-anchor="start" x="426.5582" y="-1123.9" font-family="Arial" font-size="14.00" fill="#666666">[bigint(20) unsigned]</text>
<polygon fill="none" stroke="#000000" points="313,-1082.5 313,-1112.5 563,-1112.5 563,-1082.5 313,-1082.5"/>
<text text-anchor="start" x="319.7616" y="-1093.9" font-family="Arial" font-size="14.00" fill="#000000">inventory_id    </text>
<text text-anchor="start" x="429.4264" y="-1093.9" font-family="Arial" font-size="14.00" fill="#666666">[bigint(20) unsigned]</text>
<polygon fill="none" stroke="#000000" points="313,-1052.5 313,-1082.5 563,-1082.5 563,-1052.5 313,-1052.5"/>
<text text-anchor="start" x="320" y="-1063.9" font-family="Arial" font-size="14.00" fill="#000000">brand_id    </text>
<text text-anchor="start" x="408.6676" y="-1063.9" font-family="Arial" font-size="14.00" fill="#666666">[bigint(20) unsigned]</text>
<polygon fill="none" stroke="#000000" points="313,-1022.5 313,-1052.5 563,-1052.5 563,-1022.5 313,-1022.5"/>
<text text-anchor="start" x="320" y="-1033.9" font-family="Arial" font-size="14.00" fill="#000000">product_isLoan    </text>
<text text-anchor="start" x="449.906" y="-1033.9" font-family="Arial" font-size="14.00" fill="#666666">[tinyint(1)]</text>
<polygon fill="none" stroke="#000000" points="313,-992.5 313,-1022.5 563,-1022.5 563,-992.5 313,-992.5"/>
<text text-anchor="start" x="320" y="-1003.9" font-family="Arial" font-size="14.00" fill="#000000">template    </text>
<text text-anchor="start" x="407.8836" y="-1003.9" font-family="Arial" font-size="14.00" fill="#666666">[varchar(255)]</text>
<polygon fill="none" stroke="#000000" points="313,-962.5 313,-992.5 563,-992.5 563,-962.5 313,-962.5"/>
<text text-anchor="start" x="320" y="-973.9" font-family="Arial" font-size="14.00" fill="#000000">extra_content    </text>
<text text-anchor="start" x="439.0154" y="-973.9" font-family="Arial" font-size="14.00" fill="#666666">[json]</text>
<polygon fill="none" stroke="#000000" points="313,-932.5 313,-962.5 563,-962.5 563,-932.5 313,-932.5"/>
<text text-anchor="start" x="320" y="-943.9" font-family="Arial" font-size="14.00" fill="#000000">created_at    </text>
<text text-anchor="start" x="420.3422" y="-943.9" font-family="Arial" font-size="14.00" fill="#666666">[timestamp]</text>
<polygon fill="none" stroke="#000000" points="313,-902.5 313,-932.5 563,-932.5 563,-902.5 313,-902.5"/>
<text text-anchor="start" x="320" y="-913.9" font-family="Arial" font-size="14.00" fill="#000000">updated_at    </text>
<text text-anchor="start" x="424.2468" y="-913.9" font-family="Arial" font-size="14.00" fill="#666666">[timestamp]</text>
</g>
<!-- hardwares&#45;&gt;product_categories -->
<g id="edge1" class="edge">
<title>hardwares:category_id&#45;&gt;product_categories:id</title>
<path fill="none" stroke="#000000" d="M573.0015,-1127.0704C741.8118,-1112.4107 759.6559,-727.5 585,-727.5"/>
<polygon fill="#000000" stroke="#000000" points="572.9908,-1127.0707 562.8068,-1123.0041 567.9954,-1127.2854 563,-1127.5 563,-1127.5 563,-1127.5 567.9954,-1127.2854 563.1932,-1131.9959 572.9908,-1127.0707 572.9908,-1127.0707"/>
<text text-anchor="start" x="570.2075" y="-1137.5" font-family="Arial" font-size="10.00" fill="#000000">FOREIGN KEY (category_id) REFERENCES product_categories (id)</text>
</g>
</g>
</svg>
