<?xml version="1.0" encoding="UTF-8" standalone="no"?>
<!DOCTYPE svg PUBLIC "-//W3C//DTD SVG 1.1//EN"
 "http://www.w3.org/Graphics/SVG/1.1/DTD/svg11.dtd">
<!-- Generated by graphviz version 2.40.1 (20161225.0304)
 -->
<!-- Title: product_brands Pages: 1 -->
<svg width="742pt" height="1012pt"
 viewBox="0.00 0.00 742.00 1012.00" xmlns="http://www.w3.org/2000/svg" xmlns:xlink="http://www.w3.org/1999/xlink">
<g id="graph0" class="graph" transform="scale(1 1) rotate(0) translate(4 1008)">
<title>product_brands</title>
<polygon fill="#ffffff" stroke="transparent" points="-4,4 -4,-1008 738,-1008 738,4 -4,4"/>
<!-- product_brands -->
<g id="node1" class="node">
<title>product_brands</title>
<polygon fill="#efefef" stroke="transparent" points="223,-195.5 223,-230.5 489,-230.5 489,-195.5 223,-195.5"/>
<polygon fill="none" stroke="#000000" points="223,-195.5 223,-230.5 489,-230.5 489,-195.5 223,-195.5"/>
<text text-anchor="start" x="229.6948" y="-208.3" font-family="Arial Bold" font-size="18.00" fill="#000000">product_brands</text>
<text text-anchor="start" x="354.7372" y="-208.3" font-family="Arial" font-size="14.00" fill="#000000">    </text>
<text text-anchor="start" x="388.942" y="-208.3" font-family="Arial" font-size="14.00" fill="#666666">[BASE TABLE]</text>
<polygon fill="none" stroke="#000000" points="223,-165.5 223,-195.5 489,-195.5 489,-165.5 223,-165.5"/>
<text text-anchor="start" x="230" y="-176.9" font-family="Arial" font-size="14.00" fill="#000000">id </text>
<text text-anchor="start" x="244.7798" y="-176.9" font-family="Arial" font-size="14.00" fill="#666666">[bigint(20) unsigned]</text>
<polygon fill="none" stroke="#000000" points="223,-135.5 223,-165.5 489,-165.5 489,-135.5 223,-135.5"/>
<text text-anchor="start" x="230" y="-146.9" font-family="Arial" font-size="14.00" fill="#000000">product_brand_name </text>
<text text-anchor="start" x="366.9368" y="-146.9" font-family="Arial" font-size="14.00" fill="#666666">[varchar(255)]</text>
<polygon fill="none" stroke="#000000" points="223,-105.5 223,-135.5 489,-135.5 489,-105.5 223,-105.5"/>
<text text-anchor="start" x="230" y="-116.9" font-family="Arial" font-size="14.00" fill="#000000">product_brand_description </text>
<text text-anchor="start" x="399.6058" y="-116.9" font-family="Arial" font-size="14.00" fill="#666666">[text]</text>
<polygon fill="none" stroke="#000000" points="223,-75.5 223,-105.5 489,-105.5 489,-75.5 223,-75.5"/>
<text text-anchor="start" x="230" y="-86.9" font-family="Arial" font-size="14.00" fill="#000000">created_at </text>
<text text-anchor="start" x="300.028" y="-86.9" font-family="Arial" font-size="14.00" fill="#666666">[timestamp]</text>
<polygon fill="none" stroke="#000000" points="223,-45.5 223,-75.5 489,-75.5 489,-45.5 223,-45.5"/>
<text text-anchor="start" x="230" y="-56.9" font-family="Arial" font-size="14.00" fill="#000000">updated_at </text>
<text text-anchor="start" x="303.9326" y="-56.9" font-family="Arial" font-size="14.00" fill="#666666">[timestamp]</text>
<polygon fill="none" stroke="#000000" stroke-width="3" points="221.5,-44.5 221.5,-232.5 490.5,-232.5 490.5,-44.5 221.5,-44.5"/>
</g>
<!-- hardwares -->
<g id="node2" class="node">
<title>hardwares</title>
<polygon fill="#efefef" stroke="transparent" points="43,-925.5 43,-960.5 293,-960.5 293,-925.5 43,-925.5"/>
<polygon fill="none" stroke="#000000" points="43,-925.5 43,-960.5 293,-960.5 293,-925.5 43,-925.5"/>
<text text-anchor="start" x="62.2112" y="-938.3" font-family="Arial Bold" font-size="18.00" fill="#000000">hardwares</text>
<text text-anchor="start" x="146.2208" y="-938.3" font-family="Arial" font-size="14.00" fill="#000000">    </text>
<text text-anchor="start" x="180.4256" y="-938.3" font-family="Arial" font-size="14.00" fill="#666666">[BASE TABLE]</text>
<polygon fill="none" stroke="#000000" points="43,-895.5 43,-925.5 293,-925.5 293,-895.5 43,-895.5"/>
<text text-anchor="start" x="50" y="-906.9" font-family="Arial" font-size="14.00" fill="#000000">id    </text>
<text text-anchor="start" x="95.094" y="-906.9" font-family="Arial" font-size="14.00" fill="#666666">[bigint(20) unsigned]</text>
<polygon fill="none" stroke="#000000" points="43,-865.5 43,-895.5 293,-895.5 293,-865.5 43,-865.5"/>
<text text-anchor="start" x="50" y="-876.9" font-family="Arial" font-size="14.00" fill="#000000">owner_id    </text>
<text text-anchor="start" x="140.9916" y="-876.9" font-family="Arial" font-size="14.00" fill="#666666">[bigint(20) unsigned]</text>
<polygon fill="none" stroke="#000000" points="43,-835.5 43,-865.5 293,-865.5 293,-835.5 43,-835.5"/>
<text text-anchor="start" x="50" y="-846.9" font-family="Arial" font-size="14.00" fill="#000000">product_name    </text>
<text text-anchor="start" x="173.6774" y="-846.9" font-family="Arial" font-size="14.00" fill="#666666">[varchar(255)]</text>
<polygon fill="none" stroke="#000000" points="43,-805.5 43,-835.5 293,-835.5 293,-805.5 43,-805.5"/>
<text text-anchor="start" x="50" y="-816.9" font-family="Arial" font-size="14.00" fill="#000000">product_content    </text>
<text text-anchor="start" x="184.5806" y="-816.9" font-family="Arial" font-size="14.00" fill="#666666">[longtext]</text>
<polygon fill="none" stroke="#000000" points="43,-775.5 43,-805.5 293,-805.5 293,-775.5 43,-775.5"/>
<text text-anchor="start" x="50" y="-786.9" font-family="Arial" font-size="14.00" fill="#000000">product_excerpt    </text>
<text text-anchor="start" x="184.568" y="-786.9" font-family="Arial" font-size="14.00" fill="#666666">[text]</text>
<polygon fill="none" stroke="#000000" points="43,-745.5 43,-775.5 293,-775.5 293,-745.5 43,-745.5"/>
<text text-anchor="start" x="50" y="-756.9" font-family="Arial" font-size="14.00" fill="#000000">price    </text>
<text text-anchor="start" x="114.5372" y="-756.9" font-family="Arial" font-size="14.00" fill="#666666">[double(8,2)]</text>
<polygon fill="none" stroke="#000000" points="43,-715.5 43,-745.5 293,-745.5 293,-715.5 43,-715.5"/>
<text text-anchor="start" x="50" y="-726.9" font-family="Arial" font-size="14.00" fill="#000000">cover_image    </text>
<text text-anchor="start" x="164.3282" y="-726.9" font-family="Arial" font-size="14.00" fill="#666666">[varchar(255)]</text>
<polygon fill="none" stroke="#000000" points="43,-685.5 43,-715.5 293,-715.5 293,-685.5 43,-685.5"/>
<text text-anchor="start" x="50" y="-696.9" font-family="Arial" font-size="14.00" fill="#000000">gallery    </text>
<text text-anchor="start" x="125.4264" y="-696.9" font-family="Arial" font-size="14.00" fill="#666666">[longtext]</text>
<polygon fill="none" stroke="#000000" points="43,-655.5 43,-685.5 293,-685.5 293,-655.5 43,-655.5"/>
<text text-anchor="start" x="50" y="-666.9" font-family="Arial" font-size="14.00" fill="#000000">created    </text>
<text text-anchor="start" x="130.8864" y="-666.9" font-family="Arial" font-size="14.00" fill="#666666">[datetime]</text>
<polygon fill="none" stroke="#000000" points="43,-625.5 43,-655.5 293,-655.5 293,-625.5 43,-625.5"/>
<text text-anchor="start" x="50" y="-636.9" font-family="Arial" font-size="14.00" fill="#000000">modified    </text>
<text text-anchor="start" x="137.0996" y="-636.9" font-family="Arial" font-size="14.00" fill="#666666">[datetime]</text>
<polygon fill="none" stroke="#000000" points="43,-595.5 43,-625.5 293,-625.5 293,-595.5 43,-595.5"/>
<text text-anchor="start" x="50" y="-606.9" font-family="Arial" font-size="14.00" fill="#000000">product_SKU    </text>
<text text-anchor="start" x="167.4488" y="-606.9" font-family="Arial" font-size="14.00" fill="#666666">[varchar(255)]</text>
<polygon fill="none" stroke="#000000" points="43,-565.5 43,-595.5 293,-595.5 293,-565.5 43,-565.5"/>
<text text-anchor="start" x="50" y="-576.9" font-family="Arial" font-size="14.00" fill="#000000">category_id    </text>
<text text-anchor="start" x="156.5582" y="-576.9" font-family="Arial" font-size="14.00" fill="#666666">[bigint(20) unsigned]</text>
<polygon fill="none" stroke="#000000" points="43,-535.5 43,-565.5 293,-565.5 293,-535.5 43,-535.5"/>
<text text-anchor="start" x="49.7616" y="-546.9" font-family="Arial" font-size="14.00" fill="#000000">inventory_id    </text>
<text text-anchor="start" x="159.4264" y="-546.9" font-family="Arial" font-size="14.00" fill="#666666">[bigint(20) unsigned]</text>
<polygon fill="none" stroke="#000000" points="43,-505.5 43,-535.5 293,-535.5 293,-505.5 43,-505.5"/>
<text text-anchor="start" x="50" y="-516.9" font-family="Arial" font-size="14.00" fill="#000000">brand_id    </text>
<text text-anchor="start" x="138.6676" y="-516.9" font-family="Arial" font-size="14.00" fill="#666666">[bigint(20) unsigned]</text>
<polygon fill="none" stroke="#000000" points="43,-475.5 43,-505.5 293,-505.5 293,-475.5 43,-475.5"/>
<text text-anchor="start" x="50" y="-486.9" font-family="Arial" font-size="14.00" fill="#000000">product_isLoan    </text>
<text text-anchor="start" x="179.906" y="-486.9" font-family="Arial" font-size="14.00" fill="#666666">[tinyint(1)]</text>
<polygon fill="none" stroke="#000000" points="43,-445.5 43,-475.5 293,-475.5 293,-445.5 43,-445.5"/>
<text text-anchor="start" x="50" y="-456.9" font-family="Arial" font-size="14.00" fill="#000000">template    </text>
<text text-anchor="start" x="137.8836" y="-456.9" font-family="Arial" font-size="14.00" fill="#666666">[varchar(255)]</text>
<polygon fill="none" stroke="#000000" points="43,-415.5 43,-445.5 293,-445.5 293,-415.5 43,-415.5"/>
<text text-anchor="start" x="50" y="-426.9" font-family="Arial" font-size="14.00" fill="#000000">extra_content    </text>
<text text-anchor="start" x="169.0154" y="-426.9" font-family="Arial" font-size="14.00" fill="#666666">[json]</text>
<polygon fill="none" stroke="#000000" points="43,-385.5 43,-415.5 293,-415.5 293,-385.5 43,-385.5"/>
<text text-anchor="start" x="50" y="-396.9" font-family="Arial" font-size="14.00" fill="#000000">created_at    </text>
<text text-anchor="start" x="150.3422" y="-396.9" font-family="Arial" font-size="14.00" fill="#666666">[timestamp]</text>
<polygon fill="none" stroke="#000000" points="43,-355.5 43,-385.5 293,-385.5 293,-355.5 43,-355.5"/>
<text text-anchor="start" x="50" y="-366.9" font-family="Arial" font-size="14.00" fill="#000000">updated_at    </text>
<text text-anchor="start" x="154.2468" y="-366.9" font-family="Arial" font-size="14.00" fill="#666666">[timestamp]</text>
</g>
<!-- hardwares&#45;&gt;product_brands -->
<g id="edge1" class="edge">
<title>hardwares:brand_id&#45;&gt;product_brands:id</title>
<path fill="none" stroke="#000000" d="M302.5901,-517.5629C335.6474,-495.0144 315.1423,-349.2864 293,-313 274.777,-283.1366 241.223,-306.8634 223,-277 200.6596,-240.389 180.1111,-180.5 223,-180.5"/>
<polygon fill="#000000" stroke="#000000" points="302.5616,-517.5715 291.6822,-516.1973 297.7808,-519.0358 293,-520.5 293,-520.5 293,-520.5 297.7808,-519.0358 294.3178,-524.8027 302.5616,-517.5715 302.5616,-517.5715"/>
<text text-anchor="start" x="300.3755" y="-530.5" font-family="Arial" font-size="10.00" fill="#000000">FOREIGN KEY (brand_id) REFERENCES product_brands (id)</text>
</g>
<!-- product_categories -->
<g id="node3" class="node">
<title>product_categories</title>
<polygon fill="#efefef" stroke="transparent" points="397,-775.5 397,-810.5 691,-810.5 691,-775.5 397,-775.5"/>
<polygon fill="none" stroke="#000000" points="397,-775.5 397,-810.5 691,-810.5 691,-775.5 397,-775.5"/>
<text text-anchor="start" x="403.6935" y="-788.3" font-family="Arial Bold" font-size="18.00" fill="#000000">product_categories</text>
<text text-anchor="start" x="556.7385" y="-788.3" font-family="Arial" font-size="14.00" fill="#000000">    </text>
<text text-anchor="start" x="590.9433" y="-788.3" font-family="Arial" font-size="14.00" fill="#666666">[BASE TABLE]</text>
<polygon fill="none" stroke="#000000" points="397,-745.5 397,-775.5 691,-775.5 691,-745.5 397,-745.5"/>
<text text-anchor="start" x="404" y="-756.9" font-family="Arial" font-size="14.00" fill="#000000">id    </text>
<text text-anchor="start" x="449.094" y="-756.9" font-family="Arial" font-size="14.00" fill="#666666">[bigint(20) unsigned]</text>
<polygon fill="none" stroke="#000000" points="397,-715.5 397,-745.5 691,-745.5 691,-715.5 397,-715.5"/>
<text text-anchor="start" x="404" y="-726.9" font-family="Arial" font-size="14.00" fill="#000000">product_category_name    </text>
<text text-anchor="start" x="589.1416" y="-726.9" font-family="Arial" font-size="14.00" fill="#666666">[varchar(255)]</text>
<polygon fill="none" stroke="#000000" points="397,-685.5 397,-715.5 691,-715.5 691,-685.5 397,-685.5"/>
<text text-anchor="start" x="404" y="-696.9" font-family="Arial" font-size="14.00" fill="#000000">product_category_description    </text>
<text text-anchor="start" x="621.8106" y="-696.9" font-family="Arial" font-size="14.00" fill="#666666">[text]</text>
<polygon fill="none" stroke="#000000" points="397,-655.5 397,-685.5 691,-685.5 691,-655.5 397,-655.5"/>
<text text-anchor="start" x="404" y="-666.9" font-family="Arial" font-size="14.00" fill="#000000">brand_id    </text>
<text text-anchor="start" x="492.6676" y="-666.9" font-family="Arial" font-size="14.00" fill="#666666">[bigint(20) unsigned]</text>
<polygon fill="none" stroke="#000000" points="397,-625.5 397,-655.5 691,-655.5 691,-625.5 397,-625.5"/>
<text text-anchor="start" x="404" y="-636.9" font-family="Arial" font-size="14.00" fill="#000000">inventory_id    </text>
<text text-anchor="start" x="513.6648" y="-636.9" font-family="Arial" font-size="14.00" fill="#666666">[bigint(20) unsigned]</text>
<polygon fill="none" stroke="#000000" points="397,-595.5 397,-625.5 691,-625.5 691,-595.5 397,-595.5"/>
<text text-anchor="start" x="404" y="-606.9" font-family="Arial" font-size="14.00" fill="#000000">product_created_at    </text>
<text text-anchor="start" x="558.8064" y="-606.9" font-family="Arial" font-size="14.00" fill="#666666">[datetime]</text>
<polygon fill="none" stroke="#000000" points="397,-565.5 397,-595.5 691,-595.5 691,-565.5 397,-565.5"/>
<text text-anchor="start" x="404" y="-576.9" font-family="Arial" font-size="14.00" fill="#000000">product_modified_at    </text>
<text text-anchor="start" x="565.0196" y="-576.9" font-family="Arial" font-size="14.00" fill="#666666">[datetime]</text>
<polygon fill="none" stroke="#000000" points="397,-535.5 397,-565.5 691,-565.5 691,-535.5 397,-535.5"/>
<text text-anchor="start" x="404" y="-546.9" font-family="Arial" font-size="14.00" fill="#000000">created_at    </text>
<text text-anchor="start" x="504.3422" y="-546.9" font-family="Arial" font-size="14.00" fill="#666666">[timestamp]</text>
<polygon fill="none" stroke="#000000" points="397,-505.5 397,-535.5 691,-535.5 691,-505.5 397,-505.5"/>
<text text-anchor="start" x="404" y="-516.9" font-family="Arial" font-size="14.00" fill="#000000">updated_at    </text>
<text text-anchor="start" x="508.2468" y="-516.9" font-family="Arial" font-size="14.00" fill="#666666">[timestamp]</text>
</g>
<!-- product_categories&#45;&gt;product_brands -->
<g id="edge2" class="edge">
<title>product_categories:brand_id&#45;&gt;product_brands:id</title>
<path fill="none" stroke="#000000" d="M386.9282,-669.9699C310.2658,-661.3473 376.8253,-549.2928 397,-463 417.9958,-373.1954 468.0042,-366.8046 489,-277 498.7639,-235.2373 531.8889,-180.5 489,-180.5"/>
<polygon fill="#000000" stroke="#000000" points="387.0138,-669.9743 396.7634,-674.9938 392.0069,-670.2372 397,-670.5 397,-670.5 397,-670.5 392.0069,-670.2372 397.2366,-666.0062 387.0138,-669.9743 387.0138,-669.9743"/>
<text text-anchor="start" x="404.3755" y="-680.5" font-family="Arial" font-size="10.00" fill="#000000">FOREIGN KEY (brand_id) REFERENCES product_brands (id)</text>
</g>
</g>
</svg>
