<?xml version="1.0" encoding="UTF-8" standalone="no"?>
<!DOCTYPE svg PUBLIC "-//W3C//DTD SVG 1.1//EN"
 "http://www.w3.org/Graphics/SVG/1.1/DTD/svg11.dtd">
<!-- Generated by graphviz version 2.40.1 (20161225.0304)
 -->
<!-- Title: product_inventories Pages: 1 -->
<svg width="1127pt" height="1132pt"
 viewBox="0.00 0.00 1127.00 1132.00" xmlns="http://www.w3.org/2000/svg" xmlns:xlink="http://www.w3.org/1999/xlink">
<g id="graph0" class="graph" transform="scale(1 1) rotate(0) translate(4 1128)">
<title>product_inventories</title>
<polygon fill="#ffffff" stroke="transparent" points="-4,4 -4,-1128 1123,-1128 1123,4 -4,4"/>
<!-- product_inventories -->
<g id="node1" class="node">
<title>product_inventories</title>
<polygon fill="#efefef" stroke="transparent" points="404,-315.5 404,-350.5 702,-350.5 702,-315.5 404,-315.5"/>
<polygon fill="none" stroke="#000000" points="404,-315.5 404,-350.5 702,-350.5 702,-315.5 404,-315.5"/>
<text text-anchor="start" x="410.6964" y="-328.3" font-family="Arial Bold" font-size="18.00" fill="#000000">product_inventories</text>
<text text-anchor="start" x="567.7356" y="-328.3" font-family="Arial" font-size="14.00" fill="#000000">    </text>
<text text-anchor="start" x="601.9404" y="-328.3" font-family="Arial" font-size="14.00" fill="#666666">[BASE TABLE]</text>
<polygon fill="none" stroke="#000000" points="404,-285.5 404,-315.5 702,-315.5 702,-285.5 404,-285.5"/>
<text text-anchor="start" x="411" y="-296.9" font-family="Arial" font-size="14.00" fill="#000000">id </text>
<text text-anchor="start" x="425.7798" y="-296.9" font-family="Arial" font-size="14.00" fill="#666666">[bigint(20) unsigned]</text>
<polygon fill="none" stroke="#000000" points="404,-255.5 404,-285.5 702,-285.5 702,-255.5 404,-255.5"/>
<text text-anchor="start" x="411" y="-266.9" font-family="Arial" font-size="14.00" fill="#000000">product_inventory_name </text>
<text text-anchor="start" x="568.934" y="-266.9" font-family="Arial" font-size="14.00" fill="#666666">[varchar(255)]</text>
<polygon fill="none" stroke="#000000" points="404,-225.5 404,-255.5 702,-255.5 702,-225.5 404,-225.5"/>
<text text-anchor="start" x="411" y="-236.9" font-family="Arial" font-size="14.00" fill="#000000">product_inventory_description </text>
<text text-anchor="start" x="601.603" y="-236.9" font-family="Arial" font-size="14.00" fill="#666666">[text]</text>
<polygon fill="none" stroke="#000000" points="404,-195.5 404,-225.5 702,-225.5 702,-195.5 404,-195.5"/>
<text text-anchor="start" x="411" y="-206.9" font-family="Arial" font-size="14.00" fill="#000000">product_inventory_quantity </text>
<text text-anchor="start" x="582.9438" y="-206.9" font-family="Arial" font-size="14.00" fill="#666666">[int(11)]</text>
<polygon fill="none" stroke="#000000" points="404,-165.5 404,-195.5 702,-195.5 702,-165.5 404,-165.5"/>
<text text-anchor="start" x="411" y="-176.9" font-family="Arial" font-size="14.00" fill="#000000">brand_id </text>
<text text-anchor="start" x="469.3534" y="-176.9" font-family="Arial" font-size="14.00" fill="#666666">[bigint(20) unsigned]</text>
<polygon fill="none" stroke="#000000" points="404,-135.5 404,-165.5 702,-165.5 702,-135.5 404,-135.5"/>
<text text-anchor="start" x="411" y="-146.9" font-family="Arial" font-size="14.00" fill="#000000">category_id </text>
<text text-anchor="start" x="487.244" y="-146.9" font-family="Arial" font-size="14.00" fill="#666666">[bigint(20) unsigned]</text>
<polygon fill="none" stroke="#000000" points="404,-105.5 404,-135.5 702,-135.5 702,-105.5 404,-105.5"/>
<text text-anchor="start" x="411" y="-116.9" font-family="Arial" font-size="14.00" fill="#000000">qty_on_loan </text>
<text text-anchor="start" x="491.1486" y="-116.9" font-family="Arial" font-size="14.00" fill="#666666">[int(11)]</text>
<polygon fill="none" stroke="#000000" points="404,-75.5 404,-105.5 702,-105.5 702,-75.5 404,-75.5"/>
<text text-anchor="start" x="411" y="-86.9" font-family="Arial" font-size="14.00" fill="#000000">created_at </text>
<text text-anchor="start" x="481.028" y="-86.9" font-family="Arial" font-size="14.00" fill="#666666">[timestamp]</text>
<polygon fill="none" stroke="#000000" points="404,-45.5 404,-75.5 702,-75.5 702,-45.5 404,-45.5"/>
<text text-anchor="start" x="411" y="-56.9" font-family="Arial" font-size="14.00" fill="#000000">updated_at </text>
<text text-anchor="start" x="484.9326" y="-56.9" font-family="Arial" font-size="14.00" fill="#666666">[timestamp]</text>
<polygon fill="none" stroke="#000000" stroke-width="3" points="402.5,-44.5 402.5,-352.5 703.5,-352.5 703.5,-44.5 402.5,-44.5"/>
</g>
<!-- hardwares -->
<g id="node2" class="node">
<title>hardwares</title>
<polygon fill="#efefef" stroke="transparent" points="74,-1045.5 74,-1080.5 324,-1080.5 324,-1045.5 74,-1045.5"/>
<polygon fill="none" stroke="#000000" points="74,-1045.5 74,-1080.5 324,-1080.5 324,-1045.5 74,-1045.5"/>
<text text-anchor="start" x="93.2112" y="-1058.3" font-family="Arial Bold" font-size="18.00" fill="#000000">hardwares</text>
<text text-anchor="start" x="177.2208" y="-1058.3" font-family="Arial" font-size="14.00" fill="#000000">    </text>
<text text-anchor="start" x="211.4256" y="-1058.3" font-family="Arial" font-size="14.00" fill="#666666">[BASE TABLE]</text>
<polygon fill="none" stroke="#000000" points="74,-1015.5 74,-1045.5 324,-1045.5 324,-1015.5 74,-1015.5"/>
<text text-anchor="start" x="81" y="-1026.9" font-family="Arial" font-size="14.00" fill="#000000">id    </text>
<text text-anchor="start" x="126.094" y="-1026.9" font-family="Arial" font-size="14.00" fill="#666666">[bigint(20) unsigned]</text>
<polygon fill="none" stroke="#000000" points="74,-985.5 74,-1015.5 324,-1015.5 324,-985.5 74,-985.5"/>
<text text-anchor="start" x="81" y="-996.9" font-family="Arial" font-size="14.00" fill="#000000">owner_id    </text>
<text text-anchor="start" x="171.9916" y="-996.9" font-family="Arial" font-size="14.00" fill="#666666">[bigint(20) unsigned]</text>
<polygon fill="none" stroke="#000000" points="74,-955.5 74,-985.5 324,-985.5 324,-955.5 74,-955.5"/>
<text text-anchor="start" x="81" y="-966.9" font-family="Arial" font-size="14.00" fill="#000000">product_name    </text>
<text text-anchor="start" x="204.6774" y="-966.9" font-family="Arial" font-size="14.00" fill="#666666">[varchar(255)]</text>
<polygon fill="none" stroke="#000000" points="74,-925.5 74,-955.5 324,-955.5 324,-925.5 74,-925.5"/>
<text text-anchor="start" x="81" y="-936.9" font-family="Arial" font-size="14.00" fill="#000000">product_content    </text>
<text text-anchor="start" x="215.5806" y="-936.9" font-family="Arial" font-size="14.00" fill="#666666">[longtext]</text>
<polygon fill="none" stroke="#000000" points="74,-895.5 74,-925.5 324,-925.5 324,-895.5 74,-895.5"/>
<text text-anchor="start" x="81" y="-906.9" font-family="Arial" font-size="14.00" fill="#000000">product_excerpt    </text>
<text text-anchor="start" x="215.568" y="-906.9" font-family="Arial" font-size="14.00" fill="#666666">[text]</text>
<polygon fill="none" stroke="#000000" points="74,-865.5 74,-895.5 324,-895.5 324,-865.5 74,-865.5"/>
<text text-anchor="start" x="81" y="-876.9" font-family="Arial" font-size="14.00" fill="#000000">price    </text>
<text text-anchor="start" x="145.5372" y="-876.9" font-family="Arial" font-size="14.00" fill="#666666">[double(8,2)]</text>
<polygon fill="none" stroke="#000000" points="74,-835.5 74,-865.5 324,-865.5 324,-835.5 74,-835.5"/>
<text text-anchor="start" x="81" y="-846.9" font-family="Arial" font-size="14.00" fill="#000000">cover_image    </text>
<text text-anchor="start" x="195.3282" y="-846.9" font-family="Arial" font-size="14.00" fill="#666666">[varchar(255)]</text>
<polygon fill="none" stroke="#000000" points="74,-805.5 74,-835.5 324,-835.5 324,-805.5 74,-805.5"/>
<text text-anchor="start" x="81" y="-816.9" font-family="Arial" font-size="14.00" fill="#000000">gallery    </text>
<text text-anchor="start" x="156.4264" y="-816.9" font-family="Arial" font-size="14.00" fill="#666666">[longtext]</text>
<polygon fill="none" stroke="#000000" points="74,-775.5 74,-805.5 324,-805.5 324,-775.5 74,-775.5"/>
<text text-anchor="start" x="81" y="-786.9" font-family="Arial" font-size="14.00" fill="#000000">created    </text>
<text text-anchor="start" x="161.8864" y="-786.9" font-family="Arial" font-size="14.00" fill="#666666">[datetime]</text>
<polygon fill="none" stroke="#000000" points="74,-745.5 74,-775.5 324,-775.5 324,-745.5 74,-745.5"/>
<text text-anchor="start" x="81" y="-756.9" font-family="Arial" font-size="14.00" fill="#000000">modified    </text>
<text text-anchor="start" x="168.0996" y="-756.9" font-family="Arial" font-size="14.00" fill="#666666">[datetime]</text>
<polygon fill="none" stroke="#000000" points="74,-715.5 74,-745.5 324,-745.5 324,-715.5 74,-715.5"/>
<text text-anchor="start" x="81" y="-726.9" font-family="Arial" font-size="14.00" fill="#000000">product_SKU    </text>
<text text-anchor="start" x="198.4488" y="-726.9" font-family="Arial" font-size="14.00" fill="#666666">[varchar(255)]</text>
<polygon fill="none" stroke="#000000" points="74,-685.5 74,-715.5 324,-715.5 324,-685.5 74,-685.5"/>
<text text-anchor="start" x="81" y="-696.9" font-family="Arial" font-size="14.00" fill="#000000">category_id    </text>
<text text-anchor="start" x="187.5582" y="-696.9" font-family="Arial" font-size="14.00" fill="#666666">[bigint(20) unsigned]</text>
<polygon fill="none" stroke="#000000" points="74,-655.5 74,-685.5 324,-685.5 324,-655.5 74,-655.5"/>
<text text-anchor="start" x="80.7616" y="-666.9" font-family="Arial" font-size="14.00" fill="#000000">inventory_id    </text>
<text text-anchor="start" x="190.4264" y="-666.9" font-family="Arial" font-size="14.00" fill="#666666">[bigint(20) unsigned]</text>
<polygon fill="none" stroke="#000000" points="74,-625.5 74,-655.5 324,-655.5 324,-625.5 74,-625.5"/>
<text text-anchor="start" x="81" y="-636.9" font-family="Arial" font-size="14.00" fill="#000000">brand_id    </text>
<text text-anchor="start" x="169.6676" y="-636.9" font-family="Arial" font-size="14.00" fill="#666666">[bigint(20) unsigned]</text>
<polygon fill="none" stroke="#000000" points="74,-595.5 74,-625.5 324,-625.5 324,-595.5 74,-595.5"/>
<text text-anchor="start" x="81" y="-606.9" font-family="Arial" font-size="14.00" fill="#000000">product_isLoan    </text>
<text text-anchor="start" x="210.906" y="-606.9" font-family="Arial" font-size="14.00" fill="#666666">[tinyint(1)]</text>
<polygon fill="none" stroke="#000000" points="74,-565.5 74,-595.5 324,-595.5 324,-565.5 74,-565.5"/>
<text text-anchor="start" x="81" y="-576.9" font-family="Arial" font-size="14.00" fill="#000000">template    </text>
<text text-anchor="start" x="168.8836" y="-576.9" font-family="Arial" font-size="14.00" fill="#666666">[varchar(255)]</text>
<polygon fill="none" stroke="#000000" points="74,-535.5 74,-565.5 324,-565.5 324,-535.5 74,-535.5"/>
<text text-anchor="start" x="81" y="-546.9" font-family="Arial" font-size="14.00" fill="#000000">extra_content    </text>
<text text-anchor="start" x="200.0154" y="-546.9" font-family="Arial" font-size="14.00" fill="#666666">[json]</text>
<polygon fill="none" stroke="#000000" points="74,-505.5 74,-535.5 324,-535.5 324,-505.5 74,-505.5"/>
<text text-anchor="start" x="81" y="-516.9" font-family="Arial" font-size="14.00" fill="#000000">created_at    </text>
<text text-anchor="start" x="181.3422" y="-516.9" font-family="Arial" font-size="14.00" fill="#666666">[timestamp]</text>
<polygon fill="none" stroke="#000000" points="74,-475.5 74,-505.5 324,-505.5 324,-475.5 74,-475.5"/>
<text text-anchor="start" x="81" y="-486.9" font-family="Arial" font-size="14.00" fill="#000000">updated_at    </text>
<text text-anchor="start" x="185.2468" y="-486.9" font-family="Arial" font-size="14.00" fill="#666666">[timestamp]</text>
</g>
<!-- hardwares&#45;&gt;product_inventories -->
<g id="edge1" class="edge">
<title>hardwares:inventory_id&#45;&gt;product_inventories:id</title>
<path fill="none" stroke="#000000" d="M333.9165,-668.5093C400.8569,-639.3863 323.4924,-300.5 404,-300.5"/>
<polygon fill="#000000" stroke="#000000" points="333.8044,-668.5317 323.1143,-666.088 328.9022,-669.5159 324,-670.5 324,-670.5 324,-670.5 328.9022,-669.5159 324.8857,-674.912 333.8044,-668.5317 333.8044,-668.5317"/>
<text text-anchor="start" x="6.9885" y="-680.5" font-family="Arial" font-size="10.00" fill="#000000">FOREIGN KEY (inventory_id) REFERENCES product_inventories (id)</text>
</g>
<!-- loans -->
<g id="node3" class="node">
<title>loans</title>
<polygon fill="#efefef" stroke="transparent" points="428,-940.5 428,-975.5 678,-975.5 678,-940.5 428,-940.5"/>
<polygon fill="none" stroke="#000000" points="428,-940.5 428,-975.5 678,-975.5 678,-940.5 428,-940.5"/>
<text text-anchor="start" x="467.7096" y="-953.3" font-family="Arial Bold" font-size="18.00" fill="#000000">loans</text>
<text text-anchor="start" x="510.7224" y="-953.3" font-family="Arial" font-size="14.00" fill="#000000">    </text>
<text text-anchor="start" x="544.9272" y="-953.3" font-family="Arial" font-size="14.00" fill="#666666">[BASE TABLE]</text>
<polygon fill="none" stroke="#000000" points="428,-910.5 428,-940.5 678,-940.5 678,-910.5 428,-910.5"/>
<text text-anchor="start" x="435" y="-921.9" font-family="Arial" font-size="14.00" fill="#000000">id    </text>
<text text-anchor="start" x="480.094" y="-921.9" font-family="Arial" font-size="14.00" fill="#666666">[bigint(20) unsigned]</text>
<polygon fill="none" stroke="#000000" points="428,-880.5 428,-910.5 678,-910.5 678,-880.5 428,-880.5"/>
<text text-anchor="start" x="435" y="-891.9" font-family="Arial" font-size="14.00" fill="#000000">product_id    </text>
<text text-anchor="start" x="534.5582" y="-891.9" font-family="Arial" font-size="14.00" fill="#666666">[bigint(20) unsigned]</text>
<polygon fill="none" stroke="#000000" points="428,-850.5 428,-880.5 678,-880.5 678,-850.5 428,-850.5"/>
<text text-anchor="start" x="435" y="-861.9" font-family="Arial" font-size="14.00" fill="#000000">user_id    </text>
<text text-anchor="start" x="515.1024" y="-861.9" font-family="Arial" font-size="14.00" fill="#666666">[bigint(20) unsigned]</text>
<polygon fill="none" stroke="#000000" points="428,-820.5 428,-850.5 678,-850.5 678,-820.5 428,-820.5"/>
<text text-anchor="start" x="435" y="-831.9" font-family="Arial" font-size="14.00" fill="#000000">loan_start    </text>
<text text-anchor="start" x="530.6662" y="-831.9" font-family="Arial" font-size="14.00" fill="#666666">[datetime]</text>
<polygon fill="none" stroke="#000000" points="428,-790.5 428,-820.5 678,-820.5 678,-790.5 428,-790.5"/>
<text text-anchor="start" x="435" y="-801.9" font-family="Arial" font-size="14.00" fill="#000000">loan_end    </text>
<text text-anchor="start" x="526.7896" y="-801.9" font-family="Arial" font-size="14.00" fill="#666666">[datetime]</text>
<polygon fill="none" stroke="#000000" points="428,-760.5 428,-790.5 678,-790.5 678,-760.5 428,-760.5"/>
<text text-anchor="start" x="435" y="-771.9" font-family="Arial" font-size="14.00" fill="#000000">is_available    </text>
<text text-anchor="start" x="542.3268" y="-771.9" font-family="Arial" font-size="14.00" fill="#666666">[tinyint(1)]</text>
<polygon fill="none" stroke="#000000" points="428,-730.5 428,-760.5 678,-760.5 678,-730.5 428,-730.5"/>
<text text-anchor="start" x="435" y="-741.9" font-family="Arial" font-size="14.00" fill="#000000">status    </text>
<text text-anchor="start" x="506.5512" y="-741.9" font-family="Arial" font-size="14.00" fill="#666666">[varchar(255)]</text>
<polygon fill="none" stroke="#000000" points="428,-700.5 428,-730.5 678,-730.5 678,-700.5 428,-700.5"/>
<text text-anchor="start" x="435" y="-711.9" font-family="Arial" font-size="14.00" fill="#000000">quantity    </text>
<text text-anchor="start" x="518.223" y="-711.9" font-family="Arial" font-size="14.00" fill="#666666">[int(11)]</text>
<polygon fill="none" stroke="#000000" points="428,-670.5 428,-700.5 678,-700.5 678,-670.5 428,-670.5"/>
<text text-anchor="start" x="434.7616" y="-681.9" font-family="Arial" font-size="14.00" fill="#000000">inventory_id    </text>
<text text-anchor="start" x="544.4264" y="-681.9" font-family="Arial" font-size="14.00" fill="#666666">[bigint(20) unsigned]</text>
<polygon fill="none" stroke="#000000" points="428,-640.5 428,-670.5 678,-670.5 678,-640.5 428,-640.5"/>
<text text-anchor="start" x="435" y="-651.9" font-family="Arial" font-size="14.00" fill="#000000">is_returned    </text>
<text text-anchor="start" x="539.2188" y="-651.9" font-family="Arial" font-size="14.00" fill="#666666">[tinyint(1)]</text>
<polygon fill="none" stroke="#000000" points="428,-610.5 428,-640.5 678,-640.5 678,-610.5 428,-610.5"/>
<text text-anchor="start" x="435" y="-621.9" font-family="Arial" font-size="14.00" fill="#000000">created_at    </text>
<text text-anchor="start" x="535.3422" y="-621.9" font-family="Arial" font-size="14.00" fill="#666666">[timestamp]</text>
<polygon fill="none" stroke="#000000" points="428,-580.5 428,-610.5 678,-610.5 678,-580.5 428,-580.5"/>
<text text-anchor="start" x="435" y="-591.9" font-family="Arial" font-size="14.00" fill="#000000">updated_at    </text>
<text text-anchor="start" x="539.2468" y="-591.9" font-family="Arial" font-size="14.00" fill="#666666">[timestamp]</text>
</g>
<!-- loans&#45;&gt;product_inventories -->
<g id="edge2" class="edge">
<title>loans:inventory_id&#45;&gt;product_inventories:id</title>
<path fill="none" stroke="#000000" d="M686.7445,-680.0575C723.9053,-633.2628 741.8472,-300.5 702,-300.5"/>
<polygon fill="#000000" stroke="#000000" points="686.49,-680.2159 675.6222,-681.6795 682.245,-682.858 678,-685.5 678,-685.5 678,-685.5 682.245,-682.858 680.3778,-689.3205 686.49,-680.2159 686.49,-680.2159"/>
<text text-anchor="start" x="360.9885" y="-695.5" font-family="Arial" font-size="10.00" fill="#000000">FOREIGN KEY (inventory_id) REFERENCES product_inventories (id)</text>
</g>
<!-- product_categories -->
<g id="node4" class="node">
<title>product_categories</title>
<polygon fill="#efefef" stroke="transparent" points="782,-895.5 782,-930.5 1076,-930.5 1076,-895.5 782,-895.5"/>
<polygon fill="none" stroke="#000000" points="782,-895.5 782,-930.5 1076,-930.5 1076,-895.5 782,-895.5"/>
<text text-anchor="start" x="788.6935" y="-908.3" font-family="Arial Bold" font-size="18.00" fill="#000000">product_categories</text>
<text text-anchor="start" x="941.7385" y="-908.3" font-family="Arial" font-size="14.00" fill="#000000">    </text>
<text text-anchor="start" x="975.9433" y="-908.3" font-family="Arial" font-size="14.00" fill="#666666">[BASE TABLE]</text>
<polygon fill="none" stroke="#000000" points="782,-865.5 782,-895.5 1076,-895.5 1076,-865.5 782,-865.5"/>
<text text-anchor="start" x="789" y="-876.9" font-family="Arial" font-size="14.00" fill="#000000">id    </text>
<text text-anchor="start" x="834.094" y="-876.9" font-family="Arial" font-size="14.00" fill="#666666">[bigint(20) unsigned]</text>
<polygon fill="none" stroke="#000000" points="782,-835.5 782,-865.5 1076,-865.5 1076,-835.5 782,-835.5"/>
<text text-anchor="start" x="789" y="-846.9" font-family="Arial" font-size="14.00" fill="#000000">product_category_name    </text>
<text text-anchor="start" x="974.1416" y="-846.9" font-family="Arial" font-size="14.00" fill="#666666">[varchar(255)]</text>
<polygon fill="none" stroke="#000000" points="782,-805.5 782,-835.5 1076,-835.5 1076,-805.5 782,-805.5"/>
<text text-anchor="start" x="789" y="-816.9" font-family="Arial" font-size="14.00" fill="#000000">product_category_description    </text>
<text text-anchor="start" x="1006.8106" y="-816.9" font-family="Arial" font-size="14.00" fill="#666666">[text]</text>
<polygon fill="none" stroke="#000000" points="782,-775.5 782,-805.5 1076,-805.5 1076,-775.5 782,-775.5"/>
<text text-anchor="start" x="789" y="-786.9" font-family="Arial" font-size="14.00" fill="#000000">brand_id    </text>
<text text-anchor="start" x="877.6676" y="-786.9" font-family="Arial" font-size="14.00" fill="#666666">[bigint(20) unsigned]</text>
<polygon fill="none" stroke="#000000" points="782,-745.5 782,-775.5 1076,-775.5 1076,-745.5 782,-745.5"/>
<text text-anchor="start" x="789" y="-756.9" font-family="Arial" font-size="14.00" fill="#000000">inventory_id    </text>
<text text-anchor="start" x="898.6648" y="-756.9" font-family="Arial" font-size="14.00" fill="#666666">[bigint(20) unsigned]</text>
<polygon fill="none" stroke="#000000" points="782,-715.5 782,-745.5 1076,-745.5 1076,-715.5 782,-715.5"/>
<text text-anchor="start" x="789" y="-726.9" font-family="Arial" font-size="14.00" fill="#000000">product_created_at    </text>
<text text-anchor="start" x="943.8064" y="-726.9" font-family="Arial" font-size="14.00" fill="#666666">[datetime]</text>
<polygon fill="none" stroke="#000000" points="782,-685.5 782,-715.5 1076,-715.5 1076,-685.5 782,-685.5"/>
<text text-anchor="start" x="789" y="-696.9" font-family="Arial" font-size="14.00" fill="#000000">product_modified_at    </text>
<text text-anchor="start" x="950.0196" y="-696.9" font-family="Arial" font-size="14.00" fill="#666666">[datetime]</text>
<polygon fill="none" stroke="#000000" points="782,-655.5 782,-685.5 1076,-685.5 1076,-655.5 782,-655.5"/>
<text text-anchor="start" x="789" y="-666.9" font-family="Arial" font-size="14.00" fill="#000000">created_at    </text>
<text text-anchor="start" x="889.3422" y="-666.9" font-family="Arial" font-size="14.00" fill="#666666">[timestamp]</text>
<polygon fill="none" stroke="#000000" points="782,-625.5 782,-655.5 1076,-655.5 1076,-625.5 782,-625.5"/>
<text text-anchor="start" x="789" y="-636.9" font-family="Arial" font-size="14.00" fill="#000000">updated_at    </text>
<text text-anchor="start" x="893.2468" y="-636.9" font-family="Arial" font-size="14.00" fill="#666666">[timestamp]</text>
</g>
<!-- product_categories&#45;&gt;product_inventories -->
<g id="edge3" class="edge">
<title>product_categories:inventory_id&#45;&gt;product_inventories:id</title>
<path fill="none" stroke="#000000" d="M771.8943,-758.8343C686.9233,-728.7248 802.1089,-300.5 702,-300.5"/>
<polygon fill="#000000" stroke="#000000" points="772.1331,-758.8736 781.2681,-764.9401 777.0666,-759.6868 782,-760.5 782,-760.5 782,-760.5 777.0666,-759.6868 782.7319,-756.0599 772.1331,-758.8736 772.1331,-758.8736"/>
<text text-anchor="start" x="788.9885" y="-770.5" font-family="Arial" font-size="10.00" fill="#000000">FOREIGN KEY (inventory_id) REFERENCES product_inventories (id)</text>
</g>
</g>
</svg>
