<?xml version="1.0" encoding="UTF-8" standalone="no"?>
<!DOCTYPE svg PUBLIC "-//W3C//DTD SVG 1.1//EN"
 "http://www.w3.org/Graphics/SVG/1.1/DTD/svg11.dtd">
<!-- Generated by graphviz version 2.40.1 (20161225.0304)
 -->
<!-- Title: questions Pages: 1 -->
<svg width="651pt" height="1349pt"
 viewBox="0.00 0.00 650.50 1349.00" xmlns="http://www.w3.org/2000/svg" xmlns:xlink="http://www.w3.org/1999/xlink">
<g id="graph0" class="graph" transform="scale(1 1) rotate(0) translate(4 1345)">
<title>questions</title>
<polygon fill="#ffffff" stroke="transparent" points="-4,4 -4,-1345 646.5,-1345 646.5,4 -4,4"/>
<!-- questions -->
<g id="node1" class="node">
<title>questions</title>
<polygon fill="#efefef" stroke="transparent" points="93.5,-922.5 93.5,-957.5 317.5,-957.5 317.5,-922.5 93.5,-922.5"/>
<polygon fill="none" stroke="#000000" points="93.5,-922.5 93.5,-957.5 317.5,-957.5 317.5,-922.5 93.5,-922.5"/>
<text text-anchor="start" x="103.2023" y="-935.3" font-family="Arial Bold" font-size="18.00" fill="#000000">questions</text>
<text text-anchor="start" x="180.2297" y="-935.3" font-family="Arial" font-size="14.00" fill="#000000">    </text>
<text text-anchor="start" x="214.4345" y="-935.3" font-family="Arial" font-size="14.00" fill="#666666">[BASE TABLE]</text>
<polygon fill="none" stroke="#000000" points="93.5,-892.5 93.5,-922.5 317.5,-922.5 317.5,-892.5 93.5,-892.5"/>
<text text-anchor="start" x="100.5" y="-903.9" font-family="Arial" font-size="14.00" fill="#000000">id </text>
<text text-anchor="start" x="115.2798" y="-903.9" font-family="Arial" font-size="14.00" fill="#666666">[bigint(20) unsigned]</text>
<polygon fill="none" stroke="#000000" points="93.5,-862.5 93.5,-892.5 317.5,-892.5 317.5,-862.5 93.5,-862.5"/>
<text text-anchor="start" x="100.5" y="-873.9" font-family="Arial" font-size="14.00" fill="#000000">survey_id </text>
<text text-anchor="start" x="164.2882" y="-873.9" font-family="Arial" font-size="14.00" fill="#666666">[bigint(20) unsigned]</text>
<polygon fill="none" stroke="#000000" points="93.5,-832.5 93.5,-862.5 317.5,-862.5 317.5,-832.5 93.5,-832.5"/>
<text text-anchor="start" x="100.5" y="-843.9" font-family="Arial" font-size="14.00" fill="#000000">domain </text>
<text text-anchor="start" x="150.2882" y="-843.9" font-family="Arial" font-size="14.00" fill="#666666">[varchar(255)]</text>
<polygon fill="none" stroke="#000000" points="93.5,-802.5 93.5,-832.5 317.5,-832.5 317.5,-802.5 93.5,-802.5"/>
<text text-anchor="start" x="100.5" y="-813.9" font-family="Arial" font-size="14.00" fill="#000000">question </text>
<text text-anchor="start" x="157.3008" y="-813.9" font-family="Arial" font-size="14.00" fill="#666666">[text]</text>
<polygon fill="none" stroke="#000000" points="93.5,-772.5 93.5,-802.5 317.5,-802.5 317.5,-772.5 93.5,-772.5"/>
<text text-anchor="start" x="100.5" y="-783.9" font-family="Arial" font-size="14.00" fill="#000000">element </text>
<text text-anchor="start" x="154.1788" y="-783.9" font-family="Arial" font-size="14.00" fill="#666666">[varchar(255)]</text>
<polygon fill="none" stroke="#000000" points="93.5,-742.5 93.5,-772.5 317.5,-772.5 317.5,-742.5 93.5,-742.5"/>
<text text-anchor="start" x="100.087" y="-753.9" font-family="Arial" font-size="14.00" fill="#000000">generated_variable </text>
<text text-anchor="start" x="223.7938" y="-753.9" font-family="Arial" font-size="14.00" fill="#666666">[varchar(255)]</text>
<polygon fill="none" stroke="#000000" points="93.5,-712.5 93.5,-742.5 317.5,-742.5 317.5,-712.5 93.5,-712.5"/>
<text text-anchor="start" x="100.5" y="-723.9" font-family="Arial" font-size="14.00" fill="#000000">domain_print </text>
<text text-anchor="start" x="185.2938" y="-723.9" font-family="Arial" font-size="14.00" fill="#666666">[varchar(255)]</text>
<polygon fill="none" stroke="#000000" points="93.5,-682.5 93.5,-712.5 317.5,-712.5 317.5,-682.5 93.5,-682.5"/>
<text text-anchor="start" x="100.5" y="-693.9" font-family="Arial" font-size="14.00" fill="#000000">advice </text>
<text text-anchor="start" x="144.845" y="-693.9" font-family="Arial" font-size="14.00" fill="#666666">[text]</text>
<polygon fill="none" stroke="#000000" points="93.5,-652.5 93.5,-682.5 317.5,-682.5 317.5,-652.5 93.5,-652.5"/>
<text text-anchor="start" x="100.5" y="-663.9" font-family="Arial" font-size="14.00" fill="#000000">description </text>
<text text-anchor="start" x="172.068" y="-663.9" font-family="Arial" font-size="14.00" fill="#666666">[text]</text>
<polygon fill="none" stroke="#000000" points="93.5,-622.5 93.5,-652.5 317.5,-652.5 317.5,-622.5 93.5,-622.5"/>
<text text-anchor="start" x="100.5" y="-633.9" font-family="Arial" font-size="14.00" fill="#000000">question_example </text>
<text text-anchor="start" x="217.981" y="-633.9" font-family="Arial" font-size="14.00" fill="#666666">[text]</text>
<polygon fill="none" stroke="#000000" points="93.5,-592.5 93.5,-622.5 317.5,-622.5 317.5,-592.5 93.5,-592.5"/>
<text text-anchor="start" x="100.5" y="-603.9" font-family="Arial" font-size="14.00" fill="#000000">variable_suffix </text>
<text text-anchor="start" x="193.8478" y="-603.9" font-family="Arial" font-size="14.00" fill="#666666">[varchar(255)]</text>
<polygon fill="none" stroke="#000000" points="93.5,-562.5 93.5,-592.5 317.5,-592.5 317.5,-562.5 93.5,-562.5"/>
<text text-anchor="start" x="100.5" y="-573.9" font-family="Arial" font-size="14.00" fill="#000000">dependencies </text>
<text text-anchor="start" x="191.5406" y="-573.9" font-family="Arial" font-size="14.00" fill="#666666">[varchar(255)]</text>
<polygon fill="none" stroke="#000000" points="93.5,-532.5 93.5,-562.5 317.5,-562.5 317.5,-532.5 93.5,-532.5"/>
<text text-anchor="start" x="100.5" y="-543.9" font-family="Arial" font-size="14.00" fill="#000000">phase </text>
<text text-anchor="start" x="142.521" y="-543.9" font-family="Arial" font-size="14.00" fill="#666666">[int(11)]</text>
<polygon fill="none" stroke="#000000" points="93.5,-502.5 93.5,-532.5 317.5,-532.5 317.5,-502.5 93.5,-502.5"/>
<text text-anchor="start" x="100.5" y="-513.9" font-family="Arial" font-size="14.00" fill="#000000">phase_description </text>
<text text-anchor="start" x="217.981" y="-513.9" font-family="Arial" font-size="14.00" fill="#666666">[varchar(255)]</text>
<polygon fill="none" stroke="#000000" points="93.5,-472.5 93.5,-502.5 317.5,-502.5 317.5,-472.5 93.5,-472.5"/>
<text text-anchor="start" x="100.5" y="-483.9" font-family="Arial" font-size="14.00" fill="#000000">indicator </text>
<text text-anchor="start" x="157.2854" y="-483.9" font-family="Arial" font-size="14.00" fill="#666666">[varchar(255)]</text>
<polygon fill="none" stroke="#000000" points="93.5,-442.5 93.5,-472.5 317.5,-472.5 317.5,-442.5 93.5,-442.5"/>
<text text-anchor="start" x="100.5" y="-453.9" font-family="Arial" font-size="14.00" fill="#000000">element_print </text>
<text text-anchor="start" x="189.1844" y="-453.9" font-family="Arial" font-size="14.00" fill="#666666">[text]</text>
<polygon fill="none" stroke="#000000" points="93.5,-412.5 93.5,-442.5 317.5,-442.5 317.5,-412.5 93.5,-412.5"/>
<text text-anchor="start" x="100.5" y="-423.9" font-family="Arial" font-size="14.00" fill="#000000">indicator_print </text>
<text text-anchor="start" x="192.291" y="-423.9" font-family="Arial" font-size="14.00" fill="#666666">[varchar(255)]</text>
<polygon fill="none" stroke="#000000" points="93.5,-382.5 93.5,-412.5 317.5,-412.5 317.5,-382.5 93.5,-382.5"/>
<text text-anchor="start" x="100.5" y="-393.9" font-family="Arial" font-size="14.00" fill="#000000">element_description </text>
<text text-anchor="start" x="229.6388" y="-393.9" font-family="Arial" font-size="14.00" fill="#666666">[text]</text>
<polygon fill="none" stroke="#000000" points="93.5,-352.5 93.5,-382.5 317.5,-382.5 317.5,-352.5 93.5,-352.5"/>
<text text-anchor="start" x="100.5" y="-363.9" font-family="Arial" font-size="14.00" fill="#000000">created_at </text>
<text text-anchor="start" x="170.528" y="-363.9" font-family="Arial" font-size="14.00" fill="#666666">[timestamp]</text>
<polygon fill="none" stroke="#000000" points="93.5,-322.5 93.5,-352.5 317.5,-352.5 317.5,-322.5 93.5,-322.5"/>
<text text-anchor="start" x="100.5" y="-333.9" font-family="Arial" font-size="14.00" fill="#000000">updated_at </text>
<text text-anchor="start" x="174.4326" y="-333.9" font-family="Arial" font-size="14.00" fill="#666666">[timestamp]</text>
<polygon fill="none" stroke="#000000" stroke-width="3" points="92,-321.5 92,-959.5 319,-959.5 319,-321.5 92,-321.5"/>
</g>
<!-- surveys -->
<g id="node3" class="node">
<title>surveys</title>
<polygon fill="#efefef" stroke="transparent" points="95.5,-162.5 95.5,-197.5 315.5,-197.5 315.5,-162.5 95.5,-162.5"/>
<polygon fill="none" stroke="#000000" points="95.5,-162.5 95.5,-197.5 315.5,-197.5 315.5,-162.5 95.5,-162.5"/>
<text text-anchor="start" x="110.7137" y="-175.3" font-family="Arial Bold" font-size="18.00" fill="#000000">surveys</text>
<text text-anchor="start" x="172.7183" y="-175.3" font-family="Arial" font-size="14.00" fill="#000000">    </text>
<text text-anchor="start" x="206.9231" y="-175.3" font-family="Arial" font-size="14.00" fill="#666666">[BASE TABLE]</text>
<polygon fill="none" stroke="#000000" points="95.5,-132.5 95.5,-162.5 315.5,-162.5 315.5,-132.5 95.5,-132.5"/>
<text text-anchor="start" x="102.4341" y="-143.9" font-family="Arial" font-size="14.00" fill="#000000">version    </text>
<text text-anchor="start" x="181.7539" y="-143.9" font-family="Arial" font-size="14.00" fill="#666666">[bigint(20) unsigned]</text>
<polygon fill="none" stroke="#000000" points="95.5,-102.5 95.5,-132.5 315.5,-132.5 315.5,-102.5 95.5,-102.5"/>
<text text-anchor="start" x="102.5" y="-113.9" font-family="Arial" font-size="14.00" fill="#000000">is_active    </text>
<text text-anchor="start" x="191.1564" y="-113.9" font-family="Arial" font-size="14.00" fill="#666666">[tinyint(1)]</text>
<polygon fill="none" stroke="#000000" points="95.5,-72.5 95.5,-102.5 315.5,-102.5 315.5,-72.5 95.5,-72.5"/>
<text text-anchor="start" x="102.5" y="-83.9" font-family="Arial" font-size="14.00" fill="#000000">created_at    </text>
<text text-anchor="start" x="202.8422" y="-83.9" font-family="Arial" font-size="14.00" fill="#666666">[timestamp]</text>
<polygon fill="none" stroke="#000000" points="95.5,-42.5 95.5,-72.5 315.5,-72.5 315.5,-42.5 95.5,-42.5"/>
<text text-anchor="start" x="102.5" y="-53.9" font-family="Arial" font-size="14.00" fill="#000000">updated_at    </text>
<text text-anchor="start" x="206.7468" y="-53.9" font-family="Arial" font-size="14.00" fill="#666666">[timestamp]</text>
</g>
<!-- questions&#45;&gt;surveys -->
<g id="edge2" class="edge">
<title>questions:survey_id&#45;&gt;surveys:version</title>
<path fill="none" stroke="#000000" d="M327.7284,-876.5036C479.5629,-846.4698 474.2376,-147.5 315.5,-147.5"/>
<polygon fill="#000000" stroke="#000000" points="327.4529,-876.5304 317.0637,-873.0212 322.4764,-877.0152 317.5,-877.5 317.5,-877.5 317.5,-877.5 322.4764,-877.0152 317.9363,-881.9788 327.4529,-876.5304 327.4529,-876.5304"/>
<text text-anchor="start" x="324.2215" y="-887.5" font-family="Arial" font-size="10.00" fill="#000000">FOREIGN KEY (survey_id) REFERENCES surveys (version)</text>
</g>
<!-- user_answers -->
<g id="node2" class="node">
<title>user_answers</title>
<polygon fill="#efefef" stroke="transparent" points="43.5,-1262.5 43.5,-1297.5 366.5,-1297.5 366.5,-1262.5 43.5,-1262.5"/>
<polygon fill="none" stroke="#000000" points="43.5,-1262.5 43.5,-1297.5 366.5,-1297.5 366.5,-1262.5 43.5,-1262.5"/>
<text text-anchor="start" x="85.2081" y="-1275.3" font-family="Arial Bold" font-size="18.00" fill="#000000">user_answers</text>
<text text-anchor="start" x="197.2239" y="-1275.3" font-family="Arial" font-size="14.00" fill="#000000">    </text>
<text text-anchor="start" x="231.4287" y="-1275.3" font-family="Arial" font-size="14.00" fill="#666666">[BASE TABLE]</text>
<polygon fill="none" stroke="#000000" points="43.5,-1232.5 43.5,-1262.5 366.5,-1262.5 366.5,-1232.5 43.5,-1232.5"/>
<text text-anchor="start" x="50.5" y="-1243.9" font-family="Arial" font-size="14.00" fill="#000000">id    </text>
<text text-anchor="start" x="95.594" y="-1243.9" font-family="Arial" font-size="14.00" fill="#666666">[bigint(20) unsigned]</text>
<polygon fill="none" stroke="#000000" points="43.5,-1202.5 43.5,-1232.5 366.5,-1232.5 366.5,-1202.5 43.5,-1202.5"/>
<text text-anchor="start" x="50.5" y="-1213.9" font-family="Arial" font-size="14.00" fill="#000000">question_id    </text>
<text text-anchor="start" x="156.2868" y="-1213.9" font-family="Arial" font-size="14.00" fill="#666666">[bigint(20) unsigned]</text>
<polygon fill="none" stroke="#000000" points="43.5,-1172.5 43.5,-1202.5 366.5,-1202.5 366.5,-1172.5 43.5,-1172.5"/>
<text text-anchor="start" x="50.1985" y="-1183.9" font-family="Arial" font-size="14.00" fill="#000000">user_survey_domain_id    </text>
<text text-anchor="start" x="232.9895" y="-1183.9" font-family="Arial" font-size="14.00" fill="#666666">[bigint(20) unsigned]</text>
<polygon fill="none" stroke="#000000" points="43.5,-1142.5 43.5,-1172.5 366.5,-1172.5 366.5,-1142.5 43.5,-1142.5"/>
<text text-anchor="start" x="50.5" y="-1153.9" font-family="Arial" font-size="14.00" fill="#000000">answer    </text>
<text text-anchor="start" x="129.8198" y="-1153.9" font-family="Arial" font-size="14.00" fill="#666666">[enum(&#39;0&#39;,&#39;1&#39;,&#39;2&#39;)]</text>
<polygon fill="none" stroke="#000000" points="43.5,-1112.5 43.5,-1142.5 366.5,-1142.5 366.5,-1112.5 43.5,-1112.5"/>
<text text-anchor="start" x="50.5" y="-1123.9" font-family="Arial" font-size="14.00" fill="#000000">answer_text    </text>
<text text-anchor="start" x="160.1662" y="-1123.9" font-family="Arial" font-size="14.00" fill="#666666">[text]</text>
<polygon fill="none" stroke="#000000" points="43.5,-1082.5 43.5,-1112.5 366.5,-1112.5 366.5,-1082.5 43.5,-1082.5"/>
<text text-anchor="start" x="50.5" y="-1093.9" font-family="Arial" font-size="14.00" fill="#000000">created_at    </text>
<text text-anchor="start" x="150.8422" y="-1093.9" font-family="Arial" font-size="14.00" fill="#666666">[timestamp]</text>
</g>
<!-- user_answers&#45;&gt;questions -->
<g id="edge1" class="edge">
<title>user_answers:question_id&#45;&gt;questions:id</title>
<path fill="none" stroke="#000000" d="M376.4985,-1216.8006C442.9232,-1207.0008 416.1724,-1096.6527 366.5,-1040 285.8166,-947.9785 174.1834,-1096.0215 93.5,-1004 65.2248,-971.7514 50.6111,-907.5 93.5,-907.5"/>
<polygon fill="#000000" stroke="#000000" points="376.4756,-1216.8021 366.1859,-1213.011 371.4878,-1217.151 366.5,-1217.5 366.5,-1217.5 366.5,-1217.5 371.4878,-1217.151 366.8141,-1221.989 376.4756,-1216.8021 376.4756,-1216.8021"/>
<text text-anchor="start" x="373.099" y="-1227.5" font-family="Arial" font-size="10.00" fill="#000000">FOREIGN KEY (question_id) REFERENCES questions (id)</text>
</g>
</g>
</svg>
