<?xml version="1.0" encoding="UTF-8" standalone="no"?>
<!DOCTYPE svg PUBLIC "-//W3C//DTD SVG 1.1//EN"
 "http://www.w3.org/Graphics/SVG/1.1/DTD/svg11.dtd">
<!-- Generated by graphviz version 2.40.1 (20161225.0304)
 -->
<!-- Title: role_metas Pages: 1 -->
<svg width="518pt" height="652pt"
 viewBox="0.00 0.00 518.00 652.00" xmlns="http://www.w3.org/2000/svg" xmlns:xlink="http://www.w3.org/1999/xlink">
<g id="graph0" class="graph" transform="scale(1 1) rotate(0) translate(4 648)">
<title>role_metas</title>
<polygon fill="#ffffff" stroke="transparent" points="-4,4 -4,-648 514,-648 514,4 -4,4"/>
<!-- role_metas -->
<g id="node1" class="node">
<title>role_metas</title>
<polygon fill="#efefef" stroke="transparent" points="234,-562.5 234,-597.5 464,-597.5 464,-562.5 234,-562.5"/>
<polygon fill="none" stroke="#000000" points="234,-562.5 234,-597.5 464,-597.5 464,-562.5 234,-562.5"/>
<text text-anchor="start" x="240.7101" y="-575.3" font-family="Arial Bold" font-size="18.00" fill="#000000">role_metas</text>
<text text-anchor="start" x="329.7219" y="-575.3" font-family="Arial" font-size="14.00" fill="#000000">    </text>
<text text-anchor="start" x="363.9267" y="-575.3" font-family="Arial" font-size="14.00" fill="#666666">[BASE TABLE]</text>
<polygon fill="none" stroke="#000000" points="234,-532.5 234,-562.5 464,-562.5 464,-532.5 234,-532.5"/>
<text text-anchor="start" x="241" y="-543.9" font-family="Arial" font-size="14.00" fill="#000000">id </text>
<text text-anchor="start" x="255.7798" y="-543.9" font-family="Arial" font-size="14.00" fill="#666666">[bigint(20) unsigned]</text>
<polygon fill="none" stroke="#000000" points="234,-502.5 234,-532.5 464,-532.5 464,-502.5 234,-502.5"/>
<text text-anchor="start" x="241" y="-513.9" font-family="Arial" font-size="14.00" fill="#000000">role_id </text>
<text text-anchor="start" x="286.8948" y="-513.9" font-family="Arial" font-size="14.00" fill="#666666">[bigint(20) unsigned]</text>
<polygon fill="none" stroke="#000000" points="234,-472.5 234,-502.5 464,-502.5 464,-472.5 234,-472.5"/>
<text text-anchor="start" x="241" y="-483.9" font-family="Arial" font-size="14.00" fill="#000000">role_meta_key </text>
<text text-anchor="start" x="336.6872" y="-483.9" font-family="Arial" font-size="14.00" fill="#666666">[varchar(255)]</text>
<polygon fill="none" stroke="#000000" points="234,-442.5 234,-472.5 464,-472.5 464,-442.5 234,-442.5"/>
<text text-anchor="start" x="241" y="-453.9" font-family="Arial" font-size="14.00" fill="#000000">role_meta_value </text>
<text text-anchor="start" x="348.359" y="-453.9" font-family="Arial" font-size="14.00" fill="#666666">[text]</text>
<polygon fill="none" stroke="#000000" points="234,-412.5 234,-442.5 464,-442.5 464,-412.5 234,-412.5"/>
<text text-anchor="start" x="241" y="-423.9" font-family="Arial" font-size="14.00" fill="#000000">created_at </text>
<text text-anchor="start" x="311.028" y="-423.9" font-family="Arial" font-size="14.00" fill="#666666">[timestamp]</text>
<polygon fill="none" stroke="#000000" points="234,-382.5 234,-412.5 464,-412.5 464,-382.5 234,-382.5"/>
<text text-anchor="start" x="241" y="-393.9" font-family="Arial" font-size="14.00" fill="#000000">updated_at </text>
<text text-anchor="start" x="314.9326" y="-393.9" font-family="Arial" font-size="14.00" fill="#666666">[timestamp]</text>
<polygon fill="none" stroke="#000000" stroke-width="3" points="232.5,-381.5 232.5,-599.5 465.5,-599.5 465.5,-381.5 232.5,-381.5"/>
</g>
<!-- roles -->
<g id="node2" class="node">
<title>roles</title>
<polygon fill="#efefef" stroke="transparent" points="248,-222.5 248,-257.5 449,-257.5 449,-222.5 248,-222.5"/>
<polygon fill="none" stroke="#000000" points="248,-222.5 248,-257.5 449,-257.5 449,-222.5 248,-222.5"/>
<text text-anchor="start" x="265.2166" y="-235.3" font-family="Arial Bold" font-size="18.00" fill="#000000">roles</text>
<text text-anchor="start" x="304.2154" y="-235.3" font-family="Arial" font-size="14.00" fill="#000000">    </text>
<text text-anchor="start" x="338.4202" y="-235.3" font-family="Arial" font-size="14.00" fill="#666666">[BASE TABLE]</text>
<polygon fill="none" stroke="#000000" points="248,-192.5 248,-222.5 449,-222.5 449,-192.5 248,-192.5"/>
<text text-anchor="start" x="255" y="-203.9" font-family="Arial" font-size="14.00" fill="#000000">id    </text>
<text text-anchor="start" x="300.094" y="-203.9" font-family="Arial" font-size="14.00" fill="#666666">[bigint(20) unsigned]</text>
<polygon fill="none" stroke="#000000" points="248,-162.5 248,-192.5 449,-192.5 449,-162.5 248,-162.5"/>
<text text-anchor="start" x="255" y="-173.9" font-family="Arial" font-size="14.00" fill="#000000">role_uid    </text>
<text text-anchor="start" x="338.9916" y="-173.9" font-family="Arial" font-size="14.00" fill="#666666">[varchar(255)]</text>
<polygon fill="none" stroke="#000000" points="248,-132.5 248,-162.5 449,-162.5 449,-132.5 248,-132.5"/>
<text text-anchor="start" x="254.7763" y="-143.9" font-family="Arial" font-size="14.00" fill="#000000">role_name    </text>
<text text-anchor="start" x="355.1045" y="-143.9" font-family="Arial" font-size="14.00" fill="#666666">[varchar(255)]</text>
<polygon fill="none" stroke="#000000" points="248,-102.5 248,-132.5 449,-132.5 449,-102.5 248,-102.5"/>
<text text-anchor="start" x="255" y="-113.9" font-family="Arial" font-size="14.00" fill="#000000">role_value    </text>
<text text-anchor="start" x="353.7742" y="-113.9" font-family="Arial" font-size="14.00" fill="#666666">[text]</text>
<polygon fill="none" stroke="#000000" points="248,-72.5 248,-102.5 449,-102.5 449,-72.5 248,-72.5"/>
<text text-anchor="start" x="255" y="-83.9" font-family="Arial" font-size="14.00" fill="#000000">created_at    </text>
<text text-anchor="start" x="355.3422" y="-83.9" font-family="Arial" font-size="14.00" fill="#666666">[timestamp]</text>
<polygon fill="none" stroke="#000000" points="248,-42.5 248,-72.5 449,-72.5 449,-42.5 248,-42.5"/>
<text text-anchor="start" x="255" y="-53.9" font-family="Arial" font-size="14.00" fill="#000000">updated_at    </text>
<text text-anchor="start" x="359.2468" y="-53.9" font-family="Arial" font-size="14.00" fill="#666666">[timestamp]</text>
</g>
<!-- role_metas&#45;&gt;roles -->
<g id="edge1" class="edge">
<title>role_metas:role_id&#45;&gt;roles:id</title>
<path fill="none" stroke="#000000" d="M223.8386,-516.794C156.3759,-506.9015 184.4978,-395.4801 234,-337 296.5967,-263.0506 386.4033,-374.9494 449,-301 475.8485,-269.2822 490.5556,-207.5 449,-207.5"/>
<polygon fill="#000000" stroke="#000000" points="224.024,-516.8068 233.6881,-521.9892 229.012,-517.1534 234,-517.5 234,-517.5 234,-517.5 229.012,-517.1534 234.3119,-513.0108 224.024,-516.8068 224.024,-516.8068"/>
<text text-anchor="start" x="6.726" y="-527.5" font-family="Arial" font-size="10.00" fill="#000000">FOREIGN KEY (role_id) REFERENCES roles (id)</text>
</g>
</g>
</svg>
