<?xml version="1.0" encoding="UTF-8" standalone="no"?>
<!DOCTYPE svg PUBLIC "-//W3C//DTD SVG 1.1//EN"
 "http://www.w3.org/Graphics/SVG/1.1/DTD/svg11.dtd">
<!-- Generated by graphviz version 2.40.1 (20161225.0304)
 -->
<!-- Title: roles Pages: 1 -->
<svg width="1048pt" height="892pt"
 viewBox="0.00 0.00 1047.50 892.00" xmlns="http://www.w3.org/2000/svg" xmlns:xlink="http://www.w3.org/1999/xlink">
<g id="graph0" class="graph" transform="scale(1 1) rotate(0) translate(4 888)">
<title>roles</title>
<polygon fill="#ffffff" stroke="transparent" points="-4,4 -4,-888 1043.5,-888 1043.5,4 -4,4"/>
<!-- roles -->
<g id="node1" class="node">
<title>roles</title>
<polygon fill="#efefef" stroke="transparent" points="440,-225.5 440,-260.5 620,-260.5 620,-225.5 440,-225.5"/>
<polygon fill="none" stroke="#000000" points="440,-225.5 440,-260.5 620,-260.5 620,-225.5 440,-225.5"/>
<text text-anchor="start" x="446.7166" y="-238.3" font-family="Arial Bold" font-size="18.00" fill="#000000">roles</text>
<text text-anchor="start" x="485.7154" y="-238.3" font-family="Arial" font-size="14.00" fill="#000000">    </text>
<text text-anchor="start" x="519.9202" y="-238.3" font-family="Arial" font-size="14.00" fill="#666666">[BASE TABLE]</text>
<polygon fill="none" stroke="#000000" points="440,-195.5 440,-225.5 620,-225.5 620,-195.5 440,-195.5"/>
<text text-anchor="start" x="447" y="-206.9" font-family="Arial" font-size="14.00" fill="#000000">id </text>
<text text-anchor="start" x="461.7798" y="-206.9" font-family="Arial" font-size="14.00" fill="#666666">[bigint(20) unsigned]</text>
<polygon fill="none" stroke="#000000" points="440,-165.5 440,-195.5 620,-195.5 620,-165.5 440,-165.5"/>
<text text-anchor="start" x="447" y="-176.9" font-family="Arial" font-size="14.00" fill="#000000">role_uid </text>
<text text-anchor="start" x="500.6774" y="-176.9" font-family="Arial" font-size="14.00" fill="#666666">[varchar(255)]</text>
<polygon fill="none" stroke="#000000" points="440,-135.5 440,-165.5 620,-165.5 620,-135.5 440,-135.5"/>
<text text-anchor="start" x="447" y="-146.9" font-family="Arial" font-size="14.00" fill="#000000">role_name </text>
<text text-anchor="start" x="517.014" y="-146.9" font-family="Arial" font-size="14.00" fill="#666666">[varchar(255)]</text>
<polygon fill="none" stroke="#000000" points="440,-105.5 440,-135.5 620,-135.5 620,-105.5 440,-105.5"/>
<text text-anchor="start" x="447" y="-116.9" font-family="Arial" font-size="14.00" fill="#000000">role_value </text>
<text text-anchor="start" x="515.46" y="-116.9" font-family="Arial" font-size="14.00" fill="#666666">[text]</text>
<polygon fill="none" stroke="#000000" points="440,-75.5 440,-105.5 620,-105.5 620,-75.5 440,-75.5"/>
<text text-anchor="start" x="447" y="-86.9" font-family="Arial" font-size="14.00" fill="#000000">created_at </text>
<text text-anchor="start" x="517.028" y="-86.9" font-family="Arial" font-size="14.00" fill="#666666">[timestamp]</text>
<polygon fill="none" stroke="#000000" points="440,-45.5 440,-75.5 620,-75.5 620,-45.5 440,-45.5"/>
<text text-anchor="start" x="447" y="-56.9" font-family="Arial" font-size="14.00" fill="#000000">updated_at </text>
<text text-anchor="start" x="520.9326" y="-56.9" font-family="Arial" font-size="14.00" fill="#666666">[timestamp]</text>
<polygon fill="none" stroke="#000000" stroke-width="3" points="438.5,-44.5 438.5,-262.5 621.5,-262.5 621.5,-44.5 438.5,-44.5"/>
</g>
<!-- permission_role -->
<g id="node2" class="node">
<title>permission_role</title>
<polygon fill="#efefef" stroke="transparent" points="43,-655.5 43,-690.5 311,-690.5 311,-655.5 43,-655.5"/>
<polygon fill="none" stroke="#000000" points="43,-655.5 43,-690.5 311,-690.5 311,-655.5 43,-655.5"/>
<text text-anchor="start" x="49.7147" y="-668.3" font-family="Arial Bold" font-size="18.00" fill="#000000">permission_role</text>
<text text-anchor="start" x="176.7173" y="-668.3" font-family="Arial" font-size="14.00" fill="#000000">    </text>
<text text-anchor="start" x="210.9221" y="-668.3" font-family="Arial" font-size="14.00" fill="#666666">[BASE TABLE]</text>
<polygon fill="none" stroke="#000000" points="43,-625.5 43,-655.5 311,-655.5 311,-625.5 43,-625.5"/>
<text text-anchor="start" x="50" y="-636.9" font-family="Arial" font-size="14.00" fill="#000000">role_id    </text>
<text text-anchor="start" x="126.209" y="-636.9" font-family="Arial" font-size="14.00" fill="#666666">[bigint(20) unsigned]</text>
<polygon fill="none" stroke="#000000" points="43,-595.5 43,-625.5 311,-625.5 311,-595.5 43,-595.5"/>
<text text-anchor="start" x="50" y="-606.9" font-family="Arial" font-size="14.00" fill="#000000">permission_id    </text>
<text text-anchor="start" x="170.5414" y="-606.9" font-family="Arial" font-size="14.00" fill="#666666">[bigint(20) unsigned]</text>
<polygon fill="none" stroke="#000000" points="43,-565.5 43,-595.5 311,-595.5 311,-565.5 43,-565.5"/>
<text text-anchor="start" x="50" y="-576.9" font-family="Arial" font-size="14.00" fill="#000000">created_at    </text>
<text text-anchor="start" x="150.3422" y="-576.9" font-family="Arial" font-size="14.00" fill="#666666">[timestamp]</text>
<polygon fill="none" stroke="#000000" points="43,-535.5 43,-565.5 311,-565.5 311,-535.5 43,-535.5"/>
<text text-anchor="start" x="50" y="-546.9" font-family="Arial" font-size="14.00" fill="#000000">updated_at    </text>
<text text-anchor="start" x="154.2468" y="-546.9" font-family="Arial" font-size="14.00" fill="#666666">[timestamp]</text>
</g>
<!-- permission_role&#45;&gt;roles -->
<g id="edge1" class="edge">
<title>permission_role:role_id&#45;&gt;roles:id</title>
<path fill="none" stroke="#000000" d="M321.0939,-638.4629C374.1279,-615.3697 341.2612,-402.6025 363,-343 386.3381,-279.0125 371.8893,-210.5 440,-210.5"/>
<polygon fill="#000000" stroke="#000000" points="320.8024,-638.5216 310.1097,-636.0889 315.9012,-639.5108 311,-640.5 311,-640.5 311,-640.5 315.9012,-639.5108 311.8903,-644.9111 320.8024,-638.5216 320.8024,-638.5216"/>
<text text-anchor="start" x="317.726" y="-650.5" font-family="Arial" font-size="10.00" fill="#000000">FOREIGN KEY (role_id) REFERENCES roles (id)</text>
</g>
<!-- role_metas -->
<g id="node3" class="node">
<title>role_metas</title>
<polygon fill="#efefef" stroke="transparent" points="415,-685.5 415,-720.5 645,-720.5 645,-685.5 415,-685.5"/>
<polygon fill="none" stroke="#000000" points="415,-685.5 415,-720.5 645,-720.5 645,-685.5 415,-685.5"/>
<text text-anchor="start" x="421.7101" y="-698.3" font-family="Arial Bold" font-size="18.00" fill="#000000">role_metas</text>
<text text-anchor="start" x="510.7219" y="-698.3" font-family="Arial" font-size="14.00" fill="#000000">    </text>
<text text-anchor="start" x="544.9267" y="-698.3" font-family="Arial" font-size="14.00" fill="#666666">[BASE TABLE]</text>
<polygon fill="none" stroke="#000000" points="415,-655.5 415,-685.5 645,-685.5 645,-655.5 415,-655.5"/>
<text text-anchor="start" x="422" y="-666.9" font-family="Arial" font-size="14.00" fill="#000000">id    </text>
<text text-anchor="start" x="467.094" y="-666.9" font-family="Arial" font-size="14.00" fill="#666666">[bigint(20) unsigned]</text>
<polygon fill="none" stroke="#000000" points="415,-625.5 415,-655.5 645,-655.5 645,-625.5 415,-625.5"/>
<text text-anchor="start" x="422" y="-636.9" font-family="Arial" font-size="14.00" fill="#000000">role_id    </text>
<text text-anchor="start" x="498.209" y="-636.9" font-family="Arial" font-size="14.00" fill="#666666">[bigint(20) unsigned]</text>
<polygon fill="none" stroke="#000000" points="415,-595.5 415,-625.5 645,-625.5 645,-595.5 415,-595.5"/>
<text text-anchor="start" x="422" y="-606.9" font-family="Arial" font-size="14.00" fill="#000000">role_meta_key    </text>
<text text-anchor="start" x="548.0014" y="-606.9" font-family="Arial" font-size="14.00" fill="#666666">[varchar(255)]</text>
<polygon fill="none" stroke="#000000" points="415,-565.5 415,-595.5 645,-595.5 645,-565.5 415,-565.5"/>
<text text-anchor="start" x="422" y="-576.9" font-family="Arial" font-size="14.00" fill="#000000">role_meta_value    </text>
<text text-anchor="start" x="559.6732" y="-576.9" font-family="Arial" font-size="14.00" fill="#666666">[text]</text>
<polygon fill="none" stroke="#000000" points="415,-535.5 415,-565.5 645,-565.5 645,-535.5 415,-535.5"/>
<text text-anchor="start" x="422" y="-546.9" font-family="Arial" font-size="14.00" fill="#000000">created_at    </text>
<text text-anchor="start" x="522.3422" y="-546.9" font-family="Arial" font-size="14.00" fill="#666666">[timestamp]</text>
<polygon fill="none" stroke="#000000" points="415,-505.5 415,-535.5 645,-535.5 645,-505.5 415,-505.5"/>
<text text-anchor="start" x="422" y="-516.9" font-family="Arial" font-size="14.00" fill="#000000">updated_at    </text>
<text text-anchor="start" x="526.2468" y="-516.9" font-family="Arial" font-size="14.00" fill="#666666">[timestamp]</text>
</g>
<!-- role_metas&#45;&gt;roles -->
<g id="edge2" class="edge">
<title>role_metas:role_id&#45;&gt;roles:id</title>
<path fill="none" stroke="#000000" d="M653.5851,-635.0632C689.4373,-585.2868 664.6804,-210.5 620,-210.5"/>
<polygon fill="#000000" stroke="#000000" points="653.4484,-635.1497 642.5924,-636.6982 649.2242,-637.8249 645,-640.5 645,-640.5 645,-640.5 649.2242,-637.8249 647.4076,-644.3018 653.4484,-635.1497 653.4484,-635.1497"/>
<text text-anchor="start" x="534.726" y="-624.5" font-family="Arial" font-size="10.00" fill="#000000">FOREIGN KEY (role_id) REFERENCES roles (id)</text>
</g>
<!-- users -->
<g id="node4" class="node">
<title>users</title>
<polygon fill="#efefef" stroke="transparent" points="750,-805.5 750,-840.5 997,-840.5 997,-805.5 750,-805.5"/>
<polygon fill="none" stroke="#000000" points="750,-805.5 750,-840.5 997,-840.5 997,-805.5 750,-805.5"/>
<text text-anchor="start" x="787.7137" y="-818.3" font-family="Arial Bold" font-size="18.00" fill="#000000">users</text>
<text text-anchor="start" x="831.7183" y="-818.3" font-family="Arial" font-size="14.00" fill="#000000">    </text>
<text text-anchor="start" x="865.9231" y="-818.3" font-family="Arial" font-size="14.00" fill="#666666">[BASE TABLE]</text>
<polygon fill="none" stroke="#000000" points="750,-775.5 750,-805.5 997,-805.5 997,-775.5 750,-775.5"/>
<text text-anchor="start" x="757" y="-786.9" font-family="Arial" font-size="14.00" fill="#000000">id    </text>
<text text-anchor="start" x="802.094" y="-786.9" font-family="Arial" font-size="14.00" fill="#666666">[bigint(20) unsigned]</text>
<polygon fill="none" stroke="#000000" points="750,-745.5 750,-775.5 997,-775.5 997,-745.5 750,-745.5"/>
<text text-anchor="start" x="757" y="-756.9" font-family="Arial" font-size="14.00" fill="#000000">full_name    </text>
<text text-anchor="start" x="851.8822" y="-756.9" font-family="Arial" font-size="14.00" fill="#666666">[varchar(255)]</text>
<polygon fill="none" stroke="#000000" points="750,-715.5 750,-745.5 997,-745.5 997,-715.5 750,-715.5"/>
<text text-anchor="start" x="757" y="-726.9" font-family="Arial" font-size="14.00" fill="#000000">display_name    </text>
<text text-anchor="start" x="877.5568" y="-726.9" font-family="Arial" font-size="14.00" fill="#666666">[varchar(255)]</text>
<polygon fill="none" stroke="#000000" points="750,-685.5 750,-715.5 997,-715.5 997,-685.5 750,-685.5"/>
<text text-anchor="start" x="757" y="-696.9" font-family="Arial" font-size="14.00" fill="#000000">email    </text>
<text text-anchor="start" x="824.6438" y="-696.9" font-family="Arial" font-size="14.00" fill="#666666">[varchar(255)]</text>
<polygon fill="none" stroke="#000000" points="750,-655.5 750,-685.5 997,-685.5 997,-655.5 750,-655.5"/>
<text text-anchor="start" x="757" y="-666.9" font-family="Arial" font-size="14.00" fill="#000000">password    </text>
<text text-anchor="start" x="851.1024" y="-666.9" font-family="Arial" font-size="14.00" fill="#666666">[varchar(255)]</text>
<polygon fill="none" stroke="#000000" points="750,-625.5 750,-655.5 997,-655.5 997,-625.5 750,-625.5"/>
<text text-anchor="start" x="757" y="-636.9" font-family="Arial" font-size="14.00" fill="#000000">status    </text>
<text text-anchor="start" x="828.5512" y="-636.9" font-family="Arial" font-size="14.00" fill="#666666">[varchar(255)]</text>
<polygon fill="none" stroke="#000000" points="750,-595.5 750,-625.5 997,-625.5 997,-595.5 750,-595.5"/>
<text text-anchor="start" x="757" y="-606.9" font-family="Arial" font-size="14.00" fill="#000000">role_id    </text>
<text text-anchor="start" x="833.209" y="-606.9" font-family="Arial" font-size="14.00" fill="#666666">[bigint(20) unsigned]</text>
<polygon fill="none" stroke="#000000" points="750,-565.5 750,-595.5 997,-595.5 997,-565.5 750,-565.5"/>
<text text-anchor="start" x="757" y="-576.9" font-family="Arial" font-size="14.00" fill="#000000">site_id    </text>
<text text-anchor="start" x="831.6564" y="-576.9" font-family="Arial" font-size="14.00" fill="#666666">[bigint(20) unsigned]</text>
<polygon fill="none" stroke="#000000" points="750,-535.5 750,-565.5 997,-565.5 997,-535.5 750,-535.5"/>
<text text-anchor="start" x="756.8149" y="-546.9" font-family="Arial" font-size="14.00" fill="#000000">usertype_id    </text>
<text text-anchor="start" x="863.3731" y="-546.9" font-family="Arial" font-size="14.00" fill="#666666">[bigint(20) unsigned]</text>
<polygon fill="none" stroke="#000000" points="750,-505.5 750,-535.5 997,-535.5 997,-505.5 750,-505.5"/>
<text text-anchor="start" x="757" y="-516.9" font-family="Arial" font-size="14.00" fill="#000000">remember_token    </text>
<text text-anchor="start" x="896.9986" y="-516.9" font-family="Arial" font-size="14.00" fill="#666666">[varchar(100)]</text>
<polygon fill="none" stroke="#000000" points="750,-475.5 750,-505.5 997,-505.5 997,-475.5 750,-475.5"/>
<text text-anchor="start" x="757" y="-486.9" font-family="Arial" font-size="14.00" fill="#000000">token    </text>
<text text-anchor="start" x="825.4432" y="-486.9" font-family="Arial" font-size="14.00" fill="#666666">[longtext]</text>
<polygon fill="none" stroke="#000000" points="750,-445.5 750,-475.5 997,-475.5 997,-445.5 750,-445.5"/>
<text text-anchor="start" x="757" y="-456.9" font-family="Arial" font-size="14.00" fill="#000000">isFirstTimeVisit    </text>
<text text-anchor="start" x="886.0646" y="-456.9" font-family="Arial" font-size="14.00" fill="#666666">[tinyint(1)]</text>
<polygon fill="none" stroke="#000000" points="750,-415.5 750,-445.5 997,-445.5 997,-415.5 750,-415.5"/>
<text text-anchor="start" x="757" y="-426.9" font-family="Arial" font-size="14.00" fill="#000000">created_at    </text>
<text text-anchor="start" x="857.3422" y="-426.9" font-family="Arial" font-size="14.00" fill="#666666">[timestamp]</text>
<polygon fill="none" stroke="#000000" points="750,-385.5 750,-415.5 997,-415.5 997,-385.5 750,-385.5"/>
<text text-anchor="start" x="757" y="-396.9" font-family="Arial" font-size="14.00" fill="#000000">updated_at    </text>
<text text-anchor="start" x="861.2468" y="-396.9" font-family="Arial" font-size="14.00" fill="#666666">[timestamp]</text>
</g>
<!-- users&#45;&gt;roles -->
<g id="edge3" class="edge">
<title>users:role_id&#45;&gt;roles:id</title>
<path fill="none" stroke="#000000" d="M739.947,-608.2626C692.7276,-585.5376 717.1093,-396.261 697,-343 672.9417,-279.2798 688.1107,-210.5 620,-210.5"/>
<polygon fill="#000000" stroke="#000000" points="740.2388,-608.3275 749.0224,-614.8925 745.1194,-609.4137 750,-610.5 750,-610.5 750,-610.5 745.1194,-609.4137 750.9776,-606.1075 740.2388,-608.3275 740.2388,-608.3275"/>
<text text-anchor="start" x="522.726" y="-594.5" font-family="Arial" font-size="10.00" fill="#000000">FOREIGN KEY (role_id) REFERENCES roles (id)</text>
</g>
</g>
</svg>
