<?xml version="1.0" encoding="UTF-8" standalone="no"?>
<!DOCTYPE svg PUBLIC "-//W3C//DTD SVG 1.1//EN"
 "http://www.w3.org/Graphics/SVG/1.1/DTD/svg11.dtd">
<!-- Generated by graphviz version 2.40.1 (20161225.0304)
 -->
<!-- Title: school_metas Pages: 1 -->
<svg width="566pt" height="952pt"
 viewBox="0.00 0.00 565.50 952.00" xmlns="http://www.w3.org/2000/svg" xmlns:xlink="http://www.w3.org/1999/xlink">
<g id="graph0" class="graph" transform="scale(1 1) rotate(0) translate(4 948)">
<title>school_metas</title>
<polygon fill="#ffffff" stroke="transparent" points="-4,4 -4,-948 561.5,-948 561.5,4 -4,4"/>
<!-- school_metas -->
<g id="node1" class="node">
<title>school_metas</title>
<polygon fill="#efefef" stroke="transparent" points="259,-862.5 259,-897.5 511,-897.5 511,-862.5 259,-862.5"/>
<polygon fill="none" stroke="#000000" points="259,-862.5 259,-897.5 511,-897.5 511,-862.5 259,-862.5"/>
<text text-anchor="start" x="265.7031" y="-875.3" font-family="Arial Bold" font-size="18.00" fill="#000000">school_metas</text>
<text text-anchor="start" x="376.7289" y="-875.3" font-family="Arial" font-size="14.00" fill="#000000">    </text>
<text text-anchor="start" x="410.9337" y="-875.3" font-family="Arial" font-size="14.00" fill="#666666">[BASE TABLE]</text>
<polygon fill="none" stroke="#000000" points="259,-832.5 259,-862.5 511,-862.5 511,-832.5 259,-832.5"/>
<text text-anchor="start" x="266" y="-843.9" font-family="Arial" font-size="14.00" fill="#000000">id </text>
<text text-anchor="start" x="280.7798" y="-843.9" font-family="Arial" font-size="14.00" fill="#666666">[bigint(20) unsigned]</text>
<polygon fill="none" stroke="#000000" points="259,-802.5 259,-832.5 511,-832.5 511,-802.5 259,-802.5"/>
<text text-anchor="start" x="266" y="-813.9" font-family="Arial" font-size="14.00" fill="#000000">school_id </text>
<text text-anchor="start" x="329.0168" y="-813.9" font-family="Arial" font-size="14.00" fill="#666666">[bigint(20) unsigned]</text>
<polygon fill="none" stroke="#000000" points="259,-772.5 259,-802.5 511,-802.5 511,-772.5 259,-772.5"/>
<text text-anchor="start" x="266" y="-783.9" font-family="Arial" font-size="14.00" fill="#000000">schoolmeta_key </text>
<text text-anchor="start" x="371.0266" y="-783.9" font-family="Arial" font-size="14.00" fill="#666666">[varchar(255)]</text>
<polygon fill="none" stroke="#000000" points="259,-742.5 259,-772.5 511,-772.5 511,-742.5 259,-742.5"/>
<text text-anchor="start" x="266" y="-753.9" font-family="Arial" font-size="14.00" fill="#000000">schoolmeta_value </text>
<text text-anchor="start" x="382.6984" y="-753.9" font-family="Arial" font-size="14.00" fill="#666666">[varchar(255)]</text>
<polygon fill="none" stroke="#000000" points="259,-712.5 259,-742.5 511,-742.5 511,-712.5 259,-712.5"/>
<text text-anchor="start" x="266" y="-723.9" font-family="Arial" font-size="14.00" fill="#000000">created_at </text>
<text text-anchor="start" x="336.028" y="-723.9" font-family="Arial" font-size="14.00" fill="#666666">[timestamp]</text>
<polygon fill="none" stroke="#000000" points="259,-682.5 259,-712.5 511,-712.5 511,-682.5 259,-682.5"/>
<text text-anchor="start" x="266" y="-693.9" font-family="Arial" font-size="14.00" fill="#000000">updated_at </text>
<text text-anchor="start" x="339.9326" y="-693.9" font-family="Arial" font-size="14.00" fill="#666666">[timestamp]</text>
<polygon fill="none" stroke="#000000" stroke-width="3" points="257.5,-681.5 257.5,-899.5 512.5,-899.5 512.5,-681.5 257.5,-681.5"/>
</g>
<!-- schools -->
<g id="node2" class="node">
<title>schools</title>
<polygon fill="#efefef" stroke="transparent" points="254,-522.5 254,-557.5 515,-557.5 515,-522.5 254,-522.5"/>
<polygon fill="none" stroke="#000000" points="254,-522.5 254,-557.5 515,-557.5 515,-522.5 254,-522.5"/>
<text text-anchor="start" x="290.2096" y="-535.3" font-family="Arial Bold" font-size="18.00" fill="#000000">schools</text>
<text text-anchor="start" x="351.2224" y="-535.3" font-family="Arial" font-size="14.00" fill="#000000">    </text>
<text text-anchor="start" x="385.4272" y="-535.3" font-family="Arial" font-size="14.00" fill="#666666">[BASE TABLE]</text>
<polygon fill="none" stroke="#000000" points="254,-492.5 254,-522.5 515,-522.5 515,-492.5 254,-492.5"/>
<text text-anchor="start" x="261" y="-503.9" font-family="Arial" font-size="14.00" fill="#000000">id    </text>
<text text-anchor="start" x="306.094" y="-503.9" font-family="Arial" font-size="14.00" fill="#666666">[bigint(20) unsigned]</text>
<polygon fill="none" stroke="#000000" points="254,-462.5 254,-492.5 515,-492.5 515,-462.5 254,-462.5"/>
<text text-anchor="start" x="261" y="-473.9" font-family="Arial" font-size="14.00" fill="#000000">school_id    </text>
<text text-anchor="start" x="354.331" y="-473.9" font-family="Arial" font-size="14.00" fill="#666666">[int(10) unsigned]</text>
<polygon fill="none" stroke="#000000" points="254,-432.5 254,-462.5 515,-462.5 515,-432.5 254,-432.5"/>
<text text-anchor="start" x="261" y="-443.9" font-family="Arial" font-size="14.00" fill="#000000">site_id    </text>
<text text-anchor="start" x="335.6564" y="-443.9" font-family="Arial" font-size="14.00" fill="#666666">[bigint(20) unsigned]</text>
<polygon fill="none" stroke="#000000" points="254,-402.5 254,-432.5 515,-432.5 515,-402.5 254,-402.5"/>
<text text-anchor="start" x="261" y="-413.9" font-family="Arial" font-size="14.00" fill="#000000">owner_id    </text>
<text text-anchor="start" x="351.9916" y="-413.9" font-family="Arial" font-size="14.00" fill="#666666">[bigint(20) unsigned]</text>
<polygon fill="none" stroke="#000000" points="254,-372.5 254,-402.5 515,-402.5 515,-372.5 254,-372.5"/>
<text text-anchor="start" x="261" y="-383.9" font-family="Arial" font-size="14.00" fill="#000000">allowEditIds    </text>
<text text-anchor="start" x="369.8794" y="-383.9" font-family="Arial" font-size="14.00" fill="#666666">[varchar(255)]</text>
<polygon fill="none" stroke="#000000" points="254,-342.5 254,-372.5 515,-372.5 515,-342.5 254,-342.5"/>
<text text-anchor="start" x="261" y="-353.9" font-family="Arial" font-size="14.00" fill="#000000">name    </text>
<text text-anchor="start" x="330.2132" y="-353.9" font-family="Arial" font-size="14.00" fill="#666666">[varchar(255)]</text>
<polygon fill="none" stroke="#000000" points="254,-312.5 254,-342.5 515,-342.5 515,-312.5 254,-312.5"/>
<text text-anchor="start" x="261" y="-323.9" font-family="Arial" font-size="14.00" fill="#000000">content_blocks    </text>
<text text-anchor="start" x="388.5708" y="-323.9" font-family="Arial" font-size="14.00" fill="#666666">[longtext]</text>
<polygon fill="none" stroke="#000000" points="254,-282.5 254,-312.5 515,-312.5 515,-282.5 254,-282.5"/>
<text text-anchor="start" x="261" y="-293.9" font-family="Arial" font-size="14.00" fill="#000000">logo    </text>
<text text-anchor="start" x="321.6592" y="-293.9" font-family="Arial" font-size="14.00" fill="#666666">[varchar(255)]</text>
<polygon fill="none" stroke="#000000" points="254,-252.5 254,-282.5 515,-282.5 515,-252.5 254,-252.5"/>
<text text-anchor="start" x="261" y="-263.9" font-family="Arial" font-size="14.00" fill="#000000">cover_image    </text>
<text text-anchor="start" x="375.3282" y="-263.9" font-family="Arial" font-size="14.00" fill="#666666">[varchar(255)]</text>
<polygon fill="none" stroke="#000000" points="254,-222.5 254,-252.5 515,-252.5 515,-222.5 254,-222.5"/>
<text text-anchor="start" x="261" y="-233.9" font-family="Arial" font-size="14.00" fill="#000000">tech_used    </text>
<text text-anchor="start" x="359.791" y="-233.9" font-family="Arial" font-size="14.00" fill="#666666">[longtext]</text>
<polygon fill="none" stroke="#000000" points="254,-192.5 254,-222.5 515,-222.5 515,-192.5 254,-192.5"/>
<text text-anchor="start" x="261" y="-203.9" font-family="Arial" font-size="14.00" fill="#000000">status    </text>
<text text-anchor="start" x="332.5512" y="-203.9" font-family="Arial" font-size="14.00" fill="#666666">[varchar(255)]</text>
<polygon fill="none" stroke="#000000" points="254,-162.5 254,-192.5 515,-192.5 515,-162.5 254,-162.5"/>
<text text-anchor="start" x="260.8002" y="-173.9" font-family="Arial" font-size="14.00" fill="#000000">pedagogical_approaches    </text>
<text text-anchor="start" x="451.4004" y="-173.9" font-family="Arial" font-size="14.00" fill="#666666">[longtext]</text>
<polygon fill="none" stroke="#000000" points="254,-132.5 254,-162.5 515,-162.5 515,-132.5 254,-132.5"/>
<text text-anchor="start" x="261" y="-143.9" font-family="Arial" font-size="14.00" fill="#000000">tech_landscape    </text>
<text text-anchor="start" x="393.2454" y="-143.9" font-family="Arial" font-size="14.00" fill="#666666">[longtext]</text>
<polygon fill="none" stroke="#000000" points="254,-102.5 254,-132.5 515,-132.5 515,-102.5 254,-102.5"/>
<text text-anchor="start" x="261" y="-113.9" font-family="Arial" font-size="14.00" fill="#000000">isFeatured    </text>
<text text-anchor="start" x="361.3282" y="-113.9" font-family="Arial" font-size="14.00" fill="#666666">[tinyint(1)]</text>
<polygon fill="none" stroke="#000000" points="254,-72.5 254,-102.5 515,-102.5 515,-72.5 254,-72.5"/>
<text text-anchor="start" x="261" y="-83.9" font-family="Arial" font-size="14.00" fill="#000000">created_at    </text>
<text text-anchor="start" x="361.3422" y="-83.9" font-family="Arial" font-size="14.00" fill="#666666">[timestamp]</text>
<polygon fill="none" stroke="#000000" points="254,-42.5 254,-72.5 515,-72.5 515,-42.5 254,-42.5"/>
<text text-anchor="start" x="261" y="-53.9" font-family="Arial" font-size="14.00" fill="#000000">updated_at    </text>
<text text-anchor="start" x="365.2468" y="-53.9" font-family="Arial" font-size="14.00" fill="#666666">[timestamp]</text>
</g>
<!-- school_metas&#45;&gt;schools -->
<g id="edge1" class="edge">
<title>school_metas:school_id&#45;&gt;schools:id</title>
<path fill="none" stroke="#000000" d="M248.834,-816.7901C181.3075,-806.8428 208.7361,-694.8268 259,-637 334.3758,-550.2828 439.6242,-687.7172 515,-601 542.2616,-569.6365 556.5556,-507.5 515,-507.5"/>
<polygon fill="#000000" stroke="#000000" points="249.0243,-816.8033 258.6865,-821.9891 254.0121,-817.1516 259,-817.5 259,-817.5 259,-817.5 254.0121,-817.1516 259.3135,-813.0109 249.0243,-816.8033 249.0243,-816.8033"/>
<text text-anchor="start" x="7.496" y="-827.5" font-family="Arial" font-size="10.00" fill="#000000">FOREIGN KEY (school_id) REFERENCES schools (id)</text>
</g>
</g>
</svg>
