<?xml version="1.0" encoding="UTF-8" standalone="no"?>
<!DOCTYPE svg PUBLIC "-//W3C//DTD SVG 1.1//EN"
 "http://www.w3.org/Graphics/SVG/1.1/DTD/svg11.dtd">
<!-- Generated by graphviz version 2.40.1 (20161225.0304)
 -->
<!-- Title: schools Pages: 1 -->
<svg width="755pt" height="1559pt"
 viewBox="0.00 0.00 755.00 1559.00" xmlns="http://www.w3.org/2000/svg" xmlns:xlink="http://www.w3.org/1999/xlink">
<g id="graph0" class="graph" transform="scale(1 1) rotate(0) translate(4 1555)">
<title>schools</title>
<polygon fill="#ffffff" stroke="transparent" points="-4,4 -4,-1555 751,-1555 751,4 -4,4"/>
<!-- schools -->
<g id="node1" class="node">
<title>schools</title>
<polygon fill="#efefef" stroke="transparent" points="269,-1132.5 269,-1167.5 500,-1167.5 500,-1132.5 269,-1132.5"/>
<polygon fill="none" stroke="#000000" points="269,-1132.5 269,-1167.5 500,-1167.5 500,-1132.5 269,-1132.5"/>
<text text-anchor="start" x="290.2096" y="-1145.3" font-family="Arial Bold" font-size="18.00" fill="#000000">schools</text>
<text text-anchor="start" x="351.2224" y="-1145.3" font-family="Arial" font-size="14.00" fill="#000000">    </text>
<text text-anchor="start" x="385.4272" y="-1145.3" font-family="Arial" font-size="14.00" fill="#666666">[BASE TABLE]</text>
<polygon fill="none" stroke="#000000" points="269,-1102.5 269,-1132.5 500,-1132.5 500,-1102.5 269,-1102.5"/>
<text text-anchor="start" x="276" y="-1113.9" font-family="Arial" font-size="14.00" fill="#000000">id </text>
<text text-anchor="start" x="290.7798" y="-1113.9" font-family="Arial" font-size="14.00" fill="#666666">[bigint(20) unsigned]</text>
<polygon fill="none" stroke="#000000" points="269,-1072.5 269,-1102.5 500,-1102.5 500,-1072.5 269,-1072.5"/>
<text text-anchor="start" x="276" y="-1083.9" font-family="Arial" font-size="14.00" fill="#000000">school_id </text>
<text text-anchor="start" x="339.0168" y="-1083.9" font-family="Arial" font-size="14.00" fill="#666666">[int(10) unsigned]</text>
<polygon fill="none" stroke="#000000" points="269,-1042.5 269,-1072.5 500,-1072.5 500,-1042.5 269,-1042.5"/>
<text text-anchor="start" x="276" y="-1053.9" font-family="Arial" font-size="14.00" fill="#000000">site_id </text>
<text text-anchor="start" x="320.3422" y="-1053.9" font-family="Arial" font-size="14.00" fill="#666666">[bigint(20) unsigned]</text>
<polygon fill="none" stroke="#000000" points="269,-1012.5 269,-1042.5 500,-1042.5 500,-1012.5 269,-1012.5"/>
<text text-anchor="start" x="276" y="-1023.9" font-family="Arial" font-size="14.00" fill="#000000">owner_id </text>
<text text-anchor="start" x="336.6774" y="-1023.9" font-family="Arial" font-size="14.00" fill="#666666">[bigint(20) unsigned]</text>
<polygon fill="none" stroke="#000000" points="269,-982.5 269,-1012.5 500,-1012.5 500,-982.5 269,-982.5"/>
<text text-anchor="start" x="276" y="-993.9" font-family="Arial" font-size="14.00" fill="#000000">allowEditIds </text>
<text text-anchor="start" x="354.5652" y="-993.9" font-family="Arial" font-size="14.00" fill="#666666">[varchar(255)]</text>
<polygon fill="none" stroke="#000000" points="269,-952.5 269,-982.5 500,-982.5 500,-952.5 269,-952.5"/>
<text text-anchor="start" x="276" y="-963.9" font-family="Arial" font-size="14.00" fill="#000000">name </text>
<text text-anchor="start" x="314.899" y="-963.9" font-family="Arial" font-size="14.00" fill="#666666">[varchar(255)]</text>
<polygon fill="none" stroke="#000000" points="269,-922.5 269,-952.5 500,-952.5 500,-922.5 269,-922.5"/>
<text text-anchor="start" x="276" y="-933.9" font-family="Arial" font-size="14.00" fill="#000000">content_blocks </text>
<text text-anchor="start" x="373.2566" y="-933.9" font-family="Arial" font-size="14.00" fill="#666666">[longtext]</text>
<polygon fill="none" stroke="#000000" points="269,-892.5 269,-922.5 500,-922.5 500,-892.5 269,-892.5"/>
<text text-anchor="start" x="276" y="-903.9" font-family="Arial" font-size="14.00" fill="#000000">logo </text>
<text text-anchor="start" x="306.345" y="-903.9" font-family="Arial" font-size="14.00" fill="#666666">[varchar(255)]</text>
<polygon fill="none" stroke="#000000" points="269,-862.5 269,-892.5 500,-892.5 500,-862.5 269,-862.5"/>
<text text-anchor="start" x="276" y="-873.9" font-family="Arial" font-size="14.00" fill="#000000">cover_image </text>
<text text-anchor="start" x="360.014" y="-873.9" font-family="Arial" font-size="14.00" fill="#666666">[varchar(255)]</text>
<polygon fill="none" stroke="#000000" points="269,-832.5 269,-862.5 500,-862.5 500,-832.5 269,-832.5"/>
<text text-anchor="start" x="276" y="-843.9" font-family="Arial" font-size="14.00" fill="#000000">tech_used </text>
<text text-anchor="start" x="344.4768" y="-843.9" font-family="Arial" font-size="14.00" fill="#666666">[longtext]</text>
<polygon fill="none" stroke="#000000" points="269,-802.5 269,-832.5 500,-832.5 500,-802.5 269,-802.5"/>
<text text-anchor="start" x="276" y="-813.9" font-family="Arial" font-size="14.00" fill="#000000">status </text>
<text text-anchor="start" x="317.237" y="-813.9" font-family="Arial" font-size="14.00" fill="#666666">[varchar(255)]</text>
<polygon fill="none" stroke="#000000" points="269,-772.5 269,-802.5 500,-802.5 500,-772.5 269,-772.5"/>
<text text-anchor="start" x="275.9573" y="-783.9" font-family="Arial" font-size="14.00" fill="#000000">pedagogical_approaches </text>
<text text-anchor="start" x="436.2433" y="-783.9" font-family="Arial" font-size="14.00" fill="#666666">[longtext]</text>
<polygon fill="none" stroke="#000000" points="269,-742.5 269,-772.5 500,-772.5 500,-742.5 269,-742.5"/>
<text text-anchor="start" x="276" y="-753.9" font-family="Arial" font-size="14.00" fill="#000000">tech_landscape </text>
<text text-anchor="start" x="377.9312" y="-753.9" font-family="Arial" font-size="14.00" fill="#666666">[longtext]</text>
<polygon fill="none" stroke="#000000" points="269,-712.5 269,-742.5 500,-742.5 500,-712.5 269,-712.5"/>
<text text-anchor="start" x="276" y="-723.9" font-family="Arial" font-size="14.00" fill="#000000">isFeatured </text>
<text text-anchor="start" x="346.014" y="-723.9" font-family="Arial" font-size="14.00" fill="#666666">[tinyint(1)]</text>
<polygon fill="none" stroke="#000000" points="269,-682.5 269,-712.5 500,-712.5 500,-682.5 269,-682.5"/>
<text text-anchor="start" x="276" y="-693.9" font-family="Arial" font-size="14.00" fill="#000000">created_at </text>
<text text-anchor="start" x="346.028" y="-693.9" font-family="Arial" font-size="14.00" fill="#666666">[timestamp]</text>
<polygon fill="none" stroke="#000000" points="269,-652.5 269,-682.5 500,-682.5 500,-652.5 269,-652.5"/>
<text text-anchor="start" x="276" y="-663.9" font-family="Arial" font-size="14.00" fill="#000000">updated_at </text>
<text text-anchor="start" x="349.9326" y="-663.9" font-family="Arial" font-size="14.00" fill="#666666">[timestamp]</text>
<polygon fill="none" stroke="#000000" stroke-width="3" points="267,-651.5 267,-1169.5 501,-1169.5 501,-651.5 267,-651.5"/>
</g>
<!-- sites -->
<g id="node3" class="node">
<title>sites</title>
<polygon fill="#efefef" stroke="transparent" points="77,-492.5 77,-527.5 336,-527.5 336,-492.5 77,-492.5"/>
<polygon fill="none" stroke="#000000" points="77,-492.5 77,-527.5 336,-527.5 336,-492.5 77,-492.5"/>
<text text-anchor="start" x="124.2147" y="-505.3" font-family="Arial Bold" font-size="18.00" fill="#000000">sites</text>
<text text-anchor="start" x="161.2173" y="-505.3" font-family="Arial" font-size="14.00" fill="#000000">    </text>
<text text-anchor="start" x="195.4221" y="-505.3" font-family="Arial" font-size="14.00" fill="#666666">[BASE TABLE]</text>
<polygon fill="none" stroke="#000000" points="77,-462.5 77,-492.5 336,-492.5 336,-462.5 77,-462.5"/>
<text text-anchor="start" x="84" y="-473.9" font-family="Arial" font-size="14.00" fill="#000000">id    </text>
<text text-anchor="start" x="129.094" y="-473.9" font-family="Arial" font-size="14.00" fill="#666666">[bigint(20) unsigned]</text>
<polygon fill="none" stroke="#000000" points="77,-432.5 77,-462.5 336,-462.5 336,-432.5 77,-432.5"/>
<text text-anchor="start" x="84" y="-443.9" font-family="Arial" font-size="14.00" fill="#000000">site_uid    </text>
<text text-anchor="start" x="166.439" y="-443.9" font-family="Arial" font-size="14.00" fill="#666666">[varchar(255)]</text>
<polygon fill="none" stroke="#000000" points="77,-402.5 77,-432.5 336,-432.5 336,-402.5 77,-402.5"/>
<text text-anchor="start" x="84" y="-413.9" font-family="Arial" font-size="14.00" fill="#000000">site_id    </text>
<text text-anchor="start" x="158.6564" y="-413.9" font-family="Arial" font-size="14.00" fill="#666666">[bigint(20) unsigned]</text>
<polygon fill="none" stroke="#000000" points="77,-372.5 77,-402.5 336,-402.5 336,-372.5 77,-372.5"/>
<text text-anchor="start" x="84" y="-383.9" font-family="Arial" font-size="14.00" fill="#000000">site_name    </text>
<text text-anchor="start" x="182.7756" y="-383.9" font-family="Arial" font-size="14.00" fill="#666666">[varchar(255)]</text>
<polygon fill="none" stroke="#000000" points="77,-342.5 77,-372.5 336,-372.5 336,-342.5 77,-342.5"/>
<text text-anchor="start" x="84" y="-353.9" font-family="Arial" font-size="14.00" fill="#000000">site_value    </text>
<text text-anchor="start" x="181.2216" y="-353.9" font-family="Arial" font-size="14.00" fill="#666666">[text]</text>
<polygon fill="none" stroke="#000000" points="77,-312.5 77,-342.5 336,-342.5 336,-312.5 77,-312.5"/>
<text text-anchor="start" x="84" y="-323.9" font-family="Arial" font-size="14.00" fill="#000000">category_code    </text>
<text text-anchor="start" x="210.0168" y="-323.9" font-family="Arial" font-size="14.00" fill="#666666">[varchar(255)]</text>
<polygon fill="none" stroke="#000000" points="77,-282.5 77,-312.5 336,-312.5 336,-282.5 77,-282.5"/>
<text text-anchor="start" x="84" y="-293.9" font-family="Arial" font-size="14.00" fill="#000000">category_desc    </text>
<text text-anchor="start" x="209.2342" y="-293.9" font-family="Arial" font-size="14.00" fill="#666666">[varchar(255)]</text>
<polygon fill="none" stroke="#000000" points="77,-252.5 77,-282.5 336,-282.5 336,-252.5 77,-252.5"/>
<text text-anchor="start" x="84" y="-263.9" font-family="Arial" font-size="14.00" fill="#000000">site_type_code    </text>
<text text-anchor="start" x="212.3534" y="-263.9" font-family="Arial" font-size="14.00" fill="#666666">[varchar(255)]</text>
<polygon fill="none" stroke="#000000" points="77,-222.5 77,-252.5 336,-252.5 336,-222.5 77,-222.5"/>
<text text-anchor="start" x="84" y="-233.9" font-family="Arial" font-size="14.00" fill="#000000">site_type_desc    </text>
<text text-anchor="start" x="211.5708" y="-233.9" font-family="Arial" font-size="14.00" fill="#666666">[text]</text>
<polygon fill="none" stroke="#000000" points="77,-192.5 77,-222.5 336,-222.5 336,-192.5 77,-192.5"/>
<text text-anchor="start" x="83.5898" y="-203.9" font-family="Arial" font-size="14.00" fill="#000000">site_sub_type_code    </text>
<text text-anchor="start" x="242.291" y="-203.9" font-family="Arial" font-size="14.00" fill="#666666">[varchar(255)]</text>
<polygon fill="none" stroke="#000000" points="77,-162.5 77,-192.5 336,-192.5 336,-162.5 77,-162.5"/>
<text text-anchor="start" x="84" y="-173.9" font-family="Arial" font-size="14.00" fill="#000000">site_sub_type_desc    </text>
<text text-anchor="start" x="241.9186" y="-173.9" font-family="Arial" font-size="14.00" fill="#666666">[text]</text>
<polygon fill="none" stroke="#000000" points="77,-132.5 77,-162.5 336,-162.5 336,-132.5 77,-132.5"/>
<text text-anchor="start" x="84" y="-143.9" font-family="Arial" font-size="14.00" fill="#000000">site_latitude    </text>
<text text-anchor="start" x="192.892" y="-143.9" font-family="Arial" font-size="14.00" fill="#666666">[varchar(255)]</text>
<polygon fill="none" stroke="#000000" points="77,-102.5 77,-132.5 336,-132.5 336,-102.5 77,-102.5"/>
<text text-anchor="start" x="84" y="-113.9" font-family="Arial" font-size="14.00" fill="#000000">site_longitude    </text>
<text text-anchor="start" x="204.5666" y="-113.9" font-family="Arial" font-size="14.00" fill="#666666">[varchar(255)]</text>
<polygon fill="none" stroke="#000000" points="77,-72.5 77,-102.5 336,-102.5 336,-72.5 77,-72.5"/>
<text text-anchor="start" x="84" y="-83.9" font-family="Arial" font-size="14.00" fill="#000000">created_at    </text>
<text text-anchor="start" x="184.3422" y="-83.9" font-family="Arial" font-size="14.00" fill="#666666">[timestamp]</text>
<polygon fill="none" stroke="#000000" points="77,-42.5 77,-72.5 336,-72.5 336,-42.5 77,-42.5"/>
<text text-anchor="start" x="84" y="-53.9" font-family="Arial" font-size="14.00" fill="#000000">updated_at    </text>
<text text-anchor="start" x="188.2468" y="-53.9" font-family="Arial" font-size="14.00" fill="#666666">[timestamp]</text>
</g>
<!-- schools&#45;&gt;sites -->
<g id="edge2" class="edge">
<title>schools:site_id&#45;&gt;sites:site_id</title>
<path fill="none" stroke="#000000" d="M258.9941,-1057.2578C72.111,-1048.007 168.0081,-775.9114 269,-607 286.3472,-577.9864 318.6528,-600.0136 336,-571 371.0095,-512.4457 404.2222,-417.5 336,-417.5"/>
<polygon fill="#000000" stroke="#000000" points="259.0029,-1057.2579 268.8911,-1061.9987 264.0015,-1057.3789 269,-1057.5 269,-1057.5 269,-1057.5 264.0015,-1057.3789 269.1089,-1053.0013 259.0029,-1057.2579 259.0029,-1057.2579"/>
<text text-anchor="start" x="23.277" y="-1067.5" font-family="Arial" font-size="10.00" fill="#000000">FOREIGN KEY (site_id) REFERENCES sites (site_id)</text>
</g>
<!-- users -->
<g id="node4" class="node">
<title>users</title>
<polygon fill="#efefef" stroke="transparent" points="440,-477.5 440,-512.5 687,-512.5 687,-477.5 440,-477.5"/>
<polygon fill="none" stroke="#000000" points="440,-477.5 440,-512.5 687,-512.5 687,-477.5 440,-477.5"/>
<text text-anchor="start" x="477.7137" y="-490.3" font-family="Arial Bold" font-size="18.00" fill="#000000">users</text>
<text text-anchor="start" x="521.7183" y="-490.3" font-family="Arial" font-size="14.00" fill="#000000">    </text>
<text text-anchor="start" x="555.9231" y="-490.3" font-family="Arial" font-size="14.00" fill="#666666">[BASE TABLE]</text>
<polygon fill="none" stroke="#000000" points="440,-447.5 440,-477.5 687,-477.5 687,-447.5 440,-447.5"/>
<text text-anchor="start" x="447" y="-458.9" font-family="Arial" font-size="14.00" fill="#000000">id    </text>
<text text-anchor="start" x="492.094" y="-458.9" font-family="Arial" font-size="14.00" fill="#666666">[bigint(20) unsigned]</text>
<polygon fill="none" stroke="#000000" points="440,-417.5 440,-447.5 687,-447.5 687,-417.5 440,-417.5"/>
<text text-anchor="start" x="447" y="-428.9" font-family="Arial" font-size="14.00" fill="#000000">full_name    </text>
<text text-anchor="start" x="541.8822" y="-428.9" font-family="Arial" font-size="14.00" fill="#666666">[varchar(255)]</text>
<polygon fill="none" stroke="#000000" points="440,-387.5 440,-417.5 687,-417.5 687,-387.5 440,-387.5"/>
<text text-anchor="start" x="447" y="-398.9" font-family="Arial" font-size="14.00" fill="#000000">display_name    </text>
<text text-anchor="start" x="567.5568" y="-398.9" font-family="Arial" font-size="14.00" fill="#666666">[varchar(255)]</text>
<polygon fill="none" stroke="#000000" points="440,-357.5 440,-387.5 687,-387.5 687,-357.5 440,-357.5"/>
<text text-anchor="start" x="447" y="-368.9" font-family="Arial" font-size="14.00" fill="#000000">email    </text>
<text text-anchor="start" x="514.6438" y="-368.9" font-family="Arial" font-size="14.00" fill="#666666">[varchar(255)]</text>
<polygon fill="none" stroke="#000000" points="440,-327.5 440,-357.5 687,-357.5 687,-327.5 440,-327.5"/>
<text text-anchor="start" x="447" y="-338.9" font-family="Arial" font-size="14.00" fill="#000000">password    </text>
<text text-anchor="start" x="541.1024" y="-338.9" font-family="Arial" font-size="14.00" fill="#666666">[varchar(255)]</text>
<polygon fill="none" stroke="#000000" points="440,-297.5 440,-327.5 687,-327.5 687,-297.5 440,-297.5"/>
<text text-anchor="start" x="447" y="-308.9" font-family="Arial" font-size="14.00" fill="#000000">status    </text>
<text text-anchor="start" x="518.5512" y="-308.9" font-family="Arial" font-size="14.00" fill="#666666">[varchar(255)]</text>
<polygon fill="none" stroke="#000000" points="440,-267.5 440,-297.5 687,-297.5 687,-267.5 440,-267.5"/>
<text text-anchor="start" x="447" y="-278.9" font-family="Arial" font-size="14.00" fill="#000000">role_id    </text>
<text text-anchor="start" x="523.209" y="-278.9" font-family="Arial" font-size="14.00" fill="#666666">[bigint(20) unsigned]</text>
<polygon fill="none" stroke="#000000" points="440,-237.5 440,-267.5 687,-267.5 687,-237.5 440,-237.5"/>
<text text-anchor="start" x="447" y="-248.9" font-family="Arial" font-size="14.00" fill="#000000">site_id    </text>
<text text-anchor="start" x="521.6564" y="-248.9" font-family="Arial" font-size="14.00" fill="#666666">[bigint(20) unsigned]</text>
<polygon fill="none" stroke="#000000" points="440,-207.5 440,-237.5 687,-237.5 687,-207.5 440,-207.5"/>
<text text-anchor="start" x="446.8149" y="-218.9" font-family="Arial" font-size="14.00" fill="#000000">usertype_id    </text>
<text text-anchor="start" x="553.3731" y="-218.9" font-family="Arial" font-size="14.00" fill="#666666">[bigint(20) unsigned]</text>
<polygon fill="none" stroke="#000000" points="440,-177.5 440,-207.5 687,-207.5 687,-177.5 440,-177.5"/>
<text text-anchor="start" x="447" y="-188.9" font-family="Arial" font-size="14.00" fill="#000000">remember_token    </text>
<text text-anchor="start" x="586.9986" y="-188.9" font-family="Arial" font-size="14.00" fill="#666666">[varchar(100)]</text>
<polygon fill="none" stroke="#000000" points="440,-147.5 440,-177.5 687,-177.5 687,-147.5 440,-147.5"/>
<text text-anchor="start" x="447" y="-158.9" font-family="Arial" font-size="14.00" fill="#000000">token    </text>
<text text-anchor="start" x="515.4432" y="-158.9" font-family="Arial" font-size="14.00" fill="#666666">[longtext]</text>
<polygon fill="none" stroke="#000000" points="440,-117.5 440,-147.5 687,-147.5 687,-117.5 440,-117.5"/>
<text text-anchor="start" x="447" y="-128.9" font-family="Arial" font-size="14.00" fill="#000000">isFirstTimeVisit    </text>
<text text-anchor="start" x="576.0646" y="-128.9" font-family="Arial" font-size="14.00" fill="#666666">[tinyint(1)]</text>
<polygon fill="none" stroke="#000000" points="440,-87.5 440,-117.5 687,-117.5 687,-87.5 440,-87.5"/>
<text text-anchor="start" x="447" y="-98.9" font-family="Arial" font-size="14.00" fill="#000000">created_at    </text>
<text text-anchor="start" x="547.3422" y="-98.9" font-family="Arial" font-size="14.00" fill="#666666">[timestamp]</text>
<polygon fill="none" stroke="#000000" points="440,-57.5 440,-87.5 687,-87.5 687,-57.5 440,-57.5"/>
<text text-anchor="start" x="447" y="-68.9" font-family="Arial" font-size="14.00" fill="#000000">updated_at    </text>
<text text-anchor="start" x="551.2468" y="-68.9" font-family="Arial" font-size="14.00" fill="#666666">[timestamp]</text>
</g>
<!-- schools&#45;&gt;users -->
<g id="edge3" class="edge">
<title>schools:owner_id&#45;&gt;users:id</title>
<path fill="none" stroke="#000000" d="M510.1,-1027.243C682.8749,-1018.2183 576.9879,-773.4818 500,-607 485.31,-575.2338 454.69,-587.7662 440,-556 422.5578,-518.2822 398.4444,-462.5 440,-462.5"/>
<polygon fill="#000000" stroke="#000000" points="509.9968,-1027.2455 499.8855,-1023.0015 504.9984,-1027.3728 500,-1027.5 500,-1027.5 500,-1027.5 504.9984,-1027.3728 500.1145,-1031.9985 509.9968,-1027.2455 509.9968,-1027.2455"/>
<text text-anchor="start" x="507.056" y="-1037.5" font-family="Arial" font-size="10.00" fill="#000000">FOREIGN KEY (owner_id) REFERENCES users (id)</text>
</g>
<!-- school_metas -->
<g id="node2" class="node">
<title>school_metas</title>
<polygon fill="#efefef" stroke="transparent" points="259,-1472.5 259,-1507.5 511,-1507.5 511,-1472.5 259,-1472.5"/>
<polygon fill="none" stroke="#000000" points="259,-1472.5 259,-1507.5 511,-1507.5 511,-1472.5 259,-1472.5"/>
<text text-anchor="start" x="265.7031" y="-1485.3" font-family="Arial Bold" font-size="18.00" fill="#000000">school_metas</text>
<text text-anchor="start" x="376.7289" y="-1485.3" font-family="Arial" font-size="14.00" fill="#000000">    </text>
<text text-anchor="start" x="410.9337" y="-1485.3" font-family="Arial" font-size="14.00" fill="#666666">[BASE TABLE]</text>
<polygon fill="none" stroke="#000000" points="259,-1442.5 259,-1472.5 511,-1472.5 511,-1442.5 259,-1442.5"/>
<text text-anchor="start" x="266" y="-1453.9" font-family="Arial" font-size="14.00" fill="#000000">id    </text>
<text text-anchor="start" x="311.094" y="-1453.9" font-family="Arial" font-size="14.00" fill="#666666">[bigint(20) unsigned]</text>
<polygon fill="none" stroke="#000000" points="259,-1412.5 259,-1442.5 511,-1442.5 511,-1412.5 259,-1412.5"/>
<text text-anchor="start" x="266" y="-1423.9" font-family="Arial" font-size="14.00" fill="#000000">school_id    </text>
<text text-anchor="start" x="359.331" y="-1423.9" font-family="Arial" font-size="14.00" fill="#666666">[bigint(20) unsigned]</text>
<polygon fill="none" stroke="#000000" points="259,-1382.5 259,-1412.5 511,-1412.5 511,-1382.5 259,-1382.5"/>
<text text-anchor="start" x="266" y="-1393.9" font-family="Arial" font-size="14.00" fill="#000000">schoolmeta_key    </text>
<text text-anchor="start" x="401.3408" y="-1393.9" font-family="Arial" font-size="14.00" fill="#666666">[varchar(255)]</text>
<polygon fill="none" stroke="#000000" points="259,-1352.5 259,-1382.5 511,-1382.5 511,-1352.5 259,-1352.5"/>
<text text-anchor="start" x="266" y="-1363.9" font-family="Arial" font-size="14.00" fill="#000000">schoolmeta_value    </text>
<text text-anchor="start" x="413.0126" y="-1363.9" font-family="Arial" font-size="14.00" fill="#666666">[varchar(255)]</text>
<polygon fill="none" stroke="#000000" points="259,-1322.5 259,-1352.5 511,-1352.5 511,-1322.5 259,-1322.5"/>
<text text-anchor="start" x="266" y="-1333.9" font-family="Arial" font-size="14.00" fill="#000000">created_at    </text>
<text text-anchor="start" x="366.3422" y="-1333.9" font-family="Arial" font-size="14.00" fill="#666666">[timestamp]</text>
<polygon fill="none" stroke="#000000" points="259,-1292.5 259,-1322.5 511,-1322.5 511,-1292.5 259,-1292.5"/>
<text text-anchor="start" x="266" y="-1303.9" font-family="Arial" font-size="14.00" fill="#000000">updated_at    </text>
<text text-anchor="start" x="370.2468" y="-1303.9" font-family="Arial" font-size="14.00" fill="#666666">[timestamp]</text>
</g>
<!-- school_metas&#45;&gt;schools -->
<g id="edge1" class="edge">
<title>school_metas:school_id&#45;&gt;schools:id</title>
<path fill="none" stroke="#000000" d="M249.0045,-1426.8031C182.6207,-1417.0389 209.8157,-1307.077 259,-1250 329.6965,-1167.9586 429.3035,-1296.0414 500,-1214 527.9973,-1181.5099 542.8889,-1117.5 500,-1117.5"/>
<polygon fill="#000000" stroke="#000000" points="249.0242,-1426.8044 258.687,-1431.9891 254.0121,-1427.1522 259,-1427.5 259,-1427.5 259,-1427.5 254.0121,-1427.1522 259.313,-1423.0109 249.0242,-1426.8044 249.0242,-1426.8044"/>
<text text-anchor="start" x="7.496" y="-1437.5" font-family="Arial" font-size="10.00" fill="#000000">FOREIGN KEY (school_id) REFERENCES schools (id)</text>
</g>
</g>
</svg>
