<?xml version="1.0" encoding="UTF-8" standalone="no"?>
<!DOCTYPE svg PUBLIC "-//W3C//DTD SVG 1.1//EN"
 "http://www.w3.org/Graphics/SVG/1.1/DTD/svg11.dtd">
<!-- Generated by graphviz version 2.40.1 (20161225.0304)
 -->
<!-- Title: site_metas Pages: 1 -->
<svg width="526pt" height="922pt"
 viewBox="0.00 0.00 525.50 922.00" xmlns="http://www.w3.org/2000/svg" xmlns:xlink="http://www.w3.org/1999/xlink">
<g id="graph0" class="graph" transform="scale(1 1) rotate(0) translate(4 918)">
<title>site_metas</title>
<polygon fill="#ffffff" stroke="transparent" points="-4,4 -4,-918 521.5,-918 521.5,4 -4,4"/>
<!-- site_metas -->
<g id="node1" class="node">
<title>site_metas</title>
<polygon fill="#efefef" stroke="transparent" points="232,-832.5 232,-867.5 460,-867.5 460,-832.5 232,-832.5"/>
<polygon fill="none" stroke="#000000" points="232,-832.5 232,-867.5 460,-867.5 460,-832.5 232,-832.5"/>
<text text-anchor="start" x="238.7082" y="-845.3" font-family="Arial Bold" font-size="18.00" fill="#000000">site_metas</text>
<text text-anchor="start" x="325.7238" y="-845.3" font-family="Arial" font-size="14.00" fill="#000000">    </text>
<text text-anchor="start" x="359.9286" y="-845.3" font-family="Arial" font-size="14.00" fill="#666666">[BASE TABLE]</text>
<polygon fill="none" stroke="#000000" points="232,-802.5 232,-832.5 460,-832.5 460,-802.5 232,-802.5"/>
<text text-anchor="start" x="239" y="-813.9" font-family="Arial" font-size="14.00" fill="#000000">id </text>
<text text-anchor="start" x="253.7798" y="-813.9" font-family="Arial" font-size="14.00" fill="#666666">[bigint(20) unsigned]</text>
<polygon fill="none" stroke="#000000" points="232,-772.5 232,-802.5 460,-802.5 460,-772.5 232,-772.5"/>
<text text-anchor="start" x="239" y="-783.9" font-family="Arial" font-size="14.00" fill="#000000">site_id </text>
<text text-anchor="start" x="283.3422" y="-783.9" font-family="Arial" font-size="14.00" fill="#666666">[bigint(20) unsigned]</text>
<polygon fill="none" stroke="#000000" points="232,-742.5 232,-772.5 460,-772.5 460,-742.5 232,-742.5"/>
<text text-anchor="start" x="239" y="-753.9" font-family="Arial" font-size="14.00" fill="#000000">site_meta_key </text>
<text text-anchor="start" x="333.1346" y="-753.9" font-family="Arial" font-size="14.00" fill="#666666">[varchar(255)]</text>
<polygon fill="none" stroke="#000000" points="232,-712.5 232,-742.5 460,-742.5 460,-712.5 232,-712.5"/>
<text text-anchor="start" x="239" y="-723.9" font-family="Arial" font-size="14.00" fill="#000000">site_meta_value </text>
<text text-anchor="start" x="344.8064" y="-723.9" font-family="Arial" font-size="14.00" fill="#666666">[text]</text>
<polygon fill="none" stroke="#000000" points="232,-682.5 232,-712.5 460,-712.5 460,-682.5 232,-682.5"/>
<text text-anchor="start" x="239" y="-693.9" font-family="Arial" font-size="14.00" fill="#000000">created_at </text>
<text text-anchor="start" x="309.028" y="-693.9" font-family="Arial" font-size="14.00" fill="#666666">[timestamp]</text>
<polygon fill="none" stroke="#000000" points="232,-652.5 232,-682.5 460,-682.5 460,-652.5 232,-652.5"/>
<text text-anchor="start" x="239" y="-663.9" font-family="Arial" font-size="14.00" fill="#000000">updated_at </text>
<text text-anchor="start" x="312.9326" y="-663.9" font-family="Arial" font-size="14.00" fill="#666666">[timestamp]</text>
<polygon fill="none" stroke="#000000" stroke-width="3" points="230.5,-651.5 230.5,-869.5 461.5,-869.5 461.5,-651.5 230.5,-651.5"/>
</g>
<!-- sites -->
<g id="node2" class="node">
<title>sites</title>
<polygon fill="#efefef" stroke="transparent" points="216,-492.5 216,-527.5 475,-527.5 475,-492.5 216,-492.5"/>
<polygon fill="none" stroke="#000000" points="216,-492.5 216,-527.5 475,-527.5 475,-492.5 216,-492.5"/>
<text text-anchor="start" x="263.2147" y="-505.3" font-family="Arial Bold" font-size="18.00" fill="#000000">sites</text>
<text text-anchor="start" x="300.2173" y="-505.3" font-family="Arial" font-size="14.00" fill="#000000">    </text>
<text text-anchor="start" x="334.4221" y="-505.3" font-family="Arial" font-size="14.00" fill="#666666">[BASE TABLE]</text>
<polygon fill="none" stroke="#000000" points="216,-462.5 216,-492.5 475,-492.5 475,-462.5 216,-462.5"/>
<text text-anchor="start" x="223" y="-473.9" font-family="Arial" font-size="14.00" fill="#000000">id    </text>
<text text-anchor="start" x="268.094" y="-473.9" font-family="Arial" font-size="14.00" fill="#666666">[bigint(20) unsigned]</text>
<polygon fill="none" stroke="#000000" points="216,-432.5 216,-462.5 475,-462.5 475,-432.5 216,-432.5"/>
<text text-anchor="start" x="223" y="-443.9" font-family="Arial" font-size="14.00" fill="#000000">site_uid    </text>
<text text-anchor="start" x="305.439" y="-443.9" font-family="Arial" font-size="14.00" fill="#666666">[varchar(255)]</text>
<polygon fill="none" stroke="#000000" points="216,-402.5 216,-432.5 475,-432.5 475,-402.5 216,-402.5"/>
<text text-anchor="start" x="223" y="-413.9" font-family="Arial" font-size="14.00" fill="#000000">site_id    </text>
<text text-anchor="start" x="297.6564" y="-413.9" font-family="Arial" font-size="14.00" fill="#666666">[bigint(20) unsigned]</text>
<polygon fill="none" stroke="#000000" points="216,-372.5 216,-402.5 475,-402.5 475,-372.5 216,-372.5"/>
<text text-anchor="start" x="223" y="-383.9" font-family="Arial" font-size="14.00" fill="#000000">site_name    </text>
<text text-anchor="start" x="321.7756" y="-383.9" font-family="Arial" font-size="14.00" fill="#666666">[varchar(255)]</text>
<polygon fill="none" stroke="#000000" points="216,-342.5 216,-372.5 475,-372.5 475,-342.5 216,-342.5"/>
<text text-anchor="start" x="223" y="-353.9" font-family="Arial" font-size="14.00" fill="#000000">site_value    </text>
<text text-anchor="start" x="320.2216" y="-353.9" font-family="Arial" font-size="14.00" fill="#666666">[text]</text>
<polygon fill="none" stroke="#000000" points="216,-312.5 216,-342.5 475,-342.5 475,-312.5 216,-312.5"/>
<text text-anchor="start" x="223" y="-323.9" font-family="Arial" font-size="14.00" fill="#000000">category_code    </text>
<text text-anchor="start" x="349.0168" y="-323.9" font-family="Arial" font-size="14.00" fill="#666666">[varchar(255)]</text>
<polygon fill="none" stroke="#000000" points="216,-282.5 216,-312.5 475,-312.5 475,-282.5 216,-282.5"/>
<text text-anchor="start" x="223" y="-293.9" font-family="Arial" font-size="14.00" fill="#000000">category_desc    </text>
<text text-anchor="start" x="348.2342" y="-293.9" font-family="Arial" font-size="14.00" fill="#666666">[varchar(255)]</text>
<polygon fill="none" stroke="#000000" points="216,-252.5 216,-282.5 475,-282.5 475,-252.5 216,-252.5"/>
<text text-anchor="start" x="223" y="-263.9" font-family="Arial" font-size="14.00" fill="#000000">site_type_code    </text>
<text text-anchor="start" x="351.3534" y="-263.9" font-family="Arial" font-size="14.00" fill="#666666">[varchar(255)]</text>
<polygon fill="none" stroke="#000000" points="216,-222.5 216,-252.5 475,-252.5 475,-222.5 216,-222.5"/>
<text text-anchor="start" x="223" y="-233.9" font-family="Arial" font-size="14.00" fill="#000000">site_type_desc    </text>
<text text-anchor="start" x="350.5708" y="-233.9" font-family="Arial" font-size="14.00" fill="#666666">[text]</text>
<polygon fill="none" stroke="#000000" points="216,-192.5 216,-222.5 475,-222.5 475,-192.5 216,-192.5"/>
<text text-anchor="start" x="222.5898" y="-203.9" font-family="Arial" font-size="14.00" fill="#000000">site_sub_type_code    </text>
<text text-anchor="start" x="381.291" y="-203.9" font-family="Arial" font-size="14.00" fill="#666666">[varchar(255)]</text>
<polygon fill="none" stroke="#000000" points="216,-162.5 216,-192.5 475,-192.5 475,-162.5 216,-162.5"/>
<text text-anchor="start" x="223" y="-173.9" font-family="Arial" font-size="14.00" fill="#000000">site_sub_type_desc    </text>
<text text-anchor="start" x="380.9186" y="-173.9" font-family="Arial" font-size="14.00" fill="#666666">[text]</text>
<polygon fill="none" stroke="#000000" points="216,-132.5 216,-162.5 475,-162.5 475,-132.5 216,-132.5"/>
<text text-anchor="start" x="223" y="-143.9" font-family="Arial" font-size="14.00" fill="#000000">site_latitude    </text>
<text text-anchor="start" x="331.892" y="-143.9" font-family="Arial" font-size="14.00" fill="#666666">[varchar(255)]</text>
<polygon fill="none" stroke="#000000" points="216,-102.5 216,-132.5 475,-132.5 475,-102.5 216,-102.5"/>
<text text-anchor="start" x="223" y="-113.9" font-family="Arial" font-size="14.00" fill="#000000">site_longitude    </text>
<text text-anchor="start" x="343.5666" y="-113.9" font-family="Arial" font-size="14.00" fill="#666666">[varchar(255)]</text>
<polygon fill="none" stroke="#000000" points="216,-72.5 216,-102.5 475,-102.5 475,-72.5 216,-72.5"/>
<text text-anchor="start" x="223" y="-83.9" font-family="Arial" font-size="14.00" fill="#000000">created_at    </text>
<text text-anchor="start" x="323.3422" y="-83.9" font-family="Arial" font-size="14.00" fill="#666666">[timestamp]</text>
<polygon fill="none" stroke="#000000" points="216,-42.5 216,-72.5 475,-72.5 475,-42.5 216,-42.5"/>
<text text-anchor="start" x="223" y="-53.9" font-family="Arial" font-size="14.00" fill="#000000">updated_at    </text>
<text text-anchor="start" x="327.2468" y="-53.9" font-family="Arial" font-size="14.00" fill="#666666">[timestamp]</text>
</g>
<!-- site_metas&#45;&gt;sites -->
<g id="edge1" class="edge">
<title>site_metas:site_id&#45;&gt;sites:id</title>
<path fill="none" stroke="#000000" d="M221.8353,-786.7912C154.3266,-776.8594 181.9496,-665.0116 232,-607 303.3202,-524.3354 403.6798,-653.6646 475,-571 502.1459,-539.5363 516.5556,-477.5 475,-477.5"/>
<polygon fill="#000000" stroke="#000000" points="222.0242,-786.8043 231.6869,-791.9891 227.0121,-787.1521 232,-787.5 232,-787.5 232,-787.5 227.0121,-787.1521 232.3131,-783.0109 222.0242,-786.8043 222.0242,-786.8043"/>
<text text-anchor="start" x="6.835" y="-797.5" font-family="Arial" font-size="10.00" fill="#000000">FOREIGN KEY (site_id) REFERENCES sites (id)</text>
</g>
</g>
</svg>
