<?xml version="1.0" encoding="UTF-8" standalone="no"?>
<!DOCTYPE svg PUBLIC "-//W3C//DTD SVG 1.1//EN"
 "http://www.w3.org/Graphics/SVG/1.1/DTD/svg11.dtd">
<!-- Generated by graphviz version 2.40.1 (20161225.0304)
 -->
<!-- Title: sites Pages: 1 -->
<svg width="1039pt" height="1222pt"
 viewBox="0.00 0.00 1038.50 1222.00" xmlns="http://www.w3.org/2000/svg" xmlns:xlink="http://www.w3.org/1999/xlink">
<g id="graph0" class="graph" transform="scale(1 1) rotate(0) translate(4 1218)">
<title>sites</title>
<polygon fill="#ffffff" stroke="transparent" points="-4,4 -4,-1218 1034.5,-1218 1034.5,4 -4,4"/>
<!-- sites -->
<g id="node1" class="node">
<title>sites</title>
<polygon fill="#efefef" stroke="transparent" points="392,-495.5 392,-530.5 621,-530.5 621,-495.5 392,-495.5"/>
<polygon fill="none" stroke="#000000" points="392,-495.5 392,-530.5 621,-530.5 621,-495.5 392,-495.5"/>
<text text-anchor="start" x="424.2147" y="-508.3" font-family="Arial Bold" font-size="18.00" fill="#000000">sites</text>
<text text-anchor="start" x="461.2173" y="-508.3" font-family="Arial" font-size="14.00" fill="#000000">    </text>
<text text-anchor="start" x="495.4221" y="-508.3" font-family="Arial" font-size="14.00" fill="#666666">[BASE TABLE]</text>
<polygon fill="none" stroke="#000000" points="392,-465.5 392,-495.5 621,-495.5 621,-465.5 392,-465.5"/>
<text text-anchor="start" x="399" y="-476.9" font-family="Arial" font-size="14.00" fill="#000000">id </text>
<text text-anchor="start" x="413.7798" y="-476.9" font-family="Arial" font-size="14.00" fill="#666666">[bigint(20) unsigned]</text>
<polygon fill="none" stroke="#000000" points="392,-435.5 392,-465.5 621,-465.5 621,-435.5 392,-435.5"/>
<text text-anchor="start" x="399" y="-446.9" font-family="Arial" font-size="14.00" fill="#000000">site_uid </text>
<text text-anchor="start" x="451.1248" y="-446.9" font-family="Arial" font-size="14.00" fill="#666666">[varchar(255)]</text>
<polygon fill="none" stroke="#000000" points="392,-405.5 392,-435.5 621,-435.5 621,-405.5 392,-405.5"/>
<text text-anchor="start" x="399" y="-416.9" font-family="Arial" font-size="14.00" fill="#000000">site_id </text>
<text text-anchor="start" x="443.3422" y="-416.9" font-family="Arial" font-size="14.00" fill="#666666">[bigint(20) unsigned]</text>
<polygon fill="none" stroke="#000000" points="392,-375.5 392,-405.5 621,-405.5 621,-375.5 392,-375.5"/>
<text text-anchor="start" x="399" y="-386.9" font-family="Arial" font-size="14.00" fill="#000000">site_name </text>
<text text-anchor="start" x="467.4614" y="-386.9" font-family="Arial" font-size="14.00" fill="#666666">[varchar(255)]</text>
<polygon fill="none" stroke="#000000" points="392,-345.5 392,-375.5 621,-375.5 621,-345.5 392,-345.5"/>
<text text-anchor="start" x="399" y="-356.9" font-family="Arial" font-size="14.00" fill="#000000">site_value </text>
<text text-anchor="start" x="465.9074" y="-356.9" font-family="Arial" font-size="14.00" fill="#666666">[text]</text>
<polygon fill="none" stroke="#000000" points="392,-315.5 392,-345.5 621,-345.5 621,-315.5 392,-315.5"/>
<text text-anchor="start" x="399" y="-326.9" font-family="Arial" font-size="14.00" fill="#000000">category_code </text>
<text text-anchor="start" x="494.7026" y="-326.9" font-family="Arial" font-size="14.00" fill="#666666">[varchar(255)]</text>
<polygon fill="none" stroke="#000000" points="392,-285.5 392,-315.5 621,-315.5 621,-285.5 392,-285.5"/>
<text text-anchor="start" x="399" y="-296.9" font-family="Arial" font-size="14.00" fill="#000000">category_desc </text>
<text text-anchor="start" x="493.92" y="-296.9" font-family="Arial" font-size="14.00" fill="#666666">[varchar(255)]</text>
<polygon fill="none" stroke="#000000" points="392,-255.5 392,-285.5 621,-285.5 621,-255.5 392,-255.5"/>
<text text-anchor="start" x="399" y="-266.9" font-family="Arial" font-size="14.00" fill="#000000">site_type_code </text>
<text text-anchor="start" x="497.0392" y="-266.9" font-family="Arial" font-size="14.00" fill="#666666">[varchar(255)]</text>
<polygon fill="none" stroke="#000000" points="392,-225.5 392,-255.5 621,-255.5 621,-225.5 392,-225.5"/>
<text text-anchor="start" x="399" y="-236.9" font-family="Arial" font-size="14.00" fill="#000000">site_type_desc </text>
<text text-anchor="start" x="496.2566" y="-236.9" font-family="Arial" font-size="14.00" fill="#666666">[text]</text>
<polygon fill="none" stroke="#000000" points="392,-195.5 392,-225.5 621,-225.5 621,-195.5 392,-195.5"/>
<text text-anchor="start" x="398.7469" y="-206.9" font-family="Arial" font-size="14.00" fill="#000000">site_sub_type_code </text>
<text text-anchor="start" x="527.1339" y="-206.9" font-family="Arial" font-size="14.00" fill="#666666">[varchar(255)]</text>
<polygon fill="none" stroke="#000000" points="392,-165.5 392,-195.5 621,-195.5 621,-165.5 392,-165.5"/>
<text text-anchor="start" x="399" y="-176.9" font-family="Arial" font-size="14.00" fill="#000000">site_sub_type_desc </text>
<text text-anchor="start" x="526.6044" y="-176.9" font-family="Arial" font-size="14.00" fill="#666666">[text]</text>
<polygon fill="none" stroke="#000000" points="392,-135.5 392,-165.5 621,-165.5 621,-135.5 392,-135.5"/>
<text text-anchor="start" x="399" y="-146.9" font-family="Arial" font-size="14.00" fill="#000000">site_latitude </text>
<text text-anchor="start" x="477.5778" y="-146.9" font-family="Arial" font-size="14.00" fill="#666666">[varchar(255)]</text>
<polygon fill="none" stroke="#000000" points="392,-105.5 392,-135.5 621,-135.5 621,-105.5 392,-105.5"/>
<text text-anchor="start" x="399" y="-116.9" font-family="Arial" font-size="14.00" fill="#000000">site_longitude </text>
<text text-anchor="start" x="489.2524" y="-116.9" font-family="Arial" font-size="14.00" fill="#666666">[varchar(255)]</text>
<polygon fill="none" stroke="#000000" points="392,-75.5 392,-105.5 621,-105.5 621,-75.5 392,-75.5"/>
<text text-anchor="start" x="399" y="-86.9" font-family="Arial" font-size="14.00" fill="#000000">created_at </text>
<text text-anchor="start" x="469.028" y="-86.9" font-family="Arial" font-size="14.00" fill="#666666">[timestamp]</text>
<polygon fill="none" stroke="#000000" points="392,-45.5 392,-75.5 621,-75.5 621,-45.5 392,-45.5"/>
<text text-anchor="start" x="399" y="-56.9" font-family="Arial" font-size="14.00" fill="#000000">updated_at </text>
<text text-anchor="start" x="472.9326" y="-56.9" font-family="Arial" font-size="14.00" fill="#666666">[timestamp]</text>
<polygon fill="none" stroke="#000000" stroke-width="3" points="390,-44.5 390,-532.5 622,-532.5 622,-44.5 390,-44.5"/>
</g>
<!-- site_metas -->
<g id="node2" class="node">
<title>site_metas</title>
<polygon fill="#efefef" stroke="transparent" points="43,-985.5 43,-1020.5 271,-1020.5 271,-985.5 43,-985.5"/>
<polygon fill="none" stroke="#000000" points="43,-985.5 43,-1020.5 271,-1020.5 271,-985.5 43,-985.5"/>
<text text-anchor="start" x="49.7082" y="-998.3" font-family="Arial Bold" font-size="18.00" fill="#000000">site_metas</text>
<text text-anchor="start" x="136.7238" y="-998.3" font-family="Arial" font-size="14.00" fill="#000000">    </text>
<text text-anchor="start" x="170.9286" y="-998.3" font-family="Arial" font-size="14.00" fill="#666666">[BASE TABLE]</text>
<polygon fill="none" stroke="#000000" points="43,-955.5 43,-985.5 271,-985.5 271,-955.5 43,-955.5"/>
<text text-anchor="start" x="50" y="-966.9" font-family="Arial" font-size="14.00" fill="#000000">id    </text>
<text text-anchor="start" x="95.094" y="-966.9" font-family="Arial" font-size="14.00" fill="#666666">[bigint(20) unsigned]</text>
<polygon fill="none" stroke="#000000" points="43,-925.5 43,-955.5 271,-955.5 271,-925.5 43,-925.5"/>
<text text-anchor="start" x="50" y="-936.9" font-family="Arial" font-size="14.00" fill="#000000">site_id    </text>
<text text-anchor="start" x="124.6564" y="-936.9" font-family="Arial" font-size="14.00" fill="#666666">[bigint(20) unsigned]</text>
<polygon fill="none" stroke="#000000" points="43,-895.5 43,-925.5 271,-925.5 271,-895.5 43,-895.5"/>
<text text-anchor="start" x="50" y="-906.9" font-family="Arial" font-size="14.00" fill="#000000">site_meta_key    </text>
<text text-anchor="start" x="174.4488" y="-906.9" font-family="Arial" font-size="14.00" fill="#666666">[varchar(255)]</text>
<polygon fill="none" stroke="#000000" points="43,-865.5 43,-895.5 271,-895.5 271,-865.5 43,-865.5"/>
<text text-anchor="start" x="50" y="-876.9" font-family="Arial" font-size="14.00" fill="#000000">site_meta_value    </text>
<text text-anchor="start" x="186.1206" y="-876.9" font-family="Arial" font-size="14.00" fill="#666666">[text]</text>
<polygon fill="none" stroke="#000000" points="43,-835.5 43,-865.5 271,-865.5 271,-835.5 43,-835.5"/>
<text text-anchor="start" x="50" y="-846.9" font-family="Arial" font-size="14.00" fill="#000000">created_at    </text>
<text text-anchor="start" x="150.3422" y="-846.9" font-family="Arial" font-size="14.00" fill="#666666">[timestamp]</text>
<polygon fill="none" stroke="#000000" points="43,-805.5 43,-835.5 271,-835.5 271,-805.5 43,-805.5"/>
<text text-anchor="start" x="50" y="-816.9" font-family="Arial" font-size="14.00" fill="#000000">updated_at    </text>
<text text-anchor="start" x="154.2468" y="-816.9" font-family="Arial" font-size="14.00" fill="#666666">[timestamp]</text>
</g>
<!-- site_metas&#45;&gt;sites -->
<g id="edge1" class="edge">
<title>site_metas:site_id&#45;&gt;sites:id</title>
<path fill="none" stroke="#000000" d="M280.9687,-938.7099C340.4778,-915.7984 301.0322,-679.5598 323,-613 343.8094,-549.9499 325.6046,-480.5 392,-480.5"/>
<polygon fill="#000000" stroke="#000000" points="280.8426,-938.7324 270.2046,-936.0708 275.9213,-939.6162 271,-940.5 271,-940.5 271,-940.5 275.9213,-939.6162 271.7954,-944.9292 280.8426,-938.7324 280.8426,-938.7324"/>
<text text-anchor="start" x="277.835" y="-950.5" font-family="Arial" font-size="10.00" fill="#000000">FOREIGN KEY (site_id) REFERENCES sites (id)</text>
</g>
<!-- schools -->
<g id="node3" class="node">
<title>schools</title>
<polygon fill="#efefef" stroke="transparent" points="376,-1135.5 376,-1170.5 637,-1170.5 637,-1135.5 376,-1135.5"/>
<polygon fill="none" stroke="#000000" points="376,-1135.5 376,-1170.5 637,-1170.5 637,-1135.5 376,-1135.5"/>
<text text-anchor="start" x="412.2096" y="-1148.3" font-family="Arial Bold" font-size="18.00" fill="#000000">schools</text>
<text text-anchor="start" x="473.2224" y="-1148.3" font-family="Arial" font-size="14.00" fill="#000000">    </text>
<text text-anchor="start" x="507.4272" y="-1148.3" font-family="Arial" font-size="14.00" fill="#666666">[BASE TABLE]</text>
<polygon fill="none" stroke="#000000" points="376,-1105.5 376,-1135.5 637,-1135.5 637,-1105.5 376,-1105.5"/>
<text text-anchor="start" x="383" y="-1116.9" font-family="Arial" font-size="14.00" fill="#000000">id    </text>
<text text-anchor="start" x="428.094" y="-1116.9" font-family="Arial" font-size="14.00" fill="#666666">[bigint(20) unsigned]</text>
<polygon fill="none" stroke="#000000" points="376,-1075.5 376,-1105.5 637,-1105.5 637,-1075.5 376,-1075.5"/>
<text text-anchor="start" x="383" y="-1086.9" font-family="Arial" font-size="14.00" fill="#000000">school_id    </text>
<text text-anchor="start" x="476.331" y="-1086.9" font-family="Arial" font-size="14.00" fill="#666666">[int(10) unsigned]</text>
<polygon fill="none" stroke="#000000" points="376,-1045.5 376,-1075.5 637,-1075.5 637,-1045.5 376,-1045.5"/>
<text text-anchor="start" x="383" y="-1056.9" font-family="Arial" font-size="14.00" fill="#000000">site_id    </text>
<text text-anchor="start" x="457.6564" y="-1056.9" font-family="Arial" font-size="14.00" fill="#666666">[bigint(20) unsigned]</text>
<polygon fill="none" stroke="#000000" points="376,-1015.5 376,-1045.5 637,-1045.5 637,-1015.5 376,-1015.5"/>
<text text-anchor="start" x="383" y="-1026.9" font-family="Arial" font-size="14.00" fill="#000000">owner_id    </text>
<text text-anchor="start" x="473.9916" y="-1026.9" font-family="Arial" font-size="14.00" fill="#666666">[bigint(20) unsigned]</text>
<polygon fill="none" stroke="#000000" points="376,-985.5 376,-1015.5 637,-1015.5 637,-985.5 376,-985.5"/>
<text text-anchor="start" x="383" y="-996.9" font-family="Arial" font-size="14.00" fill="#000000">allowEditIds    </text>
<text text-anchor="start" x="491.8794" y="-996.9" font-family="Arial" font-size="14.00" fill="#666666">[varchar(255)]</text>
<polygon fill="none" stroke="#000000" points="376,-955.5 376,-985.5 637,-985.5 637,-955.5 376,-955.5"/>
<text text-anchor="start" x="383" y="-966.9" font-family="Arial" font-size="14.00" fill="#000000">name    </text>
<text text-anchor="start" x="452.2132" y="-966.9" font-family="Arial" font-size="14.00" fill="#666666">[varchar(255)]</text>
<polygon fill="none" stroke="#000000" points="376,-925.5 376,-955.5 637,-955.5 637,-925.5 376,-925.5"/>
<text text-anchor="start" x="383" y="-936.9" font-family="Arial" font-size="14.00" fill="#000000">content_blocks    </text>
<text text-anchor="start" x="510.5708" y="-936.9" font-family="Arial" font-size="14.00" fill="#666666">[longtext]</text>
<polygon fill="none" stroke="#000000" points="376,-895.5 376,-925.5 637,-925.5 637,-895.5 376,-895.5"/>
<text text-anchor="start" x="383" y="-906.9" font-family="Arial" font-size="14.00" fill="#000000">logo    </text>
<text text-anchor="start" x="443.6592" y="-906.9" font-family="Arial" font-size="14.00" fill="#666666">[varchar(255)]</text>
<polygon fill="none" stroke="#000000" points="376,-865.5 376,-895.5 637,-895.5 637,-865.5 376,-865.5"/>
<text text-anchor="start" x="383" y="-876.9" font-family="Arial" font-size="14.00" fill="#000000">cover_image    </text>
<text text-anchor="start" x="497.3282" y="-876.9" font-family="Arial" font-size="14.00" fill="#666666">[varchar(255)]</text>
<polygon fill="none" stroke="#000000" points="376,-835.5 376,-865.5 637,-865.5 637,-835.5 376,-835.5"/>
<text text-anchor="start" x="383" y="-846.9" font-family="Arial" font-size="14.00" fill="#000000">tech_used    </text>
<text text-anchor="start" x="481.791" y="-846.9" font-family="Arial" font-size="14.00" fill="#666666">[longtext]</text>
<polygon fill="none" stroke="#000000" points="376,-805.5 376,-835.5 637,-835.5 637,-805.5 376,-805.5"/>
<text text-anchor="start" x="383" y="-816.9" font-family="Arial" font-size="14.00" fill="#000000">status    </text>
<text text-anchor="start" x="454.5512" y="-816.9" font-family="Arial" font-size="14.00" fill="#666666">[varchar(255)]</text>
<polygon fill="none" stroke="#000000" points="376,-775.5 376,-805.5 637,-805.5 637,-775.5 376,-775.5"/>
<text text-anchor="start" x="382.8002" y="-786.9" font-family="Arial" font-size="14.00" fill="#000000">pedagogical_approaches    </text>
<text text-anchor="start" x="573.4004" y="-786.9" font-family="Arial" font-size="14.00" fill="#666666">[longtext]</text>
<polygon fill="none" stroke="#000000" points="376,-745.5 376,-775.5 637,-775.5 637,-745.5 376,-745.5"/>
<text text-anchor="start" x="383" y="-756.9" font-family="Arial" font-size="14.00" fill="#000000">tech_landscape    </text>
<text text-anchor="start" x="515.2454" y="-756.9" font-family="Arial" font-size="14.00" fill="#666666">[longtext]</text>
<polygon fill="none" stroke="#000000" points="376,-715.5 376,-745.5 637,-745.5 637,-715.5 376,-715.5"/>
<text text-anchor="start" x="383" y="-726.9" font-family="Arial" font-size="14.00" fill="#000000">isFeatured    </text>
<text text-anchor="start" x="483.3282" y="-726.9" font-family="Arial" font-size="14.00" fill="#666666">[tinyint(1)]</text>
<polygon fill="none" stroke="#000000" points="376,-685.5 376,-715.5 637,-715.5 637,-685.5 376,-685.5"/>
<text text-anchor="start" x="383" y="-696.9" font-family="Arial" font-size="14.00" fill="#000000">created_at    </text>
<text text-anchor="start" x="483.3422" y="-696.9" font-family="Arial" font-size="14.00" fill="#666666">[timestamp]</text>
<polygon fill="none" stroke="#000000" points="376,-655.5 376,-685.5 637,-685.5 637,-655.5 376,-655.5"/>
<text text-anchor="start" x="383" y="-666.9" font-family="Arial" font-size="14.00" fill="#000000">updated_at    </text>
<text text-anchor="start" x="487.2468" y="-666.9" font-family="Arial" font-size="14.00" fill="#666666">[timestamp]</text>
</g>
<!-- schools&#45;&gt;sites -->
<g id="edge2" class="edge">
<title>schools:site_id&#45;&gt;sites:site_id</title>
<path fill="none" stroke="#000000" d="M366.5679,-1056.4131C306.4878,-1001.9063 324.201,-420.5 392,-420.5"/>
<polygon fill="#000000" stroke="#000000" points="366.8243,-1056.5241 374.2109,-1064.6291 371.4122,-1058.5121 376,-1060.5 376,-1060.5 376,-1060.5 371.4122,-1058.5121 377.7891,-1056.3709 366.8243,-1056.5241 366.8243,-1056.5241"/>
<text text-anchor="start" x="130.277" y="-1070.5" font-family="Arial" font-size="10.00" fill="#000000">FOREIGN KEY (site_id) REFERENCES sites (site_id)</text>
</g>
<!-- users -->
<g id="node4" class="node">
<title>users</title>
<polygon fill="#efefef" stroke="transparent" points="741,-1105.5 741,-1140.5 988,-1140.5 988,-1105.5 741,-1105.5"/>
<polygon fill="none" stroke="#000000" points="741,-1105.5 741,-1140.5 988,-1140.5 988,-1105.5 741,-1105.5"/>
<text text-anchor="start" x="778.7137" y="-1118.3" font-family="Arial Bold" font-size="18.00" fill="#000000">users</text>
<text text-anchor="start" x="822.7183" y="-1118.3" font-family="Arial" font-size="14.00" fill="#000000">    </text>
<text text-anchor="start" x="856.9231" y="-1118.3" font-family="Arial" font-size="14.00" fill="#666666">[BASE TABLE]</text>
<polygon fill="none" stroke="#000000" points="741,-1075.5 741,-1105.5 988,-1105.5 988,-1075.5 741,-1075.5"/>
<text text-anchor="start" x="748" y="-1086.9" font-family="Arial" font-size="14.00" fill="#000000">id    </text>
<text text-anchor="start" x="793.094" y="-1086.9" font-family="Arial" font-size="14.00" fill="#666666">[bigint(20) unsigned]</text>
<polygon fill="none" stroke="#000000" points="741,-1045.5 741,-1075.5 988,-1075.5 988,-1045.5 741,-1045.5"/>
<text text-anchor="start" x="748" y="-1056.9" font-family="Arial" font-size="14.00" fill="#000000">full_name    </text>
<text text-anchor="start" x="842.8822" y="-1056.9" font-family="Arial" font-size="14.00" fill="#666666">[varchar(255)]</text>
<polygon fill="none" stroke="#000000" points="741,-1015.5 741,-1045.5 988,-1045.5 988,-1015.5 741,-1015.5"/>
<text text-anchor="start" x="748" y="-1026.9" font-family="Arial" font-size="14.00" fill="#000000">display_name    </text>
<text text-anchor="start" x="868.5568" y="-1026.9" font-family="Arial" font-size="14.00" fill="#666666">[varchar(255)]</text>
<polygon fill="none" stroke="#000000" points="741,-985.5 741,-1015.5 988,-1015.5 988,-985.5 741,-985.5"/>
<text text-anchor="start" x="748" y="-996.9" font-family="Arial" font-size="14.00" fill="#000000">email    </text>
<text text-anchor="start" x="815.6438" y="-996.9" font-family="Arial" font-size="14.00" fill="#666666">[varchar(255)]</text>
<polygon fill="none" stroke="#000000" points="741,-955.5 741,-985.5 988,-985.5 988,-955.5 741,-955.5"/>
<text text-anchor="start" x="748" y="-966.9" font-family="Arial" font-size="14.00" fill="#000000">password    </text>
<text text-anchor="start" x="842.1024" y="-966.9" font-family="Arial" font-size="14.00" fill="#666666">[varchar(255)]</text>
<polygon fill="none" stroke="#000000" points="741,-925.5 741,-955.5 988,-955.5 988,-925.5 741,-925.5"/>
<text text-anchor="start" x="748" y="-936.9" font-family="Arial" font-size="14.00" fill="#000000">status    </text>
<text text-anchor="start" x="819.5512" y="-936.9" font-family="Arial" font-size="14.00" fill="#666666">[varchar(255)]</text>
<polygon fill="none" stroke="#000000" points="741,-895.5 741,-925.5 988,-925.5 988,-895.5 741,-895.5"/>
<text text-anchor="start" x="748" y="-906.9" font-family="Arial" font-size="14.00" fill="#000000">role_id    </text>
<text text-anchor="start" x="824.209" y="-906.9" font-family="Arial" font-size="14.00" fill="#666666">[bigint(20) unsigned]</text>
<polygon fill="none" stroke="#000000" points="741,-865.5 741,-895.5 988,-895.5 988,-865.5 741,-865.5"/>
<text text-anchor="start" x="748" y="-876.9" font-family="Arial" font-size="14.00" fill="#000000">site_id    </text>
<text text-anchor="start" x="822.6564" y="-876.9" font-family="Arial" font-size="14.00" fill="#666666">[bigint(20) unsigned]</text>
<polygon fill="none" stroke="#000000" points="741,-835.5 741,-865.5 988,-865.5 988,-835.5 741,-835.5"/>
<text text-anchor="start" x="747.8149" y="-846.9" font-family="Arial" font-size="14.00" fill="#000000">usertype_id    </text>
<text text-anchor="start" x="854.3731" y="-846.9" font-family="Arial" font-size="14.00" fill="#666666">[bigint(20) unsigned]</text>
<polygon fill="none" stroke="#000000" points="741,-805.5 741,-835.5 988,-835.5 988,-805.5 741,-805.5"/>
<text text-anchor="start" x="748" y="-816.9" font-family="Arial" font-size="14.00" fill="#000000">remember_token    </text>
<text text-anchor="start" x="887.9986" y="-816.9" font-family="Arial" font-size="14.00" fill="#666666">[varchar(100)]</text>
<polygon fill="none" stroke="#000000" points="741,-775.5 741,-805.5 988,-805.5 988,-775.5 741,-775.5"/>
<text text-anchor="start" x="748" y="-786.9" font-family="Arial" font-size="14.00" fill="#000000">token    </text>
<text text-anchor="start" x="816.4432" y="-786.9" font-family="Arial" font-size="14.00" fill="#666666">[longtext]</text>
<polygon fill="none" stroke="#000000" points="741,-745.5 741,-775.5 988,-775.5 988,-745.5 741,-745.5"/>
<text text-anchor="start" x="748" y="-756.9" font-family="Arial" font-size="14.00" fill="#000000">isFirstTimeVisit    </text>
<text text-anchor="start" x="877.0646" y="-756.9" font-family="Arial" font-size="14.00" fill="#666666">[tinyint(1)]</text>
<polygon fill="none" stroke="#000000" points="741,-715.5 741,-745.5 988,-745.5 988,-715.5 741,-715.5"/>
<text text-anchor="start" x="748" y="-726.9" font-family="Arial" font-size="14.00" fill="#000000">created_at    </text>
<text text-anchor="start" x="848.3422" y="-726.9" font-family="Arial" font-size="14.00" fill="#666666">[timestamp]</text>
<polygon fill="none" stroke="#000000" points="741,-685.5 741,-715.5 988,-715.5 988,-685.5 741,-685.5"/>
<text text-anchor="start" x="748" y="-696.9" font-family="Arial" font-size="14.00" fill="#000000">updated_at    </text>
<text text-anchor="start" x="852.2468" y="-696.9" font-family="Arial" font-size="14.00" fill="#666666">[timestamp]</text>
</g>
<!-- users&#45;&gt;sites -->
<g id="edge3" class="edge">
<title>users:site_id&#45;&gt;sites:site_id</title>
<path fill="none" stroke="#000000" d="M731.2056,-878.419C683.171,-856.5169 703.9741,-668.0072 689,-613 665.1668,-525.4494 711.7366,-420.5 621,-420.5"/>
<polygon fill="#000000" stroke="#000000" points="731.2183,-878.4216 740.0647,-884.9017 736.1092,-879.4608 741,-880.5 741,-880.5 741,-880.5 736.1092,-879.4608 741.9353,-876.0983 731.2183,-878.4216 731.2183,-878.4216"/>
<text text-anchor="start" x="748.277" y="-890.5" font-family="Arial" font-size="10.00" fill="#000000">FOREIGN KEY (site_id) REFERENCES sites (site_id)</text>
</g>
</g>
</svg>
