<?xml version="1.0" encoding="UTF-8" standalone="no"?>
<!DOCTYPE svg PUBLIC "-//W3C//DTD SVG 1.1//EN"
 "http://www.w3.org/Graphics/SVG/1.1/DTD/svg11.dtd">
<!-- Generated by graphviz version 2.40.1 (20161225.0304)
 -->
<!-- Title: softwares Pages: 1 -->
<svg width="819pt" height="1439pt"
 viewBox="0.00 0.00 819.00 1439.00" xmlns="http://www.w3.org/2000/svg" xmlns:xlink="http://www.w3.org/1999/xlink">
<g id="graph0" class="graph" transform="scale(1 1) rotate(0) translate(4 1435)">
<title>softwares</title>
<polygon fill="#ffffff" stroke="transparent" points="-4,4 -4,-1435 815,-1435 815,4 -4,4"/>
<!-- softwares -->
<g id="node1" class="node">
<title>softwares</title>
<polygon fill="#efefef" stroke="transparent" points="249,-1072.5 249,-1107.5 491,-1107.5 491,-1072.5 249,-1072.5"/>
<polygon fill="none" stroke="#000000" points="249,-1072.5 249,-1107.5 491,-1107.5 491,-1072.5 249,-1072.5"/>
<text text-anchor="start" x="267.7113" y="-1085.3" font-family="Arial Bold" font-size="18.00" fill="#000000">softwares</text>
<text text-anchor="start" x="344.7207" y="-1085.3" font-family="Arial" font-size="14.00" fill="#000000">    </text>
<text text-anchor="start" x="378.9255" y="-1085.3" font-family="Arial" font-size="14.00" fill="#666666">[BASE TABLE]</text>
<polygon fill="none" stroke="#000000" points="249,-1042.5 249,-1072.5 491,-1072.5 491,-1042.5 249,-1042.5"/>
<text text-anchor="start" x="256" y="-1053.9" font-family="Arial" font-size="14.00" fill="#000000">id </text>
<text text-anchor="start" x="270.7798" y="-1053.9" font-family="Arial" font-size="14.00" fill="#666666">[bigint(20) unsigned]</text>
<polygon fill="none" stroke="#000000" points="249,-1012.5 249,-1042.5 491,-1042.5 491,-1012.5 249,-1012.5"/>
<text text-anchor="start" x="256" y="-1023.9" font-family="Arial" font-size="14.00" fill="#000000">author_id </text>
<text text-anchor="start" x="318.244" y="-1023.9" font-family="Arial" font-size="14.00" fill="#666666">[bigint(20) unsigned]</text>
<polygon fill="none" stroke="#000000" points="249,-982.5 249,-1012.5 491,-1012.5 491,-982.5 249,-982.5"/>
<text text-anchor="start" x="256" y="-993.9" font-family="Arial" font-size="14.00" fill="#000000">post_title </text>
<text text-anchor="start" x="315.906" y="-993.9" font-family="Arial" font-size="14.00" fill="#666666">[varchar(255)]</text>
<polygon fill="none" stroke="#000000" points="249,-952.5 249,-982.5 491,-982.5 491,-952.5 249,-952.5"/>
<text text-anchor="start" x="256" y="-963.9" font-family="Arial" font-size="14.00" fill="#000000">post_content </text>
<text text-anchor="start" x="340.0406" y="-963.9" font-family="Arial" font-size="14.00" fill="#666666">[longtext]</text>
<polygon fill="none" stroke="#000000" points="249,-922.5 249,-952.5 491,-952.5 491,-922.5 249,-922.5"/>
<text text-anchor="start" x="256" y="-933.9" font-family="Arial" font-size="14.00" fill="#000000">post_excerpt </text>
<text text-anchor="start" x="340.028" y="-933.9" font-family="Arial" font-size="14.00" fill="#666666">[text]</text>
<polygon fill="none" stroke="#000000" points="249,-892.5 249,-922.5 491,-922.5 491,-892.5 249,-892.5"/>
<text text-anchor="start" x="256" y="-903.9" font-family="Arial" font-size="14.00" fill="#000000">cover_image </text>
<text text-anchor="start" x="340.014" y="-903.9" font-family="Arial" font-size="14.00" fill="#666666">[varchar(255)]</text>
<polygon fill="none" stroke="#000000" points="249,-862.5 249,-892.5 491,-892.5 491,-862.5 249,-862.5"/>
<text text-anchor="start" x="256" y="-873.9" font-family="Arial" font-size="14.00" fill="#000000">post_date </text>
<text text-anchor="start" x="321.3674" y="-873.9" font-family="Arial" font-size="14.00" fill="#666666">[datetime]</text>
<polygon fill="none" stroke="#000000" points="249,-832.5 249,-862.5 491,-862.5 491,-832.5 249,-832.5"/>
<text text-anchor="start" x="256" y="-843.9" font-family="Arial" font-size="14.00" fill="#000000">post_modified </text>
<text text-anchor="start" x="347.0238" y="-843.9" font-family="Arial" font-size="14.00" fill="#666666">[datetime]</text>
<polygon fill="none" stroke="#000000" points="249,-802.5 249,-832.5 491,-832.5 491,-802.5 249,-802.5"/>
<text text-anchor="start" x="256" y="-813.9" font-family="Arial" font-size="14.00" fill="#000000">post_status </text>
<text text-anchor="start" x="331.4754" y="-813.9" font-family="Arial" font-size="14.00" fill="#666666">[varchar(255)]</text>
<polygon fill="none" stroke="#000000" points="249,-772.5 249,-802.5 491,-802.5 491,-772.5 249,-772.5"/>
<text text-anchor="start" x="255.6368" y="-783.9" font-family="Arial" font-size="14.00" fill="#000000">softwaretype_id </text>
<text text-anchor="start" x="357.5512" y="-783.9" font-family="Arial" font-size="14.00" fill="#666666">[bigint(20) unsigned]</text>
<polygon fill="none" stroke="#000000" points="249,-742.5 249,-772.5 491,-772.5 491,-742.5 249,-742.5"/>
<text text-anchor="start" x="256" y="-753.9" font-family="Arial" font-size="14.00" fill="#000000">template </text>
<text text-anchor="start" x="313.5694" y="-753.9" font-family="Arial" font-size="14.00" fill="#666666">[varchar(255)]</text>
<polygon fill="none" stroke="#000000" points="249,-712.5 249,-742.5 491,-742.5 491,-712.5 249,-712.5"/>
<text text-anchor="start" x="256" y="-723.9" font-family="Arial" font-size="14.00" fill="#000000">extra_content </text>
<text text-anchor="start" x="344.7012" y="-723.9" font-family="Arial" font-size="14.00" fill="#666666">[json]</text>
<polygon fill="none" stroke="#000000" points="249,-682.5 249,-712.5 491,-712.5 491,-682.5 249,-682.5"/>
<text text-anchor="start" x="256" y="-693.9" font-family="Arial" font-size="14.00" fill="#000000">how_to_access </text>
<text text-anchor="start" x="356.366" y="-693.9" font-family="Arial" font-size="14.00" fill="#666666">[longtext]</text>
<polygon fill="none" stroke="#000000" points="249,-652.5 249,-682.5 491,-682.5 491,-652.5 249,-652.5"/>
<text text-anchor="start" x="256" y="-663.9" font-family="Arial" font-size="14.00" fill="#000000">created_at </text>
<text text-anchor="start" x="326.028" y="-663.9" font-family="Arial" font-size="14.00" fill="#666666">[timestamp]</text>
<polygon fill="none" stroke="#000000" points="249,-622.5 249,-652.5 491,-652.5 491,-622.5 249,-622.5"/>
<text text-anchor="start" x="256" y="-633.9" font-family="Arial" font-size="14.00" fill="#000000">updated_at </text>
<text text-anchor="start" x="329.9326" y="-633.9" font-family="Arial" font-size="14.00" fill="#666666">[timestamp]</text>
<polygon fill="none" stroke="#000000" stroke-width="3" points="247.5,-621.5 247.5,-1109.5 492.5,-1109.5 492.5,-621.5 247.5,-621.5"/>
</g>
<!-- users -->
<g id="node3" class="node">
<title>users</title>
<polygon fill="#efefef" stroke="transparent" points="66,-462.5 66,-497.5 313,-497.5 313,-462.5 66,-462.5"/>
<polygon fill="none" stroke="#000000" points="66,-462.5 66,-497.5 313,-497.5 313,-462.5 66,-462.5"/>
<text text-anchor="start" x="103.7137" y="-475.3" font-family="Arial Bold" font-size="18.00" fill="#000000">users</text>
<text text-anchor="start" x="147.7183" y="-475.3" font-family="Arial" font-size="14.00" fill="#000000">    </text>
<text text-anchor="start" x="181.9231" y="-475.3" font-family="Arial" font-size="14.00" fill="#666666">[BASE TABLE]</text>
<polygon fill="none" stroke="#000000" points="66,-432.5 66,-462.5 313,-462.5 313,-432.5 66,-432.5"/>
<text text-anchor="start" x="73" y="-443.9" font-family="Arial" font-size="14.00" fill="#000000">id    </text>
<text text-anchor="start" x="118.094" y="-443.9" font-family="Arial" font-size="14.00" fill="#666666">[bigint(20) unsigned]</text>
<polygon fill="none" stroke="#000000" points="66,-402.5 66,-432.5 313,-432.5 313,-402.5 66,-402.5"/>
<text text-anchor="start" x="73" y="-413.9" font-family="Arial" font-size="14.00" fill="#000000">full_name    </text>
<text text-anchor="start" x="167.8822" y="-413.9" font-family="Arial" font-size="14.00" fill="#666666">[varchar(255)]</text>
<polygon fill="none" stroke="#000000" points="66,-372.5 66,-402.5 313,-402.5 313,-372.5 66,-372.5"/>
<text text-anchor="start" x="73" y="-383.9" font-family="Arial" font-size="14.00" fill="#000000">display_name    </text>
<text text-anchor="start" x="193.5568" y="-383.9" font-family="Arial" font-size="14.00" fill="#666666">[varchar(255)]</text>
<polygon fill="none" stroke="#000000" points="66,-342.5 66,-372.5 313,-372.5 313,-342.5 66,-342.5"/>
<text text-anchor="start" x="73" y="-353.9" font-family="Arial" font-size="14.00" fill="#000000">email    </text>
<text text-anchor="start" x="140.6438" y="-353.9" font-family="Arial" font-size="14.00" fill="#666666">[varchar(255)]</text>
<polygon fill="none" stroke="#000000" points="66,-312.5 66,-342.5 313,-342.5 313,-312.5 66,-312.5"/>
<text text-anchor="start" x="73" y="-323.9" font-family="Arial" font-size="14.00" fill="#000000">password    </text>
<text text-anchor="start" x="167.1024" y="-323.9" font-family="Arial" font-size="14.00" fill="#666666">[varchar(255)]</text>
<polygon fill="none" stroke="#000000" points="66,-282.5 66,-312.5 313,-312.5 313,-282.5 66,-282.5"/>
<text text-anchor="start" x="73" y="-293.9" font-family="Arial" font-size="14.00" fill="#000000">status    </text>
<text text-anchor="start" x="144.5512" y="-293.9" font-family="Arial" font-size="14.00" fill="#666666">[varchar(255)]</text>
<polygon fill="none" stroke="#000000" points="66,-252.5 66,-282.5 313,-282.5 313,-252.5 66,-252.5"/>
<text text-anchor="start" x="73" y="-263.9" font-family="Arial" font-size="14.00" fill="#000000">role_id    </text>
<text text-anchor="start" x="149.209" y="-263.9" font-family="Arial" font-size="14.00" fill="#666666">[bigint(20) unsigned]</text>
<polygon fill="none" stroke="#000000" points="66,-222.5 66,-252.5 313,-252.5 313,-222.5 66,-222.5"/>
<text text-anchor="start" x="73" y="-233.9" font-family="Arial" font-size="14.00" fill="#000000">site_id    </text>
<text text-anchor="start" x="147.6564" y="-233.9" font-family="Arial" font-size="14.00" fill="#666666">[bigint(20) unsigned]</text>
<polygon fill="none" stroke="#000000" points="66,-192.5 66,-222.5 313,-222.5 313,-192.5 66,-192.5"/>
<text text-anchor="start" x="72.8149" y="-203.9" font-family="Arial" font-size="14.00" fill="#000000">usertype_id    </text>
<text text-anchor="start" x="179.3731" y="-203.9" font-family="Arial" font-size="14.00" fill="#666666">[bigint(20) unsigned]</text>
<polygon fill="none" stroke="#000000" points="66,-162.5 66,-192.5 313,-192.5 313,-162.5 66,-162.5"/>
<text text-anchor="start" x="73" y="-173.9" font-family="Arial" font-size="14.00" fill="#000000">remember_token    </text>
<text text-anchor="start" x="212.9986" y="-173.9" font-family="Arial" font-size="14.00" fill="#666666">[varchar(100)]</text>
<polygon fill="none" stroke="#000000" points="66,-132.5 66,-162.5 313,-162.5 313,-132.5 66,-132.5"/>
<text text-anchor="start" x="73" y="-143.9" font-family="Arial" font-size="14.00" fill="#000000">token    </text>
<text text-anchor="start" x="141.4432" y="-143.9" font-family="Arial" font-size="14.00" fill="#666666">[longtext]</text>
<polygon fill="none" stroke="#000000" points="66,-102.5 66,-132.5 313,-132.5 313,-102.5 66,-102.5"/>
<text text-anchor="start" x="73" y="-113.9" font-family="Arial" font-size="14.00" fill="#000000">isFirstTimeVisit    </text>
<text text-anchor="start" x="202.0646" y="-113.9" font-family="Arial" font-size="14.00" fill="#666666">[tinyint(1)]</text>
<polygon fill="none" stroke="#000000" points="66,-72.5 66,-102.5 313,-102.5 313,-72.5 66,-72.5"/>
<text text-anchor="start" x="73" y="-83.9" font-family="Arial" font-size="14.00" fill="#000000">created_at    </text>
<text text-anchor="start" x="173.3422" y="-83.9" font-family="Arial" font-size="14.00" fill="#666666">[timestamp]</text>
<polygon fill="none" stroke="#000000" points="66,-42.5 66,-72.5 313,-72.5 313,-42.5 66,-42.5"/>
<text text-anchor="start" x="73" y="-53.9" font-family="Arial" font-size="14.00" fill="#000000">updated_at    </text>
<text text-anchor="start" x="177.2468" y="-53.9" font-family="Arial" font-size="14.00" fill="#666666">[timestamp]</text>
</g>
<!-- softwares&#45;&gt;users -->
<g id="edge2" class="edge">
<title>softwares:author_id&#45;&gt;users:id</title>
<path fill="none" stroke="#000000" d="M238.9955,-1027.2586C52.1669,-1018.0401 149.6461,-746.88 249,-577 265.476,-548.8286 296.524,-569.1714 313,-541 333.9792,-505.1289 354.5556,-447.5 313,-447.5"/>
<polygon fill="#000000" stroke="#000000" points="239.0029,-1027.2587 248.8914,-1031.9987 244.0015,-1027.3794 249,-1027.5 249,-1027.5 249,-1027.5 244.0015,-1027.3794 249.1086,-1023.0013 239.0029,-1027.2587 239.0029,-1027.2587"/>
<text text-anchor="start" x="7.4965" y="-1037.5" font-family="Arial" font-size="10.00" fill="#000000">FOREIGN KEY (author_id) REFERENCES users (id)</text>
</g>
<!-- software_types -->
<g id="node4" class="node">
<title>software_types</title>
<polygon fill="#efefef" stroke="transparent" points="417,-327.5 417,-362.5 682,-362.5 682,-327.5 417,-327.5"/>
<polygon fill="none" stroke="#000000" points="417,-327.5 417,-362.5 682,-362.5 682,-327.5 417,-327.5"/>
<text text-anchor="start" x="425.2009" y="-340.3" font-family="Arial Bold" font-size="18.00" fill="#000000">software_types</text>
<text text-anchor="start" x="546.2311" y="-340.3" font-family="Arial" font-size="14.00" fill="#000000">    </text>
<text text-anchor="start" x="580.4359" y="-340.3" font-family="Arial" font-size="14.00" fill="#666666">[BASE TABLE]</text>
<polygon fill="none" stroke="#000000" points="417,-297.5 417,-327.5 682,-327.5 682,-297.5 417,-297.5"/>
<text text-anchor="start" x="424" y="-308.9" font-family="Arial" font-size="14.00" fill="#000000">id    </text>
<text text-anchor="start" x="469.094" y="-308.9" font-family="Arial" font-size="14.00" fill="#666666">[bigint(20) unsigned]</text>
<polygon fill="none" stroke="#000000" points="417,-267.5 417,-297.5 682,-297.5 682,-267.5 417,-267.5"/>
<text text-anchor="start" x="423.8752" y="-278.9" font-family="Arial" font-size="14.00" fill="#000000">software_type_name    </text>
<text text-anchor="start" x="588.0056" y="-278.9" font-family="Arial" font-size="14.00" fill="#666666">[varchar(255)]</text>
<polygon fill="none" stroke="#000000" points="417,-237.5 417,-267.5 682,-267.5 682,-237.5 417,-237.5"/>
<text text-anchor="start" x="424" y="-248.9" font-family="Arial" font-size="14.00" fill="#000000">software_type_value    </text>
<text text-anchor="start" x="586.5764" y="-248.9" font-family="Arial" font-size="14.00" fill="#666666">[text]</text>
<polygon fill="none" stroke="#000000" points="417,-207.5 417,-237.5 682,-237.5 682,-207.5 417,-207.5"/>
<text text-anchor="start" x="424" y="-218.9" font-family="Arial" font-size="14.00" fill="#000000">created_at    </text>
<text text-anchor="start" x="524.3422" y="-218.9" font-family="Arial" font-size="14.00" fill="#666666">[timestamp]</text>
<polygon fill="none" stroke="#000000" points="417,-177.5 417,-207.5 682,-207.5 682,-177.5 417,-177.5"/>
<text text-anchor="start" x="424" y="-188.9" font-family="Arial" font-size="14.00" fill="#000000">updated_at    </text>
<text text-anchor="start" x="528.2468" y="-188.9" font-family="Arial" font-size="14.00" fill="#666666">[timestamp]</text>
</g>
<!-- softwares&#45;&gt;software_types -->
<g id="edge3" class="edge">
<title>softwares:softwaretype_id&#45;&gt;software_types:id</title>
<path fill="none" stroke="#000000" d="M501.2954,-786.8938C635.7401,-770.1872 418.5923,-413.6887 417,-406 408.5729,-365.3079 375.4444,-312.5 417,-312.5"/>
<polygon fill="#000000" stroke="#000000" points="500.9827,-786.9121 490.7355,-783.0078 495.9914,-787.2061 491,-787.5 491,-787.5 491,-787.5 495.9914,-787.2061 491.2645,-791.9922 500.9827,-786.9121 500.9827,-786.9121"/>
<text text-anchor="start" x="497.9325" y="-797.5" font-family="Arial" font-size="10.00" fill="#000000">FOREIGN KEY (softwaretype_id) REFERENCES software_types (id)</text>
</g>
<!-- software_softwaretype -->
<g id="node2" class="node">
<title>software_softwaretype</title>
<polygon fill="#efefef" stroke="transparent" points="209,-1352.5 209,-1387.5 530,-1387.5 530,-1352.5 209,-1352.5"/>
<polygon fill="none" stroke="#000000" points="209,-1352.5 209,-1387.5 530,-1387.5 530,-1352.5 209,-1352.5"/>
<text text-anchor="start" x="215.6962" y="-1365.3" font-family="Arial Bold" font-size="18.00" fill="#000000">software_softwaretype</text>
<text text-anchor="start" x="395.7358" y="-1365.3" font-family="Arial" font-size="14.00" fill="#000000">    </text>
<text text-anchor="start" x="429.9406" y="-1365.3" font-family="Arial" font-size="14.00" fill="#666666">[BASE TABLE]</text>
<polygon fill="none" stroke="#000000" points="209,-1322.5 209,-1352.5 530,-1352.5 530,-1322.5 209,-1322.5"/>
<text text-anchor="start" x="216" y="-1333.9" font-family="Arial" font-size="14.00" fill="#000000">software_id    </text>
<text text-anchor="start" x="321.7728" y="-1333.9" font-family="Arial" font-size="14.00" fill="#666666">[bigint(20) unsigned]</text>
<polygon fill="none" stroke="#000000" points="209,-1292.5 209,-1322.5 530,-1322.5 530,-1292.5 209,-1292.5"/>
<text text-anchor="start" x="216" y="-1303.9" font-family="Arial" font-size="14.00" fill="#000000">softwaretype_id    </text>
<text text-anchor="start" x="348.2286" y="-1303.9" font-family="Arial" font-size="14.00" fill="#666666">[bigint(20) unsigned]</text>
<polygon fill="none" stroke="#000000" points="209,-1262.5 209,-1292.5 530,-1292.5 530,-1262.5 209,-1262.5"/>
<text text-anchor="start" x="216" y="-1273.9" font-family="Arial" font-size="14.00" fill="#000000">created_at    </text>
<text text-anchor="start" x="316.3422" y="-1273.9" font-family="Arial" font-size="14.00" fill="#666666">[timestamp]</text>
<polygon fill="none" stroke="#000000" points="209,-1232.5 209,-1262.5 530,-1262.5 530,-1232.5 209,-1232.5"/>
<text text-anchor="start" x="216" y="-1243.9" font-family="Arial" font-size="14.00" fill="#000000">updated_at    </text>
<text text-anchor="start" x="320.2468" y="-1243.9" font-family="Arial" font-size="14.00" fill="#666666">[timestamp]</text>
</g>
<!-- software_softwaretype&#45;&gt;softwares -->
<g id="edge1" class="edge">
<title>software_softwaretype:software_id&#45;&gt;softwares:id</title>
<path fill="none" stroke="#000000" d="M539.9784,-1336.6422C593.0594,-1326.8965 570.941,-1236.5207 530,-1190 446.8174,-1095.4807 332.1826,-1248.5193 249,-1154 220.6653,-1121.8037 206.1111,-1057.5 249,-1057.5"/>
<polygon fill="#000000" stroke="#000000" points="539.9633,-1336.6435 529.6146,-1333.0165 534.9816,-1337.0717 530,-1337.5 530,-1337.5 530,-1337.5 534.9816,-1337.0717 530.3854,-1341.9835 539.9633,-1336.6435 539.9633,-1336.6435"/>
<text text-anchor="start" x="536.609" y="-1347.5" font-family="Arial" font-size="10.00" fill="#000000">FOREIGN KEY (software_id) REFERENCES softwares (id)</text>
</g>
</g>
</svg>
