<?xml version="1.0" encoding="UTF-8" standalone="no"?>
<!DOCTYPE svg PUBLIC "-//W3C//DTD SVG 1.1//EN"
 "http://www.w3.org/Graphics/SVG/1.1/DTD/svg11.dtd">
<!-- Generated by graphviz version 2.40.1 (20161225.0304)
 -->
<!-- Title: software_softwaretype Pages: 1 -->
<svg width="925pt" height="862pt"
 viewBox="0.00 0.00 925.00 862.00" xmlns="http://www.w3.org/2000/svg" xmlns:xlink="http://www.w3.org/1999/xlink">
<g id="graph0" class="graph" transform="scale(1 1) rotate(0) translate(4 858)">
<title>software_softwaretype</title>
<polygon fill="#ffffff" stroke="transparent" points="-4,4 -4,-858 921,-858 921,4 -4,4"/>
<!-- software_softwaretype -->
<g id="node1" class="node">
<title>software_softwaretype</title>
<polygon fill="#efefef" stroke="transparent" points="276,-772.5 276,-807.5 597,-807.5 597,-772.5 276,-772.5"/>
<polygon fill="none" stroke="#000000" points="276,-772.5 276,-807.5 597,-807.5 597,-772.5 276,-772.5"/>
<text text-anchor="start" x="282.6962" y="-785.3" font-family="Arial Bold" font-size="18.00" fill="#000000">software_softwaretype</text>
<text text-anchor="start" x="462.7358" y="-785.3" font-family="Arial" font-size="14.00" fill="#000000">    </text>
<text text-anchor="start" x="496.9406" y="-785.3" font-family="Arial" font-size="14.00" fill="#666666">[BASE TABLE]</text>
<polygon fill="none" stroke="#000000" points="276,-742.5 276,-772.5 597,-772.5 597,-742.5 276,-742.5"/>
<text text-anchor="start" x="283" y="-753.9" font-family="Arial" font-size="14.00" fill="#000000">software_id </text>
<text text-anchor="start" x="358.4586" y="-753.9" font-family="Arial" font-size="14.00" fill="#666666">[bigint(20) unsigned]</text>
<polygon fill="none" stroke="#000000" points="276,-712.5 276,-742.5 597,-742.5 597,-712.5 276,-712.5"/>
<text text-anchor="start" x="283" y="-723.9" font-family="Arial" font-size="14.00" fill="#000000">softwaretype_id </text>
<text text-anchor="start" x="384.9144" y="-723.9" font-family="Arial" font-size="14.00" fill="#666666">[bigint(20) unsigned]</text>
<polygon fill="none" stroke="#000000" points="276,-682.5 276,-712.5 597,-712.5 597,-682.5 276,-682.5"/>
<text text-anchor="start" x="283" y="-693.9" font-family="Arial" font-size="14.00" fill="#000000">created_at </text>
<text text-anchor="start" x="353.028" y="-693.9" font-family="Arial" font-size="14.00" fill="#666666">[timestamp]</text>
<polygon fill="none" stroke="#000000" points="276,-652.5 276,-682.5 597,-682.5 597,-652.5 276,-652.5"/>
<text text-anchor="start" x="283" y="-663.9" font-family="Arial" font-size="14.00" fill="#000000">updated_at </text>
<text text-anchor="start" x="356.9326" y="-663.9" font-family="Arial" font-size="14.00" fill="#666666">[timestamp]</text>
<polygon fill="none" stroke="#000000" stroke-width="3" points="274,-651.5 274,-809.5 598,-809.5 598,-651.5 274,-651.5"/>
</g>
<!-- softwares -->
<g id="node2" class="node">
<title>softwares</title>
<polygon fill="#efefef" stroke="transparent" points="114,-492.5 114,-527.5 387,-527.5 387,-492.5 114,-492.5"/>
<polygon fill="none" stroke="#000000" points="114,-492.5 114,-527.5 387,-527.5 387,-492.5 114,-492.5"/>
<text text-anchor="start" x="148.2113" y="-505.3" font-family="Arial Bold" font-size="18.00" fill="#000000">softwares</text>
<text text-anchor="start" x="225.2207" y="-505.3" font-family="Arial" font-size="14.00" fill="#000000">    </text>
<text text-anchor="start" x="259.4255" y="-505.3" font-family="Arial" font-size="14.00" fill="#666666">[BASE TABLE]</text>
<polygon fill="none" stroke="#000000" points="114,-462.5 114,-492.5 387,-492.5 387,-462.5 114,-462.5"/>
<text text-anchor="start" x="121" y="-473.9" font-family="Arial" font-size="14.00" fill="#000000">id    </text>
<text text-anchor="start" x="166.094" y="-473.9" font-family="Arial" font-size="14.00" fill="#666666">[bigint(20) unsigned]</text>
<polygon fill="none" stroke="#000000" points="114,-432.5 114,-462.5 387,-462.5 387,-432.5 114,-432.5"/>
<text text-anchor="start" x="121" y="-443.9" font-family="Arial" font-size="14.00" fill="#000000">author_id    </text>
<text text-anchor="start" x="213.5582" y="-443.9" font-family="Arial" font-size="14.00" fill="#666666">[bigint(20) unsigned]</text>
<polygon fill="none" stroke="#000000" points="114,-402.5 114,-432.5 387,-432.5 387,-402.5 114,-402.5"/>
<text text-anchor="start" x="121" y="-413.9" font-family="Arial" font-size="14.00" fill="#000000">post_title    </text>
<text text-anchor="start" x="211.2202" y="-413.9" font-family="Arial" font-size="14.00" fill="#666666">[varchar(255)]</text>
<polygon fill="none" stroke="#000000" points="114,-372.5 114,-402.5 387,-402.5 387,-372.5 114,-372.5"/>
<text text-anchor="start" x="121" y="-383.9" font-family="Arial" font-size="14.00" fill="#000000">post_content    </text>
<text text-anchor="start" x="235.3548" y="-383.9" font-family="Arial" font-size="14.00" fill="#666666">[longtext]</text>
<polygon fill="none" stroke="#000000" points="114,-342.5 114,-372.5 387,-372.5 387,-342.5 114,-342.5"/>
<text text-anchor="start" x="121" y="-353.9" font-family="Arial" font-size="14.00" fill="#000000">post_excerpt    </text>
<text text-anchor="start" x="235.3422" y="-353.9" font-family="Arial" font-size="14.00" fill="#666666">[text]</text>
<polygon fill="none" stroke="#000000" points="114,-312.5 114,-342.5 387,-342.5 387,-312.5 114,-312.5"/>
<text text-anchor="start" x="121" y="-323.9" font-family="Arial" font-size="14.00" fill="#000000">cover_image    </text>
<text text-anchor="start" x="235.3282" y="-323.9" font-family="Arial" font-size="14.00" fill="#666666">[varchar(255)]</text>
<polygon fill="none" stroke="#000000" points="114,-282.5 114,-312.5 387,-312.5 387,-282.5 114,-282.5"/>
<text text-anchor="start" x="121" y="-293.9" font-family="Arial" font-size="14.00" fill="#000000">post_date    </text>
<text text-anchor="start" x="216.6816" y="-293.9" font-family="Arial" font-size="14.00" fill="#666666">[datetime]</text>
<polygon fill="none" stroke="#000000" points="114,-252.5 114,-282.5 387,-282.5 387,-252.5 114,-252.5"/>
<text text-anchor="start" x="121" y="-263.9" font-family="Arial" font-size="14.00" fill="#000000">post_modified    </text>
<text text-anchor="start" x="242.338" y="-263.9" font-family="Arial" font-size="14.00" fill="#666666">[datetime]</text>
<polygon fill="none" stroke="#000000" points="114,-222.5 114,-252.5 387,-252.5 387,-222.5 114,-222.5"/>
<text text-anchor="start" x="121" y="-233.9" font-family="Arial" font-size="14.00" fill="#000000">post_status    </text>
<text text-anchor="start" x="226.7896" y="-233.9" font-family="Arial" font-size="14.00" fill="#666666">[varchar(255)]</text>
<polygon fill="none" stroke="#000000" points="114,-192.5 114,-222.5 387,-222.5 387,-192.5 114,-192.5"/>
<text text-anchor="start" x="120.9797" y="-203.9" font-family="Arial" font-size="14.00" fill="#000000">softwaretype_id    </text>
<text text-anchor="start" x="253.2083" y="-203.9" font-family="Arial" font-size="14.00" fill="#666666">[bigint(20) unsigned]</text>
<polygon fill="none" stroke="#000000" points="114,-162.5 114,-192.5 387,-192.5 387,-162.5 114,-162.5"/>
<text text-anchor="start" x="121" y="-173.9" font-family="Arial" font-size="14.00" fill="#000000">template    </text>
<text text-anchor="start" x="208.8836" y="-173.9" font-family="Arial" font-size="14.00" fill="#666666">[varchar(255)]</text>
<polygon fill="none" stroke="#000000" points="114,-132.5 114,-162.5 387,-162.5 387,-132.5 114,-132.5"/>
<text text-anchor="start" x="121" y="-143.9" font-family="Arial" font-size="14.00" fill="#000000">extra_content    </text>
<text text-anchor="start" x="240.0154" y="-143.9" font-family="Arial" font-size="14.00" fill="#666666">[json]</text>
<polygon fill="none" stroke="#000000" points="114,-102.5 114,-132.5 387,-132.5 387,-102.5 114,-102.5"/>
<text text-anchor="start" x="121" y="-113.9" font-family="Arial" font-size="14.00" fill="#000000">how_to_access    </text>
<text text-anchor="start" x="251.6802" y="-113.9" font-family="Arial" font-size="14.00" fill="#666666">[longtext]</text>
<polygon fill="none" stroke="#000000" points="114,-72.5 114,-102.5 387,-102.5 387,-72.5 114,-72.5"/>
<text text-anchor="start" x="121" y="-83.9" font-family="Arial" font-size="14.00" fill="#000000">created_at    </text>
<text text-anchor="start" x="221.3422" y="-83.9" font-family="Arial" font-size="14.00" fill="#666666">[timestamp]</text>
<polygon fill="none" stroke="#000000" points="114,-42.5 114,-72.5 387,-72.5 387,-42.5 114,-42.5"/>
<text text-anchor="start" x="121" y="-53.9" font-family="Arial" font-size="14.00" fill="#000000">updated_at    </text>
<text text-anchor="start" x="225.2468" y="-53.9" font-family="Arial" font-size="14.00" fill="#666666">[timestamp]</text>
</g>
<!-- software_softwaretype&#45;&gt;softwares -->
<g id="edge1" class="edge">
<title>software_softwaretype:software_id&#45;&gt;softwares:id</title>
<path fill="none" stroke="#000000" d="M265.8599,-756.6578C212.1605,-747.0831 238.82,-658.1449 276,-607 306.4956,-565.0501 356.5044,-612.9499 387,-571 411.4348,-537.3874 428.5556,-477.5 387,-477.5"/>
<polygon fill="#000000" stroke="#000000" points="266.0343,-756.6722 275.6275,-761.9846 271.0172,-757.0861 276,-757.5 276,-757.5 276,-757.5 271.0172,-757.0861 276.3725,-753.0154 266.0343,-756.6722 266.0343,-756.6722"/>
<text text-anchor="start" x="6.609" y="-767.5" font-family="Arial" font-size="10.00" fill="#000000">FOREIGN KEY (software_id) REFERENCES softwares (id)</text>
</g>
<!-- software_types -->
<g id="node3" class="node">
<title>software_types</title>
<polygon fill="#efefef" stroke="transparent" points="491,-342.5 491,-377.5 756,-377.5 756,-342.5 491,-342.5"/>
<polygon fill="none" stroke="#000000" points="491,-342.5 491,-377.5 756,-377.5 756,-342.5 491,-342.5"/>
<text text-anchor="start" x="499.2009" y="-355.3" font-family="Arial Bold" font-size="18.00" fill="#000000">software_types</text>
<text text-anchor="start" x="620.2311" y="-355.3" font-family="Arial" font-size="14.00" fill="#000000">    </text>
<text text-anchor="start" x="654.4359" y="-355.3" font-family="Arial" font-size="14.00" fill="#666666">[BASE TABLE]</text>
<polygon fill="none" stroke="#000000" points="491,-312.5 491,-342.5 756,-342.5 756,-312.5 491,-312.5"/>
<text text-anchor="start" x="498" y="-323.9" font-family="Arial" font-size="14.00" fill="#000000">id    </text>
<text text-anchor="start" x="543.094" y="-323.9" font-family="Arial" font-size="14.00" fill="#666666">[bigint(20) unsigned]</text>
<polygon fill="none" stroke="#000000" points="491,-282.5 491,-312.5 756,-312.5 756,-282.5 491,-282.5"/>
<text text-anchor="start" x="497.8752" y="-293.9" font-family="Arial" font-size="14.00" fill="#000000">software_type_name    </text>
<text text-anchor="start" x="662.0056" y="-293.9" font-family="Arial" font-size="14.00" fill="#666666">[varchar(255)]</text>
<polygon fill="none" stroke="#000000" points="491,-252.5 491,-282.5 756,-282.5 756,-252.5 491,-252.5"/>
<text text-anchor="start" x="498" y="-263.9" font-family="Arial" font-size="14.00" fill="#000000">software_type_value    </text>
<text text-anchor="start" x="660.5764" y="-263.9" font-family="Arial" font-size="14.00" fill="#666666">[text]</text>
<polygon fill="none" stroke="#000000" points="491,-222.5 491,-252.5 756,-252.5 756,-222.5 491,-222.5"/>
<text text-anchor="start" x="498" y="-233.9" font-family="Arial" font-size="14.00" fill="#000000">created_at    </text>
<text text-anchor="start" x="598.3422" y="-233.9" font-family="Arial" font-size="14.00" fill="#666666">[timestamp]</text>
<polygon fill="none" stroke="#000000" points="491,-192.5 491,-222.5 756,-222.5 756,-192.5 491,-192.5"/>
<text text-anchor="start" x="498" y="-203.9" font-family="Arial" font-size="14.00" fill="#000000">updated_at    </text>
<text text-anchor="start" x="602.2468" y="-203.9" font-family="Arial" font-size="14.00" fill="#666666">[timestamp]</text>
</g>
<!-- software_softwaretype&#45;&gt;software_types -->
<g id="edge2" class="edge">
<title>software_softwaretype:softwaretype_id&#45;&gt;software_types:id</title>
<path fill="none" stroke="#000000" d="M607.0333,-727.0482C762.6561,-712.0276 310.678,-327.5 491,-327.5"/>
<polygon fill="#000000" stroke="#000000" points="606.9899,-727.0501 596.7975,-723.0046 601.9949,-727.275 597,-727.5 597,-727.5 597,-727.5 601.9949,-727.275 597.2025,-731.9954 606.9899,-727.0501 606.9899,-727.0501"/>
<text text-anchor="start" x="603.9325" y="-737.5" font-family="Arial" font-size="10.00" fill="#000000">FOREIGN KEY (softwaretype_id) REFERENCES software_types (id)</text>
</g>
</g>
</svg>
