<?xml version="1.0" encoding="UTF-8" standalone="no"?>
<!DOCTYPE svg PUBLIC "-//W3C//DTD SVG 1.1//EN"
 "http://www.w3.org/Graphics/SVG/1.1/DTD/svg11.dtd">
<!-- Generated by graphviz version 2.40.1 (20161225.0304)
 -->
<!-- Title: software_metas Pages: 1 -->
<svg width="580pt" height="892pt"
 viewBox="0.00 0.00 580.00 892.00" xmlns="http://www.w3.org/2000/svg" xmlns:xlink="http://www.w3.org/1999/xlink">
<g id="graph0" class="graph" transform="scale(1 1) rotate(0) translate(4 888)">
<title>software_metas</title>
<polygon fill="#ffffff" stroke="transparent" points="-4,4 -4,-888 576,-888 576,4 -4,4"/>
<!-- software_metas -->
<g id="node1" class="node">
<title>software_metas</title>
<polygon fill="#efefef" stroke="transparent" points="258,-802.5 258,-837.5 526,-837.5 526,-802.5 258,-802.5"/>
<polygon fill="none" stroke="#000000" points="258,-802.5 258,-837.5 526,-837.5 526,-802.5 258,-802.5"/>
<text text-anchor="start" x="264.7048" y="-815.3" font-family="Arial Bold" font-size="18.00" fill="#000000">software_metas</text>
<text text-anchor="start" x="391.7272" y="-815.3" font-family="Arial" font-size="14.00" fill="#000000">    </text>
<text text-anchor="start" x="425.932" y="-815.3" font-family="Arial" font-size="14.00" fill="#666666">[BASE TABLE]</text>
<polygon fill="none" stroke="#000000" points="258,-772.5 258,-802.5 526,-802.5 526,-772.5 258,-772.5"/>
<text text-anchor="start" x="265" y="-783.9" font-family="Arial" font-size="14.00" fill="#000000">id </text>
<text text-anchor="start" x="279.7798" y="-783.9" font-family="Arial" font-size="14.00" fill="#666666">[bigint(20) unsigned]</text>
<polygon fill="none" stroke="#000000" points="258,-742.5 258,-772.5 526,-772.5 526,-742.5 258,-742.5"/>
<text text-anchor="start" x="265" y="-753.9" font-family="Arial" font-size="14.00" fill="#000000">software_id </text>
<text text-anchor="start" x="340.4586" y="-753.9" font-family="Arial" font-size="14.00" fill="#666666">[bigint(20) unsigned]</text>
<polygon fill="none" stroke="#000000" points="258,-712.5 258,-742.5 526,-742.5 526,-712.5 258,-712.5"/>
<text text-anchor="start" x="265" y="-723.9" font-family="Arial" font-size="14.00" fill="#000000">software_meta_key </text>
<text text-anchor="start" x="390.251" y="-723.9" font-family="Arial" font-size="14.00" fill="#666666">[varchar(255)]</text>
<polygon fill="none" stroke="#000000" points="258,-682.5 258,-712.5 526,-712.5 526,-682.5 258,-682.5"/>
<text text-anchor="start" x="265" y="-693.9" font-family="Arial" font-size="14.00" fill="#000000">software_meta_value </text>
<text text-anchor="start" x="401.9228" y="-693.9" font-family="Arial" font-size="14.00" fill="#666666">[text]</text>
<polygon fill="none" stroke="#000000" points="258,-652.5 258,-682.5 526,-682.5 526,-652.5 258,-652.5"/>
<text text-anchor="start" x="265" y="-663.9" font-family="Arial" font-size="14.00" fill="#000000">created_at </text>
<text text-anchor="start" x="335.028" y="-663.9" font-family="Arial" font-size="14.00" fill="#666666">[timestamp]</text>
<polygon fill="none" stroke="#000000" points="258,-622.5 258,-652.5 526,-652.5 526,-622.5 258,-622.5"/>
<text text-anchor="start" x="265" y="-633.9" font-family="Arial" font-size="14.00" fill="#000000">updated_at </text>
<text text-anchor="start" x="338.9326" y="-633.9" font-family="Arial" font-size="14.00" fill="#666666">[timestamp]</text>
<polygon fill="none" stroke="#000000" stroke-width="3" points="256.5,-621.5 256.5,-839.5 527.5,-839.5 527.5,-621.5 256.5,-621.5"/>
</g>
<!-- users -->
<g id="node2" class="node">
<title>users</title>
<polygon fill="#efefef" stroke="transparent" points="268,-462.5 268,-497.5 515,-497.5 515,-462.5 268,-462.5"/>
<polygon fill="none" stroke="#000000" points="268,-462.5 268,-497.5 515,-497.5 515,-462.5 268,-462.5"/>
<text text-anchor="start" x="305.7137" y="-475.3" font-family="Arial Bold" font-size="18.00" fill="#000000">users</text>
<text text-anchor="start" x="349.7183" y="-475.3" font-family="Arial" font-size="14.00" fill="#000000">    </text>
<text text-anchor="start" x="383.9231" y="-475.3" font-family="Arial" font-size="14.00" fill="#666666">[BASE TABLE]</text>
<polygon fill="none" stroke="#000000" points="268,-432.5 268,-462.5 515,-462.5 515,-432.5 268,-432.5"/>
<text text-anchor="start" x="275" y="-443.9" font-family="Arial" font-size="14.00" fill="#000000">id    </text>
<text text-anchor="start" x="320.094" y="-443.9" font-family="Arial" font-size="14.00" fill="#666666">[bigint(20) unsigned]</text>
<polygon fill="none" stroke="#000000" points="268,-402.5 268,-432.5 515,-432.5 515,-402.5 268,-402.5"/>
<text text-anchor="start" x="275" y="-413.9" font-family="Arial" font-size="14.00" fill="#000000">full_name    </text>
<text text-anchor="start" x="369.8822" y="-413.9" font-family="Arial" font-size="14.00" fill="#666666">[varchar(255)]</text>
<polygon fill="none" stroke="#000000" points="268,-372.5 268,-402.5 515,-402.5 515,-372.5 268,-372.5"/>
<text text-anchor="start" x="275" y="-383.9" font-family="Arial" font-size="14.00" fill="#000000">display_name    </text>
<text text-anchor="start" x="395.5568" y="-383.9" font-family="Arial" font-size="14.00" fill="#666666">[varchar(255)]</text>
<polygon fill="none" stroke="#000000" points="268,-342.5 268,-372.5 515,-372.5 515,-342.5 268,-342.5"/>
<text text-anchor="start" x="275" y="-353.9" font-family="Arial" font-size="14.00" fill="#000000">email    </text>
<text text-anchor="start" x="342.6438" y="-353.9" font-family="Arial" font-size="14.00" fill="#666666">[varchar(255)]</text>
<polygon fill="none" stroke="#000000" points="268,-312.5 268,-342.5 515,-342.5 515,-312.5 268,-312.5"/>
<text text-anchor="start" x="275" y="-323.9" font-family="Arial" font-size="14.00" fill="#000000">password    </text>
<text text-anchor="start" x="369.1024" y="-323.9" font-family="Arial" font-size="14.00" fill="#666666">[varchar(255)]</text>
<polygon fill="none" stroke="#000000" points="268,-282.5 268,-312.5 515,-312.5 515,-282.5 268,-282.5"/>
<text text-anchor="start" x="275" y="-293.9" font-family="Arial" font-size="14.00" fill="#000000">status    </text>
<text text-anchor="start" x="346.5512" y="-293.9" font-family="Arial" font-size="14.00" fill="#666666">[varchar(255)]</text>
<polygon fill="none" stroke="#000000" points="268,-252.5 268,-282.5 515,-282.5 515,-252.5 268,-252.5"/>
<text text-anchor="start" x="275" y="-263.9" font-family="Arial" font-size="14.00" fill="#000000">role_id    </text>
<text text-anchor="start" x="351.209" y="-263.9" font-family="Arial" font-size="14.00" fill="#666666">[bigint(20) unsigned]</text>
<polygon fill="none" stroke="#000000" points="268,-222.5 268,-252.5 515,-252.5 515,-222.5 268,-222.5"/>
<text text-anchor="start" x="275" y="-233.9" font-family="Arial" font-size="14.00" fill="#000000">site_id    </text>
<text text-anchor="start" x="349.6564" y="-233.9" font-family="Arial" font-size="14.00" fill="#666666">[bigint(20) unsigned]</text>
<polygon fill="none" stroke="#000000" points="268,-192.5 268,-222.5 515,-222.5 515,-192.5 268,-192.5"/>
<text text-anchor="start" x="274.8149" y="-203.9" font-family="Arial" font-size="14.00" fill="#000000">usertype_id    </text>
<text text-anchor="start" x="381.3731" y="-203.9" font-family="Arial" font-size="14.00" fill="#666666">[bigint(20) unsigned]</text>
<polygon fill="none" stroke="#000000" points="268,-162.5 268,-192.5 515,-192.5 515,-162.5 268,-162.5"/>
<text text-anchor="start" x="275" y="-173.9" font-family="Arial" font-size="14.00" fill="#000000">remember_token    </text>
<text text-anchor="start" x="414.9986" y="-173.9" font-family="Arial" font-size="14.00" fill="#666666">[varchar(100)]</text>
<polygon fill="none" stroke="#000000" points="268,-132.5 268,-162.5 515,-162.5 515,-132.5 268,-132.5"/>
<text text-anchor="start" x="275" y="-143.9" font-family="Arial" font-size="14.00" fill="#000000">token    </text>
<text text-anchor="start" x="343.4432" y="-143.9" font-family="Arial" font-size="14.00" fill="#666666">[longtext]</text>
<polygon fill="none" stroke="#000000" points="268,-102.5 268,-132.5 515,-132.5 515,-102.5 268,-102.5"/>
<text text-anchor="start" x="275" y="-113.9" font-family="Arial" font-size="14.00" fill="#000000">isFirstTimeVisit    </text>
<text text-anchor="start" x="404.0646" y="-113.9" font-family="Arial" font-size="14.00" fill="#666666">[tinyint(1)]</text>
<polygon fill="none" stroke="#000000" points="268,-72.5 268,-102.5 515,-102.5 515,-72.5 268,-72.5"/>
<text text-anchor="start" x="275" y="-83.9" font-family="Arial" font-size="14.00" fill="#000000">created_at    </text>
<text text-anchor="start" x="375.3422" y="-83.9" font-family="Arial" font-size="14.00" fill="#666666">[timestamp]</text>
<polygon fill="none" stroke="#000000" points="268,-42.5 268,-72.5 515,-72.5 515,-42.5 268,-42.5"/>
<text text-anchor="start" x="275" y="-53.9" font-family="Arial" font-size="14.00" fill="#000000">updated_at    </text>
<text text-anchor="start" x="379.2468" y="-53.9" font-family="Arial" font-size="14.00" fill="#666666">[timestamp]</text>
</g>
<!-- software_metas&#45;&gt;users -->
<g id="edge1" class="edge">
<title>software_metas:software_id&#45;&gt;users:id</title>
<path fill="none" stroke="#000000" d="M247.8339,-756.79C180.3061,-746.8416 207.7206,-634.8133 258,-577 333.6879,-489.9709 439.3121,-628.0291 515,-541 542.27,-509.6438 556.5556,-447.5 515,-447.5"/>
<polygon fill="#000000" stroke="#000000" points="248.0243,-756.8032 257.6864,-761.9891 253.0121,-757.1516 258,-757.5 258,-757.5 258,-757.5 253.0121,-757.1516 258.3136,-753.0109 248.0243,-756.8032 248.0243,-756.8032"/>
<text text-anchor="start" x="6.777" y="-767.5" font-family="Arial" font-size="10.00" fill="#000000">FOREIGN KEY (software_id) REFERENCES users (id)</text>
</g>
</g>
</svg>
