<?xml version="1.0" encoding="UTF-8" standalone="no"?>
<!DOCTYPE svg PUBLIC "-//W3C//DTD SVG 1.1//EN"
 "http://www.w3.org/Graphics/SVG/1.1/DTD/svg11.dtd">
<!-- Generated by graphviz version 2.40.1 (20161225.0304)
 -->
<!-- Title: software_types Pages: 1 -->
<svg width="797pt" height="892pt"
 viewBox="0.00 0.00 796.50 892.00" xmlns="http://www.w3.org/2000/svg" xmlns:xlink="http://www.w3.org/1999/xlink">
<g id="graph0" class="graph" transform="scale(1 1) rotate(0) translate(4 888)">
<title>software_types</title>
<polygon fill="#ffffff" stroke="transparent" points="-4,4 -4,-888 792.5,-888 792.5,4 -4,4"/>
<!-- software_types -->
<g id="node1" class="node">
<title>software_types</title>
<polygon fill="#efefef" stroke="transparent" points="273.5,-195.5 273.5,-230.5 535.5,-230.5 535.5,-195.5 273.5,-195.5"/>
<polygon fill="none" stroke="#000000" points="273.5,-195.5 273.5,-230.5 535.5,-230.5 535.5,-195.5 273.5,-195.5"/>
<text text-anchor="start" x="280.2009" y="-208.3" font-family="Arial Bold" font-size="18.00" fill="#000000">software_types</text>
<text text-anchor="start" x="401.2311" y="-208.3" font-family="Arial" font-size="14.00" fill="#000000">    </text>
<text text-anchor="start" x="435.4359" y="-208.3" font-family="Arial" font-size="14.00" fill="#666666">[BASE TABLE]</text>
<polygon fill="none" stroke="#000000" points="273.5,-165.5 273.5,-195.5 535.5,-195.5 535.5,-165.5 273.5,-165.5"/>
<text text-anchor="start" x="280.5" y="-176.9" font-family="Arial" font-size="14.00" fill="#000000">id </text>
<text text-anchor="start" x="295.2798" y="-176.9" font-family="Arial" font-size="14.00" fill="#666666">[bigint(20) unsigned]</text>
<polygon fill="none" stroke="#000000" points="273.5,-135.5 273.5,-165.5 535.5,-165.5 535.5,-135.5 273.5,-135.5"/>
<text text-anchor="start" x="280.5" y="-146.9" font-family="Arial" font-size="14.00" fill="#000000">software_type_name </text>
<text text-anchor="start" x="414.3162" y="-146.9" font-family="Arial" font-size="14.00" fill="#666666">[varchar(255)]</text>
<polygon fill="none" stroke="#000000" points="273.5,-105.5 273.5,-135.5 535.5,-135.5 535.5,-105.5 273.5,-105.5"/>
<text text-anchor="start" x="280.5" y="-116.9" font-family="Arial" font-size="14.00" fill="#000000">software_type_value </text>
<text text-anchor="start" x="412.7622" y="-116.9" font-family="Arial" font-size="14.00" fill="#666666">[text]</text>
<polygon fill="none" stroke="#000000" points="273.5,-75.5 273.5,-105.5 535.5,-105.5 535.5,-75.5 273.5,-75.5"/>
<text text-anchor="start" x="280.5" y="-86.9" font-family="Arial" font-size="14.00" fill="#000000">created_at </text>
<text text-anchor="start" x="350.528" y="-86.9" font-family="Arial" font-size="14.00" fill="#666666">[timestamp]</text>
<polygon fill="none" stroke="#000000" points="273.5,-45.5 273.5,-75.5 535.5,-75.5 535.5,-45.5 273.5,-45.5"/>
<text text-anchor="start" x="280.5" y="-56.9" font-family="Arial" font-size="14.00" fill="#000000">updated_at </text>
<text text-anchor="start" x="354.4326" y="-56.9" font-family="Arial" font-size="14.00" fill="#666666">[timestamp]</text>
<polygon fill="none" stroke="#000000" stroke-width="3" points="272,-44.5 272,-232.5 537,-232.5 537,-44.5 272,-44.5"/>
</g>
<!-- software_softwaretype -->
<g id="node2" class="node">
<title>software_softwaretype</title>
<polygon fill="#efefef" stroke="transparent" points="43.5,-640.5 43.5,-675.5 364.5,-675.5 364.5,-640.5 43.5,-640.5"/>
<polygon fill="none" stroke="#000000" points="43.5,-640.5 43.5,-675.5 364.5,-675.5 364.5,-640.5 43.5,-640.5"/>
<text text-anchor="start" x="50.1962" y="-653.3" font-family="Arial Bold" font-size="18.00" fill="#000000">software_softwaretype</text>
<text text-anchor="start" x="230.2358" y="-653.3" font-family="Arial" font-size="14.00" fill="#000000">    </text>
<text text-anchor="start" x="264.4406" y="-653.3" font-family="Arial" font-size="14.00" fill="#666666">[BASE TABLE]</text>
<polygon fill="none" stroke="#000000" points="43.5,-610.5 43.5,-640.5 364.5,-640.5 364.5,-610.5 43.5,-610.5"/>
<text text-anchor="start" x="50.5" y="-621.9" font-family="Arial" font-size="14.00" fill="#000000">software_id    </text>
<text text-anchor="start" x="156.2728" y="-621.9" font-family="Arial" font-size="14.00" fill="#666666">[bigint(20) unsigned]</text>
<polygon fill="none" stroke="#000000" points="43.5,-580.5 43.5,-610.5 364.5,-610.5 364.5,-580.5 43.5,-580.5"/>
<text text-anchor="start" x="50.5" y="-591.9" font-family="Arial" font-size="14.00" fill="#000000">softwaretype_id    </text>
<text text-anchor="start" x="182.7286" y="-591.9" font-family="Arial" font-size="14.00" fill="#666666">[bigint(20) unsigned]</text>
<polygon fill="none" stroke="#000000" points="43.5,-550.5 43.5,-580.5 364.5,-580.5 364.5,-550.5 43.5,-550.5"/>
<text text-anchor="start" x="50.5" y="-561.9" font-family="Arial" font-size="14.00" fill="#000000">created_at    </text>
<text text-anchor="start" x="150.8422" y="-561.9" font-family="Arial" font-size="14.00" fill="#666666">[timestamp]</text>
<polygon fill="none" stroke="#000000" points="43.5,-520.5 43.5,-550.5 364.5,-550.5 364.5,-520.5 43.5,-520.5"/>
<text text-anchor="start" x="50.5" y="-531.9" font-family="Arial" font-size="14.00" fill="#000000">updated_at    </text>
<text text-anchor="start" x="154.7468" y="-531.9" font-family="Arial" font-size="14.00" fill="#666666">[timestamp]</text>
</g>
<!-- software_softwaretype&#45;&gt;software_types -->
<g id="edge1" class="edge">
<title>software_softwaretype:softwaretype_id&#45;&gt;software_types:id</title>
<path fill="none" stroke="#000000" d="M374.8214,-595.0313C535.2707,-579.4474 88.3614,-180.5 273.5,-180.5"/>
<polygon fill="#000000" stroke="#000000" points="374.4897,-595.0462 364.2958,-591.0046 369.4949,-595.2731 364.5,-595.5 364.5,-595.5 364.5,-595.5 369.4949,-595.2731 364.7042,-599.9954 374.4897,-595.0462 374.4897,-595.0462"/>
<text text-anchor="start" x="371.4325" y="-605.5" font-family="Arial" font-size="10.00" fill="#000000">FOREIGN KEY (softwaretype_id) REFERENCES software_types (id)</text>
</g>
<!-- softwares -->
<g id="node3" class="node">
<title>softwares</title>
<polygon fill="#efefef" stroke="transparent" points="468.5,-805.5 468.5,-840.5 741.5,-840.5 741.5,-805.5 468.5,-805.5"/>
<polygon fill="none" stroke="#000000" points="468.5,-805.5 468.5,-840.5 741.5,-840.5 741.5,-805.5 468.5,-805.5"/>
<text text-anchor="start" x="502.7113" y="-818.3" font-family="Arial Bold" font-size="18.00" fill="#000000">softwares</text>
<text text-anchor="start" x="579.7207" y="-818.3" font-family="Arial" font-size="14.00" fill="#000000">    </text>
<text text-anchor="start" x="613.9255" y="-818.3" font-family="Arial" font-size="14.00" fill="#666666">[BASE TABLE]</text>
<polygon fill="none" stroke="#000000" points="468.5,-775.5 468.5,-805.5 741.5,-805.5 741.5,-775.5 468.5,-775.5"/>
<text text-anchor="start" x="475.5" y="-786.9" font-family="Arial" font-size="14.00" fill="#000000">id    </text>
<text text-anchor="start" x="520.594" y="-786.9" font-family="Arial" font-size="14.00" fill="#666666">[bigint(20) unsigned]</text>
<polygon fill="none" stroke="#000000" points="468.5,-745.5 468.5,-775.5 741.5,-775.5 741.5,-745.5 468.5,-745.5"/>
<text text-anchor="start" x="475.5" y="-756.9" font-family="Arial" font-size="14.00" fill="#000000">author_id    </text>
<text text-anchor="start" x="568.0582" y="-756.9" font-family="Arial" font-size="14.00" fill="#666666">[bigint(20) unsigned]</text>
<polygon fill="none" stroke="#000000" points="468.5,-715.5 468.5,-745.5 741.5,-745.5 741.5,-715.5 468.5,-715.5"/>
<text text-anchor="start" x="475.5" y="-726.9" font-family="Arial" font-size="14.00" fill="#000000">post_title    </text>
<text text-anchor="start" x="565.7202" y="-726.9" font-family="Arial" font-size="14.00" fill="#666666">[varchar(255)]</text>
<polygon fill="none" stroke="#000000" points="468.5,-685.5 468.5,-715.5 741.5,-715.5 741.5,-685.5 468.5,-685.5"/>
<text text-anchor="start" x="475.5" y="-696.9" font-family="Arial" font-size="14.00" fill="#000000">post_content    </text>
<text text-anchor="start" x="589.8548" y="-696.9" font-family="Arial" font-size="14.00" fill="#666666">[longtext]</text>
<polygon fill="none" stroke="#000000" points="468.5,-655.5 468.5,-685.5 741.5,-685.5 741.5,-655.5 468.5,-655.5"/>
<text text-anchor="start" x="475.5" y="-666.9" font-family="Arial" font-size="14.00" fill="#000000">post_excerpt    </text>
<text text-anchor="start" x="589.8422" y="-666.9" font-family="Arial" font-size="14.00" fill="#666666">[text]</text>
<polygon fill="none" stroke="#000000" points="468.5,-625.5 468.5,-655.5 741.5,-655.5 741.5,-625.5 468.5,-625.5"/>
<text text-anchor="start" x="475.5" y="-636.9" font-family="Arial" font-size="14.00" fill="#000000">cover_image    </text>
<text text-anchor="start" x="589.8282" y="-636.9" font-family="Arial" font-size="14.00" fill="#666666">[varchar(255)]</text>
<polygon fill="none" stroke="#000000" points="468.5,-595.5 468.5,-625.5 741.5,-625.5 741.5,-595.5 468.5,-595.5"/>
<text text-anchor="start" x="475.5" y="-606.9" font-family="Arial" font-size="14.00" fill="#000000">post_date    </text>
<text text-anchor="start" x="571.1816" y="-606.9" font-family="Arial" font-size="14.00" fill="#666666">[datetime]</text>
<polygon fill="none" stroke="#000000" points="468.5,-565.5 468.5,-595.5 741.5,-595.5 741.5,-565.5 468.5,-565.5"/>
<text text-anchor="start" x="475.5" y="-576.9" font-family="Arial" font-size="14.00" fill="#000000">post_modified    </text>
<text text-anchor="start" x="596.838" y="-576.9" font-family="Arial" font-size="14.00" fill="#666666">[datetime]</text>
<polygon fill="none" stroke="#000000" points="468.5,-535.5 468.5,-565.5 741.5,-565.5 741.5,-535.5 468.5,-535.5"/>
<text text-anchor="start" x="475.5" y="-546.9" font-family="Arial" font-size="14.00" fill="#000000">post_status    </text>
<text text-anchor="start" x="581.2896" y="-546.9" font-family="Arial" font-size="14.00" fill="#666666">[varchar(255)]</text>
<polygon fill="none" stroke="#000000" points="468.5,-505.5 468.5,-535.5 741.5,-535.5 741.5,-505.5 468.5,-505.5"/>
<text text-anchor="start" x="475.4797" y="-516.9" font-family="Arial" font-size="14.00" fill="#000000">softwaretype_id    </text>
<text text-anchor="start" x="607.7083" y="-516.9" font-family="Arial" font-size="14.00" fill="#666666">[bigint(20) unsigned]</text>
<polygon fill="none" stroke="#000000" points="468.5,-475.5 468.5,-505.5 741.5,-505.5 741.5,-475.5 468.5,-475.5"/>
<text text-anchor="start" x="475.5" y="-486.9" font-family="Arial" font-size="14.00" fill="#000000">template    </text>
<text text-anchor="start" x="563.3836" y="-486.9" font-family="Arial" font-size="14.00" fill="#666666">[varchar(255)]</text>
<polygon fill="none" stroke="#000000" points="468.5,-445.5 468.5,-475.5 741.5,-475.5 741.5,-445.5 468.5,-445.5"/>
<text text-anchor="start" x="475.5" y="-456.9" font-family="Arial" font-size="14.00" fill="#000000">extra_content    </text>
<text text-anchor="start" x="594.5154" y="-456.9" font-family="Arial" font-size="14.00" fill="#666666">[json]</text>
<polygon fill="none" stroke="#000000" points="468.5,-415.5 468.5,-445.5 741.5,-445.5 741.5,-415.5 468.5,-415.5"/>
<text text-anchor="start" x="475.5" y="-426.9" font-family="Arial" font-size="14.00" fill="#000000">how_to_access    </text>
<text text-anchor="start" x="606.1802" y="-426.9" font-family="Arial" font-size="14.00" fill="#666666">[longtext]</text>
<polygon fill="none" stroke="#000000" points="468.5,-385.5 468.5,-415.5 741.5,-415.5 741.5,-385.5 468.5,-385.5"/>
<text text-anchor="start" x="475.5" y="-396.9" font-family="Arial" font-size="14.00" fill="#000000">created_at    </text>
<text text-anchor="start" x="575.8422" y="-396.9" font-family="Arial" font-size="14.00" fill="#666666">[timestamp]</text>
<polygon fill="none" stroke="#000000" points="468.5,-355.5 468.5,-385.5 741.5,-385.5 741.5,-355.5 468.5,-355.5"/>
<text text-anchor="start" x="475.5" y="-366.9" font-family="Arial" font-size="14.00" fill="#000000">updated_at    </text>
<text text-anchor="start" x="579.7468" y="-366.9" font-family="Arial" font-size="14.00" fill="#666666">[timestamp]</text>
</g>
<!-- softwares&#45;&gt;software_types -->
<g id="edge2" class="edge">
<title>softwares:softwaretype_id&#45;&gt;software_types:id</title>
<path fill="none" stroke="#000000" d="M458.916,-517.5665C425.9039,-495.0453 446.6859,-349.4847 468.5,-313 485.8472,-283.9864 518.1528,-306.0136 535.5,-277 557.5092,-240.189 578.3889,-180.5 535.5,-180.5"/>
<polygon fill="#000000" stroke="#000000" points="458.9379,-517.5731 467.1829,-524.803 463.7189,-519.0366 468.5,-520.5 468.5,-520.5 468.5,-520.5 463.7189,-519.0366 469.8171,-516.197 458.9379,-517.5731 458.9379,-517.5731"/>
<text text-anchor="start" x="475.4325" y="-530.5" font-family="Arial" font-size="10.00" fill="#000000">FOREIGN KEY (softwaretype_id) REFERENCES software_types (id)</text>
</g>
</g>
</svg>
