<?xml version="1.0" encoding="UTF-8" standalone="no"?>
<!DOCTYPE svg PUBLIC "-//W3C//DTD SVG 1.1//EN"
 "http://www.w3.org/Graphics/SVG/1.1/DTD/svg11.dtd">
<!-- Generated by graphviz version 2.40.1 (20161225.0304)
 -->
<!-- Title: surveys Pages: 1 -->
<svg width="820pt" height="1012pt"
 viewBox="0.00 0.00 820.00 1012.00" xmlns="http://www.w3.org/2000/svg" xmlns:xlink="http://www.w3.org/1999/xlink">
<g id="graph0" class="graph" transform="scale(1 1) rotate(0) translate(4 1008)">
<title>surveys</title>
<polygon fill="#ffffff" stroke="transparent" points="-4,4 -4,-1008 816,-1008 816,4 -4,4"/>
<!-- surveys -->
<g id="node1" class="node">
<title>surveys</title>
<polygon fill="#efefef" stroke="transparent" points="276.5,-165.5 276.5,-200.5 479.5,-200.5 479.5,-165.5 276.5,-165.5"/>
<polygon fill="none" stroke="#000000" points="276.5,-165.5 276.5,-200.5 479.5,-200.5 479.5,-165.5 276.5,-165.5"/>
<text text-anchor="start" x="283.2137" y="-178.3" font-family="Arial Bold" font-size="18.00" fill="#000000">surveys</text>
<text text-anchor="start" x="345.2183" y="-178.3" font-family="Arial" font-size="14.00" fill="#000000">    </text>
<text text-anchor="start" x="379.4231" y="-178.3" font-family="Arial" font-size="14.00" fill="#666666">[BASE TABLE]</text>
<polygon fill="none" stroke="#000000" points="276.5,-135.5 276.5,-165.5 479.5,-165.5 479.5,-135.5 276.5,-135.5"/>
<text text-anchor="start" x="283.5" y="-146.9" font-family="Arial" font-size="14.00" fill="#000000">version </text>
<text text-anchor="start" x="332.5056" y="-146.9" font-family="Arial" font-size="14.00" fill="#666666">[bigint(20) unsigned]</text>
<polygon fill="none" stroke="#000000" points="276.5,-105.5 276.5,-135.5 479.5,-135.5 479.5,-105.5 276.5,-105.5"/>
<text text-anchor="start" x="283.5" y="-116.9" font-family="Arial" font-size="14.00" fill="#000000">is_active </text>
<text text-anchor="start" x="341.8422" y="-116.9" font-family="Arial" font-size="14.00" fill="#666666">[tinyint(1)]</text>
<polygon fill="none" stroke="#000000" points="276.5,-75.5 276.5,-105.5 479.5,-105.5 479.5,-75.5 276.5,-75.5"/>
<text text-anchor="start" x="283.5" y="-86.9" font-family="Arial" font-size="14.00" fill="#000000">created_at </text>
<text text-anchor="start" x="353.528" y="-86.9" font-family="Arial" font-size="14.00" fill="#666666">[timestamp]</text>
<polygon fill="none" stroke="#000000" points="276.5,-45.5 276.5,-75.5 479.5,-75.5 479.5,-45.5 276.5,-45.5"/>
<text text-anchor="start" x="283.5" y="-56.9" font-family="Arial" font-size="14.00" fill="#000000">updated_at </text>
<text text-anchor="start" x="357.4326" y="-56.9" font-family="Arial" font-size="14.00" fill="#666666">[timestamp]</text>
<polygon fill="none" stroke="#000000" stroke-width="3" points="274.5,-44.5 274.5,-202.5 480.5,-202.5 480.5,-44.5 274.5,-44.5"/>
</g>
<!-- questions -->
<g id="node2" class="node">
<title>questions</title>
<polygon fill="#efefef" stroke="transparent" points="43.5,-925.5 43.5,-960.5 298.5,-960.5 298.5,-925.5 43.5,-925.5"/>
<polygon fill="none" stroke="#000000" points="43.5,-925.5 43.5,-960.5 298.5,-960.5 298.5,-925.5 43.5,-925.5"/>
<text text-anchor="start" x="68.7023" y="-938.3" font-family="Arial Bold" font-size="18.00" fill="#000000">questions</text>
<text text-anchor="start" x="145.7297" y="-938.3" font-family="Arial" font-size="14.00" fill="#000000">    </text>
<text text-anchor="start" x="179.9345" y="-938.3" font-family="Arial" font-size="14.00" fill="#666666">[BASE TABLE]</text>
<polygon fill="none" stroke="#000000" points="43.5,-895.5 43.5,-925.5 298.5,-925.5 298.5,-895.5 43.5,-895.5"/>
<text text-anchor="start" x="50.5" y="-906.9" font-family="Arial" font-size="14.00" fill="#000000">id    </text>
<text text-anchor="start" x="95.594" y="-906.9" font-family="Arial" font-size="14.00" fill="#666666">[bigint(20) unsigned]</text>
<polygon fill="none" stroke="#000000" points="43.5,-865.5 43.5,-895.5 298.5,-895.5 298.5,-865.5 43.5,-865.5"/>
<text text-anchor="start" x="50.5" y="-876.9" font-family="Arial" font-size="14.00" fill="#000000">survey_id    </text>
<text text-anchor="start" x="144.6024" y="-876.9" font-family="Arial" font-size="14.00" fill="#666666">[bigint(20) unsigned]</text>
<polygon fill="none" stroke="#000000" points="43.5,-835.5 43.5,-865.5 298.5,-865.5 298.5,-835.5 43.5,-835.5"/>
<text text-anchor="start" x="50.5" y="-846.9" font-family="Arial" font-size="14.00" fill="#000000">domain    </text>
<text text-anchor="start" x="130.6024" y="-846.9" font-family="Arial" font-size="14.00" fill="#666666">[varchar(255)]</text>
<polygon fill="none" stroke="#000000" points="43.5,-805.5 43.5,-835.5 298.5,-835.5 298.5,-805.5 43.5,-805.5"/>
<text text-anchor="start" x="50.5" y="-816.9" font-family="Arial" font-size="14.00" fill="#000000">question    </text>
<text text-anchor="start" x="137.615" y="-816.9" font-family="Arial" font-size="14.00" fill="#666666">[text]</text>
<polygon fill="none" stroke="#000000" points="43.5,-775.5 43.5,-805.5 298.5,-805.5 298.5,-775.5 43.5,-775.5"/>
<text text-anchor="start" x="50.5" y="-786.9" font-family="Arial" font-size="14.00" fill="#000000">element    </text>
<text text-anchor="start" x="134.493" y="-786.9" font-family="Arial" font-size="14.00" fill="#666666">[varchar(255)]</text>
<polygon fill="none" stroke="#000000" points="43.5,-745.5 43.5,-775.5 298.5,-775.5 298.5,-745.5 43.5,-745.5"/>
<text text-anchor="start" x="50.4299" y="-756.9" font-family="Arial" font-size="14.00" fill="#000000">generated_variable    </text>
<text text-anchor="start" x="204.4509" y="-756.9" font-family="Arial" font-size="14.00" fill="#666666">[varchar(255)]</text>
<polygon fill="none" stroke="#000000" points="43.5,-715.5 43.5,-745.5 298.5,-745.5 298.5,-715.5 43.5,-715.5"/>
<text text-anchor="start" x="50.5" y="-726.9" font-family="Arial" font-size="14.00" fill="#000000">domain_print    </text>
<text text-anchor="start" x="165.608" y="-726.9" font-family="Arial" font-size="14.00" fill="#666666">[varchar(255)]</text>
<polygon fill="none" stroke="#000000" points="43.5,-685.5 43.5,-715.5 298.5,-715.5 298.5,-685.5 43.5,-685.5"/>
<text text-anchor="start" x="50.5" y="-696.9" font-family="Arial" font-size="14.00" fill="#000000">advice    </text>
<text text-anchor="start" x="125.1592" y="-696.9" font-family="Arial" font-size="14.00" fill="#666666">[text]</text>
<polygon fill="none" stroke="#000000" points="43.5,-655.5 43.5,-685.5 298.5,-685.5 298.5,-655.5 43.5,-655.5"/>
<text text-anchor="start" x="50.5" y="-666.9" font-family="Arial" font-size="14.00" fill="#000000">description    </text>
<text text-anchor="start" x="152.3822" y="-666.9" font-family="Arial" font-size="14.00" fill="#666666">[text]</text>
<polygon fill="none" stroke="#000000" points="43.5,-625.5 43.5,-655.5 298.5,-655.5 298.5,-625.5 43.5,-625.5"/>
<text text-anchor="start" x="50.5" y="-636.9" font-family="Arial" font-size="14.00" fill="#000000">question_example    </text>
<text text-anchor="start" x="198.2952" y="-636.9" font-family="Arial" font-size="14.00" fill="#666666">[text]</text>
<polygon fill="none" stroke="#000000" points="43.5,-595.5 43.5,-625.5 298.5,-625.5 298.5,-595.5 43.5,-595.5"/>
<text text-anchor="start" x="50.5" y="-606.9" font-family="Arial" font-size="14.00" fill="#000000">variable_suffix    </text>
<text text-anchor="start" x="174.162" y="-606.9" font-family="Arial" font-size="14.00" fill="#666666">[varchar(255)]</text>
<polygon fill="none" stroke="#000000" points="43.5,-565.5 43.5,-595.5 298.5,-595.5 298.5,-565.5 43.5,-565.5"/>
<text text-anchor="start" x="50.5" y="-576.9" font-family="Arial" font-size="14.00" fill="#000000">dependencies    </text>
<text text-anchor="start" x="171.8548" y="-576.9" font-family="Arial" font-size="14.00" fill="#666666">[varchar(255)]</text>
<polygon fill="none" stroke="#000000" points="43.5,-535.5 43.5,-565.5 298.5,-565.5 298.5,-535.5 43.5,-535.5"/>
<text text-anchor="start" x="50.5" y="-546.9" font-family="Arial" font-size="14.00" fill="#000000">phase    </text>
<text text-anchor="start" x="122.8352" y="-546.9" font-family="Arial" font-size="14.00" fill="#666666">[int(11)]</text>
<polygon fill="none" stroke="#000000" points="43.5,-505.5 43.5,-535.5 298.5,-535.5 298.5,-505.5 43.5,-505.5"/>
<text text-anchor="start" x="50.5" y="-516.9" font-family="Arial" font-size="14.00" fill="#000000">phase_description    </text>
<text text-anchor="start" x="198.2952" y="-516.9" font-family="Arial" font-size="14.00" fill="#666666">[varchar(255)]</text>
<polygon fill="none" stroke="#000000" points="43.5,-475.5 43.5,-505.5 298.5,-505.5 298.5,-475.5 43.5,-475.5"/>
<text text-anchor="start" x="50.5" y="-486.9" font-family="Arial" font-size="14.00" fill="#000000">indicator    </text>
<text text-anchor="start" x="137.5996" y="-486.9" font-family="Arial" font-size="14.00" fill="#666666">[varchar(255)]</text>
<polygon fill="none" stroke="#000000" points="43.5,-445.5 43.5,-475.5 298.5,-475.5 298.5,-445.5 43.5,-445.5"/>
<text text-anchor="start" x="50.5" y="-456.9" font-family="Arial" font-size="14.00" fill="#000000">element_print    </text>
<text text-anchor="start" x="169.4986" y="-456.9" font-family="Arial" font-size="14.00" fill="#666666">[text]</text>
<polygon fill="none" stroke="#000000" points="43.5,-415.5 43.5,-445.5 298.5,-445.5 298.5,-415.5 43.5,-415.5"/>
<text text-anchor="start" x="50.5" y="-426.9" font-family="Arial" font-size="14.00" fill="#000000">indicator_print    </text>
<text text-anchor="start" x="172.6052" y="-426.9" font-family="Arial" font-size="14.00" fill="#666666">[varchar(255)]</text>
<polygon fill="none" stroke="#000000" points="43.5,-385.5 43.5,-415.5 298.5,-415.5 298.5,-385.5 43.5,-385.5"/>
<text text-anchor="start" x="50.5" y="-396.9" font-family="Arial" font-size="14.00" fill="#000000">element_description    </text>
<text text-anchor="start" x="209.953" y="-396.9" font-family="Arial" font-size="14.00" fill="#666666">[text]</text>
<polygon fill="none" stroke="#000000" points="43.5,-355.5 43.5,-385.5 298.5,-385.5 298.5,-355.5 43.5,-355.5"/>
<text text-anchor="start" x="50.5" y="-366.9" font-family="Arial" font-size="14.00" fill="#000000">created_at    </text>
<text text-anchor="start" x="150.8422" y="-366.9" font-family="Arial" font-size="14.00" fill="#666666">[timestamp]</text>
<polygon fill="none" stroke="#000000" points="43.5,-325.5 43.5,-355.5 298.5,-355.5 298.5,-325.5 43.5,-325.5"/>
<text text-anchor="start" x="50.5" y="-336.9" font-family="Arial" font-size="14.00" fill="#000000">updated_at    </text>
<text text-anchor="start" x="154.7468" y="-336.9" font-family="Arial" font-size="14.00" fill="#666666">[timestamp]</text>
</g>
<!-- questions&#45;&gt;surveys -->
<g id="edge1" class="edge">
<title>questions:survey_id&#45;&gt;surveys:version</title>
<path fill="none" stroke="#000000" d="M307.7449,-876.5034C360.051,-827.5182 315.5682,-343.6621 298.5,-283 293.4213,-264.9498 281.5787,-265.0502 276.5,-247 264.8836,-205.7142 233.6111,-150.5 276.5,-150.5"/>
<polygon fill="#000000" stroke="#000000" points="307.679,-876.5318 296.7143,-876.3694 303.0895,-878.5159 298.5,-880.5 298.5,-880.5 298.5,-880.5 303.0895,-878.5159 300.2857,-884.6306 307.679,-876.5318 307.679,-876.5318"/>
<text text-anchor="start" x="305.2215" y="-890.5" font-family="Arial" font-size="10.00" fill="#000000">FOREIGN KEY (survey_id) REFERENCES surveys (version)</text>
</g>
<!-- user_surveys -->
<g id="node3" class="node">
<title>user_surveys</title>
<polygon fill="#efefef" stroke="transparent" points="402.5,-715.5 402.5,-750.5 769.5,-750.5 769.5,-715.5 402.5,-715.5"/>
<polygon fill="none" stroke="#000000" points="402.5,-715.5 402.5,-750.5 769.5,-750.5 769.5,-715.5 402.5,-715.5"/>
<text text-anchor="start" x="468.7083" y="-728.3" font-family="Arial Bold" font-size="18.00" fill="#000000">user_surveys</text>
<text text-anchor="start" x="575.7237" y="-728.3" font-family="Arial" font-size="14.00" fill="#000000">    </text>
<text text-anchor="start" x="609.9285" y="-728.3" font-family="Arial" font-size="14.00" fill="#666666">[BASE TABLE]</text>
<polygon fill="none" stroke="#000000" points="402.5,-685.5 402.5,-715.5 769.5,-715.5 769.5,-685.5 402.5,-685.5"/>
<text text-anchor="start" x="409.5" y="-696.9" font-family="Arial" font-size="14.00" fill="#000000">id    </text>
<text text-anchor="start" x="454.594" y="-696.9" font-family="Arial" font-size="14.00" fill="#666666">[bigint(20) unsigned]</text>
<polygon fill="none" stroke="#000000" points="402.5,-655.5 402.5,-685.5 769.5,-685.5 769.5,-655.5 402.5,-655.5"/>
<text text-anchor="start" x="409.5" y="-666.9" font-family="Arial" font-size="14.00" fill="#000000">user_id    </text>
<text text-anchor="start" x="489.6024" y="-666.9" font-family="Arial" font-size="14.00" fill="#666666">[bigint(20) unsigned]</text>
<polygon fill="none" stroke="#000000" points="402.5,-625.5 402.5,-655.5 769.5,-655.5 769.5,-625.5 402.5,-625.5"/>
<text text-anchor="start" x="409.5" y="-636.9" font-family="Arial" font-size="14.00" fill="#000000">survey_id    </text>
<text text-anchor="start" x="503.6024" y="-636.9" font-family="Arial" font-size="14.00" fill="#666666">[bigint(20) unsigned]</text>
<polygon fill="none" stroke="#000000" points="402.5,-595.5 402.5,-625.5 769.5,-625.5 769.5,-595.5 402.5,-595.5"/>
<text text-anchor="start" x="409.4698" y="-606.9" font-family="Arial" font-size="14.00" fill="#000000">status    </text>
<text text-anchor="start" x="481.021" y="-606.9" font-family="Arial" font-size="14.00" fill="#666666">[enum(&#39;In Progress&#39;,&#39;Abandoned&#39;,&#39;Complete&#39;)]</text>
<polygon fill="none" stroke="#000000" points="402.5,-565.5 402.5,-595.5 769.5,-595.5 769.5,-565.5 402.5,-565.5"/>
<text text-anchor="start" x="409.5" y="-576.9" font-family="Arial" font-size="14.00" fill="#000000">created_at    </text>
<text text-anchor="start" x="509.8422" y="-576.9" font-family="Arial" font-size="14.00" fill="#666666">[timestamp]</text>
<polygon fill="none" stroke="#000000" points="402.5,-535.5 402.5,-565.5 769.5,-565.5 769.5,-535.5 402.5,-535.5"/>
<text text-anchor="start" x="409.5" y="-546.9" font-family="Arial" font-size="14.00" fill="#000000">updated_at    </text>
<text text-anchor="start" x="513.7468" y="-546.9" font-family="Arial" font-size="14.00" fill="#666666">[timestamp]</text>
</g>
<!-- user_surveys&#45;&gt;surveys -->
<g id="edge2" class="edge">
<title>user_surveys:survey_id&#45;&gt;surveys:version</title>
<path fill="none" stroke="#000000" d="M392.4969,-639.7224C343.1019,-631.1894 393.156,-554.1325 402.5,-493 419.8098,-379.7511 462.1902,-360.2489 479.5,-247 485.9802,-204.6035 522.3889,-150.5 479.5,-150.5"/>
<polygon fill="#000000" stroke="#000000" points="392.5301,-639.7249 402.1512,-644.9865 397.515,-640.1124 402.5,-640.5 402.5,-640.5 402.5,-640.5 397.515,-640.1124 402.8488,-636.0135 392.5301,-639.7249 392.5301,-639.7249"/>
<text text-anchor="start" x="409.2215" y="-650.5" font-family="Arial" font-size="10.00" fill="#000000">FOREIGN KEY (survey_id) REFERENCES surveys (version)</text>
</g>
</g>
</svg>
