<?xml version="1.0" encoding="UTF-8" standalone="no"?>
<!DOCTYPE svg PUBLIC "-//W3C//DTD SVG 1.1//EN"
 "http://www.w3.org/Graphics/SVG/1.1/DTD/svg11.dtd">
<!-- Generated by graphviz version 2.40.1 (20161225.0304)
 -->
<!-- Title: tags Pages: 1 -->
<svg width="527pt" height="592pt"
 viewBox="0.00 0.00 526.50 592.00" xmlns="http://www.w3.org/2000/svg" xmlns:xlink="http://www.w3.org/1999/xlink">
<g id="graph0" class="graph" transform="scale(1 1) rotate(0) translate(4 588)">
<title>tags</title>
<polygon fill="#ffffff" stroke="transparent" points="-4,4 -4,-588 522.5,-588 522.5,4 -4,4"/>
<!-- tags -->
<g id="node1" class="node">
<title>tags</title>
<polygon fill="#efefef" stroke="transparent" points="265,-255.5 265,-290.5 440,-290.5 440,-255.5 265,-255.5"/>
<polygon fill="none" stroke="#000000" points="265,-255.5 265,-290.5 440,-290.5 440,-255.5 265,-255.5"/>
<text text-anchor="start" x="271.7087" y="-268.3" font-family="Arial Bold" font-size="18.00" fill="#000000">tags</text>
<text text-anchor="start" x="305.7233" y="-268.3" font-family="Arial" font-size="14.00" fill="#000000">    </text>
<text text-anchor="start" x="339.9281" y="-268.3" font-family="Arial" font-size="14.00" fill="#666666">[BASE TABLE]</text>
<polygon fill="none" stroke="#000000" points="265,-225.5 265,-255.5 440,-255.5 440,-225.5 265,-225.5"/>
<text text-anchor="start" x="272" y="-236.9" font-family="Arial" font-size="14.00" fill="#000000">id </text>
<text text-anchor="start" x="286.7798" y="-236.9" font-family="Arial" font-size="14.00" fill="#666666">[bigint(20) unsigned]</text>
<polygon fill="none" stroke="#000000" points="265,-195.5 265,-225.5 440,-225.5 440,-195.5 265,-195.5"/>
<text text-anchor="start" x="272" y="-206.9" font-family="Arial" font-size="14.00" fill="#000000">name </text>
<text text-anchor="start" x="310.899" y="-206.9" font-family="Arial" font-size="14.00" fill="#666666">[json]</text>
<polygon fill="none" stroke="#000000" points="265,-165.5 265,-195.5 440,-195.5 440,-165.5 265,-165.5"/>
<text text-anchor="start" x="272" y="-176.9" font-family="Arial" font-size="14.00" fill="#000000">slug </text>
<text text-anchor="start" x="301.5624" y="-176.9" font-family="Arial" font-size="14.00" fill="#666666">[json]</text>
<polygon fill="none" stroke="#000000" points="265,-135.5 265,-165.5 440,-165.5 440,-135.5 265,-135.5"/>
<text text-anchor="start" x="272" y="-146.9" font-family="Arial" font-size="14.00" fill="#000000">type </text>
<text text-anchor="start" x="302.3464" y="-146.9" font-family="Arial" font-size="14.00" fill="#666666">[varchar(255)]</text>
<polygon fill="none" stroke="#000000" points="265,-105.5 265,-135.5 440,-135.5 440,-105.5 265,-105.5"/>
<text text-anchor="start" x="272" y="-116.9" font-family="Arial" font-size="14.00" fill="#000000">order_column </text>
<text text-anchor="start" x="361.4572" y="-116.9" font-family="Arial" font-size="14.00" fill="#666666">[int(11)]</text>
<polygon fill="none" stroke="#000000" points="265,-75.5 265,-105.5 440,-105.5 440,-75.5 265,-75.5"/>
<text text-anchor="start" x="272" y="-86.9" font-family="Arial" font-size="14.00" fill="#000000">created_at </text>
<text text-anchor="start" x="342.028" y="-86.9" font-family="Arial" font-size="14.00" fill="#666666">[timestamp]</text>
<polygon fill="none" stroke="#000000" points="265,-45.5 265,-75.5 440,-75.5 440,-45.5 265,-45.5"/>
<text text-anchor="start" x="272" y="-56.9" font-family="Arial" font-size="14.00" fill="#000000">updated_at </text>
<text text-anchor="start" x="345.9326" y="-56.9" font-family="Arial" font-size="14.00" fill="#666666">[timestamp]</text>
<polygon fill="none" stroke="#000000" stroke-width="3" points="263,-44.5 263,-292.5 441,-292.5 441,-44.5 263,-44.5"/>
</g>
<!-- taggables -->
<g id="node2" class="node">
<title>taggables</title>
<polygon fill="#efefef" stroke="transparent" points="229,-505.5 229,-540.5 476,-540.5 476,-505.5 229,-505.5"/>
<polygon fill="none" stroke="#000000" points="229,-505.5 229,-540.5 476,-540.5 476,-505.5 229,-505.5"/>
<text text-anchor="start" x="249.6992" y="-518.3" font-family="Arial Bold" font-size="18.00" fill="#000000">taggables</text>
<text text-anchor="start" x="327.7328" y="-518.3" font-family="Arial" font-size="14.00" fill="#000000">    </text>
<text text-anchor="start" x="361.9376" y="-518.3" font-family="Arial" font-size="14.00" fill="#666666">[BASE TABLE]</text>
<polygon fill="none" stroke="#000000" points="229,-475.5 229,-505.5 476,-505.5 476,-475.5 229,-475.5"/>
<text text-anchor="start" x="236" y="-486.9" font-family="Arial" font-size="14.00" fill="#000000">tag_id    </text>
<text text-anchor="start" x="308.3324" y="-486.9" font-family="Arial" font-size="14.00" fill="#666666">[bigint(20) unsigned]</text>
<polygon fill="none" stroke="#000000" points="229,-445.5 229,-475.5 476,-475.5 476,-445.5 229,-445.5"/>
<text text-anchor="start" x="236" y="-456.9" font-family="Arial" font-size="14.00" fill="#000000">taggable_type    </text>
<text text-anchor="start" x="358.136" y="-456.9" font-family="Arial" font-size="14.00" fill="#666666">[varchar(255)]</text>
<polygon fill="none" stroke="#000000" points="229,-415.5 229,-445.5 476,-445.5 476,-415.5 229,-415.5"/>
<text text-anchor="start" x="235.8093" y="-426.9" font-family="Arial" font-size="14.00" fill="#000000">taggable_id    </text>
<text text-anchor="start" x="342.3787" y="-426.9" font-family="Arial" font-size="14.00" fill="#666666">[bigint(20) unsigned]</text>
</g>
<!-- taggables&#45;&gt;tags -->
<g id="edge1" class="edge">
<title>taggables:tag_id&#45;&gt;tags:id</title>
<path fill="none" stroke="#000000" d="M218.908,-489.7828C119.0673,-475.1191 156.2508,-240.5 265,-240.5"/>
<polygon fill="#000000" stroke="#000000" points="219.0252,-489.7911 228.681,-494.9887 224.0126,-490.1455 229,-490.5 229,-490.5 229,-490.5 224.0126,-490.1455 229.319,-486.0113 219.0252,-489.7911 219.0252,-489.7911"/>
<text text-anchor="start" x="7.495" y="-500.5" font-family="Arial" font-size="10.00" fill="#000000">FOREIGN KEY (tag_id) REFERENCES tags (id)</text>
</g>
</g>
</svg>
