<?xml version="1.0" encoding="UTF-8" standalone="no"?>
<!DOCTYPE svg PUBLIC "-//W3C//DTD SVG 1.1//EN"
 "http://www.w3.org/Graphics/SVG/1.1/DTD/svg11.dtd">
<!-- Generated by graphviz version 2.40.1 (20161225.0304)
 -->
<!-- Title: taxonomy_metas Pages: 1 -->
<svg width="622pt" height="682pt"
 viewBox="0.00 0.00 622.00 682.00" xmlns="http://www.w3.org/2000/svg" xmlns:xlink="http://www.w3.org/1999/xlink">
<g id="graph0" class="graph" transform="scale(1 1) rotate(0) translate(4 678)">
<title>taxonomy_metas</title>
<polygon fill="#ffffff" stroke="transparent" points="-4,4 -4,-678 618,-678 618,4 -4,4"/>
<!-- taxonomy_metas -->
<g id="node1" class="node">
<title>taxonomy_metas</title>
<polygon fill="#efefef" stroke="transparent" points="46,-592.5 46,-627.5 324,-627.5 324,-592.5 46,-592.5"/>
<polygon fill="none" stroke="#000000" points="46,-592.5 46,-627.5 324,-627.5 324,-592.5 46,-592.5"/>
<text text-anchor="start" x="52.6999" y="-605.3" font-family="Arial Bold" font-size="18.00" fill="#000000">taxonomy_metas</text>
<text text-anchor="start" x="189.7321" y="-605.3" font-family="Arial" font-size="14.00" fill="#000000">    </text>
<text text-anchor="start" x="223.9369" y="-605.3" font-family="Arial" font-size="14.00" fill="#666666">[BASE TABLE]</text>
<polygon fill="none" stroke="#000000" points="46,-562.5 46,-592.5 324,-592.5 324,-562.5 46,-562.5"/>
<text text-anchor="start" x="53" y="-573.9" font-family="Arial" font-size="14.00" fill="#000000">id </text>
<text text-anchor="start" x="67.7798" y="-573.9" font-family="Arial" font-size="14.00" fill="#666666">[bigint(20) unsigned]</text>
<polygon fill="none" stroke="#000000" points="46,-532.5 46,-562.5 324,-562.5 324,-532.5 46,-532.5"/>
<text text-anchor="start" x="53" y="-543.9" font-family="Arial" font-size="14.00" fill="#000000">taxonomy_id </text>
<text text-anchor="start" x="136.244" y="-543.9" font-family="Arial" font-size="14.00" fill="#666666">[bigint(20) unsigned]</text>
<polygon fill="none" stroke="#000000" points="46,-502.5 46,-532.5 324,-532.5 324,-502.5 46,-502.5"/>
<text text-anchor="start" x="53" y="-513.9" font-family="Arial" font-size="14.00" fill="#000000">taxonomy_meta_key </text>
<text text-anchor="start" x="186.0364" y="-513.9" font-family="Arial" font-size="14.00" fill="#666666">[varchar(255)]</text>
<polygon fill="none" stroke="#000000" points="46,-472.5 46,-502.5 324,-502.5 324,-472.5 46,-472.5"/>
<text text-anchor="start" x="53" y="-483.9" font-family="Arial" font-size="14.00" fill="#000000">taxonomy_meta_value </text>
<text text-anchor="start" x="197.7082" y="-483.9" font-family="Arial" font-size="14.00" fill="#666666">[text]</text>
<polygon fill="none" stroke="#000000" points="46,-442.5 46,-472.5 324,-472.5 324,-442.5 46,-442.5"/>
<text text-anchor="start" x="53" y="-453.9" font-family="Arial" font-size="14.00" fill="#000000">created_at </text>
<text text-anchor="start" x="123.028" y="-453.9" font-family="Arial" font-size="14.00" fill="#666666">[timestamp]</text>
<polygon fill="none" stroke="#000000" points="46,-412.5 46,-442.5 324,-442.5 324,-412.5 46,-412.5"/>
<text text-anchor="start" x="53" y="-423.9" font-family="Arial" font-size="14.00" fill="#000000">updated_at </text>
<text text-anchor="start" x="126.9326" y="-423.9" font-family="Arial" font-size="14.00" fill="#666666">[timestamp]</text>
<polygon fill="none" stroke="#000000" stroke-width="3" points="44.5,-411.5 44.5,-629.5 325.5,-629.5 325.5,-411.5 44.5,-411.5"/>
</g>
<!-- taxonomies -->
<g id="node2" class="node">
<title>taxonomies</title>
<polygon fill="#efefef" stroke="transparent" points="66,-252.5 66,-287.5 304,-287.5 304,-252.5 66,-252.5"/>
<polygon fill="none" stroke="#000000" points="66,-252.5 66,-287.5 304,-287.5 304,-252.5 66,-252.5"/>
<text text-anchor="start" x="75.2062" y="-265.3" font-family="Arial Bold" font-size="18.00" fill="#000000">taxonomies</text>
<text text-anchor="start" x="167.2258" y="-265.3" font-family="Arial" font-size="14.00" fill="#000000">    </text>
<text text-anchor="start" x="201.4306" y="-265.3" font-family="Arial" font-size="14.00" fill="#666666">[BASE TABLE]</text>
<polygon fill="none" stroke="#000000" points="66,-222.5 66,-252.5 304,-252.5 304,-222.5 66,-222.5"/>
<text text-anchor="start" x="73" y="-233.9" font-family="Arial" font-size="14.00" fill="#000000">id    </text>
<text text-anchor="start" x="118.094" y="-233.9" font-family="Arial" font-size="14.00" fill="#666666">[bigint(20) unsigned]</text>
<polygon fill="none" stroke="#000000" points="66,-192.5 66,-222.5 304,-222.5 304,-192.5 66,-192.5"/>
<text text-anchor="start" x="73" y="-203.9" font-family="Arial" font-size="14.00" fill="#000000">object_id    </text>
<text text-anchor="start" x="163.2216" y="-203.9" font-family="Arial" font-size="14.00" fill="#666666">[int(11)]</text>
<polygon fill="none" stroke="#000000" points="66,-162.5 66,-192.5 304,-192.5 304,-162.5 66,-162.5"/>
<text text-anchor="start" x="72.6017" y="-173.9" font-family="Arial" font-size="14.00" fill="#000000">taxonomy_name    </text>
<text text-anchor="start" x="210.2791" y="-173.9" font-family="Arial" font-size="14.00" fill="#666666">[varchar(255)]</text>
<polygon fill="none" stroke="#000000" points="66,-132.5 66,-162.5 304,-162.5 304,-132.5 66,-132.5"/>
<text text-anchor="start" x="73" y="-143.9" font-family="Arial" font-size="14.00" fill="#000000">taxonomy_description    </text>
<text text-anchor="start" x="243.3464" y="-143.9" font-family="Arial" font-size="14.00" fill="#666666">[text]</text>
<polygon fill="none" stroke="#000000" points="66,-102.5 66,-132.5 304,-132.5 304,-102.5 66,-102.5"/>
<text text-anchor="start" x="73" y="-113.9" font-family="Arial" font-size="14.00" fill="#000000">taxonomy_count    </text>
<text text-anchor="start" x="209.9074" y="-113.9" font-family="Arial" font-size="14.00" fill="#666666">[int(11)]</text>
<polygon fill="none" stroke="#000000" points="66,-72.5 66,-102.5 304,-102.5 304,-72.5 66,-72.5"/>
<text text-anchor="start" x="73" y="-83.9" font-family="Arial" font-size="14.00" fill="#000000">created_at    </text>
<text text-anchor="start" x="173.3422" y="-83.9" font-family="Arial" font-size="14.00" fill="#666666">[timestamp]</text>
<polygon fill="none" stroke="#000000" points="66,-42.5 66,-72.5 304,-72.5 304,-42.5 66,-42.5"/>
<text text-anchor="start" x="73" y="-53.9" font-family="Arial" font-size="14.00" fill="#000000">updated_at    </text>
<text text-anchor="start" x="177.2468" y="-53.9" font-family="Arial" font-size="14.00" fill="#666666">[timestamp]</text>
</g>
<!-- taxonomy_metas&#45;&gt;taxonomies -->
<g id="edge1" class="edge">
<title>taxonomy_metas:taxonomy_id&#45;&gt;taxonomies:id</title>
<path fill="none" stroke="#000000" d="M333.8331,-545.183C390.8744,-516.815 369.5266,-237.5 304,-237.5"/>
<polygon fill="#000000" stroke="#000000" points="333.7334,-545.2064 322.9679,-543.12 328.8667,-546.3532 324,-547.5 324,-547.5 324,-547.5 328.8667,-546.3532 325.0321,-551.88 333.7334,-545.2064 333.7334,-545.2064"/>
<text text-anchor="start" x="330.659" y="-557.5" font-family="Arial" font-size="10.00" fill="#000000">FOREIGN KEY (taxonomy_id) REFERENCES taxonomies (id)</text>
</g>
</g>
</svg>
