<?xml version="1.0" encoding="UTF-8" standalone="no"?>
<!DOCTYPE svg PUBLIC "-//W3C//DTD SVG 1.1//EN"
 "http://www.w3.org/Graphics/SVG/1.1/DTD/svg11.dtd">
<!-- Generated by graphviz version 2.40.1 (20161225.0304)
 -->
<!-- Title: taxonomies Pages: 1 -->
<svg width="619pt" height="682pt"
 viewBox="0.00 0.00 619.00 682.00" xmlns="http://www.w3.org/2000/svg" xmlns:xlink="http://www.w3.org/1999/xlink">
<g id="graph0" class="graph" transform="scale(1 1) rotate(0) translate(4 678)">
<title>taxonomies</title>
<polygon fill="#ffffff" stroke="transparent" points="-4,4 -4,-678 615,-678 615,4 -4,4"/>
<!-- taxonomies -->
<g id="node1" class="node">
<title>taxonomies</title>
<polygon fill="#efefef" stroke="transparent" points="312,-255.5 312,-290.5 545,-290.5 545,-255.5 312,-255.5"/>
<polygon fill="none" stroke="#000000" points="312,-255.5 312,-290.5 545,-290.5 545,-255.5 312,-255.5"/>
<text text-anchor="start" x="318.7062" y="-268.3" font-family="Arial Bold" font-size="18.00" fill="#000000">taxonomies</text>
<text text-anchor="start" x="410.7258" y="-268.3" font-family="Arial" font-size="14.00" fill="#000000">    </text>
<text text-anchor="start" x="444.9306" y="-268.3" font-family="Arial" font-size="14.00" fill="#666666">[BASE TABLE]</text>
<polygon fill="none" stroke="#000000" points="312,-225.5 312,-255.5 545,-255.5 545,-225.5 312,-225.5"/>
<text text-anchor="start" x="319" y="-236.9" font-family="Arial" font-size="14.00" fill="#000000">id </text>
<text text-anchor="start" x="333.7798" y="-236.9" font-family="Arial" font-size="14.00" fill="#666666">[bigint(20) unsigned]</text>
<polygon fill="none" stroke="#000000" points="312,-195.5 312,-225.5 545,-225.5 545,-195.5 312,-195.5"/>
<text text-anchor="start" x="319" y="-206.9" font-family="Arial" font-size="14.00" fill="#000000">object_id </text>
<text text-anchor="start" x="378.9074" y="-206.9" font-family="Arial" font-size="14.00" fill="#666666">[int(11)]</text>
<polygon fill="none" stroke="#000000" points="312,-165.5 312,-195.5 545,-195.5 545,-165.5 312,-165.5"/>
<text text-anchor="start" x="319" y="-176.9" font-family="Arial" font-size="14.00" fill="#000000">taxonomy_name </text>
<text text-anchor="start" x="426.3632" y="-176.9" font-family="Arial" font-size="14.00" fill="#666666">[varchar(255)]</text>
<polygon fill="none" stroke="#000000" points="312,-135.5 312,-165.5 545,-165.5 545,-135.5 312,-135.5"/>
<text text-anchor="start" x="319" y="-146.9" font-family="Arial" font-size="14.00" fill="#000000">taxonomy_description </text>
<text text-anchor="start" x="459.0322" y="-146.9" font-family="Arial" font-size="14.00" fill="#666666">[text]</text>
<polygon fill="none" stroke="#000000" points="312,-105.5 312,-135.5 545,-135.5 545,-105.5 312,-105.5"/>
<text text-anchor="start" x="319" y="-116.9" font-family="Arial" font-size="14.00" fill="#000000">taxonomy_count </text>
<text text-anchor="start" x="425.5932" y="-116.9" font-family="Arial" font-size="14.00" fill="#666666">[int(11)]</text>
<polygon fill="none" stroke="#000000" points="312,-75.5 312,-105.5 545,-105.5 545,-75.5 312,-75.5"/>
<text text-anchor="start" x="319" y="-86.9" font-family="Arial" font-size="14.00" fill="#000000">created_at </text>
<text text-anchor="start" x="389.028" y="-86.9" font-family="Arial" font-size="14.00" fill="#666666">[timestamp]</text>
<polygon fill="none" stroke="#000000" points="312,-45.5 312,-75.5 545,-75.5 545,-45.5 312,-45.5"/>
<text text-anchor="start" x="319" y="-56.9" font-family="Arial" font-size="14.00" fill="#000000">updated_at </text>
<text text-anchor="start" x="392.9326" y="-56.9" font-family="Arial" font-size="14.00" fill="#666666">[timestamp]</text>
<polygon fill="none" stroke="#000000" stroke-width="3" points="310,-44.5 310,-292.5 546,-292.5 546,-44.5 310,-44.5"/>
</g>
<!-- taxonomy_metas -->
<g id="node2" class="node">
<title>taxonomy_metas</title>
<polygon fill="#efefef" stroke="transparent" points="290,-595.5 290,-630.5 568,-630.5 568,-595.5 290,-595.5"/>
<polygon fill="none" stroke="#000000" points="290,-595.5 290,-630.5 568,-630.5 568,-595.5 290,-595.5"/>
<text text-anchor="start" x="296.6999" y="-608.3" font-family="Arial Bold" font-size="18.00" fill="#000000">taxonomy_metas</text>
<text text-anchor="start" x="433.7321" y="-608.3" font-family="Arial" font-size="14.00" fill="#000000">    </text>
<text text-anchor="start" x="467.9369" y="-608.3" font-family="Arial" font-size="14.00" fill="#666666">[BASE TABLE]</text>
<polygon fill="none" stroke="#000000" points="290,-565.5 290,-595.5 568,-595.5 568,-565.5 290,-565.5"/>
<text text-anchor="start" x="297" y="-576.9" font-family="Arial" font-size="14.00" fill="#000000">id    </text>
<text text-anchor="start" x="342.094" y="-576.9" font-family="Arial" font-size="14.00" fill="#666666">[bigint(20) unsigned]</text>
<polygon fill="none" stroke="#000000" points="290,-535.5 290,-565.5 568,-565.5 568,-535.5 290,-535.5"/>
<text text-anchor="start" x="297" y="-546.9" font-family="Arial" font-size="14.00" fill="#000000">taxonomy_id    </text>
<text text-anchor="start" x="410.5582" y="-546.9" font-family="Arial" font-size="14.00" fill="#666666">[bigint(20) unsigned]</text>
<polygon fill="none" stroke="#000000" points="290,-505.5 290,-535.5 568,-535.5 568,-505.5 290,-505.5"/>
<text text-anchor="start" x="297" y="-516.9" font-family="Arial" font-size="14.00" fill="#000000">taxonomy_meta_key    </text>
<text text-anchor="start" x="460.3506" y="-516.9" font-family="Arial" font-size="14.00" fill="#666666">[varchar(255)]</text>
<polygon fill="none" stroke="#000000" points="290,-475.5 290,-505.5 568,-505.5 568,-475.5 290,-475.5"/>
<text text-anchor="start" x="297" y="-486.9" font-family="Arial" font-size="14.00" fill="#000000">taxonomy_meta_value    </text>
<text text-anchor="start" x="472.0224" y="-486.9" font-family="Arial" font-size="14.00" fill="#666666">[text]</text>
<polygon fill="none" stroke="#000000" points="290,-445.5 290,-475.5 568,-475.5 568,-445.5 290,-445.5"/>
<text text-anchor="start" x="297" y="-456.9" font-family="Arial" font-size="14.00" fill="#000000">created_at    </text>
<text text-anchor="start" x="397.3422" y="-456.9" font-family="Arial" font-size="14.00" fill="#666666">[timestamp]</text>
<polygon fill="none" stroke="#000000" points="290,-415.5 290,-445.5 568,-445.5 568,-415.5 290,-415.5"/>
<text text-anchor="start" x="297" y="-426.9" font-family="Arial" font-size="14.00" fill="#000000">updated_at    </text>
<text text-anchor="start" x="401.2468" y="-426.9" font-family="Arial" font-size="14.00" fill="#666666">[timestamp]</text>
</g>
<!-- taxonomy_metas&#45;&gt;taxonomies -->
<g id="edge1" class="edge">
<title>taxonomy_metas:taxonomy_id&#45;&gt;taxonomies:id</title>
<path fill="none" stroke="#000000" d="M280.0031,-549.802C213.6001,-540.0212 240.5869,-429.879 290,-373 365.0637,-286.5947 469.9363,-423.4053 545,-337 573.1276,-304.6226 587.8889,-240.5 545,-240.5"/>
<polygon fill="#000000" stroke="#000000" points="280.0243,-549.8033 289.6865,-554.9891 285.0121,-550.1517 290,-550.5 290,-550.5 290,-550.5 285.0121,-550.1517 290.3135,-546.0109 280.0243,-549.8033 280.0243,-549.8033"/>
<text text-anchor="start" x="6.659" y="-560.5" font-family="Arial" font-size="10.00" fill="#000000">FOREIGN KEY (taxonomy_id) REFERENCES taxonomies (id)</text>
</g>
</g>
</svg>
