<?xml version="1.0" encoding="UTF-8" standalone="no"?>
<!DOCTYPE svg PUBLIC "-//W3C//DTD SVG 1.1//EN"
 "http://www.w3.org/Graphics/SVG/1.1/DTD/svg11.dtd">
<!-- Generated by graphviz version 2.40.1 (20161225.0304)
 -->
<!-- Title: user_survey_action_plans Pages: 1 -->
<svg width="795pt" height="802pt"
 viewBox="0.00 0.00 794.50 802.00" xmlns="http://www.w3.org/2000/svg" xmlns:xlink="http://www.w3.org/1999/xlink">
<g id="graph0" class="graph" transform="scale(1 1) rotate(0) translate(4 798)">
<title>user_survey_action_plans</title>
<polygon fill="#ffffff" stroke="transparent" points="-4,4 -4,-798 790.5,-798 790.5,4 -4,4"/>
<!-- user_survey_action_plans -->
<g id="node1" class="node">
<title>user_survey_action_plans</title>
<polygon fill="#efefef" stroke="transparent" points="386,-712.5 386,-747.5 736,-747.5 736,-712.5 386,-712.5"/>
<polygon fill="none" stroke="#000000" points="386,-712.5 386,-747.5 736,-747.5 736,-712.5 386,-712.5"/>
<text text-anchor="start" x="392.6882" y="-725.3" font-family="Arial Bold" font-size="18.00" fill="#000000">user_survey_action_plans</text>
<text text-anchor="start" x="601.7438" y="-725.3" font-family="Arial" font-size="14.00" fill="#000000">    </text>
<text text-anchor="start" x="635.9486" y="-725.3" font-family="Arial" font-size="14.00" fill="#666666">[BASE TABLE]</text>
<polygon fill="none" stroke="#000000" points="386,-682.5 386,-712.5 736,-712.5 736,-682.5 386,-682.5"/>
<text text-anchor="start" x="393" y="-693.9" font-family="Arial" font-size="14.00" fill="#000000">id </text>
<text text-anchor="start" x="407.7798" y="-693.9" font-family="Arial" font-size="14.00" fill="#666666">[bigint(20) unsigned]</text>
<polygon fill="none" stroke="#000000" points="386,-652.5 386,-682.5 736,-682.5 736,-652.5 386,-652.5"/>
<text text-anchor="start" x="393" y="-663.9" font-family="Arial" font-size="14.00" fill="#000000">user_survey_domain_id </text>
<text text-anchor="start" x="545.4768" y="-663.9" font-family="Arial" font-size="14.00" fill="#666666">[bigint(20) unsigned]</text>
<polygon fill="none" stroke="#000000" points="386,-622.5 386,-652.5 736,-652.5 736,-622.5 386,-622.5"/>
<text text-anchor="start" x="393" y="-633.9" font-family="Arial" font-size="14.00" fill="#000000">element </text>
<text text-anchor="start" x="446.6788" y="-633.9" font-family="Arial" font-size="14.00" fill="#666666">[varchar(255)]</text>
<polygon fill="none" stroke="#000000" points="386,-592.5 386,-622.5 736,-622.5 736,-592.5 386,-592.5"/>
<text text-anchor="start" x="393" y="-603.9" font-family="Arial" font-size="14.00" fill="#000000">action </text>
<text text-anchor="start" x="434.2356" y="-603.9" font-family="Arial" font-size="14.00" fill="#666666">[text]</text>
<polygon fill="none" stroke="#000000" points="386,-562.5 386,-592.5 736,-592.5 736,-562.5 386,-562.5"/>
<text text-anchor="start" x="393" y="-573.9" font-family="Arial" font-size="14.00" fill="#000000">created_at </text>
<text text-anchor="start" x="463.028" y="-573.9" font-family="Arial" font-size="14.00" fill="#666666">[timestamp]</text>
<polygon fill="none" stroke="#000000" points="386,-532.5 386,-562.5 736,-562.5 736,-532.5 386,-532.5"/>
<text text-anchor="start" x="393" y="-543.9" font-family="Arial" font-size="14.00" fill="#000000">updated_at </text>
<text text-anchor="start" x="466.9326" y="-543.9" font-family="Arial" font-size="14.00" fill="#666666">[timestamp]</text>
<polygon fill="none" stroke="#000000" stroke-width="3" points="384.5,-531.5 384.5,-749.5 737.5,-749.5 737.5,-531.5 384.5,-531.5"/>
</g>
<!-- user_survey_domains -->
<g id="node2" class="node">
<title>user_survey_domains</title>
<polygon fill="#efefef" stroke="transparent" points="377,-372.5 377,-407.5 744,-407.5 744,-372.5 377,-372.5"/>
<polygon fill="none" stroke="#000000" points="377,-372.5 377,-407.5 744,-407.5 744,-372.5 377,-372.5"/>
<text text-anchor="start" x="408.6996" y="-385.3" font-family="Arial Bold" font-size="18.00" fill="#000000">user_survey_domains</text>
<text text-anchor="start" x="584.7324" y="-385.3" font-family="Arial" font-size="14.00" fill="#000000">    </text>
<text text-anchor="start" x="618.9372" y="-385.3" font-family="Arial" font-size="14.00" fill="#666666">[BASE TABLE]</text>
<polygon fill="none" stroke="#000000" points="377,-342.5 377,-372.5 744,-372.5 744,-342.5 377,-342.5"/>
<text text-anchor="start" x="384" y="-353.9" font-family="Arial" font-size="14.00" fill="#000000">id    </text>
<text text-anchor="start" x="429.094" y="-353.9" font-family="Arial" font-size="14.00" fill="#666666">[bigint(20) unsigned]</text>
<polygon fill="none" stroke="#000000" points="377,-312.5 377,-342.5 744,-342.5 744,-312.5 377,-312.5"/>
<text text-anchor="start" x="384" y="-323.9" font-family="Arial" font-size="14.00" fill="#000000">user_survey_id    </text>
<text text-anchor="start" x="513.1108" y="-323.9" font-family="Arial" font-size="14.00" fill="#666666">[bigint(20) unsigned]</text>
<polygon fill="none" stroke="#000000" points="377,-282.5 377,-312.5 744,-312.5 744,-282.5 377,-282.5"/>
<text text-anchor="start" x="383.9698" y="-293.9" font-family="Arial" font-size="14.00" fill="#000000">status    </text>
<text text-anchor="start" x="455.521" y="-293.9" font-family="Arial" font-size="14.00" fill="#666666">[enum(&#39;In Progress&#39;,&#39;Abandoned&#39;,&#39;Complete&#39;)]</text>
<polygon fill="none" stroke="#000000" points="377,-252.5 377,-282.5 744,-282.5 744,-252.5 377,-252.5"/>
<text text-anchor="start" x="384" y="-263.9" font-family="Arial" font-size="14.00" fill="#000000">domain    </text>
<text text-anchor="start" x="464.1024" y="-263.9" font-family="Arial" font-size="14.00" fill="#666666">[varchar(255)]</text>
<polygon fill="none" stroke="#000000" points="377,-222.5 377,-252.5 744,-252.5 744,-222.5 377,-222.5"/>
<text text-anchor="start" x="384" y="-233.9" font-family="Arial" font-size="14.00" fill="#000000">element_count    </text>
<text text-anchor="start" x="510.014" y="-233.9" font-family="Arial" font-size="14.00" fill="#666666">[int(11)]</text>
<polygon fill="none" stroke="#000000" points="377,-192.5 377,-222.5 744,-222.5 744,-192.5 377,-192.5"/>
<text text-anchor="start" x="384" y="-203.9" font-family="Arial" font-size="14.00" fill="#000000">completed_element_count    </text>
<text text-anchor="start" x="582.3674" y="-203.9" font-family="Arial" font-size="14.00" fill="#666666">[int(11)]</text>
<polygon fill="none" stroke="#000000" points="377,-162.5 377,-192.5 744,-192.5 744,-162.5 377,-162.5"/>
<text text-anchor="start" x="384" y="-173.9" font-family="Arial" font-size="14.00" fill="#000000">question_count    </text>
<text text-anchor="start" x="513.136" y="-173.9" font-family="Arial" font-size="14.00" fill="#666666">[int(11)]</text>
<polygon fill="none" stroke="#000000" points="377,-132.5 377,-162.5 744,-162.5 744,-132.5 377,-132.5"/>
<text text-anchor="start" x="384" y="-143.9" font-family="Arial" font-size="14.00" fill="#000000">completed_question_count    </text>
<text text-anchor="start" x="585.4894" y="-143.9" font-family="Arial" font-size="14.00" fill="#666666">[int(11)]</text>
<polygon fill="none" stroke="#000000" points="377,-102.5 377,-132.5 744,-132.5 744,-102.5 377,-102.5"/>
<text text-anchor="start" x="384" y="-113.9" font-family="Arial" font-size="14.00" fill="#000000">next_question_id    </text>
<text text-anchor="start" x="524.0252" y="-113.9" font-family="Arial" font-size="14.00" fill="#666666">[int(11)]</text>
<polygon fill="none" stroke="#000000" points="377,-72.5 377,-102.5 744,-102.5 744,-72.5 377,-72.5"/>
<text text-anchor="start" x="384" y="-83.9" font-family="Arial" font-size="14.00" fill="#000000">created_at    </text>
<text text-anchor="start" x="484.3422" y="-83.9" font-family="Arial" font-size="14.00" fill="#666666">[timestamp]</text>
<polygon fill="none" stroke="#000000" points="377,-42.5 377,-72.5 744,-72.5 744,-42.5 377,-42.5"/>
<text text-anchor="start" x="384" y="-53.9" font-family="Arial" font-size="14.00" fill="#000000">updated_at    </text>
<text text-anchor="start" x="488.2468" y="-53.9" font-family="Arial" font-size="14.00" fill="#666666">[timestamp]</text>
</g>
<!-- user_survey_action_plans&#45;&gt;user_survey_domains -->
<g id="edge1" class="edge">
<title>user_survey_action_plans:user_survey_domain_id&#45;&gt;user_survey_domains:id</title>
<path fill="none" stroke="#000000" d="M375.8272,-666.784C308.2058,-656.7527 334.6043,-543.8232 386,-487 439.635,-427.701 690.365,-510.299 744,-451 771.8755,-420.1808 785.5556,-357.5 744,-357.5"/>
<polygon fill="#000000" stroke="#000000" points="376.0247,-666.7978 385.684,-671.9889 381.0123,-667.1489 386,-667.5 386,-667.5 386,-667.5 381.0123,-667.1489 386.316,-663.0111 376.0247,-666.7978 376.0247,-666.7978"/>
<text text-anchor="start" x="6.596" y="-677.5" font-family="Arial" font-size="10.00" fill="#000000">FOREIGN KEY (user_survey_domain_id) REFERENCES user_survey_domains (id)</text>
</g>
</g>
</svg>
