<?xml version="1.0" encoding="UTF-8" standalone="no"?>
<!DOCTYPE svg PUBLIC "-//W3C//DTD SVG 1.1//EN"
 "http://www.w3.org/Graphics/SVG/1.1/DTD/svg11.dtd">
<!-- Generated by graphviz version 2.40.1 (20161225.0304)
 -->
<!-- Title: user_survey_domains Pages: 1 -->
<svg width="1339pt" height="1139pt"
 viewBox="0.00 0.00 1339.00 1139.00" xmlns="http://www.w3.org/2000/svg" xmlns:xlink="http://www.w3.org/1999/xlink">
<g id="graph0" class="graph" transform="scale(1 1) rotate(0) translate(4 1135)">
<title>user_survey_domains</title>
<polygon fill="#ffffff" stroke="transparent" points="-4,4 -4,-1135 1335,-1135 1335,4 -4,4"/>
<!-- user_survey_domains -->
<g id="node1" class="node">
<title>user_survey_domains</title>
<polygon fill="#efefef" stroke="transparent" points="497,-712.5 497,-747.5 833,-747.5 833,-712.5 497,-712.5"/>
<polygon fill="none" stroke="#000000" points="497,-712.5 497,-747.5 833,-747.5 833,-712.5 497,-712.5"/>
<text text-anchor="start" x="513.1996" y="-725.3" font-family="Arial Bold" font-size="18.00" fill="#000000">user_survey_domains</text>
<text text-anchor="start" x="689.2324" y="-725.3" font-family="Arial" font-size="14.00" fill="#000000">    </text>
<text text-anchor="start" x="723.4372" y="-725.3" font-family="Arial" font-size="14.00" fill="#666666">[BASE TABLE]</text>
<polygon fill="none" stroke="#000000" points="497,-682.5 497,-712.5 833,-712.5 833,-682.5 497,-682.5"/>
<text text-anchor="start" x="504" y="-693.9" font-family="Arial" font-size="14.00" fill="#000000">id </text>
<text text-anchor="start" x="518.7798" y="-693.9" font-family="Arial" font-size="14.00" fill="#666666">[bigint(20) unsigned]</text>
<polygon fill="none" stroke="#000000" points="497,-652.5 497,-682.5 833,-682.5 833,-652.5 497,-652.5"/>
<text text-anchor="start" x="504" y="-663.9" font-family="Arial" font-size="14.00" fill="#000000">user_survey_id </text>
<text text-anchor="start" x="602.7966" y="-663.9" font-family="Arial" font-size="14.00" fill="#666666">[bigint(20) unsigned]</text>
<polygon fill="none" stroke="#000000" points="497,-622.5 497,-652.5 833,-652.5 833,-622.5 497,-622.5"/>
<text text-anchor="start" x="503.6269" y="-633.9" font-family="Arial" font-size="14.00" fill="#000000">status </text>
<text text-anchor="start" x="544.8639" y="-633.9" font-family="Arial" font-size="14.00" fill="#666666">[enum(&#39;In Progress&#39;,&#39;Abandoned&#39;,&#39;Complete&#39;)]</text>
<polygon fill="none" stroke="#000000" points="497,-592.5 497,-622.5 833,-622.5 833,-592.5 497,-592.5"/>
<text text-anchor="start" x="504" y="-603.9" font-family="Arial" font-size="14.00" fill="#000000">domain </text>
<text text-anchor="start" x="553.7882" y="-603.9" font-family="Arial" font-size="14.00" fill="#666666">[varchar(255)]</text>
<polygon fill="none" stroke="#000000" points="497,-562.5 497,-592.5 833,-592.5 833,-562.5 497,-562.5"/>
<text text-anchor="start" x="504" y="-573.9" font-family="Arial" font-size="14.00" fill="#000000">element_count </text>
<text text-anchor="start" x="599.6998" y="-573.9" font-family="Arial" font-size="14.00" fill="#666666">[int(11)]</text>
<polygon fill="none" stroke="#000000" points="497,-532.5 497,-562.5 833,-562.5 833,-532.5 497,-532.5"/>
<text text-anchor="start" x="504" y="-543.9" font-family="Arial" font-size="14.00" fill="#000000">completed_element_count </text>
<text text-anchor="start" x="672.0532" y="-543.9" font-family="Arial" font-size="14.00" fill="#666666">[int(11)]</text>
<polygon fill="none" stroke="#000000" points="497,-502.5 497,-532.5 833,-532.5 833,-502.5 497,-502.5"/>
<text text-anchor="start" x="504" y="-513.9" font-family="Arial" font-size="14.00" fill="#000000">question_count </text>
<text text-anchor="start" x="602.8218" y="-513.9" font-family="Arial" font-size="14.00" fill="#666666">[int(11)]</text>
<polygon fill="none" stroke="#000000" points="497,-472.5 497,-502.5 833,-502.5 833,-472.5 497,-472.5"/>
<text text-anchor="start" x="504" y="-483.9" font-family="Arial" font-size="14.00" fill="#000000">completed_question_count </text>
<text text-anchor="start" x="675.1752" y="-483.9" font-family="Arial" font-size="14.00" fill="#666666">[int(11)]</text>
<polygon fill="none" stroke="#000000" points="497,-442.5 497,-472.5 833,-472.5 833,-442.5 497,-442.5"/>
<text text-anchor="start" x="504" y="-453.9" font-family="Arial" font-size="14.00" fill="#000000">next_question_id </text>
<text text-anchor="start" x="613.711" y="-453.9" font-family="Arial" font-size="14.00" fill="#666666">[int(11)]</text>
<polygon fill="none" stroke="#000000" points="497,-412.5 497,-442.5 833,-442.5 833,-412.5 497,-412.5"/>
<text text-anchor="start" x="504" y="-423.9" font-family="Arial" font-size="14.00" fill="#000000">created_at </text>
<text text-anchor="start" x="574.028" y="-423.9" font-family="Arial" font-size="14.00" fill="#666666">[timestamp]</text>
<polygon fill="none" stroke="#000000" points="497,-382.5 497,-412.5 833,-412.5 833,-382.5 497,-382.5"/>
<text text-anchor="start" x="504" y="-393.9" font-family="Arial" font-size="14.00" fill="#000000">updated_at </text>
<text text-anchor="start" x="577.9326" y="-393.9" font-family="Arial" font-size="14.00" fill="#666666">[timestamp]</text>
<polygon fill="none" stroke="#000000" stroke-width="3" points="495.5,-381.5 495.5,-749.5 834.5,-749.5 834.5,-381.5 495.5,-381.5"/>
</g>
<!-- user_surveys -->
<g id="node5" class="node">
<title>user_surveys</title>
<polygon fill="#efefef" stroke="transparent" points="481,-222.5 481,-257.5 848,-257.5 848,-222.5 481,-222.5"/>
<polygon fill="none" stroke="#000000" points="481,-222.5 481,-257.5 848,-257.5 848,-222.5 481,-222.5"/>
<text text-anchor="start" x="547.2083" y="-235.3" font-family="Arial Bold" font-size="18.00" fill="#000000">user_surveys</text>
<text text-anchor="start" x="654.2237" y="-235.3" font-family="Arial" font-size="14.00" fill="#000000">    </text>
<text text-anchor="start" x="688.4285" y="-235.3" font-family="Arial" font-size="14.00" fill="#666666">[BASE TABLE]</text>
<polygon fill="none" stroke="#000000" points="481,-192.5 481,-222.5 848,-222.5 848,-192.5 481,-192.5"/>
<text text-anchor="start" x="488" y="-203.9" font-family="Arial" font-size="14.00" fill="#000000">id    </text>
<text text-anchor="start" x="533.094" y="-203.9" font-family="Arial" font-size="14.00" fill="#666666">[bigint(20) unsigned]</text>
<polygon fill="none" stroke="#000000" points="481,-162.5 481,-192.5 848,-192.5 848,-162.5 481,-162.5"/>
<text text-anchor="start" x="488" y="-173.9" font-family="Arial" font-size="14.00" fill="#000000">user_id    </text>
<text text-anchor="start" x="568.1024" y="-173.9" font-family="Arial" font-size="14.00" fill="#666666">[bigint(20) unsigned]</text>
<polygon fill="none" stroke="#000000" points="481,-132.5 481,-162.5 848,-162.5 848,-132.5 481,-132.5"/>
<text text-anchor="start" x="488" y="-143.9" font-family="Arial" font-size="14.00" fill="#000000">survey_id    </text>
<text text-anchor="start" x="582.1024" y="-143.9" font-family="Arial" font-size="14.00" fill="#666666">[bigint(20) unsigned]</text>
<polygon fill="none" stroke="#000000" points="481,-102.5 481,-132.5 848,-132.5 848,-102.5 481,-102.5"/>
<text text-anchor="start" x="487.9698" y="-113.9" font-family="Arial" font-size="14.00" fill="#000000">status    </text>
<text text-anchor="start" x="559.521" y="-113.9" font-family="Arial" font-size="14.00" fill="#666666">[enum(&#39;In Progress&#39;,&#39;Abandoned&#39;,&#39;Complete&#39;)]</text>
<polygon fill="none" stroke="#000000" points="481,-72.5 481,-102.5 848,-102.5 848,-72.5 481,-72.5"/>
<text text-anchor="start" x="488" y="-83.9" font-family="Arial" font-size="14.00" fill="#000000">created_at    </text>
<text text-anchor="start" x="588.3422" y="-83.9" font-family="Arial" font-size="14.00" fill="#666666">[timestamp]</text>
<polygon fill="none" stroke="#000000" points="481,-42.5 481,-72.5 848,-72.5 848,-42.5 481,-42.5"/>
<text text-anchor="start" x="488" y="-53.9" font-family="Arial" font-size="14.00" fill="#000000">updated_at    </text>
<text text-anchor="start" x="592.2468" y="-53.9" font-family="Arial" font-size="14.00" fill="#666666">[timestamp]</text>
</g>
<!-- user_survey_domains&#45;&gt;user_surveys -->
<g id="edge4" class="edge">
<title>user_survey_domains:user_survey_id&#45;&gt;user_surveys:id</title>
<path fill="none" stroke="#000000" d="M486.9919,-667.1393C352.4103,-657.1806 400.8819,-443.4806 497,-337 549.5392,-278.7966 795.4608,-359.2034 848,-301 875.8449,-270.1532 889.5556,-207.5 848,-207.5"/>
<polygon fill="#000000" stroke="#000000" points="487.0065,-667.1398 496.8379,-671.9971 492.0032,-667.3199 497,-667.5 497,-667.5 497,-667.5 492.0032,-667.3199 497.1621,-663.0029 487.0065,-667.1398 487.0065,-667.1398"/>
<text text-anchor="start" x="193.939" y="-677.5" font-family="Arial" font-size="10.00" fill="#000000">FOREIGN KEY (user_survey_id) REFERENCES user_surveys (id)</text>
</g>
<!-- user_answers -->
<g id="node2" class="node">
<title>user_answers</title>
<polygon fill="#efefef" stroke="transparent" points="63,-1052.5 63,-1087.5 386,-1087.5 386,-1052.5 63,-1052.5"/>
<polygon fill="none" stroke="#000000" points="63,-1052.5 63,-1087.5 386,-1087.5 386,-1052.5 63,-1052.5"/>
<text text-anchor="start" x="104.7081" y="-1065.3" font-family="Arial Bold" font-size="18.00" fill="#000000">user_answers</text>
<text text-anchor="start" x="216.7239" y="-1065.3" font-family="Arial" font-size="14.00" fill="#000000">    </text>
<text text-anchor="start" x="250.9287" y="-1065.3" font-family="Arial" font-size="14.00" fill="#666666">[BASE TABLE]</text>
<polygon fill="none" stroke="#000000" points="63,-1022.5 63,-1052.5 386,-1052.5 386,-1022.5 63,-1022.5"/>
<text text-anchor="start" x="70" y="-1033.9" font-family="Arial" font-size="14.00" fill="#000000">id    </text>
<text text-anchor="start" x="115.094" y="-1033.9" font-family="Arial" font-size="14.00" fill="#666666">[bigint(20) unsigned]</text>
<polygon fill="none" stroke="#000000" points="63,-992.5 63,-1022.5 386,-1022.5 386,-992.5 63,-992.5"/>
<text text-anchor="start" x="70" y="-1003.9" font-family="Arial" font-size="14.00" fill="#000000">question_id    </text>
<text text-anchor="start" x="175.7868" y="-1003.9" font-family="Arial" font-size="14.00" fill="#666666">[bigint(20) unsigned]</text>
<polygon fill="none" stroke="#000000" points="63,-962.5 63,-992.5 386,-992.5 386,-962.5 63,-962.5"/>
<text text-anchor="start" x="69.6985" y="-973.9" font-family="Arial" font-size="14.00" fill="#000000">user_survey_domain_id    </text>
<text text-anchor="start" x="252.4895" y="-973.9" font-family="Arial" font-size="14.00" fill="#666666">[bigint(20) unsigned]</text>
<polygon fill="none" stroke="#000000" points="63,-932.5 63,-962.5 386,-962.5 386,-932.5 63,-932.5"/>
<text text-anchor="start" x="70" y="-943.9" font-family="Arial" font-size="14.00" fill="#000000">answer    </text>
<text text-anchor="start" x="149.3198" y="-943.9" font-family="Arial" font-size="14.00" fill="#666666">[enum(&#39;0&#39;,&#39;1&#39;,&#39;2&#39;)]</text>
<polygon fill="none" stroke="#000000" points="63,-902.5 63,-932.5 386,-932.5 386,-902.5 63,-902.5"/>
<text text-anchor="start" x="70" y="-913.9" font-family="Arial" font-size="14.00" fill="#000000">answer_text    </text>
<text text-anchor="start" x="179.6662" y="-913.9" font-family="Arial" font-size="14.00" fill="#666666">[text]</text>
<polygon fill="none" stroke="#000000" points="63,-872.5 63,-902.5 386,-902.5 386,-872.5 63,-872.5"/>
<text text-anchor="start" x="70" y="-883.9" font-family="Arial" font-size="14.00" fill="#000000">created_at    </text>
<text text-anchor="start" x="170.3422" y="-883.9" font-family="Arial" font-size="14.00" fill="#666666">[timestamp]</text>
</g>
<!-- user_answers&#45;&gt;user_survey_domains -->
<g id="edge1" class="edge">
<title>user_answers:user_survey_domain_id&#45;&gt;user_survey_domains:id</title>
<path fill="none" stroke="#000000" d="M396.0828,-976.8231C451.1431,-968.8054 413.6423,-891.1736 438,-830 461.8467,-770.1098 432.5368,-697.5 497,-697.5"/>
<polygon fill="#000000" stroke="#000000" points="395.9775,-976.83 385.6985,-973.0101 390.9888,-977.165 386,-977.5 386,-977.5 386,-977.5 390.9888,-977.165 386.3015,-981.9899 395.9775,-976.83 395.9775,-976.83"/>
<text text-anchor="start" x="6.596" y="-987.5" font-family="Arial" font-size="10.00" fill="#000000">FOREIGN KEY (user_survey_domain_id) REFERENCES user_survey_domains (id)</text>
</g>
<!-- user_survey_action_plans -->
<g id="node3" class="node">
<title>user_survey_action_plans</title>
<polygon fill="#efefef" stroke="transparent" points="490,-1052.5 490,-1087.5 840,-1087.5 840,-1052.5 490,-1052.5"/>
<polygon fill="none" stroke="#000000" points="490,-1052.5 490,-1087.5 840,-1087.5 840,-1052.5 490,-1052.5"/>
<text text-anchor="start" x="496.6882" y="-1065.3" font-family="Arial Bold" font-size="18.00" fill="#000000">user_survey_action_plans</text>
<text text-anchor="start" x="705.7438" y="-1065.3" font-family="Arial" font-size="14.00" fill="#000000">    </text>
<text text-anchor="start" x="739.9486" y="-1065.3" font-family="Arial" font-size="14.00" fill="#666666">[BASE TABLE]</text>
<polygon fill="none" stroke="#000000" points="490,-1022.5 490,-1052.5 840,-1052.5 840,-1022.5 490,-1022.5"/>
<text text-anchor="start" x="497" y="-1033.9" font-family="Arial" font-size="14.00" fill="#000000">id    </text>
<text text-anchor="start" x="542.094" y="-1033.9" font-family="Arial" font-size="14.00" fill="#666666">[bigint(20) unsigned]</text>
<polygon fill="none" stroke="#000000" points="490,-992.5 490,-1022.5 840,-1022.5 840,-992.5 490,-992.5"/>
<text text-anchor="start" x="497" y="-1003.9" font-family="Arial" font-size="14.00" fill="#000000">user_survey_domain_id    </text>
<text text-anchor="start" x="679.791" y="-1003.9" font-family="Arial" font-size="14.00" fill="#666666">[bigint(20) unsigned]</text>
<polygon fill="none" stroke="#000000" points="490,-962.5 490,-992.5 840,-992.5 840,-962.5 490,-962.5"/>
<text text-anchor="start" x="497" y="-973.9" font-family="Arial" font-size="14.00" fill="#000000">element    </text>
<text text-anchor="start" x="580.993" y="-973.9" font-family="Arial" font-size="14.00" fill="#666666">[varchar(255)]</text>
<polygon fill="none" stroke="#000000" points="490,-932.5 490,-962.5 840,-962.5 840,-932.5 490,-932.5"/>
<text text-anchor="start" x="497" y="-943.9" font-family="Arial" font-size="14.00" fill="#000000">action    </text>
<text text-anchor="start" x="568.5498" y="-943.9" font-family="Arial" font-size="14.00" fill="#666666">[text]</text>
<polygon fill="none" stroke="#000000" points="490,-902.5 490,-932.5 840,-932.5 840,-902.5 490,-902.5"/>
<text text-anchor="start" x="497" y="-913.9" font-family="Arial" font-size="14.00" fill="#000000">created_at    </text>
<text text-anchor="start" x="597.3422" y="-913.9" font-family="Arial" font-size="14.00" fill="#666666">[timestamp]</text>
<polygon fill="none" stroke="#000000" points="490,-872.5 490,-902.5 840,-902.5 840,-872.5 490,-872.5"/>
<text text-anchor="start" x="497" y="-883.9" font-family="Arial" font-size="14.00" fill="#000000">updated_at    </text>
<text text-anchor="start" x="601.2468" y="-883.9" font-family="Arial" font-size="14.00" fill="#666666">[timestamp]</text>
</g>
<!-- user_survey_action_plans&#45;&gt;user_survey_domains -->
<g id="edge2" class="edge">
<title>user_survey_action_plans:user_survey_domain_id&#45;&gt;user_survey_domains:id</title>
<path fill="none" stroke="#000000" d="M849.9121,-1005.183C908.0359,-976.815 898.4073,-697.5 833,-697.5"/>
<polygon fill="#000000" stroke="#000000" points="849.7375,-1005.2237 838.9757,-1003.1181 844.8687,-1006.3618 840,-1007.5 840,-1007.5 840,-1007.5 844.8687,-1006.3618 841.0243,-1011.8819 849.7375,-1005.2237 849.7375,-1005.2237"/>
<text text-anchor="start" x="846.596" y="-1017.5" font-family="Arial" font-size="10.00" fill="#000000">FOREIGN KEY (user_survey_domain_id) REFERENCES user_survey_domains (id)</text>
</g>
<!-- user_survey_reflections -->
<g id="node4" class="node">
<title>user_survey_reflections</title>
<polygon fill="#efefef" stroke="transparent" points="945,-1037.5 945,-1072.5 1276,-1072.5 1276,-1037.5 945,-1037.5"/>
<polygon fill="none" stroke="#000000" points="945,-1037.5 945,-1072.5 1276,-1072.5 1276,-1037.5 945,-1037.5"/>
<text text-anchor="start" x="951.7003" y="-1050.3" font-family="Arial Bold" font-size="18.00" fill="#000000">user_survey_reflections</text>
<text text-anchor="start" x="1141.7317" y="-1050.3" font-family="Arial" font-size="14.00" fill="#000000">    </text>
<text text-anchor="start" x="1175.9365" y="-1050.3" font-family="Arial" font-size="14.00" fill="#666666">[BASE TABLE]</text>
<polygon fill="none" stroke="#000000" points="945,-1007.5 945,-1037.5 1276,-1037.5 1276,-1007.5 945,-1007.5"/>
<text text-anchor="start" x="952" y="-1018.9" font-family="Arial" font-size="14.00" fill="#000000">id    </text>
<text text-anchor="start" x="997.094" y="-1018.9" font-family="Arial" font-size="14.00" fill="#666666">[bigint(20) unsigned]</text>
<polygon fill="none" stroke="#000000" points="945,-977.5 945,-1007.5 1276,-1007.5 1276,-977.5 945,-977.5"/>
<text text-anchor="start" x="952" y="-988.9" font-family="Arial" font-size="14.00" fill="#000000">user_survey_domain_id    </text>
<text text-anchor="start" x="1134.791" y="-988.9" font-family="Arial" font-size="14.00" fill="#666666">[bigint(20) unsigned]</text>
<polygon fill="none" stroke="#000000" points="945,-947.5 945,-977.5 1276,-977.5 1276,-947.5 945,-947.5"/>
<text text-anchor="start" x="952" y="-958.9" font-family="Arial" font-size="14.00" fill="#000000">reflection    </text>
<text text-anchor="start" x="1042.9902" y="-958.9" font-family="Arial" font-size="14.00" fill="#666666">[text]</text>
<polygon fill="none" stroke="#000000" points="945,-917.5 945,-947.5 1276,-947.5 1276,-917.5 945,-917.5"/>
<text text-anchor="start" x="952" y="-928.9" font-family="Arial" font-size="14.00" fill="#000000">created_at    </text>
<text text-anchor="start" x="1052.3422" y="-928.9" font-family="Arial" font-size="14.00" fill="#666666">[timestamp]</text>
<polygon fill="none" stroke="#000000" points="945,-887.5 945,-917.5 1276,-917.5 1276,-887.5 945,-887.5"/>
<text text-anchor="start" x="952" y="-898.9" font-family="Arial" font-size="14.00" fill="#000000">updated_at    </text>
<text text-anchor="start" x="1056.2468" y="-898.9" font-family="Arial" font-size="14.00" fill="#666666">[timestamp]</text>
</g>
<!-- user_survey_reflections&#45;&gt;user_survey_domains -->
<g id="edge3" class="edge">
<title>user_survey_reflections:user_survey_domain_id&#45;&gt;user_survey_domains:id</title>
<path fill="none" stroke="#000000" d="M934.751,-991.8579C873.7541,-983.6045 917.9338,-897.4429 892,-830 868.8635,-769.8318 897.4632,-697.5 833,-697.5"/>
<polygon fill="#000000" stroke="#000000" points="935.0196,-991.8747 944.7186,-996.9912 940.0098,-992.1873 945,-992.5 945,-992.5 945,-992.5 940.0098,-992.1873 945.2814,-988.0088 935.0196,-991.8747 935.0196,-991.8747"/>
<text text-anchor="start" x="951.596" y="-976.5" font-family="Arial" font-size="10.00" fill="#000000">FOREIGN KEY (user_survey_domain_id) REFERENCES user_survey_domains (id)</text>
</g>
</g>
</svg>
