<?xml version="1.0" encoding="UTF-8" standalone="no"?>
<!DOCTYPE svg PUBLIC "-//W3C//DTD SVG 1.1//EN"
 "http://www.w3.org/Graphics/SVG/1.1/DTD/svg11.dtd">
<!-- Generated by graphviz version 2.40.1 (20161225.0304)
 -->
<!-- Title: user_types Pages: 1 -->
<svg width="581pt" height="862pt"
 viewBox="0.00 0.00 580.50 862.00" xmlns="http://www.w3.org/2000/svg" xmlns:xlink="http://www.w3.org/1999/xlink">
<g id="graph0" class="graph" transform="scale(1 1) rotate(0) translate(4 858)">
<title>user_types</title>
<polygon fill="#ffffff" stroke="transparent" points="-4,4 -4,-858 576.5,-858 576.5,4 -4,4"/>
<!-- user_types -->
<g id="node1" class="node">
<title>user_types</title>
<polygon fill="#efefef" stroke="transparent" points="292,-195.5 292,-230.5 521,-230.5 521,-195.5 292,-195.5"/>
<polygon fill="none" stroke="#000000" points="292,-195.5 292,-230.5 521,-230.5 521,-195.5 292,-195.5"/>
<text text-anchor="start" x="298.7033" y="-208.3" font-family="Arial Bold" font-size="18.00" fill="#000000">user_types</text>
<text text-anchor="start" x="386.7287" y="-208.3" font-family="Arial" font-size="14.00" fill="#000000">    </text>
<text text-anchor="start" x="420.9335" y="-208.3" font-family="Arial" font-size="14.00" fill="#666666">[BASE TABLE]</text>
<polygon fill="none" stroke="#000000" points="292,-165.5 292,-195.5 521,-195.5 521,-165.5 292,-165.5"/>
<text text-anchor="start" x="299" y="-176.9" font-family="Arial" font-size="14.00" fill="#000000">id </text>
<text text-anchor="start" x="313.7798" y="-176.9" font-family="Arial" font-size="14.00" fill="#666666">[bigint(20) unsigned]</text>
<polygon fill="none" stroke="#000000" points="292,-135.5 292,-165.5 521,-165.5 521,-135.5 292,-135.5"/>
<text text-anchor="start" x="299" y="-146.9" font-family="Arial" font-size="14.00" fill="#000000">user_type_name </text>
<text text-anchor="start" x="407.1458" y="-146.9" font-family="Arial" font-size="14.00" fill="#666666">[varchar(255)]</text>
<polygon fill="none" stroke="#000000" points="292,-105.5 292,-135.5 521,-135.5 521,-105.5 292,-105.5"/>
<text text-anchor="start" x="299" y="-116.9" font-family="Arial" font-size="14.00" fill="#000000">user_type_value </text>
<text text-anchor="start" x="405.5918" y="-116.9" font-family="Arial" font-size="14.00" fill="#666666">[text]</text>
<polygon fill="none" stroke="#000000" points="292,-75.5 292,-105.5 521,-105.5 521,-75.5 292,-75.5"/>
<text text-anchor="start" x="299" y="-86.9" font-family="Arial" font-size="14.00" fill="#000000">created_at </text>
<text text-anchor="start" x="369.028" y="-86.9" font-family="Arial" font-size="14.00" fill="#666666">[timestamp]</text>
<polygon fill="none" stroke="#000000" points="292,-45.5 292,-75.5 521,-75.5 521,-45.5 292,-45.5"/>
<text text-anchor="start" x="299" y="-56.9" font-family="Arial" font-size="14.00" fill="#000000">updated_at </text>
<text text-anchor="start" x="372.9326" y="-56.9" font-family="Arial" font-size="14.00" fill="#666666">[timestamp]</text>
<polygon fill="none" stroke="#000000" stroke-width="3" points="290,-44.5 290,-232.5 522,-232.5 522,-44.5 290,-44.5"/>
</g>
<!-- users -->
<g id="node2" class="node">
<title>users</title>
<polygon fill="#efefef" stroke="transparent" points="283,-775.5 283,-810.5 530,-810.5 530,-775.5 283,-775.5"/>
<polygon fill="none" stroke="#000000" points="283,-775.5 283,-810.5 530,-810.5 530,-775.5 283,-775.5"/>
<text text-anchor="start" x="320.7137" y="-788.3" font-family="Arial Bold" font-size="18.00" fill="#000000">users</text>
<text text-anchor="start" x="364.7183" y="-788.3" font-family="Arial" font-size="14.00" fill="#000000">    </text>
<text text-anchor="start" x="398.9231" y="-788.3" font-family="Arial" font-size="14.00" fill="#666666">[BASE TABLE]</text>
<polygon fill="none" stroke="#000000" points="283,-745.5 283,-775.5 530,-775.5 530,-745.5 283,-745.5"/>
<text text-anchor="start" x="290" y="-756.9" font-family="Arial" font-size="14.00" fill="#000000">id    </text>
<text text-anchor="start" x="335.094" y="-756.9" font-family="Arial" font-size="14.00" fill="#666666">[bigint(20) unsigned]</text>
<polygon fill="none" stroke="#000000" points="283,-715.5 283,-745.5 530,-745.5 530,-715.5 283,-715.5"/>
<text text-anchor="start" x="290" y="-726.9" font-family="Arial" font-size="14.00" fill="#000000">full_name    </text>
<text text-anchor="start" x="384.8822" y="-726.9" font-family="Arial" font-size="14.00" fill="#666666">[varchar(255)]</text>
<polygon fill="none" stroke="#000000" points="283,-685.5 283,-715.5 530,-715.5 530,-685.5 283,-685.5"/>
<text text-anchor="start" x="290" y="-696.9" font-family="Arial" font-size="14.00" fill="#000000">display_name    </text>
<text text-anchor="start" x="410.5568" y="-696.9" font-family="Arial" font-size="14.00" fill="#666666">[varchar(255)]</text>
<polygon fill="none" stroke="#000000" points="283,-655.5 283,-685.5 530,-685.5 530,-655.5 283,-655.5"/>
<text text-anchor="start" x="290" y="-666.9" font-family="Arial" font-size="14.00" fill="#000000">email    </text>
<text text-anchor="start" x="357.6438" y="-666.9" font-family="Arial" font-size="14.00" fill="#666666">[varchar(255)]</text>
<polygon fill="none" stroke="#000000" points="283,-625.5 283,-655.5 530,-655.5 530,-625.5 283,-625.5"/>
<text text-anchor="start" x="290" y="-636.9" font-family="Arial" font-size="14.00" fill="#000000">password    </text>
<text text-anchor="start" x="384.1024" y="-636.9" font-family="Arial" font-size="14.00" fill="#666666">[varchar(255)]</text>
<polygon fill="none" stroke="#000000" points="283,-595.5 283,-625.5 530,-625.5 530,-595.5 283,-595.5"/>
<text text-anchor="start" x="290" y="-606.9" font-family="Arial" font-size="14.00" fill="#000000">status    </text>
<text text-anchor="start" x="361.5512" y="-606.9" font-family="Arial" font-size="14.00" fill="#666666">[varchar(255)]</text>
<polygon fill="none" stroke="#000000" points="283,-565.5 283,-595.5 530,-595.5 530,-565.5 283,-565.5"/>
<text text-anchor="start" x="290" y="-576.9" font-family="Arial" font-size="14.00" fill="#000000">role_id    </text>
<text text-anchor="start" x="366.209" y="-576.9" font-family="Arial" font-size="14.00" fill="#666666">[bigint(20) unsigned]</text>
<polygon fill="none" stroke="#000000" points="283,-535.5 283,-565.5 530,-565.5 530,-535.5 283,-535.5"/>
<text text-anchor="start" x="290" y="-546.9" font-family="Arial" font-size="14.00" fill="#000000">site_id    </text>
<text text-anchor="start" x="364.6564" y="-546.9" font-family="Arial" font-size="14.00" fill="#666666">[bigint(20) unsigned]</text>
<polygon fill="none" stroke="#000000" points="283,-505.5 283,-535.5 530,-535.5 530,-505.5 283,-505.5"/>
<text text-anchor="start" x="289.8149" y="-516.9" font-family="Arial" font-size="14.00" fill="#000000">usertype_id    </text>
<text text-anchor="start" x="396.3731" y="-516.9" font-family="Arial" font-size="14.00" fill="#666666">[bigint(20) unsigned]</text>
<polygon fill="none" stroke="#000000" points="283,-475.5 283,-505.5 530,-505.5 530,-475.5 283,-475.5"/>
<text text-anchor="start" x="290" y="-486.9" font-family="Arial" font-size="14.00" fill="#000000">remember_token    </text>
<text text-anchor="start" x="429.9986" y="-486.9" font-family="Arial" font-size="14.00" fill="#666666">[varchar(100)]</text>
<polygon fill="none" stroke="#000000" points="283,-445.5 283,-475.5 530,-475.5 530,-445.5 283,-445.5"/>
<text text-anchor="start" x="290" y="-456.9" font-family="Arial" font-size="14.00" fill="#000000">token    </text>
<text text-anchor="start" x="358.4432" y="-456.9" font-family="Arial" font-size="14.00" fill="#666666">[longtext]</text>
<polygon fill="none" stroke="#000000" points="283,-415.5 283,-445.5 530,-445.5 530,-415.5 283,-415.5"/>
<text text-anchor="start" x="290" y="-426.9" font-family="Arial" font-size="14.00" fill="#000000">isFirstTimeVisit    </text>
<text text-anchor="start" x="419.0646" y="-426.9" font-family="Arial" font-size="14.00" fill="#666666">[tinyint(1)]</text>
<polygon fill="none" stroke="#000000" points="283,-385.5 283,-415.5 530,-415.5 530,-385.5 283,-385.5"/>
<text text-anchor="start" x="290" y="-396.9" font-family="Arial" font-size="14.00" fill="#000000">created_at    </text>
<text text-anchor="start" x="390.3422" y="-396.9" font-family="Arial" font-size="14.00" fill="#666666">[timestamp]</text>
<polygon fill="none" stroke="#000000" points="283,-355.5 283,-385.5 530,-385.5 530,-355.5 283,-355.5"/>
<text text-anchor="start" x="290" y="-366.9" font-family="Arial" font-size="14.00" fill="#000000">updated_at    </text>
<text text-anchor="start" x="394.2468" y="-366.9" font-family="Arial" font-size="14.00" fill="#666666">[timestamp]</text>
</g>
<!-- users&#45;&gt;user_types -->
<g id="edge1" class="edge">
<title>users:usertype_id&#45;&gt;user_types:id</title>
<path fill="none" stroke="#000000" d="M272.927,-518.3288C208.408,-489.3721 219.9609,-180.5 292,-180.5"/>
<polygon fill="#000000" stroke="#000000" points="273.2245,-518.3929 282.0518,-524.899 278.1122,-519.4464 283,-520.5 283,-520.5 283,-520.5 278.1122,-519.4464 283.9482,-516.101 273.2245,-518.3929 273.2245,-518.3929"/>
<text text-anchor="start" x="7.2685" y="-530.5" font-family="Arial" font-size="10.00" fill="#000000">FOREIGN KEY (usertype_id) REFERENCES user_types (id)</text>
</g>
</g>
</svg>
