<?xml version="1.0" encoding="UTF-8" standalone="no"?>
<!DOCTYPE svg PUBLIC "-//W3C//DTD SVG 1.1//EN"
 "http://www.w3.org/Graphics/SVG/1.1/DTD/svg11.dtd">
<!-- Generated by graphviz version 2.40.1 (20161225.0304)
 -->
<!-- Title: user_metas Pages: 1 -->
<svg width="532pt" height="892pt"
 viewBox="0.00 0.00 531.50 892.00" xmlns="http://www.w3.org/2000/svg" xmlns:xlink="http://www.w3.org/1999/xlink">
<g id="graph0" class="graph" transform="scale(1 1) rotate(0) translate(4 888)">
<title>user_metas</title>
<polygon fill="#ffffff" stroke="transparent" points="-4,4 -4,-888 527.5,-888 527.5,4 -4,4"/>
<!-- user_metas -->
<g id="node1" class="node">
<title>user_metas</title>
<polygon fill="#efefef" stroke="transparent" points="240,-802.5 240,-837.5 475,-837.5 475,-802.5 240,-802.5"/>
<polygon fill="none" stroke="#000000" points="240,-802.5 240,-837.5 475,-837.5 475,-802.5 240,-802.5"/>
<text text-anchor="start" x="246.7072" y="-815.3" font-family="Arial Bold" font-size="18.00" fill="#000000">user_metas</text>
<text text-anchor="start" x="340.7248" y="-815.3" font-family="Arial" font-size="14.00" fill="#000000">    </text>
<text text-anchor="start" x="374.9296" y="-815.3" font-family="Arial" font-size="14.00" fill="#666666">[BASE TABLE]</text>
<polygon fill="none" stroke="#000000" points="240,-772.5 240,-802.5 475,-802.5 475,-772.5 240,-772.5"/>
<text text-anchor="start" x="247" y="-783.9" font-family="Arial" font-size="14.00" fill="#000000">id </text>
<text text-anchor="start" x="261.7798" y="-783.9" font-family="Arial" font-size="14.00" fill="#666666">[bigint(20) unsigned]</text>
<polygon fill="none" stroke="#000000" points="240,-742.5 240,-772.5 475,-772.5 475,-742.5 240,-742.5"/>
<text text-anchor="start" x="247" y="-753.9" font-family="Arial" font-size="14.00" fill="#000000">user_id </text>
<text text-anchor="start" x="296.7882" y="-753.9" font-family="Arial" font-size="14.00" fill="#666666">[bigint(20) unsigned]</text>
<polygon fill="none" stroke="#000000" points="240,-712.5 240,-742.5 475,-742.5 475,-712.5 240,-712.5"/>
<text text-anchor="start" x="247" y="-723.9" font-family="Arial" font-size="14.00" fill="#000000">user_meta_key </text>
<text text-anchor="start" x="346.5806" y="-723.9" font-family="Arial" font-size="14.00" fill="#666666">[varchar(255)]</text>
<polygon fill="none" stroke="#000000" points="240,-682.5 240,-712.5 475,-712.5 475,-682.5 240,-682.5"/>
<text text-anchor="start" x="247" y="-693.9" font-family="Arial" font-size="14.00" fill="#000000">user_meta_value </text>
<text text-anchor="start" x="358.2524" y="-693.9" font-family="Arial" font-size="14.00" fill="#666666">[text]</text>
<polygon fill="none" stroke="#000000" points="240,-652.5 240,-682.5 475,-682.5 475,-652.5 240,-652.5"/>
<text text-anchor="start" x="247" y="-663.9" font-family="Arial" font-size="14.00" fill="#000000">created_at </text>
<text text-anchor="start" x="317.028" y="-663.9" font-family="Arial" font-size="14.00" fill="#666666">[timestamp]</text>
<polygon fill="none" stroke="#000000" points="240,-622.5 240,-652.5 475,-652.5 475,-622.5 240,-622.5"/>
<text text-anchor="start" x="247" y="-633.9" font-family="Arial" font-size="14.00" fill="#000000">updated_at </text>
<text text-anchor="start" x="320.9326" y="-633.9" font-family="Arial" font-size="14.00" fill="#666666">[timestamp]</text>
<polygon fill="none" stroke="#000000" stroke-width="3" points="238,-621.5 238,-839.5 476,-839.5 476,-621.5 238,-621.5"/>
</g>
<!-- users -->
<g id="node2" class="node">
<title>users</title>
<polygon fill="#efefef" stroke="transparent" points="234,-462.5 234,-497.5 481,-497.5 481,-462.5 234,-462.5"/>
<polygon fill="none" stroke="#000000" points="234,-462.5 234,-497.5 481,-497.5 481,-462.5 234,-462.5"/>
<text text-anchor="start" x="271.7137" y="-475.3" font-family="Arial Bold" font-size="18.00" fill="#000000">users</text>
<text text-anchor="start" x="315.7183" y="-475.3" font-family="Arial" font-size="14.00" fill="#000000">    </text>
<text text-anchor="start" x="349.9231" y="-475.3" font-family="Arial" font-size="14.00" fill="#666666">[BASE TABLE]</text>
<polygon fill="none" stroke="#000000" points="234,-432.5 234,-462.5 481,-462.5 481,-432.5 234,-432.5"/>
<text text-anchor="start" x="241" y="-443.9" font-family="Arial" font-size="14.00" fill="#000000">id    </text>
<text text-anchor="start" x="286.094" y="-443.9" font-family="Arial" font-size="14.00" fill="#666666">[bigint(20) unsigned]</text>
<polygon fill="none" stroke="#000000" points="234,-402.5 234,-432.5 481,-432.5 481,-402.5 234,-402.5"/>
<text text-anchor="start" x="241" y="-413.9" font-family="Arial" font-size="14.00" fill="#000000">full_name    </text>
<text text-anchor="start" x="335.8822" y="-413.9" font-family="Arial" font-size="14.00" fill="#666666">[varchar(255)]</text>
<polygon fill="none" stroke="#000000" points="234,-372.5 234,-402.5 481,-402.5 481,-372.5 234,-372.5"/>
<text text-anchor="start" x="241" y="-383.9" font-family="Arial" font-size="14.00" fill="#000000">display_name    </text>
<text text-anchor="start" x="361.5568" y="-383.9" font-family="Arial" font-size="14.00" fill="#666666">[varchar(255)]</text>
<polygon fill="none" stroke="#000000" points="234,-342.5 234,-372.5 481,-372.5 481,-342.5 234,-342.5"/>
<text text-anchor="start" x="241" y="-353.9" font-family="Arial" font-size="14.00" fill="#000000">email    </text>
<text text-anchor="start" x="308.6438" y="-353.9" font-family="Arial" font-size="14.00" fill="#666666">[varchar(255)]</text>
<polygon fill="none" stroke="#000000" points="234,-312.5 234,-342.5 481,-342.5 481,-312.5 234,-312.5"/>
<text text-anchor="start" x="241" y="-323.9" font-family="Arial" font-size="14.00" fill="#000000">password    </text>
<text text-anchor="start" x="335.1024" y="-323.9" font-family="Arial" font-size="14.00" fill="#666666">[varchar(255)]</text>
<polygon fill="none" stroke="#000000" points="234,-282.5 234,-312.5 481,-312.5 481,-282.5 234,-282.5"/>
<text text-anchor="start" x="241" y="-293.9" font-family="Arial" font-size="14.00" fill="#000000">status    </text>
<text text-anchor="start" x="312.5512" y="-293.9" font-family="Arial" font-size="14.00" fill="#666666">[varchar(255)]</text>
<polygon fill="none" stroke="#000000" points="234,-252.5 234,-282.5 481,-282.5 481,-252.5 234,-252.5"/>
<text text-anchor="start" x="241" y="-263.9" font-family="Arial" font-size="14.00" fill="#000000">role_id    </text>
<text text-anchor="start" x="317.209" y="-263.9" font-family="Arial" font-size="14.00" fill="#666666">[bigint(20) unsigned]</text>
<polygon fill="none" stroke="#000000" points="234,-222.5 234,-252.5 481,-252.5 481,-222.5 234,-222.5"/>
<text text-anchor="start" x="241" y="-233.9" font-family="Arial" font-size="14.00" fill="#000000">site_id    </text>
<text text-anchor="start" x="315.6564" y="-233.9" font-family="Arial" font-size="14.00" fill="#666666">[bigint(20) unsigned]</text>
<polygon fill="none" stroke="#000000" points="234,-192.5 234,-222.5 481,-222.5 481,-192.5 234,-192.5"/>
<text text-anchor="start" x="240.8149" y="-203.9" font-family="Arial" font-size="14.00" fill="#000000">usertype_id    </text>
<text text-anchor="start" x="347.3731" y="-203.9" font-family="Arial" font-size="14.00" fill="#666666">[bigint(20) unsigned]</text>
<polygon fill="none" stroke="#000000" points="234,-162.5 234,-192.5 481,-192.5 481,-162.5 234,-162.5"/>
<text text-anchor="start" x="241" y="-173.9" font-family="Arial" font-size="14.00" fill="#000000">remember_token    </text>
<text text-anchor="start" x="380.9986" y="-173.9" font-family="Arial" font-size="14.00" fill="#666666">[varchar(100)]</text>
<polygon fill="none" stroke="#000000" points="234,-132.5 234,-162.5 481,-162.5 481,-132.5 234,-132.5"/>
<text text-anchor="start" x="241" y="-143.9" font-family="Arial" font-size="14.00" fill="#000000">token    </text>
<text text-anchor="start" x="309.4432" y="-143.9" font-family="Arial" font-size="14.00" fill="#666666">[longtext]</text>
<polygon fill="none" stroke="#000000" points="234,-102.5 234,-132.5 481,-132.5 481,-102.5 234,-102.5"/>
<text text-anchor="start" x="241" y="-113.9" font-family="Arial" font-size="14.00" fill="#000000">isFirstTimeVisit    </text>
<text text-anchor="start" x="370.0646" y="-113.9" font-family="Arial" font-size="14.00" fill="#666666">[tinyint(1)]</text>
<polygon fill="none" stroke="#000000" points="234,-72.5 234,-102.5 481,-102.5 481,-72.5 234,-72.5"/>
<text text-anchor="start" x="241" y="-83.9" font-family="Arial" font-size="14.00" fill="#000000">created_at    </text>
<text text-anchor="start" x="341.3422" y="-83.9" font-family="Arial" font-size="14.00" fill="#666666">[timestamp]</text>
<polygon fill="none" stroke="#000000" points="234,-42.5 234,-72.5 481,-72.5 481,-42.5 234,-42.5"/>
<text text-anchor="start" x="241" y="-53.9" font-family="Arial" font-size="14.00" fill="#000000">updated_at    </text>
<text text-anchor="start" x="345.2468" y="-53.9" font-family="Arial" font-size="14.00" fill="#666666">[timestamp]</text>
</g>
<!-- user_metas&#45;&gt;users -->
<g id="edge1" class="edge">
<title>user_metas:user_id&#45;&gt;users:id</title>
<path fill="none" stroke="#000000" d="M229.9914,-755.183C170.682,-726.815 168.5971,-447.5 234,-447.5"/>
<polygon fill="#000000" stroke="#000000" points="230.2577,-755.2445 238.985,-761.8841 235.1288,-756.3723 240,-757.5 240,-757.5 240,-757.5 235.1288,-756.3723 241.015,-753.1159 230.2577,-755.2445 230.2577,-755.2445"/>
<text text-anchor="start" x="6.945" y="-767.5" font-family="Arial" font-size="10.00" fill="#000000">FOREIGN KEY (user_id) REFERENCES users (id)</text>
</g>
</g>
</svg>
