<?xml version="1.0" encoding="UTF-8" standalone="no"?>
<!DOCTYPE svg PUBLIC "-//W3C//DTD SVG 1.1//EN"
 "http://www.w3.org/Graphics/SVG/1.1/DTD/svg11.dtd">
<!-- Generated by graphviz version 2.40.1 (20161225.0304)
 -->
<!-- Title: user_answers Pages: 1 -->
<svg width="963pt" height="1072pt"
 viewBox="0.00 0.00 963.00 1072.00" xmlns="http://www.w3.org/2000/svg" xmlns:xlink="http://www.w3.org/1999/xlink">
<g id="graph0" class="graph" transform="scale(1 1) rotate(0) translate(4 1068)">
<title>user_answers</title>
<polygon fill="#ffffff" stroke="transparent" points="-4,4 -4,-1068 959,-1068 959,4 -4,4"/>
<!-- user_answers -->
<g id="node1" class="node">
<title>user_answers</title>
<polygon fill="#efefef" stroke="transparent" points="276,-982.5 276,-1017.5 569,-1017.5 569,-982.5 276,-982.5"/>
<polygon fill="none" stroke="#000000" points="276,-982.5 276,-1017.5 569,-1017.5 569,-982.5 276,-982.5"/>
<text text-anchor="start" x="302.7081" y="-995.3" font-family="Arial Bold" font-size="18.00" fill="#000000">user_answers</text>
<text text-anchor="start" x="414.7239" y="-995.3" font-family="Arial" font-size="14.00" fill="#000000">    </text>
<text text-anchor="start" x="448.9287" y="-995.3" font-family="Arial" font-size="14.00" fill="#666666">[BASE TABLE]</text>
<polygon fill="none" stroke="#000000" points="276,-952.5 276,-982.5 569,-982.5 569,-952.5 276,-952.5"/>
<text text-anchor="start" x="283" y="-963.9" font-family="Arial" font-size="14.00" fill="#000000">id </text>
<text text-anchor="start" x="297.7798" y="-963.9" font-family="Arial" font-size="14.00" fill="#666666">[bigint(20) unsigned]</text>
<polygon fill="none" stroke="#000000" points="276,-922.5 276,-952.5 569,-952.5 569,-922.5 276,-922.5"/>
<text text-anchor="start" x="283" y="-933.9" font-family="Arial" font-size="14.00" fill="#000000">question_id </text>
<text text-anchor="start" x="358.4726" y="-933.9" font-family="Arial" font-size="14.00" fill="#666666">[bigint(20) unsigned]</text>
<polygon fill="none" stroke="#000000" points="276,-892.5 276,-922.5 569,-922.5 569,-892.5 276,-892.5"/>
<text text-anchor="start" x="282.8556" y="-903.9" font-family="Arial" font-size="14.00" fill="#000000">user_survey_domain_id </text>
<text text-anchor="start" x="435.3324" y="-903.9" font-family="Arial" font-size="14.00" fill="#666666">[bigint(20) unsigned]</text>
<polygon fill="none" stroke="#000000" points="276,-862.5 276,-892.5 569,-892.5 569,-862.5 276,-862.5"/>
<text text-anchor="start" x="283" y="-873.9" font-family="Arial" font-size="14.00" fill="#000000">answer </text>
<text text-anchor="start" x="332.0056" y="-873.9" font-family="Arial" font-size="14.00" fill="#666666">[enum(&#39;0&#39;,&#39;1&#39;,&#39;2&#39;)]</text>
<polygon fill="none" stroke="#000000" points="276,-832.5 276,-862.5 569,-862.5 569,-832.5 276,-832.5"/>
<text text-anchor="start" x="283" y="-843.9" font-family="Arial" font-size="14.00" fill="#000000">answer_text </text>
<text text-anchor="start" x="362.352" y="-843.9" font-family="Arial" font-size="14.00" fill="#666666">[text]</text>
<polygon fill="none" stroke="#000000" points="276,-802.5 276,-832.5 569,-832.5 569,-802.5 276,-802.5"/>
<text text-anchor="start" x="283" y="-813.9" font-family="Arial" font-size="14.00" fill="#000000">created_at </text>
<text text-anchor="start" x="353.028" y="-813.9" font-family="Arial" font-size="14.00" fill="#666666">[timestamp]</text>
<polygon fill="none" stroke="#000000" stroke-width="3" points="274,-801.5 274,-1019.5 570,-1019.5 570,-801.5 274,-801.5"/>
</g>
<!-- questions -->
<g id="node2" class="node">
<title>questions</title>
<polygon fill="#efefef" stroke="transparent" points="88,-642.5 88,-677.5 343,-677.5 343,-642.5 88,-642.5"/>
<polygon fill="none" stroke="#000000" points="88,-642.5 88,-677.5 343,-677.5 343,-642.5 88,-642.5"/>
<text text-anchor="start" x="113.2023" y="-655.3" font-family="Arial Bold" font-size="18.00" fill="#000000">questions</text>
<text text-anchor="start" x="190.2297" y="-655.3" font-family="Arial" font-size="14.00" fill="#000000">    </text>
<text text-anchor="start" x="224.4345" y="-655.3" font-family="Arial" font-size="14.00" fill="#666666">[BASE TABLE]</text>
<polygon fill="none" stroke="#000000" points="88,-612.5 88,-642.5 343,-642.5 343,-612.5 88,-612.5"/>
<text text-anchor="start" x="95" y="-623.9" font-family="Arial" font-size="14.00" fill="#000000">id    </text>
<text text-anchor="start" x="140.094" y="-623.9" font-family="Arial" font-size="14.00" fill="#666666">[bigint(20) unsigned]</text>
<polygon fill="none" stroke="#000000" points="88,-582.5 88,-612.5 343,-612.5 343,-582.5 88,-582.5"/>
<text text-anchor="start" x="95" y="-593.9" font-family="Arial" font-size="14.00" fill="#000000">survey_id    </text>
<text text-anchor="start" x="189.1024" y="-593.9" font-family="Arial" font-size="14.00" fill="#666666">[bigint(20) unsigned]</text>
<polygon fill="none" stroke="#000000" points="88,-552.5 88,-582.5 343,-582.5 343,-552.5 88,-552.5"/>
<text text-anchor="start" x="95" y="-563.9" font-family="Arial" font-size="14.00" fill="#000000">domain    </text>
<text text-anchor="start" x="175.1024" y="-563.9" font-family="Arial" font-size="14.00" fill="#666666">[varchar(255)]</text>
<polygon fill="none" stroke="#000000" points="88,-522.5 88,-552.5 343,-552.5 343,-522.5 88,-522.5"/>
<text text-anchor="start" x="95" y="-533.9" font-family="Arial" font-size="14.00" fill="#000000">question    </text>
<text text-anchor="start" x="182.115" y="-533.9" font-family="Arial" font-size="14.00" fill="#666666">[text]</text>
<polygon fill="none" stroke="#000000" points="88,-492.5 88,-522.5 343,-522.5 343,-492.5 88,-492.5"/>
<text text-anchor="start" x="95" y="-503.9" font-family="Arial" font-size="14.00" fill="#000000">element    </text>
<text text-anchor="start" x="178.993" y="-503.9" font-family="Arial" font-size="14.00" fill="#666666">[varchar(255)]</text>
<polygon fill="none" stroke="#000000" points="88,-462.5 88,-492.5 343,-492.5 343,-462.5 88,-462.5"/>
<text text-anchor="start" x="94.9299" y="-473.9" font-family="Arial" font-size="14.00" fill="#000000">generated_variable    </text>
<text text-anchor="start" x="248.9509" y="-473.9" font-family="Arial" font-size="14.00" fill="#666666">[varchar(255)]</text>
<polygon fill="none" stroke="#000000" points="88,-432.5 88,-462.5 343,-462.5 343,-432.5 88,-432.5"/>
<text text-anchor="start" x="95" y="-443.9" font-family="Arial" font-size="14.00" fill="#000000">domain_print    </text>
<text text-anchor="start" x="210.108" y="-443.9" font-family="Arial" font-size="14.00" fill="#666666">[varchar(255)]</text>
<polygon fill="none" stroke="#000000" points="88,-402.5 88,-432.5 343,-432.5 343,-402.5 88,-402.5"/>
<text text-anchor="start" x="95" y="-413.9" font-family="Arial" font-size="14.00" fill="#000000">advice    </text>
<text text-anchor="start" x="169.6592" y="-413.9" font-family="Arial" font-size="14.00" fill="#666666">[text]</text>
<polygon fill="none" stroke="#000000" points="88,-372.5 88,-402.5 343,-402.5 343,-372.5 88,-372.5"/>
<text text-anchor="start" x="95" y="-383.9" font-family="Arial" font-size="14.00" fill="#000000">description    </text>
<text text-anchor="start" x="196.8822" y="-383.9" font-family="Arial" font-size="14.00" fill="#666666">[text]</text>
<polygon fill="none" stroke="#000000" points="88,-342.5 88,-372.5 343,-372.5 343,-342.5 88,-342.5"/>
<text text-anchor="start" x="95" y="-353.9" font-family="Arial" font-size="14.00" fill="#000000">question_example    </text>
<text text-anchor="start" x="242.7952" y="-353.9" font-family="Arial" font-size="14.00" fill="#666666">[text]</text>
<polygon fill="none" stroke="#000000" points="88,-312.5 88,-342.5 343,-342.5 343,-312.5 88,-312.5"/>
<text text-anchor="start" x="95" y="-323.9" font-family="Arial" font-size="14.00" fill="#000000">variable_suffix    </text>
<text text-anchor="start" x="218.662" y="-323.9" font-family="Arial" font-size="14.00" fill="#666666">[varchar(255)]</text>
<polygon fill="none" stroke="#000000" points="88,-282.5 88,-312.5 343,-312.5 343,-282.5 88,-282.5"/>
<text text-anchor="start" x="95" y="-293.9" font-family="Arial" font-size="14.00" fill="#000000">dependencies    </text>
<text text-anchor="start" x="216.3548" y="-293.9" font-family="Arial" font-size="14.00" fill="#666666">[varchar(255)]</text>
<polygon fill="none" stroke="#000000" points="88,-252.5 88,-282.5 343,-282.5 343,-252.5 88,-252.5"/>
<text text-anchor="start" x="95" y="-263.9" font-family="Arial" font-size="14.00" fill="#000000">phase    </text>
<text text-anchor="start" x="167.3352" y="-263.9" font-family="Arial" font-size="14.00" fill="#666666">[int(11)]</text>
<polygon fill="none" stroke="#000000" points="88,-222.5 88,-252.5 343,-252.5 343,-222.5 88,-222.5"/>
<text text-anchor="start" x="95" y="-233.9" font-family="Arial" font-size="14.00" fill="#000000">phase_description    </text>
<text text-anchor="start" x="242.7952" y="-233.9" font-family="Arial" font-size="14.00" fill="#666666">[varchar(255)]</text>
<polygon fill="none" stroke="#000000" points="88,-192.5 88,-222.5 343,-222.5 343,-192.5 88,-192.5"/>
<text text-anchor="start" x="95" y="-203.9" font-family="Arial" font-size="14.00" fill="#000000">indicator    </text>
<text text-anchor="start" x="182.0996" y="-203.9" font-family="Arial" font-size="14.00" fill="#666666">[varchar(255)]</text>
<polygon fill="none" stroke="#000000" points="88,-162.5 88,-192.5 343,-192.5 343,-162.5 88,-162.5"/>
<text text-anchor="start" x="95" y="-173.9" font-family="Arial" font-size="14.00" fill="#000000">element_print    </text>
<text text-anchor="start" x="213.9986" y="-173.9" font-family="Arial" font-size="14.00" fill="#666666">[text]</text>
<polygon fill="none" stroke="#000000" points="88,-132.5 88,-162.5 343,-162.5 343,-132.5 88,-132.5"/>
<text text-anchor="start" x="95" y="-143.9" font-family="Arial" font-size="14.00" fill="#000000">indicator_print    </text>
<text text-anchor="start" x="217.1052" y="-143.9" font-family="Arial" font-size="14.00" fill="#666666">[varchar(255)]</text>
<polygon fill="none" stroke="#000000" points="88,-102.5 88,-132.5 343,-132.5 343,-102.5 88,-102.5"/>
<text text-anchor="start" x="95" y="-113.9" font-family="Arial" font-size="14.00" fill="#000000">element_description    </text>
<text text-anchor="start" x="254.453" y="-113.9" font-family="Arial" font-size="14.00" fill="#666666">[text]</text>
<polygon fill="none" stroke="#000000" points="88,-72.5 88,-102.5 343,-102.5 343,-72.5 88,-72.5"/>
<text text-anchor="start" x="95" y="-83.9" font-family="Arial" font-size="14.00" fill="#000000">created_at    </text>
<text text-anchor="start" x="195.3422" y="-83.9" font-family="Arial" font-size="14.00" fill="#666666">[timestamp]</text>
<polygon fill="none" stroke="#000000" points="88,-42.5 88,-72.5 343,-72.5 343,-42.5 88,-42.5"/>
<text text-anchor="start" x="95" y="-53.9" font-family="Arial" font-size="14.00" fill="#000000">updated_at    </text>
<text text-anchor="start" x="199.2468" y="-53.9" font-family="Arial" font-size="14.00" fill="#666666">[timestamp]</text>
</g>
<!-- user_answers&#45;&gt;questions -->
<g id="edge1" class="edge">
<title>user_answers:question_id&#45;&gt;questions:id</title>
<path fill="none" stroke="#000000" d="M265.9003,-936.8381C199.2909,-927.5556 236.6818,-822.7607 276,-757 293.3472,-727.9864 325.6528,-750.0136 343,-721 364.325,-685.3334 384.5556,-627.5 343,-627.5"/>
<polygon fill="#000000" stroke="#000000" points="266.0214,-936.8459 275.7057,-941.9904 271.0107,-937.173 276,-937.5 276,-937.5 276,-937.5 271.0107,-937.173 276.2943,-933.0096 266.0214,-936.8459 266.0214,-936.8459"/>
<text text-anchor="start" x="6.599" y="-947.5" font-family="Arial" font-size="10.00" fill="#000000">FOREIGN KEY (question_id) REFERENCES questions (id)</text>
</g>
<!-- user_survey_domains -->
<g id="node3" class="node">
<title>user_survey_domains</title>
<polygon fill="#efefef" stroke="transparent" points="447,-507.5 447,-542.5 814,-542.5 814,-507.5 447,-507.5"/>
<polygon fill="none" stroke="#000000" points="447,-507.5 447,-542.5 814,-542.5 814,-507.5 447,-507.5"/>
<text text-anchor="start" x="478.6996" y="-520.3" font-family="Arial Bold" font-size="18.00" fill="#000000">user_survey_domains</text>
<text text-anchor="start" x="654.7324" y="-520.3" font-family="Arial" font-size="14.00" fill="#000000">    </text>
<text text-anchor="start" x="688.9372" y="-520.3" font-family="Arial" font-size="14.00" fill="#666666">[BASE TABLE]</text>
<polygon fill="none" stroke="#000000" points="447,-477.5 447,-507.5 814,-507.5 814,-477.5 447,-477.5"/>
<text text-anchor="start" x="454" y="-488.9" font-family="Arial" font-size="14.00" fill="#000000">id    </text>
<text text-anchor="start" x="499.094" y="-488.9" font-family="Arial" font-size="14.00" fill="#666666">[bigint(20) unsigned]</text>
<polygon fill="none" stroke="#000000" points="447,-447.5 447,-477.5 814,-477.5 814,-447.5 447,-447.5"/>
<text text-anchor="start" x="454" y="-458.9" font-family="Arial" font-size="14.00" fill="#000000">user_survey_id    </text>
<text text-anchor="start" x="583.1108" y="-458.9" font-family="Arial" font-size="14.00" fill="#666666">[bigint(20) unsigned]</text>
<polygon fill="none" stroke="#000000" points="447,-417.5 447,-447.5 814,-447.5 814,-417.5 447,-417.5"/>
<text text-anchor="start" x="453.9698" y="-428.9" font-family="Arial" font-size="14.00" fill="#000000">status    </text>
<text text-anchor="start" x="525.521" y="-428.9" font-family="Arial" font-size="14.00" fill="#666666">[enum(&#39;In Progress&#39;,&#39;Abandoned&#39;,&#39;Complete&#39;)]</text>
<polygon fill="none" stroke="#000000" points="447,-387.5 447,-417.5 814,-417.5 814,-387.5 447,-387.5"/>
<text text-anchor="start" x="454" y="-398.9" font-family="Arial" font-size="14.00" fill="#000000">domain    </text>
<text text-anchor="start" x="534.1024" y="-398.9" font-family="Arial" font-size="14.00" fill="#666666">[varchar(255)]</text>
<polygon fill="none" stroke="#000000" points="447,-357.5 447,-387.5 814,-387.5 814,-357.5 447,-357.5"/>
<text text-anchor="start" x="454" y="-368.9" font-family="Arial" font-size="14.00" fill="#000000">element_count    </text>
<text text-anchor="start" x="580.014" y="-368.9" font-family="Arial" font-size="14.00" fill="#666666">[int(11)]</text>
<polygon fill="none" stroke="#000000" points="447,-327.5 447,-357.5 814,-357.5 814,-327.5 447,-327.5"/>
<text text-anchor="start" x="454" y="-338.9" font-family="Arial" font-size="14.00" fill="#000000">completed_element_count    </text>
<text text-anchor="start" x="652.3674" y="-338.9" font-family="Arial" font-size="14.00" fill="#666666">[int(11)]</text>
<polygon fill="none" stroke="#000000" points="447,-297.5 447,-327.5 814,-327.5 814,-297.5 447,-297.5"/>
<text text-anchor="start" x="454" y="-308.9" font-family="Arial" font-size="14.00" fill="#000000">question_count    </text>
<text text-anchor="start" x="583.136" y="-308.9" font-family="Arial" font-size="14.00" fill="#666666">[int(11)]</text>
<polygon fill="none" stroke="#000000" points="447,-267.5 447,-297.5 814,-297.5 814,-267.5 447,-267.5"/>
<text text-anchor="start" x="454" y="-278.9" font-family="Arial" font-size="14.00" fill="#000000">completed_question_count    </text>
<text text-anchor="start" x="655.4894" y="-278.9" font-family="Arial" font-size="14.00" fill="#666666">[int(11)]</text>
<polygon fill="none" stroke="#000000" points="447,-237.5 447,-267.5 814,-267.5 814,-237.5 447,-237.5"/>
<text text-anchor="start" x="454" y="-248.9" font-family="Arial" font-size="14.00" fill="#000000">next_question_id    </text>
<text text-anchor="start" x="594.0252" y="-248.9" font-family="Arial" font-size="14.00" fill="#666666">[int(11)]</text>
<polygon fill="none" stroke="#000000" points="447,-207.5 447,-237.5 814,-237.5 814,-207.5 447,-207.5"/>
<text text-anchor="start" x="454" y="-218.9" font-family="Arial" font-size="14.00" fill="#000000">created_at    </text>
<text text-anchor="start" x="554.3422" y="-218.9" font-family="Arial" font-size="14.00" fill="#666666">[timestamp]</text>
<polygon fill="none" stroke="#000000" points="447,-177.5 447,-207.5 814,-207.5 814,-177.5 447,-177.5"/>
<text text-anchor="start" x="454" y="-188.9" font-family="Arial" font-size="14.00" fill="#000000">updated_at    </text>
<text text-anchor="start" x="558.2468" y="-188.9" font-family="Arial" font-size="14.00" fill="#666666">[timestamp]</text>
</g>
<!-- user_answers&#45;&gt;user_survey_domains -->
<g id="edge2" class="edge">
<title>user_answers:user_survey_domain_id&#45;&gt;user_survey_domains:id</title>
<path fill="none" stroke="#000000" d="M578.9795,-906.7392C630.8817,-898.0757 588.28,-817.2198 569,-757 540.5333,-668.086 475.4667,-674.914 447,-586 434.3291,-546.4233 405.4444,-492.5 447,-492.5"/>
<polygon fill="#000000" stroke="#000000" points="578.9711,-906.7398 568.6579,-903.013 573.9855,-907.1199 569,-907.5 569,-907.5 569,-907.5 573.9855,-907.1199 569.3421,-911.987 578.9711,-906.7398 578.9711,-906.7398"/>
<text text-anchor="start" x="575.596" y="-917.5" font-family="Arial" font-size="10.00" fill="#000000">FOREIGN KEY (user_survey_domain_id) REFERENCES user_survey_domains (id)</text>
</g>
</g>
</svg>
