<?xml version="1.0" encoding="UTF-8" standalone="no"?>
<!DOCTYPE svg PUBLIC "-//W3C//DTD SVG 1.1//EN"
 "http://www.w3.org/Graphics/SVG/1.1/DTD/svg11.dtd">
<!-- Generated by graphviz version 2.40.1 (20161225.0304)
 -->
<!-- Title: user_survey_reflections Pages: 1 -->
<svg width="786pt" height="772pt"
 viewBox="0.00 0.00 785.50 772.00" xmlns="http://www.w3.org/2000/svg" xmlns:xlink="http://www.w3.org/1999/xlink">
<g id="graph0" class="graph" transform="scale(1 1) rotate(0) translate(4 768)">
<title>user_survey_reflections</title>
<polygon fill="#ffffff" stroke="transparent" points="-4,4 -4,-768 781.5,-768 781.5,4 -4,4"/>
<!-- user_survey_reflections -->
<g id="node1" class="node">
<title>user_survey_reflections</title>
<polygon fill="#efefef" stroke="transparent" points="386,-682.5 386,-717.5 717,-717.5 717,-682.5 386,-682.5"/>
<polygon fill="none" stroke="#000000" points="386,-682.5 386,-717.5 717,-717.5 717,-682.5 386,-682.5"/>
<text text-anchor="start" x="392.7003" y="-695.3" font-family="Arial Bold" font-size="18.00" fill="#000000">user_survey_reflections</text>
<text text-anchor="start" x="582.7317" y="-695.3" font-family="Arial" font-size="14.00" fill="#000000">    </text>
<text text-anchor="start" x="616.9365" y="-695.3" font-family="Arial" font-size="14.00" fill="#666666">[BASE TABLE]</text>
<polygon fill="none" stroke="#000000" points="386,-652.5 386,-682.5 717,-682.5 717,-652.5 386,-652.5"/>
<text text-anchor="start" x="393" y="-663.9" font-family="Arial" font-size="14.00" fill="#000000">id </text>
<text text-anchor="start" x="407.7798" y="-663.9" font-family="Arial" font-size="14.00" fill="#666666">[bigint(20) unsigned]</text>
<polygon fill="none" stroke="#000000" points="386,-622.5 386,-652.5 717,-652.5 717,-622.5 386,-622.5"/>
<text text-anchor="start" x="393" y="-633.9" font-family="Arial" font-size="14.00" fill="#000000">user_survey_domain_id </text>
<text text-anchor="start" x="545.4768" y="-633.9" font-family="Arial" font-size="14.00" fill="#666666">[bigint(20) unsigned]</text>
<polygon fill="none" stroke="#000000" points="386,-592.5 386,-622.5 717,-622.5 717,-592.5 386,-592.5"/>
<text text-anchor="start" x="393" y="-603.9" font-family="Arial" font-size="14.00" fill="#000000">reflection </text>
<text text-anchor="start" x="453.676" y="-603.9" font-family="Arial" font-size="14.00" fill="#666666">[text]</text>
<polygon fill="none" stroke="#000000" points="386,-562.5 386,-592.5 717,-592.5 717,-562.5 386,-562.5"/>
<text text-anchor="start" x="393" y="-573.9" font-family="Arial" font-size="14.00" fill="#000000">created_at </text>
<text text-anchor="start" x="463.028" y="-573.9" font-family="Arial" font-size="14.00" fill="#666666">[timestamp]</text>
<polygon fill="none" stroke="#000000" points="386,-532.5 386,-562.5 717,-562.5 717,-532.5 386,-532.5"/>
<text text-anchor="start" x="393" y="-543.9" font-family="Arial" font-size="14.00" fill="#000000">updated_at </text>
<text text-anchor="start" x="466.9326" y="-543.9" font-family="Arial" font-size="14.00" fill="#666666">[timestamp]</text>
<polygon fill="none" stroke="#000000" stroke-width="3" points="384,-531.5 384,-719.5 718,-719.5 718,-531.5 384,-531.5"/>
</g>
<!-- user_survey_domains -->
<g id="node2" class="node">
<title>user_survey_domains</title>
<polygon fill="#efefef" stroke="transparent" points="368,-372.5 368,-407.5 735,-407.5 735,-372.5 368,-372.5"/>
<polygon fill="none" stroke="#000000" points="368,-372.5 368,-407.5 735,-407.5 735,-372.5 368,-372.5"/>
<text text-anchor="start" x="399.6996" y="-385.3" font-family="Arial Bold" font-size="18.00" fill="#000000">user_survey_domains</text>
<text text-anchor="start" x="575.7324" y="-385.3" font-family="Arial" font-size="14.00" fill="#000000">    </text>
<text text-anchor="start" x="609.9372" y="-385.3" font-family="Arial" font-size="14.00" fill="#666666">[BASE TABLE]</text>
<polygon fill="none" stroke="#000000" points="368,-342.5 368,-372.5 735,-372.5 735,-342.5 368,-342.5"/>
<text text-anchor="start" x="375" y="-353.9" font-family="Arial" font-size="14.00" fill="#000000">id    </text>
<text text-anchor="start" x="420.094" y="-353.9" font-family="Arial" font-size="14.00" fill="#666666">[bigint(20) unsigned]</text>
<polygon fill="none" stroke="#000000" points="368,-312.5 368,-342.5 735,-342.5 735,-312.5 368,-312.5"/>
<text text-anchor="start" x="375" y="-323.9" font-family="Arial" font-size="14.00" fill="#000000">user_survey_id    </text>
<text text-anchor="start" x="504.1108" y="-323.9" font-family="Arial" font-size="14.00" fill="#666666">[bigint(20) unsigned]</text>
<polygon fill="none" stroke="#000000" points="368,-282.5 368,-312.5 735,-312.5 735,-282.5 368,-282.5"/>
<text text-anchor="start" x="374.9698" y="-293.9" font-family="Arial" font-size="14.00" fill="#000000">status    </text>
<text text-anchor="start" x="446.521" y="-293.9" font-family="Arial" font-size="14.00" fill="#666666">[enum(&#39;In Progress&#39;,&#39;Abandoned&#39;,&#39;Complete&#39;)]</text>
<polygon fill="none" stroke="#000000" points="368,-252.5 368,-282.5 735,-282.5 735,-252.5 368,-252.5"/>
<text text-anchor="start" x="375" y="-263.9" font-family="Arial" font-size="14.00" fill="#000000">domain    </text>
<text text-anchor="start" x="455.1024" y="-263.9" font-family="Arial" font-size="14.00" fill="#666666">[varchar(255)]</text>
<polygon fill="none" stroke="#000000" points="368,-222.5 368,-252.5 735,-252.5 735,-222.5 368,-222.5"/>
<text text-anchor="start" x="375" y="-233.9" font-family="Arial" font-size="14.00" fill="#000000">element_count    </text>
<text text-anchor="start" x="501.014" y="-233.9" font-family="Arial" font-size="14.00" fill="#666666">[int(11)]</text>
<polygon fill="none" stroke="#000000" points="368,-192.5 368,-222.5 735,-222.5 735,-192.5 368,-192.5"/>
<text text-anchor="start" x="375" y="-203.9" font-family="Arial" font-size="14.00" fill="#000000">completed_element_count    </text>
<text text-anchor="start" x="573.3674" y="-203.9" font-family="Arial" font-size="14.00" fill="#666666">[int(11)]</text>
<polygon fill="none" stroke="#000000" points="368,-162.5 368,-192.5 735,-192.5 735,-162.5 368,-162.5"/>
<text text-anchor="start" x="375" y="-173.9" font-family="Arial" font-size="14.00" fill="#000000">question_count    </text>
<text text-anchor="start" x="504.136" y="-173.9" font-family="Arial" font-size="14.00" fill="#666666">[int(11)]</text>
<polygon fill="none" stroke="#000000" points="368,-132.5 368,-162.5 735,-162.5 735,-132.5 368,-132.5"/>
<text text-anchor="start" x="375" y="-143.9" font-family="Arial" font-size="14.00" fill="#000000">completed_question_count    </text>
<text text-anchor="start" x="576.4894" y="-143.9" font-family="Arial" font-size="14.00" fill="#666666">[int(11)]</text>
<polygon fill="none" stroke="#000000" points="368,-102.5 368,-132.5 735,-132.5 735,-102.5 368,-102.5"/>
<text text-anchor="start" x="375" y="-113.9" font-family="Arial" font-size="14.00" fill="#000000">next_question_id    </text>
<text text-anchor="start" x="515.0252" y="-113.9" font-family="Arial" font-size="14.00" fill="#666666">[int(11)]</text>
<polygon fill="none" stroke="#000000" points="368,-72.5 368,-102.5 735,-102.5 735,-72.5 368,-72.5"/>
<text text-anchor="start" x="375" y="-83.9" font-family="Arial" font-size="14.00" fill="#000000">created_at    </text>
<text text-anchor="start" x="475.3422" y="-83.9" font-family="Arial" font-size="14.00" fill="#666666">[timestamp]</text>
<polygon fill="none" stroke="#000000" points="368,-42.5 368,-72.5 735,-72.5 735,-42.5 368,-42.5"/>
<text text-anchor="start" x="375" y="-53.9" font-family="Arial" font-size="14.00" fill="#000000">updated_at    </text>
<text text-anchor="start" x="479.2468" y="-53.9" font-family="Arial" font-size="14.00" fill="#666666">[timestamp]</text>
</g>
<!-- user_survey_reflections&#45;&gt;user_survey_domains -->
<g id="edge1" class="edge">
<title>user_survey_reflections:user_survey_domain_id&#45;&gt;user_survey_domains:id</title>
<path fill="none" stroke="#000000" d="M376.1744,-635.0794C321.9209,-607.7124 309.0591,-357.5 368,-357.5"/>
<polygon fill="#000000" stroke="#000000" points="376.2903,-635.1079 384.9235,-641.8694 381.1452,-636.3039 386,-637.5 386,-637.5 386,-637.5 381.1452,-636.3039 387.0765,-633.1306 376.2903,-635.1079 376.2903,-635.1079"/>
<text text-anchor="start" x="6.596" y="-647.5" font-family="Arial" font-size="10.00" fill="#000000">FOREIGN KEY (user_survey_domain_id) REFERENCES user_survey_domains (id)</text>
</g>
</g>
</svg>
