<?xml version="1.0" encoding="UTF-8" standalone="no"?>
<!DOCTYPE svg PUBLIC "-//W3C//DTD SVG 1.1//EN"
 "http://www.w3.org/Graphics/SVG/1.1/DTD/svg11.dtd">
<!-- Generated by graphviz version 2.40.1 (20161225.0304)
 -->
<!-- Title: user_surveys Pages: 1 -->
<svg width="909pt" height="1379pt"
 viewBox="0.00 0.00 909.00 1379.00" xmlns="http://www.w3.org/2000/svg" xmlns:xlink="http://www.w3.org/1999/xlink">
<g id="graph0" class="graph" transform="scale(1 1) rotate(0) translate(4 1375)">
<title>user_surveys</title>
<polygon fill="#ffffff" stroke="transparent" points="-4,4 -4,-1375 905,-1375 905,4 -4,4"/>
<!-- user_surveys -->
<g id="node1" class="node">
<title>user_surveys</title>
<polygon fill="#efefef" stroke="transparent" points="240,-802.5 240,-837.5 576,-837.5 576,-802.5 240,-802.5"/>
<polygon fill="none" stroke="#000000" points="240,-802.5 240,-837.5 576,-837.5 576,-802.5 240,-802.5"/>
<text text-anchor="start" x="290.7083" y="-815.3" font-family="Arial Bold" font-size="18.00" fill="#000000">user_surveys</text>
<text text-anchor="start" x="397.7237" y="-815.3" font-family="Arial" font-size="14.00" fill="#000000">    </text>
<text text-anchor="start" x="431.9285" y="-815.3" font-family="Arial" font-size="14.00" fill="#666666">[BASE TABLE]</text>
<polygon fill="none" stroke="#000000" points="240,-772.5 240,-802.5 576,-802.5 576,-772.5 240,-772.5"/>
<text text-anchor="start" x="247" y="-783.9" font-family="Arial" font-size="14.00" fill="#000000">id </text>
<text text-anchor="start" x="261.7798" y="-783.9" font-family="Arial" font-size="14.00" fill="#666666">[bigint(20) unsigned]</text>
<polygon fill="none" stroke="#000000" points="240,-742.5 240,-772.5 576,-772.5 576,-742.5 240,-742.5"/>
<text text-anchor="start" x="247" y="-753.9" font-family="Arial" font-size="14.00" fill="#000000">user_id </text>
<text text-anchor="start" x="296.7882" y="-753.9" font-family="Arial" font-size="14.00" fill="#666666">[bigint(20) unsigned]</text>
<polygon fill="none" stroke="#000000" points="240,-712.5 240,-742.5 576,-742.5 576,-712.5 240,-712.5"/>
<text text-anchor="start" x="247" y="-723.9" font-family="Arial" font-size="14.00" fill="#000000">survey_id </text>
<text text-anchor="start" x="310.7882" y="-723.9" font-family="Arial" font-size="14.00" fill="#666666">[bigint(20) unsigned]</text>
<polygon fill="none" stroke="#000000" points="240,-682.5 240,-712.5 576,-712.5 576,-682.5 240,-682.5"/>
<text text-anchor="start" x="246.6269" y="-693.9" font-family="Arial" font-size="14.00" fill="#000000">status </text>
<text text-anchor="start" x="287.8639" y="-693.9" font-family="Arial" font-size="14.00" fill="#666666">[enum(&#39;In Progress&#39;,&#39;Abandoned&#39;,&#39;Complete&#39;)]</text>
<polygon fill="none" stroke="#000000" points="240,-652.5 240,-682.5 576,-682.5 576,-652.5 240,-652.5"/>
<text text-anchor="start" x="247" y="-663.9" font-family="Arial" font-size="14.00" fill="#000000">created_at </text>
<text text-anchor="start" x="317.028" y="-663.9" font-family="Arial" font-size="14.00" fill="#666666">[timestamp]</text>
<polygon fill="none" stroke="#000000" points="240,-622.5 240,-652.5 576,-652.5 576,-622.5 240,-622.5"/>
<text text-anchor="start" x="247" y="-633.9" font-family="Arial" font-size="14.00" fill="#000000">updated_at </text>
<text text-anchor="start" x="320.9326" y="-633.9" font-family="Arial" font-size="14.00" fill="#666666">[timestamp]</text>
<polygon fill="none" stroke="#000000" stroke-width="3" points="238.5,-621.5 238.5,-839.5 577.5,-839.5 577.5,-621.5 238.5,-621.5"/>
</g>
<!-- users -->
<g id="node3" class="node">
<title>users</title>
<polygon fill="#efefef" stroke="transparent" points="116,-462.5 116,-497.5 363,-497.5 363,-462.5 116,-462.5"/>
<polygon fill="none" stroke="#000000" points="116,-462.5 116,-497.5 363,-497.5 363,-462.5 116,-462.5"/>
<text text-anchor="start" x="153.7137" y="-475.3" font-family="Arial Bold" font-size="18.00" fill="#000000">users</text>
<text text-anchor="start" x="197.7183" y="-475.3" font-family="Arial" font-size="14.00" fill="#000000">    </text>
<text text-anchor="start" x="231.9231" y="-475.3" font-family="Arial" font-size="14.00" fill="#666666">[BASE TABLE]</text>
<polygon fill="none" stroke="#000000" points="116,-432.5 116,-462.5 363,-462.5 363,-432.5 116,-432.5"/>
<text text-anchor="start" x="123" y="-443.9" font-family="Arial" font-size="14.00" fill="#000000">id    </text>
<text text-anchor="start" x="168.094" y="-443.9" font-family="Arial" font-size="14.00" fill="#666666">[bigint(20) unsigned]</text>
<polygon fill="none" stroke="#000000" points="116,-402.5 116,-432.5 363,-432.5 363,-402.5 116,-402.5"/>
<text text-anchor="start" x="123" y="-413.9" font-family="Arial" font-size="14.00" fill="#000000">full_name    </text>
<text text-anchor="start" x="217.8822" y="-413.9" font-family="Arial" font-size="14.00" fill="#666666">[varchar(255)]</text>
<polygon fill="none" stroke="#000000" points="116,-372.5 116,-402.5 363,-402.5 363,-372.5 116,-372.5"/>
<text text-anchor="start" x="123" y="-383.9" font-family="Arial" font-size="14.00" fill="#000000">display_name    </text>
<text text-anchor="start" x="243.5568" y="-383.9" font-family="Arial" font-size="14.00" fill="#666666">[varchar(255)]</text>
<polygon fill="none" stroke="#000000" points="116,-342.5 116,-372.5 363,-372.5 363,-342.5 116,-342.5"/>
<text text-anchor="start" x="123" y="-353.9" font-family="Arial" font-size="14.00" fill="#000000">email    </text>
<text text-anchor="start" x="190.6438" y="-353.9" font-family="Arial" font-size="14.00" fill="#666666">[varchar(255)]</text>
<polygon fill="none" stroke="#000000" points="116,-312.5 116,-342.5 363,-342.5 363,-312.5 116,-312.5"/>
<text text-anchor="start" x="123" y="-323.9" font-family="Arial" font-size="14.00" fill="#000000">password    </text>
<text text-anchor="start" x="217.1024" y="-323.9" font-family="Arial" font-size="14.00" fill="#666666">[varchar(255)]</text>
<polygon fill="none" stroke="#000000" points="116,-282.5 116,-312.5 363,-312.5 363,-282.5 116,-282.5"/>
<text text-anchor="start" x="123" y="-293.9" font-family="Arial" font-size="14.00" fill="#000000">status    </text>
<text text-anchor="start" x="194.5512" y="-293.9" font-family="Arial" font-size="14.00" fill="#666666">[varchar(255)]</text>
<polygon fill="none" stroke="#000000" points="116,-252.5 116,-282.5 363,-282.5 363,-252.5 116,-252.5"/>
<text text-anchor="start" x="123" y="-263.9" font-family="Arial" font-size="14.00" fill="#000000">role_id    </text>
<text text-anchor="start" x="199.209" y="-263.9" font-family="Arial" font-size="14.00" fill="#666666">[bigint(20) unsigned]</text>
<polygon fill="none" stroke="#000000" points="116,-222.5 116,-252.5 363,-252.5 363,-222.5 116,-222.5"/>
<text text-anchor="start" x="123" y="-233.9" font-family="Arial" font-size="14.00" fill="#000000">site_id    </text>
<text text-anchor="start" x="197.6564" y="-233.9" font-family="Arial" font-size="14.00" fill="#666666">[bigint(20) unsigned]</text>
<polygon fill="none" stroke="#000000" points="116,-192.5 116,-222.5 363,-222.5 363,-192.5 116,-192.5"/>
<text text-anchor="start" x="122.8149" y="-203.9" font-family="Arial" font-size="14.00" fill="#000000">usertype_id    </text>
<text text-anchor="start" x="229.3731" y="-203.9" font-family="Arial" font-size="14.00" fill="#666666">[bigint(20) unsigned]</text>
<polygon fill="none" stroke="#000000" points="116,-162.5 116,-192.5 363,-192.5 363,-162.5 116,-162.5"/>
<text text-anchor="start" x="123" y="-173.9" font-family="Arial" font-size="14.00" fill="#000000">remember_token    </text>
<text text-anchor="start" x="262.9986" y="-173.9" font-family="Arial" font-size="14.00" fill="#666666">[varchar(100)]</text>
<polygon fill="none" stroke="#000000" points="116,-132.5 116,-162.5 363,-162.5 363,-132.5 116,-132.5"/>
<text text-anchor="start" x="123" y="-143.9" font-family="Arial" font-size="14.00" fill="#000000">token    </text>
<text text-anchor="start" x="191.4432" y="-143.9" font-family="Arial" font-size="14.00" fill="#666666">[longtext]</text>
<polygon fill="none" stroke="#000000" points="116,-102.5 116,-132.5 363,-132.5 363,-102.5 116,-102.5"/>
<text text-anchor="start" x="123" y="-113.9" font-family="Arial" font-size="14.00" fill="#000000">isFirstTimeVisit    </text>
<text text-anchor="start" x="252.0646" y="-113.9" font-family="Arial" font-size="14.00" fill="#666666">[tinyint(1)]</text>
<polygon fill="none" stroke="#000000" points="116,-72.5 116,-102.5 363,-102.5 363,-72.5 116,-72.5"/>
<text text-anchor="start" x="123" y="-83.9" font-family="Arial" font-size="14.00" fill="#000000">created_at    </text>
<text text-anchor="start" x="223.3422" y="-83.9" font-family="Arial" font-size="14.00" fill="#666666">[timestamp]</text>
<polygon fill="none" stroke="#000000" points="116,-42.5 116,-72.5 363,-72.5 363,-42.5 116,-42.5"/>
<text text-anchor="start" x="123" y="-53.9" font-family="Arial" font-size="14.00" fill="#000000">updated_at    </text>
<text text-anchor="start" x="227.2468" y="-53.9" font-family="Arial" font-size="14.00" fill="#666666">[timestamp]</text>
</g>
<!-- user_surveys&#45;&gt;users -->
<g id="edge2" class="edge">
<title>user_surveys:user_id&#45;&gt;users:id</title>
<path fill="none" stroke="#000000" d="M229.8602,-756.8112C162.6957,-747.1563 194.0576,-638.3163 240,-577 274.1547,-531.416 328.8453,-586.584 363,-541 387.9178,-507.7439 404.5556,-447.5 363,-447.5"/>
<polygon fill="#000000" stroke="#000000" points="230.023,-756.8222 239.695,-761.9897 235.0115,-757.1611 240,-757.5 240,-757.5 240,-757.5 235.0115,-757.1611 240.305,-753.0103 230.023,-756.8222 230.023,-756.8222"/>
<text text-anchor="start" x="6.945" y="-767.5" font-family="Arial" font-size="10.00" fill="#000000">FOREIGN KEY (user_id) REFERENCES users (id)</text>
</g>
<!-- surveys -->
<g id="node4" class="node">
<title>surveys</title>
<polygon fill="#efefef" stroke="transparent" points="467,-312.5 467,-347.5 687,-347.5 687,-312.5 467,-312.5"/>
<polygon fill="none" stroke="#000000" points="467,-312.5 467,-347.5 687,-347.5 687,-312.5 467,-312.5"/>
<text text-anchor="start" x="482.2137" y="-325.3" font-family="Arial Bold" font-size="18.00" fill="#000000">surveys</text>
<text text-anchor="start" x="544.2183" y="-325.3" font-family="Arial" font-size="14.00" fill="#000000">    </text>
<text text-anchor="start" x="578.4231" y="-325.3" font-family="Arial" font-size="14.00" fill="#666666">[BASE TABLE]</text>
<polygon fill="none" stroke="#000000" points="467,-282.5 467,-312.5 687,-312.5 687,-282.5 467,-282.5"/>
<text text-anchor="start" x="473.9341" y="-293.9" font-family="Arial" font-size="14.00" fill="#000000">version    </text>
<text text-anchor="start" x="553.2539" y="-293.9" font-family="Arial" font-size="14.00" fill="#666666">[bigint(20) unsigned]</text>
<polygon fill="none" stroke="#000000" points="467,-252.5 467,-282.5 687,-282.5 687,-252.5 467,-252.5"/>
<text text-anchor="start" x="474" y="-263.9" font-family="Arial" font-size="14.00" fill="#000000">is_active    </text>
<text text-anchor="start" x="562.6564" y="-263.9" font-family="Arial" font-size="14.00" fill="#666666">[tinyint(1)]</text>
<polygon fill="none" stroke="#000000" points="467,-222.5 467,-252.5 687,-252.5 687,-222.5 467,-222.5"/>
<text text-anchor="start" x="474" y="-233.9" font-family="Arial" font-size="14.00" fill="#000000">created_at    </text>
<text text-anchor="start" x="574.3422" y="-233.9" font-family="Arial" font-size="14.00" fill="#666666">[timestamp]</text>
<polygon fill="none" stroke="#000000" points="467,-192.5 467,-222.5 687,-222.5 687,-192.5 467,-192.5"/>
<text text-anchor="start" x="474" y="-203.9" font-family="Arial" font-size="14.00" fill="#000000">updated_at    </text>
<text text-anchor="start" x="578.2468" y="-203.9" font-family="Arial" font-size="14.00" fill="#666666">[timestamp]</text>
</g>
<!-- user_surveys&#45;&gt;surveys -->
<g id="edge3" class="edge">
<title>user_surveys:survey_id&#45;&gt;surveys:version</title>
<path fill="none" stroke="#000000" d="M586.2739,-726.6923C637.3986,-717.8325 592.5289,-637.8969 576,-577 550.9014,-484.53 492.0986,-483.47 467,-391 456.1147,-350.8955 425.4444,-297.5 467,-297.5"/>
<polygon fill="#000000" stroke="#000000" points="585.9692,-726.7162 575.6473,-723.0138 580.9846,-727.1081 576,-727.5 576,-727.5 576,-727.5 580.9846,-727.1081 576.3527,-731.9862 585.9692,-726.7162 585.9692,-726.7162"/>
<text text-anchor="start" x="582.7215" y="-737.5" font-family="Arial" font-size="10.00" fill="#000000">FOREIGN KEY (survey_id) REFERENCES surveys (version)</text>
</g>
<!-- user_survey_domains -->
<g id="node2" class="node">
<title>user_survey_domains</title>
<polygon fill="#efefef" stroke="transparent" points="224,-1292.5 224,-1327.5 591,-1327.5 591,-1292.5 224,-1292.5"/>
<polygon fill="none" stroke="#000000" points="224,-1292.5 224,-1327.5 591,-1327.5 591,-1292.5 224,-1292.5"/>
<text text-anchor="start" x="255.6996" y="-1305.3" font-family="Arial Bold" font-size="18.00" fill="#000000">user_survey_domains</text>
<text text-anchor="start" x="431.7324" y="-1305.3" font-family="Arial" font-size="14.00" fill="#000000">    </text>
<text text-anchor="start" x="465.9372" y="-1305.3" font-family="Arial" font-size="14.00" fill="#666666">[BASE TABLE]</text>
<polygon fill="none" stroke="#000000" points="224,-1262.5 224,-1292.5 591,-1292.5 591,-1262.5 224,-1262.5"/>
<text text-anchor="start" x="231" y="-1273.9" font-family="Arial" font-size="14.00" fill="#000000">id    </text>
<text text-anchor="start" x="276.094" y="-1273.9" font-family="Arial" font-size="14.00" fill="#666666">[bigint(20) unsigned]</text>
<polygon fill="none" stroke="#000000" points="224,-1232.5 224,-1262.5 591,-1262.5 591,-1232.5 224,-1232.5"/>
<text text-anchor="start" x="231" y="-1243.9" font-family="Arial" font-size="14.00" fill="#000000">user_survey_id    </text>
<text text-anchor="start" x="360.1108" y="-1243.9" font-family="Arial" font-size="14.00" fill="#666666">[bigint(20) unsigned]</text>
<polygon fill="none" stroke="#000000" points="224,-1202.5 224,-1232.5 591,-1232.5 591,-1202.5 224,-1202.5"/>
<text text-anchor="start" x="230.9698" y="-1213.9" font-family="Arial" font-size="14.00" fill="#000000">status    </text>
<text text-anchor="start" x="302.521" y="-1213.9" font-family="Arial" font-size="14.00" fill="#666666">[enum(&#39;In Progress&#39;,&#39;Abandoned&#39;,&#39;Complete&#39;)]</text>
<polygon fill="none" stroke="#000000" points="224,-1172.5 224,-1202.5 591,-1202.5 591,-1172.5 224,-1172.5"/>
<text text-anchor="start" x="231" y="-1183.9" font-family="Arial" font-size="14.00" fill="#000000">domain    </text>
<text text-anchor="start" x="311.1024" y="-1183.9" font-family="Arial" font-size="14.00" fill="#666666">[varchar(255)]</text>
<polygon fill="none" stroke="#000000" points="224,-1142.5 224,-1172.5 591,-1172.5 591,-1142.5 224,-1142.5"/>
<text text-anchor="start" x="231" y="-1153.9" font-family="Arial" font-size="14.00" fill="#000000">element_count    </text>
<text text-anchor="start" x="357.014" y="-1153.9" font-family="Arial" font-size="14.00" fill="#666666">[int(11)]</text>
<polygon fill="none" stroke="#000000" points="224,-1112.5 224,-1142.5 591,-1142.5 591,-1112.5 224,-1112.5"/>
<text text-anchor="start" x="231" y="-1123.9" font-family="Arial" font-size="14.00" fill="#000000">completed_element_count    </text>
<text text-anchor="start" x="429.3674" y="-1123.9" font-family="Arial" font-size="14.00" fill="#666666">[int(11)]</text>
<polygon fill="none" stroke="#000000" points="224,-1082.5 224,-1112.5 591,-1112.5 591,-1082.5 224,-1082.5"/>
<text text-anchor="start" x="231" y="-1093.9" font-family="Arial" font-size="14.00" fill="#000000">question_count    </text>
<text text-anchor="start" x="360.136" y="-1093.9" font-family="Arial" font-size="14.00" fill="#666666">[int(11)]</text>
<polygon fill="none" stroke="#000000" points="224,-1052.5 224,-1082.5 591,-1082.5 591,-1052.5 224,-1052.5"/>
<text text-anchor="start" x="231" y="-1063.9" font-family="Arial" font-size="14.00" fill="#000000">completed_question_count    </text>
<text text-anchor="start" x="432.4894" y="-1063.9" font-family="Arial" font-size="14.00" fill="#666666">[int(11)]</text>
<polygon fill="none" stroke="#000000" points="224,-1022.5 224,-1052.5 591,-1052.5 591,-1022.5 224,-1022.5"/>
<text text-anchor="start" x="231" y="-1033.9" font-family="Arial" font-size="14.00" fill="#000000">next_question_id    </text>
<text text-anchor="start" x="371.0252" y="-1033.9" font-family="Arial" font-size="14.00" fill="#666666">[int(11)]</text>
<polygon fill="none" stroke="#000000" points="224,-992.5 224,-1022.5 591,-1022.5 591,-992.5 224,-992.5"/>
<text text-anchor="start" x="231" y="-1003.9" font-family="Arial" font-size="14.00" fill="#000000">created_at    </text>
<text text-anchor="start" x="331.3422" y="-1003.9" font-family="Arial" font-size="14.00" fill="#666666">[timestamp]</text>
<polygon fill="none" stroke="#000000" points="224,-962.5 224,-992.5 591,-992.5 591,-962.5 224,-962.5"/>
<text text-anchor="start" x="231" y="-973.9" font-family="Arial" font-size="14.00" fill="#000000">updated_at    </text>
<text text-anchor="start" x="335.2468" y="-973.9" font-family="Arial" font-size="14.00" fill="#666666">[timestamp]</text>
</g>
<!-- user_survey_domains&#45;&gt;user_surveys -->
<g id="edge1" class="edge">
<title>user_survey_domains:user_survey_id&#45;&gt;user_surveys:id</title>
<path fill="none" stroke="#000000" d="M601.3168,-1247.1124C734.1811,-1236.8509 686.1504,-1025.4085 591,-920 538.4608,-861.7966 292.5392,-942.2034 240,-884 211.2617,-852.1634 197.1111,-787.5 240,-787.5"/>
<polygon fill="#000000" stroke="#000000" points="600.993,-1247.1245 590.831,-1243.0032 595.9965,-1247.3122 591,-1247.5 591,-1247.5 591,-1247.5 595.9965,-1247.3122 591.169,-1251.9968 600.993,-1247.1245 600.993,-1247.1245"/>
<text text-anchor="start" x="597.939" y="-1257.5" font-family="Arial" font-size="10.00" fill="#000000">FOREIGN KEY (user_survey_id) REFERENCES user_surveys (id)</text>
</g>
</g>
</svg>
