<?xml version="1.0" encoding="UTF-8" standalone="no"?>
<!DOCTYPE svg PUBLIC "-//W3C//DTD SVG 1.1//EN"
 "http://www.w3.org/Graphics/SVG/1.1/DTD/svg11.dtd">
<!-- Generated by graphviz version 2.40.1 (20161225.0304)
 -->
<!-- Title: waitlists Pages: 1 -->
<svg width="715pt" height="952pt"
 viewBox="0.00 0.00 715.00 952.00" xmlns="http://www.w3.org/2000/svg" xmlns:xlink="http://www.w3.org/1999/xlink">
<g id="graph0" class="graph" transform="scale(1 1) rotate(0) translate(4 948)">
<title>waitlists</title>
<polygon fill="#ffffff" stroke="transparent" points="-4,4 -4,-948 711,-948 711,4 -4,4"/>
<!-- waitlists -->
<g id="node1" class="node">
<title>waitlists</title>
<polygon fill="#efefef" stroke="transparent" points="239,-862.5 239,-897.5 467,-897.5 467,-862.5 239,-862.5"/>
<polygon fill="none" stroke="#000000" points="239,-862.5 239,-897.5 467,-897.5 467,-862.5 239,-862.5"/>
<text text-anchor="start" x="257.7223" y="-875.3" font-family="Arial Bold" font-size="18.00" fill="#000000">waitlists</text>
<text text-anchor="start" x="320.7097" y="-875.3" font-family="Arial" font-size="14.00" fill="#000000">    </text>
<text text-anchor="start" x="354.9145" y="-875.3" font-family="Arial" font-size="14.00" fill="#666666">[BASE TABLE]</text>
<polygon fill="none" stroke="#000000" points="239,-832.5 239,-862.5 467,-862.5 467,-832.5 239,-832.5"/>
<text text-anchor="start" x="246" y="-843.9" font-family="Arial" font-size="14.00" fill="#000000">id </text>
<text text-anchor="start" x="260.7798" y="-843.9" font-family="Arial" font-size="14.00" fill="#666666">[bigint(20) unsigned]</text>
<polygon fill="none" stroke="#000000" points="239,-802.5 239,-832.5 467,-832.5 467,-802.5 239,-802.5"/>
<text text-anchor="start" x="246" y="-813.9" font-family="Arial" font-size="14.00" fill="#000000">loan_id </text>
<text text-anchor="start" x="295.0168" y="-813.9" font-family="Arial" font-size="14.00" fill="#666666">[bigint(20) unsigned]</text>
<polygon fill="none" stroke="#000000" points="239,-772.5 239,-802.5 467,-802.5 467,-772.5 239,-772.5"/>
<text text-anchor="start" x="246" y="-783.9" font-family="Arial" font-size="14.00" fill="#000000">user_id </text>
<text text-anchor="start" x="295.7882" y="-783.9" font-family="Arial" font-size="14.00" fill="#666666">[bigint(20) unsigned]</text>
<polygon fill="none" stroke="#000000" points="239,-742.5 239,-772.5 467,-772.5 467,-742.5 239,-742.5"/>
<text text-anchor="start" x="245.6417" y="-753.9" font-family="Arial" font-size="14.00" fill="#000000">current_loan_length </text>
<text text-anchor="start" x="373.2391" y="-753.9" font-family="Arial" font-size="14.00" fill="#666666">[varchar(255)]</text>
<polygon fill="none" stroke="#000000" points="239,-712.5 239,-742.5 467,-742.5 467,-712.5 239,-712.5"/>
<text text-anchor="start" x="246" y="-723.9" font-family="Arial" font-size="14.00" fill="#000000">date_requested </text>
<text text-anchor="start" x="347.1584" y="-723.9" font-family="Arial" font-size="14.00" fill="#666666">[datetime]</text>
<polygon fill="none" stroke="#000000" points="239,-682.5 239,-712.5 467,-712.5 467,-682.5 239,-682.5"/>
<text text-anchor="start" x="246" y="-693.9" font-family="Arial" font-size="14.00" fill="#000000">time_requested </text>
<text text-anchor="start" x="346.3604" y="-693.9" font-family="Arial" font-size="14.00" fill="#666666">[datetime]</text>
<polygon fill="none" stroke="#000000" points="239,-652.5 239,-682.5 467,-682.5 467,-652.5 239,-652.5"/>
<text text-anchor="start" x="246" y="-663.9" font-family="Arial" font-size="14.00" fill="#000000">created_at </text>
<text text-anchor="start" x="316.028" y="-663.9" font-family="Arial" font-size="14.00" fill="#666666">[timestamp]</text>
<polygon fill="none" stroke="#000000" points="239,-622.5 239,-652.5 467,-652.5 467,-622.5 239,-622.5"/>
<text text-anchor="start" x="246" y="-633.9" font-family="Arial" font-size="14.00" fill="#000000">updated_at </text>
<text text-anchor="start" x="319.9326" y="-633.9" font-family="Arial" font-size="14.00" fill="#666666">[timestamp]</text>
<polygon fill="none" stroke="#000000" stroke-width="3" points="237.5,-621.5 237.5,-899.5 468.5,-899.5 468.5,-621.5 237.5,-621.5"/>
</g>
<!-- loans -->
<g id="node2" class="node">
<title>loans</title>
<polygon fill="#efefef" stroke="transparent" points="51,-432.5 51,-467.5 301,-467.5 301,-432.5 51,-432.5"/>
<polygon fill="none" stroke="#000000" points="51,-432.5 51,-467.5 301,-467.5 301,-432.5 51,-432.5"/>
<text text-anchor="start" x="90.7096" y="-445.3" font-family="Arial Bold" font-size="18.00" fill="#000000">loans</text>
<text text-anchor="start" x="133.7224" y="-445.3" font-family="Arial" font-size="14.00" fill="#000000">    </text>
<text text-anchor="start" x="167.9272" y="-445.3" font-family="Arial" font-size="14.00" fill="#666666">[BASE TABLE]</text>
<polygon fill="none" stroke="#000000" points="51,-402.5 51,-432.5 301,-432.5 301,-402.5 51,-402.5"/>
<text text-anchor="start" x="58" y="-413.9" font-family="Arial" font-size="14.00" fill="#000000">id    </text>
<text text-anchor="start" x="103.094" y="-413.9" font-family="Arial" font-size="14.00" fill="#666666">[bigint(20) unsigned]</text>
<polygon fill="none" stroke="#000000" points="51,-372.5 51,-402.5 301,-402.5 301,-372.5 51,-372.5"/>
<text text-anchor="start" x="58" y="-383.9" font-family="Arial" font-size="14.00" fill="#000000">product_id    </text>
<text text-anchor="start" x="157.5582" y="-383.9" font-family="Arial" font-size="14.00" fill="#666666">[bigint(20) unsigned]</text>
<polygon fill="none" stroke="#000000" points="51,-342.5 51,-372.5 301,-372.5 301,-342.5 51,-342.5"/>
<text text-anchor="start" x="58" y="-353.9" font-family="Arial" font-size="14.00" fill="#000000">user_id    </text>
<text text-anchor="start" x="138.1024" y="-353.9" font-family="Arial" font-size="14.00" fill="#666666">[bigint(20) unsigned]</text>
<polygon fill="none" stroke="#000000" points="51,-312.5 51,-342.5 301,-342.5 301,-312.5 51,-312.5"/>
<text text-anchor="start" x="58" y="-323.9" font-family="Arial" font-size="14.00" fill="#000000">loan_start    </text>
<text text-anchor="start" x="153.6662" y="-323.9" font-family="Arial" font-size="14.00" fill="#666666">[datetime]</text>
<polygon fill="none" stroke="#000000" points="51,-282.5 51,-312.5 301,-312.5 301,-282.5 51,-282.5"/>
<text text-anchor="start" x="58" y="-293.9" font-family="Arial" font-size="14.00" fill="#000000">loan_end    </text>
<text text-anchor="start" x="149.7896" y="-293.9" font-family="Arial" font-size="14.00" fill="#666666">[datetime]</text>
<polygon fill="none" stroke="#000000" points="51,-252.5 51,-282.5 301,-282.5 301,-252.5 51,-252.5"/>
<text text-anchor="start" x="58" y="-263.9" font-family="Arial" font-size="14.00" fill="#000000">is_available    </text>
<text text-anchor="start" x="165.3268" y="-263.9" font-family="Arial" font-size="14.00" fill="#666666">[tinyint(1)]</text>
<polygon fill="none" stroke="#000000" points="51,-222.5 51,-252.5 301,-252.5 301,-222.5 51,-222.5"/>
<text text-anchor="start" x="58" y="-233.9" font-family="Arial" font-size="14.00" fill="#000000">status    </text>
<text text-anchor="start" x="129.5512" y="-233.9" font-family="Arial" font-size="14.00" fill="#666666">[varchar(255)]</text>
<polygon fill="none" stroke="#000000" points="51,-192.5 51,-222.5 301,-222.5 301,-192.5 51,-192.5"/>
<text text-anchor="start" x="58" y="-203.9" font-family="Arial" font-size="14.00" fill="#000000">quantity    </text>
<text text-anchor="start" x="141.223" y="-203.9" font-family="Arial" font-size="14.00" fill="#666666">[int(11)]</text>
<polygon fill="none" stroke="#000000" points="51,-162.5 51,-192.5 301,-192.5 301,-162.5 51,-162.5"/>
<text text-anchor="start" x="57.7616" y="-173.9" font-family="Arial" font-size="14.00" fill="#000000">inventory_id    </text>
<text text-anchor="start" x="167.4264" y="-173.9" font-family="Arial" font-size="14.00" fill="#666666">[bigint(20) unsigned]</text>
<polygon fill="none" stroke="#000000" points="51,-132.5 51,-162.5 301,-162.5 301,-132.5 51,-132.5"/>
<text text-anchor="start" x="58" y="-143.9" font-family="Arial" font-size="14.00" fill="#000000">is_returned    </text>
<text text-anchor="start" x="162.2188" y="-143.9" font-family="Arial" font-size="14.00" fill="#666666">[tinyint(1)]</text>
<polygon fill="none" stroke="#000000" points="51,-102.5 51,-132.5 301,-132.5 301,-102.5 51,-102.5"/>
<text text-anchor="start" x="58" y="-113.9" font-family="Arial" font-size="14.00" fill="#000000">created_at    </text>
<text text-anchor="start" x="158.3422" y="-113.9" font-family="Arial" font-size="14.00" fill="#666666">[timestamp]</text>
<polygon fill="none" stroke="#000000" points="51,-72.5 51,-102.5 301,-102.5 301,-72.5 51,-72.5"/>
<text text-anchor="start" x="58" y="-83.9" font-family="Arial" font-size="14.00" fill="#000000">updated_at    </text>
<text text-anchor="start" x="162.2468" y="-83.9" font-family="Arial" font-size="14.00" fill="#666666">[timestamp]</text>
</g>
<!-- waitlists&#45;&gt;loans -->
<g id="edge1" class="edge">
<title>waitlists:loan_id&#45;&gt;loans:id</title>
<path fill="none" stroke="#000000" d="M228.9223,-817.04C136.5646,-808.1747 200.9496,-673.0796 239,-577 253.8189,-539.5814 286.1811,-548.4186 301,-511 316.301,-472.364 342.5556,-417.5 301,-417.5"/>
<polygon fill="#000000" stroke="#000000" points="229.0104,-817.0439 238.7947,-821.9953 234.0052,-817.2719 239,-817.5 239,-817.5 239,-817.5 234.0052,-817.2719 239.2053,-813.0047 229.0104,-817.0439 229.0104,-817.0439"/>
<text text-anchor="start" x="7.496" y="-827.5" font-family="Arial" font-size="10.00" fill="#000000">FOREIGN KEY (loan_id) REFERENCES loans (id)</text>
</g>
<!-- users -->
<g id="node3" class="node">
<title>users</title>
<polygon fill="#efefef" stroke="transparent" points="406,-462.5 406,-497.5 653,-497.5 653,-462.5 406,-462.5"/>
<polygon fill="none" stroke="#000000" points="406,-462.5 406,-497.5 653,-497.5 653,-462.5 406,-462.5"/>
<text text-anchor="start" x="443.7137" y="-475.3" font-family="Arial Bold" font-size="18.00" fill="#000000">users</text>
<text text-anchor="start" x="487.7183" y="-475.3" font-family="Arial" font-size="14.00" fill="#000000">    </text>
<text text-anchor="start" x="521.9231" y="-475.3" font-family="Arial" font-size="14.00" fill="#666666">[BASE TABLE]</text>
<polygon fill="none" stroke="#000000" points="406,-432.5 406,-462.5 653,-462.5 653,-432.5 406,-432.5"/>
<text text-anchor="start" x="413" y="-443.9" font-family="Arial" font-size="14.00" fill="#000000">id    </text>
<text text-anchor="start" x="458.094" y="-443.9" font-family="Arial" font-size="14.00" fill="#666666">[bigint(20) unsigned]</text>
<polygon fill="none" stroke="#000000" points="406,-402.5 406,-432.5 653,-432.5 653,-402.5 406,-402.5"/>
<text text-anchor="start" x="413" y="-413.9" font-family="Arial" font-size="14.00" fill="#000000">full_name    </text>
<text text-anchor="start" x="507.8822" y="-413.9" font-family="Arial" font-size="14.00" fill="#666666">[varchar(255)]</text>
<polygon fill="none" stroke="#000000" points="406,-372.5 406,-402.5 653,-402.5 653,-372.5 406,-372.5"/>
<text text-anchor="start" x="413" y="-383.9" font-family="Arial" font-size="14.00" fill="#000000">display_name    </text>
<text text-anchor="start" x="533.5568" y="-383.9" font-family="Arial" font-size="14.00" fill="#666666">[varchar(255)]</text>
<polygon fill="none" stroke="#000000" points="406,-342.5 406,-372.5 653,-372.5 653,-342.5 406,-342.5"/>
<text text-anchor="start" x="413" y="-353.9" font-family="Arial" font-size="14.00" fill="#000000">email    </text>
<text text-anchor="start" x="480.6438" y="-353.9" font-family="Arial" font-size="14.00" fill="#666666">[varchar(255)]</text>
<polygon fill="none" stroke="#000000" points="406,-312.5 406,-342.5 653,-342.5 653,-312.5 406,-312.5"/>
<text text-anchor="start" x="413" y="-323.9" font-family="Arial" font-size="14.00" fill="#000000">password    </text>
<text text-anchor="start" x="507.1024" y="-323.9" font-family="Arial" font-size="14.00" fill="#666666">[varchar(255)]</text>
<polygon fill="none" stroke="#000000" points="406,-282.5 406,-312.5 653,-312.5 653,-282.5 406,-282.5"/>
<text text-anchor="start" x="413" y="-293.9" font-family="Arial" font-size="14.00" fill="#000000">status    </text>
<text text-anchor="start" x="484.5512" y="-293.9" font-family="Arial" font-size="14.00" fill="#666666">[varchar(255)]</text>
<polygon fill="none" stroke="#000000" points="406,-252.5 406,-282.5 653,-282.5 653,-252.5 406,-252.5"/>
<text text-anchor="start" x="413" y="-263.9" font-family="Arial" font-size="14.00" fill="#000000">role_id    </text>
<text text-anchor="start" x="489.209" y="-263.9" font-family="Arial" font-size="14.00" fill="#666666">[bigint(20) unsigned]</text>
<polygon fill="none" stroke="#000000" points="406,-222.5 406,-252.5 653,-252.5 653,-222.5 406,-222.5"/>
<text text-anchor="start" x="413" y="-233.9" font-family="Arial" font-size="14.00" fill="#000000">site_id    </text>
<text text-anchor="start" x="487.6564" y="-233.9" font-family="Arial" font-size="14.00" fill="#666666">[bigint(20) unsigned]</text>
<polygon fill="none" stroke="#000000" points="406,-192.5 406,-222.5 653,-222.5 653,-192.5 406,-192.5"/>
<text text-anchor="start" x="412.8149" y="-203.9" font-family="Arial" font-size="14.00" fill="#000000">usertype_id    </text>
<text text-anchor="start" x="519.3731" y="-203.9" font-family="Arial" font-size="14.00" fill="#666666">[bigint(20) unsigned]</text>
<polygon fill="none" stroke="#000000" points="406,-162.5 406,-192.5 653,-192.5 653,-162.5 406,-162.5"/>
<text text-anchor="start" x="413" y="-173.9" font-family="Arial" font-size="14.00" fill="#000000">remember_token    </text>
<text text-anchor="start" x="552.9986" y="-173.9" font-family="Arial" font-size="14.00" fill="#666666">[varchar(100)]</text>
<polygon fill="none" stroke="#000000" points="406,-132.5 406,-162.5 653,-162.5 653,-132.5 406,-132.5"/>
<text text-anchor="start" x="413" y="-143.9" font-family="Arial" font-size="14.00" fill="#000000">token    </text>
<text text-anchor="start" x="481.4432" y="-143.9" font-family="Arial" font-size="14.00" fill="#666666">[longtext]</text>
<polygon fill="none" stroke="#000000" points="406,-102.5 406,-132.5 653,-132.5 653,-102.5 406,-102.5"/>
<text text-anchor="start" x="413" y="-113.9" font-family="Arial" font-size="14.00" fill="#000000">isFirstTimeVisit    </text>
<text text-anchor="start" x="542.0646" y="-113.9" font-family="Arial" font-size="14.00" fill="#666666">[tinyint(1)]</text>
<polygon fill="none" stroke="#000000" points="406,-72.5 406,-102.5 653,-102.5 653,-72.5 406,-72.5"/>
<text text-anchor="start" x="413" y="-83.9" font-family="Arial" font-size="14.00" fill="#000000">created_at    </text>
<text text-anchor="start" x="513.3422" y="-83.9" font-family="Arial" font-size="14.00" fill="#666666">[timestamp]</text>
<polygon fill="none" stroke="#000000" points="406,-42.5 406,-72.5 653,-72.5 653,-42.5 406,-42.5"/>
<text text-anchor="start" x="413" y="-53.9" font-family="Arial" font-size="14.00" fill="#000000">updated_at    </text>
<text text-anchor="start" x="517.2468" y="-53.9" font-family="Arial" font-size="14.00" fill="#666666">[timestamp]</text>
</g>
<!-- waitlists&#45;&gt;users -->
<g id="edge2" class="edge">
<title>waitlists:user_id&#45;&gt;users:id</title>
<path fill="none" stroke="#000000" d="M477.3278,-786.9189C556.8719,-777.4751 511.578,-655.0705 467,-577 451.3903,-549.6623 421.6097,-568.3377 406,-541 385.3944,-504.913 364.4444,-447.5 406,-447.5"/>
<polygon fill="#000000" stroke="#000000" points="476.9842,-786.9381 466.7472,-783.0071 471.9921,-787.2191 467,-787.5 467,-787.5 467,-787.5 471.9921,-787.2191 467.2528,-791.9929 476.9842,-786.9381 476.9842,-786.9381"/>
<text text-anchor="start" x="473.945" y="-797.5" font-family="Arial" font-size="10.00" fill="#000000">FOREIGN KEY (user_id) REFERENCES users (id)</text>
</g>
</g>
</svg>
